G04 #@! TF.GenerationSoftware,KiCad,Pcbnew,(5.1.5)-3*
G04 #@! TF.CreationDate,2021-07-14T18:19:22-04:00*
G04 #@! TF.ProjectId,MotorDriver,4d6f746f-7244-4726-9976-65722e6b6963,rev?*
G04 #@! TF.SameCoordinates,Original*
G04 #@! TF.FileFunction,Legend,Bot*
G04 #@! TF.FilePolarity,Positive*
%FSLAX46Y46*%
G04 Gerber Fmt 4.6, Leading zero omitted, Abs format (unit mm)*
G04 Created by KiCad (PCBNEW (5.1.5)-3) date 2021-07-14 18:19:22*
%MOMM*%
%LPD*%
G04 APERTURE LIST*
%ADD10C,0.150000*%
%ADD11O,1.452000X1.452000*%
%ADD12R,1.452000X1.452000*%
%ADD13C,2.601360*%
%ADD14R,2.601360X2.601360*%
G04 APERTURE END LIST*
D10*
X145954285Y-128722380D02*
X145954285Y-127722380D01*
X145716190Y-127722380D01*
X145573333Y-127770000D01*
X145478095Y-127865238D01*
X145430476Y-127960476D01*
X145382857Y-128150952D01*
X145382857Y-128293809D01*
X145430476Y-128484285D01*
X145478095Y-128579523D01*
X145573333Y-128674761D01*
X145716190Y-128722380D01*
X145954285Y-128722380D01*
X144954285Y-128722380D02*
X144954285Y-128055714D01*
X144954285Y-128246190D02*
X144906666Y-128150952D01*
X144859047Y-128103333D01*
X144763809Y-128055714D01*
X144668571Y-128055714D01*
X144335238Y-128722380D02*
X144335238Y-128055714D01*
X144335238Y-127722380D02*
X144382857Y-127770000D01*
X144335238Y-127817619D01*
X144287619Y-127770000D01*
X144335238Y-127722380D01*
X144335238Y-127817619D01*
X143954285Y-128055714D02*
X143716190Y-128722380D01*
X143478095Y-128055714D01*
X142716190Y-128674761D02*
X142811428Y-128722380D01*
X143001904Y-128722380D01*
X143097142Y-128674761D01*
X143144761Y-128579523D01*
X143144761Y-128198571D01*
X143097142Y-128103333D01*
X143001904Y-128055714D01*
X142811428Y-128055714D01*
X142716190Y-128103333D01*
X142668571Y-128198571D01*
X142668571Y-128293809D01*
X143144761Y-128389047D01*
X142240000Y-128722380D02*
X142240000Y-128055714D01*
X142240000Y-128246190D02*
X142192380Y-128150952D01*
X142144761Y-128103333D01*
X142049523Y-128055714D01*
X141954285Y-128055714D01*
X141049523Y-128722380D02*
X141382857Y-128246190D01*
X141620952Y-128722380D02*
X141620952Y-127722380D01*
X141240000Y-127722380D01*
X141144761Y-127770000D01*
X141097142Y-127817619D01*
X141049523Y-127912857D01*
X141049523Y-128055714D01*
X141097142Y-128150952D01*
X141144761Y-128198571D01*
X141240000Y-128246190D01*
X141620952Y-128246190D01*
X140240000Y-128674761D02*
X140335238Y-128722380D01*
X140525714Y-128722380D01*
X140620952Y-128674761D01*
X140668571Y-128579523D01*
X140668571Y-128198571D01*
X140620952Y-128103333D01*
X140525714Y-128055714D01*
X140335238Y-128055714D01*
X140240000Y-128103333D01*
X140192380Y-128198571D01*
X140192380Y-128293809D01*
X140668571Y-128389047D01*
X139859047Y-128055714D02*
X139620952Y-128722380D01*
X139382857Y-128055714D01*
X138811428Y-127722380D02*
X138716190Y-127722380D01*
X138620952Y-127770000D01*
X138573333Y-127817619D01*
X138525714Y-127912857D01*
X138478095Y-128103333D01*
X138478095Y-128341428D01*
X138525714Y-128531904D01*
X138573333Y-128627142D01*
X138620952Y-128674761D01*
X138716190Y-128722380D01*
X138811428Y-128722380D01*
X138906666Y-128674761D01*
X138954285Y-128627142D01*
X139001904Y-128531904D01*
X139049523Y-128341428D01*
X139049523Y-128103333D01*
X139001904Y-127912857D01*
X138954285Y-127817619D01*
X138906666Y-127770000D01*
X138811428Y-127722380D01*
%LPC*%
D11*
X135382000Y-96900000D03*
X135382000Y-94900000D03*
X135382000Y-92900000D03*
X135382000Y-90900000D03*
D12*
X135382000Y-88900000D03*
D11*
X161036000Y-93598000D03*
X161036000Y-91598000D03*
X161036000Y-89598000D03*
X161036000Y-87598000D03*
D12*
X161036000Y-85598000D03*
D13*
X160782000Y-97536000D03*
D14*
X160782000Y-101346000D03*
D13*
X160782000Y-130048000D03*
D14*
X160782000Y-126238000D03*
D13*
X160782000Y-82042000D03*
D14*
X160782000Y-78232000D03*
D13*
X135382000Y-126238000D03*
D14*
X135382000Y-130048000D03*
D13*
X135382000Y-77724000D03*
D14*
X135382000Y-81534000D03*
D11*
X135128000Y-113950000D03*
X135128000Y-111950000D03*
X135128000Y-109950000D03*
D12*
X135128000Y-107950000D03*
D11*
X160782000Y-115474000D03*
X160782000Y-113474000D03*
X160782000Y-111474000D03*
D12*
X160782000Y-109474000D03*
D11*
X145384000Y-71882000D03*
X147384000Y-71882000D03*
X149384000Y-71882000D03*
D12*
X151384000Y-71882000D03*
M02*
