G04 #@! TF.GenerationSoftware,KiCad,Pcbnew,(5.1.5)-3*
G04 #@! TF.CreationDate,2021-07-14T18:19:22-04:00*
G04 #@! TF.ProjectId,MotorDriver,4d6f746f-7244-4726-9976-65722e6b6963,rev?*
G04 #@! TF.SameCoordinates,Original*
G04 #@! TF.FileFunction,Legend,Top*
G04 #@! TF.FilePolarity,Positive*
%FSLAX46Y46*%
G04 Gerber Fmt 4.6, Leading zero omitted, Abs format (unit mm)*
G04 Created by KiCad (PCBNEW (5.1.5)-3) date 2021-07-14 18:19:22*
%MOMM*%
%LPD*%
G04 APERTURE LIST*
%ADD10C,0.120000*%
%ADD11C,0.152400*%
%ADD12C,0.300000*%
%ADD13C,0.203200*%
%ADD14C,0.150000*%
%ADD15C,0.250000*%
%ADD16C,0.015000*%
%ADD17C,0.254000*%
%ADD18C,0.100000*%
%ADD19O,1.452000X1.452000*%
%ADD20R,1.452000X1.452000*%
%ADD21C,2.601360*%
%ADD22R,2.601360X2.601360*%
%ADD23R,0.610000X1.074299*%
%ADD24R,0.362000X0.552000*%
%ADD25R,0.552000X0.362000*%
%ADD26R,1.602000X1.102000*%
%ADD27R,1.102000X1.602000*%
%ADD28R,1.802000X1.102000*%
%ADD29R,0.402000X0.802000*%
%ADD30R,2.552000X1.102000*%
%ADD31R,1.102000X2.552000*%
%ADD32R,2.102000X1.002000*%
%ADD33R,1.002000X2.102000*%
%ADD34R,5.102000X5.102000*%
G04 APERTURE END LIST*
D10*
X134322000Y-87840000D02*
X135382000Y-87840000D01*
X134322000Y-88900000D02*
X134322000Y-87840000D01*
X134322000Y-89900000D02*
X136442000Y-89900000D01*
X136442000Y-89900000D02*
X136442000Y-97960000D01*
X134322000Y-89900000D02*
X134322000Y-97960000D01*
X134322000Y-97960000D02*
X136442000Y-97960000D01*
X159976000Y-84538000D02*
X161036000Y-84538000D01*
X159976000Y-85598000D02*
X159976000Y-84538000D01*
X159976000Y-86598000D02*
X162096000Y-86598000D01*
X162096000Y-86598000D02*
X162096000Y-94658000D01*
X159976000Y-86598000D02*
X159976000Y-94658000D01*
X159976000Y-94658000D02*
X162096000Y-94658000D01*
X134068000Y-106890000D02*
X135128000Y-106890000D01*
X134068000Y-107950000D02*
X134068000Y-106890000D01*
X134068000Y-108950000D02*
X136188000Y-108950000D01*
X136188000Y-108950000D02*
X136188000Y-115010000D01*
X134068000Y-108950000D02*
X134068000Y-115010000D01*
X134068000Y-115010000D02*
X136188000Y-115010000D01*
X159722000Y-108414000D02*
X160782000Y-108414000D01*
X159722000Y-109474000D02*
X159722000Y-108414000D01*
X159722000Y-110474000D02*
X161842000Y-110474000D01*
X161842000Y-110474000D02*
X161842000Y-116534000D01*
X159722000Y-110474000D02*
X159722000Y-116534000D01*
X159722000Y-116534000D02*
X161842000Y-116534000D01*
X152444000Y-70822000D02*
X152444000Y-71882000D01*
X151384000Y-70822000D02*
X152444000Y-70822000D01*
X150384000Y-70822000D02*
X150384000Y-72942000D01*
X150384000Y-72942000D02*
X144324000Y-72942000D01*
X150384000Y-70822000D02*
X144324000Y-70822000D01*
X144324000Y-70822000D02*
X144324000Y-72942000D01*
D11*
X155816300Y-101079300D02*
X155816300Y-99072700D01*
X153814739Y-101079300D02*
X154541261Y-101079300D01*
X152539700Y-99072700D02*
X152539700Y-101079300D01*
D12*
X150232000Y-101830000D02*
G75*
G03X150232000Y-101830000I-150000J0D01*
G01*
D13*
X149582000Y-98830000D02*
X149582000Y-99230000D01*
X149182000Y-98830000D02*
X149582000Y-98830000D01*
X146582000Y-98830000D02*
X146982000Y-98830000D01*
X146582000Y-99230000D02*
X146582000Y-98830000D01*
X146582000Y-101830000D02*
X146582000Y-101430000D01*
X146982000Y-101830000D02*
X146582000Y-101830000D01*
X149582000Y-101830000D02*
X149182000Y-101830000D01*
X149582000Y-101430000D02*
X149582000Y-101830000D01*
D10*
X153575936Y-104796000D02*
X154780064Y-104796000D01*
X153575936Y-102976000D02*
X154780064Y-102976000D01*
D11*
X152539700Y-109486700D02*
X152539700Y-111493300D01*
X154541261Y-109486700D02*
X153814739Y-109486700D01*
X155816300Y-111493300D02*
X155816300Y-109486700D01*
D14*
X143882000Y-99450000D02*
X143357000Y-99450000D01*
X143882000Y-103750000D02*
X143357000Y-103750000D01*
X139582000Y-103750000D02*
X140107000Y-103750000D01*
X139582000Y-99450000D02*
X140107000Y-99450000D01*
X143882000Y-103750000D02*
X143882000Y-103225000D01*
X139582000Y-103750000D02*
X139582000Y-103225000D01*
X143882000Y-99450000D02*
X143882000Y-99975000D01*
D10*
X161020000Y-118742000D02*
X161020000Y-121542000D01*
X161020000Y-121542000D02*
X159020000Y-121542000D01*
X159020000Y-121542000D02*
X159020000Y-118742000D01*
X159020000Y-118742000D02*
X161020000Y-118742000D01*
X159382000Y-103648000D02*
X162182000Y-103648000D01*
X162182000Y-103648000D02*
X162182000Y-105648000D01*
X162182000Y-105648000D02*
X159382000Y-105648000D01*
X159382000Y-105648000D02*
X159382000Y-103648000D01*
X136414000Y-86998000D02*
X136414000Y-84198000D01*
X136414000Y-84198000D02*
X138414000Y-84198000D01*
X138414000Y-84198000D02*
X138414000Y-86998000D01*
X138414000Y-86998000D02*
X136414000Y-86998000D01*
D15*
X148077000Y-115446000D02*
G75*
G03X148077000Y-115446000I-125000J0D01*
G01*
X150877000Y-106804000D02*
G75*
G03X150877000Y-106804000I-125000J0D01*
G01*
X143759000Y-115446000D02*
G75*
G03X143759000Y-115446000I-125000J0D01*
G01*
X146559000Y-106804000D02*
G75*
G03X146559000Y-106804000I-125000J0D01*
G01*
D14*
X156737000Y-142814000D02*
X156737000Y-132814000D01*
X143237000Y-142814000D02*
X143237000Y-132814000D01*
X156737000Y-142814000D02*
X143237000Y-142814000D01*
X143237000Y-119314000D02*
X143237000Y-121064000D01*
X143987000Y-119314000D02*
X143237000Y-119314000D01*
X156737000Y-119314000D02*
X156737000Y-121064000D01*
X155987000Y-119314000D02*
X156737000Y-119314000D01*
D10*
X153575936Y-107590000D02*
X154780064Y-107590000D01*
X153575936Y-105770000D02*
X154780064Y-105770000D01*
X139724000Y-77314000D02*
X139344000Y-77314000D01*
X139724000Y-76894000D02*
X139724000Y-77314000D01*
X157964000Y-76894000D02*
X157964000Y-77314000D01*
X139724000Y-76894000D02*
X157964000Y-76894000D01*
X157964000Y-96334000D02*
X156964000Y-96334000D01*
X157964000Y-95714000D02*
X157964000Y-96334000D01*
X139724000Y-96334000D02*
X140724000Y-96334000D01*
X139724000Y-95714000D02*
X139724000Y-96334000D01*
D14*
X137612380Y-90082666D02*
X137136190Y-90416000D01*
X137612380Y-90654095D02*
X136612380Y-90654095D01*
X136612380Y-90273142D01*
X136660000Y-90177904D01*
X136707619Y-90130285D01*
X136802857Y-90082666D01*
X136945714Y-90082666D01*
X137040952Y-90130285D01*
X137088571Y-90177904D01*
X137136190Y-90273142D01*
X137136190Y-90654095D01*
X136707619Y-89701714D02*
X136660000Y-89654095D01*
X136612380Y-89558857D01*
X136612380Y-89320761D01*
X136660000Y-89225523D01*
X136707619Y-89177904D01*
X136802857Y-89130285D01*
X136898095Y-89130285D01*
X137040952Y-89177904D01*
X137612380Y-89749333D01*
X137612380Y-89130285D01*
X138882380Y-92368666D02*
X138406190Y-92702000D01*
X138882380Y-92940095D02*
X137882380Y-92940095D01*
X137882380Y-92559142D01*
X137930000Y-92463904D01*
X137977619Y-92416285D01*
X138072857Y-92368666D01*
X138215714Y-92368666D01*
X138310952Y-92416285D01*
X138358571Y-92463904D01*
X138406190Y-92559142D01*
X138406190Y-92940095D01*
X138882380Y-91416285D02*
X138882380Y-91987714D01*
X138882380Y-91702000D02*
X137882380Y-91702000D01*
X138025238Y-91797238D01*
X138120476Y-91892476D01*
X138168095Y-91987714D01*
X134858190Y-99766380D02*
X134858190Y-98766380D01*
X135524857Y-98766380D02*
X135715333Y-98766380D01*
X135810571Y-98814000D01*
X135905809Y-98909238D01*
X135953428Y-99099714D01*
X135953428Y-99433047D01*
X135905809Y-99623523D01*
X135810571Y-99718761D01*
X135715333Y-99766380D01*
X135524857Y-99766380D01*
X135429619Y-99718761D01*
X135334380Y-99623523D01*
X135286761Y-99433047D01*
X135286761Y-99099714D01*
X135334380Y-98909238D01*
X135429619Y-98814000D01*
X135524857Y-98766380D01*
X159710380Y-92082761D02*
X159234190Y-92416095D01*
X159710380Y-92654190D02*
X158710380Y-92654190D01*
X158710380Y-92273238D01*
X158758000Y-92178000D01*
X158805619Y-92130380D01*
X158900857Y-92082761D01*
X159043714Y-92082761D01*
X159138952Y-92130380D01*
X159186571Y-92178000D01*
X159234190Y-92273238D01*
X159234190Y-92654190D01*
X158710380Y-91749428D02*
X159710380Y-91082761D01*
X158710380Y-91082761D02*
X159710380Y-91749428D01*
X158710380Y-90082761D02*
X158710380Y-89511333D01*
X159710380Y-89797047D02*
X158710380Y-89797047D01*
X158710380Y-89273238D02*
X159710380Y-88606571D01*
X158710380Y-88606571D02*
X159710380Y-89273238D01*
X158170571Y-101322095D02*
X158218190Y-101179238D01*
X158265809Y-101131619D01*
X158361047Y-101084000D01*
X158503904Y-101084000D01*
X158599142Y-101131619D01*
X158646761Y-101179238D01*
X158694380Y-101274476D01*
X158694380Y-101655428D01*
X157694380Y-101655428D01*
X157694380Y-101322095D01*
X157742000Y-101226857D01*
X157789619Y-101179238D01*
X157884857Y-101131619D01*
X157980095Y-101131619D01*
X158075333Y-101179238D01*
X158122952Y-101226857D01*
X158170571Y-101322095D01*
X158170571Y-101655428D01*
X158408666Y-100703047D02*
X158408666Y-100226857D01*
X158694380Y-100798285D02*
X157694380Y-100464952D01*
X158694380Y-100131619D01*
X157694380Y-99941142D02*
X157694380Y-99369714D01*
X158694380Y-99655428D02*
X157694380Y-99655428D01*
X141343142Y-110593142D02*
X141295523Y-110640761D01*
X141152666Y-110688380D01*
X141057428Y-110688380D01*
X140914571Y-110640761D01*
X140819333Y-110545523D01*
X140771714Y-110450285D01*
X140724095Y-110259809D01*
X140724095Y-110116952D01*
X140771714Y-109926476D01*
X140819333Y-109831238D01*
X140914571Y-109736000D01*
X141057428Y-109688380D01*
X141152666Y-109688380D01*
X141295523Y-109736000D01*
X141343142Y-109783619D01*
X142295523Y-110688380D02*
X141724095Y-110688380D01*
X142009809Y-110688380D02*
X142009809Y-109688380D01*
X141914571Y-109831238D01*
X141819333Y-109926476D01*
X141724095Y-109974095D01*
X142628857Y-109688380D02*
X143295523Y-109688380D01*
X142866952Y-110688380D01*
X151741142Y-111894857D02*
X151788761Y-111942476D01*
X151836380Y-112085333D01*
X151836380Y-112180571D01*
X151788761Y-112323428D01*
X151693523Y-112418666D01*
X151598285Y-112466285D01*
X151407809Y-112513904D01*
X151264952Y-112513904D01*
X151074476Y-112466285D01*
X150979238Y-112418666D01*
X150884000Y-112323428D01*
X150836380Y-112180571D01*
X150836380Y-112085333D01*
X150884000Y-111942476D01*
X150931619Y-111894857D01*
X151836380Y-110942476D02*
X151836380Y-111513904D01*
X151836380Y-111228190D02*
X150836380Y-111228190D01*
X150979238Y-111323428D01*
X151074476Y-111418666D01*
X151122095Y-111513904D01*
X150836380Y-110085333D02*
X150836380Y-110275809D01*
X150884000Y-110371047D01*
X150931619Y-110418666D01*
X151074476Y-110513904D01*
X151264952Y-110561523D01*
X151645904Y-110561523D01*
X151741142Y-110513904D01*
X151788761Y-110466285D01*
X151836380Y-110371047D01*
X151836380Y-110180571D01*
X151788761Y-110085333D01*
X151741142Y-110037714D01*
X151645904Y-109990095D01*
X151407809Y-109990095D01*
X151312571Y-110037714D01*
X151264952Y-110085333D01*
X151217333Y-110180571D01*
X151217333Y-110371047D01*
X151264952Y-110466285D01*
X151312571Y-110513904D01*
X151407809Y-110561523D01*
X147185142Y-111101142D02*
X147137523Y-111148761D01*
X146994666Y-111196380D01*
X146899428Y-111196380D01*
X146756571Y-111148761D01*
X146661333Y-111053523D01*
X146613714Y-110958285D01*
X146566095Y-110767809D01*
X146566095Y-110624952D01*
X146613714Y-110434476D01*
X146661333Y-110339238D01*
X146756571Y-110244000D01*
X146899428Y-110196380D01*
X146994666Y-110196380D01*
X147137523Y-110244000D01*
X147185142Y-110291619D01*
X148137523Y-111196380D02*
X147566095Y-111196380D01*
X147851809Y-111196380D02*
X147851809Y-110196380D01*
X147756571Y-110339238D01*
X147661333Y-110434476D01*
X147566095Y-110482095D01*
X149042285Y-110196380D02*
X148566095Y-110196380D01*
X148518476Y-110672571D01*
X148566095Y-110624952D01*
X148661333Y-110577333D01*
X148899428Y-110577333D01*
X148994666Y-110624952D01*
X149042285Y-110672571D01*
X149089904Y-110767809D01*
X149089904Y-111005904D01*
X149042285Y-111101142D01*
X148994666Y-111148761D01*
X148899428Y-111196380D01*
X148661333Y-111196380D01*
X148566095Y-111148761D01*
X148518476Y-111101142D01*
X142089142Y-112910857D02*
X142136761Y-112958476D01*
X142184380Y-113101333D01*
X142184380Y-113196571D01*
X142136761Y-113339428D01*
X142041523Y-113434666D01*
X141946285Y-113482285D01*
X141755809Y-113529904D01*
X141612952Y-113529904D01*
X141422476Y-113482285D01*
X141327238Y-113434666D01*
X141232000Y-113339428D01*
X141184380Y-113196571D01*
X141184380Y-113101333D01*
X141232000Y-112958476D01*
X141279619Y-112910857D01*
X142184380Y-111958476D02*
X142184380Y-112529904D01*
X142184380Y-112244190D02*
X141184380Y-112244190D01*
X141327238Y-112339428D01*
X141422476Y-112434666D01*
X141470095Y-112529904D01*
X141279619Y-111577523D02*
X141232000Y-111529904D01*
X141184380Y-111434666D01*
X141184380Y-111196571D01*
X141232000Y-111101333D01*
X141279619Y-111053714D01*
X141374857Y-111006095D01*
X141470095Y-111006095D01*
X141612952Y-111053714D01*
X142184380Y-111625142D01*
X142184380Y-111006095D01*
X147693142Y-106275142D02*
X147645523Y-106322761D01*
X147502666Y-106370380D01*
X147407428Y-106370380D01*
X147264571Y-106322761D01*
X147169333Y-106227523D01*
X147121714Y-106132285D01*
X147074095Y-105941809D01*
X147074095Y-105798952D01*
X147121714Y-105608476D01*
X147169333Y-105513238D01*
X147264571Y-105418000D01*
X147407428Y-105370380D01*
X147502666Y-105370380D01*
X147645523Y-105418000D01*
X147693142Y-105465619D01*
X148645523Y-106370380D02*
X148074095Y-106370380D01*
X148359809Y-106370380D02*
X148359809Y-105370380D01*
X148264571Y-105513238D01*
X148169333Y-105608476D01*
X148074095Y-105656095D01*
X149597904Y-106370380D02*
X149026476Y-106370380D01*
X149312190Y-106370380D02*
X149312190Y-105370380D01*
X149216952Y-105513238D01*
X149121714Y-105608476D01*
X149026476Y-105656095D01*
X139819142Y-117197142D02*
X139771523Y-117244761D01*
X139628666Y-117292380D01*
X139533428Y-117292380D01*
X139390571Y-117244761D01*
X139295333Y-117149523D01*
X139247714Y-117054285D01*
X139200095Y-116863809D01*
X139200095Y-116720952D01*
X139247714Y-116530476D01*
X139295333Y-116435238D01*
X139390571Y-116340000D01*
X139533428Y-116292380D01*
X139628666Y-116292380D01*
X139771523Y-116340000D01*
X139819142Y-116387619D01*
X140771523Y-117292380D02*
X140200095Y-117292380D01*
X140485809Y-117292380D02*
X140485809Y-116292380D01*
X140390571Y-116435238D01*
X140295333Y-116530476D01*
X140200095Y-116578095D01*
X141390571Y-116292380D02*
X141485809Y-116292380D01*
X141581047Y-116340000D01*
X141628666Y-116387619D01*
X141676285Y-116482857D01*
X141723904Y-116673333D01*
X141723904Y-116911428D01*
X141676285Y-117101904D01*
X141628666Y-117197142D01*
X141581047Y-117244761D01*
X141485809Y-117292380D01*
X141390571Y-117292380D01*
X141295333Y-117244761D01*
X141247714Y-117197142D01*
X141200095Y-117101904D01*
X141152476Y-116911428D01*
X141152476Y-116673333D01*
X141200095Y-116482857D01*
X141247714Y-116387619D01*
X141295333Y-116340000D01*
X141390571Y-116292380D01*
X148085142Y-104560666D02*
X148132761Y-104608285D01*
X148180380Y-104751142D01*
X148180380Y-104846380D01*
X148132761Y-104989238D01*
X148037523Y-105084476D01*
X147942285Y-105132095D01*
X147751809Y-105179714D01*
X147608952Y-105179714D01*
X147418476Y-105132095D01*
X147323238Y-105084476D01*
X147228000Y-104989238D01*
X147180380Y-104846380D01*
X147180380Y-104751142D01*
X147228000Y-104608285D01*
X147275619Y-104560666D01*
X148180380Y-104084476D02*
X148180380Y-103894000D01*
X148132761Y-103798761D01*
X148085142Y-103751142D01*
X147942285Y-103655904D01*
X147751809Y-103608285D01*
X147370857Y-103608285D01*
X147275619Y-103655904D01*
X147228000Y-103703523D01*
X147180380Y-103798761D01*
X147180380Y-103989238D01*
X147228000Y-104084476D01*
X147275619Y-104132095D01*
X147370857Y-104179714D01*
X147608952Y-104179714D01*
X147704190Y-104132095D01*
X147751809Y-104084476D01*
X147799428Y-103989238D01*
X147799428Y-103798761D01*
X147751809Y-103703523D01*
X147704190Y-103655904D01*
X147608952Y-103608285D01*
X147153333Y-117451142D02*
X147105714Y-117498761D01*
X146962857Y-117546380D01*
X146867619Y-117546380D01*
X146724761Y-117498761D01*
X146629523Y-117403523D01*
X146581904Y-117308285D01*
X146534285Y-117117809D01*
X146534285Y-116974952D01*
X146581904Y-116784476D01*
X146629523Y-116689238D01*
X146724761Y-116594000D01*
X146867619Y-116546380D01*
X146962857Y-116546380D01*
X147105714Y-116594000D01*
X147153333Y-116641619D01*
X147724761Y-116974952D02*
X147629523Y-116927333D01*
X147581904Y-116879714D01*
X147534285Y-116784476D01*
X147534285Y-116736857D01*
X147581904Y-116641619D01*
X147629523Y-116594000D01*
X147724761Y-116546380D01*
X147915238Y-116546380D01*
X148010476Y-116594000D01*
X148058095Y-116641619D01*
X148105714Y-116736857D01*
X148105714Y-116784476D01*
X148058095Y-116879714D01*
X148010476Y-116927333D01*
X147915238Y-116974952D01*
X147724761Y-116974952D01*
X147629523Y-117022571D01*
X147581904Y-117070190D01*
X147534285Y-117165428D01*
X147534285Y-117355904D01*
X147581904Y-117451142D01*
X147629523Y-117498761D01*
X147724761Y-117546380D01*
X147915238Y-117546380D01*
X148010476Y-117498761D01*
X148058095Y-117451142D01*
X148105714Y-117355904D01*
X148105714Y-117165428D01*
X148058095Y-117070190D01*
X148010476Y-117022571D01*
X147915238Y-116974952D01*
X159972476Y-124150380D02*
X159972476Y-123150380D01*
X160305809Y-123864666D01*
X160639142Y-123150380D01*
X160639142Y-124150380D01*
X161543904Y-123483714D02*
X161543904Y-124150380D01*
X161305809Y-123102761D02*
X161067714Y-123817047D01*
X161686761Y-123817047D01*
X159972476Y-76144380D02*
X159972476Y-75144380D01*
X160305809Y-75858666D01*
X160639142Y-75144380D01*
X160639142Y-76144380D01*
X161020095Y-75144380D02*
X161639142Y-75144380D01*
X161305809Y-75525333D01*
X161448666Y-75525333D01*
X161543904Y-75572952D01*
X161591523Y-75620571D01*
X161639142Y-75715809D01*
X161639142Y-75953904D01*
X161591523Y-76049142D01*
X161543904Y-76096761D01*
X161448666Y-76144380D01*
X161162952Y-76144380D01*
X161067714Y-76096761D01*
X161020095Y-76049142D01*
X134572476Y-124150380D02*
X134572476Y-123150380D01*
X134905809Y-123864666D01*
X135239142Y-123150380D01*
X135239142Y-124150380D01*
X135667714Y-123245619D02*
X135715333Y-123198000D01*
X135810571Y-123150380D01*
X136048666Y-123150380D01*
X136143904Y-123198000D01*
X136191523Y-123245619D01*
X136239142Y-123340857D01*
X136239142Y-123436095D01*
X136191523Y-123578952D01*
X135620095Y-124150380D01*
X136239142Y-124150380D01*
X134572476Y-75636380D02*
X134572476Y-74636380D01*
X134905809Y-75350666D01*
X135239142Y-74636380D01*
X135239142Y-75636380D01*
X136239142Y-75636380D02*
X135667714Y-75636380D01*
X135953428Y-75636380D02*
X135953428Y-74636380D01*
X135858190Y-74779238D01*
X135762952Y-74874476D01*
X135667714Y-74922095D01*
X134151809Y-116784380D02*
X134151809Y-115784380D01*
X134580380Y-115879619D02*
X134628000Y-115832000D01*
X134723238Y-115784380D01*
X134961333Y-115784380D01*
X135056571Y-115832000D01*
X135104190Y-115879619D01*
X135151809Y-115974857D01*
X135151809Y-116070095D01*
X135104190Y-116212952D01*
X134532761Y-116784380D01*
X135151809Y-116784380D01*
X136151809Y-116689142D02*
X136104190Y-116736761D01*
X135961333Y-116784380D01*
X135866095Y-116784380D01*
X135723238Y-116736761D01*
X135628000Y-116641523D01*
X135580380Y-116546285D01*
X135532761Y-116355809D01*
X135532761Y-116212952D01*
X135580380Y-116022476D01*
X135628000Y-115927238D01*
X135723238Y-115832000D01*
X135866095Y-115784380D01*
X135961333Y-115784380D01*
X136104190Y-115832000D01*
X136151809Y-115879619D01*
X159805809Y-107866380D02*
X159805809Y-106866380D01*
X160234380Y-106961619D02*
X160282000Y-106914000D01*
X160377238Y-106866380D01*
X160615333Y-106866380D01*
X160710571Y-106914000D01*
X160758190Y-106961619D01*
X160805809Y-107056857D01*
X160805809Y-107152095D01*
X160758190Y-107294952D01*
X160186761Y-107866380D01*
X160805809Y-107866380D01*
X161805809Y-107771142D02*
X161758190Y-107818761D01*
X161615333Y-107866380D01*
X161520095Y-107866380D01*
X161377238Y-107818761D01*
X161282000Y-107723523D01*
X161234380Y-107628285D01*
X161186761Y-107437809D01*
X161186761Y-107294952D01*
X161234380Y-107104476D01*
X161282000Y-107009238D01*
X161377238Y-106914000D01*
X161520095Y-106866380D01*
X161615333Y-106866380D01*
X161758190Y-106914000D01*
X161805809Y-106961619D01*
X149391809Y-74366380D02*
X149391809Y-73366380D01*
X149820380Y-73461619D02*
X149868000Y-73414000D01*
X149963238Y-73366380D01*
X150201333Y-73366380D01*
X150296571Y-73414000D01*
X150344190Y-73461619D01*
X150391809Y-73556857D01*
X150391809Y-73652095D01*
X150344190Y-73794952D01*
X149772761Y-74366380D01*
X150391809Y-74366380D01*
X151391809Y-74271142D02*
X151344190Y-74318761D01*
X151201333Y-74366380D01*
X151106095Y-74366380D01*
X150963238Y-74318761D01*
X150868000Y-74223523D01*
X150820380Y-74128285D01*
X150772761Y-73937809D01*
X150772761Y-73794952D01*
X150820380Y-73604476D01*
X150868000Y-73509238D01*
X150963238Y-73414000D01*
X151106095Y-73366380D01*
X151201333Y-73366380D01*
X151344190Y-73414000D01*
X151391809Y-73461619D01*
X153630380Y-100837904D02*
X154439904Y-100837904D01*
X154535142Y-100790285D01*
X154582761Y-100742666D01*
X154630380Y-100647428D01*
X154630380Y-100456952D01*
X154582761Y-100361714D01*
X154535142Y-100314095D01*
X154439904Y-100266476D01*
X153630380Y-100266476D01*
X153725619Y-99837904D02*
X153678000Y-99790285D01*
X153630380Y-99695047D01*
X153630380Y-99456952D01*
X153678000Y-99361714D01*
X153725619Y-99314095D01*
X153820857Y-99266476D01*
X153916095Y-99266476D01*
X154058952Y-99314095D01*
X154630380Y-99885523D01*
X154630380Y-99266476D01*
D16*
X147062380Y-102085923D02*
X147062380Y-102604019D01*
X147092857Y-102664971D01*
X147123333Y-102695447D01*
X147184285Y-102725923D01*
X147306190Y-102725923D01*
X147367142Y-102695447D01*
X147397619Y-102664971D01*
X147428095Y-102604019D01*
X147428095Y-102085923D01*
X148068095Y-102725923D02*
X147702380Y-102725923D01*
X147885238Y-102725923D02*
X147885238Y-102085923D01*
X147824285Y-102177352D01*
X147763333Y-102238304D01*
X147702380Y-102268780D01*
D14*
X150455333Y-104243142D02*
X150407714Y-104290761D01*
X150264857Y-104338380D01*
X150169619Y-104338380D01*
X150026761Y-104290761D01*
X149931523Y-104195523D01*
X149883904Y-104100285D01*
X149836285Y-103909809D01*
X149836285Y-103766952D01*
X149883904Y-103576476D01*
X149931523Y-103481238D01*
X150026761Y-103386000D01*
X150169619Y-103338380D01*
X150264857Y-103338380D01*
X150407714Y-103386000D01*
X150455333Y-103433619D01*
X151312476Y-103338380D02*
X151122000Y-103338380D01*
X151026761Y-103386000D01*
X150979142Y-103433619D01*
X150883904Y-103576476D01*
X150836285Y-103766952D01*
X150836285Y-104147904D01*
X150883904Y-104243142D01*
X150931523Y-104290761D01*
X151026761Y-104338380D01*
X151217238Y-104338380D01*
X151312476Y-104290761D01*
X151360095Y-104243142D01*
X151407714Y-104147904D01*
X151407714Y-103909809D01*
X151360095Y-103814571D01*
X151312476Y-103766952D01*
X151217238Y-103719333D01*
X151026761Y-103719333D01*
X150931523Y-103766952D01*
X150883904Y-103814571D01*
X150836285Y-103909809D01*
X148931333Y-103227142D02*
X148883714Y-103274761D01*
X148740857Y-103322380D01*
X148645619Y-103322380D01*
X148502761Y-103274761D01*
X148407523Y-103179523D01*
X148359904Y-103084285D01*
X148312285Y-102893809D01*
X148312285Y-102750952D01*
X148359904Y-102560476D01*
X148407523Y-102465238D01*
X148502761Y-102370000D01*
X148645619Y-102322380D01*
X148740857Y-102322380D01*
X148883714Y-102370000D01*
X148931333Y-102417619D01*
X149788476Y-102655714D02*
X149788476Y-103322380D01*
X149550380Y-102274761D02*
X149312285Y-102989047D01*
X149931333Y-102989047D01*
X145121333Y-98401142D02*
X145073714Y-98448761D01*
X144930857Y-98496380D01*
X144835619Y-98496380D01*
X144692761Y-98448761D01*
X144597523Y-98353523D01*
X144549904Y-98258285D01*
X144502285Y-98067809D01*
X144502285Y-97924952D01*
X144549904Y-97734476D01*
X144597523Y-97639238D01*
X144692761Y-97544000D01*
X144835619Y-97496380D01*
X144930857Y-97496380D01*
X145073714Y-97544000D01*
X145121333Y-97591619D01*
X146073714Y-98496380D02*
X145502285Y-98496380D01*
X145788000Y-98496380D02*
X145788000Y-97496380D01*
X145692761Y-97639238D01*
X145597523Y-97734476D01*
X145502285Y-97782095D01*
X153630380Y-111251904D02*
X154439904Y-111251904D01*
X154535142Y-111204285D01*
X154582761Y-111156666D01*
X154630380Y-111061428D01*
X154630380Y-110870952D01*
X154582761Y-110775714D01*
X154535142Y-110728095D01*
X154439904Y-110680476D01*
X153630380Y-110680476D01*
X153630380Y-109728095D02*
X153630380Y-110204285D01*
X154106571Y-110251904D01*
X154058952Y-110204285D01*
X154011333Y-110109047D01*
X154011333Y-109870952D01*
X154058952Y-109775714D01*
X154106571Y-109728095D01*
X154201809Y-109680476D01*
X154439904Y-109680476D01*
X154535142Y-109728095D01*
X154582761Y-109775714D01*
X154630380Y-109870952D01*
X154630380Y-110109047D01*
X154582761Y-110204285D01*
X154535142Y-110251904D01*
X140970095Y-101052380D02*
X140970095Y-101861904D01*
X141017714Y-101957142D01*
X141065333Y-102004761D01*
X141160571Y-102052380D01*
X141351047Y-102052380D01*
X141446285Y-102004761D01*
X141493904Y-101957142D01*
X141541523Y-101861904D01*
X141541523Y-101052380D01*
X141922476Y-101052380D02*
X142541523Y-101052380D01*
X142208190Y-101433333D01*
X142351047Y-101433333D01*
X142446285Y-101480952D01*
X142493904Y-101528571D01*
X142541523Y-101623809D01*
X142541523Y-101861904D01*
X142493904Y-101957142D01*
X142446285Y-102004761D01*
X142351047Y-102052380D01*
X142065333Y-102052380D01*
X141970095Y-102004761D01*
X141922476Y-101957142D01*
X141930380Y-131706857D02*
X141454190Y-132040190D01*
X141930380Y-132278285D02*
X140930380Y-132278285D01*
X140930380Y-131897333D01*
X140978000Y-131802095D01*
X141025619Y-131754476D01*
X141120857Y-131706857D01*
X141263714Y-131706857D01*
X141358952Y-131754476D01*
X141406571Y-131802095D01*
X141454190Y-131897333D01*
X141454190Y-132278285D01*
X141025619Y-131325904D02*
X140978000Y-131278285D01*
X140930380Y-131183047D01*
X140930380Y-130944952D01*
X140978000Y-130849714D01*
X141025619Y-130802095D01*
X141120857Y-130754476D01*
X141216095Y-130754476D01*
X141358952Y-130802095D01*
X141930380Y-131373523D01*
X141930380Y-130754476D01*
X141025619Y-130373523D02*
X140978000Y-130325904D01*
X140930380Y-130230666D01*
X140930380Y-129992571D01*
X140978000Y-129897333D01*
X141025619Y-129849714D01*
X141120857Y-129802095D01*
X141216095Y-129802095D01*
X141358952Y-129849714D01*
X141930380Y-130421142D01*
X141930380Y-129802095D01*
X138628380Y-76588857D02*
X138152190Y-76922190D01*
X138628380Y-77160285D02*
X137628380Y-77160285D01*
X137628380Y-76779333D01*
X137676000Y-76684095D01*
X137723619Y-76636476D01*
X137818857Y-76588857D01*
X137961714Y-76588857D01*
X138056952Y-76636476D01*
X138104571Y-76684095D01*
X138152190Y-76779333D01*
X138152190Y-77160285D01*
X138628380Y-75636476D02*
X138628380Y-76207904D01*
X138628380Y-75922190D02*
X137628380Y-75922190D01*
X137771238Y-76017428D01*
X137866476Y-76112666D01*
X137914095Y-76207904D01*
X137628380Y-75017428D02*
X137628380Y-74922190D01*
X137676000Y-74826952D01*
X137723619Y-74779333D01*
X137818857Y-74731714D01*
X138009333Y-74684095D01*
X138247428Y-74684095D01*
X138437904Y-74731714D01*
X138533142Y-74779333D01*
X138580761Y-74826952D01*
X138628380Y-74922190D01*
X138628380Y-75017428D01*
X138580761Y-75112666D01*
X138533142Y-75160285D01*
X138437904Y-75207904D01*
X138247428Y-75255523D01*
X138009333Y-75255523D01*
X137818857Y-75207904D01*
X137723619Y-75160285D01*
X137676000Y-75112666D01*
X137628380Y-75017428D01*
X162504380Y-120689619D02*
X162028190Y-121022952D01*
X162504380Y-121261047D02*
X161504380Y-121261047D01*
X161504380Y-120880095D01*
X161552000Y-120784857D01*
X161599619Y-120737238D01*
X161694857Y-120689619D01*
X161837714Y-120689619D01*
X161932952Y-120737238D01*
X161980571Y-120784857D01*
X162028190Y-120880095D01*
X162028190Y-121261047D01*
X162456761Y-120308666D02*
X162504380Y-120165809D01*
X162504380Y-119927714D01*
X162456761Y-119832476D01*
X162409142Y-119784857D01*
X162313904Y-119737238D01*
X162218666Y-119737238D01*
X162123428Y-119784857D01*
X162075809Y-119832476D01*
X162028190Y-119927714D01*
X161980571Y-120118190D01*
X161932952Y-120213428D01*
X161885333Y-120261047D01*
X161790095Y-120308666D01*
X161694857Y-120308666D01*
X161599619Y-120261047D01*
X161552000Y-120213428D01*
X161504380Y-120118190D01*
X161504380Y-119880095D01*
X161552000Y-119737238D01*
X161504380Y-119451523D02*
X161504380Y-118880095D01*
X162504380Y-119165809D02*
X161504380Y-119165809D01*
X157916571Y-105243142D02*
X157964190Y-105100285D01*
X158011809Y-105052666D01*
X158107047Y-105005047D01*
X158249904Y-105005047D01*
X158345142Y-105052666D01*
X158392761Y-105100285D01*
X158440380Y-105195523D01*
X158440380Y-105576476D01*
X157440380Y-105576476D01*
X157440380Y-105243142D01*
X157488000Y-105147904D01*
X157535619Y-105100285D01*
X157630857Y-105052666D01*
X157726095Y-105052666D01*
X157821333Y-105100285D01*
X157868952Y-105147904D01*
X157916571Y-105243142D01*
X157916571Y-105576476D01*
X157440380Y-104386000D02*
X157440380Y-104195523D01*
X157488000Y-104100285D01*
X157583238Y-104005047D01*
X157773714Y-103957428D01*
X158107047Y-103957428D01*
X158297523Y-104005047D01*
X158392761Y-104100285D01*
X158440380Y-104195523D01*
X158440380Y-104386000D01*
X158392761Y-104481238D01*
X158297523Y-104576476D01*
X158107047Y-104624095D01*
X157773714Y-104624095D01*
X157583238Y-104576476D01*
X157488000Y-104481238D01*
X157440380Y-104386000D01*
X157440380Y-103338380D02*
X157440380Y-103147904D01*
X157488000Y-103052666D01*
X157583238Y-102957428D01*
X157773714Y-102909809D01*
X158107047Y-102909809D01*
X158297523Y-102957428D01*
X158392761Y-103052666D01*
X158440380Y-103147904D01*
X158440380Y-103338380D01*
X158392761Y-103433619D01*
X158297523Y-103528857D01*
X158107047Y-103576476D01*
X157773714Y-103576476D01*
X157583238Y-103528857D01*
X157488000Y-103433619D01*
X157440380Y-103338380D01*
X157440380Y-102624095D02*
X157440380Y-102052666D01*
X158440380Y-102338380D02*
X157440380Y-102338380D01*
X135834380Y-86145619D02*
X135358190Y-86478952D01*
X135834380Y-86717047D02*
X134834380Y-86717047D01*
X134834380Y-86336095D01*
X134882000Y-86240857D01*
X134929619Y-86193238D01*
X135024857Y-86145619D01*
X135167714Y-86145619D01*
X135262952Y-86193238D01*
X135310571Y-86240857D01*
X135358190Y-86336095D01*
X135358190Y-86717047D01*
X135786761Y-85764666D02*
X135834380Y-85621809D01*
X135834380Y-85383714D01*
X135786761Y-85288476D01*
X135739142Y-85240857D01*
X135643904Y-85193238D01*
X135548666Y-85193238D01*
X135453428Y-85240857D01*
X135405809Y-85288476D01*
X135358190Y-85383714D01*
X135310571Y-85574190D01*
X135262952Y-85669428D01*
X135215333Y-85717047D01*
X135120095Y-85764666D01*
X135024857Y-85764666D01*
X134929619Y-85717047D01*
X134882000Y-85669428D01*
X134834380Y-85574190D01*
X134834380Y-85336095D01*
X134882000Y-85193238D01*
X134834380Y-84907523D02*
X134834380Y-84336095D01*
X135834380Y-84621809D02*
X134834380Y-84621809D01*
D17*
X149926523Y-115285761D02*
X148656523Y-115285761D01*
X149805571Y-113955285D02*
X149866047Y-114015761D01*
X149926523Y-114197190D01*
X149926523Y-114318142D01*
X149866047Y-114499571D01*
X149745095Y-114620523D01*
X149624142Y-114681000D01*
X149382238Y-114741476D01*
X149200809Y-114741476D01*
X148958904Y-114681000D01*
X148837952Y-114620523D01*
X148717000Y-114499571D01*
X148656523Y-114318142D01*
X148656523Y-114197190D01*
X148717000Y-114015761D01*
X148777476Y-113955285D01*
X149079857Y-112866714D02*
X149926523Y-112866714D01*
X148596047Y-113169095D02*
X149503190Y-113471476D01*
X149503190Y-112685285D01*
X149926523Y-109443761D02*
X148656523Y-109443761D01*
X149805571Y-108113285D02*
X149866047Y-108173761D01*
X149926523Y-108355190D01*
X149926523Y-108476142D01*
X149866047Y-108657571D01*
X149745095Y-108778523D01*
X149624142Y-108839000D01*
X149382238Y-108899476D01*
X149200809Y-108899476D01*
X148958904Y-108839000D01*
X148837952Y-108778523D01*
X148717000Y-108657571D01*
X148656523Y-108476142D01*
X148656523Y-108355190D01*
X148717000Y-108173761D01*
X148777476Y-108113285D01*
X148656523Y-107689952D02*
X148656523Y-106903761D01*
X149140333Y-107327095D01*
X149140333Y-107145666D01*
X149200809Y-107024714D01*
X149261285Y-106964238D01*
X149382238Y-106903761D01*
X149684619Y-106903761D01*
X149805571Y-106964238D01*
X149866047Y-107024714D01*
X149926523Y-107145666D01*
X149926523Y-107508523D01*
X149866047Y-107629476D01*
X149805571Y-107689952D01*
X145608523Y-115285761D02*
X144338523Y-115285761D01*
X145487571Y-113955285D02*
X145548047Y-114015761D01*
X145608523Y-114197190D01*
X145608523Y-114318142D01*
X145548047Y-114499571D01*
X145427095Y-114620523D01*
X145306142Y-114681000D01*
X145064238Y-114741476D01*
X144882809Y-114741476D01*
X144640904Y-114681000D01*
X144519952Y-114620523D01*
X144399000Y-114499571D01*
X144338523Y-114318142D01*
X144338523Y-114197190D01*
X144399000Y-114015761D01*
X144459476Y-113955285D01*
X144459476Y-113471476D02*
X144399000Y-113411000D01*
X144338523Y-113290047D01*
X144338523Y-112987666D01*
X144399000Y-112866714D01*
X144459476Y-112806238D01*
X144580428Y-112745761D01*
X144701380Y-112745761D01*
X144882809Y-112806238D01*
X145608523Y-113531952D01*
X145608523Y-112745761D01*
X145608523Y-109443761D02*
X144338523Y-109443761D01*
X145487571Y-108113285D02*
X145548047Y-108173761D01*
X145608523Y-108355190D01*
X145608523Y-108476142D01*
X145548047Y-108657571D01*
X145427095Y-108778523D01*
X145306142Y-108839000D01*
X145064238Y-108899476D01*
X144882809Y-108899476D01*
X144640904Y-108839000D01*
X144519952Y-108778523D01*
X144399000Y-108657571D01*
X144338523Y-108476142D01*
X144338523Y-108355190D01*
X144399000Y-108173761D01*
X144459476Y-108113285D01*
X145608523Y-106903761D02*
X145608523Y-107629476D01*
X145608523Y-107266619D02*
X144338523Y-107266619D01*
X144519952Y-107387571D01*
X144640904Y-107508523D01*
X144701380Y-107629476D01*
D14*
X148233047Y-131262380D02*
X148233047Y-130262380D01*
X148471142Y-130262380D01*
X148614000Y-130310000D01*
X148709238Y-130405238D01*
X148756857Y-130500476D01*
X148804476Y-130690952D01*
X148804476Y-130833809D01*
X148756857Y-131024285D01*
X148709238Y-131119523D01*
X148614000Y-131214761D01*
X148471142Y-131262380D01*
X148233047Y-131262380D01*
X149137809Y-130262380D02*
X149375904Y-131262380D01*
X149566380Y-130548095D01*
X149756857Y-131262380D01*
X149994952Y-130262380D01*
X150375904Y-131262380D02*
X150375904Y-130262380D01*
X150709238Y-130976666D01*
X151042571Y-130262380D01*
X151042571Y-131262380D01*
X152042571Y-131262380D02*
X151471142Y-131262380D01*
X151756857Y-131262380D02*
X151756857Y-130262380D01*
X151661619Y-130405238D01*
X151566380Y-130500476D01*
X151471142Y-130548095D01*
X160647142Y-118213142D02*
X160599523Y-118260761D01*
X160456666Y-118308380D01*
X160361428Y-118308380D01*
X160218571Y-118260761D01*
X160123333Y-118165523D01*
X160075714Y-118070285D01*
X160028095Y-117879809D01*
X160028095Y-117736952D01*
X160075714Y-117546476D01*
X160123333Y-117451238D01*
X160218571Y-117356000D01*
X160361428Y-117308380D01*
X160456666Y-117308380D01*
X160599523Y-117356000D01*
X160647142Y-117403619D01*
X160980476Y-117308380D02*
X161599523Y-117308380D01*
X161266190Y-117689333D01*
X161409047Y-117689333D01*
X161504285Y-117736952D01*
X161551904Y-117784571D01*
X161599523Y-117879809D01*
X161599523Y-118117904D01*
X161551904Y-118213142D01*
X161504285Y-118260761D01*
X161409047Y-118308380D01*
X161123333Y-118308380D01*
X161028095Y-118260761D01*
X160980476Y-118213142D01*
X162170952Y-117736952D02*
X162075714Y-117689333D01*
X162028095Y-117641714D01*
X161980476Y-117546476D01*
X161980476Y-117498857D01*
X162028095Y-117403619D01*
X162075714Y-117356000D01*
X162170952Y-117308380D01*
X162361428Y-117308380D01*
X162456666Y-117356000D01*
X162504285Y-117403619D01*
X162551904Y-117498857D01*
X162551904Y-117546476D01*
X162504285Y-117641714D01*
X162456666Y-117689333D01*
X162361428Y-117736952D01*
X162170952Y-117736952D01*
X162075714Y-117784571D01*
X162028095Y-117832190D01*
X161980476Y-117927428D01*
X161980476Y-118117904D01*
X162028095Y-118213142D01*
X162075714Y-118260761D01*
X162170952Y-118308380D01*
X162361428Y-118308380D01*
X162456666Y-118260761D01*
X162504285Y-118213142D01*
X162551904Y-118117904D01*
X162551904Y-117927428D01*
X162504285Y-117832190D01*
X162456666Y-117784571D01*
X162361428Y-117736952D01*
X157599142Y-107037142D02*
X157551523Y-107084761D01*
X157408666Y-107132380D01*
X157313428Y-107132380D01*
X157170571Y-107084761D01*
X157075333Y-106989523D01*
X157027714Y-106894285D01*
X156980095Y-106703809D01*
X156980095Y-106560952D01*
X157027714Y-106370476D01*
X157075333Y-106275238D01*
X157170571Y-106180000D01*
X157313428Y-106132380D01*
X157408666Y-106132380D01*
X157551523Y-106180000D01*
X157599142Y-106227619D01*
X157932476Y-106132380D02*
X158551523Y-106132380D01*
X158218190Y-106513333D01*
X158361047Y-106513333D01*
X158456285Y-106560952D01*
X158503904Y-106608571D01*
X158551523Y-106703809D01*
X158551523Y-106941904D01*
X158503904Y-107037142D01*
X158456285Y-107084761D01*
X158361047Y-107132380D01*
X158075333Y-107132380D01*
X157980095Y-107084761D01*
X157932476Y-107037142D01*
X158884857Y-106132380D02*
X159551523Y-106132380D01*
X159122952Y-107132380D01*
X138533142Y-105290857D02*
X138580761Y-105338476D01*
X138628380Y-105481333D01*
X138628380Y-105576571D01*
X138580761Y-105719428D01*
X138485523Y-105814666D01*
X138390285Y-105862285D01*
X138199809Y-105909904D01*
X138056952Y-105909904D01*
X137866476Y-105862285D01*
X137771238Y-105814666D01*
X137676000Y-105719428D01*
X137628380Y-105576571D01*
X137628380Y-105481333D01*
X137676000Y-105338476D01*
X137723619Y-105290857D01*
X137723619Y-104909904D02*
X137676000Y-104862285D01*
X137628380Y-104767047D01*
X137628380Y-104528952D01*
X137676000Y-104433714D01*
X137723619Y-104386095D01*
X137818857Y-104338476D01*
X137914095Y-104338476D01*
X138056952Y-104386095D01*
X138628380Y-104957523D01*
X138628380Y-104338476D01*
X138056952Y-103767047D02*
X138009333Y-103862285D01*
X137961714Y-103909904D01*
X137866476Y-103957523D01*
X137818857Y-103957523D01*
X137723619Y-103909904D01*
X137676000Y-103862285D01*
X137628380Y-103767047D01*
X137628380Y-103576571D01*
X137676000Y-103481333D01*
X137723619Y-103433714D01*
X137818857Y-103386095D01*
X137866476Y-103386095D01*
X137961714Y-103433714D01*
X138009333Y-103481333D01*
X138056952Y-103576571D01*
X138056952Y-103767047D01*
X138104571Y-103862285D01*
X138152190Y-103909904D01*
X138247428Y-103957523D01*
X138437904Y-103957523D01*
X138533142Y-103909904D01*
X138580761Y-103862285D01*
X138628380Y-103767047D01*
X138628380Y-103576571D01*
X138580761Y-103481333D01*
X138533142Y-103433714D01*
X138437904Y-103386095D01*
X138247428Y-103386095D01*
X138152190Y-103433714D01*
X138104571Y-103481333D01*
X138056952Y-103576571D01*
X142105142Y-107037142D02*
X142057523Y-107084761D01*
X141914666Y-107132380D01*
X141819428Y-107132380D01*
X141676571Y-107084761D01*
X141581333Y-106989523D01*
X141533714Y-106894285D01*
X141486095Y-106703809D01*
X141486095Y-106560952D01*
X141533714Y-106370476D01*
X141581333Y-106275238D01*
X141676571Y-106180000D01*
X141819428Y-106132380D01*
X141914666Y-106132380D01*
X142057523Y-106180000D01*
X142105142Y-106227619D01*
X142486095Y-106227619D02*
X142533714Y-106180000D01*
X142628952Y-106132380D01*
X142867047Y-106132380D01*
X142962285Y-106180000D01*
X143009904Y-106227619D01*
X143057523Y-106322857D01*
X143057523Y-106418095D01*
X143009904Y-106560952D01*
X142438476Y-107132380D01*
X143057523Y-107132380D01*
X143438476Y-106227619D02*
X143486095Y-106180000D01*
X143581333Y-106132380D01*
X143819428Y-106132380D01*
X143914666Y-106180000D01*
X143962285Y-106227619D01*
X144009904Y-106322857D01*
X144009904Y-106418095D01*
X143962285Y-106560952D01*
X143390857Y-107132380D01*
X144009904Y-107132380D01*
X142105142Y-98401142D02*
X142057523Y-98448761D01*
X141914666Y-98496380D01*
X141819428Y-98496380D01*
X141676571Y-98448761D01*
X141581333Y-98353523D01*
X141533714Y-98258285D01*
X141486095Y-98067809D01*
X141486095Y-97924952D01*
X141533714Y-97734476D01*
X141581333Y-97639238D01*
X141676571Y-97544000D01*
X141819428Y-97496380D01*
X141914666Y-97496380D01*
X142057523Y-97544000D01*
X142105142Y-97591619D01*
X143057523Y-98496380D02*
X142486095Y-98496380D01*
X142771809Y-98496380D02*
X142771809Y-97496380D01*
X142676571Y-97639238D01*
X142581333Y-97734476D01*
X142486095Y-97782095D01*
X143914666Y-97829714D02*
X143914666Y-98496380D01*
X143676571Y-97448761D02*
X143438476Y-98163047D01*
X144057523Y-98163047D01*
X139057142Y-107799142D02*
X139009523Y-107846761D01*
X138866666Y-107894380D01*
X138771428Y-107894380D01*
X138628571Y-107846761D01*
X138533333Y-107751523D01*
X138485714Y-107656285D01*
X138438095Y-107465809D01*
X138438095Y-107322952D01*
X138485714Y-107132476D01*
X138533333Y-107037238D01*
X138628571Y-106942000D01*
X138771428Y-106894380D01*
X138866666Y-106894380D01*
X139009523Y-106942000D01*
X139057142Y-106989619D01*
X140009523Y-107894380D02*
X139438095Y-107894380D01*
X139723809Y-107894380D02*
X139723809Y-106894380D01*
X139628571Y-107037238D01*
X139533333Y-107132476D01*
X139438095Y-107180095D01*
X140342857Y-106894380D02*
X140961904Y-106894380D01*
X140628571Y-107275333D01*
X140771428Y-107275333D01*
X140866666Y-107322952D01*
X140914285Y-107370571D01*
X140961904Y-107465809D01*
X140961904Y-107703904D01*
X140914285Y-107799142D01*
X140866666Y-107846761D01*
X140771428Y-107894380D01*
X140485714Y-107894380D01*
X140390476Y-107846761D01*
X140342857Y-107799142D01*
X138533142Y-73826666D02*
X138580761Y-73874285D01*
X138628380Y-74017142D01*
X138628380Y-74112380D01*
X138580761Y-74255238D01*
X138485523Y-74350476D01*
X138390285Y-74398095D01*
X138199809Y-74445714D01*
X138056952Y-74445714D01*
X137866476Y-74398095D01*
X137771238Y-74350476D01*
X137676000Y-74255238D01*
X137628380Y-74112380D01*
X137628380Y-74017142D01*
X137676000Y-73874285D01*
X137723619Y-73826666D01*
X137628380Y-73493333D02*
X137628380Y-72826666D01*
X138628380Y-73255238D01*
X140041333Y-98401142D02*
X139993714Y-98448761D01*
X139850857Y-98496380D01*
X139755619Y-98496380D01*
X139612761Y-98448761D01*
X139517523Y-98353523D01*
X139469904Y-98258285D01*
X139422285Y-98067809D01*
X139422285Y-97924952D01*
X139469904Y-97734476D01*
X139517523Y-97639238D01*
X139612761Y-97544000D01*
X139755619Y-97496380D01*
X139850857Y-97496380D01*
X139993714Y-97544000D01*
X140041333Y-97591619D01*
X140946095Y-97496380D02*
X140469904Y-97496380D01*
X140422285Y-97972571D01*
X140469904Y-97924952D01*
X140565142Y-97877333D01*
X140803238Y-97877333D01*
X140898476Y-97924952D01*
X140946095Y-97972571D01*
X140993714Y-98067809D01*
X140993714Y-98305904D01*
X140946095Y-98401142D01*
X140898476Y-98448761D01*
X140803238Y-98496380D01*
X140565142Y-98496380D01*
X140469904Y-98448761D01*
X140422285Y-98401142D01*
X158853142Y-98464666D02*
X158900761Y-98512285D01*
X158948380Y-98655142D01*
X158948380Y-98750380D01*
X158900761Y-98893238D01*
X158805523Y-98988476D01*
X158710285Y-99036095D01*
X158519809Y-99083714D01*
X158376952Y-99083714D01*
X158186476Y-99036095D01*
X158091238Y-98988476D01*
X157996000Y-98893238D01*
X157948380Y-98750380D01*
X157948380Y-98655142D01*
X157996000Y-98512285D01*
X158043619Y-98464666D01*
X157948380Y-98131333D02*
X157948380Y-97512285D01*
X158329333Y-97845619D01*
X158329333Y-97702761D01*
X158376952Y-97607523D01*
X158424571Y-97559904D01*
X158519809Y-97512285D01*
X158757904Y-97512285D01*
X158853142Y-97559904D01*
X158900761Y-97607523D01*
X158948380Y-97702761D01*
X158948380Y-97988476D01*
X158900761Y-98083714D01*
X158853142Y-98131333D01*
X134469142Y-85764666D02*
X134516761Y-85812285D01*
X134564380Y-85955142D01*
X134564380Y-86050380D01*
X134516761Y-86193238D01*
X134421523Y-86288476D01*
X134326285Y-86336095D01*
X134135809Y-86383714D01*
X133992952Y-86383714D01*
X133802476Y-86336095D01*
X133707238Y-86288476D01*
X133612000Y-86193238D01*
X133564380Y-86050380D01*
X133564380Y-85955142D01*
X133612000Y-85812285D01*
X133659619Y-85764666D01*
X133659619Y-85383714D02*
X133612000Y-85336095D01*
X133564380Y-85240857D01*
X133564380Y-85002761D01*
X133612000Y-84907523D01*
X133659619Y-84859904D01*
X133754857Y-84812285D01*
X133850095Y-84812285D01*
X133992952Y-84859904D01*
X134564380Y-85431333D01*
X134564380Y-84812285D01*
X140549714Y-76280666D02*
X141025904Y-76280666D01*
X140454476Y-76566380D02*
X140787809Y-75566380D01*
X141121142Y-76566380D01*
X141978285Y-76566380D02*
X141406857Y-76566380D01*
X141692571Y-76566380D02*
X141692571Y-75566380D01*
X141597333Y-75709238D01*
X141502095Y-75804476D01*
X141406857Y-75852095D01*
%LPC*%
D18*
G36*
X138596957Y-88021833D02*
G01*
X138613751Y-88024324D01*
X138630219Y-88028449D01*
X138646204Y-88034169D01*
X138661552Y-88041428D01*
X138676114Y-88050156D01*
X138689750Y-88060269D01*
X138702329Y-88071671D01*
X138713731Y-88084250D01*
X138723844Y-88097886D01*
X138732572Y-88112448D01*
X138739831Y-88127796D01*
X138745551Y-88143781D01*
X138749676Y-88160249D01*
X138752167Y-88177043D01*
X138753000Y-88194000D01*
X138753000Y-88590000D01*
X138752167Y-88606957D01*
X138749676Y-88623751D01*
X138745551Y-88640219D01*
X138739831Y-88656204D01*
X138732572Y-88671552D01*
X138723844Y-88686114D01*
X138713731Y-88699750D01*
X138702329Y-88712329D01*
X138689750Y-88723731D01*
X138676114Y-88733844D01*
X138661552Y-88742572D01*
X138646204Y-88749831D01*
X138630219Y-88755551D01*
X138613751Y-88759676D01*
X138596957Y-88762167D01*
X138580000Y-88763000D01*
X138234000Y-88763000D01*
X138217043Y-88762167D01*
X138200249Y-88759676D01*
X138183781Y-88755551D01*
X138167796Y-88749831D01*
X138152448Y-88742572D01*
X138137886Y-88733844D01*
X138124250Y-88723731D01*
X138111671Y-88712329D01*
X138100269Y-88699750D01*
X138090156Y-88686114D01*
X138081428Y-88671552D01*
X138074169Y-88656204D01*
X138068449Y-88640219D01*
X138064324Y-88623751D01*
X138061833Y-88606957D01*
X138061000Y-88590000D01*
X138061000Y-88194000D01*
X138061833Y-88177043D01*
X138064324Y-88160249D01*
X138068449Y-88143781D01*
X138074169Y-88127796D01*
X138081428Y-88112448D01*
X138090156Y-88097886D01*
X138100269Y-88084250D01*
X138111671Y-88071671D01*
X138124250Y-88060269D01*
X138137886Y-88050156D01*
X138152448Y-88041428D01*
X138167796Y-88034169D01*
X138183781Y-88028449D01*
X138200249Y-88024324D01*
X138217043Y-88021833D01*
X138234000Y-88021000D01*
X138580000Y-88021000D01*
X138596957Y-88021833D01*
G37*
G36*
X137626957Y-88021833D02*
G01*
X137643751Y-88024324D01*
X137660219Y-88028449D01*
X137676204Y-88034169D01*
X137691552Y-88041428D01*
X137706114Y-88050156D01*
X137719750Y-88060269D01*
X137732329Y-88071671D01*
X137743731Y-88084250D01*
X137753844Y-88097886D01*
X137762572Y-88112448D01*
X137769831Y-88127796D01*
X137775551Y-88143781D01*
X137779676Y-88160249D01*
X137782167Y-88177043D01*
X137783000Y-88194000D01*
X137783000Y-88590000D01*
X137782167Y-88606957D01*
X137779676Y-88623751D01*
X137775551Y-88640219D01*
X137769831Y-88656204D01*
X137762572Y-88671552D01*
X137753844Y-88686114D01*
X137743731Y-88699750D01*
X137732329Y-88712329D01*
X137719750Y-88723731D01*
X137706114Y-88733844D01*
X137691552Y-88742572D01*
X137676204Y-88749831D01*
X137660219Y-88755551D01*
X137643751Y-88759676D01*
X137626957Y-88762167D01*
X137610000Y-88763000D01*
X137264000Y-88763000D01*
X137247043Y-88762167D01*
X137230249Y-88759676D01*
X137213781Y-88755551D01*
X137197796Y-88749831D01*
X137182448Y-88742572D01*
X137167886Y-88733844D01*
X137154250Y-88723731D01*
X137141671Y-88712329D01*
X137130269Y-88699750D01*
X137120156Y-88686114D01*
X137111428Y-88671552D01*
X137104169Y-88656204D01*
X137098449Y-88640219D01*
X137094324Y-88623751D01*
X137091833Y-88606957D01*
X137091000Y-88590000D01*
X137091000Y-88194000D01*
X137091833Y-88177043D01*
X137094324Y-88160249D01*
X137098449Y-88143781D01*
X137104169Y-88127796D01*
X137111428Y-88112448D01*
X137120156Y-88097886D01*
X137130269Y-88084250D01*
X137141671Y-88071671D01*
X137154250Y-88060269D01*
X137167886Y-88050156D01*
X137182448Y-88041428D01*
X137197796Y-88034169D01*
X137213781Y-88028449D01*
X137230249Y-88024324D01*
X137247043Y-88021833D01*
X137264000Y-88021000D01*
X137610000Y-88021000D01*
X137626957Y-88021833D01*
G37*
G36*
X138644957Y-89339833D02*
G01*
X138661751Y-89342324D01*
X138678219Y-89346449D01*
X138694204Y-89352169D01*
X138709552Y-89359428D01*
X138724114Y-89368156D01*
X138737750Y-89378269D01*
X138750329Y-89389671D01*
X138761731Y-89402250D01*
X138771844Y-89415886D01*
X138780572Y-89430448D01*
X138787831Y-89445796D01*
X138793551Y-89461781D01*
X138797676Y-89478249D01*
X138800167Y-89495043D01*
X138801000Y-89512000D01*
X138801000Y-89858000D01*
X138800167Y-89874957D01*
X138797676Y-89891751D01*
X138793551Y-89908219D01*
X138787831Y-89924204D01*
X138780572Y-89939552D01*
X138771844Y-89954114D01*
X138761731Y-89967750D01*
X138750329Y-89980329D01*
X138737750Y-89991731D01*
X138724114Y-90001844D01*
X138709552Y-90010572D01*
X138694204Y-90017831D01*
X138678219Y-90023551D01*
X138661751Y-90027676D01*
X138644957Y-90030167D01*
X138628000Y-90031000D01*
X138232000Y-90031000D01*
X138215043Y-90030167D01*
X138198249Y-90027676D01*
X138181781Y-90023551D01*
X138165796Y-90017831D01*
X138150448Y-90010572D01*
X138135886Y-90001844D01*
X138122250Y-89991731D01*
X138109671Y-89980329D01*
X138098269Y-89967750D01*
X138088156Y-89954114D01*
X138079428Y-89939552D01*
X138072169Y-89924204D01*
X138066449Y-89908219D01*
X138062324Y-89891751D01*
X138059833Y-89874957D01*
X138059000Y-89858000D01*
X138059000Y-89512000D01*
X138059833Y-89495043D01*
X138062324Y-89478249D01*
X138066449Y-89461781D01*
X138072169Y-89445796D01*
X138079428Y-89430448D01*
X138088156Y-89415886D01*
X138098269Y-89402250D01*
X138109671Y-89389671D01*
X138122250Y-89378269D01*
X138135886Y-89368156D01*
X138150448Y-89359428D01*
X138165796Y-89352169D01*
X138181781Y-89346449D01*
X138198249Y-89342324D01*
X138215043Y-89339833D01*
X138232000Y-89339000D01*
X138628000Y-89339000D01*
X138644957Y-89339833D01*
G37*
G36*
X138644957Y-90309833D02*
G01*
X138661751Y-90312324D01*
X138678219Y-90316449D01*
X138694204Y-90322169D01*
X138709552Y-90329428D01*
X138724114Y-90338156D01*
X138737750Y-90348269D01*
X138750329Y-90359671D01*
X138761731Y-90372250D01*
X138771844Y-90385886D01*
X138780572Y-90400448D01*
X138787831Y-90415796D01*
X138793551Y-90431781D01*
X138797676Y-90448249D01*
X138800167Y-90465043D01*
X138801000Y-90482000D01*
X138801000Y-90828000D01*
X138800167Y-90844957D01*
X138797676Y-90861751D01*
X138793551Y-90878219D01*
X138787831Y-90894204D01*
X138780572Y-90909552D01*
X138771844Y-90924114D01*
X138761731Y-90937750D01*
X138750329Y-90950329D01*
X138737750Y-90961731D01*
X138724114Y-90971844D01*
X138709552Y-90980572D01*
X138694204Y-90987831D01*
X138678219Y-90993551D01*
X138661751Y-90997676D01*
X138644957Y-91000167D01*
X138628000Y-91001000D01*
X138232000Y-91001000D01*
X138215043Y-91000167D01*
X138198249Y-90997676D01*
X138181781Y-90993551D01*
X138165796Y-90987831D01*
X138150448Y-90980572D01*
X138135886Y-90971844D01*
X138122250Y-90961731D01*
X138109671Y-90950329D01*
X138098269Y-90937750D01*
X138088156Y-90924114D01*
X138079428Y-90909552D01*
X138072169Y-90894204D01*
X138066449Y-90878219D01*
X138062324Y-90861751D01*
X138059833Y-90844957D01*
X138059000Y-90828000D01*
X138059000Y-90482000D01*
X138059833Y-90465043D01*
X138062324Y-90448249D01*
X138066449Y-90431781D01*
X138072169Y-90415796D01*
X138079428Y-90400448D01*
X138088156Y-90385886D01*
X138098269Y-90372250D01*
X138109671Y-90359671D01*
X138122250Y-90348269D01*
X138135886Y-90338156D01*
X138150448Y-90329428D01*
X138165796Y-90322169D01*
X138181781Y-90316449D01*
X138198249Y-90312324D01*
X138215043Y-90309833D01*
X138232000Y-90309000D01*
X138628000Y-90309000D01*
X138644957Y-90309833D01*
G37*
D19*
X135382000Y-96900000D03*
X135382000Y-94900000D03*
X135382000Y-92900000D03*
X135382000Y-90900000D03*
D20*
X135382000Y-88900000D03*
D19*
X161036000Y-93598000D03*
X161036000Y-91598000D03*
X161036000Y-89598000D03*
X161036000Y-87598000D03*
D20*
X161036000Y-85598000D03*
D21*
X160782000Y-97536000D03*
D22*
X160782000Y-101346000D03*
D18*
G36*
X145200957Y-110373833D02*
G01*
X145217751Y-110376324D01*
X145234219Y-110380449D01*
X145250204Y-110386169D01*
X145265552Y-110393428D01*
X145280114Y-110402156D01*
X145293750Y-110412269D01*
X145306329Y-110423671D01*
X145317731Y-110436250D01*
X145327844Y-110449886D01*
X145336572Y-110464448D01*
X145343831Y-110479796D01*
X145349551Y-110495781D01*
X145353676Y-110512249D01*
X145356167Y-110529043D01*
X145357000Y-110546000D01*
X145357000Y-110942000D01*
X145356167Y-110958957D01*
X145353676Y-110975751D01*
X145349551Y-110992219D01*
X145343831Y-111008204D01*
X145336572Y-111023552D01*
X145327844Y-111038114D01*
X145317731Y-111051750D01*
X145306329Y-111064329D01*
X145293750Y-111075731D01*
X145280114Y-111085844D01*
X145265552Y-111094572D01*
X145250204Y-111101831D01*
X145234219Y-111107551D01*
X145217751Y-111111676D01*
X145200957Y-111114167D01*
X145184000Y-111115000D01*
X144838000Y-111115000D01*
X144821043Y-111114167D01*
X144804249Y-111111676D01*
X144787781Y-111107551D01*
X144771796Y-111101831D01*
X144756448Y-111094572D01*
X144741886Y-111085844D01*
X144728250Y-111075731D01*
X144715671Y-111064329D01*
X144704269Y-111051750D01*
X144694156Y-111038114D01*
X144685428Y-111023552D01*
X144678169Y-111008204D01*
X144672449Y-110992219D01*
X144668324Y-110975751D01*
X144665833Y-110958957D01*
X144665000Y-110942000D01*
X144665000Y-110546000D01*
X144665833Y-110529043D01*
X144668324Y-110512249D01*
X144672449Y-110495781D01*
X144678169Y-110479796D01*
X144685428Y-110464448D01*
X144694156Y-110449886D01*
X144704269Y-110436250D01*
X144715671Y-110423671D01*
X144728250Y-110412269D01*
X144741886Y-110402156D01*
X144756448Y-110393428D01*
X144771796Y-110386169D01*
X144787781Y-110380449D01*
X144804249Y-110376324D01*
X144821043Y-110373833D01*
X144838000Y-110373000D01*
X145184000Y-110373000D01*
X145200957Y-110373833D01*
G37*
G36*
X144230957Y-110373833D02*
G01*
X144247751Y-110376324D01*
X144264219Y-110380449D01*
X144280204Y-110386169D01*
X144295552Y-110393428D01*
X144310114Y-110402156D01*
X144323750Y-110412269D01*
X144336329Y-110423671D01*
X144347731Y-110436250D01*
X144357844Y-110449886D01*
X144366572Y-110464448D01*
X144373831Y-110479796D01*
X144379551Y-110495781D01*
X144383676Y-110512249D01*
X144386167Y-110529043D01*
X144387000Y-110546000D01*
X144387000Y-110942000D01*
X144386167Y-110958957D01*
X144383676Y-110975751D01*
X144379551Y-110992219D01*
X144373831Y-111008204D01*
X144366572Y-111023552D01*
X144357844Y-111038114D01*
X144347731Y-111051750D01*
X144336329Y-111064329D01*
X144323750Y-111075731D01*
X144310114Y-111085844D01*
X144295552Y-111094572D01*
X144280204Y-111101831D01*
X144264219Y-111107551D01*
X144247751Y-111111676D01*
X144230957Y-111114167D01*
X144214000Y-111115000D01*
X143868000Y-111115000D01*
X143851043Y-111114167D01*
X143834249Y-111111676D01*
X143817781Y-111107551D01*
X143801796Y-111101831D01*
X143786448Y-111094572D01*
X143771886Y-111085844D01*
X143758250Y-111075731D01*
X143745671Y-111064329D01*
X143734269Y-111051750D01*
X143724156Y-111038114D01*
X143715428Y-111023552D01*
X143708169Y-111008204D01*
X143702449Y-110992219D01*
X143698324Y-110975751D01*
X143695833Y-110958957D01*
X143695000Y-110942000D01*
X143695000Y-110546000D01*
X143695833Y-110529043D01*
X143698324Y-110512249D01*
X143702449Y-110495781D01*
X143708169Y-110479796D01*
X143715428Y-110464448D01*
X143724156Y-110449886D01*
X143734269Y-110436250D01*
X143745671Y-110423671D01*
X143758250Y-110412269D01*
X143771886Y-110402156D01*
X143786448Y-110393428D01*
X143801796Y-110386169D01*
X143817781Y-110380449D01*
X143834249Y-110376324D01*
X143851043Y-110373833D01*
X143868000Y-110373000D01*
X144214000Y-110373000D01*
X144230957Y-110373833D01*
G37*
G36*
X151598957Y-108851833D02*
G01*
X151615751Y-108854324D01*
X151632219Y-108858449D01*
X151648204Y-108864169D01*
X151663552Y-108871428D01*
X151678114Y-108880156D01*
X151691750Y-108890269D01*
X151704329Y-108901671D01*
X151715731Y-108914250D01*
X151725844Y-108927886D01*
X151734572Y-108942448D01*
X151741831Y-108957796D01*
X151747551Y-108973781D01*
X151751676Y-108990249D01*
X151754167Y-109007043D01*
X151755000Y-109024000D01*
X151755000Y-109370000D01*
X151754167Y-109386957D01*
X151751676Y-109403751D01*
X151747551Y-109420219D01*
X151741831Y-109436204D01*
X151734572Y-109451552D01*
X151725844Y-109466114D01*
X151715731Y-109479750D01*
X151704329Y-109492329D01*
X151691750Y-109503731D01*
X151678114Y-109513844D01*
X151663552Y-109522572D01*
X151648204Y-109529831D01*
X151632219Y-109535551D01*
X151615751Y-109539676D01*
X151598957Y-109542167D01*
X151582000Y-109543000D01*
X151186000Y-109543000D01*
X151169043Y-109542167D01*
X151152249Y-109539676D01*
X151135781Y-109535551D01*
X151119796Y-109529831D01*
X151104448Y-109522572D01*
X151089886Y-109513844D01*
X151076250Y-109503731D01*
X151063671Y-109492329D01*
X151052269Y-109479750D01*
X151042156Y-109466114D01*
X151033428Y-109451552D01*
X151026169Y-109436204D01*
X151020449Y-109420219D01*
X151016324Y-109403751D01*
X151013833Y-109386957D01*
X151013000Y-109370000D01*
X151013000Y-109024000D01*
X151013833Y-109007043D01*
X151016324Y-108990249D01*
X151020449Y-108973781D01*
X151026169Y-108957796D01*
X151033428Y-108942448D01*
X151042156Y-108927886D01*
X151052269Y-108914250D01*
X151063671Y-108901671D01*
X151076250Y-108890269D01*
X151089886Y-108880156D01*
X151104448Y-108871428D01*
X151119796Y-108864169D01*
X151135781Y-108858449D01*
X151152249Y-108854324D01*
X151169043Y-108851833D01*
X151186000Y-108851000D01*
X151582000Y-108851000D01*
X151598957Y-108851833D01*
G37*
G36*
X151598957Y-107881833D02*
G01*
X151615751Y-107884324D01*
X151632219Y-107888449D01*
X151648204Y-107894169D01*
X151663552Y-107901428D01*
X151678114Y-107910156D01*
X151691750Y-107920269D01*
X151704329Y-107931671D01*
X151715731Y-107944250D01*
X151725844Y-107957886D01*
X151734572Y-107972448D01*
X151741831Y-107987796D01*
X151747551Y-108003781D01*
X151751676Y-108020249D01*
X151754167Y-108037043D01*
X151755000Y-108054000D01*
X151755000Y-108400000D01*
X151754167Y-108416957D01*
X151751676Y-108433751D01*
X151747551Y-108450219D01*
X151741831Y-108466204D01*
X151734572Y-108481552D01*
X151725844Y-108496114D01*
X151715731Y-108509750D01*
X151704329Y-108522329D01*
X151691750Y-108533731D01*
X151678114Y-108543844D01*
X151663552Y-108552572D01*
X151648204Y-108559831D01*
X151632219Y-108565551D01*
X151615751Y-108569676D01*
X151598957Y-108572167D01*
X151582000Y-108573000D01*
X151186000Y-108573000D01*
X151169043Y-108572167D01*
X151152249Y-108569676D01*
X151135781Y-108565551D01*
X151119796Y-108559831D01*
X151104448Y-108552572D01*
X151089886Y-108543844D01*
X151076250Y-108533731D01*
X151063671Y-108522329D01*
X151052269Y-108509750D01*
X151042156Y-108496114D01*
X151033428Y-108481552D01*
X151026169Y-108466204D01*
X151020449Y-108450219D01*
X151016324Y-108433751D01*
X151013833Y-108416957D01*
X151013000Y-108400000D01*
X151013000Y-108054000D01*
X151013833Y-108037043D01*
X151016324Y-108020249D01*
X151020449Y-108003781D01*
X151026169Y-107987796D01*
X151033428Y-107972448D01*
X151042156Y-107957886D01*
X151052269Y-107944250D01*
X151063671Y-107931671D01*
X151076250Y-107920269D01*
X151089886Y-107910156D01*
X151104448Y-107901428D01*
X151119796Y-107894169D01*
X151135781Y-107888449D01*
X151152249Y-107884324D01*
X151169043Y-107881833D01*
X151186000Y-107881000D01*
X151582000Y-107881000D01*
X151598957Y-107881833D01*
G37*
G36*
X148502957Y-111389833D02*
G01*
X148519751Y-111392324D01*
X148536219Y-111396449D01*
X148552204Y-111402169D01*
X148567552Y-111409428D01*
X148582114Y-111418156D01*
X148595750Y-111428269D01*
X148608329Y-111439671D01*
X148619731Y-111452250D01*
X148629844Y-111465886D01*
X148638572Y-111480448D01*
X148645831Y-111495796D01*
X148651551Y-111511781D01*
X148655676Y-111528249D01*
X148658167Y-111545043D01*
X148659000Y-111562000D01*
X148659000Y-111958000D01*
X148658167Y-111974957D01*
X148655676Y-111991751D01*
X148651551Y-112008219D01*
X148645831Y-112024204D01*
X148638572Y-112039552D01*
X148629844Y-112054114D01*
X148619731Y-112067750D01*
X148608329Y-112080329D01*
X148595750Y-112091731D01*
X148582114Y-112101844D01*
X148567552Y-112110572D01*
X148552204Y-112117831D01*
X148536219Y-112123551D01*
X148519751Y-112127676D01*
X148502957Y-112130167D01*
X148486000Y-112131000D01*
X148140000Y-112131000D01*
X148123043Y-112130167D01*
X148106249Y-112127676D01*
X148089781Y-112123551D01*
X148073796Y-112117831D01*
X148058448Y-112110572D01*
X148043886Y-112101844D01*
X148030250Y-112091731D01*
X148017671Y-112080329D01*
X148006269Y-112067750D01*
X147996156Y-112054114D01*
X147987428Y-112039552D01*
X147980169Y-112024204D01*
X147974449Y-112008219D01*
X147970324Y-111991751D01*
X147967833Y-111974957D01*
X147967000Y-111958000D01*
X147967000Y-111562000D01*
X147967833Y-111545043D01*
X147970324Y-111528249D01*
X147974449Y-111511781D01*
X147980169Y-111495796D01*
X147987428Y-111480448D01*
X147996156Y-111465886D01*
X148006269Y-111452250D01*
X148017671Y-111439671D01*
X148030250Y-111428269D01*
X148043886Y-111418156D01*
X148058448Y-111409428D01*
X148073796Y-111402169D01*
X148089781Y-111396449D01*
X148106249Y-111392324D01*
X148123043Y-111389833D01*
X148140000Y-111389000D01*
X148486000Y-111389000D01*
X148502957Y-111389833D01*
G37*
G36*
X147532957Y-111389833D02*
G01*
X147549751Y-111392324D01*
X147566219Y-111396449D01*
X147582204Y-111402169D01*
X147597552Y-111409428D01*
X147612114Y-111418156D01*
X147625750Y-111428269D01*
X147638329Y-111439671D01*
X147649731Y-111452250D01*
X147659844Y-111465886D01*
X147668572Y-111480448D01*
X147675831Y-111495796D01*
X147681551Y-111511781D01*
X147685676Y-111528249D01*
X147688167Y-111545043D01*
X147689000Y-111562000D01*
X147689000Y-111958000D01*
X147688167Y-111974957D01*
X147685676Y-111991751D01*
X147681551Y-112008219D01*
X147675831Y-112024204D01*
X147668572Y-112039552D01*
X147659844Y-112054114D01*
X147649731Y-112067750D01*
X147638329Y-112080329D01*
X147625750Y-112091731D01*
X147612114Y-112101844D01*
X147597552Y-112110572D01*
X147582204Y-112117831D01*
X147566219Y-112123551D01*
X147549751Y-112127676D01*
X147532957Y-112130167D01*
X147516000Y-112131000D01*
X147170000Y-112131000D01*
X147153043Y-112130167D01*
X147136249Y-112127676D01*
X147119781Y-112123551D01*
X147103796Y-112117831D01*
X147088448Y-112110572D01*
X147073886Y-112101844D01*
X147060250Y-112091731D01*
X147047671Y-112080329D01*
X147036269Y-112067750D01*
X147026156Y-112054114D01*
X147017428Y-112039552D01*
X147010169Y-112024204D01*
X147004449Y-112008219D01*
X147000324Y-111991751D01*
X146997833Y-111974957D01*
X146997000Y-111958000D01*
X146997000Y-111562000D01*
X146997833Y-111545043D01*
X147000324Y-111528249D01*
X147004449Y-111511781D01*
X147010169Y-111495796D01*
X147017428Y-111480448D01*
X147026156Y-111465886D01*
X147036269Y-111452250D01*
X147047671Y-111439671D01*
X147060250Y-111428269D01*
X147073886Y-111418156D01*
X147088448Y-111409428D01*
X147103796Y-111402169D01*
X147119781Y-111396449D01*
X147136249Y-111392324D01*
X147153043Y-111389833D01*
X147170000Y-111389000D01*
X147516000Y-111389000D01*
X147532957Y-111389833D01*
G37*
G36*
X143216957Y-112407833D02*
G01*
X143233751Y-112410324D01*
X143250219Y-112414449D01*
X143266204Y-112420169D01*
X143281552Y-112427428D01*
X143296114Y-112436156D01*
X143309750Y-112446269D01*
X143322329Y-112457671D01*
X143333731Y-112470250D01*
X143343844Y-112483886D01*
X143352572Y-112498448D01*
X143359831Y-112513796D01*
X143365551Y-112529781D01*
X143369676Y-112546249D01*
X143372167Y-112563043D01*
X143373000Y-112580000D01*
X143373000Y-112926000D01*
X143372167Y-112942957D01*
X143369676Y-112959751D01*
X143365551Y-112976219D01*
X143359831Y-112992204D01*
X143352572Y-113007552D01*
X143343844Y-113022114D01*
X143333731Y-113035750D01*
X143322329Y-113048329D01*
X143309750Y-113059731D01*
X143296114Y-113069844D01*
X143281552Y-113078572D01*
X143266204Y-113085831D01*
X143250219Y-113091551D01*
X143233751Y-113095676D01*
X143216957Y-113098167D01*
X143200000Y-113099000D01*
X142804000Y-113099000D01*
X142787043Y-113098167D01*
X142770249Y-113095676D01*
X142753781Y-113091551D01*
X142737796Y-113085831D01*
X142722448Y-113078572D01*
X142707886Y-113069844D01*
X142694250Y-113059731D01*
X142681671Y-113048329D01*
X142670269Y-113035750D01*
X142660156Y-113022114D01*
X142651428Y-113007552D01*
X142644169Y-112992204D01*
X142638449Y-112976219D01*
X142634324Y-112959751D01*
X142631833Y-112942957D01*
X142631000Y-112926000D01*
X142631000Y-112580000D01*
X142631833Y-112563043D01*
X142634324Y-112546249D01*
X142638449Y-112529781D01*
X142644169Y-112513796D01*
X142651428Y-112498448D01*
X142660156Y-112483886D01*
X142670269Y-112470250D01*
X142681671Y-112457671D01*
X142694250Y-112446269D01*
X142707886Y-112436156D01*
X142722448Y-112427428D01*
X142737796Y-112420169D01*
X142753781Y-112414449D01*
X142770249Y-112410324D01*
X142787043Y-112407833D01*
X142804000Y-112407000D01*
X143200000Y-112407000D01*
X143216957Y-112407833D01*
G37*
G36*
X143216957Y-111437833D02*
G01*
X143233751Y-111440324D01*
X143250219Y-111444449D01*
X143266204Y-111450169D01*
X143281552Y-111457428D01*
X143296114Y-111466156D01*
X143309750Y-111476269D01*
X143322329Y-111487671D01*
X143333731Y-111500250D01*
X143343844Y-111513886D01*
X143352572Y-111528448D01*
X143359831Y-111543796D01*
X143365551Y-111559781D01*
X143369676Y-111576249D01*
X143372167Y-111593043D01*
X143373000Y-111610000D01*
X143373000Y-111956000D01*
X143372167Y-111972957D01*
X143369676Y-111989751D01*
X143365551Y-112006219D01*
X143359831Y-112022204D01*
X143352572Y-112037552D01*
X143343844Y-112052114D01*
X143333731Y-112065750D01*
X143322329Y-112078329D01*
X143309750Y-112089731D01*
X143296114Y-112099844D01*
X143281552Y-112108572D01*
X143266204Y-112115831D01*
X143250219Y-112121551D01*
X143233751Y-112125676D01*
X143216957Y-112128167D01*
X143200000Y-112129000D01*
X142804000Y-112129000D01*
X142787043Y-112128167D01*
X142770249Y-112125676D01*
X142753781Y-112121551D01*
X142737796Y-112115831D01*
X142722448Y-112108572D01*
X142707886Y-112099844D01*
X142694250Y-112089731D01*
X142681671Y-112078329D01*
X142670269Y-112065750D01*
X142660156Y-112052114D01*
X142651428Y-112037552D01*
X142644169Y-112022204D01*
X142638449Y-112006219D01*
X142634324Y-111989751D01*
X142631833Y-111972957D01*
X142631000Y-111956000D01*
X142631000Y-111610000D01*
X142631833Y-111593043D01*
X142634324Y-111576249D01*
X142638449Y-111559781D01*
X142644169Y-111543796D01*
X142651428Y-111528448D01*
X142660156Y-111513886D01*
X142670269Y-111500250D01*
X142681671Y-111487671D01*
X142694250Y-111476269D01*
X142707886Y-111466156D01*
X142722448Y-111457428D01*
X142737796Y-111450169D01*
X142753781Y-111444449D01*
X142770249Y-111440324D01*
X142787043Y-111437833D01*
X142804000Y-111437000D01*
X143200000Y-111437000D01*
X143216957Y-111437833D01*
G37*
G36*
X150580957Y-105293833D02*
G01*
X150597751Y-105296324D01*
X150614219Y-105300449D01*
X150630204Y-105306169D01*
X150645552Y-105313428D01*
X150660114Y-105322156D01*
X150673750Y-105332269D01*
X150686329Y-105343671D01*
X150697731Y-105356250D01*
X150707844Y-105369886D01*
X150716572Y-105384448D01*
X150723831Y-105399796D01*
X150729551Y-105415781D01*
X150733676Y-105432249D01*
X150736167Y-105449043D01*
X150737000Y-105466000D01*
X150737000Y-105862000D01*
X150736167Y-105878957D01*
X150733676Y-105895751D01*
X150729551Y-105912219D01*
X150723831Y-105928204D01*
X150716572Y-105943552D01*
X150707844Y-105958114D01*
X150697731Y-105971750D01*
X150686329Y-105984329D01*
X150673750Y-105995731D01*
X150660114Y-106005844D01*
X150645552Y-106014572D01*
X150630204Y-106021831D01*
X150614219Y-106027551D01*
X150597751Y-106031676D01*
X150580957Y-106034167D01*
X150564000Y-106035000D01*
X150218000Y-106035000D01*
X150201043Y-106034167D01*
X150184249Y-106031676D01*
X150167781Y-106027551D01*
X150151796Y-106021831D01*
X150136448Y-106014572D01*
X150121886Y-106005844D01*
X150108250Y-105995731D01*
X150095671Y-105984329D01*
X150084269Y-105971750D01*
X150074156Y-105958114D01*
X150065428Y-105943552D01*
X150058169Y-105928204D01*
X150052449Y-105912219D01*
X150048324Y-105895751D01*
X150045833Y-105878957D01*
X150045000Y-105862000D01*
X150045000Y-105466000D01*
X150045833Y-105449043D01*
X150048324Y-105432249D01*
X150052449Y-105415781D01*
X150058169Y-105399796D01*
X150065428Y-105384448D01*
X150074156Y-105369886D01*
X150084269Y-105356250D01*
X150095671Y-105343671D01*
X150108250Y-105332269D01*
X150121886Y-105322156D01*
X150136448Y-105313428D01*
X150151796Y-105306169D01*
X150167781Y-105300449D01*
X150184249Y-105296324D01*
X150201043Y-105293833D01*
X150218000Y-105293000D01*
X150564000Y-105293000D01*
X150580957Y-105293833D01*
G37*
G36*
X151550957Y-105293833D02*
G01*
X151567751Y-105296324D01*
X151584219Y-105300449D01*
X151600204Y-105306169D01*
X151615552Y-105313428D01*
X151630114Y-105322156D01*
X151643750Y-105332269D01*
X151656329Y-105343671D01*
X151667731Y-105356250D01*
X151677844Y-105369886D01*
X151686572Y-105384448D01*
X151693831Y-105399796D01*
X151699551Y-105415781D01*
X151703676Y-105432249D01*
X151706167Y-105449043D01*
X151707000Y-105466000D01*
X151707000Y-105862000D01*
X151706167Y-105878957D01*
X151703676Y-105895751D01*
X151699551Y-105912219D01*
X151693831Y-105928204D01*
X151686572Y-105943552D01*
X151677844Y-105958114D01*
X151667731Y-105971750D01*
X151656329Y-105984329D01*
X151643750Y-105995731D01*
X151630114Y-106005844D01*
X151615552Y-106014572D01*
X151600204Y-106021831D01*
X151584219Y-106027551D01*
X151567751Y-106031676D01*
X151550957Y-106034167D01*
X151534000Y-106035000D01*
X151188000Y-106035000D01*
X151171043Y-106034167D01*
X151154249Y-106031676D01*
X151137781Y-106027551D01*
X151121796Y-106021831D01*
X151106448Y-106014572D01*
X151091886Y-106005844D01*
X151078250Y-105995731D01*
X151065671Y-105984329D01*
X151054269Y-105971750D01*
X151044156Y-105958114D01*
X151035428Y-105943552D01*
X151028169Y-105928204D01*
X151022449Y-105912219D01*
X151018324Y-105895751D01*
X151015833Y-105878957D01*
X151015000Y-105862000D01*
X151015000Y-105466000D01*
X151015833Y-105449043D01*
X151018324Y-105432249D01*
X151022449Y-105415781D01*
X151028169Y-105399796D01*
X151035428Y-105384448D01*
X151044156Y-105369886D01*
X151054269Y-105356250D01*
X151065671Y-105343671D01*
X151078250Y-105332269D01*
X151091886Y-105322156D01*
X151106448Y-105313428D01*
X151121796Y-105306169D01*
X151137781Y-105300449D01*
X151154249Y-105296324D01*
X151171043Y-105293833D01*
X151188000Y-105293000D01*
X151534000Y-105293000D01*
X151550957Y-105293833D01*
G37*
G36*
X143676957Y-116469833D02*
G01*
X143693751Y-116472324D01*
X143710219Y-116476449D01*
X143726204Y-116482169D01*
X143741552Y-116489428D01*
X143756114Y-116498156D01*
X143769750Y-116508269D01*
X143782329Y-116519671D01*
X143793731Y-116532250D01*
X143803844Y-116545886D01*
X143812572Y-116560448D01*
X143819831Y-116575796D01*
X143825551Y-116591781D01*
X143829676Y-116608249D01*
X143832167Y-116625043D01*
X143833000Y-116642000D01*
X143833000Y-117038000D01*
X143832167Y-117054957D01*
X143829676Y-117071751D01*
X143825551Y-117088219D01*
X143819831Y-117104204D01*
X143812572Y-117119552D01*
X143803844Y-117134114D01*
X143793731Y-117147750D01*
X143782329Y-117160329D01*
X143769750Y-117171731D01*
X143756114Y-117181844D01*
X143741552Y-117190572D01*
X143726204Y-117197831D01*
X143710219Y-117203551D01*
X143693751Y-117207676D01*
X143676957Y-117210167D01*
X143660000Y-117211000D01*
X143314000Y-117211000D01*
X143297043Y-117210167D01*
X143280249Y-117207676D01*
X143263781Y-117203551D01*
X143247796Y-117197831D01*
X143232448Y-117190572D01*
X143217886Y-117181844D01*
X143204250Y-117171731D01*
X143191671Y-117160329D01*
X143180269Y-117147750D01*
X143170156Y-117134114D01*
X143161428Y-117119552D01*
X143154169Y-117104204D01*
X143148449Y-117088219D01*
X143144324Y-117071751D01*
X143141833Y-117054957D01*
X143141000Y-117038000D01*
X143141000Y-116642000D01*
X143141833Y-116625043D01*
X143144324Y-116608249D01*
X143148449Y-116591781D01*
X143154169Y-116575796D01*
X143161428Y-116560448D01*
X143170156Y-116545886D01*
X143180269Y-116532250D01*
X143191671Y-116519671D01*
X143204250Y-116508269D01*
X143217886Y-116498156D01*
X143232448Y-116489428D01*
X143247796Y-116482169D01*
X143263781Y-116476449D01*
X143280249Y-116472324D01*
X143297043Y-116469833D01*
X143314000Y-116469000D01*
X143660000Y-116469000D01*
X143676957Y-116469833D01*
G37*
G36*
X142706957Y-116469833D02*
G01*
X142723751Y-116472324D01*
X142740219Y-116476449D01*
X142756204Y-116482169D01*
X142771552Y-116489428D01*
X142786114Y-116498156D01*
X142799750Y-116508269D01*
X142812329Y-116519671D01*
X142823731Y-116532250D01*
X142833844Y-116545886D01*
X142842572Y-116560448D01*
X142849831Y-116575796D01*
X142855551Y-116591781D01*
X142859676Y-116608249D01*
X142862167Y-116625043D01*
X142863000Y-116642000D01*
X142863000Y-117038000D01*
X142862167Y-117054957D01*
X142859676Y-117071751D01*
X142855551Y-117088219D01*
X142849831Y-117104204D01*
X142842572Y-117119552D01*
X142833844Y-117134114D01*
X142823731Y-117147750D01*
X142812329Y-117160329D01*
X142799750Y-117171731D01*
X142786114Y-117181844D01*
X142771552Y-117190572D01*
X142756204Y-117197831D01*
X142740219Y-117203551D01*
X142723751Y-117207676D01*
X142706957Y-117210167D01*
X142690000Y-117211000D01*
X142344000Y-117211000D01*
X142327043Y-117210167D01*
X142310249Y-117207676D01*
X142293781Y-117203551D01*
X142277796Y-117197831D01*
X142262448Y-117190572D01*
X142247886Y-117181844D01*
X142234250Y-117171731D01*
X142221671Y-117160329D01*
X142210269Y-117147750D01*
X142200156Y-117134114D01*
X142191428Y-117119552D01*
X142184169Y-117104204D01*
X142178449Y-117088219D01*
X142174324Y-117071751D01*
X142171833Y-117054957D01*
X142171000Y-117038000D01*
X142171000Y-116642000D01*
X142171833Y-116625043D01*
X142174324Y-116608249D01*
X142178449Y-116591781D01*
X142184169Y-116575796D01*
X142191428Y-116560448D01*
X142200156Y-116545886D01*
X142210269Y-116532250D01*
X142221671Y-116519671D01*
X142234250Y-116508269D01*
X142247886Y-116498156D01*
X142262448Y-116489428D01*
X142277796Y-116482169D01*
X142293781Y-116476449D01*
X142310249Y-116472324D01*
X142327043Y-116469833D01*
X142344000Y-116469000D01*
X142690000Y-116469000D01*
X142706957Y-116469833D01*
G37*
G36*
X146772957Y-104533833D02*
G01*
X146789751Y-104536324D01*
X146806219Y-104540449D01*
X146822204Y-104546169D01*
X146837552Y-104553428D01*
X146852114Y-104562156D01*
X146865750Y-104572269D01*
X146878329Y-104583671D01*
X146889731Y-104596250D01*
X146899844Y-104609886D01*
X146908572Y-104624448D01*
X146915831Y-104639796D01*
X146921551Y-104655781D01*
X146925676Y-104672249D01*
X146928167Y-104689043D01*
X146929000Y-104706000D01*
X146929000Y-105052000D01*
X146928167Y-105068957D01*
X146925676Y-105085751D01*
X146921551Y-105102219D01*
X146915831Y-105118204D01*
X146908572Y-105133552D01*
X146899844Y-105148114D01*
X146889731Y-105161750D01*
X146878329Y-105174329D01*
X146865750Y-105185731D01*
X146852114Y-105195844D01*
X146837552Y-105204572D01*
X146822204Y-105211831D01*
X146806219Y-105217551D01*
X146789751Y-105221676D01*
X146772957Y-105224167D01*
X146756000Y-105225000D01*
X146360000Y-105225000D01*
X146343043Y-105224167D01*
X146326249Y-105221676D01*
X146309781Y-105217551D01*
X146293796Y-105211831D01*
X146278448Y-105204572D01*
X146263886Y-105195844D01*
X146250250Y-105185731D01*
X146237671Y-105174329D01*
X146226269Y-105161750D01*
X146216156Y-105148114D01*
X146207428Y-105133552D01*
X146200169Y-105118204D01*
X146194449Y-105102219D01*
X146190324Y-105085751D01*
X146187833Y-105068957D01*
X146187000Y-105052000D01*
X146187000Y-104706000D01*
X146187833Y-104689043D01*
X146190324Y-104672249D01*
X146194449Y-104655781D01*
X146200169Y-104639796D01*
X146207428Y-104624448D01*
X146216156Y-104609886D01*
X146226269Y-104596250D01*
X146237671Y-104583671D01*
X146250250Y-104572269D01*
X146263886Y-104562156D01*
X146278448Y-104553428D01*
X146293796Y-104546169D01*
X146309781Y-104540449D01*
X146326249Y-104536324D01*
X146343043Y-104533833D01*
X146360000Y-104533000D01*
X146756000Y-104533000D01*
X146772957Y-104533833D01*
G37*
G36*
X146772957Y-103563833D02*
G01*
X146789751Y-103566324D01*
X146806219Y-103570449D01*
X146822204Y-103576169D01*
X146837552Y-103583428D01*
X146852114Y-103592156D01*
X146865750Y-103602269D01*
X146878329Y-103613671D01*
X146889731Y-103626250D01*
X146899844Y-103639886D01*
X146908572Y-103654448D01*
X146915831Y-103669796D01*
X146921551Y-103685781D01*
X146925676Y-103702249D01*
X146928167Y-103719043D01*
X146929000Y-103736000D01*
X146929000Y-104082000D01*
X146928167Y-104098957D01*
X146925676Y-104115751D01*
X146921551Y-104132219D01*
X146915831Y-104148204D01*
X146908572Y-104163552D01*
X146899844Y-104178114D01*
X146889731Y-104191750D01*
X146878329Y-104204329D01*
X146865750Y-104215731D01*
X146852114Y-104225844D01*
X146837552Y-104234572D01*
X146822204Y-104241831D01*
X146806219Y-104247551D01*
X146789751Y-104251676D01*
X146772957Y-104254167D01*
X146756000Y-104255000D01*
X146360000Y-104255000D01*
X146343043Y-104254167D01*
X146326249Y-104251676D01*
X146309781Y-104247551D01*
X146293796Y-104241831D01*
X146278448Y-104234572D01*
X146263886Y-104225844D01*
X146250250Y-104215731D01*
X146237671Y-104204329D01*
X146226269Y-104191750D01*
X146216156Y-104178114D01*
X146207428Y-104163552D01*
X146200169Y-104148204D01*
X146194449Y-104132219D01*
X146190324Y-104115751D01*
X146187833Y-104098957D01*
X146187000Y-104082000D01*
X146187000Y-103736000D01*
X146187833Y-103719043D01*
X146190324Y-103702249D01*
X146194449Y-103685781D01*
X146200169Y-103669796D01*
X146207428Y-103654448D01*
X146216156Y-103639886D01*
X146226269Y-103626250D01*
X146237671Y-103613671D01*
X146250250Y-103602269D01*
X146263886Y-103592156D01*
X146278448Y-103583428D01*
X146293796Y-103576169D01*
X146309781Y-103570449D01*
X146326249Y-103566324D01*
X146343043Y-103563833D01*
X146360000Y-103563000D01*
X146756000Y-103563000D01*
X146772957Y-103563833D01*
G37*
G36*
X149056957Y-116723833D02*
G01*
X149073751Y-116726324D01*
X149090219Y-116730449D01*
X149106204Y-116736169D01*
X149121552Y-116743428D01*
X149136114Y-116752156D01*
X149149750Y-116762269D01*
X149162329Y-116773671D01*
X149173731Y-116786250D01*
X149183844Y-116799886D01*
X149192572Y-116814448D01*
X149199831Y-116829796D01*
X149205551Y-116845781D01*
X149209676Y-116862249D01*
X149212167Y-116879043D01*
X149213000Y-116896000D01*
X149213000Y-117292000D01*
X149212167Y-117308957D01*
X149209676Y-117325751D01*
X149205551Y-117342219D01*
X149199831Y-117358204D01*
X149192572Y-117373552D01*
X149183844Y-117388114D01*
X149173731Y-117401750D01*
X149162329Y-117414329D01*
X149149750Y-117425731D01*
X149136114Y-117435844D01*
X149121552Y-117444572D01*
X149106204Y-117451831D01*
X149090219Y-117457551D01*
X149073751Y-117461676D01*
X149056957Y-117464167D01*
X149040000Y-117465000D01*
X148694000Y-117465000D01*
X148677043Y-117464167D01*
X148660249Y-117461676D01*
X148643781Y-117457551D01*
X148627796Y-117451831D01*
X148612448Y-117444572D01*
X148597886Y-117435844D01*
X148584250Y-117425731D01*
X148571671Y-117414329D01*
X148560269Y-117401750D01*
X148550156Y-117388114D01*
X148541428Y-117373552D01*
X148534169Y-117358204D01*
X148528449Y-117342219D01*
X148524324Y-117325751D01*
X148521833Y-117308957D01*
X148521000Y-117292000D01*
X148521000Y-116896000D01*
X148521833Y-116879043D01*
X148524324Y-116862249D01*
X148528449Y-116845781D01*
X148534169Y-116829796D01*
X148541428Y-116814448D01*
X148550156Y-116799886D01*
X148560269Y-116786250D01*
X148571671Y-116773671D01*
X148584250Y-116762269D01*
X148597886Y-116752156D01*
X148612448Y-116743428D01*
X148627796Y-116736169D01*
X148643781Y-116730449D01*
X148660249Y-116726324D01*
X148677043Y-116723833D01*
X148694000Y-116723000D01*
X149040000Y-116723000D01*
X149056957Y-116723833D01*
G37*
G36*
X150026957Y-116723833D02*
G01*
X150043751Y-116726324D01*
X150060219Y-116730449D01*
X150076204Y-116736169D01*
X150091552Y-116743428D01*
X150106114Y-116752156D01*
X150119750Y-116762269D01*
X150132329Y-116773671D01*
X150143731Y-116786250D01*
X150153844Y-116799886D01*
X150162572Y-116814448D01*
X150169831Y-116829796D01*
X150175551Y-116845781D01*
X150179676Y-116862249D01*
X150182167Y-116879043D01*
X150183000Y-116896000D01*
X150183000Y-117292000D01*
X150182167Y-117308957D01*
X150179676Y-117325751D01*
X150175551Y-117342219D01*
X150169831Y-117358204D01*
X150162572Y-117373552D01*
X150153844Y-117388114D01*
X150143731Y-117401750D01*
X150132329Y-117414329D01*
X150119750Y-117425731D01*
X150106114Y-117435844D01*
X150091552Y-117444572D01*
X150076204Y-117451831D01*
X150060219Y-117457551D01*
X150043751Y-117461676D01*
X150026957Y-117464167D01*
X150010000Y-117465000D01*
X149664000Y-117465000D01*
X149647043Y-117464167D01*
X149630249Y-117461676D01*
X149613781Y-117457551D01*
X149597796Y-117451831D01*
X149582448Y-117444572D01*
X149567886Y-117435844D01*
X149554250Y-117425731D01*
X149541671Y-117414329D01*
X149530269Y-117401750D01*
X149520156Y-117388114D01*
X149511428Y-117373552D01*
X149504169Y-117358204D01*
X149498449Y-117342219D01*
X149494324Y-117325751D01*
X149491833Y-117308957D01*
X149491000Y-117292000D01*
X149491000Y-116896000D01*
X149491833Y-116879043D01*
X149494324Y-116862249D01*
X149498449Y-116845781D01*
X149504169Y-116829796D01*
X149511428Y-116814448D01*
X149520156Y-116799886D01*
X149530269Y-116786250D01*
X149541671Y-116773671D01*
X149554250Y-116762269D01*
X149567886Y-116752156D01*
X149582448Y-116743428D01*
X149597796Y-116736169D01*
X149613781Y-116730449D01*
X149630249Y-116726324D01*
X149647043Y-116723833D01*
X149664000Y-116723000D01*
X150010000Y-116723000D01*
X150026957Y-116723833D01*
G37*
D21*
X160782000Y-130048000D03*
D22*
X160782000Y-126238000D03*
D21*
X160782000Y-82042000D03*
D22*
X160782000Y-78232000D03*
D21*
X135382000Y-126238000D03*
D22*
X135382000Y-130048000D03*
D21*
X135382000Y-77724000D03*
D22*
X135382000Y-81534000D03*
D19*
X135128000Y-113950000D03*
X135128000Y-111950000D03*
X135128000Y-109950000D03*
D20*
X135128000Y-107950000D03*
D19*
X160782000Y-115474000D03*
X160782000Y-113474000D03*
X160782000Y-111474000D03*
D20*
X160782000Y-109474000D03*
D19*
X145384000Y-71882000D03*
X147384000Y-71882000D03*
X149384000Y-71882000D03*
D20*
X151384000Y-71882000D03*
D23*
X155128001Y-101438451D03*
X153227999Y-101438451D03*
X153227999Y-98713549D03*
X154178000Y-98713549D03*
X155128001Y-98713549D03*
D24*
X148832000Y-101605000D03*
X148332000Y-101605000D03*
X147832000Y-101605000D03*
X147332000Y-101605000D03*
D25*
X146807000Y-101080000D03*
X146807000Y-100580000D03*
X146807000Y-100080000D03*
X146807000Y-99580000D03*
D24*
X147332000Y-99055000D03*
X147832000Y-99055000D03*
X148332000Y-99055000D03*
X148832000Y-99055000D03*
D25*
X149357000Y-99580000D03*
X149357000Y-100080000D03*
X149357000Y-100580000D03*
X149357000Y-101080000D03*
D18*
G36*
X156010104Y-102961302D02*
G01*
X156036352Y-102965196D01*
X156062093Y-102971643D01*
X156087078Y-102980583D01*
X156111066Y-102991928D01*
X156133826Y-103005571D01*
X156155140Y-103021378D01*
X156174802Y-103039198D01*
X156192622Y-103058860D01*
X156208429Y-103080174D01*
X156222072Y-103102934D01*
X156233417Y-103126922D01*
X156242357Y-103151907D01*
X156248804Y-103177648D01*
X156252698Y-103203896D01*
X156254000Y-103230400D01*
X156254000Y-104541600D01*
X156252698Y-104568104D01*
X156248804Y-104594352D01*
X156242357Y-104620093D01*
X156233417Y-104645078D01*
X156222072Y-104669066D01*
X156208429Y-104691826D01*
X156192622Y-104713140D01*
X156174802Y-104732802D01*
X156155140Y-104750622D01*
X156133826Y-104766429D01*
X156111066Y-104780072D01*
X156087078Y-104791417D01*
X156062093Y-104800357D01*
X156036352Y-104806804D01*
X156010104Y-104810698D01*
X155983600Y-104812000D01*
X155172400Y-104812000D01*
X155145896Y-104810698D01*
X155119648Y-104806804D01*
X155093907Y-104800357D01*
X155068922Y-104791417D01*
X155044934Y-104780072D01*
X155022174Y-104766429D01*
X155000860Y-104750622D01*
X154981198Y-104732802D01*
X154963378Y-104713140D01*
X154947571Y-104691826D01*
X154933928Y-104669066D01*
X154922583Y-104645078D01*
X154913643Y-104620093D01*
X154907196Y-104594352D01*
X154903302Y-104568104D01*
X154902000Y-104541600D01*
X154902000Y-103230400D01*
X154903302Y-103203896D01*
X154907196Y-103177648D01*
X154913643Y-103151907D01*
X154922583Y-103126922D01*
X154933928Y-103102934D01*
X154947571Y-103080174D01*
X154963378Y-103058860D01*
X154981198Y-103039198D01*
X155000860Y-103021378D01*
X155022174Y-103005571D01*
X155044934Y-102991928D01*
X155068922Y-102980583D01*
X155093907Y-102971643D01*
X155119648Y-102965196D01*
X155145896Y-102961302D01*
X155172400Y-102960000D01*
X155983600Y-102960000D01*
X156010104Y-102961302D01*
G37*
G36*
X153210104Y-102961302D02*
G01*
X153236352Y-102965196D01*
X153262093Y-102971643D01*
X153287078Y-102980583D01*
X153311066Y-102991928D01*
X153333826Y-103005571D01*
X153355140Y-103021378D01*
X153374802Y-103039198D01*
X153392622Y-103058860D01*
X153408429Y-103080174D01*
X153422072Y-103102934D01*
X153433417Y-103126922D01*
X153442357Y-103151907D01*
X153448804Y-103177648D01*
X153452698Y-103203896D01*
X153454000Y-103230400D01*
X153454000Y-104541600D01*
X153452698Y-104568104D01*
X153448804Y-104594352D01*
X153442357Y-104620093D01*
X153433417Y-104645078D01*
X153422072Y-104669066D01*
X153408429Y-104691826D01*
X153392622Y-104713140D01*
X153374802Y-104732802D01*
X153355140Y-104750622D01*
X153333826Y-104766429D01*
X153311066Y-104780072D01*
X153287078Y-104791417D01*
X153262093Y-104800357D01*
X153236352Y-104806804D01*
X153210104Y-104810698D01*
X153183600Y-104812000D01*
X152372400Y-104812000D01*
X152345896Y-104810698D01*
X152319648Y-104806804D01*
X152293907Y-104800357D01*
X152268922Y-104791417D01*
X152244934Y-104780072D01*
X152222174Y-104766429D01*
X152200860Y-104750622D01*
X152181198Y-104732802D01*
X152163378Y-104713140D01*
X152147571Y-104691826D01*
X152133928Y-104669066D01*
X152122583Y-104645078D01*
X152113643Y-104620093D01*
X152107196Y-104594352D01*
X152103302Y-104568104D01*
X152102000Y-104541600D01*
X152102000Y-103230400D01*
X152103302Y-103203896D01*
X152107196Y-103177648D01*
X152113643Y-103151907D01*
X152122583Y-103126922D01*
X152133928Y-103102934D01*
X152147571Y-103080174D01*
X152163378Y-103058860D01*
X152181198Y-103039198D01*
X152200860Y-103021378D01*
X152222174Y-103005571D01*
X152244934Y-102991928D01*
X152268922Y-102980583D01*
X152293907Y-102971643D01*
X152319648Y-102965196D01*
X152345896Y-102961302D01*
X152372400Y-102960000D01*
X153183600Y-102960000D01*
X153210104Y-102961302D01*
G37*
G36*
X146770957Y-102499833D02*
G01*
X146787751Y-102502324D01*
X146804219Y-102506449D01*
X146820204Y-102512169D01*
X146835552Y-102519428D01*
X146850114Y-102528156D01*
X146863750Y-102538269D01*
X146876329Y-102549671D01*
X146887731Y-102562250D01*
X146897844Y-102575886D01*
X146906572Y-102590448D01*
X146913831Y-102605796D01*
X146919551Y-102621781D01*
X146923676Y-102638249D01*
X146926167Y-102655043D01*
X146927000Y-102672000D01*
X146927000Y-103068000D01*
X146926167Y-103084957D01*
X146923676Y-103101751D01*
X146919551Y-103118219D01*
X146913831Y-103134204D01*
X146906572Y-103149552D01*
X146897844Y-103164114D01*
X146887731Y-103177750D01*
X146876329Y-103190329D01*
X146863750Y-103201731D01*
X146850114Y-103211844D01*
X146835552Y-103220572D01*
X146820204Y-103227831D01*
X146804219Y-103233551D01*
X146787751Y-103237676D01*
X146770957Y-103240167D01*
X146754000Y-103241000D01*
X146408000Y-103241000D01*
X146391043Y-103240167D01*
X146374249Y-103237676D01*
X146357781Y-103233551D01*
X146341796Y-103227831D01*
X146326448Y-103220572D01*
X146311886Y-103211844D01*
X146298250Y-103201731D01*
X146285671Y-103190329D01*
X146274269Y-103177750D01*
X146264156Y-103164114D01*
X146255428Y-103149552D01*
X146248169Y-103134204D01*
X146242449Y-103118219D01*
X146238324Y-103101751D01*
X146235833Y-103084957D01*
X146235000Y-103068000D01*
X146235000Y-102672000D01*
X146235833Y-102655043D01*
X146238324Y-102638249D01*
X146242449Y-102621781D01*
X146248169Y-102605796D01*
X146255428Y-102590448D01*
X146264156Y-102575886D01*
X146274269Y-102562250D01*
X146285671Y-102549671D01*
X146298250Y-102538269D01*
X146311886Y-102528156D01*
X146326448Y-102519428D01*
X146341796Y-102512169D01*
X146357781Y-102506449D01*
X146374249Y-102502324D01*
X146391043Y-102499833D01*
X146408000Y-102499000D01*
X146754000Y-102499000D01*
X146770957Y-102499833D01*
G37*
G36*
X147740957Y-102499833D02*
G01*
X147757751Y-102502324D01*
X147774219Y-102506449D01*
X147790204Y-102512169D01*
X147805552Y-102519428D01*
X147820114Y-102528156D01*
X147833750Y-102538269D01*
X147846329Y-102549671D01*
X147857731Y-102562250D01*
X147867844Y-102575886D01*
X147876572Y-102590448D01*
X147883831Y-102605796D01*
X147889551Y-102621781D01*
X147893676Y-102638249D01*
X147896167Y-102655043D01*
X147897000Y-102672000D01*
X147897000Y-103068000D01*
X147896167Y-103084957D01*
X147893676Y-103101751D01*
X147889551Y-103118219D01*
X147883831Y-103134204D01*
X147876572Y-103149552D01*
X147867844Y-103164114D01*
X147857731Y-103177750D01*
X147846329Y-103190329D01*
X147833750Y-103201731D01*
X147820114Y-103211844D01*
X147805552Y-103220572D01*
X147790204Y-103227831D01*
X147774219Y-103233551D01*
X147757751Y-103237676D01*
X147740957Y-103240167D01*
X147724000Y-103241000D01*
X147378000Y-103241000D01*
X147361043Y-103240167D01*
X147344249Y-103237676D01*
X147327781Y-103233551D01*
X147311796Y-103227831D01*
X147296448Y-103220572D01*
X147281886Y-103211844D01*
X147268250Y-103201731D01*
X147255671Y-103190329D01*
X147244269Y-103177750D01*
X147234156Y-103164114D01*
X147225428Y-103149552D01*
X147218169Y-103134204D01*
X147212449Y-103118219D01*
X147208324Y-103101751D01*
X147205833Y-103084957D01*
X147205000Y-103068000D01*
X147205000Y-102672000D01*
X147205833Y-102655043D01*
X147208324Y-102638249D01*
X147212449Y-102621781D01*
X147218169Y-102605796D01*
X147225428Y-102590448D01*
X147234156Y-102575886D01*
X147244269Y-102562250D01*
X147255671Y-102549671D01*
X147268250Y-102538269D01*
X147281886Y-102528156D01*
X147296448Y-102519428D01*
X147311796Y-102512169D01*
X147327781Y-102506449D01*
X147344249Y-102502324D01*
X147361043Y-102499833D01*
X147378000Y-102499000D01*
X147724000Y-102499000D01*
X147740957Y-102499833D01*
G37*
G36*
X145502957Y-98991833D02*
G01*
X145519751Y-98994324D01*
X145536219Y-98998449D01*
X145552204Y-99004169D01*
X145567552Y-99011428D01*
X145582114Y-99020156D01*
X145595750Y-99030269D01*
X145608329Y-99041671D01*
X145619731Y-99054250D01*
X145629844Y-99067886D01*
X145638572Y-99082448D01*
X145645831Y-99097796D01*
X145651551Y-99113781D01*
X145655676Y-99130249D01*
X145658167Y-99147043D01*
X145659000Y-99164000D01*
X145659000Y-99510000D01*
X145658167Y-99526957D01*
X145655676Y-99543751D01*
X145651551Y-99560219D01*
X145645831Y-99576204D01*
X145638572Y-99591552D01*
X145629844Y-99606114D01*
X145619731Y-99619750D01*
X145608329Y-99632329D01*
X145595750Y-99643731D01*
X145582114Y-99653844D01*
X145567552Y-99662572D01*
X145552204Y-99669831D01*
X145536219Y-99675551D01*
X145519751Y-99679676D01*
X145502957Y-99682167D01*
X145486000Y-99683000D01*
X145090000Y-99683000D01*
X145073043Y-99682167D01*
X145056249Y-99679676D01*
X145039781Y-99675551D01*
X145023796Y-99669831D01*
X145008448Y-99662572D01*
X144993886Y-99653844D01*
X144980250Y-99643731D01*
X144967671Y-99632329D01*
X144956269Y-99619750D01*
X144946156Y-99606114D01*
X144937428Y-99591552D01*
X144930169Y-99576204D01*
X144924449Y-99560219D01*
X144920324Y-99543751D01*
X144917833Y-99526957D01*
X144917000Y-99510000D01*
X144917000Y-99164000D01*
X144917833Y-99147043D01*
X144920324Y-99130249D01*
X144924449Y-99113781D01*
X144930169Y-99097796D01*
X144937428Y-99082448D01*
X144946156Y-99067886D01*
X144956269Y-99054250D01*
X144967671Y-99041671D01*
X144980250Y-99030269D01*
X144993886Y-99020156D01*
X145008448Y-99011428D01*
X145023796Y-99004169D01*
X145039781Y-98998449D01*
X145056249Y-98994324D01*
X145073043Y-98991833D01*
X145090000Y-98991000D01*
X145486000Y-98991000D01*
X145502957Y-98991833D01*
G37*
G36*
X145502957Y-99961833D02*
G01*
X145519751Y-99964324D01*
X145536219Y-99968449D01*
X145552204Y-99974169D01*
X145567552Y-99981428D01*
X145582114Y-99990156D01*
X145595750Y-100000269D01*
X145608329Y-100011671D01*
X145619731Y-100024250D01*
X145629844Y-100037886D01*
X145638572Y-100052448D01*
X145645831Y-100067796D01*
X145651551Y-100083781D01*
X145655676Y-100100249D01*
X145658167Y-100117043D01*
X145659000Y-100134000D01*
X145659000Y-100480000D01*
X145658167Y-100496957D01*
X145655676Y-100513751D01*
X145651551Y-100530219D01*
X145645831Y-100546204D01*
X145638572Y-100561552D01*
X145629844Y-100576114D01*
X145619731Y-100589750D01*
X145608329Y-100602329D01*
X145595750Y-100613731D01*
X145582114Y-100623844D01*
X145567552Y-100632572D01*
X145552204Y-100639831D01*
X145536219Y-100645551D01*
X145519751Y-100649676D01*
X145502957Y-100652167D01*
X145486000Y-100653000D01*
X145090000Y-100653000D01*
X145073043Y-100652167D01*
X145056249Y-100649676D01*
X145039781Y-100645551D01*
X145023796Y-100639831D01*
X145008448Y-100632572D01*
X144993886Y-100623844D01*
X144980250Y-100613731D01*
X144967671Y-100602329D01*
X144956269Y-100589750D01*
X144946156Y-100576114D01*
X144937428Y-100561552D01*
X144930169Y-100546204D01*
X144924449Y-100530219D01*
X144920324Y-100513751D01*
X144917833Y-100496957D01*
X144917000Y-100480000D01*
X144917000Y-100134000D01*
X144917833Y-100117043D01*
X144920324Y-100100249D01*
X144924449Y-100083781D01*
X144930169Y-100067796D01*
X144937428Y-100052448D01*
X144946156Y-100037886D01*
X144956269Y-100024250D01*
X144967671Y-100011671D01*
X144980250Y-100000269D01*
X144993886Y-99990156D01*
X145008448Y-99981428D01*
X145023796Y-99974169D01*
X145039781Y-99968449D01*
X145056249Y-99964324D01*
X145073043Y-99961833D01*
X145090000Y-99961000D01*
X145486000Y-99961000D01*
X145502957Y-99961833D01*
G37*
D23*
X153227999Y-109127549D03*
X155128001Y-109127549D03*
X155128001Y-111852451D03*
X154178000Y-111852451D03*
X153227999Y-111852451D03*
D18*
G36*
X140592351Y-99174484D02*
G01*
X140602107Y-99175931D01*
X140611674Y-99178327D01*
X140620960Y-99181650D01*
X140629875Y-99185867D01*
X140638335Y-99190937D01*
X140646257Y-99196812D01*
X140653564Y-99203436D01*
X140660188Y-99210743D01*
X140666063Y-99218665D01*
X140671133Y-99227125D01*
X140675350Y-99236040D01*
X140678673Y-99245326D01*
X140681069Y-99254893D01*
X140682516Y-99264649D01*
X140683000Y-99274500D01*
X140683000Y-100025500D01*
X140682516Y-100035351D01*
X140681069Y-100045107D01*
X140678673Y-100054674D01*
X140675350Y-100063960D01*
X140671133Y-100072875D01*
X140666063Y-100081335D01*
X140660188Y-100089257D01*
X140653564Y-100096564D01*
X140646257Y-100103188D01*
X140638335Y-100109063D01*
X140629875Y-100114133D01*
X140620960Y-100118350D01*
X140611674Y-100121673D01*
X140602107Y-100124069D01*
X140592351Y-100125516D01*
X140582500Y-100126000D01*
X140381500Y-100126000D01*
X140371649Y-100125516D01*
X140361893Y-100124069D01*
X140352326Y-100121673D01*
X140343040Y-100118350D01*
X140334125Y-100114133D01*
X140325665Y-100109063D01*
X140317743Y-100103188D01*
X140310436Y-100096564D01*
X140303812Y-100089257D01*
X140297937Y-100081335D01*
X140292867Y-100072875D01*
X140288650Y-100063960D01*
X140285327Y-100054674D01*
X140282931Y-100045107D01*
X140281484Y-100035351D01*
X140281000Y-100025500D01*
X140281000Y-99274500D01*
X140281484Y-99264649D01*
X140282931Y-99254893D01*
X140285327Y-99245326D01*
X140288650Y-99236040D01*
X140292867Y-99227125D01*
X140297937Y-99218665D01*
X140303812Y-99210743D01*
X140310436Y-99203436D01*
X140317743Y-99196812D01*
X140325665Y-99190937D01*
X140334125Y-99185867D01*
X140343040Y-99181650D01*
X140352326Y-99178327D01*
X140361893Y-99175931D01*
X140371649Y-99174484D01*
X140381500Y-99174000D01*
X140582500Y-99174000D01*
X140592351Y-99174484D01*
G37*
G36*
X141092351Y-99174484D02*
G01*
X141102107Y-99175931D01*
X141111674Y-99178327D01*
X141120960Y-99181650D01*
X141129875Y-99185867D01*
X141138335Y-99190937D01*
X141146257Y-99196812D01*
X141153564Y-99203436D01*
X141160188Y-99210743D01*
X141166063Y-99218665D01*
X141171133Y-99227125D01*
X141175350Y-99236040D01*
X141178673Y-99245326D01*
X141181069Y-99254893D01*
X141182516Y-99264649D01*
X141183000Y-99274500D01*
X141183000Y-100025500D01*
X141182516Y-100035351D01*
X141181069Y-100045107D01*
X141178673Y-100054674D01*
X141175350Y-100063960D01*
X141171133Y-100072875D01*
X141166063Y-100081335D01*
X141160188Y-100089257D01*
X141153564Y-100096564D01*
X141146257Y-100103188D01*
X141138335Y-100109063D01*
X141129875Y-100114133D01*
X141120960Y-100118350D01*
X141111674Y-100121673D01*
X141102107Y-100124069D01*
X141092351Y-100125516D01*
X141082500Y-100126000D01*
X140881500Y-100126000D01*
X140871649Y-100125516D01*
X140861893Y-100124069D01*
X140852326Y-100121673D01*
X140843040Y-100118350D01*
X140834125Y-100114133D01*
X140825665Y-100109063D01*
X140817743Y-100103188D01*
X140810436Y-100096564D01*
X140803812Y-100089257D01*
X140797937Y-100081335D01*
X140792867Y-100072875D01*
X140788650Y-100063960D01*
X140785327Y-100054674D01*
X140782931Y-100045107D01*
X140781484Y-100035351D01*
X140781000Y-100025500D01*
X140781000Y-99274500D01*
X140781484Y-99264649D01*
X140782931Y-99254893D01*
X140785327Y-99245326D01*
X140788650Y-99236040D01*
X140792867Y-99227125D01*
X140797937Y-99218665D01*
X140803812Y-99210743D01*
X140810436Y-99203436D01*
X140817743Y-99196812D01*
X140825665Y-99190937D01*
X140834125Y-99185867D01*
X140843040Y-99181650D01*
X140852326Y-99178327D01*
X140861893Y-99175931D01*
X140871649Y-99174484D01*
X140881500Y-99174000D01*
X141082500Y-99174000D01*
X141092351Y-99174484D01*
G37*
G36*
X141592351Y-99174484D02*
G01*
X141602107Y-99175931D01*
X141611674Y-99178327D01*
X141620960Y-99181650D01*
X141629875Y-99185867D01*
X141638335Y-99190937D01*
X141646257Y-99196812D01*
X141653564Y-99203436D01*
X141660188Y-99210743D01*
X141666063Y-99218665D01*
X141671133Y-99227125D01*
X141675350Y-99236040D01*
X141678673Y-99245326D01*
X141681069Y-99254893D01*
X141682516Y-99264649D01*
X141683000Y-99274500D01*
X141683000Y-100025500D01*
X141682516Y-100035351D01*
X141681069Y-100045107D01*
X141678673Y-100054674D01*
X141675350Y-100063960D01*
X141671133Y-100072875D01*
X141666063Y-100081335D01*
X141660188Y-100089257D01*
X141653564Y-100096564D01*
X141646257Y-100103188D01*
X141638335Y-100109063D01*
X141629875Y-100114133D01*
X141620960Y-100118350D01*
X141611674Y-100121673D01*
X141602107Y-100124069D01*
X141592351Y-100125516D01*
X141582500Y-100126000D01*
X141381500Y-100126000D01*
X141371649Y-100125516D01*
X141361893Y-100124069D01*
X141352326Y-100121673D01*
X141343040Y-100118350D01*
X141334125Y-100114133D01*
X141325665Y-100109063D01*
X141317743Y-100103188D01*
X141310436Y-100096564D01*
X141303812Y-100089257D01*
X141297937Y-100081335D01*
X141292867Y-100072875D01*
X141288650Y-100063960D01*
X141285327Y-100054674D01*
X141282931Y-100045107D01*
X141281484Y-100035351D01*
X141281000Y-100025500D01*
X141281000Y-99274500D01*
X141281484Y-99264649D01*
X141282931Y-99254893D01*
X141285327Y-99245326D01*
X141288650Y-99236040D01*
X141292867Y-99227125D01*
X141297937Y-99218665D01*
X141303812Y-99210743D01*
X141310436Y-99203436D01*
X141317743Y-99196812D01*
X141325665Y-99190937D01*
X141334125Y-99185867D01*
X141343040Y-99181650D01*
X141352326Y-99178327D01*
X141361893Y-99175931D01*
X141371649Y-99174484D01*
X141381500Y-99174000D01*
X141582500Y-99174000D01*
X141592351Y-99174484D01*
G37*
G36*
X142092351Y-99174484D02*
G01*
X142102107Y-99175931D01*
X142111674Y-99178327D01*
X142120960Y-99181650D01*
X142129875Y-99185867D01*
X142138335Y-99190937D01*
X142146257Y-99196812D01*
X142153564Y-99203436D01*
X142160188Y-99210743D01*
X142166063Y-99218665D01*
X142171133Y-99227125D01*
X142175350Y-99236040D01*
X142178673Y-99245326D01*
X142181069Y-99254893D01*
X142182516Y-99264649D01*
X142183000Y-99274500D01*
X142183000Y-100025500D01*
X142182516Y-100035351D01*
X142181069Y-100045107D01*
X142178673Y-100054674D01*
X142175350Y-100063960D01*
X142171133Y-100072875D01*
X142166063Y-100081335D01*
X142160188Y-100089257D01*
X142153564Y-100096564D01*
X142146257Y-100103188D01*
X142138335Y-100109063D01*
X142129875Y-100114133D01*
X142120960Y-100118350D01*
X142111674Y-100121673D01*
X142102107Y-100124069D01*
X142092351Y-100125516D01*
X142082500Y-100126000D01*
X141881500Y-100126000D01*
X141871649Y-100125516D01*
X141861893Y-100124069D01*
X141852326Y-100121673D01*
X141843040Y-100118350D01*
X141834125Y-100114133D01*
X141825665Y-100109063D01*
X141817743Y-100103188D01*
X141810436Y-100096564D01*
X141803812Y-100089257D01*
X141797937Y-100081335D01*
X141792867Y-100072875D01*
X141788650Y-100063960D01*
X141785327Y-100054674D01*
X141782931Y-100045107D01*
X141781484Y-100035351D01*
X141781000Y-100025500D01*
X141781000Y-99274500D01*
X141781484Y-99264649D01*
X141782931Y-99254893D01*
X141785327Y-99245326D01*
X141788650Y-99236040D01*
X141792867Y-99227125D01*
X141797937Y-99218665D01*
X141803812Y-99210743D01*
X141810436Y-99203436D01*
X141817743Y-99196812D01*
X141825665Y-99190937D01*
X141834125Y-99185867D01*
X141843040Y-99181650D01*
X141852326Y-99178327D01*
X141861893Y-99175931D01*
X141871649Y-99174484D01*
X141881500Y-99174000D01*
X142082500Y-99174000D01*
X142092351Y-99174484D01*
G37*
G36*
X142592351Y-99174484D02*
G01*
X142602107Y-99175931D01*
X142611674Y-99178327D01*
X142620960Y-99181650D01*
X142629875Y-99185867D01*
X142638335Y-99190937D01*
X142646257Y-99196812D01*
X142653564Y-99203436D01*
X142660188Y-99210743D01*
X142666063Y-99218665D01*
X142671133Y-99227125D01*
X142675350Y-99236040D01*
X142678673Y-99245326D01*
X142681069Y-99254893D01*
X142682516Y-99264649D01*
X142683000Y-99274500D01*
X142683000Y-100025500D01*
X142682516Y-100035351D01*
X142681069Y-100045107D01*
X142678673Y-100054674D01*
X142675350Y-100063960D01*
X142671133Y-100072875D01*
X142666063Y-100081335D01*
X142660188Y-100089257D01*
X142653564Y-100096564D01*
X142646257Y-100103188D01*
X142638335Y-100109063D01*
X142629875Y-100114133D01*
X142620960Y-100118350D01*
X142611674Y-100121673D01*
X142602107Y-100124069D01*
X142592351Y-100125516D01*
X142582500Y-100126000D01*
X142381500Y-100126000D01*
X142371649Y-100125516D01*
X142361893Y-100124069D01*
X142352326Y-100121673D01*
X142343040Y-100118350D01*
X142334125Y-100114133D01*
X142325665Y-100109063D01*
X142317743Y-100103188D01*
X142310436Y-100096564D01*
X142303812Y-100089257D01*
X142297937Y-100081335D01*
X142292867Y-100072875D01*
X142288650Y-100063960D01*
X142285327Y-100054674D01*
X142282931Y-100045107D01*
X142281484Y-100035351D01*
X142281000Y-100025500D01*
X142281000Y-99274500D01*
X142281484Y-99264649D01*
X142282931Y-99254893D01*
X142285327Y-99245326D01*
X142288650Y-99236040D01*
X142292867Y-99227125D01*
X142297937Y-99218665D01*
X142303812Y-99210743D01*
X142310436Y-99203436D01*
X142317743Y-99196812D01*
X142325665Y-99190937D01*
X142334125Y-99185867D01*
X142343040Y-99181650D01*
X142352326Y-99178327D01*
X142361893Y-99175931D01*
X142371649Y-99174484D01*
X142381500Y-99174000D01*
X142582500Y-99174000D01*
X142592351Y-99174484D01*
G37*
G36*
X143092351Y-99174484D02*
G01*
X143102107Y-99175931D01*
X143111674Y-99178327D01*
X143120960Y-99181650D01*
X143129875Y-99185867D01*
X143138335Y-99190937D01*
X143146257Y-99196812D01*
X143153564Y-99203436D01*
X143160188Y-99210743D01*
X143166063Y-99218665D01*
X143171133Y-99227125D01*
X143175350Y-99236040D01*
X143178673Y-99245326D01*
X143181069Y-99254893D01*
X143182516Y-99264649D01*
X143183000Y-99274500D01*
X143183000Y-100025500D01*
X143182516Y-100035351D01*
X143181069Y-100045107D01*
X143178673Y-100054674D01*
X143175350Y-100063960D01*
X143171133Y-100072875D01*
X143166063Y-100081335D01*
X143160188Y-100089257D01*
X143153564Y-100096564D01*
X143146257Y-100103188D01*
X143138335Y-100109063D01*
X143129875Y-100114133D01*
X143120960Y-100118350D01*
X143111674Y-100121673D01*
X143102107Y-100124069D01*
X143092351Y-100125516D01*
X143082500Y-100126000D01*
X142881500Y-100126000D01*
X142871649Y-100125516D01*
X142861893Y-100124069D01*
X142852326Y-100121673D01*
X142843040Y-100118350D01*
X142834125Y-100114133D01*
X142825665Y-100109063D01*
X142817743Y-100103188D01*
X142810436Y-100096564D01*
X142803812Y-100089257D01*
X142797937Y-100081335D01*
X142792867Y-100072875D01*
X142788650Y-100063960D01*
X142785327Y-100054674D01*
X142782931Y-100045107D01*
X142781484Y-100035351D01*
X142781000Y-100025500D01*
X142781000Y-99274500D01*
X142781484Y-99264649D01*
X142782931Y-99254893D01*
X142785327Y-99245326D01*
X142788650Y-99236040D01*
X142792867Y-99227125D01*
X142797937Y-99218665D01*
X142803812Y-99210743D01*
X142810436Y-99203436D01*
X142817743Y-99196812D01*
X142825665Y-99190937D01*
X142834125Y-99185867D01*
X142843040Y-99181650D01*
X142852326Y-99178327D01*
X142861893Y-99175931D01*
X142871649Y-99174484D01*
X142881500Y-99174000D01*
X143082500Y-99174000D01*
X143092351Y-99174484D01*
G37*
G36*
X144067351Y-100149484D02*
G01*
X144077107Y-100150931D01*
X144086674Y-100153327D01*
X144095960Y-100156650D01*
X144104875Y-100160867D01*
X144113335Y-100165937D01*
X144121257Y-100171812D01*
X144128564Y-100178436D01*
X144135188Y-100185743D01*
X144141063Y-100193665D01*
X144146133Y-100202125D01*
X144150350Y-100211040D01*
X144153673Y-100220326D01*
X144156069Y-100229893D01*
X144157516Y-100239649D01*
X144158000Y-100249500D01*
X144158000Y-100450500D01*
X144157516Y-100460351D01*
X144156069Y-100470107D01*
X144153673Y-100479674D01*
X144150350Y-100488960D01*
X144146133Y-100497875D01*
X144141063Y-100506335D01*
X144135188Y-100514257D01*
X144128564Y-100521564D01*
X144121257Y-100528188D01*
X144113335Y-100534063D01*
X144104875Y-100539133D01*
X144095960Y-100543350D01*
X144086674Y-100546673D01*
X144077107Y-100549069D01*
X144067351Y-100550516D01*
X144057500Y-100551000D01*
X143306500Y-100551000D01*
X143296649Y-100550516D01*
X143286893Y-100549069D01*
X143277326Y-100546673D01*
X143268040Y-100543350D01*
X143259125Y-100539133D01*
X143250665Y-100534063D01*
X143242743Y-100528188D01*
X143235436Y-100521564D01*
X143228812Y-100514257D01*
X143222937Y-100506335D01*
X143217867Y-100497875D01*
X143213650Y-100488960D01*
X143210327Y-100479674D01*
X143207931Y-100470107D01*
X143206484Y-100460351D01*
X143206000Y-100450500D01*
X143206000Y-100249500D01*
X143206484Y-100239649D01*
X143207931Y-100229893D01*
X143210327Y-100220326D01*
X143213650Y-100211040D01*
X143217867Y-100202125D01*
X143222937Y-100193665D01*
X143228812Y-100185743D01*
X143235436Y-100178436D01*
X143242743Y-100171812D01*
X143250665Y-100165937D01*
X143259125Y-100160867D01*
X143268040Y-100156650D01*
X143277326Y-100153327D01*
X143286893Y-100150931D01*
X143296649Y-100149484D01*
X143306500Y-100149000D01*
X144057500Y-100149000D01*
X144067351Y-100149484D01*
G37*
G36*
X144067351Y-100649484D02*
G01*
X144077107Y-100650931D01*
X144086674Y-100653327D01*
X144095960Y-100656650D01*
X144104875Y-100660867D01*
X144113335Y-100665937D01*
X144121257Y-100671812D01*
X144128564Y-100678436D01*
X144135188Y-100685743D01*
X144141063Y-100693665D01*
X144146133Y-100702125D01*
X144150350Y-100711040D01*
X144153673Y-100720326D01*
X144156069Y-100729893D01*
X144157516Y-100739649D01*
X144158000Y-100749500D01*
X144158000Y-100950500D01*
X144157516Y-100960351D01*
X144156069Y-100970107D01*
X144153673Y-100979674D01*
X144150350Y-100988960D01*
X144146133Y-100997875D01*
X144141063Y-101006335D01*
X144135188Y-101014257D01*
X144128564Y-101021564D01*
X144121257Y-101028188D01*
X144113335Y-101034063D01*
X144104875Y-101039133D01*
X144095960Y-101043350D01*
X144086674Y-101046673D01*
X144077107Y-101049069D01*
X144067351Y-101050516D01*
X144057500Y-101051000D01*
X143306500Y-101051000D01*
X143296649Y-101050516D01*
X143286893Y-101049069D01*
X143277326Y-101046673D01*
X143268040Y-101043350D01*
X143259125Y-101039133D01*
X143250665Y-101034063D01*
X143242743Y-101028188D01*
X143235436Y-101021564D01*
X143228812Y-101014257D01*
X143222937Y-101006335D01*
X143217867Y-100997875D01*
X143213650Y-100988960D01*
X143210327Y-100979674D01*
X143207931Y-100970107D01*
X143206484Y-100960351D01*
X143206000Y-100950500D01*
X143206000Y-100749500D01*
X143206484Y-100739649D01*
X143207931Y-100729893D01*
X143210327Y-100720326D01*
X143213650Y-100711040D01*
X143217867Y-100702125D01*
X143222937Y-100693665D01*
X143228812Y-100685743D01*
X143235436Y-100678436D01*
X143242743Y-100671812D01*
X143250665Y-100665937D01*
X143259125Y-100660867D01*
X143268040Y-100656650D01*
X143277326Y-100653327D01*
X143286893Y-100650931D01*
X143296649Y-100649484D01*
X143306500Y-100649000D01*
X144057500Y-100649000D01*
X144067351Y-100649484D01*
G37*
G36*
X144067351Y-101149484D02*
G01*
X144077107Y-101150931D01*
X144086674Y-101153327D01*
X144095960Y-101156650D01*
X144104875Y-101160867D01*
X144113335Y-101165937D01*
X144121257Y-101171812D01*
X144128564Y-101178436D01*
X144135188Y-101185743D01*
X144141063Y-101193665D01*
X144146133Y-101202125D01*
X144150350Y-101211040D01*
X144153673Y-101220326D01*
X144156069Y-101229893D01*
X144157516Y-101239649D01*
X144158000Y-101249500D01*
X144158000Y-101450500D01*
X144157516Y-101460351D01*
X144156069Y-101470107D01*
X144153673Y-101479674D01*
X144150350Y-101488960D01*
X144146133Y-101497875D01*
X144141063Y-101506335D01*
X144135188Y-101514257D01*
X144128564Y-101521564D01*
X144121257Y-101528188D01*
X144113335Y-101534063D01*
X144104875Y-101539133D01*
X144095960Y-101543350D01*
X144086674Y-101546673D01*
X144077107Y-101549069D01*
X144067351Y-101550516D01*
X144057500Y-101551000D01*
X143306500Y-101551000D01*
X143296649Y-101550516D01*
X143286893Y-101549069D01*
X143277326Y-101546673D01*
X143268040Y-101543350D01*
X143259125Y-101539133D01*
X143250665Y-101534063D01*
X143242743Y-101528188D01*
X143235436Y-101521564D01*
X143228812Y-101514257D01*
X143222937Y-101506335D01*
X143217867Y-101497875D01*
X143213650Y-101488960D01*
X143210327Y-101479674D01*
X143207931Y-101470107D01*
X143206484Y-101460351D01*
X143206000Y-101450500D01*
X143206000Y-101249500D01*
X143206484Y-101239649D01*
X143207931Y-101229893D01*
X143210327Y-101220326D01*
X143213650Y-101211040D01*
X143217867Y-101202125D01*
X143222937Y-101193665D01*
X143228812Y-101185743D01*
X143235436Y-101178436D01*
X143242743Y-101171812D01*
X143250665Y-101165937D01*
X143259125Y-101160867D01*
X143268040Y-101156650D01*
X143277326Y-101153327D01*
X143286893Y-101150931D01*
X143296649Y-101149484D01*
X143306500Y-101149000D01*
X144057500Y-101149000D01*
X144067351Y-101149484D01*
G37*
G36*
X144067351Y-101649484D02*
G01*
X144077107Y-101650931D01*
X144086674Y-101653327D01*
X144095960Y-101656650D01*
X144104875Y-101660867D01*
X144113335Y-101665937D01*
X144121257Y-101671812D01*
X144128564Y-101678436D01*
X144135188Y-101685743D01*
X144141063Y-101693665D01*
X144146133Y-101702125D01*
X144150350Y-101711040D01*
X144153673Y-101720326D01*
X144156069Y-101729893D01*
X144157516Y-101739649D01*
X144158000Y-101749500D01*
X144158000Y-101950500D01*
X144157516Y-101960351D01*
X144156069Y-101970107D01*
X144153673Y-101979674D01*
X144150350Y-101988960D01*
X144146133Y-101997875D01*
X144141063Y-102006335D01*
X144135188Y-102014257D01*
X144128564Y-102021564D01*
X144121257Y-102028188D01*
X144113335Y-102034063D01*
X144104875Y-102039133D01*
X144095960Y-102043350D01*
X144086674Y-102046673D01*
X144077107Y-102049069D01*
X144067351Y-102050516D01*
X144057500Y-102051000D01*
X143306500Y-102051000D01*
X143296649Y-102050516D01*
X143286893Y-102049069D01*
X143277326Y-102046673D01*
X143268040Y-102043350D01*
X143259125Y-102039133D01*
X143250665Y-102034063D01*
X143242743Y-102028188D01*
X143235436Y-102021564D01*
X143228812Y-102014257D01*
X143222937Y-102006335D01*
X143217867Y-101997875D01*
X143213650Y-101988960D01*
X143210327Y-101979674D01*
X143207931Y-101970107D01*
X143206484Y-101960351D01*
X143206000Y-101950500D01*
X143206000Y-101749500D01*
X143206484Y-101739649D01*
X143207931Y-101729893D01*
X143210327Y-101720326D01*
X143213650Y-101711040D01*
X143217867Y-101702125D01*
X143222937Y-101693665D01*
X143228812Y-101685743D01*
X143235436Y-101678436D01*
X143242743Y-101671812D01*
X143250665Y-101665937D01*
X143259125Y-101660867D01*
X143268040Y-101656650D01*
X143277326Y-101653327D01*
X143286893Y-101650931D01*
X143296649Y-101649484D01*
X143306500Y-101649000D01*
X144057500Y-101649000D01*
X144067351Y-101649484D01*
G37*
G36*
X144067351Y-102149484D02*
G01*
X144077107Y-102150931D01*
X144086674Y-102153327D01*
X144095960Y-102156650D01*
X144104875Y-102160867D01*
X144113335Y-102165937D01*
X144121257Y-102171812D01*
X144128564Y-102178436D01*
X144135188Y-102185743D01*
X144141063Y-102193665D01*
X144146133Y-102202125D01*
X144150350Y-102211040D01*
X144153673Y-102220326D01*
X144156069Y-102229893D01*
X144157516Y-102239649D01*
X144158000Y-102249500D01*
X144158000Y-102450500D01*
X144157516Y-102460351D01*
X144156069Y-102470107D01*
X144153673Y-102479674D01*
X144150350Y-102488960D01*
X144146133Y-102497875D01*
X144141063Y-102506335D01*
X144135188Y-102514257D01*
X144128564Y-102521564D01*
X144121257Y-102528188D01*
X144113335Y-102534063D01*
X144104875Y-102539133D01*
X144095960Y-102543350D01*
X144086674Y-102546673D01*
X144077107Y-102549069D01*
X144067351Y-102550516D01*
X144057500Y-102551000D01*
X143306500Y-102551000D01*
X143296649Y-102550516D01*
X143286893Y-102549069D01*
X143277326Y-102546673D01*
X143268040Y-102543350D01*
X143259125Y-102539133D01*
X143250665Y-102534063D01*
X143242743Y-102528188D01*
X143235436Y-102521564D01*
X143228812Y-102514257D01*
X143222937Y-102506335D01*
X143217867Y-102497875D01*
X143213650Y-102488960D01*
X143210327Y-102479674D01*
X143207931Y-102470107D01*
X143206484Y-102460351D01*
X143206000Y-102450500D01*
X143206000Y-102249500D01*
X143206484Y-102239649D01*
X143207931Y-102229893D01*
X143210327Y-102220326D01*
X143213650Y-102211040D01*
X143217867Y-102202125D01*
X143222937Y-102193665D01*
X143228812Y-102185743D01*
X143235436Y-102178436D01*
X143242743Y-102171812D01*
X143250665Y-102165937D01*
X143259125Y-102160867D01*
X143268040Y-102156650D01*
X143277326Y-102153327D01*
X143286893Y-102150931D01*
X143296649Y-102149484D01*
X143306500Y-102149000D01*
X144057500Y-102149000D01*
X144067351Y-102149484D01*
G37*
G36*
X144067351Y-102649484D02*
G01*
X144077107Y-102650931D01*
X144086674Y-102653327D01*
X144095960Y-102656650D01*
X144104875Y-102660867D01*
X144113335Y-102665937D01*
X144121257Y-102671812D01*
X144128564Y-102678436D01*
X144135188Y-102685743D01*
X144141063Y-102693665D01*
X144146133Y-102702125D01*
X144150350Y-102711040D01*
X144153673Y-102720326D01*
X144156069Y-102729893D01*
X144157516Y-102739649D01*
X144158000Y-102749500D01*
X144158000Y-102950500D01*
X144157516Y-102960351D01*
X144156069Y-102970107D01*
X144153673Y-102979674D01*
X144150350Y-102988960D01*
X144146133Y-102997875D01*
X144141063Y-103006335D01*
X144135188Y-103014257D01*
X144128564Y-103021564D01*
X144121257Y-103028188D01*
X144113335Y-103034063D01*
X144104875Y-103039133D01*
X144095960Y-103043350D01*
X144086674Y-103046673D01*
X144077107Y-103049069D01*
X144067351Y-103050516D01*
X144057500Y-103051000D01*
X143306500Y-103051000D01*
X143296649Y-103050516D01*
X143286893Y-103049069D01*
X143277326Y-103046673D01*
X143268040Y-103043350D01*
X143259125Y-103039133D01*
X143250665Y-103034063D01*
X143242743Y-103028188D01*
X143235436Y-103021564D01*
X143228812Y-103014257D01*
X143222937Y-103006335D01*
X143217867Y-102997875D01*
X143213650Y-102988960D01*
X143210327Y-102979674D01*
X143207931Y-102970107D01*
X143206484Y-102960351D01*
X143206000Y-102950500D01*
X143206000Y-102749500D01*
X143206484Y-102739649D01*
X143207931Y-102729893D01*
X143210327Y-102720326D01*
X143213650Y-102711040D01*
X143217867Y-102702125D01*
X143222937Y-102693665D01*
X143228812Y-102685743D01*
X143235436Y-102678436D01*
X143242743Y-102671812D01*
X143250665Y-102665937D01*
X143259125Y-102660867D01*
X143268040Y-102656650D01*
X143277326Y-102653327D01*
X143286893Y-102650931D01*
X143296649Y-102649484D01*
X143306500Y-102649000D01*
X144057500Y-102649000D01*
X144067351Y-102649484D01*
G37*
G36*
X143092351Y-103074484D02*
G01*
X143102107Y-103075931D01*
X143111674Y-103078327D01*
X143120960Y-103081650D01*
X143129875Y-103085867D01*
X143138335Y-103090937D01*
X143146257Y-103096812D01*
X143153564Y-103103436D01*
X143160188Y-103110743D01*
X143166063Y-103118665D01*
X143171133Y-103127125D01*
X143175350Y-103136040D01*
X143178673Y-103145326D01*
X143181069Y-103154893D01*
X143182516Y-103164649D01*
X143183000Y-103174500D01*
X143183000Y-103925500D01*
X143182516Y-103935351D01*
X143181069Y-103945107D01*
X143178673Y-103954674D01*
X143175350Y-103963960D01*
X143171133Y-103972875D01*
X143166063Y-103981335D01*
X143160188Y-103989257D01*
X143153564Y-103996564D01*
X143146257Y-104003188D01*
X143138335Y-104009063D01*
X143129875Y-104014133D01*
X143120960Y-104018350D01*
X143111674Y-104021673D01*
X143102107Y-104024069D01*
X143092351Y-104025516D01*
X143082500Y-104026000D01*
X142881500Y-104026000D01*
X142871649Y-104025516D01*
X142861893Y-104024069D01*
X142852326Y-104021673D01*
X142843040Y-104018350D01*
X142834125Y-104014133D01*
X142825665Y-104009063D01*
X142817743Y-104003188D01*
X142810436Y-103996564D01*
X142803812Y-103989257D01*
X142797937Y-103981335D01*
X142792867Y-103972875D01*
X142788650Y-103963960D01*
X142785327Y-103954674D01*
X142782931Y-103945107D01*
X142781484Y-103935351D01*
X142781000Y-103925500D01*
X142781000Y-103174500D01*
X142781484Y-103164649D01*
X142782931Y-103154893D01*
X142785327Y-103145326D01*
X142788650Y-103136040D01*
X142792867Y-103127125D01*
X142797937Y-103118665D01*
X142803812Y-103110743D01*
X142810436Y-103103436D01*
X142817743Y-103096812D01*
X142825665Y-103090937D01*
X142834125Y-103085867D01*
X142843040Y-103081650D01*
X142852326Y-103078327D01*
X142861893Y-103075931D01*
X142871649Y-103074484D01*
X142881500Y-103074000D01*
X143082500Y-103074000D01*
X143092351Y-103074484D01*
G37*
G36*
X142592351Y-103074484D02*
G01*
X142602107Y-103075931D01*
X142611674Y-103078327D01*
X142620960Y-103081650D01*
X142629875Y-103085867D01*
X142638335Y-103090937D01*
X142646257Y-103096812D01*
X142653564Y-103103436D01*
X142660188Y-103110743D01*
X142666063Y-103118665D01*
X142671133Y-103127125D01*
X142675350Y-103136040D01*
X142678673Y-103145326D01*
X142681069Y-103154893D01*
X142682516Y-103164649D01*
X142683000Y-103174500D01*
X142683000Y-103925500D01*
X142682516Y-103935351D01*
X142681069Y-103945107D01*
X142678673Y-103954674D01*
X142675350Y-103963960D01*
X142671133Y-103972875D01*
X142666063Y-103981335D01*
X142660188Y-103989257D01*
X142653564Y-103996564D01*
X142646257Y-104003188D01*
X142638335Y-104009063D01*
X142629875Y-104014133D01*
X142620960Y-104018350D01*
X142611674Y-104021673D01*
X142602107Y-104024069D01*
X142592351Y-104025516D01*
X142582500Y-104026000D01*
X142381500Y-104026000D01*
X142371649Y-104025516D01*
X142361893Y-104024069D01*
X142352326Y-104021673D01*
X142343040Y-104018350D01*
X142334125Y-104014133D01*
X142325665Y-104009063D01*
X142317743Y-104003188D01*
X142310436Y-103996564D01*
X142303812Y-103989257D01*
X142297937Y-103981335D01*
X142292867Y-103972875D01*
X142288650Y-103963960D01*
X142285327Y-103954674D01*
X142282931Y-103945107D01*
X142281484Y-103935351D01*
X142281000Y-103925500D01*
X142281000Y-103174500D01*
X142281484Y-103164649D01*
X142282931Y-103154893D01*
X142285327Y-103145326D01*
X142288650Y-103136040D01*
X142292867Y-103127125D01*
X142297937Y-103118665D01*
X142303812Y-103110743D01*
X142310436Y-103103436D01*
X142317743Y-103096812D01*
X142325665Y-103090937D01*
X142334125Y-103085867D01*
X142343040Y-103081650D01*
X142352326Y-103078327D01*
X142361893Y-103075931D01*
X142371649Y-103074484D01*
X142381500Y-103074000D01*
X142582500Y-103074000D01*
X142592351Y-103074484D01*
G37*
G36*
X142092351Y-103074484D02*
G01*
X142102107Y-103075931D01*
X142111674Y-103078327D01*
X142120960Y-103081650D01*
X142129875Y-103085867D01*
X142138335Y-103090937D01*
X142146257Y-103096812D01*
X142153564Y-103103436D01*
X142160188Y-103110743D01*
X142166063Y-103118665D01*
X142171133Y-103127125D01*
X142175350Y-103136040D01*
X142178673Y-103145326D01*
X142181069Y-103154893D01*
X142182516Y-103164649D01*
X142183000Y-103174500D01*
X142183000Y-103925500D01*
X142182516Y-103935351D01*
X142181069Y-103945107D01*
X142178673Y-103954674D01*
X142175350Y-103963960D01*
X142171133Y-103972875D01*
X142166063Y-103981335D01*
X142160188Y-103989257D01*
X142153564Y-103996564D01*
X142146257Y-104003188D01*
X142138335Y-104009063D01*
X142129875Y-104014133D01*
X142120960Y-104018350D01*
X142111674Y-104021673D01*
X142102107Y-104024069D01*
X142092351Y-104025516D01*
X142082500Y-104026000D01*
X141881500Y-104026000D01*
X141871649Y-104025516D01*
X141861893Y-104024069D01*
X141852326Y-104021673D01*
X141843040Y-104018350D01*
X141834125Y-104014133D01*
X141825665Y-104009063D01*
X141817743Y-104003188D01*
X141810436Y-103996564D01*
X141803812Y-103989257D01*
X141797937Y-103981335D01*
X141792867Y-103972875D01*
X141788650Y-103963960D01*
X141785327Y-103954674D01*
X141782931Y-103945107D01*
X141781484Y-103935351D01*
X141781000Y-103925500D01*
X141781000Y-103174500D01*
X141781484Y-103164649D01*
X141782931Y-103154893D01*
X141785327Y-103145326D01*
X141788650Y-103136040D01*
X141792867Y-103127125D01*
X141797937Y-103118665D01*
X141803812Y-103110743D01*
X141810436Y-103103436D01*
X141817743Y-103096812D01*
X141825665Y-103090937D01*
X141834125Y-103085867D01*
X141843040Y-103081650D01*
X141852326Y-103078327D01*
X141861893Y-103075931D01*
X141871649Y-103074484D01*
X141881500Y-103074000D01*
X142082500Y-103074000D01*
X142092351Y-103074484D01*
G37*
G36*
X141592351Y-103074484D02*
G01*
X141602107Y-103075931D01*
X141611674Y-103078327D01*
X141620960Y-103081650D01*
X141629875Y-103085867D01*
X141638335Y-103090937D01*
X141646257Y-103096812D01*
X141653564Y-103103436D01*
X141660188Y-103110743D01*
X141666063Y-103118665D01*
X141671133Y-103127125D01*
X141675350Y-103136040D01*
X141678673Y-103145326D01*
X141681069Y-103154893D01*
X141682516Y-103164649D01*
X141683000Y-103174500D01*
X141683000Y-103925500D01*
X141682516Y-103935351D01*
X141681069Y-103945107D01*
X141678673Y-103954674D01*
X141675350Y-103963960D01*
X141671133Y-103972875D01*
X141666063Y-103981335D01*
X141660188Y-103989257D01*
X141653564Y-103996564D01*
X141646257Y-104003188D01*
X141638335Y-104009063D01*
X141629875Y-104014133D01*
X141620960Y-104018350D01*
X141611674Y-104021673D01*
X141602107Y-104024069D01*
X141592351Y-104025516D01*
X141582500Y-104026000D01*
X141381500Y-104026000D01*
X141371649Y-104025516D01*
X141361893Y-104024069D01*
X141352326Y-104021673D01*
X141343040Y-104018350D01*
X141334125Y-104014133D01*
X141325665Y-104009063D01*
X141317743Y-104003188D01*
X141310436Y-103996564D01*
X141303812Y-103989257D01*
X141297937Y-103981335D01*
X141292867Y-103972875D01*
X141288650Y-103963960D01*
X141285327Y-103954674D01*
X141282931Y-103945107D01*
X141281484Y-103935351D01*
X141281000Y-103925500D01*
X141281000Y-103174500D01*
X141281484Y-103164649D01*
X141282931Y-103154893D01*
X141285327Y-103145326D01*
X141288650Y-103136040D01*
X141292867Y-103127125D01*
X141297937Y-103118665D01*
X141303812Y-103110743D01*
X141310436Y-103103436D01*
X141317743Y-103096812D01*
X141325665Y-103090937D01*
X141334125Y-103085867D01*
X141343040Y-103081650D01*
X141352326Y-103078327D01*
X141361893Y-103075931D01*
X141371649Y-103074484D01*
X141381500Y-103074000D01*
X141582500Y-103074000D01*
X141592351Y-103074484D01*
G37*
G36*
X141092351Y-103074484D02*
G01*
X141102107Y-103075931D01*
X141111674Y-103078327D01*
X141120960Y-103081650D01*
X141129875Y-103085867D01*
X141138335Y-103090937D01*
X141146257Y-103096812D01*
X141153564Y-103103436D01*
X141160188Y-103110743D01*
X141166063Y-103118665D01*
X141171133Y-103127125D01*
X141175350Y-103136040D01*
X141178673Y-103145326D01*
X141181069Y-103154893D01*
X141182516Y-103164649D01*
X141183000Y-103174500D01*
X141183000Y-103925500D01*
X141182516Y-103935351D01*
X141181069Y-103945107D01*
X141178673Y-103954674D01*
X141175350Y-103963960D01*
X141171133Y-103972875D01*
X141166063Y-103981335D01*
X141160188Y-103989257D01*
X141153564Y-103996564D01*
X141146257Y-104003188D01*
X141138335Y-104009063D01*
X141129875Y-104014133D01*
X141120960Y-104018350D01*
X141111674Y-104021673D01*
X141102107Y-104024069D01*
X141092351Y-104025516D01*
X141082500Y-104026000D01*
X140881500Y-104026000D01*
X140871649Y-104025516D01*
X140861893Y-104024069D01*
X140852326Y-104021673D01*
X140843040Y-104018350D01*
X140834125Y-104014133D01*
X140825665Y-104009063D01*
X140817743Y-104003188D01*
X140810436Y-103996564D01*
X140803812Y-103989257D01*
X140797937Y-103981335D01*
X140792867Y-103972875D01*
X140788650Y-103963960D01*
X140785327Y-103954674D01*
X140782931Y-103945107D01*
X140781484Y-103935351D01*
X140781000Y-103925500D01*
X140781000Y-103174500D01*
X140781484Y-103164649D01*
X140782931Y-103154893D01*
X140785327Y-103145326D01*
X140788650Y-103136040D01*
X140792867Y-103127125D01*
X140797937Y-103118665D01*
X140803812Y-103110743D01*
X140810436Y-103103436D01*
X140817743Y-103096812D01*
X140825665Y-103090937D01*
X140834125Y-103085867D01*
X140843040Y-103081650D01*
X140852326Y-103078327D01*
X140861893Y-103075931D01*
X140871649Y-103074484D01*
X140881500Y-103074000D01*
X141082500Y-103074000D01*
X141092351Y-103074484D01*
G37*
G36*
X140592351Y-103074484D02*
G01*
X140602107Y-103075931D01*
X140611674Y-103078327D01*
X140620960Y-103081650D01*
X140629875Y-103085867D01*
X140638335Y-103090937D01*
X140646257Y-103096812D01*
X140653564Y-103103436D01*
X140660188Y-103110743D01*
X140666063Y-103118665D01*
X140671133Y-103127125D01*
X140675350Y-103136040D01*
X140678673Y-103145326D01*
X140681069Y-103154893D01*
X140682516Y-103164649D01*
X140683000Y-103174500D01*
X140683000Y-103925500D01*
X140682516Y-103935351D01*
X140681069Y-103945107D01*
X140678673Y-103954674D01*
X140675350Y-103963960D01*
X140671133Y-103972875D01*
X140666063Y-103981335D01*
X140660188Y-103989257D01*
X140653564Y-103996564D01*
X140646257Y-104003188D01*
X140638335Y-104009063D01*
X140629875Y-104014133D01*
X140620960Y-104018350D01*
X140611674Y-104021673D01*
X140602107Y-104024069D01*
X140592351Y-104025516D01*
X140582500Y-104026000D01*
X140381500Y-104026000D01*
X140371649Y-104025516D01*
X140361893Y-104024069D01*
X140352326Y-104021673D01*
X140343040Y-104018350D01*
X140334125Y-104014133D01*
X140325665Y-104009063D01*
X140317743Y-104003188D01*
X140310436Y-103996564D01*
X140303812Y-103989257D01*
X140297937Y-103981335D01*
X140292867Y-103972875D01*
X140288650Y-103963960D01*
X140285327Y-103954674D01*
X140282931Y-103945107D01*
X140281484Y-103935351D01*
X140281000Y-103925500D01*
X140281000Y-103174500D01*
X140281484Y-103164649D01*
X140282931Y-103154893D01*
X140285327Y-103145326D01*
X140288650Y-103136040D01*
X140292867Y-103127125D01*
X140297937Y-103118665D01*
X140303812Y-103110743D01*
X140310436Y-103103436D01*
X140317743Y-103096812D01*
X140325665Y-103090937D01*
X140334125Y-103085867D01*
X140343040Y-103081650D01*
X140352326Y-103078327D01*
X140361893Y-103075931D01*
X140371649Y-103074484D01*
X140381500Y-103074000D01*
X140582500Y-103074000D01*
X140592351Y-103074484D01*
G37*
G36*
X140167351Y-102649484D02*
G01*
X140177107Y-102650931D01*
X140186674Y-102653327D01*
X140195960Y-102656650D01*
X140204875Y-102660867D01*
X140213335Y-102665937D01*
X140221257Y-102671812D01*
X140228564Y-102678436D01*
X140235188Y-102685743D01*
X140241063Y-102693665D01*
X140246133Y-102702125D01*
X140250350Y-102711040D01*
X140253673Y-102720326D01*
X140256069Y-102729893D01*
X140257516Y-102739649D01*
X140258000Y-102749500D01*
X140258000Y-102950500D01*
X140257516Y-102960351D01*
X140256069Y-102970107D01*
X140253673Y-102979674D01*
X140250350Y-102988960D01*
X140246133Y-102997875D01*
X140241063Y-103006335D01*
X140235188Y-103014257D01*
X140228564Y-103021564D01*
X140221257Y-103028188D01*
X140213335Y-103034063D01*
X140204875Y-103039133D01*
X140195960Y-103043350D01*
X140186674Y-103046673D01*
X140177107Y-103049069D01*
X140167351Y-103050516D01*
X140157500Y-103051000D01*
X139406500Y-103051000D01*
X139396649Y-103050516D01*
X139386893Y-103049069D01*
X139377326Y-103046673D01*
X139368040Y-103043350D01*
X139359125Y-103039133D01*
X139350665Y-103034063D01*
X139342743Y-103028188D01*
X139335436Y-103021564D01*
X139328812Y-103014257D01*
X139322937Y-103006335D01*
X139317867Y-102997875D01*
X139313650Y-102988960D01*
X139310327Y-102979674D01*
X139307931Y-102970107D01*
X139306484Y-102960351D01*
X139306000Y-102950500D01*
X139306000Y-102749500D01*
X139306484Y-102739649D01*
X139307931Y-102729893D01*
X139310327Y-102720326D01*
X139313650Y-102711040D01*
X139317867Y-102702125D01*
X139322937Y-102693665D01*
X139328812Y-102685743D01*
X139335436Y-102678436D01*
X139342743Y-102671812D01*
X139350665Y-102665937D01*
X139359125Y-102660867D01*
X139368040Y-102656650D01*
X139377326Y-102653327D01*
X139386893Y-102650931D01*
X139396649Y-102649484D01*
X139406500Y-102649000D01*
X140157500Y-102649000D01*
X140167351Y-102649484D01*
G37*
G36*
X140167351Y-102149484D02*
G01*
X140177107Y-102150931D01*
X140186674Y-102153327D01*
X140195960Y-102156650D01*
X140204875Y-102160867D01*
X140213335Y-102165937D01*
X140221257Y-102171812D01*
X140228564Y-102178436D01*
X140235188Y-102185743D01*
X140241063Y-102193665D01*
X140246133Y-102202125D01*
X140250350Y-102211040D01*
X140253673Y-102220326D01*
X140256069Y-102229893D01*
X140257516Y-102239649D01*
X140258000Y-102249500D01*
X140258000Y-102450500D01*
X140257516Y-102460351D01*
X140256069Y-102470107D01*
X140253673Y-102479674D01*
X140250350Y-102488960D01*
X140246133Y-102497875D01*
X140241063Y-102506335D01*
X140235188Y-102514257D01*
X140228564Y-102521564D01*
X140221257Y-102528188D01*
X140213335Y-102534063D01*
X140204875Y-102539133D01*
X140195960Y-102543350D01*
X140186674Y-102546673D01*
X140177107Y-102549069D01*
X140167351Y-102550516D01*
X140157500Y-102551000D01*
X139406500Y-102551000D01*
X139396649Y-102550516D01*
X139386893Y-102549069D01*
X139377326Y-102546673D01*
X139368040Y-102543350D01*
X139359125Y-102539133D01*
X139350665Y-102534063D01*
X139342743Y-102528188D01*
X139335436Y-102521564D01*
X139328812Y-102514257D01*
X139322937Y-102506335D01*
X139317867Y-102497875D01*
X139313650Y-102488960D01*
X139310327Y-102479674D01*
X139307931Y-102470107D01*
X139306484Y-102460351D01*
X139306000Y-102450500D01*
X139306000Y-102249500D01*
X139306484Y-102239649D01*
X139307931Y-102229893D01*
X139310327Y-102220326D01*
X139313650Y-102211040D01*
X139317867Y-102202125D01*
X139322937Y-102193665D01*
X139328812Y-102185743D01*
X139335436Y-102178436D01*
X139342743Y-102171812D01*
X139350665Y-102165937D01*
X139359125Y-102160867D01*
X139368040Y-102156650D01*
X139377326Y-102153327D01*
X139386893Y-102150931D01*
X139396649Y-102149484D01*
X139406500Y-102149000D01*
X140157500Y-102149000D01*
X140167351Y-102149484D01*
G37*
G36*
X140167351Y-101649484D02*
G01*
X140177107Y-101650931D01*
X140186674Y-101653327D01*
X140195960Y-101656650D01*
X140204875Y-101660867D01*
X140213335Y-101665937D01*
X140221257Y-101671812D01*
X140228564Y-101678436D01*
X140235188Y-101685743D01*
X140241063Y-101693665D01*
X140246133Y-101702125D01*
X140250350Y-101711040D01*
X140253673Y-101720326D01*
X140256069Y-101729893D01*
X140257516Y-101739649D01*
X140258000Y-101749500D01*
X140258000Y-101950500D01*
X140257516Y-101960351D01*
X140256069Y-101970107D01*
X140253673Y-101979674D01*
X140250350Y-101988960D01*
X140246133Y-101997875D01*
X140241063Y-102006335D01*
X140235188Y-102014257D01*
X140228564Y-102021564D01*
X140221257Y-102028188D01*
X140213335Y-102034063D01*
X140204875Y-102039133D01*
X140195960Y-102043350D01*
X140186674Y-102046673D01*
X140177107Y-102049069D01*
X140167351Y-102050516D01*
X140157500Y-102051000D01*
X139406500Y-102051000D01*
X139396649Y-102050516D01*
X139386893Y-102049069D01*
X139377326Y-102046673D01*
X139368040Y-102043350D01*
X139359125Y-102039133D01*
X139350665Y-102034063D01*
X139342743Y-102028188D01*
X139335436Y-102021564D01*
X139328812Y-102014257D01*
X139322937Y-102006335D01*
X139317867Y-101997875D01*
X139313650Y-101988960D01*
X139310327Y-101979674D01*
X139307931Y-101970107D01*
X139306484Y-101960351D01*
X139306000Y-101950500D01*
X139306000Y-101749500D01*
X139306484Y-101739649D01*
X139307931Y-101729893D01*
X139310327Y-101720326D01*
X139313650Y-101711040D01*
X139317867Y-101702125D01*
X139322937Y-101693665D01*
X139328812Y-101685743D01*
X139335436Y-101678436D01*
X139342743Y-101671812D01*
X139350665Y-101665937D01*
X139359125Y-101660867D01*
X139368040Y-101656650D01*
X139377326Y-101653327D01*
X139386893Y-101650931D01*
X139396649Y-101649484D01*
X139406500Y-101649000D01*
X140157500Y-101649000D01*
X140167351Y-101649484D01*
G37*
G36*
X140167351Y-101149484D02*
G01*
X140177107Y-101150931D01*
X140186674Y-101153327D01*
X140195960Y-101156650D01*
X140204875Y-101160867D01*
X140213335Y-101165937D01*
X140221257Y-101171812D01*
X140228564Y-101178436D01*
X140235188Y-101185743D01*
X140241063Y-101193665D01*
X140246133Y-101202125D01*
X140250350Y-101211040D01*
X140253673Y-101220326D01*
X140256069Y-101229893D01*
X140257516Y-101239649D01*
X140258000Y-101249500D01*
X140258000Y-101450500D01*
X140257516Y-101460351D01*
X140256069Y-101470107D01*
X140253673Y-101479674D01*
X140250350Y-101488960D01*
X140246133Y-101497875D01*
X140241063Y-101506335D01*
X140235188Y-101514257D01*
X140228564Y-101521564D01*
X140221257Y-101528188D01*
X140213335Y-101534063D01*
X140204875Y-101539133D01*
X140195960Y-101543350D01*
X140186674Y-101546673D01*
X140177107Y-101549069D01*
X140167351Y-101550516D01*
X140157500Y-101551000D01*
X139406500Y-101551000D01*
X139396649Y-101550516D01*
X139386893Y-101549069D01*
X139377326Y-101546673D01*
X139368040Y-101543350D01*
X139359125Y-101539133D01*
X139350665Y-101534063D01*
X139342743Y-101528188D01*
X139335436Y-101521564D01*
X139328812Y-101514257D01*
X139322937Y-101506335D01*
X139317867Y-101497875D01*
X139313650Y-101488960D01*
X139310327Y-101479674D01*
X139307931Y-101470107D01*
X139306484Y-101460351D01*
X139306000Y-101450500D01*
X139306000Y-101249500D01*
X139306484Y-101239649D01*
X139307931Y-101229893D01*
X139310327Y-101220326D01*
X139313650Y-101211040D01*
X139317867Y-101202125D01*
X139322937Y-101193665D01*
X139328812Y-101185743D01*
X139335436Y-101178436D01*
X139342743Y-101171812D01*
X139350665Y-101165937D01*
X139359125Y-101160867D01*
X139368040Y-101156650D01*
X139377326Y-101153327D01*
X139386893Y-101150931D01*
X139396649Y-101149484D01*
X139406500Y-101149000D01*
X140157500Y-101149000D01*
X140167351Y-101149484D01*
G37*
G36*
X140167351Y-100649484D02*
G01*
X140177107Y-100650931D01*
X140186674Y-100653327D01*
X140195960Y-100656650D01*
X140204875Y-100660867D01*
X140213335Y-100665937D01*
X140221257Y-100671812D01*
X140228564Y-100678436D01*
X140235188Y-100685743D01*
X140241063Y-100693665D01*
X140246133Y-100702125D01*
X140250350Y-100711040D01*
X140253673Y-100720326D01*
X140256069Y-100729893D01*
X140257516Y-100739649D01*
X140258000Y-100749500D01*
X140258000Y-100950500D01*
X140257516Y-100960351D01*
X140256069Y-100970107D01*
X140253673Y-100979674D01*
X140250350Y-100988960D01*
X140246133Y-100997875D01*
X140241063Y-101006335D01*
X140235188Y-101014257D01*
X140228564Y-101021564D01*
X140221257Y-101028188D01*
X140213335Y-101034063D01*
X140204875Y-101039133D01*
X140195960Y-101043350D01*
X140186674Y-101046673D01*
X140177107Y-101049069D01*
X140167351Y-101050516D01*
X140157500Y-101051000D01*
X139406500Y-101051000D01*
X139396649Y-101050516D01*
X139386893Y-101049069D01*
X139377326Y-101046673D01*
X139368040Y-101043350D01*
X139359125Y-101039133D01*
X139350665Y-101034063D01*
X139342743Y-101028188D01*
X139335436Y-101021564D01*
X139328812Y-101014257D01*
X139322937Y-101006335D01*
X139317867Y-100997875D01*
X139313650Y-100988960D01*
X139310327Y-100979674D01*
X139307931Y-100970107D01*
X139306484Y-100960351D01*
X139306000Y-100950500D01*
X139306000Y-100749500D01*
X139306484Y-100739649D01*
X139307931Y-100729893D01*
X139310327Y-100720326D01*
X139313650Y-100711040D01*
X139317867Y-100702125D01*
X139322937Y-100693665D01*
X139328812Y-100685743D01*
X139335436Y-100678436D01*
X139342743Y-100671812D01*
X139350665Y-100665937D01*
X139359125Y-100660867D01*
X139368040Y-100656650D01*
X139377326Y-100653327D01*
X139386893Y-100650931D01*
X139396649Y-100649484D01*
X139406500Y-100649000D01*
X140157500Y-100649000D01*
X140167351Y-100649484D01*
G37*
G36*
X140167351Y-100149484D02*
G01*
X140177107Y-100150931D01*
X140186674Y-100153327D01*
X140195960Y-100156650D01*
X140204875Y-100160867D01*
X140213335Y-100165937D01*
X140221257Y-100171812D01*
X140228564Y-100178436D01*
X140235188Y-100185743D01*
X140241063Y-100193665D01*
X140246133Y-100202125D01*
X140250350Y-100211040D01*
X140253673Y-100220326D01*
X140256069Y-100229893D01*
X140257516Y-100239649D01*
X140258000Y-100249500D01*
X140258000Y-100450500D01*
X140257516Y-100460351D01*
X140256069Y-100470107D01*
X140253673Y-100479674D01*
X140250350Y-100488960D01*
X140246133Y-100497875D01*
X140241063Y-100506335D01*
X140235188Y-100514257D01*
X140228564Y-100521564D01*
X140221257Y-100528188D01*
X140213335Y-100534063D01*
X140204875Y-100539133D01*
X140195960Y-100543350D01*
X140186674Y-100546673D01*
X140177107Y-100549069D01*
X140167351Y-100550516D01*
X140157500Y-100551000D01*
X139406500Y-100551000D01*
X139396649Y-100550516D01*
X139386893Y-100549069D01*
X139377326Y-100546673D01*
X139368040Y-100543350D01*
X139359125Y-100539133D01*
X139350665Y-100534063D01*
X139342743Y-100528188D01*
X139335436Y-100521564D01*
X139328812Y-100514257D01*
X139322937Y-100506335D01*
X139317867Y-100497875D01*
X139313650Y-100488960D01*
X139310327Y-100479674D01*
X139307931Y-100470107D01*
X139306484Y-100460351D01*
X139306000Y-100450500D01*
X139306000Y-100249500D01*
X139306484Y-100239649D01*
X139307931Y-100229893D01*
X139310327Y-100220326D01*
X139313650Y-100211040D01*
X139317867Y-100202125D01*
X139322937Y-100193665D01*
X139328812Y-100185743D01*
X139335436Y-100178436D01*
X139342743Y-100171812D01*
X139350665Y-100165937D01*
X139359125Y-100160867D01*
X139368040Y-100156650D01*
X139377326Y-100153327D01*
X139386893Y-100150931D01*
X139396649Y-100149484D01*
X139406500Y-100149000D01*
X140157500Y-100149000D01*
X140167351Y-100149484D01*
G37*
G36*
X141692957Y-128663833D02*
G01*
X141709751Y-128666324D01*
X141726219Y-128670449D01*
X141742204Y-128676169D01*
X141757552Y-128683428D01*
X141772114Y-128692156D01*
X141785750Y-128702269D01*
X141798329Y-128713671D01*
X141809731Y-128726250D01*
X141819844Y-128739886D01*
X141828572Y-128754448D01*
X141835831Y-128769796D01*
X141841551Y-128785781D01*
X141845676Y-128802249D01*
X141848167Y-128819043D01*
X141849000Y-128836000D01*
X141849000Y-129182000D01*
X141848167Y-129198957D01*
X141845676Y-129215751D01*
X141841551Y-129232219D01*
X141835831Y-129248204D01*
X141828572Y-129263552D01*
X141819844Y-129278114D01*
X141809731Y-129291750D01*
X141798329Y-129304329D01*
X141785750Y-129315731D01*
X141772114Y-129325844D01*
X141757552Y-129334572D01*
X141742204Y-129341831D01*
X141726219Y-129347551D01*
X141709751Y-129351676D01*
X141692957Y-129354167D01*
X141676000Y-129355000D01*
X141280000Y-129355000D01*
X141263043Y-129354167D01*
X141246249Y-129351676D01*
X141229781Y-129347551D01*
X141213796Y-129341831D01*
X141198448Y-129334572D01*
X141183886Y-129325844D01*
X141170250Y-129315731D01*
X141157671Y-129304329D01*
X141146269Y-129291750D01*
X141136156Y-129278114D01*
X141127428Y-129263552D01*
X141120169Y-129248204D01*
X141114449Y-129232219D01*
X141110324Y-129215751D01*
X141107833Y-129198957D01*
X141107000Y-129182000D01*
X141107000Y-128836000D01*
X141107833Y-128819043D01*
X141110324Y-128802249D01*
X141114449Y-128785781D01*
X141120169Y-128769796D01*
X141127428Y-128754448D01*
X141136156Y-128739886D01*
X141146269Y-128726250D01*
X141157671Y-128713671D01*
X141170250Y-128702269D01*
X141183886Y-128692156D01*
X141198448Y-128683428D01*
X141213796Y-128676169D01*
X141229781Y-128670449D01*
X141246249Y-128666324D01*
X141263043Y-128663833D01*
X141280000Y-128663000D01*
X141676000Y-128663000D01*
X141692957Y-128663833D01*
G37*
G36*
X141692957Y-127693833D02*
G01*
X141709751Y-127696324D01*
X141726219Y-127700449D01*
X141742204Y-127706169D01*
X141757552Y-127713428D01*
X141772114Y-127722156D01*
X141785750Y-127732269D01*
X141798329Y-127743671D01*
X141809731Y-127756250D01*
X141819844Y-127769886D01*
X141828572Y-127784448D01*
X141835831Y-127799796D01*
X141841551Y-127815781D01*
X141845676Y-127832249D01*
X141848167Y-127849043D01*
X141849000Y-127866000D01*
X141849000Y-128212000D01*
X141848167Y-128228957D01*
X141845676Y-128245751D01*
X141841551Y-128262219D01*
X141835831Y-128278204D01*
X141828572Y-128293552D01*
X141819844Y-128308114D01*
X141809731Y-128321750D01*
X141798329Y-128334329D01*
X141785750Y-128345731D01*
X141772114Y-128355844D01*
X141757552Y-128364572D01*
X141742204Y-128371831D01*
X141726219Y-128377551D01*
X141709751Y-128381676D01*
X141692957Y-128384167D01*
X141676000Y-128385000D01*
X141280000Y-128385000D01*
X141263043Y-128384167D01*
X141246249Y-128381676D01*
X141229781Y-128377551D01*
X141213796Y-128371831D01*
X141198448Y-128364572D01*
X141183886Y-128355844D01*
X141170250Y-128345731D01*
X141157671Y-128334329D01*
X141146269Y-128321750D01*
X141136156Y-128308114D01*
X141127428Y-128293552D01*
X141120169Y-128278204D01*
X141114449Y-128262219D01*
X141110324Y-128245751D01*
X141107833Y-128228957D01*
X141107000Y-128212000D01*
X141107000Y-127866000D01*
X141107833Y-127849043D01*
X141110324Y-127832249D01*
X141114449Y-127815781D01*
X141120169Y-127799796D01*
X141127428Y-127784448D01*
X141136156Y-127769886D01*
X141146269Y-127756250D01*
X141157671Y-127743671D01*
X141170250Y-127732269D01*
X141183886Y-127722156D01*
X141198448Y-127713428D01*
X141213796Y-127706169D01*
X141229781Y-127700449D01*
X141246249Y-127696324D01*
X141263043Y-127693833D01*
X141280000Y-127693000D01*
X141676000Y-127693000D01*
X141692957Y-127693833D01*
G37*
G36*
X138390957Y-80657833D02*
G01*
X138407751Y-80660324D01*
X138424219Y-80664449D01*
X138440204Y-80670169D01*
X138455552Y-80677428D01*
X138470114Y-80686156D01*
X138483750Y-80696269D01*
X138496329Y-80707671D01*
X138507731Y-80720250D01*
X138517844Y-80733886D01*
X138526572Y-80748448D01*
X138533831Y-80763796D01*
X138539551Y-80779781D01*
X138543676Y-80796249D01*
X138546167Y-80813043D01*
X138547000Y-80830000D01*
X138547000Y-81176000D01*
X138546167Y-81192957D01*
X138543676Y-81209751D01*
X138539551Y-81226219D01*
X138533831Y-81242204D01*
X138526572Y-81257552D01*
X138517844Y-81272114D01*
X138507731Y-81285750D01*
X138496329Y-81298329D01*
X138483750Y-81309731D01*
X138470114Y-81319844D01*
X138455552Y-81328572D01*
X138440204Y-81335831D01*
X138424219Y-81341551D01*
X138407751Y-81345676D01*
X138390957Y-81348167D01*
X138374000Y-81349000D01*
X137978000Y-81349000D01*
X137961043Y-81348167D01*
X137944249Y-81345676D01*
X137927781Y-81341551D01*
X137911796Y-81335831D01*
X137896448Y-81328572D01*
X137881886Y-81319844D01*
X137868250Y-81309731D01*
X137855671Y-81298329D01*
X137844269Y-81285750D01*
X137834156Y-81272114D01*
X137825428Y-81257552D01*
X137818169Y-81242204D01*
X137812449Y-81226219D01*
X137808324Y-81209751D01*
X137805833Y-81192957D01*
X137805000Y-81176000D01*
X137805000Y-80830000D01*
X137805833Y-80813043D01*
X137808324Y-80796249D01*
X137812449Y-80779781D01*
X137818169Y-80763796D01*
X137825428Y-80748448D01*
X137834156Y-80733886D01*
X137844269Y-80720250D01*
X137855671Y-80707671D01*
X137868250Y-80696269D01*
X137881886Y-80686156D01*
X137896448Y-80677428D01*
X137911796Y-80670169D01*
X137927781Y-80664449D01*
X137944249Y-80660324D01*
X137961043Y-80657833D01*
X137978000Y-80657000D01*
X138374000Y-80657000D01*
X138390957Y-80657833D01*
G37*
G36*
X138390957Y-79687833D02*
G01*
X138407751Y-79690324D01*
X138424219Y-79694449D01*
X138440204Y-79700169D01*
X138455552Y-79707428D01*
X138470114Y-79716156D01*
X138483750Y-79726269D01*
X138496329Y-79737671D01*
X138507731Y-79750250D01*
X138517844Y-79763886D01*
X138526572Y-79778448D01*
X138533831Y-79793796D01*
X138539551Y-79809781D01*
X138543676Y-79826249D01*
X138546167Y-79843043D01*
X138547000Y-79860000D01*
X138547000Y-80206000D01*
X138546167Y-80222957D01*
X138543676Y-80239751D01*
X138539551Y-80256219D01*
X138533831Y-80272204D01*
X138526572Y-80287552D01*
X138517844Y-80302114D01*
X138507731Y-80315750D01*
X138496329Y-80328329D01*
X138483750Y-80339731D01*
X138470114Y-80349844D01*
X138455552Y-80358572D01*
X138440204Y-80365831D01*
X138424219Y-80371551D01*
X138407751Y-80375676D01*
X138390957Y-80378167D01*
X138374000Y-80379000D01*
X137978000Y-80379000D01*
X137961043Y-80378167D01*
X137944249Y-80375676D01*
X137927781Y-80371551D01*
X137911796Y-80365831D01*
X137896448Y-80358572D01*
X137881886Y-80349844D01*
X137868250Y-80339731D01*
X137855671Y-80328329D01*
X137844269Y-80315750D01*
X137834156Y-80302114D01*
X137825428Y-80287552D01*
X137818169Y-80272204D01*
X137812449Y-80256219D01*
X137808324Y-80239751D01*
X137805833Y-80222957D01*
X137805000Y-80206000D01*
X137805000Y-79860000D01*
X137805833Y-79843043D01*
X137808324Y-79826249D01*
X137812449Y-79809781D01*
X137818169Y-79793796D01*
X137825428Y-79778448D01*
X137834156Y-79763886D01*
X137844269Y-79750250D01*
X137855671Y-79737671D01*
X137868250Y-79726269D01*
X137881886Y-79716156D01*
X137896448Y-79707428D01*
X137911796Y-79700169D01*
X137927781Y-79694449D01*
X137944249Y-79690324D01*
X137961043Y-79687833D01*
X137978000Y-79687000D01*
X138374000Y-79687000D01*
X138390957Y-79687833D01*
G37*
D26*
X160020000Y-119492000D03*
X160020000Y-120792000D03*
D27*
X160132000Y-104648000D03*
X161432000Y-104648000D03*
D26*
X137414000Y-86248000D03*
X137414000Y-84948000D03*
D28*
X149352000Y-114046000D03*
D29*
X148602000Y-112996000D03*
X149102000Y-112996000D03*
X149602000Y-112996000D03*
X150102000Y-112996000D03*
X150102000Y-115096000D03*
X149602000Y-115096000D03*
X149102000Y-115096000D03*
X148602000Y-115096000D03*
D28*
X149352000Y-108204000D03*
D29*
X150102000Y-109254000D03*
X149602000Y-109254000D03*
X149102000Y-109254000D03*
X148602000Y-109254000D03*
X148602000Y-107154000D03*
X149102000Y-107154000D03*
X149602000Y-107154000D03*
X150102000Y-107154000D03*
D28*
X145034000Y-114046000D03*
D29*
X144284000Y-112996000D03*
X144784000Y-112996000D03*
X145284000Y-112996000D03*
X145784000Y-112996000D03*
X145784000Y-115096000D03*
X145284000Y-115096000D03*
X144784000Y-115096000D03*
X144284000Y-115096000D03*
D28*
X145034000Y-108204000D03*
D29*
X145784000Y-109254000D03*
X145284000Y-109254000D03*
X144784000Y-109254000D03*
X144284000Y-109254000D03*
X144284000Y-107154000D03*
X144784000Y-107154000D03*
X145284000Y-107154000D03*
X145784000Y-107154000D03*
D30*
X143687000Y-131862800D03*
X143687000Y-130462800D03*
X143687000Y-129062800D03*
X143687000Y-127662800D03*
X143687000Y-126262800D03*
X143687000Y-124862800D03*
X143687000Y-123464000D03*
X143687000Y-122064000D03*
D31*
X145087000Y-119767800D03*
X146487000Y-119767800D03*
X147887000Y-119767800D03*
X149287000Y-119767800D03*
X150687000Y-119767800D03*
X152087000Y-119767800D03*
X153487000Y-119767800D03*
X154887000Y-119767800D03*
D30*
X156287000Y-122062800D03*
X156287000Y-123462800D03*
X156287000Y-124862800D03*
X156287000Y-126262800D03*
X156287000Y-127662800D03*
X156287000Y-129062800D03*
X156287000Y-130462800D03*
X156287000Y-131862800D03*
D18*
G36*
X158708957Y-117485833D02*
G01*
X158725751Y-117488324D01*
X158742219Y-117492449D01*
X158758204Y-117498169D01*
X158773552Y-117505428D01*
X158788114Y-117514156D01*
X158801750Y-117524269D01*
X158814329Y-117535671D01*
X158825731Y-117548250D01*
X158835844Y-117561886D01*
X158844572Y-117576448D01*
X158851831Y-117591796D01*
X158857551Y-117607781D01*
X158861676Y-117624249D01*
X158864167Y-117641043D01*
X158865000Y-117658000D01*
X158865000Y-118054000D01*
X158864167Y-118070957D01*
X158861676Y-118087751D01*
X158857551Y-118104219D01*
X158851831Y-118120204D01*
X158844572Y-118135552D01*
X158835844Y-118150114D01*
X158825731Y-118163750D01*
X158814329Y-118176329D01*
X158801750Y-118187731D01*
X158788114Y-118197844D01*
X158773552Y-118206572D01*
X158758204Y-118213831D01*
X158742219Y-118219551D01*
X158725751Y-118223676D01*
X158708957Y-118226167D01*
X158692000Y-118227000D01*
X158346000Y-118227000D01*
X158329043Y-118226167D01*
X158312249Y-118223676D01*
X158295781Y-118219551D01*
X158279796Y-118213831D01*
X158264448Y-118206572D01*
X158249886Y-118197844D01*
X158236250Y-118187731D01*
X158223671Y-118176329D01*
X158212269Y-118163750D01*
X158202156Y-118150114D01*
X158193428Y-118135552D01*
X158186169Y-118120204D01*
X158180449Y-118104219D01*
X158176324Y-118087751D01*
X158173833Y-118070957D01*
X158173000Y-118054000D01*
X158173000Y-117658000D01*
X158173833Y-117641043D01*
X158176324Y-117624249D01*
X158180449Y-117607781D01*
X158186169Y-117591796D01*
X158193428Y-117576448D01*
X158202156Y-117561886D01*
X158212269Y-117548250D01*
X158223671Y-117535671D01*
X158236250Y-117524269D01*
X158249886Y-117514156D01*
X158264448Y-117505428D01*
X158279796Y-117498169D01*
X158295781Y-117492449D01*
X158312249Y-117488324D01*
X158329043Y-117485833D01*
X158346000Y-117485000D01*
X158692000Y-117485000D01*
X158708957Y-117485833D01*
G37*
G36*
X159678957Y-117485833D02*
G01*
X159695751Y-117488324D01*
X159712219Y-117492449D01*
X159728204Y-117498169D01*
X159743552Y-117505428D01*
X159758114Y-117514156D01*
X159771750Y-117524269D01*
X159784329Y-117535671D01*
X159795731Y-117548250D01*
X159805844Y-117561886D01*
X159814572Y-117576448D01*
X159821831Y-117591796D01*
X159827551Y-117607781D01*
X159831676Y-117624249D01*
X159834167Y-117641043D01*
X159835000Y-117658000D01*
X159835000Y-118054000D01*
X159834167Y-118070957D01*
X159831676Y-118087751D01*
X159827551Y-118104219D01*
X159821831Y-118120204D01*
X159814572Y-118135552D01*
X159805844Y-118150114D01*
X159795731Y-118163750D01*
X159784329Y-118176329D01*
X159771750Y-118187731D01*
X159758114Y-118197844D01*
X159743552Y-118206572D01*
X159728204Y-118213831D01*
X159712219Y-118219551D01*
X159695751Y-118223676D01*
X159678957Y-118226167D01*
X159662000Y-118227000D01*
X159316000Y-118227000D01*
X159299043Y-118226167D01*
X159282249Y-118223676D01*
X159265781Y-118219551D01*
X159249796Y-118213831D01*
X159234448Y-118206572D01*
X159219886Y-118197844D01*
X159206250Y-118187731D01*
X159193671Y-118176329D01*
X159182269Y-118163750D01*
X159172156Y-118150114D01*
X159163428Y-118135552D01*
X159156169Y-118120204D01*
X159150449Y-118104219D01*
X159146324Y-118087751D01*
X159143833Y-118070957D01*
X159143000Y-118054000D01*
X159143000Y-117658000D01*
X159143833Y-117641043D01*
X159146324Y-117624249D01*
X159150449Y-117607781D01*
X159156169Y-117591796D01*
X159163428Y-117576448D01*
X159172156Y-117561886D01*
X159182269Y-117548250D01*
X159193671Y-117535671D01*
X159206250Y-117524269D01*
X159219886Y-117514156D01*
X159234448Y-117505428D01*
X159249796Y-117498169D01*
X159265781Y-117492449D01*
X159282249Y-117488324D01*
X159299043Y-117485833D01*
X159316000Y-117485000D01*
X159662000Y-117485000D01*
X159678957Y-117485833D01*
G37*
G36*
X156010104Y-105755302D02*
G01*
X156036352Y-105759196D01*
X156062093Y-105765643D01*
X156087078Y-105774583D01*
X156111066Y-105785928D01*
X156133826Y-105799571D01*
X156155140Y-105815378D01*
X156174802Y-105833198D01*
X156192622Y-105852860D01*
X156208429Y-105874174D01*
X156222072Y-105896934D01*
X156233417Y-105920922D01*
X156242357Y-105945907D01*
X156248804Y-105971648D01*
X156252698Y-105997896D01*
X156254000Y-106024400D01*
X156254000Y-107335600D01*
X156252698Y-107362104D01*
X156248804Y-107388352D01*
X156242357Y-107414093D01*
X156233417Y-107439078D01*
X156222072Y-107463066D01*
X156208429Y-107485826D01*
X156192622Y-107507140D01*
X156174802Y-107526802D01*
X156155140Y-107544622D01*
X156133826Y-107560429D01*
X156111066Y-107574072D01*
X156087078Y-107585417D01*
X156062093Y-107594357D01*
X156036352Y-107600804D01*
X156010104Y-107604698D01*
X155983600Y-107606000D01*
X155172400Y-107606000D01*
X155145896Y-107604698D01*
X155119648Y-107600804D01*
X155093907Y-107594357D01*
X155068922Y-107585417D01*
X155044934Y-107574072D01*
X155022174Y-107560429D01*
X155000860Y-107544622D01*
X154981198Y-107526802D01*
X154963378Y-107507140D01*
X154947571Y-107485826D01*
X154933928Y-107463066D01*
X154922583Y-107439078D01*
X154913643Y-107414093D01*
X154907196Y-107388352D01*
X154903302Y-107362104D01*
X154902000Y-107335600D01*
X154902000Y-106024400D01*
X154903302Y-105997896D01*
X154907196Y-105971648D01*
X154913643Y-105945907D01*
X154922583Y-105920922D01*
X154933928Y-105896934D01*
X154947571Y-105874174D01*
X154963378Y-105852860D01*
X154981198Y-105833198D01*
X155000860Y-105815378D01*
X155022174Y-105799571D01*
X155044934Y-105785928D01*
X155068922Y-105774583D01*
X155093907Y-105765643D01*
X155119648Y-105759196D01*
X155145896Y-105755302D01*
X155172400Y-105754000D01*
X155983600Y-105754000D01*
X156010104Y-105755302D01*
G37*
G36*
X153210104Y-105755302D02*
G01*
X153236352Y-105759196D01*
X153262093Y-105765643D01*
X153287078Y-105774583D01*
X153311066Y-105785928D01*
X153333826Y-105799571D01*
X153355140Y-105815378D01*
X153374802Y-105833198D01*
X153392622Y-105852860D01*
X153408429Y-105874174D01*
X153422072Y-105896934D01*
X153433417Y-105920922D01*
X153442357Y-105945907D01*
X153448804Y-105971648D01*
X153452698Y-105997896D01*
X153454000Y-106024400D01*
X153454000Y-107335600D01*
X153452698Y-107362104D01*
X153448804Y-107388352D01*
X153442357Y-107414093D01*
X153433417Y-107439078D01*
X153422072Y-107463066D01*
X153408429Y-107485826D01*
X153392622Y-107507140D01*
X153374802Y-107526802D01*
X153355140Y-107544622D01*
X153333826Y-107560429D01*
X153311066Y-107574072D01*
X153287078Y-107585417D01*
X153262093Y-107594357D01*
X153236352Y-107600804D01*
X153210104Y-107604698D01*
X153183600Y-107606000D01*
X152372400Y-107606000D01*
X152345896Y-107604698D01*
X152319648Y-107600804D01*
X152293907Y-107594357D01*
X152268922Y-107585417D01*
X152244934Y-107574072D01*
X152222174Y-107560429D01*
X152200860Y-107544622D01*
X152181198Y-107526802D01*
X152163378Y-107507140D01*
X152147571Y-107485826D01*
X152133928Y-107463066D01*
X152122583Y-107439078D01*
X152113643Y-107414093D01*
X152107196Y-107388352D01*
X152103302Y-107362104D01*
X152102000Y-107335600D01*
X152102000Y-106024400D01*
X152103302Y-105997896D01*
X152107196Y-105971648D01*
X152113643Y-105945907D01*
X152122583Y-105920922D01*
X152133928Y-105896934D01*
X152147571Y-105874174D01*
X152163378Y-105852860D01*
X152181198Y-105833198D01*
X152200860Y-105815378D01*
X152222174Y-105799571D01*
X152244934Y-105785928D01*
X152268922Y-105774583D01*
X152293907Y-105765643D01*
X152319648Y-105759196D01*
X152345896Y-105755302D01*
X152372400Y-105754000D01*
X153183600Y-105754000D01*
X153210104Y-105755302D01*
G37*
G36*
X138390957Y-101993833D02*
G01*
X138407751Y-101996324D01*
X138424219Y-102000449D01*
X138440204Y-102006169D01*
X138455552Y-102013428D01*
X138470114Y-102022156D01*
X138483750Y-102032269D01*
X138496329Y-102043671D01*
X138507731Y-102056250D01*
X138517844Y-102069886D01*
X138526572Y-102084448D01*
X138533831Y-102099796D01*
X138539551Y-102115781D01*
X138543676Y-102132249D01*
X138546167Y-102149043D01*
X138547000Y-102166000D01*
X138547000Y-102512000D01*
X138546167Y-102528957D01*
X138543676Y-102545751D01*
X138539551Y-102562219D01*
X138533831Y-102578204D01*
X138526572Y-102593552D01*
X138517844Y-102608114D01*
X138507731Y-102621750D01*
X138496329Y-102634329D01*
X138483750Y-102645731D01*
X138470114Y-102655844D01*
X138455552Y-102664572D01*
X138440204Y-102671831D01*
X138424219Y-102677551D01*
X138407751Y-102681676D01*
X138390957Y-102684167D01*
X138374000Y-102685000D01*
X137978000Y-102685000D01*
X137961043Y-102684167D01*
X137944249Y-102681676D01*
X137927781Y-102677551D01*
X137911796Y-102671831D01*
X137896448Y-102664572D01*
X137881886Y-102655844D01*
X137868250Y-102645731D01*
X137855671Y-102634329D01*
X137844269Y-102621750D01*
X137834156Y-102608114D01*
X137825428Y-102593552D01*
X137818169Y-102578204D01*
X137812449Y-102562219D01*
X137808324Y-102545751D01*
X137805833Y-102528957D01*
X137805000Y-102512000D01*
X137805000Y-102166000D01*
X137805833Y-102149043D01*
X137808324Y-102132249D01*
X137812449Y-102115781D01*
X137818169Y-102099796D01*
X137825428Y-102084448D01*
X137834156Y-102069886D01*
X137844269Y-102056250D01*
X137855671Y-102043671D01*
X137868250Y-102032269D01*
X137881886Y-102022156D01*
X137896448Y-102013428D01*
X137911796Y-102006169D01*
X137927781Y-102000449D01*
X137944249Y-101996324D01*
X137961043Y-101993833D01*
X137978000Y-101993000D01*
X138374000Y-101993000D01*
X138390957Y-101993833D01*
G37*
G36*
X138390957Y-101023833D02*
G01*
X138407751Y-101026324D01*
X138424219Y-101030449D01*
X138440204Y-101036169D01*
X138455552Y-101043428D01*
X138470114Y-101052156D01*
X138483750Y-101062269D01*
X138496329Y-101073671D01*
X138507731Y-101086250D01*
X138517844Y-101099886D01*
X138526572Y-101114448D01*
X138533831Y-101129796D01*
X138539551Y-101145781D01*
X138543676Y-101162249D01*
X138546167Y-101179043D01*
X138547000Y-101196000D01*
X138547000Y-101542000D01*
X138546167Y-101558957D01*
X138543676Y-101575751D01*
X138539551Y-101592219D01*
X138533831Y-101608204D01*
X138526572Y-101623552D01*
X138517844Y-101638114D01*
X138507731Y-101651750D01*
X138496329Y-101664329D01*
X138483750Y-101675731D01*
X138470114Y-101685844D01*
X138455552Y-101694572D01*
X138440204Y-101701831D01*
X138424219Y-101707551D01*
X138407751Y-101711676D01*
X138390957Y-101714167D01*
X138374000Y-101715000D01*
X137978000Y-101715000D01*
X137961043Y-101714167D01*
X137944249Y-101711676D01*
X137927781Y-101707551D01*
X137911796Y-101701831D01*
X137896448Y-101694572D01*
X137881886Y-101685844D01*
X137868250Y-101675731D01*
X137855671Y-101664329D01*
X137844269Y-101651750D01*
X137834156Y-101638114D01*
X137825428Y-101623552D01*
X137818169Y-101608204D01*
X137812449Y-101592219D01*
X137808324Y-101575751D01*
X137805833Y-101558957D01*
X137805000Y-101542000D01*
X137805000Y-101196000D01*
X137805833Y-101179043D01*
X137808324Y-101162249D01*
X137812449Y-101145781D01*
X137818169Y-101129796D01*
X137825428Y-101114448D01*
X137834156Y-101099886D01*
X137844269Y-101086250D01*
X137855671Y-101073671D01*
X137868250Y-101062269D01*
X137881886Y-101052156D01*
X137896448Y-101043428D01*
X137911796Y-101036169D01*
X137927781Y-101030449D01*
X137944249Y-101026324D01*
X137961043Y-101023833D01*
X137978000Y-101023000D01*
X138374000Y-101023000D01*
X138390957Y-101023833D01*
G37*
G36*
X143168957Y-104785833D02*
G01*
X143185751Y-104788324D01*
X143202219Y-104792449D01*
X143218204Y-104798169D01*
X143233552Y-104805428D01*
X143248114Y-104814156D01*
X143261750Y-104824269D01*
X143274329Y-104835671D01*
X143285731Y-104848250D01*
X143295844Y-104861886D01*
X143304572Y-104876448D01*
X143311831Y-104891796D01*
X143317551Y-104907781D01*
X143321676Y-104924249D01*
X143324167Y-104941043D01*
X143325000Y-104958000D01*
X143325000Y-105354000D01*
X143324167Y-105370957D01*
X143321676Y-105387751D01*
X143317551Y-105404219D01*
X143311831Y-105420204D01*
X143304572Y-105435552D01*
X143295844Y-105450114D01*
X143285731Y-105463750D01*
X143274329Y-105476329D01*
X143261750Y-105487731D01*
X143248114Y-105497844D01*
X143233552Y-105506572D01*
X143218204Y-105513831D01*
X143202219Y-105519551D01*
X143185751Y-105523676D01*
X143168957Y-105526167D01*
X143152000Y-105527000D01*
X142806000Y-105527000D01*
X142789043Y-105526167D01*
X142772249Y-105523676D01*
X142755781Y-105519551D01*
X142739796Y-105513831D01*
X142724448Y-105506572D01*
X142709886Y-105497844D01*
X142696250Y-105487731D01*
X142683671Y-105476329D01*
X142672269Y-105463750D01*
X142662156Y-105450114D01*
X142653428Y-105435552D01*
X142646169Y-105420204D01*
X142640449Y-105404219D01*
X142636324Y-105387751D01*
X142633833Y-105370957D01*
X142633000Y-105354000D01*
X142633000Y-104958000D01*
X142633833Y-104941043D01*
X142636324Y-104924249D01*
X142640449Y-104907781D01*
X142646169Y-104891796D01*
X142653428Y-104876448D01*
X142662156Y-104861886D01*
X142672269Y-104848250D01*
X142683671Y-104835671D01*
X142696250Y-104824269D01*
X142709886Y-104814156D01*
X142724448Y-104805428D01*
X142739796Y-104798169D01*
X142755781Y-104792449D01*
X142772249Y-104788324D01*
X142789043Y-104785833D01*
X142806000Y-104785000D01*
X143152000Y-104785000D01*
X143168957Y-104785833D01*
G37*
G36*
X142198957Y-104785833D02*
G01*
X142215751Y-104788324D01*
X142232219Y-104792449D01*
X142248204Y-104798169D01*
X142263552Y-104805428D01*
X142278114Y-104814156D01*
X142291750Y-104824269D01*
X142304329Y-104835671D01*
X142315731Y-104848250D01*
X142325844Y-104861886D01*
X142334572Y-104876448D01*
X142341831Y-104891796D01*
X142347551Y-104907781D01*
X142351676Y-104924249D01*
X142354167Y-104941043D01*
X142355000Y-104958000D01*
X142355000Y-105354000D01*
X142354167Y-105370957D01*
X142351676Y-105387751D01*
X142347551Y-105404219D01*
X142341831Y-105420204D01*
X142334572Y-105435552D01*
X142325844Y-105450114D01*
X142315731Y-105463750D01*
X142304329Y-105476329D01*
X142291750Y-105487731D01*
X142278114Y-105497844D01*
X142263552Y-105506572D01*
X142248204Y-105513831D01*
X142232219Y-105519551D01*
X142215751Y-105523676D01*
X142198957Y-105526167D01*
X142182000Y-105527000D01*
X141836000Y-105527000D01*
X141819043Y-105526167D01*
X141802249Y-105523676D01*
X141785781Y-105519551D01*
X141769796Y-105513831D01*
X141754448Y-105506572D01*
X141739886Y-105497844D01*
X141726250Y-105487731D01*
X141713671Y-105476329D01*
X141702269Y-105463750D01*
X141692156Y-105450114D01*
X141683428Y-105435552D01*
X141676169Y-105420204D01*
X141670449Y-105404219D01*
X141666324Y-105387751D01*
X141663833Y-105370957D01*
X141663000Y-105354000D01*
X141663000Y-104958000D01*
X141663833Y-104941043D01*
X141666324Y-104924249D01*
X141670449Y-104907781D01*
X141676169Y-104891796D01*
X141683428Y-104876448D01*
X141692156Y-104861886D01*
X141702269Y-104848250D01*
X141713671Y-104835671D01*
X141726250Y-104824269D01*
X141739886Y-104814156D01*
X141754448Y-104805428D01*
X141769796Y-104798169D01*
X141785781Y-104792449D01*
X141802249Y-104788324D01*
X141819043Y-104785833D01*
X141836000Y-104785000D01*
X142182000Y-104785000D01*
X142198957Y-104785833D01*
G37*
G36*
X145502957Y-101993833D02*
G01*
X145519751Y-101996324D01*
X145536219Y-102000449D01*
X145552204Y-102006169D01*
X145567552Y-102013428D01*
X145582114Y-102022156D01*
X145595750Y-102032269D01*
X145608329Y-102043671D01*
X145619731Y-102056250D01*
X145629844Y-102069886D01*
X145638572Y-102084448D01*
X145645831Y-102099796D01*
X145651551Y-102115781D01*
X145655676Y-102132249D01*
X145658167Y-102149043D01*
X145659000Y-102166000D01*
X145659000Y-102512000D01*
X145658167Y-102528957D01*
X145655676Y-102545751D01*
X145651551Y-102562219D01*
X145645831Y-102578204D01*
X145638572Y-102593552D01*
X145629844Y-102608114D01*
X145619731Y-102621750D01*
X145608329Y-102634329D01*
X145595750Y-102645731D01*
X145582114Y-102655844D01*
X145567552Y-102664572D01*
X145552204Y-102671831D01*
X145536219Y-102677551D01*
X145519751Y-102681676D01*
X145502957Y-102684167D01*
X145486000Y-102685000D01*
X145090000Y-102685000D01*
X145073043Y-102684167D01*
X145056249Y-102681676D01*
X145039781Y-102677551D01*
X145023796Y-102671831D01*
X145008448Y-102664572D01*
X144993886Y-102655844D01*
X144980250Y-102645731D01*
X144967671Y-102634329D01*
X144956269Y-102621750D01*
X144946156Y-102608114D01*
X144937428Y-102593552D01*
X144930169Y-102578204D01*
X144924449Y-102562219D01*
X144920324Y-102545751D01*
X144917833Y-102528957D01*
X144917000Y-102512000D01*
X144917000Y-102166000D01*
X144917833Y-102149043D01*
X144920324Y-102132249D01*
X144924449Y-102115781D01*
X144930169Y-102099796D01*
X144937428Y-102084448D01*
X144946156Y-102069886D01*
X144956269Y-102056250D01*
X144967671Y-102043671D01*
X144980250Y-102032269D01*
X144993886Y-102022156D01*
X145008448Y-102013428D01*
X145023796Y-102006169D01*
X145039781Y-102000449D01*
X145056249Y-101996324D01*
X145073043Y-101993833D01*
X145090000Y-101993000D01*
X145486000Y-101993000D01*
X145502957Y-101993833D01*
G37*
G36*
X145502957Y-101023833D02*
G01*
X145519751Y-101026324D01*
X145536219Y-101030449D01*
X145552204Y-101036169D01*
X145567552Y-101043428D01*
X145582114Y-101052156D01*
X145595750Y-101062269D01*
X145608329Y-101073671D01*
X145619731Y-101086250D01*
X145629844Y-101099886D01*
X145638572Y-101114448D01*
X145645831Y-101129796D01*
X145651551Y-101145781D01*
X145655676Y-101162249D01*
X145658167Y-101179043D01*
X145659000Y-101196000D01*
X145659000Y-101542000D01*
X145658167Y-101558957D01*
X145655676Y-101575751D01*
X145651551Y-101592219D01*
X145645831Y-101608204D01*
X145638572Y-101623552D01*
X145629844Y-101638114D01*
X145619731Y-101651750D01*
X145608329Y-101664329D01*
X145595750Y-101675731D01*
X145582114Y-101685844D01*
X145567552Y-101694572D01*
X145552204Y-101701831D01*
X145536219Y-101707551D01*
X145519751Y-101711676D01*
X145502957Y-101714167D01*
X145486000Y-101715000D01*
X145090000Y-101715000D01*
X145073043Y-101714167D01*
X145056249Y-101711676D01*
X145039781Y-101707551D01*
X145023796Y-101701831D01*
X145008448Y-101694572D01*
X144993886Y-101685844D01*
X144980250Y-101675731D01*
X144967671Y-101664329D01*
X144956269Y-101651750D01*
X144946156Y-101638114D01*
X144937428Y-101623552D01*
X144930169Y-101608204D01*
X144924449Y-101592219D01*
X144920324Y-101575751D01*
X144917833Y-101558957D01*
X144917000Y-101542000D01*
X144917000Y-101196000D01*
X144917833Y-101179043D01*
X144920324Y-101162249D01*
X144924449Y-101145781D01*
X144930169Y-101129796D01*
X144937428Y-101114448D01*
X144946156Y-101099886D01*
X144956269Y-101086250D01*
X144967671Y-101073671D01*
X144980250Y-101062269D01*
X144993886Y-101052156D01*
X145008448Y-101043428D01*
X145023796Y-101036169D01*
X145039781Y-101030449D01*
X145056249Y-101026324D01*
X145073043Y-101023833D01*
X145090000Y-101023000D01*
X145486000Y-101023000D01*
X145502957Y-101023833D01*
G37*
G36*
X140930957Y-104833833D02*
G01*
X140947751Y-104836324D01*
X140964219Y-104840449D01*
X140980204Y-104846169D01*
X140995552Y-104853428D01*
X141010114Y-104862156D01*
X141023750Y-104872269D01*
X141036329Y-104883671D01*
X141047731Y-104896250D01*
X141057844Y-104909886D01*
X141066572Y-104924448D01*
X141073831Y-104939796D01*
X141079551Y-104955781D01*
X141083676Y-104972249D01*
X141086167Y-104989043D01*
X141087000Y-105006000D01*
X141087000Y-105352000D01*
X141086167Y-105368957D01*
X141083676Y-105385751D01*
X141079551Y-105402219D01*
X141073831Y-105418204D01*
X141066572Y-105433552D01*
X141057844Y-105448114D01*
X141047731Y-105461750D01*
X141036329Y-105474329D01*
X141023750Y-105485731D01*
X141010114Y-105495844D01*
X140995552Y-105504572D01*
X140980204Y-105511831D01*
X140964219Y-105517551D01*
X140947751Y-105521676D01*
X140930957Y-105524167D01*
X140914000Y-105525000D01*
X140518000Y-105525000D01*
X140501043Y-105524167D01*
X140484249Y-105521676D01*
X140467781Y-105517551D01*
X140451796Y-105511831D01*
X140436448Y-105504572D01*
X140421886Y-105495844D01*
X140408250Y-105485731D01*
X140395671Y-105474329D01*
X140384269Y-105461750D01*
X140374156Y-105448114D01*
X140365428Y-105433552D01*
X140358169Y-105418204D01*
X140352449Y-105402219D01*
X140348324Y-105385751D01*
X140345833Y-105368957D01*
X140345000Y-105352000D01*
X140345000Y-105006000D01*
X140345833Y-104989043D01*
X140348324Y-104972249D01*
X140352449Y-104955781D01*
X140358169Y-104939796D01*
X140365428Y-104924448D01*
X140374156Y-104909886D01*
X140384269Y-104896250D01*
X140395671Y-104883671D01*
X140408250Y-104872269D01*
X140421886Y-104862156D01*
X140436448Y-104853428D01*
X140451796Y-104846169D01*
X140467781Y-104840449D01*
X140484249Y-104836324D01*
X140501043Y-104833833D01*
X140518000Y-104833000D01*
X140914000Y-104833000D01*
X140930957Y-104833833D01*
G37*
G36*
X140930957Y-105803833D02*
G01*
X140947751Y-105806324D01*
X140964219Y-105810449D01*
X140980204Y-105816169D01*
X140995552Y-105823428D01*
X141010114Y-105832156D01*
X141023750Y-105842269D01*
X141036329Y-105853671D01*
X141047731Y-105866250D01*
X141057844Y-105879886D01*
X141066572Y-105894448D01*
X141073831Y-105909796D01*
X141079551Y-105925781D01*
X141083676Y-105942249D01*
X141086167Y-105959043D01*
X141087000Y-105976000D01*
X141087000Y-106322000D01*
X141086167Y-106338957D01*
X141083676Y-106355751D01*
X141079551Y-106372219D01*
X141073831Y-106388204D01*
X141066572Y-106403552D01*
X141057844Y-106418114D01*
X141047731Y-106431750D01*
X141036329Y-106444329D01*
X141023750Y-106455731D01*
X141010114Y-106465844D01*
X140995552Y-106474572D01*
X140980204Y-106481831D01*
X140964219Y-106487551D01*
X140947751Y-106491676D01*
X140930957Y-106494167D01*
X140914000Y-106495000D01*
X140518000Y-106495000D01*
X140501043Y-106494167D01*
X140484249Y-106491676D01*
X140467781Y-106487551D01*
X140451796Y-106481831D01*
X140436448Y-106474572D01*
X140421886Y-106465844D01*
X140408250Y-106455731D01*
X140395671Y-106444329D01*
X140384269Y-106431750D01*
X140374156Y-106418114D01*
X140365428Y-106403552D01*
X140358169Y-106388204D01*
X140352449Y-106372219D01*
X140348324Y-106355751D01*
X140345833Y-106338957D01*
X140345000Y-106322000D01*
X140345000Y-105976000D01*
X140345833Y-105959043D01*
X140348324Y-105942249D01*
X140352449Y-105925781D01*
X140358169Y-105909796D01*
X140365428Y-105894448D01*
X140374156Y-105879886D01*
X140384269Y-105866250D01*
X140395671Y-105853671D01*
X140408250Y-105842269D01*
X140421886Y-105832156D01*
X140436448Y-105823428D01*
X140451796Y-105816169D01*
X140467781Y-105810449D01*
X140484249Y-105806324D01*
X140501043Y-105803833D01*
X140518000Y-105803000D01*
X140914000Y-105803000D01*
X140930957Y-105803833D01*
G37*
G36*
X138390957Y-78625833D02*
G01*
X138407751Y-78628324D01*
X138424219Y-78632449D01*
X138440204Y-78638169D01*
X138455552Y-78645428D01*
X138470114Y-78654156D01*
X138483750Y-78664269D01*
X138496329Y-78675671D01*
X138507731Y-78688250D01*
X138517844Y-78701886D01*
X138526572Y-78716448D01*
X138533831Y-78731796D01*
X138539551Y-78747781D01*
X138543676Y-78764249D01*
X138546167Y-78781043D01*
X138547000Y-78798000D01*
X138547000Y-79144000D01*
X138546167Y-79160957D01*
X138543676Y-79177751D01*
X138539551Y-79194219D01*
X138533831Y-79210204D01*
X138526572Y-79225552D01*
X138517844Y-79240114D01*
X138507731Y-79253750D01*
X138496329Y-79266329D01*
X138483750Y-79277731D01*
X138470114Y-79287844D01*
X138455552Y-79296572D01*
X138440204Y-79303831D01*
X138424219Y-79309551D01*
X138407751Y-79313676D01*
X138390957Y-79316167D01*
X138374000Y-79317000D01*
X137978000Y-79317000D01*
X137961043Y-79316167D01*
X137944249Y-79313676D01*
X137927781Y-79309551D01*
X137911796Y-79303831D01*
X137896448Y-79296572D01*
X137881886Y-79287844D01*
X137868250Y-79277731D01*
X137855671Y-79266329D01*
X137844269Y-79253750D01*
X137834156Y-79240114D01*
X137825428Y-79225552D01*
X137818169Y-79210204D01*
X137812449Y-79194219D01*
X137808324Y-79177751D01*
X137805833Y-79160957D01*
X137805000Y-79144000D01*
X137805000Y-78798000D01*
X137805833Y-78781043D01*
X137808324Y-78764249D01*
X137812449Y-78747781D01*
X137818169Y-78731796D01*
X137825428Y-78716448D01*
X137834156Y-78701886D01*
X137844269Y-78688250D01*
X137855671Y-78675671D01*
X137868250Y-78664269D01*
X137881886Y-78654156D01*
X137896448Y-78645428D01*
X137911796Y-78638169D01*
X137927781Y-78632449D01*
X137944249Y-78628324D01*
X137961043Y-78625833D01*
X137978000Y-78625000D01*
X138374000Y-78625000D01*
X138390957Y-78625833D01*
G37*
G36*
X138390957Y-77655833D02*
G01*
X138407751Y-77658324D01*
X138424219Y-77662449D01*
X138440204Y-77668169D01*
X138455552Y-77675428D01*
X138470114Y-77684156D01*
X138483750Y-77694269D01*
X138496329Y-77705671D01*
X138507731Y-77718250D01*
X138517844Y-77731886D01*
X138526572Y-77746448D01*
X138533831Y-77761796D01*
X138539551Y-77777781D01*
X138543676Y-77794249D01*
X138546167Y-77811043D01*
X138547000Y-77828000D01*
X138547000Y-78174000D01*
X138546167Y-78190957D01*
X138543676Y-78207751D01*
X138539551Y-78224219D01*
X138533831Y-78240204D01*
X138526572Y-78255552D01*
X138517844Y-78270114D01*
X138507731Y-78283750D01*
X138496329Y-78296329D01*
X138483750Y-78307731D01*
X138470114Y-78317844D01*
X138455552Y-78326572D01*
X138440204Y-78333831D01*
X138424219Y-78339551D01*
X138407751Y-78343676D01*
X138390957Y-78346167D01*
X138374000Y-78347000D01*
X137978000Y-78347000D01*
X137961043Y-78346167D01*
X137944249Y-78343676D01*
X137927781Y-78339551D01*
X137911796Y-78333831D01*
X137896448Y-78326572D01*
X137881886Y-78317844D01*
X137868250Y-78307731D01*
X137855671Y-78296329D01*
X137844269Y-78283750D01*
X137834156Y-78270114D01*
X137825428Y-78255552D01*
X137818169Y-78240204D01*
X137812449Y-78224219D01*
X137808324Y-78207751D01*
X137805833Y-78190957D01*
X137805000Y-78174000D01*
X137805000Y-77828000D01*
X137805833Y-77811043D01*
X137808324Y-77794249D01*
X137812449Y-77777781D01*
X137818169Y-77761796D01*
X137825428Y-77746448D01*
X137834156Y-77731886D01*
X137844269Y-77718250D01*
X137855671Y-77705671D01*
X137868250Y-77694269D01*
X137881886Y-77684156D01*
X137896448Y-77675428D01*
X137911796Y-77668169D01*
X137927781Y-77662449D01*
X137944249Y-77658324D01*
X137961043Y-77655833D01*
X137978000Y-77655000D01*
X138374000Y-77655000D01*
X138390957Y-77655833D01*
G37*
G36*
X145502957Y-103055833D02*
G01*
X145519751Y-103058324D01*
X145536219Y-103062449D01*
X145552204Y-103068169D01*
X145567552Y-103075428D01*
X145582114Y-103084156D01*
X145595750Y-103094269D01*
X145608329Y-103105671D01*
X145619731Y-103118250D01*
X145629844Y-103131886D01*
X145638572Y-103146448D01*
X145645831Y-103161796D01*
X145651551Y-103177781D01*
X145655676Y-103194249D01*
X145658167Y-103211043D01*
X145659000Y-103228000D01*
X145659000Y-103574000D01*
X145658167Y-103590957D01*
X145655676Y-103607751D01*
X145651551Y-103624219D01*
X145645831Y-103640204D01*
X145638572Y-103655552D01*
X145629844Y-103670114D01*
X145619731Y-103683750D01*
X145608329Y-103696329D01*
X145595750Y-103707731D01*
X145582114Y-103717844D01*
X145567552Y-103726572D01*
X145552204Y-103733831D01*
X145536219Y-103739551D01*
X145519751Y-103743676D01*
X145502957Y-103746167D01*
X145486000Y-103747000D01*
X145090000Y-103747000D01*
X145073043Y-103746167D01*
X145056249Y-103743676D01*
X145039781Y-103739551D01*
X145023796Y-103733831D01*
X145008448Y-103726572D01*
X144993886Y-103717844D01*
X144980250Y-103707731D01*
X144967671Y-103696329D01*
X144956269Y-103683750D01*
X144946156Y-103670114D01*
X144937428Y-103655552D01*
X144930169Y-103640204D01*
X144924449Y-103624219D01*
X144920324Y-103607751D01*
X144917833Y-103590957D01*
X144917000Y-103574000D01*
X144917000Y-103228000D01*
X144917833Y-103211043D01*
X144920324Y-103194249D01*
X144924449Y-103177781D01*
X144930169Y-103161796D01*
X144937428Y-103146448D01*
X144946156Y-103131886D01*
X144956269Y-103118250D01*
X144967671Y-103105671D01*
X144980250Y-103094269D01*
X144993886Y-103084156D01*
X145008448Y-103075428D01*
X145023796Y-103068169D01*
X145039781Y-103062449D01*
X145056249Y-103058324D01*
X145073043Y-103055833D01*
X145090000Y-103055000D01*
X145486000Y-103055000D01*
X145502957Y-103055833D01*
G37*
G36*
X145502957Y-104025833D02*
G01*
X145519751Y-104028324D01*
X145536219Y-104032449D01*
X145552204Y-104038169D01*
X145567552Y-104045428D01*
X145582114Y-104054156D01*
X145595750Y-104064269D01*
X145608329Y-104075671D01*
X145619731Y-104088250D01*
X145629844Y-104101886D01*
X145638572Y-104116448D01*
X145645831Y-104131796D01*
X145651551Y-104147781D01*
X145655676Y-104164249D01*
X145658167Y-104181043D01*
X145659000Y-104198000D01*
X145659000Y-104544000D01*
X145658167Y-104560957D01*
X145655676Y-104577751D01*
X145651551Y-104594219D01*
X145645831Y-104610204D01*
X145638572Y-104625552D01*
X145629844Y-104640114D01*
X145619731Y-104653750D01*
X145608329Y-104666329D01*
X145595750Y-104677731D01*
X145582114Y-104687844D01*
X145567552Y-104696572D01*
X145552204Y-104703831D01*
X145536219Y-104709551D01*
X145519751Y-104713676D01*
X145502957Y-104716167D01*
X145486000Y-104717000D01*
X145090000Y-104717000D01*
X145073043Y-104716167D01*
X145056249Y-104713676D01*
X145039781Y-104709551D01*
X145023796Y-104703831D01*
X145008448Y-104696572D01*
X144993886Y-104687844D01*
X144980250Y-104677731D01*
X144967671Y-104666329D01*
X144956269Y-104653750D01*
X144946156Y-104640114D01*
X144937428Y-104625552D01*
X144930169Y-104610204D01*
X144924449Y-104594219D01*
X144920324Y-104577751D01*
X144917833Y-104560957D01*
X144917000Y-104544000D01*
X144917000Y-104198000D01*
X144917833Y-104181043D01*
X144920324Y-104164249D01*
X144924449Y-104147781D01*
X144930169Y-104131796D01*
X144937428Y-104116448D01*
X144946156Y-104101886D01*
X144956269Y-104088250D01*
X144967671Y-104075671D01*
X144980250Y-104064269D01*
X144993886Y-104054156D01*
X145008448Y-104045428D01*
X145023796Y-104038169D01*
X145039781Y-104032449D01*
X145056249Y-104028324D01*
X145073043Y-104025833D01*
X145090000Y-104025000D01*
X145486000Y-104025000D01*
X145502957Y-104025833D01*
G37*
G36*
X157186957Y-98437833D02*
G01*
X157203751Y-98440324D01*
X157220219Y-98444449D01*
X157236204Y-98450169D01*
X157251552Y-98457428D01*
X157266114Y-98466156D01*
X157279750Y-98476269D01*
X157292329Y-98487671D01*
X157303731Y-98500250D01*
X157313844Y-98513886D01*
X157322572Y-98528448D01*
X157329831Y-98543796D01*
X157335551Y-98559781D01*
X157339676Y-98576249D01*
X157342167Y-98593043D01*
X157343000Y-98610000D01*
X157343000Y-98956000D01*
X157342167Y-98972957D01*
X157339676Y-98989751D01*
X157335551Y-99006219D01*
X157329831Y-99022204D01*
X157322572Y-99037552D01*
X157313844Y-99052114D01*
X157303731Y-99065750D01*
X157292329Y-99078329D01*
X157279750Y-99089731D01*
X157266114Y-99099844D01*
X157251552Y-99108572D01*
X157236204Y-99115831D01*
X157220219Y-99121551D01*
X157203751Y-99125676D01*
X157186957Y-99128167D01*
X157170000Y-99129000D01*
X156774000Y-99129000D01*
X156757043Y-99128167D01*
X156740249Y-99125676D01*
X156723781Y-99121551D01*
X156707796Y-99115831D01*
X156692448Y-99108572D01*
X156677886Y-99099844D01*
X156664250Y-99089731D01*
X156651671Y-99078329D01*
X156640269Y-99065750D01*
X156630156Y-99052114D01*
X156621428Y-99037552D01*
X156614169Y-99022204D01*
X156608449Y-99006219D01*
X156604324Y-98989751D01*
X156601833Y-98972957D01*
X156601000Y-98956000D01*
X156601000Y-98610000D01*
X156601833Y-98593043D01*
X156604324Y-98576249D01*
X156608449Y-98559781D01*
X156614169Y-98543796D01*
X156621428Y-98528448D01*
X156630156Y-98513886D01*
X156640269Y-98500250D01*
X156651671Y-98487671D01*
X156664250Y-98476269D01*
X156677886Y-98466156D01*
X156692448Y-98457428D01*
X156707796Y-98450169D01*
X156723781Y-98444449D01*
X156740249Y-98440324D01*
X156757043Y-98437833D01*
X156774000Y-98437000D01*
X157170000Y-98437000D01*
X157186957Y-98437833D01*
G37*
G36*
X157186957Y-97467833D02*
G01*
X157203751Y-97470324D01*
X157220219Y-97474449D01*
X157236204Y-97480169D01*
X157251552Y-97487428D01*
X157266114Y-97496156D01*
X157279750Y-97506269D01*
X157292329Y-97517671D01*
X157303731Y-97530250D01*
X157313844Y-97543886D01*
X157322572Y-97558448D01*
X157329831Y-97573796D01*
X157335551Y-97589781D01*
X157339676Y-97606249D01*
X157342167Y-97623043D01*
X157343000Y-97640000D01*
X157343000Y-97986000D01*
X157342167Y-98002957D01*
X157339676Y-98019751D01*
X157335551Y-98036219D01*
X157329831Y-98052204D01*
X157322572Y-98067552D01*
X157313844Y-98082114D01*
X157303731Y-98095750D01*
X157292329Y-98108329D01*
X157279750Y-98119731D01*
X157266114Y-98129844D01*
X157251552Y-98138572D01*
X157236204Y-98145831D01*
X157220219Y-98151551D01*
X157203751Y-98155676D01*
X157186957Y-98158167D01*
X157170000Y-98159000D01*
X156774000Y-98159000D01*
X156757043Y-98158167D01*
X156740249Y-98155676D01*
X156723781Y-98151551D01*
X156707796Y-98145831D01*
X156692448Y-98138572D01*
X156677886Y-98129844D01*
X156664250Y-98119731D01*
X156651671Y-98108329D01*
X156640269Y-98095750D01*
X156630156Y-98082114D01*
X156621428Y-98067552D01*
X156614169Y-98052204D01*
X156608449Y-98036219D01*
X156604324Y-98019751D01*
X156601833Y-98002957D01*
X156601000Y-97986000D01*
X156601000Y-97640000D01*
X156601833Y-97623043D01*
X156604324Y-97606249D01*
X156608449Y-97589781D01*
X156614169Y-97573796D01*
X156621428Y-97558448D01*
X156630156Y-97543886D01*
X156640269Y-97530250D01*
X156651671Y-97517671D01*
X156664250Y-97506269D01*
X156677886Y-97496156D01*
X156692448Y-97487428D01*
X156707796Y-97480169D01*
X156723781Y-97474449D01*
X156740249Y-97470324D01*
X156757043Y-97467833D01*
X156774000Y-97467000D01*
X157170000Y-97467000D01*
X157186957Y-97467833D01*
G37*
G36*
X134578957Y-83703833D02*
G01*
X134595751Y-83706324D01*
X134612219Y-83710449D01*
X134628204Y-83716169D01*
X134643552Y-83723428D01*
X134658114Y-83732156D01*
X134671750Y-83742269D01*
X134684329Y-83753671D01*
X134695731Y-83766250D01*
X134705844Y-83779886D01*
X134714572Y-83794448D01*
X134721831Y-83809796D01*
X134727551Y-83825781D01*
X134731676Y-83842249D01*
X134734167Y-83859043D01*
X134735000Y-83876000D01*
X134735000Y-84272000D01*
X134734167Y-84288957D01*
X134731676Y-84305751D01*
X134727551Y-84322219D01*
X134721831Y-84338204D01*
X134714572Y-84353552D01*
X134705844Y-84368114D01*
X134695731Y-84381750D01*
X134684329Y-84394329D01*
X134671750Y-84405731D01*
X134658114Y-84415844D01*
X134643552Y-84424572D01*
X134628204Y-84431831D01*
X134612219Y-84437551D01*
X134595751Y-84441676D01*
X134578957Y-84444167D01*
X134562000Y-84445000D01*
X134216000Y-84445000D01*
X134199043Y-84444167D01*
X134182249Y-84441676D01*
X134165781Y-84437551D01*
X134149796Y-84431831D01*
X134134448Y-84424572D01*
X134119886Y-84415844D01*
X134106250Y-84405731D01*
X134093671Y-84394329D01*
X134082269Y-84381750D01*
X134072156Y-84368114D01*
X134063428Y-84353552D01*
X134056169Y-84338204D01*
X134050449Y-84322219D01*
X134046324Y-84305751D01*
X134043833Y-84288957D01*
X134043000Y-84272000D01*
X134043000Y-83876000D01*
X134043833Y-83859043D01*
X134046324Y-83842249D01*
X134050449Y-83825781D01*
X134056169Y-83809796D01*
X134063428Y-83794448D01*
X134072156Y-83779886D01*
X134082269Y-83766250D01*
X134093671Y-83753671D01*
X134106250Y-83742269D01*
X134119886Y-83732156D01*
X134134448Y-83723428D01*
X134149796Y-83716169D01*
X134165781Y-83710449D01*
X134182249Y-83706324D01*
X134199043Y-83703833D01*
X134216000Y-83703000D01*
X134562000Y-83703000D01*
X134578957Y-83703833D01*
G37*
G36*
X135548957Y-83703833D02*
G01*
X135565751Y-83706324D01*
X135582219Y-83710449D01*
X135598204Y-83716169D01*
X135613552Y-83723428D01*
X135628114Y-83732156D01*
X135641750Y-83742269D01*
X135654329Y-83753671D01*
X135665731Y-83766250D01*
X135675844Y-83779886D01*
X135684572Y-83794448D01*
X135691831Y-83809796D01*
X135697551Y-83825781D01*
X135701676Y-83842249D01*
X135704167Y-83859043D01*
X135705000Y-83876000D01*
X135705000Y-84272000D01*
X135704167Y-84288957D01*
X135701676Y-84305751D01*
X135697551Y-84322219D01*
X135691831Y-84338204D01*
X135684572Y-84353552D01*
X135675844Y-84368114D01*
X135665731Y-84381750D01*
X135654329Y-84394329D01*
X135641750Y-84405731D01*
X135628114Y-84415844D01*
X135613552Y-84424572D01*
X135598204Y-84431831D01*
X135582219Y-84437551D01*
X135565751Y-84441676D01*
X135548957Y-84444167D01*
X135532000Y-84445000D01*
X135186000Y-84445000D01*
X135169043Y-84444167D01*
X135152249Y-84441676D01*
X135135781Y-84437551D01*
X135119796Y-84431831D01*
X135104448Y-84424572D01*
X135089886Y-84415844D01*
X135076250Y-84405731D01*
X135063671Y-84394329D01*
X135052269Y-84381750D01*
X135042156Y-84368114D01*
X135033428Y-84353552D01*
X135026169Y-84338204D01*
X135020449Y-84322219D01*
X135016324Y-84305751D01*
X135013833Y-84288957D01*
X135013000Y-84272000D01*
X135013000Y-83876000D01*
X135013833Y-83859043D01*
X135016324Y-83842249D01*
X135020449Y-83825781D01*
X135026169Y-83809796D01*
X135033428Y-83794448D01*
X135042156Y-83779886D01*
X135052269Y-83766250D01*
X135063671Y-83753671D01*
X135076250Y-83742269D01*
X135089886Y-83732156D01*
X135104448Y-83723428D01*
X135119796Y-83716169D01*
X135135781Y-83710449D01*
X135152249Y-83706324D01*
X135169043Y-83703833D01*
X135186000Y-83703000D01*
X135532000Y-83703000D01*
X135548957Y-83703833D01*
G37*
D32*
X157344000Y-78359000D03*
X157344000Y-79629000D03*
X157344000Y-80899000D03*
X157344000Y-82169000D03*
X157344000Y-83439000D03*
X157344000Y-84709000D03*
X157344000Y-85979000D03*
X157344000Y-87249000D03*
X157344000Y-88519000D03*
X157344000Y-89789000D03*
X157344000Y-91059000D03*
X157344000Y-92329000D03*
X157344000Y-93599000D03*
X157344000Y-94869000D03*
D33*
X154559000Y-95869000D03*
X153289000Y-95869000D03*
X152019000Y-95869000D03*
X150749000Y-95869000D03*
X149479000Y-95869000D03*
X148209000Y-95869000D03*
X146939000Y-95869000D03*
X145669000Y-95869000D03*
X144399000Y-95869000D03*
X143129000Y-95869000D03*
D32*
X140344000Y-94869000D03*
X140344000Y-93599000D03*
X140344000Y-92329000D03*
X140344000Y-91059000D03*
X140344000Y-89789000D03*
X140344000Y-88519000D03*
X140344000Y-87249000D03*
X140344000Y-85979000D03*
X140344000Y-84709000D03*
X140344000Y-83439000D03*
X140344000Y-82169000D03*
X140344000Y-80899000D03*
X140344000Y-79629000D03*
X140344000Y-78359000D03*
D34*
X147844000Y-85859000D03*
M02*
