%FSLAX45Y45*%
G04 Gerber Fmt 4.5, Leading zero omitted, Abs format (unit mm)*
G04 Created by KiCad (PCBNEW (5.1.5)-3) date 2021-07-14 18:19:28*
%MOMM*%
%LPD*%
G04 APERTURE LIST*
%TA.AperFunction,Profile*%
%ADD10C,0.050000*%
%TD*%
%ADD11C,0.200000*%
%ADD12C,0.300000*%
G04 APERTURE END LIST*
D10*
X13335000Y-7010400D02*
X13335000Y-13258800D01*
X16281400Y-7010400D02*
X13335000Y-7010400D01*
X16281400Y-13258800D02*
X16281400Y-7010400D01*
X13335000Y-13258800D02*
X16281400Y-13258800D01*
D11*
D12*
X13618928Y-13727014D02*
X13618928Y-13427014D01*
X13690357Y-13427014D01*
X13733214Y-13441300D01*
X13761786Y-13469871D01*
X13776071Y-13498443D01*
X13790357Y-13555586D01*
X13790357Y-13598443D01*
X13776071Y-13655586D01*
X13761786Y-13684157D01*
X13733214Y-13712729D01*
X13690357Y-13727014D01*
X13618928Y-13727014D01*
X13918928Y-13727014D02*
X13918928Y-13527014D01*
X13918928Y-13584157D02*
X13933214Y-13555586D01*
X13947500Y-13541300D01*
X13976071Y-13527014D01*
X14004643Y-13527014D01*
X14104643Y-13727014D02*
X14104643Y-13527014D01*
X14104643Y-13427014D02*
X14090357Y-13441300D01*
X14104643Y-13455586D01*
X14118928Y-13441300D01*
X14104643Y-13427014D01*
X14104643Y-13455586D01*
X14290357Y-13727014D02*
X14261786Y-13712729D01*
X14247500Y-13684157D01*
X14247500Y-13427014D01*
X14447500Y-13727014D02*
X14418928Y-13712729D01*
X14404643Y-13684157D01*
X14404643Y-13427014D01*
X14790357Y-13727014D02*
X14790357Y-13427014D01*
X14890357Y-13641300D01*
X14990357Y-13427014D01*
X14990357Y-13727014D01*
X15261786Y-13727014D02*
X15261786Y-13569871D01*
X15247500Y-13541300D01*
X15218928Y-13527014D01*
X15161786Y-13527014D01*
X15133214Y-13541300D01*
X15261786Y-13712729D02*
X15233214Y-13727014D01*
X15161786Y-13727014D01*
X15133214Y-13712729D01*
X15118928Y-13684157D01*
X15118928Y-13655586D01*
X15133214Y-13627014D01*
X15161786Y-13612729D01*
X15233214Y-13612729D01*
X15261786Y-13598443D01*
X15404643Y-13527014D02*
X15404643Y-13827014D01*
X15404643Y-13541300D02*
X15433214Y-13527014D01*
X15490357Y-13527014D01*
X15518928Y-13541300D01*
X15533214Y-13555586D01*
X15547500Y-13584157D01*
X15547500Y-13669871D01*
X15533214Y-13698443D01*
X15518928Y-13712729D01*
X15490357Y-13727014D01*
X15433214Y-13727014D01*
X15404643Y-13712729D01*
X15676071Y-13698443D02*
X15690357Y-13712729D01*
X15676071Y-13727014D01*
X15661786Y-13712729D01*
X15676071Y-13698443D01*
X15676071Y-13727014D01*
X15676071Y-13541300D02*
X15690357Y-13555586D01*
X15676071Y-13569871D01*
X15661786Y-13555586D01*
X15676071Y-13541300D01*
X15676071Y-13569871D01*
M02*
