G04 #@! TF.GenerationSoftware,KiCad,Pcbnew,(5.1.5)-3*
G04 #@! TF.CreationDate,2021-07-14T18:19:22-04:00*
G04 #@! TF.ProjectId,MotorDriver,4d6f746f-7244-4726-9976-65722e6b6963,rev?*
G04 #@! TF.SameCoordinates,Original*
G04 #@! TF.FileFunction,Paste,Top*
G04 #@! TF.FilePolarity,Positive*
%FSLAX46Y46*%
G04 Gerber Fmt 4.6, Leading zero omitted, Abs format (unit mm)*
G04 Created by KiCad (PCBNEW (5.1.5)-3) date 2021-07-14 18:19:22*
%MOMM*%
%LPD*%
G04 APERTURE LIST*
%ADD10C,0.100000*%
%ADD11R,0.508000X0.972299*%
%ADD12R,0.260000X0.450000*%
%ADD13R,0.450000X0.260000*%
%ADD14R,1.700000X1.000000*%
%ADD15R,0.300000X0.700000*%
%ADD16R,2.450000X1.000000*%
%ADD17R,1.000000X2.450000*%
%ADD18R,2.000000X0.900000*%
%ADD19R,0.900000X2.000000*%
%ADD20R,5.000000X5.000000*%
G04 APERTURE END LIST*
D10*
G36*
X138568958Y-88072710D02*
G01*
X138583276Y-88074834D01*
X138597317Y-88078351D01*
X138610946Y-88083228D01*
X138624031Y-88089417D01*
X138636447Y-88096858D01*
X138648073Y-88105481D01*
X138658798Y-88115202D01*
X138668519Y-88125927D01*
X138677142Y-88137553D01*
X138684583Y-88149969D01*
X138690772Y-88163054D01*
X138695649Y-88176683D01*
X138699166Y-88190724D01*
X138701290Y-88205042D01*
X138702000Y-88219500D01*
X138702000Y-88564500D01*
X138701290Y-88578958D01*
X138699166Y-88593276D01*
X138695649Y-88607317D01*
X138690772Y-88620946D01*
X138684583Y-88634031D01*
X138677142Y-88646447D01*
X138668519Y-88658073D01*
X138658798Y-88668798D01*
X138648073Y-88678519D01*
X138636447Y-88687142D01*
X138624031Y-88694583D01*
X138610946Y-88700772D01*
X138597317Y-88705649D01*
X138583276Y-88709166D01*
X138568958Y-88711290D01*
X138554500Y-88712000D01*
X138259500Y-88712000D01*
X138245042Y-88711290D01*
X138230724Y-88709166D01*
X138216683Y-88705649D01*
X138203054Y-88700772D01*
X138189969Y-88694583D01*
X138177553Y-88687142D01*
X138165927Y-88678519D01*
X138155202Y-88668798D01*
X138145481Y-88658073D01*
X138136858Y-88646447D01*
X138129417Y-88634031D01*
X138123228Y-88620946D01*
X138118351Y-88607317D01*
X138114834Y-88593276D01*
X138112710Y-88578958D01*
X138112000Y-88564500D01*
X138112000Y-88219500D01*
X138112710Y-88205042D01*
X138114834Y-88190724D01*
X138118351Y-88176683D01*
X138123228Y-88163054D01*
X138129417Y-88149969D01*
X138136858Y-88137553D01*
X138145481Y-88125927D01*
X138155202Y-88115202D01*
X138165927Y-88105481D01*
X138177553Y-88096858D01*
X138189969Y-88089417D01*
X138203054Y-88083228D01*
X138216683Y-88078351D01*
X138230724Y-88074834D01*
X138245042Y-88072710D01*
X138259500Y-88072000D01*
X138554500Y-88072000D01*
X138568958Y-88072710D01*
G37*
G36*
X137598958Y-88072710D02*
G01*
X137613276Y-88074834D01*
X137627317Y-88078351D01*
X137640946Y-88083228D01*
X137654031Y-88089417D01*
X137666447Y-88096858D01*
X137678073Y-88105481D01*
X137688798Y-88115202D01*
X137698519Y-88125927D01*
X137707142Y-88137553D01*
X137714583Y-88149969D01*
X137720772Y-88163054D01*
X137725649Y-88176683D01*
X137729166Y-88190724D01*
X137731290Y-88205042D01*
X137732000Y-88219500D01*
X137732000Y-88564500D01*
X137731290Y-88578958D01*
X137729166Y-88593276D01*
X137725649Y-88607317D01*
X137720772Y-88620946D01*
X137714583Y-88634031D01*
X137707142Y-88646447D01*
X137698519Y-88658073D01*
X137688798Y-88668798D01*
X137678073Y-88678519D01*
X137666447Y-88687142D01*
X137654031Y-88694583D01*
X137640946Y-88700772D01*
X137627317Y-88705649D01*
X137613276Y-88709166D01*
X137598958Y-88711290D01*
X137584500Y-88712000D01*
X137289500Y-88712000D01*
X137275042Y-88711290D01*
X137260724Y-88709166D01*
X137246683Y-88705649D01*
X137233054Y-88700772D01*
X137219969Y-88694583D01*
X137207553Y-88687142D01*
X137195927Y-88678519D01*
X137185202Y-88668798D01*
X137175481Y-88658073D01*
X137166858Y-88646447D01*
X137159417Y-88634031D01*
X137153228Y-88620946D01*
X137148351Y-88607317D01*
X137144834Y-88593276D01*
X137142710Y-88578958D01*
X137142000Y-88564500D01*
X137142000Y-88219500D01*
X137142710Y-88205042D01*
X137144834Y-88190724D01*
X137148351Y-88176683D01*
X137153228Y-88163054D01*
X137159417Y-88149969D01*
X137166858Y-88137553D01*
X137175481Y-88125927D01*
X137185202Y-88115202D01*
X137195927Y-88105481D01*
X137207553Y-88096858D01*
X137219969Y-88089417D01*
X137233054Y-88083228D01*
X137246683Y-88078351D01*
X137260724Y-88074834D01*
X137275042Y-88072710D01*
X137289500Y-88072000D01*
X137584500Y-88072000D01*
X137598958Y-88072710D01*
G37*
G36*
X138616958Y-89390710D02*
G01*
X138631276Y-89392834D01*
X138645317Y-89396351D01*
X138658946Y-89401228D01*
X138672031Y-89407417D01*
X138684447Y-89414858D01*
X138696073Y-89423481D01*
X138706798Y-89433202D01*
X138716519Y-89443927D01*
X138725142Y-89455553D01*
X138732583Y-89467969D01*
X138738772Y-89481054D01*
X138743649Y-89494683D01*
X138747166Y-89508724D01*
X138749290Y-89523042D01*
X138750000Y-89537500D01*
X138750000Y-89832500D01*
X138749290Y-89846958D01*
X138747166Y-89861276D01*
X138743649Y-89875317D01*
X138738772Y-89888946D01*
X138732583Y-89902031D01*
X138725142Y-89914447D01*
X138716519Y-89926073D01*
X138706798Y-89936798D01*
X138696073Y-89946519D01*
X138684447Y-89955142D01*
X138672031Y-89962583D01*
X138658946Y-89968772D01*
X138645317Y-89973649D01*
X138631276Y-89977166D01*
X138616958Y-89979290D01*
X138602500Y-89980000D01*
X138257500Y-89980000D01*
X138243042Y-89979290D01*
X138228724Y-89977166D01*
X138214683Y-89973649D01*
X138201054Y-89968772D01*
X138187969Y-89962583D01*
X138175553Y-89955142D01*
X138163927Y-89946519D01*
X138153202Y-89936798D01*
X138143481Y-89926073D01*
X138134858Y-89914447D01*
X138127417Y-89902031D01*
X138121228Y-89888946D01*
X138116351Y-89875317D01*
X138112834Y-89861276D01*
X138110710Y-89846958D01*
X138110000Y-89832500D01*
X138110000Y-89537500D01*
X138110710Y-89523042D01*
X138112834Y-89508724D01*
X138116351Y-89494683D01*
X138121228Y-89481054D01*
X138127417Y-89467969D01*
X138134858Y-89455553D01*
X138143481Y-89443927D01*
X138153202Y-89433202D01*
X138163927Y-89423481D01*
X138175553Y-89414858D01*
X138187969Y-89407417D01*
X138201054Y-89401228D01*
X138214683Y-89396351D01*
X138228724Y-89392834D01*
X138243042Y-89390710D01*
X138257500Y-89390000D01*
X138602500Y-89390000D01*
X138616958Y-89390710D01*
G37*
G36*
X138616958Y-90360710D02*
G01*
X138631276Y-90362834D01*
X138645317Y-90366351D01*
X138658946Y-90371228D01*
X138672031Y-90377417D01*
X138684447Y-90384858D01*
X138696073Y-90393481D01*
X138706798Y-90403202D01*
X138716519Y-90413927D01*
X138725142Y-90425553D01*
X138732583Y-90437969D01*
X138738772Y-90451054D01*
X138743649Y-90464683D01*
X138747166Y-90478724D01*
X138749290Y-90493042D01*
X138750000Y-90507500D01*
X138750000Y-90802500D01*
X138749290Y-90816958D01*
X138747166Y-90831276D01*
X138743649Y-90845317D01*
X138738772Y-90858946D01*
X138732583Y-90872031D01*
X138725142Y-90884447D01*
X138716519Y-90896073D01*
X138706798Y-90906798D01*
X138696073Y-90916519D01*
X138684447Y-90925142D01*
X138672031Y-90932583D01*
X138658946Y-90938772D01*
X138645317Y-90943649D01*
X138631276Y-90947166D01*
X138616958Y-90949290D01*
X138602500Y-90950000D01*
X138257500Y-90950000D01*
X138243042Y-90949290D01*
X138228724Y-90947166D01*
X138214683Y-90943649D01*
X138201054Y-90938772D01*
X138187969Y-90932583D01*
X138175553Y-90925142D01*
X138163927Y-90916519D01*
X138153202Y-90906798D01*
X138143481Y-90896073D01*
X138134858Y-90884447D01*
X138127417Y-90872031D01*
X138121228Y-90858946D01*
X138116351Y-90845317D01*
X138112834Y-90831276D01*
X138110710Y-90816958D01*
X138110000Y-90802500D01*
X138110000Y-90507500D01*
X138110710Y-90493042D01*
X138112834Y-90478724D01*
X138116351Y-90464683D01*
X138121228Y-90451054D01*
X138127417Y-90437969D01*
X138134858Y-90425553D01*
X138143481Y-90413927D01*
X138153202Y-90403202D01*
X138163927Y-90393481D01*
X138175553Y-90384858D01*
X138187969Y-90377417D01*
X138201054Y-90371228D01*
X138214683Y-90366351D01*
X138228724Y-90362834D01*
X138243042Y-90360710D01*
X138257500Y-90360000D01*
X138602500Y-90360000D01*
X138616958Y-90360710D01*
G37*
G36*
X145172958Y-110424710D02*
G01*
X145187276Y-110426834D01*
X145201317Y-110430351D01*
X145214946Y-110435228D01*
X145228031Y-110441417D01*
X145240447Y-110448858D01*
X145252073Y-110457481D01*
X145262798Y-110467202D01*
X145272519Y-110477927D01*
X145281142Y-110489553D01*
X145288583Y-110501969D01*
X145294772Y-110515054D01*
X145299649Y-110528683D01*
X145303166Y-110542724D01*
X145305290Y-110557042D01*
X145306000Y-110571500D01*
X145306000Y-110916500D01*
X145305290Y-110930958D01*
X145303166Y-110945276D01*
X145299649Y-110959317D01*
X145294772Y-110972946D01*
X145288583Y-110986031D01*
X145281142Y-110998447D01*
X145272519Y-111010073D01*
X145262798Y-111020798D01*
X145252073Y-111030519D01*
X145240447Y-111039142D01*
X145228031Y-111046583D01*
X145214946Y-111052772D01*
X145201317Y-111057649D01*
X145187276Y-111061166D01*
X145172958Y-111063290D01*
X145158500Y-111064000D01*
X144863500Y-111064000D01*
X144849042Y-111063290D01*
X144834724Y-111061166D01*
X144820683Y-111057649D01*
X144807054Y-111052772D01*
X144793969Y-111046583D01*
X144781553Y-111039142D01*
X144769927Y-111030519D01*
X144759202Y-111020798D01*
X144749481Y-111010073D01*
X144740858Y-110998447D01*
X144733417Y-110986031D01*
X144727228Y-110972946D01*
X144722351Y-110959317D01*
X144718834Y-110945276D01*
X144716710Y-110930958D01*
X144716000Y-110916500D01*
X144716000Y-110571500D01*
X144716710Y-110557042D01*
X144718834Y-110542724D01*
X144722351Y-110528683D01*
X144727228Y-110515054D01*
X144733417Y-110501969D01*
X144740858Y-110489553D01*
X144749481Y-110477927D01*
X144759202Y-110467202D01*
X144769927Y-110457481D01*
X144781553Y-110448858D01*
X144793969Y-110441417D01*
X144807054Y-110435228D01*
X144820683Y-110430351D01*
X144834724Y-110426834D01*
X144849042Y-110424710D01*
X144863500Y-110424000D01*
X145158500Y-110424000D01*
X145172958Y-110424710D01*
G37*
G36*
X144202958Y-110424710D02*
G01*
X144217276Y-110426834D01*
X144231317Y-110430351D01*
X144244946Y-110435228D01*
X144258031Y-110441417D01*
X144270447Y-110448858D01*
X144282073Y-110457481D01*
X144292798Y-110467202D01*
X144302519Y-110477927D01*
X144311142Y-110489553D01*
X144318583Y-110501969D01*
X144324772Y-110515054D01*
X144329649Y-110528683D01*
X144333166Y-110542724D01*
X144335290Y-110557042D01*
X144336000Y-110571500D01*
X144336000Y-110916500D01*
X144335290Y-110930958D01*
X144333166Y-110945276D01*
X144329649Y-110959317D01*
X144324772Y-110972946D01*
X144318583Y-110986031D01*
X144311142Y-110998447D01*
X144302519Y-111010073D01*
X144292798Y-111020798D01*
X144282073Y-111030519D01*
X144270447Y-111039142D01*
X144258031Y-111046583D01*
X144244946Y-111052772D01*
X144231317Y-111057649D01*
X144217276Y-111061166D01*
X144202958Y-111063290D01*
X144188500Y-111064000D01*
X143893500Y-111064000D01*
X143879042Y-111063290D01*
X143864724Y-111061166D01*
X143850683Y-111057649D01*
X143837054Y-111052772D01*
X143823969Y-111046583D01*
X143811553Y-111039142D01*
X143799927Y-111030519D01*
X143789202Y-111020798D01*
X143779481Y-111010073D01*
X143770858Y-110998447D01*
X143763417Y-110986031D01*
X143757228Y-110972946D01*
X143752351Y-110959317D01*
X143748834Y-110945276D01*
X143746710Y-110930958D01*
X143746000Y-110916500D01*
X143746000Y-110571500D01*
X143746710Y-110557042D01*
X143748834Y-110542724D01*
X143752351Y-110528683D01*
X143757228Y-110515054D01*
X143763417Y-110501969D01*
X143770858Y-110489553D01*
X143779481Y-110477927D01*
X143789202Y-110467202D01*
X143799927Y-110457481D01*
X143811553Y-110448858D01*
X143823969Y-110441417D01*
X143837054Y-110435228D01*
X143850683Y-110430351D01*
X143864724Y-110426834D01*
X143879042Y-110424710D01*
X143893500Y-110424000D01*
X144188500Y-110424000D01*
X144202958Y-110424710D01*
G37*
G36*
X151570958Y-108902710D02*
G01*
X151585276Y-108904834D01*
X151599317Y-108908351D01*
X151612946Y-108913228D01*
X151626031Y-108919417D01*
X151638447Y-108926858D01*
X151650073Y-108935481D01*
X151660798Y-108945202D01*
X151670519Y-108955927D01*
X151679142Y-108967553D01*
X151686583Y-108979969D01*
X151692772Y-108993054D01*
X151697649Y-109006683D01*
X151701166Y-109020724D01*
X151703290Y-109035042D01*
X151704000Y-109049500D01*
X151704000Y-109344500D01*
X151703290Y-109358958D01*
X151701166Y-109373276D01*
X151697649Y-109387317D01*
X151692772Y-109400946D01*
X151686583Y-109414031D01*
X151679142Y-109426447D01*
X151670519Y-109438073D01*
X151660798Y-109448798D01*
X151650073Y-109458519D01*
X151638447Y-109467142D01*
X151626031Y-109474583D01*
X151612946Y-109480772D01*
X151599317Y-109485649D01*
X151585276Y-109489166D01*
X151570958Y-109491290D01*
X151556500Y-109492000D01*
X151211500Y-109492000D01*
X151197042Y-109491290D01*
X151182724Y-109489166D01*
X151168683Y-109485649D01*
X151155054Y-109480772D01*
X151141969Y-109474583D01*
X151129553Y-109467142D01*
X151117927Y-109458519D01*
X151107202Y-109448798D01*
X151097481Y-109438073D01*
X151088858Y-109426447D01*
X151081417Y-109414031D01*
X151075228Y-109400946D01*
X151070351Y-109387317D01*
X151066834Y-109373276D01*
X151064710Y-109358958D01*
X151064000Y-109344500D01*
X151064000Y-109049500D01*
X151064710Y-109035042D01*
X151066834Y-109020724D01*
X151070351Y-109006683D01*
X151075228Y-108993054D01*
X151081417Y-108979969D01*
X151088858Y-108967553D01*
X151097481Y-108955927D01*
X151107202Y-108945202D01*
X151117927Y-108935481D01*
X151129553Y-108926858D01*
X151141969Y-108919417D01*
X151155054Y-108913228D01*
X151168683Y-108908351D01*
X151182724Y-108904834D01*
X151197042Y-108902710D01*
X151211500Y-108902000D01*
X151556500Y-108902000D01*
X151570958Y-108902710D01*
G37*
G36*
X151570958Y-107932710D02*
G01*
X151585276Y-107934834D01*
X151599317Y-107938351D01*
X151612946Y-107943228D01*
X151626031Y-107949417D01*
X151638447Y-107956858D01*
X151650073Y-107965481D01*
X151660798Y-107975202D01*
X151670519Y-107985927D01*
X151679142Y-107997553D01*
X151686583Y-108009969D01*
X151692772Y-108023054D01*
X151697649Y-108036683D01*
X151701166Y-108050724D01*
X151703290Y-108065042D01*
X151704000Y-108079500D01*
X151704000Y-108374500D01*
X151703290Y-108388958D01*
X151701166Y-108403276D01*
X151697649Y-108417317D01*
X151692772Y-108430946D01*
X151686583Y-108444031D01*
X151679142Y-108456447D01*
X151670519Y-108468073D01*
X151660798Y-108478798D01*
X151650073Y-108488519D01*
X151638447Y-108497142D01*
X151626031Y-108504583D01*
X151612946Y-108510772D01*
X151599317Y-108515649D01*
X151585276Y-108519166D01*
X151570958Y-108521290D01*
X151556500Y-108522000D01*
X151211500Y-108522000D01*
X151197042Y-108521290D01*
X151182724Y-108519166D01*
X151168683Y-108515649D01*
X151155054Y-108510772D01*
X151141969Y-108504583D01*
X151129553Y-108497142D01*
X151117927Y-108488519D01*
X151107202Y-108478798D01*
X151097481Y-108468073D01*
X151088858Y-108456447D01*
X151081417Y-108444031D01*
X151075228Y-108430946D01*
X151070351Y-108417317D01*
X151066834Y-108403276D01*
X151064710Y-108388958D01*
X151064000Y-108374500D01*
X151064000Y-108079500D01*
X151064710Y-108065042D01*
X151066834Y-108050724D01*
X151070351Y-108036683D01*
X151075228Y-108023054D01*
X151081417Y-108009969D01*
X151088858Y-107997553D01*
X151097481Y-107985927D01*
X151107202Y-107975202D01*
X151117927Y-107965481D01*
X151129553Y-107956858D01*
X151141969Y-107949417D01*
X151155054Y-107943228D01*
X151168683Y-107938351D01*
X151182724Y-107934834D01*
X151197042Y-107932710D01*
X151211500Y-107932000D01*
X151556500Y-107932000D01*
X151570958Y-107932710D01*
G37*
G36*
X148474958Y-111440710D02*
G01*
X148489276Y-111442834D01*
X148503317Y-111446351D01*
X148516946Y-111451228D01*
X148530031Y-111457417D01*
X148542447Y-111464858D01*
X148554073Y-111473481D01*
X148564798Y-111483202D01*
X148574519Y-111493927D01*
X148583142Y-111505553D01*
X148590583Y-111517969D01*
X148596772Y-111531054D01*
X148601649Y-111544683D01*
X148605166Y-111558724D01*
X148607290Y-111573042D01*
X148608000Y-111587500D01*
X148608000Y-111932500D01*
X148607290Y-111946958D01*
X148605166Y-111961276D01*
X148601649Y-111975317D01*
X148596772Y-111988946D01*
X148590583Y-112002031D01*
X148583142Y-112014447D01*
X148574519Y-112026073D01*
X148564798Y-112036798D01*
X148554073Y-112046519D01*
X148542447Y-112055142D01*
X148530031Y-112062583D01*
X148516946Y-112068772D01*
X148503317Y-112073649D01*
X148489276Y-112077166D01*
X148474958Y-112079290D01*
X148460500Y-112080000D01*
X148165500Y-112080000D01*
X148151042Y-112079290D01*
X148136724Y-112077166D01*
X148122683Y-112073649D01*
X148109054Y-112068772D01*
X148095969Y-112062583D01*
X148083553Y-112055142D01*
X148071927Y-112046519D01*
X148061202Y-112036798D01*
X148051481Y-112026073D01*
X148042858Y-112014447D01*
X148035417Y-112002031D01*
X148029228Y-111988946D01*
X148024351Y-111975317D01*
X148020834Y-111961276D01*
X148018710Y-111946958D01*
X148018000Y-111932500D01*
X148018000Y-111587500D01*
X148018710Y-111573042D01*
X148020834Y-111558724D01*
X148024351Y-111544683D01*
X148029228Y-111531054D01*
X148035417Y-111517969D01*
X148042858Y-111505553D01*
X148051481Y-111493927D01*
X148061202Y-111483202D01*
X148071927Y-111473481D01*
X148083553Y-111464858D01*
X148095969Y-111457417D01*
X148109054Y-111451228D01*
X148122683Y-111446351D01*
X148136724Y-111442834D01*
X148151042Y-111440710D01*
X148165500Y-111440000D01*
X148460500Y-111440000D01*
X148474958Y-111440710D01*
G37*
G36*
X147504958Y-111440710D02*
G01*
X147519276Y-111442834D01*
X147533317Y-111446351D01*
X147546946Y-111451228D01*
X147560031Y-111457417D01*
X147572447Y-111464858D01*
X147584073Y-111473481D01*
X147594798Y-111483202D01*
X147604519Y-111493927D01*
X147613142Y-111505553D01*
X147620583Y-111517969D01*
X147626772Y-111531054D01*
X147631649Y-111544683D01*
X147635166Y-111558724D01*
X147637290Y-111573042D01*
X147638000Y-111587500D01*
X147638000Y-111932500D01*
X147637290Y-111946958D01*
X147635166Y-111961276D01*
X147631649Y-111975317D01*
X147626772Y-111988946D01*
X147620583Y-112002031D01*
X147613142Y-112014447D01*
X147604519Y-112026073D01*
X147594798Y-112036798D01*
X147584073Y-112046519D01*
X147572447Y-112055142D01*
X147560031Y-112062583D01*
X147546946Y-112068772D01*
X147533317Y-112073649D01*
X147519276Y-112077166D01*
X147504958Y-112079290D01*
X147490500Y-112080000D01*
X147195500Y-112080000D01*
X147181042Y-112079290D01*
X147166724Y-112077166D01*
X147152683Y-112073649D01*
X147139054Y-112068772D01*
X147125969Y-112062583D01*
X147113553Y-112055142D01*
X147101927Y-112046519D01*
X147091202Y-112036798D01*
X147081481Y-112026073D01*
X147072858Y-112014447D01*
X147065417Y-112002031D01*
X147059228Y-111988946D01*
X147054351Y-111975317D01*
X147050834Y-111961276D01*
X147048710Y-111946958D01*
X147048000Y-111932500D01*
X147048000Y-111587500D01*
X147048710Y-111573042D01*
X147050834Y-111558724D01*
X147054351Y-111544683D01*
X147059228Y-111531054D01*
X147065417Y-111517969D01*
X147072858Y-111505553D01*
X147081481Y-111493927D01*
X147091202Y-111483202D01*
X147101927Y-111473481D01*
X147113553Y-111464858D01*
X147125969Y-111457417D01*
X147139054Y-111451228D01*
X147152683Y-111446351D01*
X147166724Y-111442834D01*
X147181042Y-111440710D01*
X147195500Y-111440000D01*
X147490500Y-111440000D01*
X147504958Y-111440710D01*
G37*
G36*
X143188958Y-112458710D02*
G01*
X143203276Y-112460834D01*
X143217317Y-112464351D01*
X143230946Y-112469228D01*
X143244031Y-112475417D01*
X143256447Y-112482858D01*
X143268073Y-112491481D01*
X143278798Y-112501202D01*
X143288519Y-112511927D01*
X143297142Y-112523553D01*
X143304583Y-112535969D01*
X143310772Y-112549054D01*
X143315649Y-112562683D01*
X143319166Y-112576724D01*
X143321290Y-112591042D01*
X143322000Y-112605500D01*
X143322000Y-112900500D01*
X143321290Y-112914958D01*
X143319166Y-112929276D01*
X143315649Y-112943317D01*
X143310772Y-112956946D01*
X143304583Y-112970031D01*
X143297142Y-112982447D01*
X143288519Y-112994073D01*
X143278798Y-113004798D01*
X143268073Y-113014519D01*
X143256447Y-113023142D01*
X143244031Y-113030583D01*
X143230946Y-113036772D01*
X143217317Y-113041649D01*
X143203276Y-113045166D01*
X143188958Y-113047290D01*
X143174500Y-113048000D01*
X142829500Y-113048000D01*
X142815042Y-113047290D01*
X142800724Y-113045166D01*
X142786683Y-113041649D01*
X142773054Y-113036772D01*
X142759969Y-113030583D01*
X142747553Y-113023142D01*
X142735927Y-113014519D01*
X142725202Y-113004798D01*
X142715481Y-112994073D01*
X142706858Y-112982447D01*
X142699417Y-112970031D01*
X142693228Y-112956946D01*
X142688351Y-112943317D01*
X142684834Y-112929276D01*
X142682710Y-112914958D01*
X142682000Y-112900500D01*
X142682000Y-112605500D01*
X142682710Y-112591042D01*
X142684834Y-112576724D01*
X142688351Y-112562683D01*
X142693228Y-112549054D01*
X142699417Y-112535969D01*
X142706858Y-112523553D01*
X142715481Y-112511927D01*
X142725202Y-112501202D01*
X142735927Y-112491481D01*
X142747553Y-112482858D01*
X142759969Y-112475417D01*
X142773054Y-112469228D01*
X142786683Y-112464351D01*
X142800724Y-112460834D01*
X142815042Y-112458710D01*
X142829500Y-112458000D01*
X143174500Y-112458000D01*
X143188958Y-112458710D01*
G37*
G36*
X143188958Y-111488710D02*
G01*
X143203276Y-111490834D01*
X143217317Y-111494351D01*
X143230946Y-111499228D01*
X143244031Y-111505417D01*
X143256447Y-111512858D01*
X143268073Y-111521481D01*
X143278798Y-111531202D01*
X143288519Y-111541927D01*
X143297142Y-111553553D01*
X143304583Y-111565969D01*
X143310772Y-111579054D01*
X143315649Y-111592683D01*
X143319166Y-111606724D01*
X143321290Y-111621042D01*
X143322000Y-111635500D01*
X143322000Y-111930500D01*
X143321290Y-111944958D01*
X143319166Y-111959276D01*
X143315649Y-111973317D01*
X143310772Y-111986946D01*
X143304583Y-112000031D01*
X143297142Y-112012447D01*
X143288519Y-112024073D01*
X143278798Y-112034798D01*
X143268073Y-112044519D01*
X143256447Y-112053142D01*
X143244031Y-112060583D01*
X143230946Y-112066772D01*
X143217317Y-112071649D01*
X143203276Y-112075166D01*
X143188958Y-112077290D01*
X143174500Y-112078000D01*
X142829500Y-112078000D01*
X142815042Y-112077290D01*
X142800724Y-112075166D01*
X142786683Y-112071649D01*
X142773054Y-112066772D01*
X142759969Y-112060583D01*
X142747553Y-112053142D01*
X142735927Y-112044519D01*
X142725202Y-112034798D01*
X142715481Y-112024073D01*
X142706858Y-112012447D01*
X142699417Y-112000031D01*
X142693228Y-111986946D01*
X142688351Y-111973317D01*
X142684834Y-111959276D01*
X142682710Y-111944958D01*
X142682000Y-111930500D01*
X142682000Y-111635500D01*
X142682710Y-111621042D01*
X142684834Y-111606724D01*
X142688351Y-111592683D01*
X142693228Y-111579054D01*
X142699417Y-111565969D01*
X142706858Y-111553553D01*
X142715481Y-111541927D01*
X142725202Y-111531202D01*
X142735927Y-111521481D01*
X142747553Y-111512858D01*
X142759969Y-111505417D01*
X142773054Y-111499228D01*
X142786683Y-111494351D01*
X142800724Y-111490834D01*
X142815042Y-111488710D01*
X142829500Y-111488000D01*
X143174500Y-111488000D01*
X143188958Y-111488710D01*
G37*
G36*
X150552958Y-105344710D02*
G01*
X150567276Y-105346834D01*
X150581317Y-105350351D01*
X150594946Y-105355228D01*
X150608031Y-105361417D01*
X150620447Y-105368858D01*
X150632073Y-105377481D01*
X150642798Y-105387202D01*
X150652519Y-105397927D01*
X150661142Y-105409553D01*
X150668583Y-105421969D01*
X150674772Y-105435054D01*
X150679649Y-105448683D01*
X150683166Y-105462724D01*
X150685290Y-105477042D01*
X150686000Y-105491500D01*
X150686000Y-105836500D01*
X150685290Y-105850958D01*
X150683166Y-105865276D01*
X150679649Y-105879317D01*
X150674772Y-105892946D01*
X150668583Y-105906031D01*
X150661142Y-105918447D01*
X150652519Y-105930073D01*
X150642798Y-105940798D01*
X150632073Y-105950519D01*
X150620447Y-105959142D01*
X150608031Y-105966583D01*
X150594946Y-105972772D01*
X150581317Y-105977649D01*
X150567276Y-105981166D01*
X150552958Y-105983290D01*
X150538500Y-105984000D01*
X150243500Y-105984000D01*
X150229042Y-105983290D01*
X150214724Y-105981166D01*
X150200683Y-105977649D01*
X150187054Y-105972772D01*
X150173969Y-105966583D01*
X150161553Y-105959142D01*
X150149927Y-105950519D01*
X150139202Y-105940798D01*
X150129481Y-105930073D01*
X150120858Y-105918447D01*
X150113417Y-105906031D01*
X150107228Y-105892946D01*
X150102351Y-105879317D01*
X150098834Y-105865276D01*
X150096710Y-105850958D01*
X150096000Y-105836500D01*
X150096000Y-105491500D01*
X150096710Y-105477042D01*
X150098834Y-105462724D01*
X150102351Y-105448683D01*
X150107228Y-105435054D01*
X150113417Y-105421969D01*
X150120858Y-105409553D01*
X150129481Y-105397927D01*
X150139202Y-105387202D01*
X150149927Y-105377481D01*
X150161553Y-105368858D01*
X150173969Y-105361417D01*
X150187054Y-105355228D01*
X150200683Y-105350351D01*
X150214724Y-105346834D01*
X150229042Y-105344710D01*
X150243500Y-105344000D01*
X150538500Y-105344000D01*
X150552958Y-105344710D01*
G37*
G36*
X151522958Y-105344710D02*
G01*
X151537276Y-105346834D01*
X151551317Y-105350351D01*
X151564946Y-105355228D01*
X151578031Y-105361417D01*
X151590447Y-105368858D01*
X151602073Y-105377481D01*
X151612798Y-105387202D01*
X151622519Y-105397927D01*
X151631142Y-105409553D01*
X151638583Y-105421969D01*
X151644772Y-105435054D01*
X151649649Y-105448683D01*
X151653166Y-105462724D01*
X151655290Y-105477042D01*
X151656000Y-105491500D01*
X151656000Y-105836500D01*
X151655290Y-105850958D01*
X151653166Y-105865276D01*
X151649649Y-105879317D01*
X151644772Y-105892946D01*
X151638583Y-105906031D01*
X151631142Y-105918447D01*
X151622519Y-105930073D01*
X151612798Y-105940798D01*
X151602073Y-105950519D01*
X151590447Y-105959142D01*
X151578031Y-105966583D01*
X151564946Y-105972772D01*
X151551317Y-105977649D01*
X151537276Y-105981166D01*
X151522958Y-105983290D01*
X151508500Y-105984000D01*
X151213500Y-105984000D01*
X151199042Y-105983290D01*
X151184724Y-105981166D01*
X151170683Y-105977649D01*
X151157054Y-105972772D01*
X151143969Y-105966583D01*
X151131553Y-105959142D01*
X151119927Y-105950519D01*
X151109202Y-105940798D01*
X151099481Y-105930073D01*
X151090858Y-105918447D01*
X151083417Y-105906031D01*
X151077228Y-105892946D01*
X151072351Y-105879317D01*
X151068834Y-105865276D01*
X151066710Y-105850958D01*
X151066000Y-105836500D01*
X151066000Y-105491500D01*
X151066710Y-105477042D01*
X151068834Y-105462724D01*
X151072351Y-105448683D01*
X151077228Y-105435054D01*
X151083417Y-105421969D01*
X151090858Y-105409553D01*
X151099481Y-105397927D01*
X151109202Y-105387202D01*
X151119927Y-105377481D01*
X151131553Y-105368858D01*
X151143969Y-105361417D01*
X151157054Y-105355228D01*
X151170683Y-105350351D01*
X151184724Y-105346834D01*
X151199042Y-105344710D01*
X151213500Y-105344000D01*
X151508500Y-105344000D01*
X151522958Y-105344710D01*
G37*
G36*
X143648958Y-116520710D02*
G01*
X143663276Y-116522834D01*
X143677317Y-116526351D01*
X143690946Y-116531228D01*
X143704031Y-116537417D01*
X143716447Y-116544858D01*
X143728073Y-116553481D01*
X143738798Y-116563202D01*
X143748519Y-116573927D01*
X143757142Y-116585553D01*
X143764583Y-116597969D01*
X143770772Y-116611054D01*
X143775649Y-116624683D01*
X143779166Y-116638724D01*
X143781290Y-116653042D01*
X143782000Y-116667500D01*
X143782000Y-117012500D01*
X143781290Y-117026958D01*
X143779166Y-117041276D01*
X143775649Y-117055317D01*
X143770772Y-117068946D01*
X143764583Y-117082031D01*
X143757142Y-117094447D01*
X143748519Y-117106073D01*
X143738798Y-117116798D01*
X143728073Y-117126519D01*
X143716447Y-117135142D01*
X143704031Y-117142583D01*
X143690946Y-117148772D01*
X143677317Y-117153649D01*
X143663276Y-117157166D01*
X143648958Y-117159290D01*
X143634500Y-117160000D01*
X143339500Y-117160000D01*
X143325042Y-117159290D01*
X143310724Y-117157166D01*
X143296683Y-117153649D01*
X143283054Y-117148772D01*
X143269969Y-117142583D01*
X143257553Y-117135142D01*
X143245927Y-117126519D01*
X143235202Y-117116798D01*
X143225481Y-117106073D01*
X143216858Y-117094447D01*
X143209417Y-117082031D01*
X143203228Y-117068946D01*
X143198351Y-117055317D01*
X143194834Y-117041276D01*
X143192710Y-117026958D01*
X143192000Y-117012500D01*
X143192000Y-116667500D01*
X143192710Y-116653042D01*
X143194834Y-116638724D01*
X143198351Y-116624683D01*
X143203228Y-116611054D01*
X143209417Y-116597969D01*
X143216858Y-116585553D01*
X143225481Y-116573927D01*
X143235202Y-116563202D01*
X143245927Y-116553481D01*
X143257553Y-116544858D01*
X143269969Y-116537417D01*
X143283054Y-116531228D01*
X143296683Y-116526351D01*
X143310724Y-116522834D01*
X143325042Y-116520710D01*
X143339500Y-116520000D01*
X143634500Y-116520000D01*
X143648958Y-116520710D01*
G37*
G36*
X142678958Y-116520710D02*
G01*
X142693276Y-116522834D01*
X142707317Y-116526351D01*
X142720946Y-116531228D01*
X142734031Y-116537417D01*
X142746447Y-116544858D01*
X142758073Y-116553481D01*
X142768798Y-116563202D01*
X142778519Y-116573927D01*
X142787142Y-116585553D01*
X142794583Y-116597969D01*
X142800772Y-116611054D01*
X142805649Y-116624683D01*
X142809166Y-116638724D01*
X142811290Y-116653042D01*
X142812000Y-116667500D01*
X142812000Y-117012500D01*
X142811290Y-117026958D01*
X142809166Y-117041276D01*
X142805649Y-117055317D01*
X142800772Y-117068946D01*
X142794583Y-117082031D01*
X142787142Y-117094447D01*
X142778519Y-117106073D01*
X142768798Y-117116798D01*
X142758073Y-117126519D01*
X142746447Y-117135142D01*
X142734031Y-117142583D01*
X142720946Y-117148772D01*
X142707317Y-117153649D01*
X142693276Y-117157166D01*
X142678958Y-117159290D01*
X142664500Y-117160000D01*
X142369500Y-117160000D01*
X142355042Y-117159290D01*
X142340724Y-117157166D01*
X142326683Y-117153649D01*
X142313054Y-117148772D01*
X142299969Y-117142583D01*
X142287553Y-117135142D01*
X142275927Y-117126519D01*
X142265202Y-117116798D01*
X142255481Y-117106073D01*
X142246858Y-117094447D01*
X142239417Y-117082031D01*
X142233228Y-117068946D01*
X142228351Y-117055317D01*
X142224834Y-117041276D01*
X142222710Y-117026958D01*
X142222000Y-117012500D01*
X142222000Y-116667500D01*
X142222710Y-116653042D01*
X142224834Y-116638724D01*
X142228351Y-116624683D01*
X142233228Y-116611054D01*
X142239417Y-116597969D01*
X142246858Y-116585553D01*
X142255481Y-116573927D01*
X142265202Y-116563202D01*
X142275927Y-116553481D01*
X142287553Y-116544858D01*
X142299969Y-116537417D01*
X142313054Y-116531228D01*
X142326683Y-116526351D01*
X142340724Y-116522834D01*
X142355042Y-116520710D01*
X142369500Y-116520000D01*
X142664500Y-116520000D01*
X142678958Y-116520710D01*
G37*
G36*
X146744958Y-104584710D02*
G01*
X146759276Y-104586834D01*
X146773317Y-104590351D01*
X146786946Y-104595228D01*
X146800031Y-104601417D01*
X146812447Y-104608858D01*
X146824073Y-104617481D01*
X146834798Y-104627202D01*
X146844519Y-104637927D01*
X146853142Y-104649553D01*
X146860583Y-104661969D01*
X146866772Y-104675054D01*
X146871649Y-104688683D01*
X146875166Y-104702724D01*
X146877290Y-104717042D01*
X146878000Y-104731500D01*
X146878000Y-105026500D01*
X146877290Y-105040958D01*
X146875166Y-105055276D01*
X146871649Y-105069317D01*
X146866772Y-105082946D01*
X146860583Y-105096031D01*
X146853142Y-105108447D01*
X146844519Y-105120073D01*
X146834798Y-105130798D01*
X146824073Y-105140519D01*
X146812447Y-105149142D01*
X146800031Y-105156583D01*
X146786946Y-105162772D01*
X146773317Y-105167649D01*
X146759276Y-105171166D01*
X146744958Y-105173290D01*
X146730500Y-105174000D01*
X146385500Y-105174000D01*
X146371042Y-105173290D01*
X146356724Y-105171166D01*
X146342683Y-105167649D01*
X146329054Y-105162772D01*
X146315969Y-105156583D01*
X146303553Y-105149142D01*
X146291927Y-105140519D01*
X146281202Y-105130798D01*
X146271481Y-105120073D01*
X146262858Y-105108447D01*
X146255417Y-105096031D01*
X146249228Y-105082946D01*
X146244351Y-105069317D01*
X146240834Y-105055276D01*
X146238710Y-105040958D01*
X146238000Y-105026500D01*
X146238000Y-104731500D01*
X146238710Y-104717042D01*
X146240834Y-104702724D01*
X146244351Y-104688683D01*
X146249228Y-104675054D01*
X146255417Y-104661969D01*
X146262858Y-104649553D01*
X146271481Y-104637927D01*
X146281202Y-104627202D01*
X146291927Y-104617481D01*
X146303553Y-104608858D01*
X146315969Y-104601417D01*
X146329054Y-104595228D01*
X146342683Y-104590351D01*
X146356724Y-104586834D01*
X146371042Y-104584710D01*
X146385500Y-104584000D01*
X146730500Y-104584000D01*
X146744958Y-104584710D01*
G37*
G36*
X146744958Y-103614710D02*
G01*
X146759276Y-103616834D01*
X146773317Y-103620351D01*
X146786946Y-103625228D01*
X146800031Y-103631417D01*
X146812447Y-103638858D01*
X146824073Y-103647481D01*
X146834798Y-103657202D01*
X146844519Y-103667927D01*
X146853142Y-103679553D01*
X146860583Y-103691969D01*
X146866772Y-103705054D01*
X146871649Y-103718683D01*
X146875166Y-103732724D01*
X146877290Y-103747042D01*
X146878000Y-103761500D01*
X146878000Y-104056500D01*
X146877290Y-104070958D01*
X146875166Y-104085276D01*
X146871649Y-104099317D01*
X146866772Y-104112946D01*
X146860583Y-104126031D01*
X146853142Y-104138447D01*
X146844519Y-104150073D01*
X146834798Y-104160798D01*
X146824073Y-104170519D01*
X146812447Y-104179142D01*
X146800031Y-104186583D01*
X146786946Y-104192772D01*
X146773317Y-104197649D01*
X146759276Y-104201166D01*
X146744958Y-104203290D01*
X146730500Y-104204000D01*
X146385500Y-104204000D01*
X146371042Y-104203290D01*
X146356724Y-104201166D01*
X146342683Y-104197649D01*
X146329054Y-104192772D01*
X146315969Y-104186583D01*
X146303553Y-104179142D01*
X146291927Y-104170519D01*
X146281202Y-104160798D01*
X146271481Y-104150073D01*
X146262858Y-104138447D01*
X146255417Y-104126031D01*
X146249228Y-104112946D01*
X146244351Y-104099317D01*
X146240834Y-104085276D01*
X146238710Y-104070958D01*
X146238000Y-104056500D01*
X146238000Y-103761500D01*
X146238710Y-103747042D01*
X146240834Y-103732724D01*
X146244351Y-103718683D01*
X146249228Y-103705054D01*
X146255417Y-103691969D01*
X146262858Y-103679553D01*
X146271481Y-103667927D01*
X146281202Y-103657202D01*
X146291927Y-103647481D01*
X146303553Y-103638858D01*
X146315969Y-103631417D01*
X146329054Y-103625228D01*
X146342683Y-103620351D01*
X146356724Y-103616834D01*
X146371042Y-103614710D01*
X146385500Y-103614000D01*
X146730500Y-103614000D01*
X146744958Y-103614710D01*
G37*
G36*
X149028958Y-116774710D02*
G01*
X149043276Y-116776834D01*
X149057317Y-116780351D01*
X149070946Y-116785228D01*
X149084031Y-116791417D01*
X149096447Y-116798858D01*
X149108073Y-116807481D01*
X149118798Y-116817202D01*
X149128519Y-116827927D01*
X149137142Y-116839553D01*
X149144583Y-116851969D01*
X149150772Y-116865054D01*
X149155649Y-116878683D01*
X149159166Y-116892724D01*
X149161290Y-116907042D01*
X149162000Y-116921500D01*
X149162000Y-117266500D01*
X149161290Y-117280958D01*
X149159166Y-117295276D01*
X149155649Y-117309317D01*
X149150772Y-117322946D01*
X149144583Y-117336031D01*
X149137142Y-117348447D01*
X149128519Y-117360073D01*
X149118798Y-117370798D01*
X149108073Y-117380519D01*
X149096447Y-117389142D01*
X149084031Y-117396583D01*
X149070946Y-117402772D01*
X149057317Y-117407649D01*
X149043276Y-117411166D01*
X149028958Y-117413290D01*
X149014500Y-117414000D01*
X148719500Y-117414000D01*
X148705042Y-117413290D01*
X148690724Y-117411166D01*
X148676683Y-117407649D01*
X148663054Y-117402772D01*
X148649969Y-117396583D01*
X148637553Y-117389142D01*
X148625927Y-117380519D01*
X148615202Y-117370798D01*
X148605481Y-117360073D01*
X148596858Y-117348447D01*
X148589417Y-117336031D01*
X148583228Y-117322946D01*
X148578351Y-117309317D01*
X148574834Y-117295276D01*
X148572710Y-117280958D01*
X148572000Y-117266500D01*
X148572000Y-116921500D01*
X148572710Y-116907042D01*
X148574834Y-116892724D01*
X148578351Y-116878683D01*
X148583228Y-116865054D01*
X148589417Y-116851969D01*
X148596858Y-116839553D01*
X148605481Y-116827927D01*
X148615202Y-116817202D01*
X148625927Y-116807481D01*
X148637553Y-116798858D01*
X148649969Y-116791417D01*
X148663054Y-116785228D01*
X148676683Y-116780351D01*
X148690724Y-116776834D01*
X148705042Y-116774710D01*
X148719500Y-116774000D01*
X149014500Y-116774000D01*
X149028958Y-116774710D01*
G37*
G36*
X149998958Y-116774710D02*
G01*
X150013276Y-116776834D01*
X150027317Y-116780351D01*
X150040946Y-116785228D01*
X150054031Y-116791417D01*
X150066447Y-116798858D01*
X150078073Y-116807481D01*
X150088798Y-116817202D01*
X150098519Y-116827927D01*
X150107142Y-116839553D01*
X150114583Y-116851969D01*
X150120772Y-116865054D01*
X150125649Y-116878683D01*
X150129166Y-116892724D01*
X150131290Y-116907042D01*
X150132000Y-116921500D01*
X150132000Y-117266500D01*
X150131290Y-117280958D01*
X150129166Y-117295276D01*
X150125649Y-117309317D01*
X150120772Y-117322946D01*
X150114583Y-117336031D01*
X150107142Y-117348447D01*
X150098519Y-117360073D01*
X150088798Y-117370798D01*
X150078073Y-117380519D01*
X150066447Y-117389142D01*
X150054031Y-117396583D01*
X150040946Y-117402772D01*
X150027317Y-117407649D01*
X150013276Y-117411166D01*
X149998958Y-117413290D01*
X149984500Y-117414000D01*
X149689500Y-117414000D01*
X149675042Y-117413290D01*
X149660724Y-117411166D01*
X149646683Y-117407649D01*
X149633054Y-117402772D01*
X149619969Y-117396583D01*
X149607553Y-117389142D01*
X149595927Y-117380519D01*
X149585202Y-117370798D01*
X149575481Y-117360073D01*
X149566858Y-117348447D01*
X149559417Y-117336031D01*
X149553228Y-117322946D01*
X149548351Y-117309317D01*
X149544834Y-117295276D01*
X149542710Y-117280958D01*
X149542000Y-117266500D01*
X149542000Y-116921500D01*
X149542710Y-116907042D01*
X149544834Y-116892724D01*
X149548351Y-116878683D01*
X149553228Y-116865054D01*
X149559417Y-116851969D01*
X149566858Y-116839553D01*
X149575481Y-116827927D01*
X149585202Y-116817202D01*
X149595927Y-116807481D01*
X149607553Y-116798858D01*
X149619969Y-116791417D01*
X149633054Y-116785228D01*
X149646683Y-116780351D01*
X149660724Y-116776834D01*
X149675042Y-116774710D01*
X149689500Y-116774000D01*
X149984500Y-116774000D01*
X149998958Y-116774710D01*
G37*
D11*
X155128001Y-101438451D03*
X153227999Y-101438451D03*
X153227999Y-98713549D03*
X154178000Y-98713549D03*
X155128001Y-98713549D03*
D12*
X148832000Y-101605000D03*
X148332000Y-101605000D03*
X147832000Y-101605000D03*
X147332000Y-101605000D03*
D13*
X146807000Y-101080000D03*
X146807000Y-100580000D03*
X146807000Y-100080000D03*
X146807000Y-99580000D03*
D12*
X147332000Y-99055000D03*
X147832000Y-99055000D03*
X148332000Y-99055000D03*
X148832000Y-99055000D03*
D13*
X149357000Y-99580000D03*
X149357000Y-100080000D03*
X149357000Y-100580000D03*
X149357000Y-101080000D03*
D10*
G36*
X155977504Y-103012204D02*
G01*
X156001773Y-103015804D01*
X156025571Y-103021765D01*
X156048671Y-103030030D01*
X156070849Y-103040520D01*
X156091893Y-103053133D01*
X156111598Y-103067747D01*
X156129777Y-103084223D01*
X156146253Y-103102402D01*
X156160867Y-103122107D01*
X156173480Y-103143151D01*
X156183970Y-103165329D01*
X156192235Y-103188429D01*
X156198196Y-103212227D01*
X156201796Y-103236496D01*
X156203000Y-103261000D01*
X156203000Y-104511000D01*
X156201796Y-104535504D01*
X156198196Y-104559773D01*
X156192235Y-104583571D01*
X156183970Y-104606671D01*
X156173480Y-104628849D01*
X156160867Y-104649893D01*
X156146253Y-104669598D01*
X156129777Y-104687777D01*
X156111598Y-104704253D01*
X156091893Y-104718867D01*
X156070849Y-104731480D01*
X156048671Y-104741970D01*
X156025571Y-104750235D01*
X156001773Y-104756196D01*
X155977504Y-104759796D01*
X155953000Y-104761000D01*
X155203000Y-104761000D01*
X155178496Y-104759796D01*
X155154227Y-104756196D01*
X155130429Y-104750235D01*
X155107329Y-104741970D01*
X155085151Y-104731480D01*
X155064107Y-104718867D01*
X155044402Y-104704253D01*
X155026223Y-104687777D01*
X155009747Y-104669598D01*
X154995133Y-104649893D01*
X154982520Y-104628849D01*
X154972030Y-104606671D01*
X154963765Y-104583571D01*
X154957804Y-104559773D01*
X154954204Y-104535504D01*
X154953000Y-104511000D01*
X154953000Y-103261000D01*
X154954204Y-103236496D01*
X154957804Y-103212227D01*
X154963765Y-103188429D01*
X154972030Y-103165329D01*
X154982520Y-103143151D01*
X154995133Y-103122107D01*
X155009747Y-103102402D01*
X155026223Y-103084223D01*
X155044402Y-103067747D01*
X155064107Y-103053133D01*
X155085151Y-103040520D01*
X155107329Y-103030030D01*
X155130429Y-103021765D01*
X155154227Y-103015804D01*
X155178496Y-103012204D01*
X155203000Y-103011000D01*
X155953000Y-103011000D01*
X155977504Y-103012204D01*
G37*
G36*
X153177504Y-103012204D02*
G01*
X153201773Y-103015804D01*
X153225571Y-103021765D01*
X153248671Y-103030030D01*
X153270849Y-103040520D01*
X153291893Y-103053133D01*
X153311598Y-103067747D01*
X153329777Y-103084223D01*
X153346253Y-103102402D01*
X153360867Y-103122107D01*
X153373480Y-103143151D01*
X153383970Y-103165329D01*
X153392235Y-103188429D01*
X153398196Y-103212227D01*
X153401796Y-103236496D01*
X153403000Y-103261000D01*
X153403000Y-104511000D01*
X153401796Y-104535504D01*
X153398196Y-104559773D01*
X153392235Y-104583571D01*
X153383970Y-104606671D01*
X153373480Y-104628849D01*
X153360867Y-104649893D01*
X153346253Y-104669598D01*
X153329777Y-104687777D01*
X153311598Y-104704253D01*
X153291893Y-104718867D01*
X153270849Y-104731480D01*
X153248671Y-104741970D01*
X153225571Y-104750235D01*
X153201773Y-104756196D01*
X153177504Y-104759796D01*
X153153000Y-104761000D01*
X152403000Y-104761000D01*
X152378496Y-104759796D01*
X152354227Y-104756196D01*
X152330429Y-104750235D01*
X152307329Y-104741970D01*
X152285151Y-104731480D01*
X152264107Y-104718867D01*
X152244402Y-104704253D01*
X152226223Y-104687777D01*
X152209747Y-104669598D01*
X152195133Y-104649893D01*
X152182520Y-104628849D01*
X152172030Y-104606671D01*
X152163765Y-104583571D01*
X152157804Y-104559773D01*
X152154204Y-104535504D01*
X152153000Y-104511000D01*
X152153000Y-103261000D01*
X152154204Y-103236496D01*
X152157804Y-103212227D01*
X152163765Y-103188429D01*
X152172030Y-103165329D01*
X152182520Y-103143151D01*
X152195133Y-103122107D01*
X152209747Y-103102402D01*
X152226223Y-103084223D01*
X152244402Y-103067747D01*
X152264107Y-103053133D01*
X152285151Y-103040520D01*
X152307329Y-103030030D01*
X152330429Y-103021765D01*
X152354227Y-103015804D01*
X152378496Y-103012204D01*
X152403000Y-103011000D01*
X153153000Y-103011000D01*
X153177504Y-103012204D01*
G37*
G36*
X146742958Y-102550710D02*
G01*
X146757276Y-102552834D01*
X146771317Y-102556351D01*
X146784946Y-102561228D01*
X146798031Y-102567417D01*
X146810447Y-102574858D01*
X146822073Y-102583481D01*
X146832798Y-102593202D01*
X146842519Y-102603927D01*
X146851142Y-102615553D01*
X146858583Y-102627969D01*
X146864772Y-102641054D01*
X146869649Y-102654683D01*
X146873166Y-102668724D01*
X146875290Y-102683042D01*
X146876000Y-102697500D01*
X146876000Y-103042500D01*
X146875290Y-103056958D01*
X146873166Y-103071276D01*
X146869649Y-103085317D01*
X146864772Y-103098946D01*
X146858583Y-103112031D01*
X146851142Y-103124447D01*
X146842519Y-103136073D01*
X146832798Y-103146798D01*
X146822073Y-103156519D01*
X146810447Y-103165142D01*
X146798031Y-103172583D01*
X146784946Y-103178772D01*
X146771317Y-103183649D01*
X146757276Y-103187166D01*
X146742958Y-103189290D01*
X146728500Y-103190000D01*
X146433500Y-103190000D01*
X146419042Y-103189290D01*
X146404724Y-103187166D01*
X146390683Y-103183649D01*
X146377054Y-103178772D01*
X146363969Y-103172583D01*
X146351553Y-103165142D01*
X146339927Y-103156519D01*
X146329202Y-103146798D01*
X146319481Y-103136073D01*
X146310858Y-103124447D01*
X146303417Y-103112031D01*
X146297228Y-103098946D01*
X146292351Y-103085317D01*
X146288834Y-103071276D01*
X146286710Y-103056958D01*
X146286000Y-103042500D01*
X146286000Y-102697500D01*
X146286710Y-102683042D01*
X146288834Y-102668724D01*
X146292351Y-102654683D01*
X146297228Y-102641054D01*
X146303417Y-102627969D01*
X146310858Y-102615553D01*
X146319481Y-102603927D01*
X146329202Y-102593202D01*
X146339927Y-102583481D01*
X146351553Y-102574858D01*
X146363969Y-102567417D01*
X146377054Y-102561228D01*
X146390683Y-102556351D01*
X146404724Y-102552834D01*
X146419042Y-102550710D01*
X146433500Y-102550000D01*
X146728500Y-102550000D01*
X146742958Y-102550710D01*
G37*
G36*
X147712958Y-102550710D02*
G01*
X147727276Y-102552834D01*
X147741317Y-102556351D01*
X147754946Y-102561228D01*
X147768031Y-102567417D01*
X147780447Y-102574858D01*
X147792073Y-102583481D01*
X147802798Y-102593202D01*
X147812519Y-102603927D01*
X147821142Y-102615553D01*
X147828583Y-102627969D01*
X147834772Y-102641054D01*
X147839649Y-102654683D01*
X147843166Y-102668724D01*
X147845290Y-102683042D01*
X147846000Y-102697500D01*
X147846000Y-103042500D01*
X147845290Y-103056958D01*
X147843166Y-103071276D01*
X147839649Y-103085317D01*
X147834772Y-103098946D01*
X147828583Y-103112031D01*
X147821142Y-103124447D01*
X147812519Y-103136073D01*
X147802798Y-103146798D01*
X147792073Y-103156519D01*
X147780447Y-103165142D01*
X147768031Y-103172583D01*
X147754946Y-103178772D01*
X147741317Y-103183649D01*
X147727276Y-103187166D01*
X147712958Y-103189290D01*
X147698500Y-103190000D01*
X147403500Y-103190000D01*
X147389042Y-103189290D01*
X147374724Y-103187166D01*
X147360683Y-103183649D01*
X147347054Y-103178772D01*
X147333969Y-103172583D01*
X147321553Y-103165142D01*
X147309927Y-103156519D01*
X147299202Y-103146798D01*
X147289481Y-103136073D01*
X147280858Y-103124447D01*
X147273417Y-103112031D01*
X147267228Y-103098946D01*
X147262351Y-103085317D01*
X147258834Y-103071276D01*
X147256710Y-103056958D01*
X147256000Y-103042500D01*
X147256000Y-102697500D01*
X147256710Y-102683042D01*
X147258834Y-102668724D01*
X147262351Y-102654683D01*
X147267228Y-102641054D01*
X147273417Y-102627969D01*
X147280858Y-102615553D01*
X147289481Y-102603927D01*
X147299202Y-102593202D01*
X147309927Y-102583481D01*
X147321553Y-102574858D01*
X147333969Y-102567417D01*
X147347054Y-102561228D01*
X147360683Y-102556351D01*
X147374724Y-102552834D01*
X147389042Y-102550710D01*
X147403500Y-102550000D01*
X147698500Y-102550000D01*
X147712958Y-102550710D01*
G37*
G36*
X145474958Y-99042710D02*
G01*
X145489276Y-99044834D01*
X145503317Y-99048351D01*
X145516946Y-99053228D01*
X145530031Y-99059417D01*
X145542447Y-99066858D01*
X145554073Y-99075481D01*
X145564798Y-99085202D01*
X145574519Y-99095927D01*
X145583142Y-99107553D01*
X145590583Y-99119969D01*
X145596772Y-99133054D01*
X145601649Y-99146683D01*
X145605166Y-99160724D01*
X145607290Y-99175042D01*
X145608000Y-99189500D01*
X145608000Y-99484500D01*
X145607290Y-99498958D01*
X145605166Y-99513276D01*
X145601649Y-99527317D01*
X145596772Y-99540946D01*
X145590583Y-99554031D01*
X145583142Y-99566447D01*
X145574519Y-99578073D01*
X145564798Y-99588798D01*
X145554073Y-99598519D01*
X145542447Y-99607142D01*
X145530031Y-99614583D01*
X145516946Y-99620772D01*
X145503317Y-99625649D01*
X145489276Y-99629166D01*
X145474958Y-99631290D01*
X145460500Y-99632000D01*
X145115500Y-99632000D01*
X145101042Y-99631290D01*
X145086724Y-99629166D01*
X145072683Y-99625649D01*
X145059054Y-99620772D01*
X145045969Y-99614583D01*
X145033553Y-99607142D01*
X145021927Y-99598519D01*
X145011202Y-99588798D01*
X145001481Y-99578073D01*
X144992858Y-99566447D01*
X144985417Y-99554031D01*
X144979228Y-99540946D01*
X144974351Y-99527317D01*
X144970834Y-99513276D01*
X144968710Y-99498958D01*
X144968000Y-99484500D01*
X144968000Y-99189500D01*
X144968710Y-99175042D01*
X144970834Y-99160724D01*
X144974351Y-99146683D01*
X144979228Y-99133054D01*
X144985417Y-99119969D01*
X144992858Y-99107553D01*
X145001481Y-99095927D01*
X145011202Y-99085202D01*
X145021927Y-99075481D01*
X145033553Y-99066858D01*
X145045969Y-99059417D01*
X145059054Y-99053228D01*
X145072683Y-99048351D01*
X145086724Y-99044834D01*
X145101042Y-99042710D01*
X145115500Y-99042000D01*
X145460500Y-99042000D01*
X145474958Y-99042710D01*
G37*
G36*
X145474958Y-100012710D02*
G01*
X145489276Y-100014834D01*
X145503317Y-100018351D01*
X145516946Y-100023228D01*
X145530031Y-100029417D01*
X145542447Y-100036858D01*
X145554073Y-100045481D01*
X145564798Y-100055202D01*
X145574519Y-100065927D01*
X145583142Y-100077553D01*
X145590583Y-100089969D01*
X145596772Y-100103054D01*
X145601649Y-100116683D01*
X145605166Y-100130724D01*
X145607290Y-100145042D01*
X145608000Y-100159500D01*
X145608000Y-100454500D01*
X145607290Y-100468958D01*
X145605166Y-100483276D01*
X145601649Y-100497317D01*
X145596772Y-100510946D01*
X145590583Y-100524031D01*
X145583142Y-100536447D01*
X145574519Y-100548073D01*
X145564798Y-100558798D01*
X145554073Y-100568519D01*
X145542447Y-100577142D01*
X145530031Y-100584583D01*
X145516946Y-100590772D01*
X145503317Y-100595649D01*
X145489276Y-100599166D01*
X145474958Y-100601290D01*
X145460500Y-100602000D01*
X145115500Y-100602000D01*
X145101042Y-100601290D01*
X145086724Y-100599166D01*
X145072683Y-100595649D01*
X145059054Y-100590772D01*
X145045969Y-100584583D01*
X145033553Y-100577142D01*
X145021927Y-100568519D01*
X145011202Y-100558798D01*
X145001481Y-100548073D01*
X144992858Y-100536447D01*
X144985417Y-100524031D01*
X144979228Y-100510946D01*
X144974351Y-100497317D01*
X144970834Y-100483276D01*
X144968710Y-100468958D01*
X144968000Y-100454500D01*
X144968000Y-100159500D01*
X144968710Y-100145042D01*
X144970834Y-100130724D01*
X144974351Y-100116683D01*
X144979228Y-100103054D01*
X144985417Y-100089969D01*
X144992858Y-100077553D01*
X145001481Y-100065927D01*
X145011202Y-100055202D01*
X145021927Y-100045481D01*
X145033553Y-100036858D01*
X145045969Y-100029417D01*
X145059054Y-100023228D01*
X145072683Y-100018351D01*
X145086724Y-100014834D01*
X145101042Y-100012710D01*
X145115500Y-100012000D01*
X145460500Y-100012000D01*
X145474958Y-100012710D01*
G37*
D11*
X153227999Y-109127549D03*
X155128001Y-109127549D03*
X155128001Y-111852451D03*
X154178000Y-111852451D03*
X153227999Y-111852451D03*
D10*
G36*
X140564351Y-99225361D02*
G01*
X140571632Y-99226441D01*
X140578771Y-99228229D01*
X140585701Y-99230709D01*
X140592355Y-99233856D01*
X140598668Y-99237640D01*
X140604579Y-99242024D01*
X140610033Y-99246967D01*
X140614976Y-99252421D01*
X140619360Y-99258332D01*
X140623144Y-99264645D01*
X140626291Y-99271299D01*
X140628771Y-99278229D01*
X140630559Y-99285368D01*
X140631639Y-99292649D01*
X140632000Y-99300000D01*
X140632000Y-100000000D01*
X140631639Y-100007351D01*
X140630559Y-100014632D01*
X140628771Y-100021771D01*
X140626291Y-100028701D01*
X140623144Y-100035355D01*
X140619360Y-100041668D01*
X140614976Y-100047579D01*
X140610033Y-100053033D01*
X140604579Y-100057976D01*
X140598668Y-100062360D01*
X140592355Y-100066144D01*
X140585701Y-100069291D01*
X140578771Y-100071771D01*
X140571632Y-100073559D01*
X140564351Y-100074639D01*
X140557000Y-100075000D01*
X140407000Y-100075000D01*
X140399649Y-100074639D01*
X140392368Y-100073559D01*
X140385229Y-100071771D01*
X140378299Y-100069291D01*
X140371645Y-100066144D01*
X140365332Y-100062360D01*
X140359421Y-100057976D01*
X140353967Y-100053033D01*
X140349024Y-100047579D01*
X140344640Y-100041668D01*
X140340856Y-100035355D01*
X140337709Y-100028701D01*
X140335229Y-100021771D01*
X140333441Y-100014632D01*
X140332361Y-100007351D01*
X140332000Y-100000000D01*
X140332000Y-99300000D01*
X140332361Y-99292649D01*
X140333441Y-99285368D01*
X140335229Y-99278229D01*
X140337709Y-99271299D01*
X140340856Y-99264645D01*
X140344640Y-99258332D01*
X140349024Y-99252421D01*
X140353967Y-99246967D01*
X140359421Y-99242024D01*
X140365332Y-99237640D01*
X140371645Y-99233856D01*
X140378299Y-99230709D01*
X140385229Y-99228229D01*
X140392368Y-99226441D01*
X140399649Y-99225361D01*
X140407000Y-99225000D01*
X140557000Y-99225000D01*
X140564351Y-99225361D01*
G37*
G36*
X141064351Y-99225361D02*
G01*
X141071632Y-99226441D01*
X141078771Y-99228229D01*
X141085701Y-99230709D01*
X141092355Y-99233856D01*
X141098668Y-99237640D01*
X141104579Y-99242024D01*
X141110033Y-99246967D01*
X141114976Y-99252421D01*
X141119360Y-99258332D01*
X141123144Y-99264645D01*
X141126291Y-99271299D01*
X141128771Y-99278229D01*
X141130559Y-99285368D01*
X141131639Y-99292649D01*
X141132000Y-99300000D01*
X141132000Y-100000000D01*
X141131639Y-100007351D01*
X141130559Y-100014632D01*
X141128771Y-100021771D01*
X141126291Y-100028701D01*
X141123144Y-100035355D01*
X141119360Y-100041668D01*
X141114976Y-100047579D01*
X141110033Y-100053033D01*
X141104579Y-100057976D01*
X141098668Y-100062360D01*
X141092355Y-100066144D01*
X141085701Y-100069291D01*
X141078771Y-100071771D01*
X141071632Y-100073559D01*
X141064351Y-100074639D01*
X141057000Y-100075000D01*
X140907000Y-100075000D01*
X140899649Y-100074639D01*
X140892368Y-100073559D01*
X140885229Y-100071771D01*
X140878299Y-100069291D01*
X140871645Y-100066144D01*
X140865332Y-100062360D01*
X140859421Y-100057976D01*
X140853967Y-100053033D01*
X140849024Y-100047579D01*
X140844640Y-100041668D01*
X140840856Y-100035355D01*
X140837709Y-100028701D01*
X140835229Y-100021771D01*
X140833441Y-100014632D01*
X140832361Y-100007351D01*
X140832000Y-100000000D01*
X140832000Y-99300000D01*
X140832361Y-99292649D01*
X140833441Y-99285368D01*
X140835229Y-99278229D01*
X140837709Y-99271299D01*
X140840856Y-99264645D01*
X140844640Y-99258332D01*
X140849024Y-99252421D01*
X140853967Y-99246967D01*
X140859421Y-99242024D01*
X140865332Y-99237640D01*
X140871645Y-99233856D01*
X140878299Y-99230709D01*
X140885229Y-99228229D01*
X140892368Y-99226441D01*
X140899649Y-99225361D01*
X140907000Y-99225000D01*
X141057000Y-99225000D01*
X141064351Y-99225361D01*
G37*
G36*
X141564351Y-99225361D02*
G01*
X141571632Y-99226441D01*
X141578771Y-99228229D01*
X141585701Y-99230709D01*
X141592355Y-99233856D01*
X141598668Y-99237640D01*
X141604579Y-99242024D01*
X141610033Y-99246967D01*
X141614976Y-99252421D01*
X141619360Y-99258332D01*
X141623144Y-99264645D01*
X141626291Y-99271299D01*
X141628771Y-99278229D01*
X141630559Y-99285368D01*
X141631639Y-99292649D01*
X141632000Y-99300000D01*
X141632000Y-100000000D01*
X141631639Y-100007351D01*
X141630559Y-100014632D01*
X141628771Y-100021771D01*
X141626291Y-100028701D01*
X141623144Y-100035355D01*
X141619360Y-100041668D01*
X141614976Y-100047579D01*
X141610033Y-100053033D01*
X141604579Y-100057976D01*
X141598668Y-100062360D01*
X141592355Y-100066144D01*
X141585701Y-100069291D01*
X141578771Y-100071771D01*
X141571632Y-100073559D01*
X141564351Y-100074639D01*
X141557000Y-100075000D01*
X141407000Y-100075000D01*
X141399649Y-100074639D01*
X141392368Y-100073559D01*
X141385229Y-100071771D01*
X141378299Y-100069291D01*
X141371645Y-100066144D01*
X141365332Y-100062360D01*
X141359421Y-100057976D01*
X141353967Y-100053033D01*
X141349024Y-100047579D01*
X141344640Y-100041668D01*
X141340856Y-100035355D01*
X141337709Y-100028701D01*
X141335229Y-100021771D01*
X141333441Y-100014632D01*
X141332361Y-100007351D01*
X141332000Y-100000000D01*
X141332000Y-99300000D01*
X141332361Y-99292649D01*
X141333441Y-99285368D01*
X141335229Y-99278229D01*
X141337709Y-99271299D01*
X141340856Y-99264645D01*
X141344640Y-99258332D01*
X141349024Y-99252421D01*
X141353967Y-99246967D01*
X141359421Y-99242024D01*
X141365332Y-99237640D01*
X141371645Y-99233856D01*
X141378299Y-99230709D01*
X141385229Y-99228229D01*
X141392368Y-99226441D01*
X141399649Y-99225361D01*
X141407000Y-99225000D01*
X141557000Y-99225000D01*
X141564351Y-99225361D01*
G37*
G36*
X142064351Y-99225361D02*
G01*
X142071632Y-99226441D01*
X142078771Y-99228229D01*
X142085701Y-99230709D01*
X142092355Y-99233856D01*
X142098668Y-99237640D01*
X142104579Y-99242024D01*
X142110033Y-99246967D01*
X142114976Y-99252421D01*
X142119360Y-99258332D01*
X142123144Y-99264645D01*
X142126291Y-99271299D01*
X142128771Y-99278229D01*
X142130559Y-99285368D01*
X142131639Y-99292649D01*
X142132000Y-99300000D01*
X142132000Y-100000000D01*
X142131639Y-100007351D01*
X142130559Y-100014632D01*
X142128771Y-100021771D01*
X142126291Y-100028701D01*
X142123144Y-100035355D01*
X142119360Y-100041668D01*
X142114976Y-100047579D01*
X142110033Y-100053033D01*
X142104579Y-100057976D01*
X142098668Y-100062360D01*
X142092355Y-100066144D01*
X142085701Y-100069291D01*
X142078771Y-100071771D01*
X142071632Y-100073559D01*
X142064351Y-100074639D01*
X142057000Y-100075000D01*
X141907000Y-100075000D01*
X141899649Y-100074639D01*
X141892368Y-100073559D01*
X141885229Y-100071771D01*
X141878299Y-100069291D01*
X141871645Y-100066144D01*
X141865332Y-100062360D01*
X141859421Y-100057976D01*
X141853967Y-100053033D01*
X141849024Y-100047579D01*
X141844640Y-100041668D01*
X141840856Y-100035355D01*
X141837709Y-100028701D01*
X141835229Y-100021771D01*
X141833441Y-100014632D01*
X141832361Y-100007351D01*
X141832000Y-100000000D01*
X141832000Y-99300000D01*
X141832361Y-99292649D01*
X141833441Y-99285368D01*
X141835229Y-99278229D01*
X141837709Y-99271299D01*
X141840856Y-99264645D01*
X141844640Y-99258332D01*
X141849024Y-99252421D01*
X141853967Y-99246967D01*
X141859421Y-99242024D01*
X141865332Y-99237640D01*
X141871645Y-99233856D01*
X141878299Y-99230709D01*
X141885229Y-99228229D01*
X141892368Y-99226441D01*
X141899649Y-99225361D01*
X141907000Y-99225000D01*
X142057000Y-99225000D01*
X142064351Y-99225361D01*
G37*
G36*
X142564351Y-99225361D02*
G01*
X142571632Y-99226441D01*
X142578771Y-99228229D01*
X142585701Y-99230709D01*
X142592355Y-99233856D01*
X142598668Y-99237640D01*
X142604579Y-99242024D01*
X142610033Y-99246967D01*
X142614976Y-99252421D01*
X142619360Y-99258332D01*
X142623144Y-99264645D01*
X142626291Y-99271299D01*
X142628771Y-99278229D01*
X142630559Y-99285368D01*
X142631639Y-99292649D01*
X142632000Y-99300000D01*
X142632000Y-100000000D01*
X142631639Y-100007351D01*
X142630559Y-100014632D01*
X142628771Y-100021771D01*
X142626291Y-100028701D01*
X142623144Y-100035355D01*
X142619360Y-100041668D01*
X142614976Y-100047579D01*
X142610033Y-100053033D01*
X142604579Y-100057976D01*
X142598668Y-100062360D01*
X142592355Y-100066144D01*
X142585701Y-100069291D01*
X142578771Y-100071771D01*
X142571632Y-100073559D01*
X142564351Y-100074639D01*
X142557000Y-100075000D01*
X142407000Y-100075000D01*
X142399649Y-100074639D01*
X142392368Y-100073559D01*
X142385229Y-100071771D01*
X142378299Y-100069291D01*
X142371645Y-100066144D01*
X142365332Y-100062360D01*
X142359421Y-100057976D01*
X142353967Y-100053033D01*
X142349024Y-100047579D01*
X142344640Y-100041668D01*
X142340856Y-100035355D01*
X142337709Y-100028701D01*
X142335229Y-100021771D01*
X142333441Y-100014632D01*
X142332361Y-100007351D01*
X142332000Y-100000000D01*
X142332000Y-99300000D01*
X142332361Y-99292649D01*
X142333441Y-99285368D01*
X142335229Y-99278229D01*
X142337709Y-99271299D01*
X142340856Y-99264645D01*
X142344640Y-99258332D01*
X142349024Y-99252421D01*
X142353967Y-99246967D01*
X142359421Y-99242024D01*
X142365332Y-99237640D01*
X142371645Y-99233856D01*
X142378299Y-99230709D01*
X142385229Y-99228229D01*
X142392368Y-99226441D01*
X142399649Y-99225361D01*
X142407000Y-99225000D01*
X142557000Y-99225000D01*
X142564351Y-99225361D01*
G37*
G36*
X143064351Y-99225361D02*
G01*
X143071632Y-99226441D01*
X143078771Y-99228229D01*
X143085701Y-99230709D01*
X143092355Y-99233856D01*
X143098668Y-99237640D01*
X143104579Y-99242024D01*
X143110033Y-99246967D01*
X143114976Y-99252421D01*
X143119360Y-99258332D01*
X143123144Y-99264645D01*
X143126291Y-99271299D01*
X143128771Y-99278229D01*
X143130559Y-99285368D01*
X143131639Y-99292649D01*
X143132000Y-99300000D01*
X143132000Y-100000000D01*
X143131639Y-100007351D01*
X143130559Y-100014632D01*
X143128771Y-100021771D01*
X143126291Y-100028701D01*
X143123144Y-100035355D01*
X143119360Y-100041668D01*
X143114976Y-100047579D01*
X143110033Y-100053033D01*
X143104579Y-100057976D01*
X143098668Y-100062360D01*
X143092355Y-100066144D01*
X143085701Y-100069291D01*
X143078771Y-100071771D01*
X143071632Y-100073559D01*
X143064351Y-100074639D01*
X143057000Y-100075000D01*
X142907000Y-100075000D01*
X142899649Y-100074639D01*
X142892368Y-100073559D01*
X142885229Y-100071771D01*
X142878299Y-100069291D01*
X142871645Y-100066144D01*
X142865332Y-100062360D01*
X142859421Y-100057976D01*
X142853967Y-100053033D01*
X142849024Y-100047579D01*
X142844640Y-100041668D01*
X142840856Y-100035355D01*
X142837709Y-100028701D01*
X142835229Y-100021771D01*
X142833441Y-100014632D01*
X142832361Y-100007351D01*
X142832000Y-100000000D01*
X142832000Y-99300000D01*
X142832361Y-99292649D01*
X142833441Y-99285368D01*
X142835229Y-99278229D01*
X142837709Y-99271299D01*
X142840856Y-99264645D01*
X142844640Y-99258332D01*
X142849024Y-99252421D01*
X142853967Y-99246967D01*
X142859421Y-99242024D01*
X142865332Y-99237640D01*
X142871645Y-99233856D01*
X142878299Y-99230709D01*
X142885229Y-99228229D01*
X142892368Y-99226441D01*
X142899649Y-99225361D01*
X142907000Y-99225000D01*
X143057000Y-99225000D01*
X143064351Y-99225361D01*
G37*
G36*
X144039351Y-100200361D02*
G01*
X144046632Y-100201441D01*
X144053771Y-100203229D01*
X144060701Y-100205709D01*
X144067355Y-100208856D01*
X144073668Y-100212640D01*
X144079579Y-100217024D01*
X144085033Y-100221967D01*
X144089976Y-100227421D01*
X144094360Y-100233332D01*
X144098144Y-100239645D01*
X144101291Y-100246299D01*
X144103771Y-100253229D01*
X144105559Y-100260368D01*
X144106639Y-100267649D01*
X144107000Y-100275000D01*
X144107000Y-100425000D01*
X144106639Y-100432351D01*
X144105559Y-100439632D01*
X144103771Y-100446771D01*
X144101291Y-100453701D01*
X144098144Y-100460355D01*
X144094360Y-100466668D01*
X144089976Y-100472579D01*
X144085033Y-100478033D01*
X144079579Y-100482976D01*
X144073668Y-100487360D01*
X144067355Y-100491144D01*
X144060701Y-100494291D01*
X144053771Y-100496771D01*
X144046632Y-100498559D01*
X144039351Y-100499639D01*
X144032000Y-100500000D01*
X143332000Y-100500000D01*
X143324649Y-100499639D01*
X143317368Y-100498559D01*
X143310229Y-100496771D01*
X143303299Y-100494291D01*
X143296645Y-100491144D01*
X143290332Y-100487360D01*
X143284421Y-100482976D01*
X143278967Y-100478033D01*
X143274024Y-100472579D01*
X143269640Y-100466668D01*
X143265856Y-100460355D01*
X143262709Y-100453701D01*
X143260229Y-100446771D01*
X143258441Y-100439632D01*
X143257361Y-100432351D01*
X143257000Y-100425000D01*
X143257000Y-100275000D01*
X143257361Y-100267649D01*
X143258441Y-100260368D01*
X143260229Y-100253229D01*
X143262709Y-100246299D01*
X143265856Y-100239645D01*
X143269640Y-100233332D01*
X143274024Y-100227421D01*
X143278967Y-100221967D01*
X143284421Y-100217024D01*
X143290332Y-100212640D01*
X143296645Y-100208856D01*
X143303299Y-100205709D01*
X143310229Y-100203229D01*
X143317368Y-100201441D01*
X143324649Y-100200361D01*
X143332000Y-100200000D01*
X144032000Y-100200000D01*
X144039351Y-100200361D01*
G37*
G36*
X144039351Y-100700361D02*
G01*
X144046632Y-100701441D01*
X144053771Y-100703229D01*
X144060701Y-100705709D01*
X144067355Y-100708856D01*
X144073668Y-100712640D01*
X144079579Y-100717024D01*
X144085033Y-100721967D01*
X144089976Y-100727421D01*
X144094360Y-100733332D01*
X144098144Y-100739645D01*
X144101291Y-100746299D01*
X144103771Y-100753229D01*
X144105559Y-100760368D01*
X144106639Y-100767649D01*
X144107000Y-100775000D01*
X144107000Y-100925000D01*
X144106639Y-100932351D01*
X144105559Y-100939632D01*
X144103771Y-100946771D01*
X144101291Y-100953701D01*
X144098144Y-100960355D01*
X144094360Y-100966668D01*
X144089976Y-100972579D01*
X144085033Y-100978033D01*
X144079579Y-100982976D01*
X144073668Y-100987360D01*
X144067355Y-100991144D01*
X144060701Y-100994291D01*
X144053771Y-100996771D01*
X144046632Y-100998559D01*
X144039351Y-100999639D01*
X144032000Y-101000000D01*
X143332000Y-101000000D01*
X143324649Y-100999639D01*
X143317368Y-100998559D01*
X143310229Y-100996771D01*
X143303299Y-100994291D01*
X143296645Y-100991144D01*
X143290332Y-100987360D01*
X143284421Y-100982976D01*
X143278967Y-100978033D01*
X143274024Y-100972579D01*
X143269640Y-100966668D01*
X143265856Y-100960355D01*
X143262709Y-100953701D01*
X143260229Y-100946771D01*
X143258441Y-100939632D01*
X143257361Y-100932351D01*
X143257000Y-100925000D01*
X143257000Y-100775000D01*
X143257361Y-100767649D01*
X143258441Y-100760368D01*
X143260229Y-100753229D01*
X143262709Y-100746299D01*
X143265856Y-100739645D01*
X143269640Y-100733332D01*
X143274024Y-100727421D01*
X143278967Y-100721967D01*
X143284421Y-100717024D01*
X143290332Y-100712640D01*
X143296645Y-100708856D01*
X143303299Y-100705709D01*
X143310229Y-100703229D01*
X143317368Y-100701441D01*
X143324649Y-100700361D01*
X143332000Y-100700000D01*
X144032000Y-100700000D01*
X144039351Y-100700361D01*
G37*
G36*
X144039351Y-101200361D02*
G01*
X144046632Y-101201441D01*
X144053771Y-101203229D01*
X144060701Y-101205709D01*
X144067355Y-101208856D01*
X144073668Y-101212640D01*
X144079579Y-101217024D01*
X144085033Y-101221967D01*
X144089976Y-101227421D01*
X144094360Y-101233332D01*
X144098144Y-101239645D01*
X144101291Y-101246299D01*
X144103771Y-101253229D01*
X144105559Y-101260368D01*
X144106639Y-101267649D01*
X144107000Y-101275000D01*
X144107000Y-101425000D01*
X144106639Y-101432351D01*
X144105559Y-101439632D01*
X144103771Y-101446771D01*
X144101291Y-101453701D01*
X144098144Y-101460355D01*
X144094360Y-101466668D01*
X144089976Y-101472579D01*
X144085033Y-101478033D01*
X144079579Y-101482976D01*
X144073668Y-101487360D01*
X144067355Y-101491144D01*
X144060701Y-101494291D01*
X144053771Y-101496771D01*
X144046632Y-101498559D01*
X144039351Y-101499639D01*
X144032000Y-101500000D01*
X143332000Y-101500000D01*
X143324649Y-101499639D01*
X143317368Y-101498559D01*
X143310229Y-101496771D01*
X143303299Y-101494291D01*
X143296645Y-101491144D01*
X143290332Y-101487360D01*
X143284421Y-101482976D01*
X143278967Y-101478033D01*
X143274024Y-101472579D01*
X143269640Y-101466668D01*
X143265856Y-101460355D01*
X143262709Y-101453701D01*
X143260229Y-101446771D01*
X143258441Y-101439632D01*
X143257361Y-101432351D01*
X143257000Y-101425000D01*
X143257000Y-101275000D01*
X143257361Y-101267649D01*
X143258441Y-101260368D01*
X143260229Y-101253229D01*
X143262709Y-101246299D01*
X143265856Y-101239645D01*
X143269640Y-101233332D01*
X143274024Y-101227421D01*
X143278967Y-101221967D01*
X143284421Y-101217024D01*
X143290332Y-101212640D01*
X143296645Y-101208856D01*
X143303299Y-101205709D01*
X143310229Y-101203229D01*
X143317368Y-101201441D01*
X143324649Y-101200361D01*
X143332000Y-101200000D01*
X144032000Y-101200000D01*
X144039351Y-101200361D01*
G37*
G36*
X144039351Y-101700361D02*
G01*
X144046632Y-101701441D01*
X144053771Y-101703229D01*
X144060701Y-101705709D01*
X144067355Y-101708856D01*
X144073668Y-101712640D01*
X144079579Y-101717024D01*
X144085033Y-101721967D01*
X144089976Y-101727421D01*
X144094360Y-101733332D01*
X144098144Y-101739645D01*
X144101291Y-101746299D01*
X144103771Y-101753229D01*
X144105559Y-101760368D01*
X144106639Y-101767649D01*
X144107000Y-101775000D01*
X144107000Y-101925000D01*
X144106639Y-101932351D01*
X144105559Y-101939632D01*
X144103771Y-101946771D01*
X144101291Y-101953701D01*
X144098144Y-101960355D01*
X144094360Y-101966668D01*
X144089976Y-101972579D01*
X144085033Y-101978033D01*
X144079579Y-101982976D01*
X144073668Y-101987360D01*
X144067355Y-101991144D01*
X144060701Y-101994291D01*
X144053771Y-101996771D01*
X144046632Y-101998559D01*
X144039351Y-101999639D01*
X144032000Y-102000000D01*
X143332000Y-102000000D01*
X143324649Y-101999639D01*
X143317368Y-101998559D01*
X143310229Y-101996771D01*
X143303299Y-101994291D01*
X143296645Y-101991144D01*
X143290332Y-101987360D01*
X143284421Y-101982976D01*
X143278967Y-101978033D01*
X143274024Y-101972579D01*
X143269640Y-101966668D01*
X143265856Y-101960355D01*
X143262709Y-101953701D01*
X143260229Y-101946771D01*
X143258441Y-101939632D01*
X143257361Y-101932351D01*
X143257000Y-101925000D01*
X143257000Y-101775000D01*
X143257361Y-101767649D01*
X143258441Y-101760368D01*
X143260229Y-101753229D01*
X143262709Y-101746299D01*
X143265856Y-101739645D01*
X143269640Y-101733332D01*
X143274024Y-101727421D01*
X143278967Y-101721967D01*
X143284421Y-101717024D01*
X143290332Y-101712640D01*
X143296645Y-101708856D01*
X143303299Y-101705709D01*
X143310229Y-101703229D01*
X143317368Y-101701441D01*
X143324649Y-101700361D01*
X143332000Y-101700000D01*
X144032000Y-101700000D01*
X144039351Y-101700361D01*
G37*
G36*
X144039351Y-102200361D02*
G01*
X144046632Y-102201441D01*
X144053771Y-102203229D01*
X144060701Y-102205709D01*
X144067355Y-102208856D01*
X144073668Y-102212640D01*
X144079579Y-102217024D01*
X144085033Y-102221967D01*
X144089976Y-102227421D01*
X144094360Y-102233332D01*
X144098144Y-102239645D01*
X144101291Y-102246299D01*
X144103771Y-102253229D01*
X144105559Y-102260368D01*
X144106639Y-102267649D01*
X144107000Y-102275000D01*
X144107000Y-102425000D01*
X144106639Y-102432351D01*
X144105559Y-102439632D01*
X144103771Y-102446771D01*
X144101291Y-102453701D01*
X144098144Y-102460355D01*
X144094360Y-102466668D01*
X144089976Y-102472579D01*
X144085033Y-102478033D01*
X144079579Y-102482976D01*
X144073668Y-102487360D01*
X144067355Y-102491144D01*
X144060701Y-102494291D01*
X144053771Y-102496771D01*
X144046632Y-102498559D01*
X144039351Y-102499639D01*
X144032000Y-102500000D01*
X143332000Y-102500000D01*
X143324649Y-102499639D01*
X143317368Y-102498559D01*
X143310229Y-102496771D01*
X143303299Y-102494291D01*
X143296645Y-102491144D01*
X143290332Y-102487360D01*
X143284421Y-102482976D01*
X143278967Y-102478033D01*
X143274024Y-102472579D01*
X143269640Y-102466668D01*
X143265856Y-102460355D01*
X143262709Y-102453701D01*
X143260229Y-102446771D01*
X143258441Y-102439632D01*
X143257361Y-102432351D01*
X143257000Y-102425000D01*
X143257000Y-102275000D01*
X143257361Y-102267649D01*
X143258441Y-102260368D01*
X143260229Y-102253229D01*
X143262709Y-102246299D01*
X143265856Y-102239645D01*
X143269640Y-102233332D01*
X143274024Y-102227421D01*
X143278967Y-102221967D01*
X143284421Y-102217024D01*
X143290332Y-102212640D01*
X143296645Y-102208856D01*
X143303299Y-102205709D01*
X143310229Y-102203229D01*
X143317368Y-102201441D01*
X143324649Y-102200361D01*
X143332000Y-102200000D01*
X144032000Y-102200000D01*
X144039351Y-102200361D01*
G37*
G36*
X144039351Y-102700361D02*
G01*
X144046632Y-102701441D01*
X144053771Y-102703229D01*
X144060701Y-102705709D01*
X144067355Y-102708856D01*
X144073668Y-102712640D01*
X144079579Y-102717024D01*
X144085033Y-102721967D01*
X144089976Y-102727421D01*
X144094360Y-102733332D01*
X144098144Y-102739645D01*
X144101291Y-102746299D01*
X144103771Y-102753229D01*
X144105559Y-102760368D01*
X144106639Y-102767649D01*
X144107000Y-102775000D01*
X144107000Y-102925000D01*
X144106639Y-102932351D01*
X144105559Y-102939632D01*
X144103771Y-102946771D01*
X144101291Y-102953701D01*
X144098144Y-102960355D01*
X144094360Y-102966668D01*
X144089976Y-102972579D01*
X144085033Y-102978033D01*
X144079579Y-102982976D01*
X144073668Y-102987360D01*
X144067355Y-102991144D01*
X144060701Y-102994291D01*
X144053771Y-102996771D01*
X144046632Y-102998559D01*
X144039351Y-102999639D01*
X144032000Y-103000000D01*
X143332000Y-103000000D01*
X143324649Y-102999639D01*
X143317368Y-102998559D01*
X143310229Y-102996771D01*
X143303299Y-102994291D01*
X143296645Y-102991144D01*
X143290332Y-102987360D01*
X143284421Y-102982976D01*
X143278967Y-102978033D01*
X143274024Y-102972579D01*
X143269640Y-102966668D01*
X143265856Y-102960355D01*
X143262709Y-102953701D01*
X143260229Y-102946771D01*
X143258441Y-102939632D01*
X143257361Y-102932351D01*
X143257000Y-102925000D01*
X143257000Y-102775000D01*
X143257361Y-102767649D01*
X143258441Y-102760368D01*
X143260229Y-102753229D01*
X143262709Y-102746299D01*
X143265856Y-102739645D01*
X143269640Y-102733332D01*
X143274024Y-102727421D01*
X143278967Y-102721967D01*
X143284421Y-102717024D01*
X143290332Y-102712640D01*
X143296645Y-102708856D01*
X143303299Y-102705709D01*
X143310229Y-102703229D01*
X143317368Y-102701441D01*
X143324649Y-102700361D01*
X143332000Y-102700000D01*
X144032000Y-102700000D01*
X144039351Y-102700361D01*
G37*
G36*
X143064351Y-103125361D02*
G01*
X143071632Y-103126441D01*
X143078771Y-103128229D01*
X143085701Y-103130709D01*
X143092355Y-103133856D01*
X143098668Y-103137640D01*
X143104579Y-103142024D01*
X143110033Y-103146967D01*
X143114976Y-103152421D01*
X143119360Y-103158332D01*
X143123144Y-103164645D01*
X143126291Y-103171299D01*
X143128771Y-103178229D01*
X143130559Y-103185368D01*
X143131639Y-103192649D01*
X143132000Y-103200000D01*
X143132000Y-103900000D01*
X143131639Y-103907351D01*
X143130559Y-103914632D01*
X143128771Y-103921771D01*
X143126291Y-103928701D01*
X143123144Y-103935355D01*
X143119360Y-103941668D01*
X143114976Y-103947579D01*
X143110033Y-103953033D01*
X143104579Y-103957976D01*
X143098668Y-103962360D01*
X143092355Y-103966144D01*
X143085701Y-103969291D01*
X143078771Y-103971771D01*
X143071632Y-103973559D01*
X143064351Y-103974639D01*
X143057000Y-103975000D01*
X142907000Y-103975000D01*
X142899649Y-103974639D01*
X142892368Y-103973559D01*
X142885229Y-103971771D01*
X142878299Y-103969291D01*
X142871645Y-103966144D01*
X142865332Y-103962360D01*
X142859421Y-103957976D01*
X142853967Y-103953033D01*
X142849024Y-103947579D01*
X142844640Y-103941668D01*
X142840856Y-103935355D01*
X142837709Y-103928701D01*
X142835229Y-103921771D01*
X142833441Y-103914632D01*
X142832361Y-103907351D01*
X142832000Y-103900000D01*
X142832000Y-103200000D01*
X142832361Y-103192649D01*
X142833441Y-103185368D01*
X142835229Y-103178229D01*
X142837709Y-103171299D01*
X142840856Y-103164645D01*
X142844640Y-103158332D01*
X142849024Y-103152421D01*
X142853967Y-103146967D01*
X142859421Y-103142024D01*
X142865332Y-103137640D01*
X142871645Y-103133856D01*
X142878299Y-103130709D01*
X142885229Y-103128229D01*
X142892368Y-103126441D01*
X142899649Y-103125361D01*
X142907000Y-103125000D01*
X143057000Y-103125000D01*
X143064351Y-103125361D01*
G37*
G36*
X142564351Y-103125361D02*
G01*
X142571632Y-103126441D01*
X142578771Y-103128229D01*
X142585701Y-103130709D01*
X142592355Y-103133856D01*
X142598668Y-103137640D01*
X142604579Y-103142024D01*
X142610033Y-103146967D01*
X142614976Y-103152421D01*
X142619360Y-103158332D01*
X142623144Y-103164645D01*
X142626291Y-103171299D01*
X142628771Y-103178229D01*
X142630559Y-103185368D01*
X142631639Y-103192649D01*
X142632000Y-103200000D01*
X142632000Y-103900000D01*
X142631639Y-103907351D01*
X142630559Y-103914632D01*
X142628771Y-103921771D01*
X142626291Y-103928701D01*
X142623144Y-103935355D01*
X142619360Y-103941668D01*
X142614976Y-103947579D01*
X142610033Y-103953033D01*
X142604579Y-103957976D01*
X142598668Y-103962360D01*
X142592355Y-103966144D01*
X142585701Y-103969291D01*
X142578771Y-103971771D01*
X142571632Y-103973559D01*
X142564351Y-103974639D01*
X142557000Y-103975000D01*
X142407000Y-103975000D01*
X142399649Y-103974639D01*
X142392368Y-103973559D01*
X142385229Y-103971771D01*
X142378299Y-103969291D01*
X142371645Y-103966144D01*
X142365332Y-103962360D01*
X142359421Y-103957976D01*
X142353967Y-103953033D01*
X142349024Y-103947579D01*
X142344640Y-103941668D01*
X142340856Y-103935355D01*
X142337709Y-103928701D01*
X142335229Y-103921771D01*
X142333441Y-103914632D01*
X142332361Y-103907351D01*
X142332000Y-103900000D01*
X142332000Y-103200000D01*
X142332361Y-103192649D01*
X142333441Y-103185368D01*
X142335229Y-103178229D01*
X142337709Y-103171299D01*
X142340856Y-103164645D01*
X142344640Y-103158332D01*
X142349024Y-103152421D01*
X142353967Y-103146967D01*
X142359421Y-103142024D01*
X142365332Y-103137640D01*
X142371645Y-103133856D01*
X142378299Y-103130709D01*
X142385229Y-103128229D01*
X142392368Y-103126441D01*
X142399649Y-103125361D01*
X142407000Y-103125000D01*
X142557000Y-103125000D01*
X142564351Y-103125361D01*
G37*
G36*
X142064351Y-103125361D02*
G01*
X142071632Y-103126441D01*
X142078771Y-103128229D01*
X142085701Y-103130709D01*
X142092355Y-103133856D01*
X142098668Y-103137640D01*
X142104579Y-103142024D01*
X142110033Y-103146967D01*
X142114976Y-103152421D01*
X142119360Y-103158332D01*
X142123144Y-103164645D01*
X142126291Y-103171299D01*
X142128771Y-103178229D01*
X142130559Y-103185368D01*
X142131639Y-103192649D01*
X142132000Y-103200000D01*
X142132000Y-103900000D01*
X142131639Y-103907351D01*
X142130559Y-103914632D01*
X142128771Y-103921771D01*
X142126291Y-103928701D01*
X142123144Y-103935355D01*
X142119360Y-103941668D01*
X142114976Y-103947579D01*
X142110033Y-103953033D01*
X142104579Y-103957976D01*
X142098668Y-103962360D01*
X142092355Y-103966144D01*
X142085701Y-103969291D01*
X142078771Y-103971771D01*
X142071632Y-103973559D01*
X142064351Y-103974639D01*
X142057000Y-103975000D01*
X141907000Y-103975000D01*
X141899649Y-103974639D01*
X141892368Y-103973559D01*
X141885229Y-103971771D01*
X141878299Y-103969291D01*
X141871645Y-103966144D01*
X141865332Y-103962360D01*
X141859421Y-103957976D01*
X141853967Y-103953033D01*
X141849024Y-103947579D01*
X141844640Y-103941668D01*
X141840856Y-103935355D01*
X141837709Y-103928701D01*
X141835229Y-103921771D01*
X141833441Y-103914632D01*
X141832361Y-103907351D01*
X141832000Y-103900000D01*
X141832000Y-103200000D01*
X141832361Y-103192649D01*
X141833441Y-103185368D01*
X141835229Y-103178229D01*
X141837709Y-103171299D01*
X141840856Y-103164645D01*
X141844640Y-103158332D01*
X141849024Y-103152421D01*
X141853967Y-103146967D01*
X141859421Y-103142024D01*
X141865332Y-103137640D01*
X141871645Y-103133856D01*
X141878299Y-103130709D01*
X141885229Y-103128229D01*
X141892368Y-103126441D01*
X141899649Y-103125361D01*
X141907000Y-103125000D01*
X142057000Y-103125000D01*
X142064351Y-103125361D01*
G37*
G36*
X141564351Y-103125361D02*
G01*
X141571632Y-103126441D01*
X141578771Y-103128229D01*
X141585701Y-103130709D01*
X141592355Y-103133856D01*
X141598668Y-103137640D01*
X141604579Y-103142024D01*
X141610033Y-103146967D01*
X141614976Y-103152421D01*
X141619360Y-103158332D01*
X141623144Y-103164645D01*
X141626291Y-103171299D01*
X141628771Y-103178229D01*
X141630559Y-103185368D01*
X141631639Y-103192649D01*
X141632000Y-103200000D01*
X141632000Y-103900000D01*
X141631639Y-103907351D01*
X141630559Y-103914632D01*
X141628771Y-103921771D01*
X141626291Y-103928701D01*
X141623144Y-103935355D01*
X141619360Y-103941668D01*
X141614976Y-103947579D01*
X141610033Y-103953033D01*
X141604579Y-103957976D01*
X141598668Y-103962360D01*
X141592355Y-103966144D01*
X141585701Y-103969291D01*
X141578771Y-103971771D01*
X141571632Y-103973559D01*
X141564351Y-103974639D01*
X141557000Y-103975000D01*
X141407000Y-103975000D01*
X141399649Y-103974639D01*
X141392368Y-103973559D01*
X141385229Y-103971771D01*
X141378299Y-103969291D01*
X141371645Y-103966144D01*
X141365332Y-103962360D01*
X141359421Y-103957976D01*
X141353967Y-103953033D01*
X141349024Y-103947579D01*
X141344640Y-103941668D01*
X141340856Y-103935355D01*
X141337709Y-103928701D01*
X141335229Y-103921771D01*
X141333441Y-103914632D01*
X141332361Y-103907351D01*
X141332000Y-103900000D01*
X141332000Y-103200000D01*
X141332361Y-103192649D01*
X141333441Y-103185368D01*
X141335229Y-103178229D01*
X141337709Y-103171299D01*
X141340856Y-103164645D01*
X141344640Y-103158332D01*
X141349024Y-103152421D01*
X141353967Y-103146967D01*
X141359421Y-103142024D01*
X141365332Y-103137640D01*
X141371645Y-103133856D01*
X141378299Y-103130709D01*
X141385229Y-103128229D01*
X141392368Y-103126441D01*
X141399649Y-103125361D01*
X141407000Y-103125000D01*
X141557000Y-103125000D01*
X141564351Y-103125361D01*
G37*
G36*
X141064351Y-103125361D02*
G01*
X141071632Y-103126441D01*
X141078771Y-103128229D01*
X141085701Y-103130709D01*
X141092355Y-103133856D01*
X141098668Y-103137640D01*
X141104579Y-103142024D01*
X141110033Y-103146967D01*
X141114976Y-103152421D01*
X141119360Y-103158332D01*
X141123144Y-103164645D01*
X141126291Y-103171299D01*
X141128771Y-103178229D01*
X141130559Y-103185368D01*
X141131639Y-103192649D01*
X141132000Y-103200000D01*
X141132000Y-103900000D01*
X141131639Y-103907351D01*
X141130559Y-103914632D01*
X141128771Y-103921771D01*
X141126291Y-103928701D01*
X141123144Y-103935355D01*
X141119360Y-103941668D01*
X141114976Y-103947579D01*
X141110033Y-103953033D01*
X141104579Y-103957976D01*
X141098668Y-103962360D01*
X141092355Y-103966144D01*
X141085701Y-103969291D01*
X141078771Y-103971771D01*
X141071632Y-103973559D01*
X141064351Y-103974639D01*
X141057000Y-103975000D01*
X140907000Y-103975000D01*
X140899649Y-103974639D01*
X140892368Y-103973559D01*
X140885229Y-103971771D01*
X140878299Y-103969291D01*
X140871645Y-103966144D01*
X140865332Y-103962360D01*
X140859421Y-103957976D01*
X140853967Y-103953033D01*
X140849024Y-103947579D01*
X140844640Y-103941668D01*
X140840856Y-103935355D01*
X140837709Y-103928701D01*
X140835229Y-103921771D01*
X140833441Y-103914632D01*
X140832361Y-103907351D01*
X140832000Y-103900000D01*
X140832000Y-103200000D01*
X140832361Y-103192649D01*
X140833441Y-103185368D01*
X140835229Y-103178229D01*
X140837709Y-103171299D01*
X140840856Y-103164645D01*
X140844640Y-103158332D01*
X140849024Y-103152421D01*
X140853967Y-103146967D01*
X140859421Y-103142024D01*
X140865332Y-103137640D01*
X140871645Y-103133856D01*
X140878299Y-103130709D01*
X140885229Y-103128229D01*
X140892368Y-103126441D01*
X140899649Y-103125361D01*
X140907000Y-103125000D01*
X141057000Y-103125000D01*
X141064351Y-103125361D01*
G37*
G36*
X140564351Y-103125361D02*
G01*
X140571632Y-103126441D01*
X140578771Y-103128229D01*
X140585701Y-103130709D01*
X140592355Y-103133856D01*
X140598668Y-103137640D01*
X140604579Y-103142024D01*
X140610033Y-103146967D01*
X140614976Y-103152421D01*
X140619360Y-103158332D01*
X140623144Y-103164645D01*
X140626291Y-103171299D01*
X140628771Y-103178229D01*
X140630559Y-103185368D01*
X140631639Y-103192649D01*
X140632000Y-103200000D01*
X140632000Y-103900000D01*
X140631639Y-103907351D01*
X140630559Y-103914632D01*
X140628771Y-103921771D01*
X140626291Y-103928701D01*
X140623144Y-103935355D01*
X140619360Y-103941668D01*
X140614976Y-103947579D01*
X140610033Y-103953033D01*
X140604579Y-103957976D01*
X140598668Y-103962360D01*
X140592355Y-103966144D01*
X140585701Y-103969291D01*
X140578771Y-103971771D01*
X140571632Y-103973559D01*
X140564351Y-103974639D01*
X140557000Y-103975000D01*
X140407000Y-103975000D01*
X140399649Y-103974639D01*
X140392368Y-103973559D01*
X140385229Y-103971771D01*
X140378299Y-103969291D01*
X140371645Y-103966144D01*
X140365332Y-103962360D01*
X140359421Y-103957976D01*
X140353967Y-103953033D01*
X140349024Y-103947579D01*
X140344640Y-103941668D01*
X140340856Y-103935355D01*
X140337709Y-103928701D01*
X140335229Y-103921771D01*
X140333441Y-103914632D01*
X140332361Y-103907351D01*
X140332000Y-103900000D01*
X140332000Y-103200000D01*
X140332361Y-103192649D01*
X140333441Y-103185368D01*
X140335229Y-103178229D01*
X140337709Y-103171299D01*
X140340856Y-103164645D01*
X140344640Y-103158332D01*
X140349024Y-103152421D01*
X140353967Y-103146967D01*
X140359421Y-103142024D01*
X140365332Y-103137640D01*
X140371645Y-103133856D01*
X140378299Y-103130709D01*
X140385229Y-103128229D01*
X140392368Y-103126441D01*
X140399649Y-103125361D01*
X140407000Y-103125000D01*
X140557000Y-103125000D01*
X140564351Y-103125361D01*
G37*
G36*
X140139351Y-102700361D02*
G01*
X140146632Y-102701441D01*
X140153771Y-102703229D01*
X140160701Y-102705709D01*
X140167355Y-102708856D01*
X140173668Y-102712640D01*
X140179579Y-102717024D01*
X140185033Y-102721967D01*
X140189976Y-102727421D01*
X140194360Y-102733332D01*
X140198144Y-102739645D01*
X140201291Y-102746299D01*
X140203771Y-102753229D01*
X140205559Y-102760368D01*
X140206639Y-102767649D01*
X140207000Y-102775000D01*
X140207000Y-102925000D01*
X140206639Y-102932351D01*
X140205559Y-102939632D01*
X140203771Y-102946771D01*
X140201291Y-102953701D01*
X140198144Y-102960355D01*
X140194360Y-102966668D01*
X140189976Y-102972579D01*
X140185033Y-102978033D01*
X140179579Y-102982976D01*
X140173668Y-102987360D01*
X140167355Y-102991144D01*
X140160701Y-102994291D01*
X140153771Y-102996771D01*
X140146632Y-102998559D01*
X140139351Y-102999639D01*
X140132000Y-103000000D01*
X139432000Y-103000000D01*
X139424649Y-102999639D01*
X139417368Y-102998559D01*
X139410229Y-102996771D01*
X139403299Y-102994291D01*
X139396645Y-102991144D01*
X139390332Y-102987360D01*
X139384421Y-102982976D01*
X139378967Y-102978033D01*
X139374024Y-102972579D01*
X139369640Y-102966668D01*
X139365856Y-102960355D01*
X139362709Y-102953701D01*
X139360229Y-102946771D01*
X139358441Y-102939632D01*
X139357361Y-102932351D01*
X139357000Y-102925000D01*
X139357000Y-102775000D01*
X139357361Y-102767649D01*
X139358441Y-102760368D01*
X139360229Y-102753229D01*
X139362709Y-102746299D01*
X139365856Y-102739645D01*
X139369640Y-102733332D01*
X139374024Y-102727421D01*
X139378967Y-102721967D01*
X139384421Y-102717024D01*
X139390332Y-102712640D01*
X139396645Y-102708856D01*
X139403299Y-102705709D01*
X139410229Y-102703229D01*
X139417368Y-102701441D01*
X139424649Y-102700361D01*
X139432000Y-102700000D01*
X140132000Y-102700000D01*
X140139351Y-102700361D01*
G37*
G36*
X140139351Y-102200361D02*
G01*
X140146632Y-102201441D01*
X140153771Y-102203229D01*
X140160701Y-102205709D01*
X140167355Y-102208856D01*
X140173668Y-102212640D01*
X140179579Y-102217024D01*
X140185033Y-102221967D01*
X140189976Y-102227421D01*
X140194360Y-102233332D01*
X140198144Y-102239645D01*
X140201291Y-102246299D01*
X140203771Y-102253229D01*
X140205559Y-102260368D01*
X140206639Y-102267649D01*
X140207000Y-102275000D01*
X140207000Y-102425000D01*
X140206639Y-102432351D01*
X140205559Y-102439632D01*
X140203771Y-102446771D01*
X140201291Y-102453701D01*
X140198144Y-102460355D01*
X140194360Y-102466668D01*
X140189976Y-102472579D01*
X140185033Y-102478033D01*
X140179579Y-102482976D01*
X140173668Y-102487360D01*
X140167355Y-102491144D01*
X140160701Y-102494291D01*
X140153771Y-102496771D01*
X140146632Y-102498559D01*
X140139351Y-102499639D01*
X140132000Y-102500000D01*
X139432000Y-102500000D01*
X139424649Y-102499639D01*
X139417368Y-102498559D01*
X139410229Y-102496771D01*
X139403299Y-102494291D01*
X139396645Y-102491144D01*
X139390332Y-102487360D01*
X139384421Y-102482976D01*
X139378967Y-102478033D01*
X139374024Y-102472579D01*
X139369640Y-102466668D01*
X139365856Y-102460355D01*
X139362709Y-102453701D01*
X139360229Y-102446771D01*
X139358441Y-102439632D01*
X139357361Y-102432351D01*
X139357000Y-102425000D01*
X139357000Y-102275000D01*
X139357361Y-102267649D01*
X139358441Y-102260368D01*
X139360229Y-102253229D01*
X139362709Y-102246299D01*
X139365856Y-102239645D01*
X139369640Y-102233332D01*
X139374024Y-102227421D01*
X139378967Y-102221967D01*
X139384421Y-102217024D01*
X139390332Y-102212640D01*
X139396645Y-102208856D01*
X139403299Y-102205709D01*
X139410229Y-102203229D01*
X139417368Y-102201441D01*
X139424649Y-102200361D01*
X139432000Y-102200000D01*
X140132000Y-102200000D01*
X140139351Y-102200361D01*
G37*
G36*
X140139351Y-101700361D02*
G01*
X140146632Y-101701441D01*
X140153771Y-101703229D01*
X140160701Y-101705709D01*
X140167355Y-101708856D01*
X140173668Y-101712640D01*
X140179579Y-101717024D01*
X140185033Y-101721967D01*
X140189976Y-101727421D01*
X140194360Y-101733332D01*
X140198144Y-101739645D01*
X140201291Y-101746299D01*
X140203771Y-101753229D01*
X140205559Y-101760368D01*
X140206639Y-101767649D01*
X140207000Y-101775000D01*
X140207000Y-101925000D01*
X140206639Y-101932351D01*
X140205559Y-101939632D01*
X140203771Y-101946771D01*
X140201291Y-101953701D01*
X140198144Y-101960355D01*
X140194360Y-101966668D01*
X140189976Y-101972579D01*
X140185033Y-101978033D01*
X140179579Y-101982976D01*
X140173668Y-101987360D01*
X140167355Y-101991144D01*
X140160701Y-101994291D01*
X140153771Y-101996771D01*
X140146632Y-101998559D01*
X140139351Y-101999639D01*
X140132000Y-102000000D01*
X139432000Y-102000000D01*
X139424649Y-101999639D01*
X139417368Y-101998559D01*
X139410229Y-101996771D01*
X139403299Y-101994291D01*
X139396645Y-101991144D01*
X139390332Y-101987360D01*
X139384421Y-101982976D01*
X139378967Y-101978033D01*
X139374024Y-101972579D01*
X139369640Y-101966668D01*
X139365856Y-101960355D01*
X139362709Y-101953701D01*
X139360229Y-101946771D01*
X139358441Y-101939632D01*
X139357361Y-101932351D01*
X139357000Y-101925000D01*
X139357000Y-101775000D01*
X139357361Y-101767649D01*
X139358441Y-101760368D01*
X139360229Y-101753229D01*
X139362709Y-101746299D01*
X139365856Y-101739645D01*
X139369640Y-101733332D01*
X139374024Y-101727421D01*
X139378967Y-101721967D01*
X139384421Y-101717024D01*
X139390332Y-101712640D01*
X139396645Y-101708856D01*
X139403299Y-101705709D01*
X139410229Y-101703229D01*
X139417368Y-101701441D01*
X139424649Y-101700361D01*
X139432000Y-101700000D01*
X140132000Y-101700000D01*
X140139351Y-101700361D01*
G37*
G36*
X140139351Y-101200361D02*
G01*
X140146632Y-101201441D01*
X140153771Y-101203229D01*
X140160701Y-101205709D01*
X140167355Y-101208856D01*
X140173668Y-101212640D01*
X140179579Y-101217024D01*
X140185033Y-101221967D01*
X140189976Y-101227421D01*
X140194360Y-101233332D01*
X140198144Y-101239645D01*
X140201291Y-101246299D01*
X140203771Y-101253229D01*
X140205559Y-101260368D01*
X140206639Y-101267649D01*
X140207000Y-101275000D01*
X140207000Y-101425000D01*
X140206639Y-101432351D01*
X140205559Y-101439632D01*
X140203771Y-101446771D01*
X140201291Y-101453701D01*
X140198144Y-101460355D01*
X140194360Y-101466668D01*
X140189976Y-101472579D01*
X140185033Y-101478033D01*
X140179579Y-101482976D01*
X140173668Y-101487360D01*
X140167355Y-101491144D01*
X140160701Y-101494291D01*
X140153771Y-101496771D01*
X140146632Y-101498559D01*
X140139351Y-101499639D01*
X140132000Y-101500000D01*
X139432000Y-101500000D01*
X139424649Y-101499639D01*
X139417368Y-101498559D01*
X139410229Y-101496771D01*
X139403299Y-101494291D01*
X139396645Y-101491144D01*
X139390332Y-101487360D01*
X139384421Y-101482976D01*
X139378967Y-101478033D01*
X139374024Y-101472579D01*
X139369640Y-101466668D01*
X139365856Y-101460355D01*
X139362709Y-101453701D01*
X139360229Y-101446771D01*
X139358441Y-101439632D01*
X139357361Y-101432351D01*
X139357000Y-101425000D01*
X139357000Y-101275000D01*
X139357361Y-101267649D01*
X139358441Y-101260368D01*
X139360229Y-101253229D01*
X139362709Y-101246299D01*
X139365856Y-101239645D01*
X139369640Y-101233332D01*
X139374024Y-101227421D01*
X139378967Y-101221967D01*
X139384421Y-101217024D01*
X139390332Y-101212640D01*
X139396645Y-101208856D01*
X139403299Y-101205709D01*
X139410229Y-101203229D01*
X139417368Y-101201441D01*
X139424649Y-101200361D01*
X139432000Y-101200000D01*
X140132000Y-101200000D01*
X140139351Y-101200361D01*
G37*
G36*
X140139351Y-100700361D02*
G01*
X140146632Y-100701441D01*
X140153771Y-100703229D01*
X140160701Y-100705709D01*
X140167355Y-100708856D01*
X140173668Y-100712640D01*
X140179579Y-100717024D01*
X140185033Y-100721967D01*
X140189976Y-100727421D01*
X140194360Y-100733332D01*
X140198144Y-100739645D01*
X140201291Y-100746299D01*
X140203771Y-100753229D01*
X140205559Y-100760368D01*
X140206639Y-100767649D01*
X140207000Y-100775000D01*
X140207000Y-100925000D01*
X140206639Y-100932351D01*
X140205559Y-100939632D01*
X140203771Y-100946771D01*
X140201291Y-100953701D01*
X140198144Y-100960355D01*
X140194360Y-100966668D01*
X140189976Y-100972579D01*
X140185033Y-100978033D01*
X140179579Y-100982976D01*
X140173668Y-100987360D01*
X140167355Y-100991144D01*
X140160701Y-100994291D01*
X140153771Y-100996771D01*
X140146632Y-100998559D01*
X140139351Y-100999639D01*
X140132000Y-101000000D01*
X139432000Y-101000000D01*
X139424649Y-100999639D01*
X139417368Y-100998559D01*
X139410229Y-100996771D01*
X139403299Y-100994291D01*
X139396645Y-100991144D01*
X139390332Y-100987360D01*
X139384421Y-100982976D01*
X139378967Y-100978033D01*
X139374024Y-100972579D01*
X139369640Y-100966668D01*
X139365856Y-100960355D01*
X139362709Y-100953701D01*
X139360229Y-100946771D01*
X139358441Y-100939632D01*
X139357361Y-100932351D01*
X139357000Y-100925000D01*
X139357000Y-100775000D01*
X139357361Y-100767649D01*
X139358441Y-100760368D01*
X139360229Y-100753229D01*
X139362709Y-100746299D01*
X139365856Y-100739645D01*
X139369640Y-100733332D01*
X139374024Y-100727421D01*
X139378967Y-100721967D01*
X139384421Y-100717024D01*
X139390332Y-100712640D01*
X139396645Y-100708856D01*
X139403299Y-100705709D01*
X139410229Y-100703229D01*
X139417368Y-100701441D01*
X139424649Y-100700361D01*
X139432000Y-100700000D01*
X140132000Y-100700000D01*
X140139351Y-100700361D01*
G37*
G36*
X140139351Y-100200361D02*
G01*
X140146632Y-100201441D01*
X140153771Y-100203229D01*
X140160701Y-100205709D01*
X140167355Y-100208856D01*
X140173668Y-100212640D01*
X140179579Y-100217024D01*
X140185033Y-100221967D01*
X140189976Y-100227421D01*
X140194360Y-100233332D01*
X140198144Y-100239645D01*
X140201291Y-100246299D01*
X140203771Y-100253229D01*
X140205559Y-100260368D01*
X140206639Y-100267649D01*
X140207000Y-100275000D01*
X140207000Y-100425000D01*
X140206639Y-100432351D01*
X140205559Y-100439632D01*
X140203771Y-100446771D01*
X140201291Y-100453701D01*
X140198144Y-100460355D01*
X140194360Y-100466668D01*
X140189976Y-100472579D01*
X140185033Y-100478033D01*
X140179579Y-100482976D01*
X140173668Y-100487360D01*
X140167355Y-100491144D01*
X140160701Y-100494291D01*
X140153771Y-100496771D01*
X140146632Y-100498559D01*
X140139351Y-100499639D01*
X140132000Y-100500000D01*
X139432000Y-100500000D01*
X139424649Y-100499639D01*
X139417368Y-100498559D01*
X139410229Y-100496771D01*
X139403299Y-100494291D01*
X139396645Y-100491144D01*
X139390332Y-100487360D01*
X139384421Y-100482976D01*
X139378967Y-100478033D01*
X139374024Y-100472579D01*
X139369640Y-100466668D01*
X139365856Y-100460355D01*
X139362709Y-100453701D01*
X139360229Y-100446771D01*
X139358441Y-100439632D01*
X139357361Y-100432351D01*
X139357000Y-100425000D01*
X139357000Y-100275000D01*
X139357361Y-100267649D01*
X139358441Y-100260368D01*
X139360229Y-100253229D01*
X139362709Y-100246299D01*
X139365856Y-100239645D01*
X139369640Y-100233332D01*
X139374024Y-100227421D01*
X139378967Y-100221967D01*
X139384421Y-100217024D01*
X139390332Y-100212640D01*
X139396645Y-100208856D01*
X139403299Y-100205709D01*
X139410229Y-100203229D01*
X139417368Y-100201441D01*
X139424649Y-100200361D01*
X139432000Y-100200000D01*
X140132000Y-100200000D01*
X140139351Y-100200361D01*
G37*
G36*
X141664958Y-128714710D02*
G01*
X141679276Y-128716834D01*
X141693317Y-128720351D01*
X141706946Y-128725228D01*
X141720031Y-128731417D01*
X141732447Y-128738858D01*
X141744073Y-128747481D01*
X141754798Y-128757202D01*
X141764519Y-128767927D01*
X141773142Y-128779553D01*
X141780583Y-128791969D01*
X141786772Y-128805054D01*
X141791649Y-128818683D01*
X141795166Y-128832724D01*
X141797290Y-128847042D01*
X141798000Y-128861500D01*
X141798000Y-129156500D01*
X141797290Y-129170958D01*
X141795166Y-129185276D01*
X141791649Y-129199317D01*
X141786772Y-129212946D01*
X141780583Y-129226031D01*
X141773142Y-129238447D01*
X141764519Y-129250073D01*
X141754798Y-129260798D01*
X141744073Y-129270519D01*
X141732447Y-129279142D01*
X141720031Y-129286583D01*
X141706946Y-129292772D01*
X141693317Y-129297649D01*
X141679276Y-129301166D01*
X141664958Y-129303290D01*
X141650500Y-129304000D01*
X141305500Y-129304000D01*
X141291042Y-129303290D01*
X141276724Y-129301166D01*
X141262683Y-129297649D01*
X141249054Y-129292772D01*
X141235969Y-129286583D01*
X141223553Y-129279142D01*
X141211927Y-129270519D01*
X141201202Y-129260798D01*
X141191481Y-129250073D01*
X141182858Y-129238447D01*
X141175417Y-129226031D01*
X141169228Y-129212946D01*
X141164351Y-129199317D01*
X141160834Y-129185276D01*
X141158710Y-129170958D01*
X141158000Y-129156500D01*
X141158000Y-128861500D01*
X141158710Y-128847042D01*
X141160834Y-128832724D01*
X141164351Y-128818683D01*
X141169228Y-128805054D01*
X141175417Y-128791969D01*
X141182858Y-128779553D01*
X141191481Y-128767927D01*
X141201202Y-128757202D01*
X141211927Y-128747481D01*
X141223553Y-128738858D01*
X141235969Y-128731417D01*
X141249054Y-128725228D01*
X141262683Y-128720351D01*
X141276724Y-128716834D01*
X141291042Y-128714710D01*
X141305500Y-128714000D01*
X141650500Y-128714000D01*
X141664958Y-128714710D01*
G37*
G36*
X141664958Y-127744710D02*
G01*
X141679276Y-127746834D01*
X141693317Y-127750351D01*
X141706946Y-127755228D01*
X141720031Y-127761417D01*
X141732447Y-127768858D01*
X141744073Y-127777481D01*
X141754798Y-127787202D01*
X141764519Y-127797927D01*
X141773142Y-127809553D01*
X141780583Y-127821969D01*
X141786772Y-127835054D01*
X141791649Y-127848683D01*
X141795166Y-127862724D01*
X141797290Y-127877042D01*
X141798000Y-127891500D01*
X141798000Y-128186500D01*
X141797290Y-128200958D01*
X141795166Y-128215276D01*
X141791649Y-128229317D01*
X141786772Y-128242946D01*
X141780583Y-128256031D01*
X141773142Y-128268447D01*
X141764519Y-128280073D01*
X141754798Y-128290798D01*
X141744073Y-128300519D01*
X141732447Y-128309142D01*
X141720031Y-128316583D01*
X141706946Y-128322772D01*
X141693317Y-128327649D01*
X141679276Y-128331166D01*
X141664958Y-128333290D01*
X141650500Y-128334000D01*
X141305500Y-128334000D01*
X141291042Y-128333290D01*
X141276724Y-128331166D01*
X141262683Y-128327649D01*
X141249054Y-128322772D01*
X141235969Y-128316583D01*
X141223553Y-128309142D01*
X141211927Y-128300519D01*
X141201202Y-128290798D01*
X141191481Y-128280073D01*
X141182858Y-128268447D01*
X141175417Y-128256031D01*
X141169228Y-128242946D01*
X141164351Y-128229317D01*
X141160834Y-128215276D01*
X141158710Y-128200958D01*
X141158000Y-128186500D01*
X141158000Y-127891500D01*
X141158710Y-127877042D01*
X141160834Y-127862724D01*
X141164351Y-127848683D01*
X141169228Y-127835054D01*
X141175417Y-127821969D01*
X141182858Y-127809553D01*
X141191481Y-127797927D01*
X141201202Y-127787202D01*
X141211927Y-127777481D01*
X141223553Y-127768858D01*
X141235969Y-127761417D01*
X141249054Y-127755228D01*
X141262683Y-127750351D01*
X141276724Y-127746834D01*
X141291042Y-127744710D01*
X141305500Y-127744000D01*
X141650500Y-127744000D01*
X141664958Y-127744710D01*
G37*
G36*
X138362958Y-80708710D02*
G01*
X138377276Y-80710834D01*
X138391317Y-80714351D01*
X138404946Y-80719228D01*
X138418031Y-80725417D01*
X138430447Y-80732858D01*
X138442073Y-80741481D01*
X138452798Y-80751202D01*
X138462519Y-80761927D01*
X138471142Y-80773553D01*
X138478583Y-80785969D01*
X138484772Y-80799054D01*
X138489649Y-80812683D01*
X138493166Y-80826724D01*
X138495290Y-80841042D01*
X138496000Y-80855500D01*
X138496000Y-81150500D01*
X138495290Y-81164958D01*
X138493166Y-81179276D01*
X138489649Y-81193317D01*
X138484772Y-81206946D01*
X138478583Y-81220031D01*
X138471142Y-81232447D01*
X138462519Y-81244073D01*
X138452798Y-81254798D01*
X138442073Y-81264519D01*
X138430447Y-81273142D01*
X138418031Y-81280583D01*
X138404946Y-81286772D01*
X138391317Y-81291649D01*
X138377276Y-81295166D01*
X138362958Y-81297290D01*
X138348500Y-81298000D01*
X138003500Y-81298000D01*
X137989042Y-81297290D01*
X137974724Y-81295166D01*
X137960683Y-81291649D01*
X137947054Y-81286772D01*
X137933969Y-81280583D01*
X137921553Y-81273142D01*
X137909927Y-81264519D01*
X137899202Y-81254798D01*
X137889481Y-81244073D01*
X137880858Y-81232447D01*
X137873417Y-81220031D01*
X137867228Y-81206946D01*
X137862351Y-81193317D01*
X137858834Y-81179276D01*
X137856710Y-81164958D01*
X137856000Y-81150500D01*
X137856000Y-80855500D01*
X137856710Y-80841042D01*
X137858834Y-80826724D01*
X137862351Y-80812683D01*
X137867228Y-80799054D01*
X137873417Y-80785969D01*
X137880858Y-80773553D01*
X137889481Y-80761927D01*
X137899202Y-80751202D01*
X137909927Y-80741481D01*
X137921553Y-80732858D01*
X137933969Y-80725417D01*
X137947054Y-80719228D01*
X137960683Y-80714351D01*
X137974724Y-80710834D01*
X137989042Y-80708710D01*
X138003500Y-80708000D01*
X138348500Y-80708000D01*
X138362958Y-80708710D01*
G37*
G36*
X138362958Y-79738710D02*
G01*
X138377276Y-79740834D01*
X138391317Y-79744351D01*
X138404946Y-79749228D01*
X138418031Y-79755417D01*
X138430447Y-79762858D01*
X138442073Y-79771481D01*
X138452798Y-79781202D01*
X138462519Y-79791927D01*
X138471142Y-79803553D01*
X138478583Y-79815969D01*
X138484772Y-79829054D01*
X138489649Y-79842683D01*
X138493166Y-79856724D01*
X138495290Y-79871042D01*
X138496000Y-79885500D01*
X138496000Y-80180500D01*
X138495290Y-80194958D01*
X138493166Y-80209276D01*
X138489649Y-80223317D01*
X138484772Y-80236946D01*
X138478583Y-80250031D01*
X138471142Y-80262447D01*
X138462519Y-80274073D01*
X138452798Y-80284798D01*
X138442073Y-80294519D01*
X138430447Y-80303142D01*
X138418031Y-80310583D01*
X138404946Y-80316772D01*
X138391317Y-80321649D01*
X138377276Y-80325166D01*
X138362958Y-80327290D01*
X138348500Y-80328000D01*
X138003500Y-80328000D01*
X137989042Y-80327290D01*
X137974724Y-80325166D01*
X137960683Y-80321649D01*
X137947054Y-80316772D01*
X137933969Y-80310583D01*
X137921553Y-80303142D01*
X137909927Y-80294519D01*
X137899202Y-80284798D01*
X137889481Y-80274073D01*
X137880858Y-80262447D01*
X137873417Y-80250031D01*
X137867228Y-80236946D01*
X137862351Y-80223317D01*
X137858834Y-80209276D01*
X137856710Y-80194958D01*
X137856000Y-80180500D01*
X137856000Y-79885500D01*
X137856710Y-79871042D01*
X137858834Y-79856724D01*
X137862351Y-79842683D01*
X137867228Y-79829054D01*
X137873417Y-79815969D01*
X137880858Y-79803553D01*
X137889481Y-79791927D01*
X137899202Y-79781202D01*
X137909927Y-79771481D01*
X137921553Y-79762858D01*
X137933969Y-79755417D01*
X137947054Y-79749228D01*
X137960683Y-79744351D01*
X137974724Y-79740834D01*
X137989042Y-79738710D01*
X138003500Y-79738000D01*
X138348500Y-79738000D01*
X138362958Y-79738710D01*
G37*
D14*
X149352000Y-114046000D03*
D15*
X148602000Y-112996000D03*
X149102000Y-112996000D03*
X149602000Y-112996000D03*
X150102000Y-112996000D03*
X150102000Y-115096000D03*
X149602000Y-115096000D03*
X149102000Y-115096000D03*
X148602000Y-115096000D03*
D14*
X149352000Y-108204000D03*
D15*
X150102000Y-109254000D03*
X149602000Y-109254000D03*
X149102000Y-109254000D03*
X148602000Y-109254000D03*
X148602000Y-107154000D03*
X149102000Y-107154000D03*
X149602000Y-107154000D03*
X150102000Y-107154000D03*
D14*
X145034000Y-114046000D03*
D15*
X144284000Y-112996000D03*
X144784000Y-112996000D03*
X145284000Y-112996000D03*
X145784000Y-112996000D03*
X145784000Y-115096000D03*
X145284000Y-115096000D03*
X144784000Y-115096000D03*
X144284000Y-115096000D03*
D14*
X145034000Y-108204000D03*
D15*
X145784000Y-109254000D03*
X145284000Y-109254000D03*
X144784000Y-109254000D03*
X144284000Y-109254000D03*
X144284000Y-107154000D03*
X144784000Y-107154000D03*
X145284000Y-107154000D03*
X145784000Y-107154000D03*
D16*
X143687000Y-131862800D03*
X143687000Y-130462800D03*
X143687000Y-129062800D03*
X143687000Y-127662800D03*
X143687000Y-126262800D03*
X143687000Y-124862800D03*
X143687000Y-123464000D03*
X143687000Y-122064000D03*
D17*
X145087000Y-119767800D03*
X146487000Y-119767800D03*
X147887000Y-119767800D03*
X149287000Y-119767800D03*
X150687000Y-119767800D03*
X152087000Y-119767800D03*
X153487000Y-119767800D03*
X154887000Y-119767800D03*
D16*
X156287000Y-122062800D03*
X156287000Y-123462800D03*
X156287000Y-124862800D03*
X156287000Y-126262800D03*
X156287000Y-127662800D03*
X156287000Y-129062800D03*
X156287000Y-130462800D03*
X156287000Y-131862800D03*
D10*
G36*
X158680958Y-117536710D02*
G01*
X158695276Y-117538834D01*
X158709317Y-117542351D01*
X158722946Y-117547228D01*
X158736031Y-117553417D01*
X158748447Y-117560858D01*
X158760073Y-117569481D01*
X158770798Y-117579202D01*
X158780519Y-117589927D01*
X158789142Y-117601553D01*
X158796583Y-117613969D01*
X158802772Y-117627054D01*
X158807649Y-117640683D01*
X158811166Y-117654724D01*
X158813290Y-117669042D01*
X158814000Y-117683500D01*
X158814000Y-118028500D01*
X158813290Y-118042958D01*
X158811166Y-118057276D01*
X158807649Y-118071317D01*
X158802772Y-118084946D01*
X158796583Y-118098031D01*
X158789142Y-118110447D01*
X158780519Y-118122073D01*
X158770798Y-118132798D01*
X158760073Y-118142519D01*
X158748447Y-118151142D01*
X158736031Y-118158583D01*
X158722946Y-118164772D01*
X158709317Y-118169649D01*
X158695276Y-118173166D01*
X158680958Y-118175290D01*
X158666500Y-118176000D01*
X158371500Y-118176000D01*
X158357042Y-118175290D01*
X158342724Y-118173166D01*
X158328683Y-118169649D01*
X158315054Y-118164772D01*
X158301969Y-118158583D01*
X158289553Y-118151142D01*
X158277927Y-118142519D01*
X158267202Y-118132798D01*
X158257481Y-118122073D01*
X158248858Y-118110447D01*
X158241417Y-118098031D01*
X158235228Y-118084946D01*
X158230351Y-118071317D01*
X158226834Y-118057276D01*
X158224710Y-118042958D01*
X158224000Y-118028500D01*
X158224000Y-117683500D01*
X158224710Y-117669042D01*
X158226834Y-117654724D01*
X158230351Y-117640683D01*
X158235228Y-117627054D01*
X158241417Y-117613969D01*
X158248858Y-117601553D01*
X158257481Y-117589927D01*
X158267202Y-117579202D01*
X158277927Y-117569481D01*
X158289553Y-117560858D01*
X158301969Y-117553417D01*
X158315054Y-117547228D01*
X158328683Y-117542351D01*
X158342724Y-117538834D01*
X158357042Y-117536710D01*
X158371500Y-117536000D01*
X158666500Y-117536000D01*
X158680958Y-117536710D01*
G37*
G36*
X159650958Y-117536710D02*
G01*
X159665276Y-117538834D01*
X159679317Y-117542351D01*
X159692946Y-117547228D01*
X159706031Y-117553417D01*
X159718447Y-117560858D01*
X159730073Y-117569481D01*
X159740798Y-117579202D01*
X159750519Y-117589927D01*
X159759142Y-117601553D01*
X159766583Y-117613969D01*
X159772772Y-117627054D01*
X159777649Y-117640683D01*
X159781166Y-117654724D01*
X159783290Y-117669042D01*
X159784000Y-117683500D01*
X159784000Y-118028500D01*
X159783290Y-118042958D01*
X159781166Y-118057276D01*
X159777649Y-118071317D01*
X159772772Y-118084946D01*
X159766583Y-118098031D01*
X159759142Y-118110447D01*
X159750519Y-118122073D01*
X159740798Y-118132798D01*
X159730073Y-118142519D01*
X159718447Y-118151142D01*
X159706031Y-118158583D01*
X159692946Y-118164772D01*
X159679317Y-118169649D01*
X159665276Y-118173166D01*
X159650958Y-118175290D01*
X159636500Y-118176000D01*
X159341500Y-118176000D01*
X159327042Y-118175290D01*
X159312724Y-118173166D01*
X159298683Y-118169649D01*
X159285054Y-118164772D01*
X159271969Y-118158583D01*
X159259553Y-118151142D01*
X159247927Y-118142519D01*
X159237202Y-118132798D01*
X159227481Y-118122073D01*
X159218858Y-118110447D01*
X159211417Y-118098031D01*
X159205228Y-118084946D01*
X159200351Y-118071317D01*
X159196834Y-118057276D01*
X159194710Y-118042958D01*
X159194000Y-118028500D01*
X159194000Y-117683500D01*
X159194710Y-117669042D01*
X159196834Y-117654724D01*
X159200351Y-117640683D01*
X159205228Y-117627054D01*
X159211417Y-117613969D01*
X159218858Y-117601553D01*
X159227481Y-117589927D01*
X159237202Y-117579202D01*
X159247927Y-117569481D01*
X159259553Y-117560858D01*
X159271969Y-117553417D01*
X159285054Y-117547228D01*
X159298683Y-117542351D01*
X159312724Y-117538834D01*
X159327042Y-117536710D01*
X159341500Y-117536000D01*
X159636500Y-117536000D01*
X159650958Y-117536710D01*
G37*
G36*
X155977504Y-105806204D02*
G01*
X156001773Y-105809804D01*
X156025571Y-105815765D01*
X156048671Y-105824030D01*
X156070849Y-105834520D01*
X156091893Y-105847133D01*
X156111598Y-105861747D01*
X156129777Y-105878223D01*
X156146253Y-105896402D01*
X156160867Y-105916107D01*
X156173480Y-105937151D01*
X156183970Y-105959329D01*
X156192235Y-105982429D01*
X156198196Y-106006227D01*
X156201796Y-106030496D01*
X156203000Y-106055000D01*
X156203000Y-107305000D01*
X156201796Y-107329504D01*
X156198196Y-107353773D01*
X156192235Y-107377571D01*
X156183970Y-107400671D01*
X156173480Y-107422849D01*
X156160867Y-107443893D01*
X156146253Y-107463598D01*
X156129777Y-107481777D01*
X156111598Y-107498253D01*
X156091893Y-107512867D01*
X156070849Y-107525480D01*
X156048671Y-107535970D01*
X156025571Y-107544235D01*
X156001773Y-107550196D01*
X155977504Y-107553796D01*
X155953000Y-107555000D01*
X155203000Y-107555000D01*
X155178496Y-107553796D01*
X155154227Y-107550196D01*
X155130429Y-107544235D01*
X155107329Y-107535970D01*
X155085151Y-107525480D01*
X155064107Y-107512867D01*
X155044402Y-107498253D01*
X155026223Y-107481777D01*
X155009747Y-107463598D01*
X154995133Y-107443893D01*
X154982520Y-107422849D01*
X154972030Y-107400671D01*
X154963765Y-107377571D01*
X154957804Y-107353773D01*
X154954204Y-107329504D01*
X154953000Y-107305000D01*
X154953000Y-106055000D01*
X154954204Y-106030496D01*
X154957804Y-106006227D01*
X154963765Y-105982429D01*
X154972030Y-105959329D01*
X154982520Y-105937151D01*
X154995133Y-105916107D01*
X155009747Y-105896402D01*
X155026223Y-105878223D01*
X155044402Y-105861747D01*
X155064107Y-105847133D01*
X155085151Y-105834520D01*
X155107329Y-105824030D01*
X155130429Y-105815765D01*
X155154227Y-105809804D01*
X155178496Y-105806204D01*
X155203000Y-105805000D01*
X155953000Y-105805000D01*
X155977504Y-105806204D01*
G37*
G36*
X153177504Y-105806204D02*
G01*
X153201773Y-105809804D01*
X153225571Y-105815765D01*
X153248671Y-105824030D01*
X153270849Y-105834520D01*
X153291893Y-105847133D01*
X153311598Y-105861747D01*
X153329777Y-105878223D01*
X153346253Y-105896402D01*
X153360867Y-105916107D01*
X153373480Y-105937151D01*
X153383970Y-105959329D01*
X153392235Y-105982429D01*
X153398196Y-106006227D01*
X153401796Y-106030496D01*
X153403000Y-106055000D01*
X153403000Y-107305000D01*
X153401796Y-107329504D01*
X153398196Y-107353773D01*
X153392235Y-107377571D01*
X153383970Y-107400671D01*
X153373480Y-107422849D01*
X153360867Y-107443893D01*
X153346253Y-107463598D01*
X153329777Y-107481777D01*
X153311598Y-107498253D01*
X153291893Y-107512867D01*
X153270849Y-107525480D01*
X153248671Y-107535970D01*
X153225571Y-107544235D01*
X153201773Y-107550196D01*
X153177504Y-107553796D01*
X153153000Y-107555000D01*
X152403000Y-107555000D01*
X152378496Y-107553796D01*
X152354227Y-107550196D01*
X152330429Y-107544235D01*
X152307329Y-107535970D01*
X152285151Y-107525480D01*
X152264107Y-107512867D01*
X152244402Y-107498253D01*
X152226223Y-107481777D01*
X152209747Y-107463598D01*
X152195133Y-107443893D01*
X152182520Y-107422849D01*
X152172030Y-107400671D01*
X152163765Y-107377571D01*
X152157804Y-107353773D01*
X152154204Y-107329504D01*
X152153000Y-107305000D01*
X152153000Y-106055000D01*
X152154204Y-106030496D01*
X152157804Y-106006227D01*
X152163765Y-105982429D01*
X152172030Y-105959329D01*
X152182520Y-105937151D01*
X152195133Y-105916107D01*
X152209747Y-105896402D01*
X152226223Y-105878223D01*
X152244402Y-105861747D01*
X152264107Y-105847133D01*
X152285151Y-105834520D01*
X152307329Y-105824030D01*
X152330429Y-105815765D01*
X152354227Y-105809804D01*
X152378496Y-105806204D01*
X152403000Y-105805000D01*
X153153000Y-105805000D01*
X153177504Y-105806204D01*
G37*
G36*
X138362958Y-102044710D02*
G01*
X138377276Y-102046834D01*
X138391317Y-102050351D01*
X138404946Y-102055228D01*
X138418031Y-102061417D01*
X138430447Y-102068858D01*
X138442073Y-102077481D01*
X138452798Y-102087202D01*
X138462519Y-102097927D01*
X138471142Y-102109553D01*
X138478583Y-102121969D01*
X138484772Y-102135054D01*
X138489649Y-102148683D01*
X138493166Y-102162724D01*
X138495290Y-102177042D01*
X138496000Y-102191500D01*
X138496000Y-102486500D01*
X138495290Y-102500958D01*
X138493166Y-102515276D01*
X138489649Y-102529317D01*
X138484772Y-102542946D01*
X138478583Y-102556031D01*
X138471142Y-102568447D01*
X138462519Y-102580073D01*
X138452798Y-102590798D01*
X138442073Y-102600519D01*
X138430447Y-102609142D01*
X138418031Y-102616583D01*
X138404946Y-102622772D01*
X138391317Y-102627649D01*
X138377276Y-102631166D01*
X138362958Y-102633290D01*
X138348500Y-102634000D01*
X138003500Y-102634000D01*
X137989042Y-102633290D01*
X137974724Y-102631166D01*
X137960683Y-102627649D01*
X137947054Y-102622772D01*
X137933969Y-102616583D01*
X137921553Y-102609142D01*
X137909927Y-102600519D01*
X137899202Y-102590798D01*
X137889481Y-102580073D01*
X137880858Y-102568447D01*
X137873417Y-102556031D01*
X137867228Y-102542946D01*
X137862351Y-102529317D01*
X137858834Y-102515276D01*
X137856710Y-102500958D01*
X137856000Y-102486500D01*
X137856000Y-102191500D01*
X137856710Y-102177042D01*
X137858834Y-102162724D01*
X137862351Y-102148683D01*
X137867228Y-102135054D01*
X137873417Y-102121969D01*
X137880858Y-102109553D01*
X137889481Y-102097927D01*
X137899202Y-102087202D01*
X137909927Y-102077481D01*
X137921553Y-102068858D01*
X137933969Y-102061417D01*
X137947054Y-102055228D01*
X137960683Y-102050351D01*
X137974724Y-102046834D01*
X137989042Y-102044710D01*
X138003500Y-102044000D01*
X138348500Y-102044000D01*
X138362958Y-102044710D01*
G37*
G36*
X138362958Y-101074710D02*
G01*
X138377276Y-101076834D01*
X138391317Y-101080351D01*
X138404946Y-101085228D01*
X138418031Y-101091417D01*
X138430447Y-101098858D01*
X138442073Y-101107481D01*
X138452798Y-101117202D01*
X138462519Y-101127927D01*
X138471142Y-101139553D01*
X138478583Y-101151969D01*
X138484772Y-101165054D01*
X138489649Y-101178683D01*
X138493166Y-101192724D01*
X138495290Y-101207042D01*
X138496000Y-101221500D01*
X138496000Y-101516500D01*
X138495290Y-101530958D01*
X138493166Y-101545276D01*
X138489649Y-101559317D01*
X138484772Y-101572946D01*
X138478583Y-101586031D01*
X138471142Y-101598447D01*
X138462519Y-101610073D01*
X138452798Y-101620798D01*
X138442073Y-101630519D01*
X138430447Y-101639142D01*
X138418031Y-101646583D01*
X138404946Y-101652772D01*
X138391317Y-101657649D01*
X138377276Y-101661166D01*
X138362958Y-101663290D01*
X138348500Y-101664000D01*
X138003500Y-101664000D01*
X137989042Y-101663290D01*
X137974724Y-101661166D01*
X137960683Y-101657649D01*
X137947054Y-101652772D01*
X137933969Y-101646583D01*
X137921553Y-101639142D01*
X137909927Y-101630519D01*
X137899202Y-101620798D01*
X137889481Y-101610073D01*
X137880858Y-101598447D01*
X137873417Y-101586031D01*
X137867228Y-101572946D01*
X137862351Y-101559317D01*
X137858834Y-101545276D01*
X137856710Y-101530958D01*
X137856000Y-101516500D01*
X137856000Y-101221500D01*
X137856710Y-101207042D01*
X137858834Y-101192724D01*
X137862351Y-101178683D01*
X137867228Y-101165054D01*
X137873417Y-101151969D01*
X137880858Y-101139553D01*
X137889481Y-101127927D01*
X137899202Y-101117202D01*
X137909927Y-101107481D01*
X137921553Y-101098858D01*
X137933969Y-101091417D01*
X137947054Y-101085228D01*
X137960683Y-101080351D01*
X137974724Y-101076834D01*
X137989042Y-101074710D01*
X138003500Y-101074000D01*
X138348500Y-101074000D01*
X138362958Y-101074710D01*
G37*
G36*
X143140958Y-104836710D02*
G01*
X143155276Y-104838834D01*
X143169317Y-104842351D01*
X143182946Y-104847228D01*
X143196031Y-104853417D01*
X143208447Y-104860858D01*
X143220073Y-104869481D01*
X143230798Y-104879202D01*
X143240519Y-104889927D01*
X143249142Y-104901553D01*
X143256583Y-104913969D01*
X143262772Y-104927054D01*
X143267649Y-104940683D01*
X143271166Y-104954724D01*
X143273290Y-104969042D01*
X143274000Y-104983500D01*
X143274000Y-105328500D01*
X143273290Y-105342958D01*
X143271166Y-105357276D01*
X143267649Y-105371317D01*
X143262772Y-105384946D01*
X143256583Y-105398031D01*
X143249142Y-105410447D01*
X143240519Y-105422073D01*
X143230798Y-105432798D01*
X143220073Y-105442519D01*
X143208447Y-105451142D01*
X143196031Y-105458583D01*
X143182946Y-105464772D01*
X143169317Y-105469649D01*
X143155276Y-105473166D01*
X143140958Y-105475290D01*
X143126500Y-105476000D01*
X142831500Y-105476000D01*
X142817042Y-105475290D01*
X142802724Y-105473166D01*
X142788683Y-105469649D01*
X142775054Y-105464772D01*
X142761969Y-105458583D01*
X142749553Y-105451142D01*
X142737927Y-105442519D01*
X142727202Y-105432798D01*
X142717481Y-105422073D01*
X142708858Y-105410447D01*
X142701417Y-105398031D01*
X142695228Y-105384946D01*
X142690351Y-105371317D01*
X142686834Y-105357276D01*
X142684710Y-105342958D01*
X142684000Y-105328500D01*
X142684000Y-104983500D01*
X142684710Y-104969042D01*
X142686834Y-104954724D01*
X142690351Y-104940683D01*
X142695228Y-104927054D01*
X142701417Y-104913969D01*
X142708858Y-104901553D01*
X142717481Y-104889927D01*
X142727202Y-104879202D01*
X142737927Y-104869481D01*
X142749553Y-104860858D01*
X142761969Y-104853417D01*
X142775054Y-104847228D01*
X142788683Y-104842351D01*
X142802724Y-104838834D01*
X142817042Y-104836710D01*
X142831500Y-104836000D01*
X143126500Y-104836000D01*
X143140958Y-104836710D01*
G37*
G36*
X142170958Y-104836710D02*
G01*
X142185276Y-104838834D01*
X142199317Y-104842351D01*
X142212946Y-104847228D01*
X142226031Y-104853417D01*
X142238447Y-104860858D01*
X142250073Y-104869481D01*
X142260798Y-104879202D01*
X142270519Y-104889927D01*
X142279142Y-104901553D01*
X142286583Y-104913969D01*
X142292772Y-104927054D01*
X142297649Y-104940683D01*
X142301166Y-104954724D01*
X142303290Y-104969042D01*
X142304000Y-104983500D01*
X142304000Y-105328500D01*
X142303290Y-105342958D01*
X142301166Y-105357276D01*
X142297649Y-105371317D01*
X142292772Y-105384946D01*
X142286583Y-105398031D01*
X142279142Y-105410447D01*
X142270519Y-105422073D01*
X142260798Y-105432798D01*
X142250073Y-105442519D01*
X142238447Y-105451142D01*
X142226031Y-105458583D01*
X142212946Y-105464772D01*
X142199317Y-105469649D01*
X142185276Y-105473166D01*
X142170958Y-105475290D01*
X142156500Y-105476000D01*
X141861500Y-105476000D01*
X141847042Y-105475290D01*
X141832724Y-105473166D01*
X141818683Y-105469649D01*
X141805054Y-105464772D01*
X141791969Y-105458583D01*
X141779553Y-105451142D01*
X141767927Y-105442519D01*
X141757202Y-105432798D01*
X141747481Y-105422073D01*
X141738858Y-105410447D01*
X141731417Y-105398031D01*
X141725228Y-105384946D01*
X141720351Y-105371317D01*
X141716834Y-105357276D01*
X141714710Y-105342958D01*
X141714000Y-105328500D01*
X141714000Y-104983500D01*
X141714710Y-104969042D01*
X141716834Y-104954724D01*
X141720351Y-104940683D01*
X141725228Y-104927054D01*
X141731417Y-104913969D01*
X141738858Y-104901553D01*
X141747481Y-104889927D01*
X141757202Y-104879202D01*
X141767927Y-104869481D01*
X141779553Y-104860858D01*
X141791969Y-104853417D01*
X141805054Y-104847228D01*
X141818683Y-104842351D01*
X141832724Y-104838834D01*
X141847042Y-104836710D01*
X141861500Y-104836000D01*
X142156500Y-104836000D01*
X142170958Y-104836710D01*
G37*
G36*
X145474958Y-102044710D02*
G01*
X145489276Y-102046834D01*
X145503317Y-102050351D01*
X145516946Y-102055228D01*
X145530031Y-102061417D01*
X145542447Y-102068858D01*
X145554073Y-102077481D01*
X145564798Y-102087202D01*
X145574519Y-102097927D01*
X145583142Y-102109553D01*
X145590583Y-102121969D01*
X145596772Y-102135054D01*
X145601649Y-102148683D01*
X145605166Y-102162724D01*
X145607290Y-102177042D01*
X145608000Y-102191500D01*
X145608000Y-102486500D01*
X145607290Y-102500958D01*
X145605166Y-102515276D01*
X145601649Y-102529317D01*
X145596772Y-102542946D01*
X145590583Y-102556031D01*
X145583142Y-102568447D01*
X145574519Y-102580073D01*
X145564798Y-102590798D01*
X145554073Y-102600519D01*
X145542447Y-102609142D01*
X145530031Y-102616583D01*
X145516946Y-102622772D01*
X145503317Y-102627649D01*
X145489276Y-102631166D01*
X145474958Y-102633290D01*
X145460500Y-102634000D01*
X145115500Y-102634000D01*
X145101042Y-102633290D01*
X145086724Y-102631166D01*
X145072683Y-102627649D01*
X145059054Y-102622772D01*
X145045969Y-102616583D01*
X145033553Y-102609142D01*
X145021927Y-102600519D01*
X145011202Y-102590798D01*
X145001481Y-102580073D01*
X144992858Y-102568447D01*
X144985417Y-102556031D01*
X144979228Y-102542946D01*
X144974351Y-102529317D01*
X144970834Y-102515276D01*
X144968710Y-102500958D01*
X144968000Y-102486500D01*
X144968000Y-102191500D01*
X144968710Y-102177042D01*
X144970834Y-102162724D01*
X144974351Y-102148683D01*
X144979228Y-102135054D01*
X144985417Y-102121969D01*
X144992858Y-102109553D01*
X145001481Y-102097927D01*
X145011202Y-102087202D01*
X145021927Y-102077481D01*
X145033553Y-102068858D01*
X145045969Y-102061417D01*
X145059054Y-102055228D01*
X145072683Y-102050351D01*
X145086724Y-102046834D01*
X145101042Y-102044710D01*
X145115500Y-102044000D01*
X145460500Y-102044000D01*
X145474958Y-102044710D01*
G37*
G36*
X145474958Y-101074710D02*
G01*
X145489276Y-101076834D01*
X145503317Y-101080351D01*
X145516946Y-101085228D01*
X145530031Y-101091417D01*
X145542447Y-101098858D01*
X145554073Y-101107481D01*
X145564798Y-101117202D01*
X145574519Y-101127927D01*
X145583142Y-101139553D01*
X145590583Y-101151969D01*
X145596772Y-101165054D01*
X145601649Y-101178683D01*
X145605166Y-101192724D01*
X145607290Y-101207042D01*
X145608000Y-101221500D01*
X145608000Y-101516500D01*
X145607290Y-101530958D01*
X145605166Y-101545276D01*
X145601649Y-101559317D01*
X145596772Y-101572946D01*
X145590583Y-101586031D01*
X145583142Y-101598447D01*
X145574519Y-101610073D01*
X145564798Y-101620798D01*
X145554073Y-101630519D01*
X145542447Y-101639142D01*
X145530031Y-101646583D01*
X145516946Y-101652772D01*
X145503317Y-101657649D01*
X145489276Y-101661166D01*
X145474958Y-101663290D01*
X145460500Y-101664000D01*
X145115500Y-101664000D01*
X145101042Y-101663290D01*
X145086724Y-101661166D01*
X145072683Y-101657649D01*
X145059054Y-101652772D01*
X145045969Y-101646583D01*
X145033553Y-101639142D01*
X145021927Y-101630519D01*
X145011202Y-101620798D01*
X145001481Y-101610073D01*
X144992858Y-101598447D01*
X144985417Y-101586031D01*
X144979228Y-101572946D01*
X144974351Y-101559317D01*
X144970834Y-101545276D01*
X144968710Y-101530958D01*
X144968000Y-101516500D01*
X144968000Y-101221500D01*
X144968710Y-101207042D01*
X144970834Y-101192724D01*
X144974351Y-101178683D01*
X144979228Y-101165054D01*
X144985417Y-101151969D01*
X144992858Y-101139553D01*
X145001481Y-101127927D01*
X145011202Y-101117202D01*
X145021927Y-101107481D01*
X145033553Y-101098858D01*
X145045969Y-101091417D01*
X145059054Y-101085228D01*
X145072683Y-101080351D01*
X145086724Y-101076834D01*
X145101042Y-101074710D01*
X145115500Y-101074000D01*
X145460500Y-101074000D01*
X145474958Y-101074710D01*
G37*
G36*
X140902958Y-104884710D02*
G01*
X140917276Y-104886834D01*
X140931317Y-104890351D01*
X140944946Y-104895228D01*
X140958031Y-104901417D01*
X140970447Y-104908858D01*
X140982073Y-104917481D01*
X140992798Y-104927202D01*
X141002519Y-104937927D01*
X141011142Y-104949553D01*
X141018583Y-104961969D01*
X141024772Y-104975054D01*
X141029649Y-104988683D01*
X141033166Y-105002724D01*
X141035290Y-105017042D01*
X141036000Y-105031500D01*
X141036000Y-105326500D01*
X141035290Y-105340958D01*
X141033166Y-105355276D01*
X141029649Y-105369317D01*
X141024772Y-105382946D01*
X141018583Y-105396031D01*
X141011142Y-105408447D01*
X141002519Y-105420073D01*
X140992798Y-105430798D01*
X140982073Y-105440519D01*
X140970447Y-105449142D01*
X140958031Y-105456583D01*
X140944946Y-105462772D01*
X140931317Y-105467649D01*
X140917276Y-105471166D01*
X140902958Y-105473290D01*
X140888500Y-105474000D01*
X140543500Y-105474000D01*
X140529042Y-105473290D01*
X140514724Y-105471166D01*
X140500683Y-105467649D01*
X140487054Y-105462772D01*
X140473969Y-105456583D01*
X140461553Y-105449142D01*
X140449927Y-105440519D01*
X140439202Y-105430798D01*
X140429481Y-105420073D01*
X140420858Y-105408447D01*
X140413417Y-105396031D01*
X140407228Y-105382946D01*
X140402351Y-105369317D01*
X140398834Y-105355276D01*
X140396710Y-105340958D01*
X140396000Y-105326500D01*
X140396000Y-105031500D01*
X140396710Y-105017042D01*
X140398834Y-105002724D01*
X140402351Y-104988683D01*
X140407228Y-104975054D01*
X140413417Y-104961969D01*
X140420858Y-104949553D01*
X140429481Y-104937927D01*
X140439202Y-104927202D01*
X140449927Y-104917481D01*
X140461553Y-104908858D01*
X140473969Y-104901417D01*
X140487054Y-104895228D01*
X140500683Y-104890351D01*
X140514724Y-104886834D01*
X140529042Y-104884710D01*
X140543500Y-104884000D01*
X140888500Y-104884000D01*
X140902958Y-104884710D01*
G37*
G36*
X140902958Y-105854710D02*
G01*
X140917276Y-105856834D01*
X140931317Y-105860351D01*
X140944946Y-105865228D01*
X140958031Y-105871417D01*
X140970447Y-105878858D01*
X140982073Y-105887481D01*
X140992798Y-105897202D01*
X141002519Y-105907927D01*
X141011142Y-105919553D01*
X141018583Y-105931969D01*
X141024772Y-105945054D01*
X141029649Y-105958683D01*
X141033166Y-105972724D01*
X141035290Y-105987042D01*
X141036000Y-106001500D01*
X141036000Y-106296500D01*
X141035290Y-106310958D01*
X141033166Y-106325276D01*
X141029649Y-106339317D01*
X141024772Y-106352946D01*
X141018583Y-106366031D01*
X141011142Y-106378447D01*
X141002519Y-106390073D01*
X140992798Y-106400798D01*
X140982073Y-106410519D01*
X140970447Y-106419142D01*
X140958031Y-106426583D01*
X140944946Y-106432772D01*
X140931317Y-106437649D01*
X140917276Y-106441166D01*
X140902958Y-106443290D01*
X140888500Y-106444000D01*
X140543500Y-106444000D01*
X140529042Y-106443290D01*
X140514724Y-106441166D01*
X140500683Y-106437649D01*
X140487054Y-106432772D01*
X140473969Y-106426583D01*
X140461553Y-106419142D01*
X140449927Y-106410519D01*
X140439202Y-106400798D01*
X140429481Y-106390073D01*
X140420858Y-106378447D01*
X140413417Y-106366031D01*
X140407228Y-106352946D01*
X140402351Y-106339317D01*
X140398834Y-106325276D01*
X140396710Y-106310958D01*
X140396000Y-106296500D01*
X140396000Y-106001500D01*
X140396710Y-105987042D01*
X140398834Y-105972724D01*
X140402351Y-105958683D01*
X140407228Y-105945054D01*
X140413417Y-105931969D01*
X140420858Y-105919553D01*
X140429481Y-105907927D01*
X140439202Y-105897202D01*
X140449927Y-105887481D01*
X140461553Y-105878858D01*
X140473969Y-105871417D01*
X140487054Y-105865228D01*
X140500683Y-105860351D01*
X140514724Y-105856834D01*
X140529042Y-105854710D01*
X140543500Y-105854000D01*
X140888500Y-105854000D01*
X140902958Y-105854710D01*
G37*
G36*
X138362958Y-78676710D02*
G01*
X138377276Y-78678834D01*
X138391317Y-78682351D01*
X138404946Y-78687228D01*
X138418031Y-78693417D01*
X138430447Y-78700858D01*
X138442073Y-78709481D01*
X138452798Y-78719202D01*
X138462519Y-78729927D01*
X138471142Y-78741553D01*
X138478583Y-78753969D01*
X138484772Y-78767054D01*
X138489649Y-78780683D01*
X138493166Y-78794724D01*
X138495290Y-78809042D01*
X138496000Y-78823500D01*
X138496000Y-79118500D01*
X138495290Y-79132958D01*
X138493166Y-79147276D01*
X138489649Y-79161317D01*
X138484772Y-79174946D01*
X138478583Y-79188031D01*
X138471142Y-79200447D01*
X138462519Y-79212073D01*
X138452798Y-79222798D01*
X138442073Y-79232519D01*
X138430447Y-79241142D01*
X138418031Y-79248583D01*
X138404946Y-79254772D01*
X138391317Y-79259649D01*
X138377276Y-79263166D01*
X138362958Y-79265290D01*
X138348500Y-79266000D01*
X138003500Y-79266000D01*
X137989042Y-79265290D01*
X137974724Y-79263166D01*
X137960683Y-79259649D01*
X137947054Y-79254772D01*
X137933969Y-79248583D01*
X137921553Y-79241142D01*
X137909927Y-79232519D01*
X137899202Y-79222798D01*
X137889481Y-79212073D01*
X137880858Y-79200447D01*
X137873417Y-79188031D01*
X137867228Y-79174946D01*
X137862351Y-79161317D01*
X137858834Y-79147276D01*
X137856710Y-79132958D01*
X137856000Y-79118500D01*
X137856000Y-78823500D01*
X137856710Y-78809042D01*
X137858834Y-78794724D01*
X137862351Y-78780683D01*
X137867228Y-78767054D01*
X137873417Y-78753969D01*
X137880858Y-78741553D01*
X137889481Y-78729927D01*
X137899202Y-78719202D01*
X137909927Y-78709481D01*
X137921553Y-78700858D01*
X137933969Y-78693417D01*
X137947054Y-78687228D01*
X137960683Y-78682351D01*
X137974724Y-78678834D01*
X137989042Y-78676710D01*
X138003500Y-78676000D01*
X138348500Y-78676000D01*
X138362958Y-78676710D01*
G37*
G36*
X138362958Y-77706710D02*
G01*
X138377276Y-77708834D01*
X138391317Y-77712351D01*
X138404946Y-77717228D01*
X138418031Y-77723417D01*
X138430447Y-77730858D01*
X138442073Y-77739481D01*
X138452798Y-77749202D01*
X138462519Y-77759927D01*
X138471142Y-77771553D01*
X138478583Y-77783969D01*
X138484772Y-77797054D01*
X138489649Y-77810683D01*
X138493166Y-77824724D01*
X138495290Y-77839042D01*
X138496000Y-77853500D01*
X138496000Y-78148500D01*
X138495290Y-78162958D01*
X138493166Y-78177276D01*
X138489649Y-78191317D01*
X138484772Y-78204946D01*
X138478583Y-78218031D01*
X138471142Y-78230447D01*
X138462519Y-78242073D01*
X138452798Y-78252798D01*
X138442073Y-78262519D01*
X138430447Y-78271142D01*
X138418031Y-78278583D01*
X138404946Y-78284772D01*
X138391317Y-78289649D01*
X138377276Y-78293166D01*
X138362958Y-78295290D01*
X138348500Y-78296000D01*
X138003500Y-78296000D01*
X137989042Y-78295290D01*
X137974724Y-78293166D01*
X137960683Y-78289649D01*
X137947054Y-78284772D01*
X137933969Y-78278583D01*
X137921553Y-78271142D01*
X137909927Y-78262519D01*
X137899202Y-78252798D01*
X137889481Y-78242073D01*
X137880858Y-78230447D01*
X137873417Y-78218031D01*
X137867228Y-78204946D01*
X137862351Y-78191317D01*
X137858834Y-78177276D01*
X137856710Y-78162958D01*
X137856000Y-78148500D01*
X137856000Y-77853500D01*
X137856710Y-77839042D01*
X137858834Y-77824724D01*
X137862351Y-77810683D01*
X137867228Y-77797054D01*
X137873417Y-77783969D01*
X137880858Y-77771553D01*
X137889481Y-77759927D01*
X137899202Y-77749202D01*
X137909927Y-77739481D01*
X137921553Y-77730858D01*
X137933969Y-77723417D01*
X137947054Y-77717228D01*
X137960683Y-77712351D01*
X137974724Y-77708834D01*
X137989042Y-77706710D01*
X138003500Y-77706000D01*
X138348500Y-77706000D01*
X138362958Y-77706710D01*
G37*
G36*
X145474958Y-103106710D02*
G01*
X145489276Y-103108834D01*
X145503317Y-103112351D01*
X145516946Y-103117228D01*
X145530031Y-103123417D01*
X145542447Y-103130858D01*
X145554073Y-103139481D01*
X145564798Y-103149202D01*
X145574519Y-103159927D01*
X145583142Y-103171553D01*
X145590583Y-103183969D01*
X145596772Y-103197054D01*
X145601649Y-103210683D01*
X145605166Y-103224724D01*
X145607290Y-103239042D01*
X145608000Y-103253500D01*
X145608000Y-103548500D01*
X145607290Y-103562958D01*
X145605166Y-103577276D01*
X145601649Y-103591317D01*
X145596772Y-103604946D01*
X145590583Y-103618031D01*
X145583142Y-103630447D01*
X145574519Y-103642073D01*
X145564798Y-103652798D01*
X145554073Y-103662519D01*
X145542447Y-103671142D01*
X145530031Y-103678583D01*
X145516946Y-103684772D01*
X145503317Y-103689649D01*
X145489276Y-103693166D01*
X145474958Y-103695290D01*
X145460500Y-103696000D01*
X145115500Y-103696000D01*
X145101042Y-103695290D01*
X145086724Y-103693166D01*
X145072683Y-103689649D01*
X145059054Y-103684772D01*
X145045969Y-103678583D01*
X145033553Y-103671142D01*
X145021927Y-103662519D01*
X145011202Y-103652798D01*
X145001481Y-103642073D01*
X144992858Y-103630447D01*
X144985417Y-103618031D01*
X144979228Y-103604946D01*
X144974351Y-103591317D01*
X144970834Y-103577276D01*
X144968710Y-103562958D01*
X144968000Y-103548500D01*
X144968000Y-103253500D01*
X144968710Y-103239042D01*
X144970834Y-103224724D01*
X144974351Y-103210683D01*
X144979228Y-103197054D01*
X144985417Y-103183969D01*
X144992858Y-103171553D01*
X145001481Y-103159927D01*
X145011202Y-103149202D01*
X145021927Y-103139481D01*
X145033553Y-103130858D01*
X145045969Y-103123417D01*
X145059054Y-103117228D01*
X145072683Y-103112351D01*
X145086724Y-103108834D01*
X145101042Y-103106710D01*
X145115500Y-103106000D01*
X145460500Y-103106000D01*
X145474958Y-103106710D01*
G37*
G36*
X145474958Y-104076710D02*
G01*
X145489276Y-104078834D01*
X145503317Y-104082351D01*
X145516946Y-104087228D01*
X145530031Y-104093417D01*
X145542447Y-104100858D01*
X145554073Y-104109481D01*
X145564798Y-104119202D01*
X145574519Y-104129927D01*
X145583142Y-104141553D01*
X145590583Y-104153969D01*
X145596772Y-104167054D01*
X145601649Y-104180683D01*
X145605166Y-104194724D01*
X145607290Y-104209042D01*
X145608000Y-104223500D01*
X145608000Y-104518500D01*
X145607290Y-104532958D01*
X145605166Y-104547276D01*
X145601649Y-104561317D01*
X145596772Y-104574946D01*
X145590583Y-104588031D01*
X145583142Y-104600447D01*
X145574519Y-104612073D01*
X145564798Y-104622798D01*
X145554073Y-104632519D01*
X145542447Y-104641142D01*
X145530031Y-104648583D01*
X145516946Y-104654772D01*
X145503317Y-104659649D01*
X145489276Y-104663166D01*
X145474958Y-104665290D01*
X145460500Y-104666000D01*
X145115500Y-104666000D01*
X145101042Y-104665290D01*
X145086724Y-104663166D01*
X145072683Y-104659649D01*
X145059054Y-104654772D01*
X145045969Y-104648583D01*
X145033553Y-104641142D01*
X145021927Y-104632519D01*
X145011202Y-104622798D01*
X145001481Y-104612073D01*
X144992858Y-104600447D01*
X144985417Y-104588031D01*
X144979228Y-104574946D01*
X144974351Y-104561317D01*
X144970834Y-104547276D01*
X144968710Y-104532958D01*
X144968000Y-104518500D01*
X144968000Y-104223500D01*
X144968710Y-104209042D01*
X144970834Y-104194724D01*
X144974351Y-104180683D01*
X144979228Y-104167054D01*
X144985417Y-104153969D01*
X144992858Y-104141553D01*
X145001481Y-104129927D01*
X145011202Y-104119202D01*
X145021927Y-104109481D01*
X145033553Y-104100858D01*
X145045969Y-104093417D01*
X145059054Y-104087228D01*
X145072683Y-104082351D01*
X145086724Y-104078834D01*
X145101042Y-104076710D01*
X145115500Y-104076000D01*
X145460500Y-104076000D01*
X145474958Y-104076710D01*
G37*
G36*
X157158958Y-98488710D02*
G01*
X157173276Y-98490834D01*
X157187317Y-98494351D01*
X157200946Y-98499228D01*
X157214031Y-98505417D01*
X157226447Y-98512858D01*
X157238073Y-98521481D01*
X157248798Y-98531202D01*
X157258519Y-98541927D01*
X157267142Y-98553553D01*
X157274583Y-98565969D01*
X157280772Y-98579054D01*
X157285649Y-98592683D01*
X157289166Y-98606724D01*
X157291290Y-98621042D01*
X157292000Y-98635500D01*
X157292000Y-98930500D01*
X157291290Y-98944958D01*
X157289166Y-98959276D01*
X157285649Y-98973317D01*
X157280772Y-98986946D01*
X157274583Y-99000031D01*
X157267142Y-99012447D01*
X157258519Y-99024073D01*
X157248798Y-99034798D01*
X157238073Y-99044519D01*
X157226447Y-99053142D01*
X157214031Y-99060583D01*
X157200946Y-99066772D01*
X157187317Y-99071649D01*
X157173276Y-99075166D01*
X157158958Y-99077290D01*
X157144500Y-99078000D01*
X156799500Y-99078000D01*
X156785042Y-99077290D01*
X156770724Y-99075166D01*
X156756683Y-99071649D01*
X156743054Y-99066772D01*
X156729969Y-99060583D01*
X156717553Y-99053142D01*
X156705927Y-99044519D01*
X156695202Y-99034798D01*
X156685481Y-99024073D01*
X156676858Y-99012447D01*
X156669417Y-99000031D01*
X156663228Y-98986946D01*
X156658351Y-98973317D01*
X156654834Y-98959276D01*
X156652710Y-98944958D01*
X156652000Y-98930500D01*
X156652000Y-98635500D01*
X156652710Y-98621042D01*
X156654834Y-98606724D01*
X156658351Y-98592683D01*
X156663228Y-98579054D01*
X156669417Y-98565969D01*
X156676858Y-98553553D01*
X156685481Y-98541927D01*
X156695202Y-98531202D01*
X156705927Y-98521481D01*
X156717553Y-98512858D01*
X156729969Y-98505417D01*
X156743054Y-98499228D01*
X156756683Y-98494351D01*
X156770724Y-98490834D01*
X156785042Y-98488710D01*
X156799500Y-98488000D01*
X157144500Y-98488000D01*
X157158958Y-98488710D01*
G37*
G36*
X157158958Y-97518710D02*
G01*
X157173276Y-97520834D01*
X157187317Y-97524351D01*
X157200946Y-97529228D01*
X157214031Y-97535417D01*
X157226447Y-97542858D01*
X157238073Y-97551481D01*
X157248798Y-97561202D01*
X157258519Y-97571927D01*
X157267142Y-97583553D01*
X157274583Y-97595969D01*
X157280772Y-97609054D01*
X157285649Y-97622683D01*
X157289166Y-97636724D01*
X157291290Y-97651042D01*
X157292000Y-97665500D01*
X157292000Y-97960500D01*
X157291290Y-97974958D01*
X157289166Y-97989276D01*
X157285649Y-98003317D01*
X157280772Y-98016946D01*
X157274583Y-98030031D01*
X157267142Y-98042447D01*
X157258519Y-98054073D01*
X157248798Y-98064798D01*
X157238073Y-98074519D01*
X157226447Y-98083142D01*
X157214031Y-98090583D01*
X157200946Y-98096772D01*
X157187317Y-98101649D01*
X157173276Y-98105166D01*
X157158958Y-98107290D01*
X157144500Y-98108000D01*
X156799500Y-98108000D01*
X156785042Y-98107290D01*
X156770724Y-98105166D01*
X156756683Y-98101649D01*
X156743054Y-98096772D01*
X156729969Y-98090583D01*
X156717553Y-98083142D01*
X156705927Y-98074519D01*
X156695202Y-98064798D01*
X156685481Y-98054073D01*
X156676858Y-98042447D01*
X156669417Y-98030031D01*
X156663228Y-98016946D01*
X156658351Y-98003317D01*
X156654834Y-97989276D01*
X156652710Y-97974958D01*
X156652000Y-97960500D01*
X156652000Y-97665500D01*
X156652710Y-97651042D01*
X156654834Y-97636724D01*
X156658351Y-97622683D01*
X156663228Y-97609054D01*
X156669417Y-97595969D01*
X156676858Y-97583553D01*
X156685481Y-97571927D01*
X156695202Y-97561202D01*
X156705927Y-97551481D01*
X156717553Y-97542858D01*
X156729969Y-97535417D01*
X156743054Y-97529228D01*
X156756683Y-97524351D01*
X156770724Y-97520834D01*
X156785042Y-97518710D01*
X156799500Y-97518000D01*
X157144500Y-97518000D01*
X157158958Y-97518710D01*
G37*
G36*
X134550958Y-83754710D02*
G01*
X134565276Y-83756834D01*
X134579317Y-83760351D01*
X134592946Y-83765228D01*
X134606031Y-83771417D01*
X134618447Y-83778858D01*
X134630073Y-83787481D01*
X134640798Y-83797202D01*
X134650519Y-83807927D01*
X134659142Y-83819553D01*
X134666583Y-83831969D01*
X134672772Y-83845054D01*
X134677649Y-83858683D01*
X134681166Y-83872724D01*
X134683290Y-83887042D01*
X134684000Y-83901500D01*
X134684000Y-84246500D01*
X134683290Y-84260958D01*
X134681166Y-84275276D01*
X134677649Y-84289317D01*
X134672772Y-84302946D01*
X134666583Y-84316031D01*
X134659142Y-84328447D01*
X134650519Y-84340073D01*
X134640798Y-84350798D01*
X134630073Y-84360519D01*
X134618447Y-84369142D01*
X134606031Y-84376583D01*
X134592946Y-84382772D01*
X134579317Y-84387649D01*
X134565276Y-84391166D01*
X134550958Y-84393290D01*
X134536500Y-84394000D01*
X134241500Y-84394000D01*
X134227042Y-84393290D01*
X134212724Y-84391166D01*
X134198683Y-84387649D01*
X134185054Y-84382772D01*
X134171969Y-84376583D01*
X134159553Y-84369142D01*
X134147927Y-84360519D01*
X134137202Y-84350798D01*
X134127481Y-84340073D01*
X134118858Y-84328447D01*
X134111417Y-84316031D01*
X134105228Y-84302946D01*
X134100351Y-84289317D01*
X134096834Y-84275276D01*
X134094710Y-84260958D01*
X134094000Y-84246500D01*
X134094000Y-83901500D01*
X134094710Y-83887042D01*
X134096834Y-83872724D01*
X134100351Y-83858683D01*
X134105228Y-83845054D01*
X134111417Y-83831969D01*
X134118858Y-83819553D01*
X134127481Y-83807927D01*
X134137202Y-83797202D01*
X134147927Y-83787481D01*
X134159553Y-83778858D01*
X134171969Y-83771417D01*
X134185054Y-83765228D01*
X134198683Y-83760351D01*
X134212724Y-83756834D01*
X134227042Y-83754710D01*
X134241500Y-83754000D01*
X134536500Y-83754000D01*
X134550958Y-83754710D01*
G37*
G36*
X135520958Y-83754710D02*
G01*
X135535276Y-83756834D01*
X135549317Y-83760351D01*
X135562946Y-83765228D01*
X135576031Y-83771417D01*
X135588447Y-83778858D01*
X135600073Y-83787481D01*
X135610798Y-83797202D01*
X135620519Y-83807927D01*
X135629142Y-83819553D01*
X135636583Y-83831969D01*
X135642772Y-83845054D01*
X135647649Y-83858683D01*
X135651166Y-83872724D01*
X135653290Y-83887042D01*
X135654000Y-83901500D01*
X135654000Y-84246500D01*
X135653290Y-84260958D01*
X135651166Y-84275276D01*
X135647649Y-84289317D01*
X135642772Y-84302946D01*
X135636583Y-84316031D01*
X135629142Y-84328447D01*
X135620519Y-84340073D01*
X135610798Y-84350798D01*
X135600073Y-84360519D01*
X135588447Y-84369142D01*
X135576031Y-84376583D01*
X135562946Y-84382772D01*
X135549317Y-84387649D01*
X135535276Y-84391166D01*
X135520958Y-84393290D01*
X135506500Y-84394000D01*
X135211500Y-84394000D01*
X135197042Y-84393290D01*
X135182724Y-84391166D01*
X135168683Y-84387649D01*
X135155054Y-84382772D01*
X135141969Y-84376583D01*
X135129553Y-84369142D01*
X135117927Y-84360519D01*
X135107202Y-84350798D01*
X135097481Y-84340073D01*
X135088858Y-84328447D01*
X135081417Y-84316031D01*
X135075228Y-84302946D01*
X135070351Y-84289317D01*
X135066834Y-84275276D01*
X135064710Y-84260958D01*
X135064000Y-84246500D01*
X135064000Y-83901500D01*
X135064710Y-83887042D01*
X135066834Y-83872724D01*
X135070351Y-83858683D01*
X135075228Y-83845054D01*
X135081417Y-83831969D01*
X135088858Y-83819553D01*
X135097481Y-83807927D01*
X135107202Y-83797202D01*
X135117927Y-83787481D01*
X135129553Y-83778858D01*
X135141969Y-83771417D01*
X135155054Y-83765228D01*
X135168683Y-83760351D01*
X135182724Y-83756834D01*
X135197042Y-83754710D01*
X135211500Y-83754000D01*
X135506500Y-83754000D01*
X135520958Y-83754710D01*
G37*
D18*
X157344000Y-78359000D03*
X157344000Y-79629000D03*
X157344000Y-80899000D03*
X157344000Y-82169000D03*
X157344000Y-83439000D03*
X157344000Y-84709000D03*
X157344000Y-85979000D03*
X157344000Y-87249000D03*
X157344000Y-88519000D03*
X157344000Y-89789000D03*
X157344000Y-91059000D03*
X157344000Y-92329000D03*
X157344000Y-93599000D03*
X157344000Y-94869000D03*
D19*
X154559000Y-95869000D03*
X153289000Y-95869000D03*
X152019000Y-95869000D03*
X150749000Y-95869000D03*
X149479000Y-95869000D03*
X148209000Y-95869000D03*
X146939000Y-95869000D03*
X145669000Y-95869000D03*
X144399000Y-95869000D03*
X143129000Y-95869000D03*
D18*
X140344000Y-94869000D03*
X140344000Y-93599000D03*
X140344000Y-92329000D03*
X140344000Y-91059000D03*
X140344000Y-89789000D03*
X140344000Y-88519000D03*
X140344000Y-87249000D03*
X140344000Y-85979000D03*
X140344000Y-84709000D03*
X140344000Y-83439000D03*
X140344000Y-82169000D03*
X140344000Y-80899000D03*
X140344000Y-79629000D03*
X140344000Y-78359000D03*
D20*
X147844000Y-85859000D03*
M02*
