%FSLAX45Y45*%
G04 Gerber Fmt 4.5, Leading zero omitted, Abs format (unit mm)*
G04 Created by KiCad (PCBNEW (5.1.5)-3) date 2021-07-14 18:19:28*
%MOMM*%
%LPD*%
G04 APERTURE LIST*
%TA.AperFunction,Profile*%
%ADD10C,0.050000*%
%TD*%
%ADD11C,0.200000*%
%ADD12C,0.300000*%
G04 APERTURE END LIST*
D10*
X13335000Y-7010400D02*
X13335000Y-13258800D01*
X16281400Y-7010400D02*
X13335000Y-7010400D01*
X16281400Y-13258800D02*
X16281400Y-7010400D01*
X13335000Y-13258800D02*
X16281400Y-13258800D01*
D11*
X13675600Y-10119600D02*
X13705600Y-10149600D01*
X13705600Y-10119600D02*
X13675600Y-10149600D01*
X13777200Y-10881600D02*
X13807200Y-10911600D01*
X13807200Y-10881600D02*
X13777200Y-10911600D01*
X13802600Y-10218900D02*
X13832600Y-10248900D01*
X13832600Y-10218900D02*
X13802600Y-10248900D01*
X13802600Y-10348200D02*
X13832600Y-10378200D01*
X13832600Y-10348200D02*
X13802600Y-10378200D01*
X13828000Y-9050500D02*
X13858000Y-9080500D01*
X13858000Y-9050500D02*
X13828000Y-9080500D01*
X13853400Y-9306800D02*
X13883400Y-9336800D01*
X13883400Y-9306800D02*
X13853400Y-9336800D01*
X13955000Y-9840200D02*
X13985000Y-9870200D01*
X13985000Y-9840200D02*
X13955000Y-9870200D01*
X13955000Y-10348200D02*
X13985000Y-10378200D01*
X13985000Y-10348200D02*
X13955000Y-10378200D01*
X14019400Y-8709900D02*
X14049400Y-8739900D01*
X14049400Y-8709900D02*
X14019400Y-8739900D01*
X14019400Y-8836900D02*
X14049400Y-8866900D01*
X14049400Y-8836900D02*
X14019400Y-8866900D01*
X14019400Y-9090900D02*
X14049400Y-9120900D01*
X14049400Y-9090900D02*
X14019400Y-9120900D01*
X14056600Y-10805400D02*
X14086600Y-10835400D01*
X14086600Y-10805400D02*
X14056600Y-10835400D01*
X14082000Y-10195800D02*
X14112000Y-10225800D01*
X14112000Y-10195800D02*
X14082000Y-10225800D01*
X14107400Y-9586200D02*
X14137400Y-9616200D01*
X14137400Y-9586200D02*
X14107400Y-9616200D01*
X14132800Y-10881600D02*
X14162800Y-10911600D01*
X14162800Y-10881600D02*
X14132800Y-10911600D01*
X14158200Y-9840200D02*
X14188200Y-9870200D01*
X14188200Y-9840200D02*
X14158200Y-9870200D01*
X14183600Y-9637000D02*
X14213600Y-9667000D01*
X14213600Y-9637000D02*
X14183600Y-9667000D01*
X14183600Y-10195800D02*
X14213600Y-10225800D01*
X14213600Y-10195800D02*
X14183600Y-10225800D01*
X14209000Y-8544800D02*
X14239000Y-8574800D01*
X14239000Y-8544800D02*
X14209000Y-8574800D01*
X14259800Y-8646400D02*
X14289800Y-8676400D01*
X14289800Y-8646400D02*
X14259800Y-8676400D01*
X14259800Y-10145000D02*
X14289800Y-10175000D01*
X14289800Y-10145000D02*
X14259800Y-10175000D01*
X14259800Y-12050000D02*
X14289800Y-12080000D01*
X14289800Y-12050000D02*
X14259800Y-12080000D01*
X14285200Y-11034000D02*
X14315200Y-11064000D01*
X14315200Y-11034000D02*
X14285200Y-11064000D01*
X14285200Y-11260300D02*
X14315200Y-11290300D01*
X14315200Y-11260300D02*
X14285200Y-11290300D01*
X14310600Y-10576800D02*
X14340600Y-10606800D01*
X14340600Y-10576800D02*
X14310600Y-10606800D01*
X14310600Y-11389600D02*
X14340600Y-11419600D01*
X14340600Y-11389600D02*
X14310600Y-11419600D01*
X14336000Y-9129000D02*
X14366000Y-9159000D01*
X14366000Y-9129000D02*
X14336000Y-9159000D01*
X14336000Y-10754600D02*
X14366000Y-10784600D01*
X14366000Y-10754600D02*
X14336000Y-10784600D01*
X14353700Y-12331400D02*
X14383700Y-12361400D01*
X14383700Y-12331400D02*
X14353700Y-12361400D01*
X14353700Y-12471280D02*
X14383700Y-12501280D01*
X14383700Y-12471280D02*
X14353700Y-12501280D01*
X14353700Y-12611280D02*
X14383700Y-12641280D01*
X14383700Y-12611280D02*
X14353700Y-12641280D01*
X14361400Y-10348200D02*
X14391400Y-10378200D01*
X14391400Y-10348200D02*
X14361400Y-10378200D01*
X14386800Y-9891000D02*
X14416800Y-9921000D01*
X14416800Y-9891000D02*
X14386800Y-9921000D01*
X14437600Y-10602200D02*
X14467600Y-10632200D01*
X14467600Y-10602200D02*
X14437600Y-10632200D01*
X14437600Y-11592800D02*
X14467600Y-11622800D01*
X14467600Y-11592800D02*
X14437600Y-11622800D01*
X14488400Y-11186400D02*
X14518400Y-11216400D01*
X14518400Y-11186400D02*
X14488400Y-11216400D01*
X14539200Y-10602200D02*
X14569200Y-10632200D01*
X14569200Y-10602200D02*
X14539200Y-10632200D01*
X14539200Y-11592800D02*
X14569200Y-11622800D01*
X14569200Y-11592800D02*
X14539200Y-11622800D01*
X14564600Y-11059400D02*
X14594600Y-11089400D01*
X14594600Y-11059400D02*
X14564600Y-11089400D01*
X14564600Y-11161000D02*
X14594600Y-11191000D01*
X14594600Y-11161000D02*
X14564600Y-11191000D01*
X14564600Y-12431000D02*
X14594600Y-12461000D01*
X14594600Y-12431000D02*
X14564600Y-12461000D01*
X14640800Y-11542000D02*
X14670800Y-11572000D01*
X14670800Y-11542000D02*
X14640800Y-11572000D01*
X14717000Y-11186400D02*
X14747000Y-11216400D01*
X14747000Y-11186400D02*
X14717000Y-11216400D01*
X14717000Y-11694400D02*
X14747000Y-11724400D01*
X14747000Y-11694400D02*
X14717000Y-11724400D01*
X14742400Y-10907000D02*
X14772400Y-10937000D01*
X14772400Y-10907000D02*
X14742400Y-10937000D01*
X14767800Y-11364200D02*
X14797800Y-11394200D01*
X14797800Y-11364200D02*
X14767800Y-11394200D01*
X14818600Y-11008600D02*
X14848600Y-11038600D01*
X14848600Y-11008600D02*
X14818600Y-11038600D01*
X14844000Y-9967200D02*
X14874000Y-9997200D01*
X14874000Y-9967200D02*
X14844000Y-9997200D01*
X14844000Y-10602200D02*
X14874000Y-10632200D01*
X14874000Y-10602200D02*
X14844000Y-10632200D01*
X14869400Y-10297400D02*
X14899400Y-10327400D01*
X14899400Y-10297400D02*
X14869400Y-10327400D01*
X14869400Y-11592800D02*
X14899400Y-11622800D01*
X14899400Y-11592800D02*
X14869400Y-11622800D01*
X14920200Y-9891000D02*
X14950200Y-9921000D01*
X14950200Y-9891000D02*
X14920200Y-9921000D01*
X14920200Y-11008600D02*
X14950200Y-11038600D01*
X14950200Y-11008600D02*
X14920200Y-11038600D01*
X14920200Y-11161000D02*
X14950200Y-11191000D01*
X14950200Y-11161000D02*
X14920200Y-11191000D01*
X14945600Y-9814800D02*
X14975600Y-9844800D01*
X14975600Y-9814800D02*
X14945600Y-9844800D01*
X14945600Y-10602200D02*
X14975600Y-10632200D01*
X14975600Y-10602200D02*
X14945600Y-10632200D01*
X14971000Y-11592800D02*
X15001000Y-11622800D01*
X15001000Y-11592800D02*
X14971000Y-11622800D01*
X15021800Y-11186400D02*
X15051800Y-11216400D01*
X15051800Y-11186400D02*
X15021800Y-11216400D01*
X15148800Y-9916400D02*
X15178800Y-9946400D01*
X15178800Y-9916400D02*
X15148800Y-9946400D01*
X15148800Y-11338800D02*
X15178800Y-11368800D01*
X15178800Y-11338800D02*
X15148800Y-11368800D01*
X15227300Y-10904700D02*
X15257300Y-10934700D01*
X15257300Y-10904700D02*
X15227300Y-10934700D01*
X15250400Y-9738600D02*
X15280400Y-9768600D01*
X15280400Y-9738600D02*
X15250400Y-9768600D01*
X15250400Y-12177000D02*
X15280400Y-12207000D01*
X15280400Y-12177000D02*
X15250400Y-12207000D01*
X15275800Y-11034000D02*
X15305800Y-11064000D01*
X15305800Y-11034000D02*
X15275800Y-11064000D01*
X15301200Y-9154400D02*
X15331200Y-9184400D01*
X15331200Y-9154400D02*
X15301200Y-9184400D01*
X15313900Y-9571900D02*
X15343900Y-9601900D01*
X15343900Y-9571900D02*
X15313900Y-9601900D01*
X15377400Y-8240000D02*
X15407400Y-8270000D01*
X15407400Y-8240000D02*
X15377400Y-8270000D01*
X15402800Y-8544800D02*
X15432800Y-8574800D01*
X15432800Y-8544800D02*
X15402800Y-8574800D01*
X15402800Y-9256000D02*
X15432800Y-9286000D01*
X15432800Y-9256000D02*
X15402800Y-9286000D01*
X15453600Y-8392400D02*
X15483600Y-8422400D01*
X15483600Y-8392400D02*
X15453600Y-8422400D01*
X15453600Y-9332200D02*
X15483600Y-9362200D01*
X15483600Y-9332200D02*
X15453600Y-9362200D01*
X15453600Y-9611600D02*
X15483600Y-9641600D01*
X15483600Y-9611600D02*
X15453600Y-9641600D01*
X15479000Y-11034000D02*
X15509000Y-11064000D01*
X15509000Y-11034000D02*
X15479000Y-11064000D01*
X15504400Y-11338800D02*
X15534400Y-11368800D01*
X15534400Y-11338800D02*
X15504400Y-11368800D01*
X15529800Y-9383000D02*
X15559800Y-9413000D01*
X15559800Y-9383000D02*
X15529800Y-9413000D01*
X15580600Y-11846800D02*
X15610600Y-11876800D01*
X15610600Y-11846800D02*
X15580600Y-11876800D01*
X15606000Y-11948400D02*
X15636000Y-11978400D01*
X15636000Y-11948400D02*
X15606000Y-11978400D01*
X15631400Y-11313400D02*
X15661400Y-11343400D01*
X15661400Y-11313400D02*
X15631400Y-11343400D01*
X15656800Y-10881600D02*
X15686800Y-10911600D01*
X15686800Y-10881600D02*
X15656800Y-10911600D01*
X15682200Y-9357600D02*
X15712200Y-9387600D01*
X15712200Y-9357600D02*
X15682200Y-9387600D01*
X15682200Y-11999200D02*
X15712200Y-12029200D01*
X15712200Y-11999200D02*
X15682200Y-12029200D01*
X15707600Y-10805400D02*
X15737600Y-10835400D01*
X15737600Y-10805400D02*
X15707600Y-10835400D01*
X15719400Y-8074900D02*
X15749400Y-8104900D01*
X15749400Y-8074900D02*
X15719400Y-8104900D01*
X15719400Y-8455900D02*
X15749400Y-8485900D01*
X15749400Y-8455900D02*
X15719400Y-8485900D01*
X15733000Y-12075400D02*
X15763000Y-12105400D01*
X15763000Y-12075400D02*
X15733000Y-12105400D01*
X15733000Y-12202400D02*
X15763000Y-12232400D01*
X15763000Y-12202400D02*
X15733000Y-12232400D01*
X15783800Y-10703800D02*
X15813800Y-10733800D01*
X15813800Y-10703800D02*
X15783800Y-10733800D01*
X15860000Y-10780000D02*
X15890000Y-10810000D01*
X15890000Y-10780000D02*
X15860000Y-10810000D01*
X15936200Y-9027400D02*
X15966200Y-9057400D01*
X15966200Y-9027400D02*
X15936200Y-9057400D01*
X15936200Y-9230600D02*
X15966200Y-9260600D01*
X15966200Y-9230600D02*
X15936200Y-9260600D01*
X15936200Y-9408400D02*
X15966200Y-9438400D01*
X15966200Y-9408400D02*
X15936200Y-9438400D01*
X15936200Y-9535400D02*
X15966200Y-9565400D01*
X15966200Y-9535400D02*
X15936200Y-9565400D01*
X15936200Y-12253200D02*
X15966200Y-12283200D01*
X15966200Y-12253200D02*
X15936200Y-12283200D01*
X16164800Y-9535400D02*
X16194800Y-9565400D01*
X16194800Y-9535400D02*
X16164800Y-9565400D01*
X16190200Y-12812000D02*
X16220200Y-12842000D01*
X16220200Y-12812000D02*
X16190200Y-12842000D01*
X13532800Y-7188200D02*
G75*
G03X13532800Y-7188200I-20000J0D01*
G01*
X13532800Y-10515600D02*
G75*
G03X13532800Y-10515600I-20000J0D01*
G01*
X13532800Y-11684000D02*
G75*
G03X13532800Y-11684000I-20000J0D01*
G01*
X13532800Y-12293600D02*
G75*
G03X13532800Y-12293600I-20000J0D01*
G01*
X13888400Y-11201400D02*
G75*
G03X13888400Y-11201400I-20000J0D01*
G01*
X13964600Y-13030200D02*
G75*
G03X13964600Y-13030200I-20000J0D01*
G01*
X14218600Y-7188200D02*
G75*
G03X14218600Y-7188200I-20000J0D01*
G01*
X14574200Y-9245600D02*
G75*
G03X14574200Y-9245600I-20000J0D01*
G01*
X14599600Y-8305800D02*
G75*
G03X14599600Y-8305800I-20000J0D01*
G01*
X14599600Y-8788400D02*
G75*
G03X14599600Y-8788400I-20000J0D01*
G01*
X14777400Y-13030200D02*
G75*
G03X14777400Y-13030200I-20000J0D01*
G01*
X14802800Y-12268200D02*
G75*
G03X14802800Y-12268200I-20000J0D01*
G01*
X14980600Y-8305800D02*
G75*
G03X14980600Y-8305800I-20000J0D01*
G01*
X14980600Y-8788400D02*
G75*
G03X14980600Y-8788400I-20000J0D01*
G01*
X14980600Y-9271000D02*
G75*
G03X14980600Y-9271000I-20000J0D01*
G01*
X15133000Y-12242800D02*
G75*
G03X15133000Y-12242800I-20000J0D01*
G01*
X15158400Y-11633200D02*
G75*
G03X15158400Y-11633200I-20000J0D01*
G01*
X15183800Y-9804400D02*
G75*
G03X15183800Y-9804400I-20000J0D01*
G01*
X15183800Y-10134600D02*
G75*
G03X15183800Y-10134600I-20000J0D01*
G01*
X15285400Y-13030200D02*
G75*
G03X15285400Y-13030200I-20000J0D01*
G01*
X15361600Y-8763000D02*
G75*
G03X15361600Y-8763000I-20000J0D01*
G01*
X15361600Y-9042400D02*
G75*
G03X15361600Y-9042400I-20000J0D01*
G01*
X15437800Y-10515600D02*
G75*
G03X15437800Y-10515600I-20000J0D01*
G01*
X15539400Y-11455400D02*
G75*
G03X15539400Y-11455400I-20000J0D01*
G01*
X15590200Y-7823200D02*
G75*
G03X15590200Y-7823200I-20000J0D01*
G01*
X15615600Y-7188200D02*
G75*
G03X15615600Y-7188200I-20000J0D01*
G01*
X15869600Y-13131800D02*
G75*
G03X15869600Y-13131800I-20000J0D01*
G01*
X16123600Y-7188200D02*
G75*
G03X16123600Y-7188200I-20000J0D01*
G01*
X16174400Y-11811000D02*
G75*
G03X16174400Y-11811000I-20000J0D01*
G01*
X16174400Y-12344400D02*
G75*
G03X16174400Y-12344400I-20000J0D01*
G01*
X16225200Y-8382000D02*
G75*
G03X16225200Y-8382000I-20000J0D01*
G01*
X16078200Y-10907400D02*
X16078200Y-10987400D01*
X16038200Y-10947400D02*
X16118200Y-10947400D01*
X16078200Y-11107400D02*
X16078200Y-11187400D01*
X16038200Y-11147400D02*
X16118200Y-11147400D01*
X16078200Y-11307400D02*
X16078200Y-11387400D01*
X16038200Y-11347400D02*
X16118200Y-11347400D01*
X16078200Y-11507400D02*
X16078200Y-11587400D01*
X16038200Y-11547400D02*
X16118200Y-11547400D01*
X13512800Y-10755000D02*
X13512800Y-10835000D01*
X13472800Y-10795000D02*
X13552800Y-10795000D01*
X13512800Y-10955000D02*
X13512800Y-11035000D01*
X13472800Y-10995000D02*
X13552800Y-10995000D01*
X13512800Y-11155000D02*
X13512800Y-11235000D01*
X13472800Y-11195000D02*
X13552800Y-11195000D01*
X13512800Y-11355000D02*
X13512800Y-11435000D01*
X13472800Y-11395000D02*
X13552800Y-11395000D01*
X16103600Y-8519800D02*
X16103600Y-8599800D01*
X16063600Y-8559800D02*
X16143600Y-8559800D01*
X16103600Y-8719800D02*
X16103600Y-8799800D01*
X16063600Y-8759800D02*
X16143600Y-8759800D01*
X16103600Y-8919800D02*
X16103600Y-8999800D01*
X16063600Y-8959800D02*
X16143600Y-8959800D01*
X16103600Y-9119800D02*
X16103600Y-9199800D01*
X16063600Y-9159800D02*
X16143600Y-9159800D01*
X16103600Y-9319800D02*
X16103600Y-9399800D01*
X16063600Y-9359800D02*
X16143600Y-9359800D01*
X13538200Y-8850000D02*
X13538200Y-8930000D01*
X13498200Y-8890000D02*
X13578200Y-8890000D01*
X13538200Y-9050000D02*
X13538200Y-9130000D01*
X13498200Y-9090000D02*
X13578200Y-9090000D01*
X13538200Y-9250000D02*
X13538200Y-9330000D01*
X13498200Y-9290000D02*
X13578200Y-9290000D01*
X13538200Y-9450000D02*
X13538200Y-9530000D01*
X13498200Y-9490000D02*
X13578200Y-9490000D01*
X13538200Y-9650000D02*
X13538200Y-9730000D01*
X13498200Y-9690000D02*
X13578200Y-9690000D01*
X14538400Y-7148200D02*
X14538400Y-7228200D01*
X14498400Y-7188200D02*
X14578400Y-7188200D01*
X14738400Y-7148200D02*
X14738400Y-7228200D01*
X14698400Y-7188200D02*
X14778400Y-7188200D01*
X14938400Y-7148200D02*
X14938400Y-7228200D01*
X14898400Y-7188200D02*
X14978400Y-7188200D01*
X15138400Y-7148200D02*
X15138400Y-7228200D01*
X15098400Y-7188200D02*
X15178400Y-7188200D01*
X13573582Y-12659182D02*
X13573582Y-12588417D01*
X13502817Y-12588417D01*
X13502817Y-12659182D01*
X13573582Y-12659182D01*
X13573582Y-13040182D02*
X13573582Y-12969417D01*
X13502817Y-12969417D01*
X13502817Y-13040182D01*
X13573582Y-13040182D01*
X13573582Y-7807782D02*
X13573582Y-7737017D01*
X13502817Y-7737017D01*
X13502817Y-7807782D01*
X13573582Y-7807782D01*
X13573582Y-8188782D02*
X13573582Y-8118017D01*
X13502817Y-8118017D01*
X13502817Y-8188782D01*
X13573582Y-8188782D01*
X16113582Y-7858582D02*
X16113582Y-7787817D01*
X16042817Y-7787817D01*
X16042817Y-7858582D01*
X16113582Y-7858582D01*
X16113582Y-8239582D02*
X16113582Y-8168817D01*
X16042817Y-8168817D01*
X16042817Y-8239582D01*
X16113582Y-8239582D01*
X16113582Y-9788983D02*
X16113582Y-9718218D01*
X16042817Y-9718218D01*
X16042817Y-9788983D01*
X16113582Y-9788983D01*
X16113582Y-10169983D02*
X16113582Y-10099218D01*
X16042817Y-10099218D01*
X16042817Y-10169983D01*
X16113582Y-10169983D01*
X16113582Y-12659182D02*
X16113582Y-12588417D01*
X16042817Y-12588417D01*
X16042817Y-12659182D01*
X16113582Y-12659182D01*
X16113582Y-13040182D02*
X16113582Y-12969417D01*
X16042817Y-12969417D01*
X16042817Y-13040182D01*
X16113582Y-13040182D01*
D12*
X13618928Y-13727014D02*
X13618928Y-13427014D01*
X13690357Y-13427014D01*
X13733214Y-13441300D01*
X13761786Y-13469871D01*
X13776071Y-13498443D01*
X13790357Y-13555586D01*
X13790357Y-13598443D01*
X13776071Y-13655586D01*
X13761786Y-13684157D01*
X13733214Y-13712729D01*
X13690357Y-13727014D01*
X13618928Y-13727014D01*
X13918928Y-13727014D02*
X13918928Y-13527014D01*
X13918928Y-13584157D02*
X13933214Y-13555586D01*
X13947500Y-13541300D01*
X13976071Y-13527014D01*
X14004643Y-13527014D01*
X14104643Y-13727014D02*
X14104643Y-13527014D01*
X14104643Y-13427014D02*
X14090357Y-13441300D01*
X14104643Y-13455586D01*
X14118928Y-13441300D01*
X14104643Y-13427014D01*
X14104643Y-13455586D01*
X14290357Y-13727014D02*
X14261786Y-13712729D01*
X14247500Y-13684157D01*
X14247500Y-13427014D01*
X14447500Y-13727014D02*
X14418928Y-13712729D01*
X14404643Y-13684157D01*
X14404643Y-13427014D01*
X14790357Y-13727014D02*
X14790357Y-13427014D01*
X14890357Y-13641300D01*
X14990357Y-13427014D01*
X14990357Y-13727014D01*
X15261786Y-13727014D02*
X15261786Y-13569871D01*
X15247500Y-13541300D01*
X15218928Y-13527014D01*
X15161786Y-13527014D01*
X15133214Y-13541300D01*
X15261786Y-13712729D02*
X15233214Y-13727014D01*
X15161786Y-13727014D01*
X15133214Y-13712729D01*
X15118928Y-13684157D01*
X15118928Y-13655586D01*
X15133214Y-13627014D01*
X15161786Y-13612729D01*
X15233214Y-13612729D01*
X15261786Y-13598443D01*
X15404643Y-13527014D02*
X15404643Y-13827014D01*
X15404643Y-13541300D02*
X15433214Y-13527014D01*
X15490357Y-13527014D01*
X15518928Y-13541300D01*
X15533214Y-13555586D01*
X15547500Y-13584157D01*
X15547500Y-13669871D01*
X15533214Y-13698443D01*
X15518928Y-13712729D01*
X15490357Y-13727014D01*
X15433214Y-13727014D01*
X15404643Y-13712729D01*
X15676071Y-13698443D02*
X15690357Y-13712729D01*
X15676071Y-13727014D01*
X15661786Y-13712729D01*
X15676071Y-13698443D01*
X15676071Y-13727014D01*
X15676071Y-13541300D02*
X15690357Y-13555586D01*
X15676071Y-13569871D01*
X15661786Y-13555586D01*
X15676071Y-13541300D01*
X15676071Y-13569871D01*
X13302500Y-14206300D02*
X13332500Y-14236300D01*
X13332500Y-14206300D02*
X13302500Y-14236300D01*
X13676071Y-14057014D02*
X13704643Y-14057014D01*
X13733214Y-14071300D01*
X13747500Y-14085586D01*
X13761786Y-14114157D01*
X13776071Y-14171300D01*
X13776071Y-14242729D01*
X13761786Y-14299871D01*
X13747500Y-14328443D01*
X13733214Y-14342729D01*
X13704643Y-14357014D01*
X13676071Y-14357014D01*
X13647500Y-14342729D01*
X13633214Y-14328443D01*
X13618928Y-14299871D01*
X13604643Y-14242729D01*
X13604643Y-14171300D01*
X13618928Y-14114157D01*
X13633214Y-14085586D01*
X13647500Y-14071300D01*
X13676071Y-14057014D01*
X13904643Y-14328443D02*
X13918928Y-14342729D01*
X13904643Y-14357014D01*
X13890357Y-14342729D01*
X13904643Y-14328443D01*
X13904643Y-14357014D01*
X14018928Y-14057014D02*
X14204643Y-14057014D01*
X14104643Y-14171300D01*
X14147500Y-14171300D01*
X14176071Y-14185586D01*
X14190357Y-14199871D01*
X14204643Y-14228443D01*
X14204643Y-14299871D01*
X14190357Y-14328443D01*
X14176071Y-14342729D01*
X14147500Y-14357014D01*
X14061786Y-14357014D01*
X14033214Y-14342729D01*
X14018928Y-14328443D01*
X14390357Y-14057014D02*
X14418928Y-14057014D01*
X14447500Y-14071300D01*
X14461786Y-14085586D01*
X14476071Y-14114157D01*
X14490357Y-14171300D01*
X14490357Y-14242729D01*
X14476071Y-14299871D01*
X14461786Y-14328443D01*
X14447500Y-14342729D01*
X14418928Y-14357014D01*
X14390357Y-14357014D01*
X14361786Y-14342729D01*
X14347500Y-14328443D01*
X14333214Y-14299871D01*
X14318928Y-14242729D01*
X14318928Y-14171300D01*
X14333214Y-14114157D01*
X14347500Y-14085586D01*
X14361786Y-14071300D01*
X14390357Y-14057014D01*
X14618928Y-14357014D02*
X14618928Y-14157014D01*
X14618928Y-14185586D02*
X14633214Y-14171300D01*
X14661786Y-14157014D01*
X14704643Y-14157014D01*
X14733214Y-14171300D01*
X14747500Y-14199871D01*
X14747500Y-14357014D01*
X14747500Y-14199871D02*
X14761786Y-14171300D01*
X14790357Y-14157014D01*
X14833214Y-14157014D01*
X14861786Y-14171300D01*
X14876071Y-14199871D01*
X14876071Y-14357014D01*
X15018928Y-14357014D02*
X15018928Y-14157014D01*
X15018928Y-14185586D02*
X15033214Y-14171300D01*
X15061786Y-14157014D01*
X15104643Y-14157014D01*
X15133214Y-14171300D01*
X15147500Y-14199871D01*
X15147500Y-14357014D01*
X15147500Y-14199871D02*
X15161786Y-14171300D01*
X15190357Y-14157014D01*
X15233214Y-14157014D01*
X15261786Y-14171300D01*
X15276071Y-14199871D01*
X15276071Y-14357014D01*
X15861786Y-14042729D02*
X15604643Y-14428443D01*
X16247500Y-14057014D02*
X16276071Y-14057014D01*
X16304643Y-14071300D01*
X16318928Y-14085586D01*
X16333214Y-14114157D01*
X16347500Y-14171300D01*
X16347500Y-14242729D01*
X16333214Y-14299871D01*
X16318928Y-14328443D01*
X16304643Y-14342729D01*
X16276071Y-14357014D01*
X16247500Y-14357014D01*
X16218928Y-14342729D01*
X16204643Y-14328443D01*
X16190357Y-14299871D01*
X16176071Y-14242729D01*
X16176071Y-14171300D01*
X16190357Y-14114157D01*
X16204643Y-14085586D01*
X16218928Y-14071300D01*
X16247500Y-14057014D01*
X16476071Y-14328443D02*
X16490357Y-14342729D01*
X16476071Y-14357014D01*
X16461786Y-14342729D01*
X16476071Y-14328443D01*
X16476071Y-14357014D01*
X16676071Y-14057014D02*
X16704643Y-14057014D01*
X16733214Y-14071300D01*
X16747500Y-14085586D01*
X16761786Y-14114157D01*
X16776071Y-14171300D01*
X16776071Y-14242729D01*
X16761786Y-14299871D01*
X16747500Y-14328443D01*
X16733214Y-14342729D01*
X16704643Y-14357014D01*
X16676071Y-14357014D01*
X16647500Y-14342729D01*
X16633214Y-14328443D01*
X16618928Y-14299871D01*
X16604643Y-14242729D01*
X16604643Y-14171300D01*
X16618928Y-14114157D01*
X16633214Y-14085586D01*
X16647500Y-14071300D01*
X16676071Y-14057014D01*
X17061786Y-14357014D02*
X16890357Y-14357014D01*
X16976071Y-14357014D02*
X16976071Y-14057014D01*
X16947500Y-14099871D01*
X16918928Y-14128443D01*
X16890357Y-14142729D01*
X17176071Y-14085586D02*
X17190357Y-14071300D01*
X17218928Y-14057014D01*
X17290357Y-14057014D01*
X17318928Y-14071300D01*
X17333214Y-14085586D01*
X17347500Y-14114157D01*
X17347500Y-14142729D01*
X17333214Y-14185586D01*
X17161786Y-14357014D01*
X17347500Y-14357014D01*
X17461786Y-14057014D02*
X17461786Y-14114157D01*
X17576071Y-14057014D02*
X17576071Y-14114157D01*
X18018928Y-14471300D02*
X18004643Y-14457014D01*
X17976071Y-14414157D01*
X17961786Y-14385586D01*
X17947500Y-14342729D01*
X17933214Y-14271300D01*
X17933214Y-14214157D01*
X17947500Y-14142729D01*
X17961786Y-14099871D01*
X17976071Y-14071300D01*
X18004643Y-14028443D01*
X18018928Y-14014157D01*
X18147500Y-14357014D02*
X18204643Y-14357014D01*
X18233214Y-14342729D01*
X18247500Y-14328443D01*
X18276071Y-14285586D01*
X18290357Y-14228443D01*
X18290357Y-14114157D01*
X18276071Y-14085586D01*
X18261786Y-14071300D01*
X18233214Y-14057014D01*
X18176071Y-14057014D01*
X18147500Y-14071300D01*
X18133214Y-14085586D01*
X18118928Y-14114157D01*
X18118928Y-14185586D01*
X18133214Y-14214157D01*
X18147500Y-14228443D01*
X18176071Y-14242729D01*
X18233214Y-14242729D01*
X18261786Y-14228443D01*
X18276071Y-14214157D01*
X18290357Y-14185586D01*
X18561786Y-14057014D02*
X18418928Y-14057014D01*
X18404643Y-14199871D01*
X18418928Y-14185586D01*
X18447500Y-14171300D01*
X18518928Y-14171300D01*
X18547500Y-14185586D01*
X18561786Y-14199871D01*
X18576071Y-14228443D01*
X18576071Y-14299871D01*
X18561786Y-14328443D01*
X18547500Y-14342729D01*
X18518928Y-14357014D01*
X18447500Y-14357014D01*
X18418928Y-14342729D01*
X18404643Y-14328443D01*
X18933214Y-14357014D02*
X18933214Y-14057014D01*
X19061786Y-14357014D02*
X19061786Y-14199871D01*
X19047500Y-14171300D01*
X19018928Y-14157014D01*
X18976071Y-14157014D01*
X18947500Y-14171300D01*
X18933214Y-14185586D01*
X19247500Y-14357014D02*
X19218928Y-14342729D01*
X19204643Y-14328443D01*
X19190357Y-14299871D01*
X19190357Y-14214157D01*
X19204643Y-14185586D01*
X19218928Y-14171300D01*
X19247500Y-14157014D01*
X19290357Y-14157014D01*
X19318928Y-14171300D01*
X19333214Y-14185586D01*
X19347500Y-14214157D01*
X19347500Y-14299871D01*
X19333214Y-14328443D01*
X19318928Y-14342729D01*
X19290357Y-14357014D01*
X19247500Y-14357014D01*
X19518928Y-14357014D02*
X19490357Y-14342729D01*
X19476071Y-14314157D01*
X19476071Y-14057014D01*
X19747500Y-14342729D02*
X19718928Y-14357014D01*
X19661786Y-14357014D01*
X19633214Y-14342729D01*
X19618928Y-14314157D01*
X19618928Y-14199871D01*
X19633214Y-14171300D01*
X19661786Y-14157014D01*
X19718928Y-14157014D01*
X19747500Y-14171300D01*
X19761786Y-14199871D01*
X19761786Y-14228443D01*
X19618928Y-14257014D01*
X19876071Y-14342729D02*
X19904643Y-14357014D01*
X19961786Y-14357014D01*
X19990357Y-14342729D01*
X20004643Y-14314157D01*
X20004643Y-14299871D01*
X19990357Y-14271300D01*
X19961786Y-14257014D01*
X19918928Y-14257014D01*
X19890357Y-14242729D01*
X19876071Y-14214157D01*
X19876071Y-14199871D01*
X19890357Y-14171300D01*
X19918928Y-14157014D01*
X19961786Y-14157014D01*
X19990357Y-14171300D01*
X20104643Y-14471300D02*
X20118928Y-14457014D01*
X20147500Y-14414157D01*
X20161786Y-14385586D01*
X20176071Y-14342729D01*
X20190357Y-14271300D01*
X20190357Y-14214157D01*
X20176071Y-14142729D01*
X20161786Y-14099871D01*
X20147500Y-14071300D01*
X20118928Y-14028443D01*
X20104643Y-14014157D01*
X13332500Y-14617300D02*
G75*
G03X13332500Y-14617300I-20000J0D01*
G01*
X13676071Y-14453014D02*
X13704643Y-14453014D01*
X13733214Y-14467300D01*
X13747500Y-14481586D01*
X13761786Y-14510157D01*
X13776071Y-14567300D01*
X13776071Y-14638729D01*
X13761786Y-14695871D01*
X13747500Y-14724443D01*
X13733214Y-14738729D01*
X13704643Y-14753014D01*
X13676071Y-14753014D01*
X13647500Y-14738729D01*
X13633214Y-14724443D01*
X13618928Y-14695871D01*
X13604643Y-14638729D01*
X13604643Y-14567300D01*
X13618928Y-14510157D01*
X13633214Y-14481586D01*
X13647500Y-14467300D01*
X13676071Y-14453014D01*
X13904643Y-14724443D02*
X13918928Y-14738729D01*
X13904643Y-14753014D01*
X13890357Y-14738729D01*
X13904643Y-14724443D01*
X13904643Y-14753014D01*
X14176071Y-14553014D02*
X14176071Y-14753014D01*
X14104643Y-14438729D02*
X14033214Y-14653014D01*
X14218928Y-14653014D01*
X14390357Y-14453014D02*
X14418928Y-14453014D01*
X14447500Y-14467300D01*
X14461786Y-14481586D01*
X14476071Y-14510157D01*
X14490357Y-14567300D01*
X14490357Y-14638729D01*
X14476071Y-14695871D01*
X14461786Y-14724443D01*
X14447500Y-14738729D01*
X14418928Y-14753014D01*
X14390357Y-14753014D01*
X14361786Y-14738729D01*
X14347500Y-14724443D01*
X14333214Y-14695871D01*
X14318928Y-14638729D01*
X14318928Y-14567300D01*
X14333214Y-14510157D01*
X14347500Y-14481586D01*
X14361786Y-14467300D01*
X14390357Y-14453014D01*
X14618928Y-14753014D02*
X14618928Y-14553014D01*
X14618928Y-14581586D02*
X14633214Y-14567300D01*
X14661786Y-14553014D01*
X14704643Y-14553014D01*
X14733214Y-14567300D01*
X14747500Y-14595871D01*
X14747500Y-14753014D01*
X14747500Y-14595871D02*
X14761786Y-14567300D01*
X14790357Y-14553014D01*
X14833214Y-14553014D01*
X14861786Y-14567300D01*
X14876071Y-14595871D01*
X14876071Y-14753014D01*
X15018928Y-14753014D02*
X15018928Y-14553014D01*
X15018928Y-14581586D02*
X15033214Y-14567300D01*
X15061786Y-14553014D01*
X15104643Y-14553014D01*
X15133214Y-14567300D01*
X15147500Y-14595871D01*
X15147500Y-14753014D01*
X15147500Y-14595871D02*
X15161786Y-14567300D01*
X15190357Y-14553014D01*
X15233214Y-14553014D01*
X15261786Y-14567300D01*
X15276071Y-14595871D01*
X15276071Y-14753014D01*
X15861786Y-14438729D02*
X15604643Y-14824443D01*
X16247500Y-14453014D02*
X16276071Y-14453014D01*
X16304643Y-14467300D01*
X16318928Y-14481586D01*
X16333214Y-14510157D01*
X16347500Y-14567300D01*
X16347500Y-14638729D01*
X16333214Y-14695871D01*
X16318928Y-14724443D01*
X16304643Y-14738729D01*
X16276071Y-14753014D01*
X16247500Y-14753014D01*
X16218928Y-14738729D01*
X16204643Y-14724443D01*
X16190357Y-14695871D01*
X16176071Y-14638729D01*
X16176071Y-14567300D01*
X16190357Y-14510157D01*
X16204643Y-14481586D01*
X16218928Y-14467300D01*
X16247500Y-14453014D01*
X16476071Y-14724443D02*
X16490357Y-14738729D01*
X16476071Y-14753014D01*
X16461786Y-14738729D01*
X16476071Y-14724443D01*
X16476071Y-14753014D01*
X16676071Y-14453014D02*
X16704643Y-14453014D01*
X16733214Y-14467300D01*
X16747500Y-14481586D01*
X16761786Y-14510157D01*
X16776071Y-14567300D01*
X16776071Y-14638729D01*
X16761786Y-14695871D01*
X16747500Y-14724443D01*
X16733214Y-14738729D01*
X16704643Y-14753014D01*
X16676071Y-14753014D01*
X16647500Y-14738729D01*
X16633214Y-14724443D01*
X16618928Y-14695871D01*
X16604643Y-14638729D01*
X16604643Y-14567300D01*
X16618928Y-14510157D01*
X16633214Y-14481586D01*
X16647500Y-14467300D01*
X16676071Y-14453014D01*
X17061786Y-14753014D02*
X16890357Y-14753014D01*
X16976071Y-14753014D02*
X16976071Y-14453014D01*
X16947500Y-14495871D01*
X16918928Y-14524443D01*
X16890357Y-14538729D01*
X17318928Y-14453014D02*
X17261786Y-14453014D01*
X17233214Y-14467300D01*
X17218928Y-14481586D01*
X17190357Y-14524443D01*
X17176071Y-14581586D01*
X17176071Y-14695871D01*
X17190357Y-14724443D01*
X17204643Y-14738729D01*
X17233214Y-14753014D01*
X17290357Y-14753014D01*
X17318928Y-14738729D01*
X17333214Y-14724443D01*
X17347500Y-14695871D01*
X17347500Y-14624443D01*
X17333214Y-14595871D01*
X17318928Y-14581586D01*
X17290357Y-14567300D01*
X17233214Y-14567300D01*
X17204643Y-14581586D01*
X17190357Y-14595871D01*
X17176071Y-14624443D01*
X17461786Y-14453014D02*
X17461786Y-14510157D01*
X17576071Y-14453014D02*
X17576071Y-14510157D01*
X18018928Y-14867300D02*
X18004643Y-14853014D01*
X17976071Y-14810157D01*
X17961786Y-14781586D01*
X17947500Y-14738729D01*
X17933214Y-14667300D01*
X17933214Y-14610157D01*
X17947500Y-14538729D01*
X17961786Y-14495871D01*
X17976071Y-14467300D01*
X18004643Y-14424443D01*
X18018928Y-14410157D01*
X18104643Y-14453014D02*
X18290357Y-14453014D01*
X18190357Y-14567300D01*
X18233214Y-14567300D01*
X18261786Y-14581586D01*
X18276071Y-14595871D01*
X18290357Y-14624443D01*
X18290357Y-14695871D01*
X18276071Y-14724443D01*
X18261786Y-14738729D01*
X18233214Y-14753014D01*
X18147500Y-14753014D01*
X18118928Y-14738729D01*
X18104643Y-14724443D01*
X18576071Y-14753014D02*
X18404643Y-14753014D01*
X18490357Y-14753014D02*
X18490357Y-14453014D01*
X18461786Y-14495871D01*
X18433214Y-14524443D01*
X18404643Y-14538729D01*
X18933214Y-14753014D02*
X18933214Y-14453014D01*
X19061786Y-14753014D02*
X19061786Y-14595871D01*
X19047500Y-14567300D01*
X19018928Y-14553014D01*
X18976071Y-14553014D01*
X18947500Y-14567300D01*
X18933214Y-14581586D01*
X19247500Y-14753014D02*
X19218928Y-14738729D01*
X19204643Y-14724443D01*
X19190357Y-14695871D01*
X19190357Y-14610157D01*
X19204643Y-14581586D01*
X19218928Y-14567300D01*
X19247500Y-14553014D01*
X19290357Y-14553014D01*
X19318928Y-14567300D01*
X19333214Y-14581586D01*
X19347500Y-14610157D01*
X19347500Y-14695871D01*
X19333214Y-14724443D01*
X19318928Y-14738729D01*
X19290357Y-14753014D01*
X19247500Y-14753014D01*
X19518928Y-14753014D02*
X19490357Y-14738729D01*
X19476071Y-14710157D01*
X19476071Y-14453014D01*
X19747500Y-14738729D02*
X19718928Y-14753014D01*
X19661786Y-14753014D01*
X19633214Y-14738729D01*
X19618928Y-14710157D01*
X19618928Y-14595871D01*
X19633214Y-14567300D01*
X19661786Y-14553014D01*
X19718928Y-14553014D01*
X19747500Y-14567300D01*
X19761786Y-14595871D01*
X19761786Y-14624443D01*
X19618928Y-14653014D01*
X19876071Y-14738729D02*
X19904643Y-14753014D01*
X19961786Y-14753014D01*
X19990357Y-14738729D01*
X20004643Y-14710157D01*
X20004643Y-14695871D01*
X19990357Y-14667300D01*
X19961786Y-14653014D01*
X19918928Y-14653014D01*
X19890357Y-14638729D01*
X19876071Y-14610157D01*
X19876071Y-14595871D01*
X19890357Y-14567300D01*
X19918928Y-14553014D01*
X19961786Y-14553014D01*
X19990357Y-14567300D01*
X20104643Y-14867300D02*
X20118928Y-14853014D01*
X20147500Y-14810157D01*
X20161786Y-14781586D01*
X20176071Y-14738729D01*
X20190357Y-14667300D01*
X20190357Y-14610157D01*
X20176071Y-14538729D01*
X20161786Y-14495871D01*
X20147500Y-14467300D01*
X20118928Y-14424443D01*
X20104643Y-14410157D01*
X13292500Y-14973300D02*
X13292500Y-15053300D01*
X13252500Y-15013300D02*
X13332500Y-15013300D01*
X13676071Y-14849014D02*
X13704643Y-14849014D01*
X13733214Y-14863300D01*
X13747500Y-14877586D01*
X13761786Y-14906157D01*
X13776071Y-14963300D01*
X13776071Y-15034729D01*
X13761786Y-15091871D01*
X13747500Y-15120443D01*
X13733214Y-15134729D01*
X13704643Y-15149014D01*
X13676071Y-15149014D01*
X13647500Y-15134729D01*
X13633214Y-15120443D01*
X13618928Y-15091871D01*
X13604643Y-15034729D01*
X13604643Y-14963300D01*
X13618928Y-14906157D01*
X13633214Y-14877586D01*
X13647500Y-14863300D01*
X13676071Y-14849014D01*
X13904643Y-15120443D02*
X13918928Y-15134729D01*
X13904643Y-15149014D01*
X13890357Y-15134729D01*
X13904643Y-15120443D01*
X13904643Y-15149014D01*
X14090357Y-14977586D02*
X14061786Y-14963300D01*
X14047500Y-14949014D01*
X14033214Y-14920443D01*
X14033214Y-14906157D01*
X14047500Y-14877586D01*
X14061786Y-14863300D01*
X14090357Y-14849014D01*
X14147500Y-14849014D01*
X14176071Y-14863300D01*
X14190357Y-14877586D01*
X14204643Y-14906157D01*
X14204643Y-14920443D01*
X14190357Y-14949014D01*
X14176071Y-14963300D01*
X14147500Y-14977586D01*
X14090357Y-14977586D01*
X14061786Y-14991871D01*
X14047500Y-15006157D01*
X14033214Y-15034729D01*
X14033214Y-15091871D01*
X14047500Y-15120443D01*
X14061786Y-15134729D01*
X14090357Y-15149014D01*
X14147500Y-15149014D01*
X14176071Y-15134729D01*
X14190357Y-15120443D01*
X14204643Y-15091871D01*
X14204643Y-15034729D01*
X14190357Y-15006157D01*
X14176071Y-14991871D01*
X14147500Y-14977586D01*
X14390357Y-14849014D02*
X14418928Y-14849014D01*
X14447500Y-14863300D01*
X14461786Y-14877586D01*
X14476071Y-14906157D01*
X14490357Y-14963300D01*
X14490357Y-15034729D01*
X14476071Y-15091871D01*
X14461786Y-15120443D01*
X14447500Y-15134729D01*
X14418928Y-15149014D01*
X14390357Y-15149014D01*
X14361786Y-15134729D01*
X14347500Y-15120443D01*
X14333214Y-15091871D01*
X14318928Y-15034729D01*
X14318928Y-14963300D01*
X14333214Y-14906157D01*
X14347500Y-14877586D01*
X14361786Y-14863300D01*
X14390357Y-14849014D01*
X14618928Y-15149014D02*
X14618928Y-14949014D01*
X14618928Y-14977586D02*
X14633214Y-14963300D01*
X14661786Y-14949014D01*
X14704643Y-14949014D01*
X14733214Y-14963300D01*
X14747500Y-14991871D01*
X14747500Y-15149014D01*
X14747500Y-14991871D02*
X14761786Y-14963300D01*
X14790357Y-14949014D01*
X14833214Y-14949014D01*
X14861786Y-14963300D01*
X14876071Y-14991871D01*
X14876071Y-15149014D01*
X15018928Y-15149014D02*
X15018928Y-14949014D01*
X15018928Y-14977586D02*
X15033214Y-14963300D01*
X15061786Y-14949014D01*
X15104643Y-14949014D01*
X15133214Y-14963300D01*
X15147500Y-14991871D01*
X15147500Y-15149014D01*
X15147500Y-14991871D02*
X15161786Y-14963300D01*
X15190357Y-14949014D01*
X15233214Y-14949014D01*
X15261786Y-14963300D01*
X15276071Y-14991871D01*
X15276071Y-15149014D01*
X15861786Y-14834729D02*
X15604643Y-15220443D01*
X16247500Y-14849014D02*
X16276071Y-14849014D01*
X16304643Y-14863300D01*
X16318928Y-14877586D01*
X16333214Y-14906157D01*
X16347500Y-14963300D01*
X16347500Y-15034729D01*
X16333214Y-15091871D01*
X16318928Y-15120443D01*
X16304643Y-15134729D01*
X16276071Y-15149014D01*
X16247500Y-15149014D01*
X16218928Y-15134729D01*
X16204643Y-15120443D01*
X16190357Y-15091871D01*
X16176071Y-15034729D01*
X16176071Y-14963300D01*
X16190357Y-14906157D01*
X16204643Y-14877586D01*
X16218928Y-14863300D01*
X16247500Y-14849014D01*
X16476071Y-15120443D02*
X16490357Y-15134729D01*
X16476071Y-15149014D01*
X16461786Y-15134729D01*
X16476071Y-15120443D01*
X16476071Y-15149014D01*
X16676071Y-14849014D02*
X16704643Y-14849014D01*
X16733214Y-14863300D01*
X16747500Y-14877586D01*
X16761786Y-14906157D01*
X16776071Y-14963300D01*
X16776071Y-15034729D01*
X16761786Y-15091871D01*
X16747500Y-15120443D01*
X16733214Y-15134729D01*
X16704643Y-15149014D01*
X16676071Y-15149014D01*
X16647500Y-15134729D01*
X16633214Y-15120443D01*
X16618928Y-15091871D01*
X16604643Y-15034729D01*
X16604643Y-14963300D01*
X16618928Y-14906157D01*
X16633214Y-14877586D01*
X16647500Y-14863300D01*
X16676071Y-14849014D01*
X16876071Y-14849014D02*
X17061786Y-14849014D01*
X16961786Y-14963300D01*
X17004643Y-14963300D01*
X17033214Y-14977586D01*
X17047500Y-14991871D01*
X17061786Y-15020443D01*
X17061786Y-15091871D01*
X17047500Y-15120443D01*
X17033214Y-15134729D01*
X17004643Y-15149014D01*
X16918928Y-15149014D01*
X16890357Y-15134729D01*
X16876071Y-15120443D01*
X17347500Y-15149014D02*
X17176071Y-15149014D01*
X17261786Y-15149014D02*
X17261786Y-14849014D01*
X17233214Y-14891871D01*
X17204643Y-14920443D01*
X17176071Y-14934729D01*
X17461786Y-14849014D02*
X17461786Y-14906157D01*
X17576071Y-14849014D02*
X17576071Y-14906157D01*
X18018928Y-15263300D02*
X18004643Y-15249014D01*
X17976071Y-15206157D01*
X17961786Y-15177586D01*
X17947500Y-15134729D01*
X17933214Y-15063300D01*
X17933214Y-15006157D01*
X17947500Y-14934729D01*
X17961786Y-14891871D01*
X17976071Y-14863300D01*
X18004643Y-14820443D01*
X18018928Y-14806157D01*
X18118928Y-14877586D02*
X18133214Y-14863300D01*
X18161786Y-14849014D01*
X18233214Y-14849014D01*
X18261786Y-14863300D01*
X18276071Y-14877586D01*
X18290357Y-14906157D01*
X18290357Y-14934729D01*
X18276071Y-14977586D01*
X18104643Y-15149014D01*
X18290357Y-15149014D01*
X18404643Y-14877586D02*
X18418928Y-14863300D01*
X18447500Y-14849014D01*
X18518928Y-14849014D01*
X18547500Y-14863300D01*
X18561786Y-14877586D01*
X18576071Y-14906157D01*
X18576071Y-14934729D01*
X18561786Y-14977586D01*
X18390357Y-15149014D01*
X18576071Y-15149014D01*
X18933214Y-15149014D02*
X18933214Y-14849014D01*
X19061786Y-15149014D02*
X19061786Y-14991871D01*
X19047500Y-14963300D01*
X19018928Y-14949014D01*
X18976071Y-14949014D01*
X18947500Y-14963300D01*
X18933214Y-14977586D01*
X19247500Y-15149014D02*
X19218928Y-15134729D01*
X19204643Y-15120443D01*
X19190357Y-15091871D01*
X19190357Y-15006157D01*
X19204643Y-14977586D01*
X19218928Y-14963300D01*
X19247500Y-14949014D01*
X19290357Y-14949014D01*
X19318928Y-14963300D01*
X19333214Y-14977586D01*
X19347500Y-15006157D01*
X19347500Y-15091871D01*
X19333214Y-15120443D01*
X19318928Y-15134729D01*
X19290357Y-15149014D01*
X19247500Y-15149014D01*
X19518928Y-15149014D02*
X19490357Y-15134729D01*
X19476071Y-15106157D01*
X19476071Y-14849014D01*
X19747500Y-15134729D02*
X19718928Y-15149014D01*
X19661786Y-15149014D01*
X19633214Y-15134729D01*
X19618928Y-15106157D01*
X19618928Y-14991871D01*
X19633214Y-14963300D01*
X19661786Y-14949014D01*
X19718928Y-14949014D01*
X19747500Y-14963300D01*
X19761786Y-14991871D01*
X19761786Y-15020443D01*
X19618928Y-15049014D01*
X19876071Y-15134729D02*
X19904643Y-15149014D01*
X19961786Y-15149014D01*
X19990357Y-15134729D01*
X20004643Y-15106157D01*
X20004643Y-15091871D01*
X19990357Y-15063300D01*
X19961786Y-15049014D01*
X19918928Y-15049014D01*
X19890357Y-15034729D01*
X19876071Y-15006157D01*
X19876071Y-14991871D01*
X19890357Y-14963300D01*
X19918928Y-14949014D01*
X19961786Y-14949014D01*
X19990357Y-14963300D01*
X20104643Y-15263300D02*
X20118928Y-15249014D01*
X20147500Y-15206157D01*
X20161786Y-15177586D01*
X20176071Y-15134729D01*
X20190357Y-15063300D01*
X20190357Y-15006157D01*
X20176071Y-14934729D01*
X20161786Y-14891871D01*
X20147500Y-14863300D01*
X20118928Y-14820443D01*
X20104643Y-14806157D01*
X13317844Y-15444683D02*
X13317844Y-15373918D01*
X13247079Y-15373918D01*
X13247079Y-15444683D01*
X13317844Y-15444683D01*
X13776071Y-15545014D02*
X13604643Y-15545014D01*
X13690357Y-15545014D02*
X13690357Y-15245014D01*
X13661786Y-15287871D01*
X13633214Y-15316443D01*
X13604643Y-15330729D01*
X13904643Y-15516443D02*
X13918928Y-15530729D01*
X13904643Y-15545014D01*
X13890357Y-15530729D01*
X13904643Y-15516443D01*
X13904643Y-15545014D01*
X14104643Y-15245014D02*
X14133214Y-15245014D01*
X14161786Y-15259300D01*
X14176071Y-15273586D01*
X14190357Y-15302157D01*
X14204643Y-15359300D01*
X14204643Y-15430729D01*
X14190357Y-15487871D01*
X14176071Y-15516443D01*
X14161786Y-15530729D01*
X14133214Y-15545014D01*
X14104643Y-15545014D01*
X14076071Y-15530729D01*
X14061786Y-15516443D01*
X14047500Y-15487871D01*
X14033214Y-15430729D01*
X14033214Y-15359300D01*
X14047500Y-15302157D01*
X14061786Y-15273586D01*
X14076071Y-15259300D01*
X14104643Y-15245014D01*
X14390357Y-15245014D02*
X14418928Y-15245014D01*
X14447500Y-15259300D01*
X14461786Y-15273586D01*
X14476071Y-15302157D01*
X14490357Y-15359300D01*
X14490357Y-15430729D01*
X14476071Y-15487871D01*
X14461786Y-15516443D01*
X14447500Y-15530729D01*
X14418928Y-15545014D01*
X14390357Y-15545014D01*
X14361786Y-15530729D01*
X14347500Y-15516443D01*
X14333214Y-15487871D01*
X14318928Y-15430729D01*
X14318928Y-15359300D01*
X14333214Y-15302157D01*
X14347500Y-15273586D01*
X14361786Y-15259300D01*
X14390357Y-15245014D01*
X14618928Y-15545014D02*
X14618928Y-15345014D01*
X14618928Y-15373586D02*
X14633214Y-15359300D01*
X14661786Y-15345014D01*
X14704643Y-15345014D01*
X14733214Y-15359300D01*
X14747500Y-15387871D01*
X14747500Y-15545014D01*
X14747500Y-15387871D02*
X14761786Y-15359300D01*
X14790357Y-15345014D01*
X14833214Y-15345014D01*
X14861786Y-15359300D01*
X14876071Y-15387871D01*
X14876071Y-15545014D01*
X15018928Y-15545014D02*
X15018928Y-15345014D01*
X15018928Y-15373586D02*
X15033214Y-15359300D01*
X15061786Y-15345014D01*
X15104643Y-15345014D01*
X15133214Y-15359300D01*
X15147500Y-15387871D01*
X15147500Y-15545014D01*
X15147500Y-15387871D02*
X15161786Y-15359300D01*
X15190357Y-15345014D01*
X15233214Y-15345014D01*
X15261786Y-15359300D01*
X15276071Y-15387871D01*
X15276071Y-15545014D01*
X15861786Y-15230729D02*
X15604643Y-15616443D01*
X16247500Y-15245014D02*
X16276071Y-15245014D01*
X16304643Y-15259300D01*
X16318928Y-15273586D01*
X16333214Y-15302157D01*
X16347500Y-15359300D01*
X16347500Y-15430729D01*
X16333214Y-15487871D01*
X16318928Y-15516443D01*
X16304643Y-15530729D01*
X16276071Y-15545014D01*
X16247500Y-15545014D01*
X16218928Y-15530729D01*
X16204643Y-15516443D01*
X16190357Y-15487871D01*
X16176071Y-15430729D01*
X16176071Y-15359300D01*
X16190357Y-15302157D01*
X16204643Y-15273586D01*
X16218928Y-15259300D01*
X16247500Y-15245014D01*
X16476071Y-15516443D02*
X16490357Y-15530729D01*
X16476071Y-15545014D01*
X16461786Y-15530729D01*
X16476071Y-15516443D01*
X16476071Y-15545014D01*
X16676071Y-15245014D02*
X16704643Y-15245014D01*
X16733214Y-15259300D01*
X16747500Y-15273586D01*
X16761786Y-15302157D01*
X16776071Y-15359300D01*
X16776071Y-15430729D01*
X16761786Y-15487871D01*
X16747500Y-15516443D01*
X16733214Y-15530729D01*
X16704643Y-15545014D01*
X16676071Y-15545014D01*
X16647500Y-15530729D01*
X16633214Y-15516443D01*
X16618928Y-15487871D01*
X16604643Y-15430729D01*
X16604643Y-15359300D01*
X16618928Y-15302157D01*
X16633214Y-15273586D01*
X16647500Y-15259300D01*
X16676071Y-15245014D01*
X16876071Y-15245014D02*
X17061786Y-15245014D01*
X16961786Y-15359300D01*
X17004643Y-15359300D01*
X17033214Y-15373586D01*
X17047500Y-15387871D01*
X17061786Y-15416443D01*
X17061786Y-15487871D01*
X17047500Y-15516443D01*
X17033214Y-15530729D01*
X17004643Y-15545014D01*
X16918928Y-15545014D01*
X16890357Y-15530729D01*
X16876071Y-15516443D01*
X17204643Y-15545014D02*
X17261786Y-15545014D01*
X17290357Y-15530729D01*
X17304643Y-15516443D01*
X17333214Y-15473586D01*
X17347500Y-15416443D01*
X17347500Y-15302157D01*
X17333214Y-15273586D01*
X17318928Y-15259300D01*
X17290357Y-15245014D01*
X17233214Y-15245014D01*
X17204643Y-15259300D01*
X17190357Y-15273586D01*
X17176071Y-15302157D01*
X17176071Y-15373586D01*
X17190357Y-15402157D01*
X17204643Y-15416443D01*
X17233214Y-15430729D01*
X17290357Y-15430729D01*
X17318928Y-15416443D01*
X17333214Y-15402157D01*
X17347500Y-15373586D01*
X17461786Y-15245014D02*
X17461786Y-15302157D01*
X17576071Y-15245014D02*
X17576071Y-15302157D01*
X18018928Y-15659300D02*
X18004643Y-15645014D01*
X17976071Y-15602157D01*
X17961786Y-15573586D01*
X17947500Y-15530729D01*
X17933214Y-15459300D01*
X17933214Y-15402157D01*
X17947500Y-15330729D01*
X17961786Y-15287871D01*
X17976071Y-15259300D01*
X18004643Y-15216443D01*
X18018928Y-15202157D01*
X18290357Y-15545014D02*
X18118928Y-15545014D01*
X18204643Y-15545014D02*
X18204643Y-15245014D01*
X18176071Y-15287871D01*
X18147500Y-15316443D01*
X18118928Y-15330729D01*
X18476071Y-15245014D02*
X18504643Y-15245014D01*
X18533214Y-15259300D01*
X18547500Y-15273586D01*
X18561786Y-15302157D01*
X18576071Y-15359300D01*
X18576071Y-15430729D01*
X18561786Y-15487871D01*
X18547500Y-15516443D01*
X18533214Y-15530729D01*
X18504643Y-15545014D01*
X18476071Y-15545014D01*
X18447500Y-15530729D01*
X18433214Y-15516443D01*
X18418928Y-15487871D01*
X18404643Y-15430729D01*
X18404643Y-15359300D01*
X18418928Y-15302157D01*
X18433214Y-15273586D01*
X18447500Y-15259300D01*
X18476071Y-15245014D01*
X18933214Y-15545014D02*
X18933214Y-15245014D01*
X19061786Y-15545014D02*
X19061786Y-15387871D01*
X19047500Y-15359300D01*
X19018928Y-15345014D01*
X18976071Y-15345014D01*
X18947500Y-15359300D01*
X18933214Y-15373586D01*
X19247500Y-15545014D02*
X19218928Y-15530729D01*
X19204643Y-15516443D01*
X19190357Y-15487871D01*
X19190357Y-15402157D01*
X19204643Y-15373586D01*
X19218928Y-15359300D01*
X19247500Y-15345014D01*
X19290357Y-15345014D01*
X19318928Y-15359300D01*
X19333214Y-15373586D01*
X19347500Y-15402157D01*
X19347500Y-15487871D01*
X19333214Y-15516443D01*
X19318928Y-15530729D01*
X19290357Y-15545014D01*
X19247500Y-15545014D01*
X19518928Y-15545014D02*
X19490357Y-15530729D01*
X19476071Y-15502157D01*
X19476071Y-15245014D01*
X19747500Y-15530729D02*
X19718928Y-15545014D01*
X19661786Y-15545014D01*
X19633214Y-15530729D01*
X19618928Y-15502157D01*
X19618928Y-15387871D01*
X19633214Y-15359300D01*
X19661786Y-15345014D01*
X19718928Y-15345014D01*
X19747500Y-15359300D01*
X19761786Y-15387871D01*
X19761786Y-15416443D01*
X19618928Y-15445014D01*
X19876071Y-15530729D02*
X19904643Y-15545014D01*
X19961786Y-15545014D01*
X19990357Y-15530729D01*
X20004643Y-15502157D01*
X20004643Y-15487871D01*
X19990357Y-15459300D01*
X19961786Y-15445014D01*
X19918928Y-15445014D01*
X19890357Y-15430729D01*
X19876071Y-15402157D01*
X19876071Y-15387871D01*
X19890357Y-15359300D01*
X19918928Y-15345014D01*
X19961786Y-15345014D01*
X19990357Y-15359300D01*
X20104643Y-15659300D02*
X20118928Y-15645014D01*
X20147500Y-15602157D01*
X20161786Y-15573586D01*
X20176071Y-15530729D01*
X20190357Y-15459300D01*
X20190357Y-15402157D01*
X20176071Y-15330729D01*
X20161786Y-15287871D01*
X20147500Y-15259300D01*
X20118928Y-15216443D01*
X20104643Y-15202157D01*
M02*
