M48
; DRILL file {KiCad (5.1.5)-3} date 7/14/2021 6:19:26 PM
; FORMAT={-:-/ absolute / metric / decimal}
; #@! TF.CreationDate,2021-07-14T18:19:26-04:00
; #@! TF.GenerationSoftware,Kicad,Pcbnew,(5.1.5)-3
; #@! TF.FileFunction,Plated,1,2,PTH
FMAT,2
METRIC
T1C0.300
T2C0.400
T3C0.800
T4C1.001
%
G90
G05
T1
X136.906Y-101.346
X137.922Y-108.966
X138.176Y-102.339
X138.176Y-103.632
X138.43Y-90.655
X138.684Y-93.218
X139.7Y-98.552
X139.7Y-103.632
X140.344Y-87.249
X140.344Y-88.519
X140.344Y-91.059
X140.716Y-108.204
X140.97Y-102.108
X141.224Y-96.012
X141.478Y-108.966
X141.732Y-98.552
X141.986Y-96.52
X141.986Y-102.108
X142.24Y-85.598
X142.748Y-86.614
X142.748Y-101.6
X142.748Y-120.65
X143.002Y-110.49
X143.002Y-112.753
X143.256Y-105.918
X143.256Y-114.046
X143.51Y-91.44
X143.51Y-107.696
X143.687Y-123.464
X143.687Y-124.863
X143.687Y-126.263
X143.764Y-103.632
X144.018Y-99.06
X144.526Y-106.172
X144.526Y-116.078
X145.034Y-112.014
X145.542Y-106.172
X145.542Y-116.078
X145.796Y-110.744
X145.796Y-111.76
X145.796Y-124.46
X146.558Y-115.57
X147.32Y-112.014
X147.32Y-117.094
X147.574Y-109.22
X147.828Y-113.792
X148.336Y-110.236
X148.59Y-99.822
X148.59Y-106.172
X148.844Y-103.124
X148.844Y-116.078
X149.352Y-99.06
X149.352Y-110.236
X149.352Y-111.76
X149.606Y-98.298
X149.606Y-106.172
X149.86Y-116.078
X150.368Y-112.014
X151.638Y-99.314
X151.638Y-113.538
X152.423Y-109.197
X152.654Y-97.536
X152.654Y-121.92
X152.908Y-110.49
X153.162Y-91.694
X153.289Y-95.869
X153.924Y-82.55
X154.178Y-85.598
X154.178Y-92.71
X154.686Y-84.074
X154.686Y-93.472
X154.686Y-96.266
X154.94Y-110.49
X155.194Y-113.538
X155.448Y-93.98
X155.956Y-118.618
X156.21Y-119.634
X156.464Y-113.284
X156.718Y-108.966
X156.972Y-93.726
X156.972Y-120.142
X157.226Y-108.204
X157.344Y-80.899
X157.344Y-84.709
X157.48Y-120.904
X157.48Y-122.174
X157.988Y-107.188
X158.75Y-107.95
X159.512Y-90.424
X159.512Y-92.456
X159.512Y-94.234
X159.512Y-95.504
X159.512Y-122.682
X161.798Y-95.504
X162.052Y-128.27
T2
X135.128Y-71.882
X135.128Y-105.156
X135.128Y-116.84
X135.128Y-122.936
X138.684Y-112.014
X139.446Y-130.302
X141.986Y-71.882
X145.542Y-92.456
X145.796Y-83.058
X145.796Y-87.884
X147.574Y-130.302
X147.828Y-122.682
X149.606Y-83.058
X149.606Y-87.884
X149.606Y-92.71
X151.13Y-122.428
X151.384Y-116.332
X151.638Y-98.044
X151.638Y-101.346
X152.654Y-130.302
X153.416Y-87.63
X153.416Y-90.424
X154.178Y-105.156
X155.194Y-114.554
X155.702Y-78.232
X155.956Y-71.882
X158.496Y-131.318
X161.036Y-71.882
X161.544Y-118.11
X161.544Y-123.444
X162.052Y-83.82
T3
X160.782Y-109.474
X160.782Y-111.474
X160.782Y-113.474
X160.782Y-115.474
X135.128Y-107.95
X135.128Y-109.95
X135.128Y-111.95
X135.128Y-113.95
X161.036Y-85.598
X161.036Y-87.598
X161.036Y-89.598
X161.036Y-91.598
X161.036Y-93.598
X135.382Y-88.9
X135.382Y-90.9
X135.382Y-92.9
X135.382Y-94.9
X135.382Y-96.9
X145.384Y-71.882
X147.384Y-71.882
X149.384Y-71.882
X151.384Y-71.882
T4
X135.382Y-126.238
X135.382Y-130.048
X135.382Y-77.724
X135.382Y-81.534
X160.782Y-78.232
X160.782Y-82.042
X160.782Y-97.536
X160.782Y-101.346
X160.782Y-126.238
X160.782Y-130.048
T0
M30
