G04 #@! TF.GenerationSoftware,KiCad,Pcbnew,(5.1.5)-3*
G04 #@! TF.CreationDate,2021-07-14T18:19:21-04:00*
G04 #@! TF.ProjectId,MotorDriver,4d6f746f-7244-4726-9976-65722e6b6963,rev?*
G04 #@! TF.SameCoordinates,Original*
G04 #@! TF.FileFunction,Copper,L2,Bot*
G04 #@! TF.FilePolarity,Positive*
%FSLAX46Y46*%
G04 Gerber Fmt 4.6, Leading zero omitted, Abs format (unit mm)*
G04 Created by KiCad (PCBNEW (5.1.5)-3) date 2021-07-14 18:19:21*
%MOMM*%
%LPD*%
G04 APERTURE LIST*
%ADD10O,1.350000X1.350000*%
%ADD11R,1.350000X1.350000*%
%ADD12C,2.499360*%
%ADD13R,2.499360X2.499360*%
%ADD14C,0.600000*%
%ADD15C,0.900000*%
%ADD16C,0.800000*%
%ADD17C,0.200000*%
%ADD18C,0.250000*%
G04 APERTURE END LIST*
D10*
X135382000Y-96900000D03*
X135382000Y-94900000D03*
X135382000Y-92900000D03*
X135382000Y-90900000D03*
D11*
X135382000Y-88900000D03*
D10*
X161036000Y-93598000D03*
X161036000Y-91598000D03*
X161036000Y-89598000D03*
X161036000Y-87598000D03*
D11*
X161036000Y-85598000D03*
D12*
X160782000Y-97536000D03*
D13*
X160782000Y-101346000D03*
D12*
X160782000Y-130048000D03*
D13*
X160782000Y-126238000D03*
D12*
X160782000Y-82042000D03*
D13*
X160782000Y-78232000D03*
D12*
X135382000Y-126238000D03*
D13*
X135382000Y-130048000D03*
D12*
X135382000Y-77724000D03*
D13*
X135382000Y-81534000D03*
D10*
X135128000Y-113950000D03*
X135128000Y-111950000D03*
X135128000Y-109950000D03*
D11*
X135128000Y-107950000D03*
D10*
X160782000Y-115474000D03*
X160782000Y-113474000D03*
X160782000Y-111474000D03*
D11*
X160782000Y-109474000D03*
D10*
X145384000Y-71882000D03*
X147384000Y-71882000D03*
X149384000Y-71882000D03*
D11*
X151384000Y-71882000D03*
D14*
X147320000Y-112014000D03*
X157480000Y-122174000D03*
D15*
X149606000Y-87884000D03*
X145796000Y-87884000D03*
X135128000Y-116840000D03*
X135128000Y-122936000D03*
X152654000Y-130302000D03*
X147574000Y-130302000D03*
X161544000Y-123444000D03*
X161544000Y-118110000D03*
X155194000Y-114554000D03*
X154178000Y-105156000D03*
X151638000Y-101346000D03*
X151638000Y-98044000D03*
X153416000Y-90424000D03*
X153416000Y-87630000D03*
D14*
X148844000Y-103124000D03*
X143256000Y-105918000D03*
X143510000Y-107696000D03*
X139700000Y-103632000D03*
D15*
X135128000Y-105156000D03*
X145796000Y-83058000D03*
X149606000Y-83058000D03*
X145542000Y-92456000D03*
X149606000Y-92710000D03*
X135128000Y-71882000D03*
X141986000Y-71882000D03*
X161036000Y-71882000D03*
X155956000Y-71882000D03*
X155702000Y-78232000D03*
X162052000Y-83820000D03*
X147828000Y-122682000D03*
X151130000Y-122428000D03*
X158496000Y-131318000D03*
X139446000Y-130302000D03*
D16*
X151384000Y-116332000D03*
D14*
X146558000Y-115570000D03*
X152908000Y-110490000D03*
X154940000Y-110490000D03*
X162052000Y-128270000D03*
D16*
X138684000Y-112014000D03*
D14*
X143002000Y-110490000D03*
X147574000Y-109220000D03*
X144018000Y-99060000D03*
X137922000Y-108966000D03*
X138176000Y-103632000D03*
X149352000Y-99060000D03*
X143764000Y-103632000D03*
X145796000Y-110744000D03*
X143256000Y-114046000D03*
X147320000Y-117094000D03*
X142748000Y-120650000D03*
X159512000Y-94234000D03*
X159512000Y-92456000D03*
X159512000Y-90424000D03*
X159512000Y-122682000D03*
X154178000Y-92710000D03*
X157226000Y-108204000D03*
X156210000Y-119634000D03*
X143687000Y-123464000D03*
X141732000Y-98552000D03*
X139700000Y-98552000D03*
X141224000Y-96012000D03*
X157344000Y-80899000D03*
X141986000Y-102108000D03*
X141478000Y-108966000D03*
X149606000Y-98298000D03*
X141986000Y-96520000D03*
X157344000Y-84709000D03*
X154686000Y-84074000D03*
X153924000Y-82550000D03*
X140970000Y-102108000D03*
X140716000Y-108204000D03*
X151638000Y-99314000D03*
X154686000Y-93472000D03*
X156972000Y-120142000D03*
X143687000Y-124862800D03*
X157988000Y-107188000D03*
X155448000Y-93980000D03*
X158750000Y-107950000D03*
X157480000Y-120904000D03*
X143687000Y-126262800D03*
X156972000Y-93726000D03*
X156464000Y-113284000D03*
X161798000Y-95504000D03*
X159512000Y-95504000D03*
X154686000Y-96266000D03*
X156718000Y-108966000D03*
X155956000Y-118618000D03*
X145796000Y-124460000D03*
X147828000Y-113792000D03*
X143002000Y-112753000D03*
X152654000Y-121920000D03*
X148590000Y-99822000D03*
X152423000Y-109197000D03*
X154178000Y-85598000D03*
X138176000Y-102339000D03*
X142748000Y-101600000D03*
X144526000Y-106172000D03*
X145542000Y-106172000D03*
X145542000Y-116078000D03*
X144526000Y-116078000D03*
X148590000Y-106172000D03*
X149606000Y-106172000D03*
X149860000Y-116078000D03*
X148844000Y-116078000D03*
X152654000Y-97536000D03*
X153162000Y-91694000D03*
X143510000Y-91440000D03*
X138430000Y-90655000D03*
X145034000Y-112014000D03*
X151638000Y-113538000D03*
X153289000Y-95869000D03*
X155194000Y-113538000D03*
X145796000Y-111760000D03*
X136906000Y-101346000D03*
X138684000Y-93218000D03*
X140344000Y-91059000D03*
X149352000Y-111760000D03*
X140344000Y-88519000D03*
X150368000Y-112014000D03*
X140344000Y-87249000D03*
X149352000Y-110236000D03*
X142748000Y-86614000D03*
X148336000Y-110236000D03*
X142240000Y-85598000D03*
D17*
X154178000Y-92710000D02*
X154178000Y-92964000D01*
X154178000Y-92964000D02*
X153924000Y-93218000D01*
X153924000Y-93218000D02*
X153924000Y-94234000D01*
X153924000Y-94234000D02*
X156718000Y-97028000D01*
X156718000Y-97028000D02*
X156718000Y-103378000D01*
X156718000Y-103378000D02*
X157480000Y-104140000D01*
X157480000Y-104140000D02*
X157480000Y-106680000D01*
X157480000Y-106680000D02*
X157226000Y-106934000D01*
X157226000Y-106934000D02*
X157226000Y-108204000D01*
X145445000Y-125222000D02*
X143687000Y-123464000D01*
X151638000Y-125222000D02*
X145445000Y-125222000D01*
X156210000Y-120650000D02*
X151638000Y-125222000D01*
X156210000Y-119634000D02*
X156210000Y-120650000D01*
X141732000Y-98552000D02*
X139700000Y-98552000D01*
X156845000Y-80899000D02*
X157344000Y-80899000D01*
X149384000Y-71882000D02*
X149384000Y-72422000D01*
X149384000Y-72422000D02*
X150368000Y-73406000D01*
X150368000Y-73406000D02*
X152146000Y-73406000D01*
X152146000Y-73406000D02*
X153416000Y-74676000D01*
X153416000Y-74676000D02*
X153416000Y-81788000D01*
X153416000Y-81788000D02*
X152654000Y-82550000D01*
X152654000Y-82550000D02*
X152654000Y-85090000D01*
X152654000Y-85090000D02*
X156845000Y-80899000D01*
X151384000Y-86360000D02*
X152654000Y-85090000D01*
X151384000Y-94234000D02*
X151384000Y-86360000D01*
X141478000Y-95758000D02*
X149860000Y-95758000D01*
X149860000Y-95758000D02*
X151384000Y-94234000D01*
X141224000Y-96012000D02*
X141478000Y-95758000D01*
X141986000Y-102108000D02*
X141986000Y-108458000D01*
X141986000Y-108458000D02*
X141478000Y-108966000D01*
X149606000Y-98298000D02*
X151892000Y-100584000D01*
X151892000Y-100584000D02*
X152400000Y-100584000D01*
X152400000Y-100584000D02*
X152908000Y-101092000D01*
X152908000Y-101092000D02*
X152908000Y-108712000D01*
X152908000Y-108712000D02*
X153670000Y-109474000D01*
X153670000Y-109474000D02*
X153670000Y-115316000D01*
X153670000Y-115316000D02*
X154178000Y-115824000D01*
X154178000Y-115824000D02*
X157226000Y-115824000D01*
X157226000Y-115824000D02*
X159004000Y-114046000D01*
X159004000Y-113252000D02*
X160782000Y-111474000D01*
X159004000Y-114046000D02*
X159004000Y-113252000D01*
X153797000Y-84709000D02*
X157344000Y-84709000D01*
X153797000Y-84709000D02*
X154051000Y-84709000D01*
X154051000Y-84709000D02*
X154686000Y-84074000D01*
X153924000Y-74422000D02*
X151384000Y-71882000D01*
X153924000Y-82550000D02*
X153924000Y-74422000D01*
X141986000Y-96520000D02*
X149860000Y-96520000D01*
X151892000Y-94488000D02*
X151892000Y-86868000D01*
X149860000Y-96520000D02*
X151892000Y-94488000D01*
X151892000Y-86868000D02*
X153797000Y-84709000D01*
X140970000Y-102108000D02*
X140970000Y-107950000D01*
X140970000Y-107950000D02*
X140716000Y-108204000D01*
X151638000Y-99314000D02*
X152400000Y-100076000D01*
X152400000Y-100076000D02*
X152654000Y-100076000D01*
X152654000Y-100076000D02*
X153416000Y-100838000D01*
X153416000Y-100838000D02*
X153416000Y-108458000D01*
X153416000Y-108458000D02*
X154178000Y-109220000D01*
X154178000Y-109220000D02*
X154178000Y-114808000D01*
X154178000Y-114808000D02*
X154686000Y-115316000D01*
X154686000Y-115316000D02*
X156972000Y-115316000D01*
X156972000Y-115316000D02*
X158496000Y-113792000D01*
X158496000Y-111760000D02*
X160782000Y-109474000D01*
X158496000Y-113792000D02*
X158496000Y-111760000D01*
X154686000Y-93472000D02*
X154686000Y-94234000D01*
X154686000Y-94234000D02*
X155702000Y-95250000D01*
X155702000Y-95250000D02*
X155956000Y-95250000D01*
X155956000Y-95250000D02*
X157226000Y-96520000D01*
X157226000Y-96520000D02*
X157226000Y-103124000D01*
X157226000Y-103124000D02*
X157988000Y-103886000D01*
X156972000Y-120142000D02*
X156718000Y-120396000D01*
X156718000Y-120396000D02*
X156718000Y-120904000D01*
X156718000Y-120904000D02*
X151892000Y-125730000D01*
X151892000Y-125730000D02*
X144554200Y-125730000D01*
X144554200Y-125730000D02*
X143687000Y-124862800D01*
X157988000Y-103886000D02*
X157988000Y-107188000D01*
X155448000Y-93980000D02*
X157734000Y-96266000D01*
X157734000Y-96266000D02*
X157734000Y-102616000D01*
D18*
X157734000Y-102616000D02*
X157734000Y-102870000D01*
D17*
X157734000Y-102870000D02*
X158750000Y-103886000D01*
X158750000Y-103886000D02*
X158750000Y-107950000D01*
X157480000Y-120904000D02*
X152121200Y-126262800D01*
X152121200Y-126262800D02*
X143687000Y-126262800D01*
X156972000Y-93726000D02*
X156210000Y-93726000D01*
X156210000Y-93726000D02*
X154432000Y-91948000D01*
X154432000Y-91948000D02*
X153924000Y-91948000D01*
X153924000Y-91948000D02*
X153416000Y-92456000D01*
X153416000Y-92456000D02*
X153416000Y-94488000D01*
X155702000Y-98298000D02*
X155702000Y-108966000D01*
X155702000Y-108966000D02*
X156464000Y-109728000D01*
X156464000Y-109728000D02*
X156464000Y-113284000D01*
X153924000Y-94996000D02*
X153416000Y-94488000D01*
X153924000Y-96520000D02*
X153924000Y-94996000D01*
X153924000Y-96520000D02*
X155702000Y-98298000D01*
X161798000Y-95504000D02*
X159512000Y-95504000D01*
X154686000Y-96266000D02*
X156210000Y-97790000D01*
X156210000Y-97790000D02*
X156210000Y-103632000D01*
X156210000Y-103632000D02*
X156210000Y-108204000D01*
X156210000Y-108204000D02*
X156210000Y-108458000D01*
X156210000Y-108458000D02*
X156718000Y-108966000D01*
X155956000Y-118618000D02*
X155956000Y-118872000D01*
X155956000Y-118872000D02*
X155448000Y-119380000D01*
X155448000Y-119380000D02*
X155448000Y-120650000D01*
X155448000Y-120650000D02*
X151384000Y-124714000D01*
X151384000Y-124714000D02*
X146050000Y-124714000D01*
X146050000Y-124714000D02*
X145796000Y-124460000D01*
D18*
X147828000Y-113792000D02*
X147320000Y-113284000D01*
X147320000Y-113284000D02*
X143533000Y-113284000D01*
X143533000Y-113284000D02*
X143002000Y-112753000D01*
X147828000Y-113792000D02*
X147828000Y-116078000D01*
X147828000Y-116078000D02*
X152654000Y-120904000D01*
X152654000Y-120904000D02*
X152654000Y-121920000D01*
D17*
X148590000Y-99822000D02*
X150876000Y-102108000D01*
X150876000Y-107650000D02*
X152423000Y-109197000D01*
X150876000Y-102108000D02*
X150876000Y-107650000D01*
D18*
X148590000Y-99822000D02*
X148590000Y-99060000D01*
X148590000Y-99060000D02*
X148336000Y-98806000D01*
X148336000Y-98806000D02*
X148336000Y-97536000D01*
X148336000Y-97536000D02*
X148844000Y-97028000D01*
X148844000Y-97028000D02*
X150114000Y-97028000D01*
X150114000Y-97028000D02*
X152400000Y-94742000D01*
X152400000Y-94742000D02*
X152400000Y-87122000D01*
X152400000Y-87122000D02*
X153924000Y-85598000D01*
X153924000Y-85598000D02*
X154178000Y-85598000D01*
D17*
X142748000Y-101600000D02*
X142494000Y-101346000D01*
X139169000Y-101346000D02*
X138176000Y-102339000D01*
X142494000Y-101346000D02*
X139169000Y-101346000D01*
D18*
X136906000Y-83058000D02*
X135382000Y-81534000D01*
X144526000Y-106172000D02*
X144526000Y-101346000D01*
X144526000Y-101346000D02*
X144018000Y-100838000D01*
X137414000Y-100838000D02*
X137160000Y-100584000D01*
X144018000Y-100838000D02*
X137414000Y-100838000D01*
X137160000Y-83312000D02*
X136906000Y-83058000D01*
X137160000Y-100584000D02*
X137160000Y-83312000D01*
X145542000Y-106172000D02*
X145542000Y-100838000D01*
X145542000Y-100838000D02*
X145034000Y-100330000D01*
X137668000Y-100076000D02*
X137668000Y-79756000D01*
X145034000Y-100330000D02*
X137922000Y-100330000D01*
X137668000Y-79756000D02*
X135382000Y-77724000D01*
X137922000Y-100330000D02*
X137668000Y-100076000D01*
X137160000Y-128270000D02*
X135382000Y-130048000D01*
X137160000Y-124206000D02*
X137160000Y-128270000D01*
X145542000Y-116078000D02*
X144526000Y-117094000D01*
X144272000Y-117094000D02*
X137160000Y-124206000D01*
X144526000Y-117094000D02*
X144272000Y-117094000D01*
X135382000Y-125222000D02*
X135382000Y-126238000D01*
X144526000Y-116078000D02*
X135382000Y-125222000D01*
X148590000Y-106172000D02*
X149352000Y-105410000D01*
D17*
X150114000Y-105664000D02*
X150368000Y-105918000D01*
D18*
X149860000Y-105410000D02*
X150368000Y-105918000D01*
X149352000Y-105410000D02*
X149860000Y-105410000D01*
X158242000Y-80772000D02*
X160782000Y-78232000D01*
X158242000Y-102616000D02*
X158242000Y-80772000D01*
X160274000Y-104648000D02*
X158242000Y-102616000D01*
X160274000Y-105918000D02*
X160274000Y-104648000D01*
X161798000Y-107442000D02*
X160274000Y-105918000D01*
X151638000Y-109728000D02*
X151638000Y-111506000D01*
X150368000Y-105918000D02*
X150368000Y-108458000D01*
X150368000Y-108458000D02*
X151638000Y-109728000D01*
X152908000Y-112776000D02*
X152908000Y-115824000D01*
X161798000Y-116078000D02*
X161798000Y-107442000D01*
X152908000Y-115824000D02*
X153416000Y-116332000D01*
X153416000Y-116332000D02*
X158496000Y-116332000D01*
X158496000Y-116332000D02*
X159004000Y-116840000D01*
X151638000Y-111506000D02*
X152908000Y-112776000D01*
X159004000Y-116840000D02*
X161036000Y-116840000D01*
X161036000Y-116840000D02*
X161798000Y-116078000D01*
X158750000Y-84074000D02*
X160782000Y-82042000D01*
X158750000Y-102362000D02*
X158750000Y-84074000D01*
X160782000Y-104394000D02*
X158750000Y-102362000D01*
X160782000Y-105664000D02*
X160782000Y-104394000D01*
X151130000Y-111760000D02*
X152400000Y-113030000D01*
X161290000Y-117348000D02*
X162306000Y-116332000D01*
X151130000Y-109982000D02*
X151130000Y-111760000D01*
X152400000Y-113030000D02*
X152400000Y-116332000D01*
X158242000Y-116840000D02*
X158750000Y-117348000D01*
X149606000Y-108458000D02*
X151130000Y-109982000D01*
X152400000Y-116332000D02*
X152908000Y-116840000D01*
X162306000Y-107188000D02*
X160782000Y-105664000D01*
X149606000Y-106172000D02*
X149606000Y-108458000D01*
X162306000Y-116332000D02*
X162306000Y-107188000D01*
X152908000Y-116840000D02*
X158242000Y-116840000D01*
X158750000Y-117348000D02*
X161290000Y-117348000D01*
X149860000Y-116078000D02*
X149860000Y-116332000D01*
X149860000Y-116332000D02*
X150876000Y-117348000D01*
X150876000Y-117348000D02*
X157988000Y-117348000D01*
X157988000Y-117348000D02*
X158750000Y-118110000D01*
X158750000Y-118110000D02*
X158750000Y-124206000D01*
X158750000Y-124206000D02*
X160782000Y-126238000D01*
X158242000Y-118364000D02*
X158242000Y-127508000D01*
X158242000Y-127508000D02*
X160782000Y-130048000D01*
X148844000Y-116078000D02*
X150622000Y-117856000D01*
X157734000Y-117856000D02*
X158242000Y-118364000D01*
X150622000Y-117856000D02*
X157734000Y-117856000D01*
D17*
X152654000Y-97536000D02*
X152400000Y-97282000D01*
X152400000Y-97282000D02*
X152400000Y-95504000D01*
X152400000Y-95504000D02*
X152908000Y-94996000D01*
X152908000Y-94996000D02*
X152908000Y-91948000D01*
X152908000Y-91948000D02*
X153162000Y-91694000D01*
X143510000Y-91440000D02*
X143510000Y-85852000D01*
X143510000Y-85852000D02*
X142494000Y-84836000D01*
X142494000Y-84836000D02*
X140462000Y-84836000D01*
X140462000Y-84836000D02*
X138430000Y-86868000D01*
X138430000Y-86868000D02*
X138430000Y-90655000D01*
X145034000Y-112014000D02*
X145542000Y-112522000D01*
X145542000Y-112522000D02*
X145796000Y-112776000D01*
X145796000Y-112776000D02*
X149606000Y-112776000D01*
X149606000Y-112776000D02*
X150876000Y-112776000D01*
X150876000Y-112776000D02*
X151638000Y-113538000D01*
X155194000Y-108966000D02*
X155194000Y-99314000D01*
X155194000Y-99314000D02*
X153416000Y-97536000D01*
X153416000Y-97536000D02*
X153416000Y-95996000D01*
X153416000Y-95996000D02*
X153289000Y-95869000D01*
X155194000Y-108966000D02*
X155194000Y-109220000D01*
X155194000Y-109220000D02*
X155956000Y-109982000D01*
X155956000Y-109982000D02*
X155956000Y-112776000D01*
X155956000Y-112776000D02*
X155194000Y-113538000D01*
X136906000Y-102108000D02*
X136906000Y-101346000D01*
X145288000Y-111252000D02*
X142748000Y-111252000D01*
X139192000Y-106172000D02*
X136906000Y-103886000D01*
X136906000Y-103886000D02*
X136906000Y-102108000D01*
X145796000Y-111760000D02*
X145288000Y-111252000D01*
X142748000Y-111252000D02*
X139192000Y-107696000D01*
X139192000Y-107696000D02*
X139192000Y-106172000D01*
X138684000Y-93218000D02*
X140344000Y-91558000D01*
X140344000Y-91558000D02*
X140344000Y-91059000D01*
X146304000Y-100330000D02*
X145796000Y-99822000D01*
X140725000Y-88900000D02*
X140344000Y-88519000D01*
X138430000Y-99060000D02*
X138430000Y-95250000D01*
X146304000Y-109982000D02*
X146304000Y-100330000D01*
X139192000Y-99822000D02*
X138430000Y-99060000D01*
X149352000Y-111760000D02*
X148082000Y-111760000D01*
X145796000Y-99822000D02*
X139192000Y-99822000D01*
X148082000Y-111760000D02*
X146304000Y-109982000D01*
X138430000Y-95250000D02*
X141224000Y-92456000D01*
X141224000Y-89408000D02*
X140716000Y-88900000D01*
X140716000Y-88900000D02*
X140725000Y-88900000D01*
X141224000Y-92456000D02*
X141224000Y-89408000D01*
X141732000Y-87630000D02*
X141351000Y-87249000D01*
X141732000Y-92710000D02*
X141732000Y-87630000D01*
X141351000Y-87249000D02*
X140344000Y-87249000D01*
X138938000Y-95504000D02*
X141732000Y-92710000D01*
X138938000Y-98806000D02*
X138938000Y-95504000D01*
X148082000Y-110998000D02*
X146812000Y-109728000D01*
X150368000Y-112014000D02*
X150368000Y-111760000D01*
X150368000Y-111760000D02*
X149606000Y-110998000D01*
X146812000Y-109728000D02*
X146812000Y-98552000D01*
X149606000Y-110998000D02*
X148082000Y-110998000D01*
X143002000Y-98298000D02*
X141986000Y-99314000D01*
X146812000Y-98552000D02*
X146558000Y-98298000D01*
X146558000Y-98298000D02*
X143002000Y-98298000D01*
X141986000Y-99314000D02*
X139446000Y-99314000D01*
X139446000Y-99314000D02*
X138938000Y-98806000D01*
X149352000Y-110236000D02*
X149352000Y-108966000D01*
X149352000Y-108966000D02*
X147828000Y-107442000D01*
X147828000Y-107442000D02*
X147828000Y-97536000D01*
X147828000Y-97536000D02*
X147320000Y-97028000D01*
X147320000Y-97028000D02*
X142494000Y-97028000D01*
X142494000Y-97028000D02*
X142240000Y-97282000D01*
X142240000Y-97282000D02*
X141478000Y-97282000D01*
X141478000Y-97282000D02*
X140462000Y-96266000D01*
X140462000Y-96266000D02*
X140462000Y-95504000D01*
X140462000Y-95504000D02*
X141986000Y-93980000D01*
X141986000Y-93980000D02*
X142748000Y-93218000D01*
X142748000Y-93218000D02*
X142748000Y-86614000D01*
X141986000Y-85852000D02*
X142240000Y-85598000D01*
X148336000Y-110236000D02*
X148336000Y-108712000D01*
X148336000Y-108712000D02*
X147320000Y-107696000D01*
X147320000Y-107696000D02*
X147320000Y-98044000D01*
X147320000Y-98044000D02*
X147066000Y-97790000D01*
X141224000Y-97790000D02*
X139954000Y-96520000D01*
X139954000Y-96520000D02*
X139954000Y-95250000D01*
X139954000Y-95250000D02*
X142240000Y-92964000D01*
X142240000Y-92964000D02*
X142240000Y-87122000D01*
X142240000Y-87122000D02*
X141986000Y-86868000D01*
X147066000Y-97790000D02*
X141224000Y-97790000D01*
X141986000Y-86868000D02*
X141986000Y-85852000D01*
G36*
X162439001Y-95394738D02*
G01*
X162423021Y-95314402D01*
X162374022Y-95196110D01*
X162302888Y-95089649D01*
X162212351Y-94999112D01*
X162105890Y-94927978D01*
X161987598Y-94878979D01*
X161862019Y-94854000D01*
X161733981Y-94854000D01*
X161608402Y-94878979D01*
X161490110Y-94927978D01*
X161383649Y-94999112D01*
X161328761Y-95054000D01*
X159981239Y-95054000D01*
X159926351Y-94999112D01*
X159819890Y-94927978D01*
X159701598Y-94878979D01*
X159576019Y-94854000D01*
X159447981Y-94854000D01*
X159322402Y-94878979D01*
X159225000Y-94919325D01*
X159225000Y-89497046D01*
X160011000Y-89497046D01*
X160011000Y-89698954D01*
X160050390Y-89896982D01*
X160127656Y-90083520D01*
X160239830Y-90251400D01*
X160382600Y-90394170D01*
X160550480Y-90506344D01*
X160737018Y-90583610D01*
X160809362Y-90598000D01*
X160737018Y-90612390D01*
X160550480Y-90689656D01*
X160382600Y-90801830D01*
X160239830Y-90944600D01*
X160127656Y-91112480D01*
X160050390Y-91299018D01*
X160011000Y-91497046D01*
X160011000Y-91698954D01*
X160050390Y-91896982D01*
X160127656Y-92083520D01*
X160239830Y-92251400D01*
X160382600Y-92394170D01*
X160550480Y-92506344D01*
X160737018Y-92583610D01*
X160809362Y-92598000D01*
X160737018Y-92612390D01*
X160550480Y-92689656D01*
X160382600Y-92801830D01*
X160239830Y-92944600D01*
X160127656Y-93112480D01*
X160050390Y-93299018D01*
X160011000Y-93497046D01*
X160011000Y-93698954D01*
X160050390Y-93896982D01*
X160127656Y-94083520D01*
X160239830Y-94251400D01*
X160382600Y-94394170D01*
X160550480Y-94506344D01*
X160737018Y-94583610D01*
X160935046Y-94623000D01*
X161136954Y-94623000D01*
X161334982Y-94583610D01*
X161521520Y-94506344D01*
X161689400Y-94394170D01*
X161832170Y-94251400D01*
X161944344Y-94083520D01*
X162021610Y-93896982D01*
X162061000Y-93698954D01*
X162061000Y-93497046D01*
X162021610Y-93299018D01*
X161944344Y-93112480D01*
X161832170Y-92944600D01*
X161689400Y-92801830D01*
X161521520Y-92689656D01*
X161334982Y-92612390D01*
X161262638Y-92598000D01*
X161334982Y-92583610D01*
X161521520Y-92506344D01*
X161689400Y-92394170D01*
X161832170Y-92251400D01*
X161944344Y-92083520D01*
X162021610Y-91896982D01*
X162061000Y-91698954D01*
X162061000Y-91497046D01*
X162021610Y-91299018D01*
X161944344Y-91112480D01*
X161832170Y-90944600D01*
X161689400Y-90801830D01*
X161521520Y-90689656D01*
X161334982Y-90612390D01*
X161262638Y-90598000D01*
X161334982Y-90583610D01*
X161521520Y-90506344D01*
X161689400Y-90394170D01*
X161832170Y-90251400D01*
X161944344Y-90083520D01*
X162021610Y-89896982D01*
X162061000Y-89698954D01*
X162061000Y-89497046D01*
X162021610Y-89299018D01*
X161944344Y-89112480D01*
X161832170Y-88944600D01*
X161689400Y-88801830D01*
X161521520Y-88689656D01*
X161334982Y-88612390D01*
X161136954Y-88573000D01*
X160935046Y-88573000D01*
X160737018Y-88612390D01*
X160550480Y-88689656D01*
X160382600Y-88801830D01*
X160239830Y-88944600D01*
X160127656Y-89112480D01*
X160050390Y-89299018D01*
X160011000Y-89497046D01*
X159225000Y-89497046D01*
X159225000Y-84270750D01*
X160032657Y-83463093D01*
X160315391Y-83580205D01*
X160624445Y-83641680D01*
X160939555Y-83641680D01*
X161248609Y-83580205D01*
X161539733Y-83459618D01*
X161801736Y-83284552D01*
X162024552Y-83061736D01*
X162199618Y-82799733D01*
X162320205Y-82508609D01*
X162381680Y-82199555D01*
X162381680Y-81884445D01*
X162320205Y-81575391D01*
X162199618Y-81284267D01*
X162024552Y-81022264D01*
X161801736Y-80799448D01*
X161539733Y-80624382D01*
X161248609Y-80503795D01*
X160939555Y-80442320D01*
X160624445Y-80442320D01*
X160315391Y-80503795D01*
X160024267Y-80624382D01*
X159762264Y-80799448D01*
X159539448Y-81022264D01*
X159364382Y-81284267D01*
X159243795Y-81575391D01*
X159182320Y-81884445D01*
X159182320Y-82199555D01*
X159243795Y-82508609D01*
X159360907Y-82791343D01*
X158717000Y-83435250D01*
X158717000Y-80968750D01*
X159852378Y-79833373D01*
X162031680Y-79833373D01*
X162100292Y-79826615D01*
X162166267Y-79806602D01*
X162227070Y-79774102D01*
X162280365Y-79730365D01*
X162324102Y-79677070D01*
X162356602Y-79616267D01*
X162376615Y-79550292D01*
X162383373Y-79481680D01*
X162383373Y-76982320D01*
X162376615Y-76913708D01*
X162356602Y-76847733D01*
X162324102Y-76786930D01*
X162280365Y-76733635D01*
X162227070Y-76689898D01*
X162166267Y-76657398D01*
X162100292Y-76637385D01*
X162031680Y-76630627D01*
X159532320Y-76630627D01*
X159463708Y-76637385D01*
X159397733Y-76657398D01*
X159336930Y-76689898D01*
X159283635Y-76733635D01*
X159239898Y-76786930D01*
X159207398Y-76847733D01*
X159187385Y-76913708D01*
X159180627Y-76982320D01*
X159180627Y-79161622D01*
X157922629Y-80419621D01*
X157904500Y-80434499D01*
X157855375Y-80494358D01*
X157848888Y-80484649D01*
X157758351Y-80394112D01*
X157651890Y-80322978D01*
X157533598Y-80273979D01*
X157408019Y-80249000D01*
X157279981Y-80249000D01*
X157154402Y-80273979D01*
X157036110Y-80322978D01*
X156929649Y-80394112D01*
X156874761Y-80449000D01*
X156867094Y-80449000D01*
X156844999Y-80446824D01*
X156822905Y-80449000D01*
X156822895Y-80449000D01*
X156756785Y-80455511D01*
X156671959Y-80481243D01*
X156593783Y-80523029D01*
X156542432Y-80565172D01*
X156542428Y-80565176D01*
X156525263Y-80579263D01*
X156511176Y-80596428D01*
X154574000Y-82533604D01*
X154574000Y-82485981D01*
X154549021Y-82360402D01*
X154500022Y-82242110D01*
X154428888Y-82135649D01*
X154374000Y-82080761D01*
X154374000Y-74444091D01*
X154376176Y-74421999D01*
X154374000Y-74399907D01*
X154374000Y-74399895D01*
X154367489Y-74333785D01*
X154341757Y-74248959D01*
X154314526Y-74198014D01*
X154299971Y-74170783D01*
X154257828Y-74119432D01*
X154257824Y-74119428D01*
X154243737Y-74102263D01*
X154226572Y-74088176D01*
X152410693Y-72272298D01*
X152410693Y-71207000D01*
X152403935Y-71138388D01*
X152383922Y-71072413D01*
X152351422Y-71011610D01*
X152307685Y-70958315D01*
X152254390Y-70914578D01*
X152193587Y-70882078D01*
X152127612Y-70862065D01*
X152059000Y-70855307D01*
X150709000Y-70855307D01*
X150640388Y-70862065D01*
X150574413Y-70882078D01*
X150513610Y-70914578D01*
X150460315Y-70958315D01*
X150416578Y-71011610D01*
X150384078Y-71072413D01*
X150364065Y-71138388D01*
X150357307Y-71207000D01*
X150357307Y-71553316D01*
X150292344Y-71396480D01*
X150180170Y-71228600D01*
X150037400Y-71085830D01*
X149869520Y-70973656D01*
X149682982Y-70896390D01*
X149484954Y-70857000D01*
X149283046Y-70857000D01*
X149085018Y-70896390D01*
X148898480Y-70973656D01*
X148730600Y-71085830D01*
X148587830Y-71228600D01*
X148475656Y-71396480D01*
X148398390Y-71583018D01*
X148359000Y-71781046D01*
X148359000Y-71982954D01*
X148398390Y-72180982D01*
X148475656Y-72367520D01*
X148587830Y-72535400D01*
X148730600Y-72678170D01*
X148898480Y-72790344D01*
X149085018Y-72867610D01*
X149220080Y-72894475D01*
X150034176Y-73708572D01*
X150048263Y-73725737D01*
X150065428Y-73739824D01*
X150065432Y-73739828D01*
X150116783Y-73781971D01*
X150194959Y-73823757D01*
X150279785Y-73849489D01*
X150345895Y-73856000D01*
X150345905Y-73856000D01*
X150367999Y-73858176D01*
X150390094Y-73856000D01*
X151959605Y-73856000D01*
X152966000Y-74862396D01*
X152966001Y-81601603D01*
X152351433Y-82216171D01*
X152334263Y-82230263D01*
X152320172Y-82247433D01*
X152278029Y-82298784D01*
X152244572Y-82361378D01*
X152236243Y-82376960D01*
X152210511Y-82461786D01*
X152204000Y-82527896D01*
X152204000Y-82527906D01*
X152201824Y-82550000D01*
X152204000Y-82572095D01*
X152204001Y-84903603D01*
X151081429Y-86026176D01*
X151064264Y-86040263D01*
X151050177Y-86057428D01*
X151050172Y-86057433D01*
X151008029Y-86108784D01*
X150966243Y-86186960D01*
X150940512Y-86271785D01*
X150931824Y-86360000D01*
X150934001Y-86382104D01*
X150934000Y-94047604D01*
X149673605Y-95308000D01*
X141500093Y-95308000D01*
X141477999Y-95305824D01*
X141455905Y-95308000D01*
X141455895Y-95308000D01*
X141389785Y-95314511D01*
X141304959Y-95340243D01*
X141264255Y-95362000D01*
X141240395Y-95362000D01*
X142319828Y-94282568D01*
X142319832Y-94282563D01*
X143050573Y-93551823D01*
X143067737Y-93537737D01*
X143081824Y-93520572D01*
X143081828Y-93520568D01*
X143123971Y-93469217D01*
X143165757Y-93391041D01*
X143181249Y-93339971D01*
X143191489Y-93306215D01*
X143198000Y-93240105D01*
X143198000Y-93240094D01*
X143200176Y-93218000D01*
X143198000Y-93195906D01*
X143198000Y-92013276D01*
X143202110Y-92016022D01*
X143320402Y-92065021D01*
X143445981Y-92090000D01*
X143574019Y-92090000D01*
X143699598Y-92065021D01*
X143817890Y-92016022D01*
X143924351Y-91944888D01*
X144014888Y-91854351D01*
X144086022Y-91747890D01*
X144135021Y-91629598D01*
X144160000Y-91504019D01*
X144160000Y-91375981D01*
X144135021Y-91250402D01*
X144086022Y-91132110D01*
X144014888Y-91025649D01*
X143960000Y-90970761D01*
X143960000Y-85874094D01*
X143962176Y-85852000D01*
X143960000Y-85829905D01*
X143960000Y-85829895D01*
X143953489Y-85763785D01*
X143927757Y-85678959D01*
X143918702Y-85662019D01*
X143885971Y-85600783D01*
X143843828Y-85549432D01*
X143843824Y-85549428D01*
X143829737Y-85532263D01*
X143812572Y-85518176D01*
X142827829Y-84533434D01*
X142813737Y-84516263D01*
X142745216Y-84460029D01*
X142667041Y-84418243D01*
X142582215Y-84392511D01*
X142516105Y-84386000D01*
X142516094Y-84386000D01*
X142494000Y-84383824D01*
X142471906Y-84386000D01*
X140484094Y-84386000D01*
X140462000Y-84383824D01*
X140439905Y-84386000D01*
X140439895Y-84386000D01*
X140373785Y-84392511D01*
X140288959Y-84418243D01*
X140210783Y-84460029D01*
X140159432Y-84502172D01*
X140159428Y-84502176D01*
X140142263Y-84516263D01*
X140128176Y-84533428D01*
X138143000Y-86518605D01*
X138143000Y-79765349D01*
X138144474Y-79727972D01*
X138139345Y-79695556D01*
X138136127Y-79662884D01*
X138132047Y-79649434D01*
X138129851Y-79635555D01*
X138118495Y-79604758D01*
X138108966Y-79573346D01*
X138102341Y-79560952D01*
X138097479Y-79547766D01*
X138080334Y-79519778D01*
X138064859Y-79490827D01*
X138055942Y-79479961D01*
X138048602Y-79467980D01*
X138026329Y-79443878D01*
X138005501Y-79418499D01*
X137976574Y-79394759D01*
X136839930Y-78384410D01*
X136920205Y-78190609D01*
X136981680Y-77881555D01*
X136981680Y-77566445D01*
X136920205Y-77257391D01*
X136799618Y-76966267D01*
X136624552Y-76704264D01*
X136401736Y-76481448D01*
X136139733Y-76306382D01*
X135848609Y-76185795D01*
X135539555Y-76124320D01*
X135224445Y-76124320D01*
X134915391Y-76185795D01*
X134624267Y-76306382D01*
X134362264Y-76481448D01*
X134139448Y-76704264D01*
X133964382Y-76966267D01*
X133843795Y-77257391D01*
X133782320Y-77566445D01*
X133782320Y-77881555D01*
X133843795Y-78190609D01*
X133964382Y-78481733D01*
X134139448Y-78743736D01*
X134362264Y-78966552D01*
X134624267Y-79141618D01*
X134915391Y-79262205D01*
X135224445Y-79323680D01*
X135539555Y-79323680D01*
X135848609Y-79262205D01*
X136139733Y-79141618D01*
X136209447Y-79095036D01*
X137193001Y-79969307D01*
X137193001Y-82673250D01*
X136983373Y-82463622D01*
X136983373Y-80284320D01*
X136976615Y-80215708D01*
X136956602Y-80149733D01*
X136924102Y-80088930D01*
X136880365Y-80035635D01*
X136827070Y-79991898D01*
X136766267Y-79959398D01*
X136700292Y-79939385D01*
X136631680Y-79932627D01*
X134132320Y-79932627D01*
X134063708Y-79939385D01*
X133997733Y-79959398D01*
X133936930Y-79991898D01*
X133883635Y-80035635D01*
X133839898Y-80088930D01*
X133807398Y-80149733D01*
X133787385Y-80215708D01*
X133780627Y-80284320D01*
X133780627Y-82783680D01*
X133787385Y-82852292D01*
X133807398Y-82918267D01*
X133839898Y-82979070D01*
X133883635Y-83032365D01*
X133936930Y-83076102D01*
X133997733Y-83108602D01*
X134063708Y-83128615D01*
X134132320Y-83135373D01*
X136311622Y-83135373D01*
X136586622Y-83410373D01*
X136586628Y-83410378D01*
X136685001Y-83508751D01*
X136685000Y-100560668D01*
X136682702Y-100584000D01*
X136689729Y-100655345D01*
X136691873Y-100677115D01*
X136706432Y-100725109D01*
X136598110Y-100769978D01*
X136491649Y-100841112D01*
X136401112Y-100931649D01*
X136329978Y-101038110D01*
X136280979Y-101156402D01*
X136256000Y-101281981D01*
X136256000Y-101410019D01*
X136280979Y-101535598D01*
X136329978Y-101653890D01*
X136401112Y-101760351D01*
X136456000Y-101815239D01*
X136456000Y-102130104D01*
X136456001Y-102130114D01*
X136456000Y-103863905D01*
X136453824Y-103886000D01*
X136456000Y-103908094D01*
X136456000Y-103908104D01*
X136462511Y-103974214D01*
X136487472Y-104056499D01*
X136488243Y-104059040D01*
X136530029Y-104137216D01*
X136565037Y-104179873D01*
X136586263Y-104205737D01*
X136603433Y-104219828D01*
X138742001Y-106358397D01*
X138742000Y-107673905D01*
X138739824Y-107696000D01*
X138742000Y-107718094D01*
X138742000Y-107718104D01*
X138748511Y-107784214D01*
X138774243Y-107869040D01*
X138816029Y-107947216D01*
X138851037Y-107989873D01*
X138872263Y-108015737D01*
X138889434Y-108029829D01*
X142414176Y-111554572D01*
X142428263Y-111571737D01*
X142445428Y-111585824D01*
X142445432Y-111585828D01*
X142496783Y-111627971D01*
X142515601Y-111638029D01*
X142574959Y-111669757D01*
X142659785Y-111695489D01*
X142725895Y-111702000D01*
X142725907Y-111702000D01*
X142747999Y-111704176D01*
X142770091Y-111702000D01*
X144460724Y-111702000D01*
X144457978Y-111706110D01*
X144408979Y-111824402D01*
X144384000Y-111949981D01*
X144384000Y-112078019D01*
X144408979Y-112203598D01*
X144457978Y-112321890D01*
X144529112Y-112428351D01*
X144619649Y-112518888D01*
X144726110Y-112590022D01*
X144844402Y-112639021D01*
X144969981Y-112664000D01*
X145047604Y-112664000D01*
X145192604Y-112809000D01*
X143729751Y-112809000D01*
X143652000Y-112731249D01*
X143652000Y-112688981D01*
X143627021Y-112563402D01*
X143578022Y-112445110D01*
X143506888Y-112338649D01*
X143416351Y-112248112D01*
X143309890Y-112176978D01*
X143191598Y-112127979D01*
X143066019Y-112103000D01*
X142937981Y-112103000D01*
X142812402Y-112127979D01*
X142694110Y-112176978D01*
X142587649Y-112248112D01*
X142497112Y-112338649D01*
X142425978Y-112445110D01*
X142376979Y-112563402D01*
X142352000Y-112688981D01*
X142352000Y-112817019D01*
X142376979Y-112942598D01*
X142425978Y-113060890D01*
X142497112Y-113167351D01*
X142587649Y-113257888D01*
X142694110Y-113329022D01*
X142812402Y-113378021D01*
X142937981Y-113403000D01*
X142980249Y-113403000D01*
X143180620Y-113603371D01*
X143195499Y-113621501D01*
X143267827Y-113680859D01*
X143350346Y-113724966D01*
X143412722Y-113743888D01*
X143439883Y-113752127D01*
X143532999Y-113761298D01*
X143556331Y-113759000D01*
X147123250Y-113759000D01*
X147178000Y-113813750D01*
X147178000Y-113856019D01*
X147202979Y-113981598D01*
X147251978Y-114099890D01*
X147323112Y-114206351D01*
X147353000Y-114236239D01*
X147353001Y-116054658D01*
X147350702Y-116078000D01*
X147359873Y-116171116D01*
X147387035Y-116260653D01*
X147387035Y-116260654D01*
X147431142Y-116343173D01*
X147490500Y-116415501D01*
X147508629Y-116430379D01*
X152179000Y-121100752D01*
X152179001Y-121475760D01*
X152149112Y-121505649D01*
X152077978Y-121612110D01*
X152028979Y-121730402D01*
X152004000Y-121855981D01*
X152004000Y-121984019D01*
X152028979Y-122109598D01*
X152077978Y-122227890D01*
X152149112Y-122334351D01*
X152239649Y-122424888D01*
X152346110Y-122496022D01*
X152464402Y-122545021D01*
X152589981Y-122570000D01*
X152718019Y-122570000D01*
X152843598Y-122545021D01*
X152961890Y-122496022D01*
X152973018Y-122488587D01*
X151197605Y-124264000D01*
X146418369Y-124264000D01*
X146372022Y-124152110D01*
X146300888Y-124045649D01*
X146210351Y-123955112D01*
X146103890Y-123883978D01*
X145985598Y-123834979D01*
X145860019Y-123810000D01*
X145731981Y-123810000D01*
X145606402Y-123834979D01*
X145488110Y-123883978D01*
X145381649Y-123955112D01*
X145291112Y-124045649D01*
X145219978Y-124152110D01*
X145170979Y-124270402D01*
X145164147Y-124304751D01*
X144337000Y-123477605D01*
X144337000Y-123399981D01*
X144312021Y-123274402D01*
X144263022Y-123156110D01*
X144191888Y-123049649D01*
X144101351Y-122959112D01*
X143994890Y-122887978D01*
X143876598Y-122838979D01*
X143751019Y-122814000D01*
X143622981Y-122814000D01*
X143497402Y-122838979D01*
X143379110Y-122887978D01*
X143272649Y-122959112D01*
X143182112Y-123049649D01*
X143110978Y-123156110D01*
X143061979Y-123274402D01*
X143037000Y-123399981D01*
X143037000Y-123528019D01*
X143061979Y-123653598D01*
X143110978Y-123771890D01*
X143182112Y-123878351D01*
X143272649Y-123968888D01*
X143379110Y-124040022D01*
X143497402Y-124089021D01*
X143622981Y-124114000D01*
X143700605Y-124114000D01*
X143811419Y-124224814D01*
X143751019Y-124212800D01*
X143622981Y-124212800D01*
X143497402Y-124237779D01*
X143379110Y-124286778D01*
X143272649Y-124357912D01*
X143182112Y-124448449D01*
X143110978Y-124554910D01*
X143061979Y-124673202D01*
X143037000Y-124798781D01*
X143037000Y-124926819D01*
X143061979Y-125052398D01*
X143110978Y-125170690D01*
X143182112Y-125277151D01*
X143272649Y-125367688D01*
X143379110Y-125438822D01*
X143497402Y-125487821D01*
X143622981Y-125512800D01*
X143700605Y-125512800D01*
X143812917Y-125625112D01*
X143751019Y-125612800D01*
X143622981Y-125612800D01*
X143497402Y-125637779D01*
X143379110Y-125686778D01*
X143272649Y-125757912D01*
X143182112Y-125848449D01*
X143110978Y-125954910D01*
X143061979Y-126073202D01*
X143037000Y-126198781D01*
X143037000Y-126326819D01*
X143061979Y-126452398D01*
X143110978Y-126570690D01*
X143182112Y-126677151D01*
X143272649Y-126767688D01*
X143379110Y-126838822D01*
X143497402Y-126887821D01*
X143622981Y-126912800D01*
X143751019Y-126912800D01*
X143876598Y-126887821D01*
X143994890Y-126838822D01*
X144101351Y-126767688D01*
X144156239Y-126712800D01*
X152099106Y-126712800D01*
X152121200Y-126714976D01*
X152143294Y-126712800D01*
X152143305Y-126712800D01*
X152209415Y-126706289D01*
X152294241Y-126680557D01*
X152372416Y-126638771D01*
X152440937Y-126582537D01*
X152455029Y-126565366D01*
X157466396Y-121554000D01*
X157544019Y-121554000D01*
X157669598Y-121529021D01*
X157767000Y-121488675D01*
X157767001Y-127484658D01*
X157764702Y-127508000D01*
X157773873Y-127601116D01*
X157790407Y-127655618D01*
X157801035Y-127690654D01*
X157845142Y-127773173D01*
X157904500Y-127845501D01*
X157922629Y-127860379D01*
X159360907Y-129298657D01*
X159243795Y-129581391D01*
X159182320Y-129890445D01*
X159182320Y-130205555D01*
X159243795Y-130514609D01*
X159364382Y-130805733D01*
X159539448Y-131067736D01*
X159762264Y-131290552D01*
X160024267Y-131465618D01*
X160315391Y-131586205D01*
X160624445Y-131647680D01*
X160939555Y-131647680D01*
X161248609Y-131586205D01*
X161539733Y-131465618D01*
X161801736Y-131290552D01*
X162024552Y-131067736D01*
X162199618Y-130805733D01*
X162320205Y-130514609D01*
X162381680Y-130205555D01*
X162381680Y-129890445D01*
X162320205Y-129581391D01*
X162199618Y-129290267D01*
X162024552Y-129028264D01*
X161801736Y-128805448D01*
X161539733Y-128630382D01*
X161248609Y-128509795D01*
X160939555Y-128448320D01*
X160624445Y-128448320D01*
X160315391Y-128509795D01*
X160032657Y-128626907D01*
X158717000Y-127311250D01*
X158717000Y-124844750D01*
X159180627Y-125308377D01*
X159180627Y-127487680D01*
X159187385Y-127556292D01*
X159207398Y-127622267D01*
X159239898Y-127683070D01*
X159283635Y-127736365D01*
X159336930Y-127780102D01*
X159397733Y-127812602D01*
X159463708Y-127832615D01*
X159532320Y-127839373D01*
X162031680Y-127839373D01*
X162100292Y-127832615D01*
X162166267Y-127812602D01*
X162227070Y-127780102D01*
X162280365Y-127736365D01*
X162324102Y-127683070D01*
X162356602Y-127622267D01*
X162376615Y-127556292D01*
X162383373Y-127487680D01*
X162383373Y-124988320D01*
X162376615Y-124919708D01*
X162356602Y-124853733D01*
X162324102Y-124792930D01*
X162280365Y-124739635D01*
X162227070Y-124695898D01*
X162166267Y-124663398D01*
X162100292Y-124643385D01*
X162031680Y-124636627D01*
X159852377Y-124636627D01*
X159225000Y-124009250D01*
X159225000Y-118133332D01*
X159227298Y-118110000D01*
X159218127Y-118016884D01*
X159190966Y-117927346D01*
X159169241Y-117886702D01*
X159146859Y-117844827D01*
X159128946Y-117823000D01*
X161266668Y-117823000D01*
X161290000Y-117825298D01*
X161313332Y-117823000D01*
X161383116Y-117816127D01*
X161472654Y-117788966D01*
X161555173Y-117744859D01*
X161627501Y-117685501D01*
X161642384Y-117667366D01*
X162439000Y-116870751D01*
X162439000Y-132213000D01*
X133725000Y-132213000D01*
X133725000Y-128798320D01*
X133780627Y-128798320D01*
X133780627Y-131297680D01*
X133787385Y-131366292D01*
X133807398Y-131432267D01*
X133839898Y-131493070D01*
X133883635Y-131546365D01*
X133936930Y-131590102D01*
X133997733Y-131622602D01*
X134063708Y-131642615D01*
X134132320Y-131649373D01*
X136631680Y-131649373D01*
X136700292Y-131642615D01*
X136766267Y-131622602D01*
X136827070Y-131590102D01*
X136880365Y-131546365D01*
X136924102Y-131493070D01*
X136956602Y-131432267D01*
X136976615Y-131366292D01*
X136983373Y-131297680D01*
X136983373Y-129118378D01*
X137479377Y-128622375D01*
X137497501Y-128607501D01*
X137556859Y-128535173D01*
X137600966Y-128452654D01*
X137628127Y-128363116D01*
X137635000Y-128293332D01*
X137637298Y-128270000D01*
X137635000Y-128246668D01*
X137635000Y-124402750D01*
X144468752Y-117569000D01*
X144502668Y-117569000D01*
X144526000Y-117571298D01*
X144549332Y-117569000D01*
X144619116Y-117562127D01*
X144708654Y-117534966D01*
X144791173Y-117490859D01*
X144863501Y-117431501D01*
X144878384Y-117413366D01*
X145563751Y-116728000D01*
X145606019Y-116728000D01*
X145731598Y-116703021D01*
X145849890Y-116654022D01*
X145956351Y-116582888D01*
X146046888Y-116492351D01*
X146118022Y-116385890D01*
X146167021Y-116267598D01*
X146192000Y-116142019D01*
X146192000Y-116013981D01*
X146167021Y-115888402D01*
X146118022Y-115770110D01*
X146046888Y-115663649D01*
X145956351Y-115573112D01*
X145849890Y-115501978D01*
X145731598Y-115452979D01*
X145606019Y-115428000D01*
X145477981Y-115428000D01*
X145352402Y-115452979D01*
X145234110Y-115501978D01*
X145127649Y-115573112D01*
X145037112Y-115663649D01*
X145034000Y-115668307D01*
X145030888Y-115663649D01*
X144940351Y-115573112D01*
X144833890Y-115501978D01*
X144715598Y-115452979D01*
X144590019Y-115428000D01*
X144461981Y-115428000D01*
X144336402Y-115452979D01*
X144218110Y-115501978D01*
X144111649Y-115573112D01*
X144021112Y-115663649D01*
X143949978Y-115770110D01*
X143900979Y-115888402D01*
X143876000Y-116013981D01*
X143876000Y-116056248D01*
X135293930Y-124638320D01*
X135224445Y-124638320D01*
X134915391Y-124699795D01*
X134624267Y-124820382D01*
X134362264Y-124995448D01*
X134139448Y-125218264D01*
X133964382Y-125480267D01*
X133843795Y-125771391D01*
X133782320Y-126080445D01*
X133782320Y-126395555D01*
X133843795Y-126704609D01*
X133964382Y-126995733D01*
X134139448Y-127257736D01*
X134362264Y-127480552D01*
X134624267Y-127655618D01*
X134915391Y-127776205D01*
X135224445Y-127837680D01*
X135539555Y-127837680D01*
X135848609Y-127776205D01*
X136139733Y-127655618D01*
X136401736Y-127480552D01*
X136624552Y-127257736D01*
X136685001Y-127167269D01*
X136685001Y-128073247D01*
X136311622Y-128446627D01*
X134132320Y-128446627D01*
X134063708Y-128453385D01*
X133997733Y-128473398D01*
X133936930Y-128505898D01*
X133883635Y-128549635D01*
X133839898Y-128602930D01*
X133807398Y-128663733D01*
X133787385Y-128729708D01*
X133780627Y-128798320D01*
X133725000Y-128798320D01*
X133725000Y-113849046D01*
X134103000Y-113849046D01*
X134103000Y-114050954D01*
X134142390Y-114248982D01*
X134219656Y-114435520D01*
X134331830Y-114603400D01*
X134474600Y-114746170D01*
X134642480Y-114858344D01*
X134829018Y-114935610D01*
X135027046Y-114975000D01*
X135228954Y-114975000D01*
X135426982Y-114935610D01*
X135613520Y-114858344D01*
X135781400Y-114746170D01*
X135924170Y-114603400D01*
X136036344Y-114435520D01*
X136113610Y-114248982D01*
X136153000Y-114050954D01*
X136153000Y-113849046D01*
X136113610Y-113651018D01*
X136036344Y-113464480D01*
X135924170Y-113296600D01*
X135781400Y-113153830D01*
X135613520Y-113041656D01*
X135426982Y-112964390D01*
X135228954Y-112925000D01*
X135027046Y-112925000D01*
X134829018Y-112964390D01*
X134642480Y-113041656D01*
X134474600Y-113153830D01*
X134331830Y-113296600D01*
X134219656Y-113464480D01*
X134142390Y-113651018D01*
X134103000Y-113849046D01*
X133725000Y-113849046D01*
X133725000Y-107275000D01*
X134101307Y-107275000D01*
X134101307Y-108625000D01*
X134108065Y-108693612D01*
X134128078Y-108759587D01*
X134160578Y-108820390D01*
X134204315Y-108873685D01*
X134257610Y-108917422D01*
X134318413Y-108949922D01*
X134384388Y-108969935D01*
X134453000Y-108976693D01*
X134799316Y-108976693D01*
X134642480Y-109041656D01*
X134474600Y-109153830D01*
X134331830Y-109296600D01*
X134219656Y-109464480D01*
X134142390Y-109651018D01*
X134103000Y-109849046D01*
X134103000Y-110050954D01*
X134142390Y-110248982D01*
X134219656Y-110435520D01*
X134331830Y-110603400D01*
X134474600Y-110746170D01*
X134642480Y-110858344D01*
X134829018Y-110935610D01*
X135027046Y-110975000D01*
X135228954Y-110975000D01*
X135426982Y-110935610D01*
X135613520Y-110858344D01*
X135781400Y-110746170D01*
X135924170Y-110603400D01*
X136036344Y-110435520D01*
X136113610Y-110248982D01*
X136153000Y-110050954D01*
X136153000Y-109849046D01*
X136113610Y-109651018D01*
X136036344Y-109464480D01*
X135924170Y-109296600D01*
X135781400Y-109153830D01*
X135613520Y-109041656D01*
X135456684Y-108976693D01*
X135803000Y-108976693D01*
X135871612Y-108969935D01*
X135937587Y-108949922D01*
X135998390Y-108917422D01*
X136051685Y-108873685D01*
X136095422Y-108820390D01*
X136127922Y-108759587D01*
X136147935Y-108693612D01*
X136154693Y-108625000D01*
X136154693Y-107275000D01*
X136147935Y-107206388D01*
X136127922Y-107140413D01*
X136095422Y-107079610D01*
X136051685Y-107026315D01*
X135998390Y-106982578D01*
X135937587Y-106950078D01*
X135871612Y-106930065D01*
X135803000Y-106923307D01*
X134453000Y-106923307D01*
X134384388Y-106930065D01*
X134318413Y-106950078D01*
X134257610Y-106982578D01*
X134204315Y-107026315D01*
X134160578Y-107079610D01*
X134128078Y-107140413D01*
X134108065Y-107206388D01*
X134101307Y-107275000D01*
X133725000Y-107275000D01*
X133725000Y-88225000D01*
X134355307Y-88225000D01*
X134355307Y-89575000D01*
X134362065Y-89643612D01*
X134382078Y-89709587D01*
X134414578Y-89770390D01*
X134458315Y-89823685D01*
X134511610Y-89867422D01*
X134572413Y-89899922D01*
X134638388Y-89919935D01*
X134707000Y-89926693D01*
X135053316Y-89926693D01*
X134896480Y-89991656D01*
X134728600Y-90103830D01*
X134585830Y-90246600D01*
X134473656Y-90414480D01*
X134396390Y-90601018D01*
X134357000Y-90799046D01*
X134357000Y-91000954D01*
X134396390Y-91198982D01*
X134473656Y-91385520D01*
X134585830Y-91553400D01*
X134728600Y-91696170D01*
X134896480Y-91808344D01*
X135083018Y-91885610D01*
X135155362Y-91900000D01*
X135083018Y-91914390D01*
X134896480Y-91991656D01*
X134728600Y-92103830D01*
X134585830Y-92246600D01*
X134473656Y-92414480D01*
X134396390Y-92601018D01*
X134357000Y-92799046D01*
X134357000Y-93000954D01*
X134396390Y-93198982D01*
X134473656Y-93385520D01*
X134585830Y-93553400D01*
X134728600Y-93696170D01*
X134896480Y-93808344D01*
X135083018Y-93885610D01*
X135155362Y-93900000D01*
X135083018Y-93914390D01*
X134896480Y-93991656D01*
X134728600Y-94103830D01*
X134585830Y-94246600D01*
X134473656Y-94414480D01*
X134396390Y-94601018D01*
X134357000Y-94799046D01*
X134357000Y-95000954D01*
X134396390Y-95198982D01*
X134473656Y-95385520D01*
X134585830Y-95553400D01*
X134728600Y-95696170D01*
X134896480Y-95808344D01*
X135083018Y-95885610D01*
X135155362Y-95900000D01*
X135083018Y-95914390D01*
X134896480Y-95991656D01*
X134728600Y-96103830D01*
X134585830Y-96246600D01*
X134473656Y-96414480D01*
X134396390Y-96601018D01*
X134357000Y-96799046D01*
X134357000Y-97000954D01*
X134396390Y-97198982D01*
X134473656Y-97385520D01*
X134585830Y-97553400D01*
X134728600Y-97696170D01*
X134896480Y-97808344D01*
X135083018Y-97885610D01*
X135281046Y-97925000D01*
X135482954Y-97925000D01*
X135680982Y-97885610D01*
X135867520Y-97808344D01*
X136035400Y-97696170D01*
X136178170Y-97553400D01*
X136290344Y-97385520D01*
X136367610Y-97198982D01*
X136407000Y-97000954D01*
X136407000Y-96799046D01*
X136367610Y-96601018D01*
X136290344Y-96414480D01*
X136178170Y-96246600D01*
X136035400Y-96103830D01*
X135867520Y-95991656D01*
X135680982Y-95914390D01*
X135608638Y-95900000D01*
X135680982Y-95885610D01*
X135867520Y-95808344D01*
X136035400Y-95696170D01*
X136178170Y-95553400D01*
X136290344Y-95385520D01*
X136367610Y-95198982D01*
X136407000Y-95000954D01*
X136407000Y-94799046D01*
X136367610Y-94601018D01*
X136290344Y-94414480D01*
X136178170Y-94246600D01*
X136035400Y-94103830D01*
X135867520Y-93991656D01*
X135680982Y-93914390D01*
X135608638Y-93900000D01*
X135680982Y-93885610D01*
X135867520Y-93808344D01*
X136035400Y-93696170D01*
X136178170Y-93553400D01*
X136290344Y-93385520D01*
X136367610Y-93198982D01*
X136407000Y-93000954D01*
X136407000Y-92799046D01*
X136367610Y-92601018D01*
X136290344Y-92414480D01*
X136178170Y-92246600D01*
X136035400Y-92103830D01*
X135867520Y-91991656D01*
X135680982Y-91914390D01*
X135608638Y-91900000D01*
X135680982Y-91885610D01*
X135867520Y-91808344D01*
X136035400Y-91696170D01*
X136178170Y-91553400D01*
X136290344Y-91385520D01*
X136367610Y-91198982D01*
X136407000Y-91000954D01*
X136407000Y-90799046D01*
X136367610Y-90601018D01*
X136290344Y-90414480D01*
X136178170Y-90246600D01*
X136035400Y-90103830D01*
X135867520Y-89991656D01*
X135710684Y-89926693D01*
X136057000Y-89926693D01*
X136125612Y-89919935D01*
X136191587Y-89899922D01*
X136252390Y-89867422D01*
X136305685Y-89823685D01*
X136349422Y-89770390D01*
X136381922Y-89709587D01*
X136401935Y-89643612D01*
X136408693Y-89575000D01*
X136408693Y-88225000D01*
X136401935Y-88156388D01*
X136381922Y-88090413D01*
X136349422Y-88029610D01*
X136305685Y-87976315D01*
X136252390Y-87932578D01*
X136191587Y-87900078D01*
X136125612Y-87880065D01*
X136057000Y-87873307D01*
X134707000Y-87873307D01*
X134638388Y-87880065D01*
X134572413Y-87900078D01*
X134511610Y-87932578D01*
X134458315Y-87976315D01*
X134414578Y-88029610D01*
X134382078Y-88090413D01*
X134362065Y-88156388D01*
X134355307Y-88225000D01*
X133725000Y-88225000D01*
X133725000Y-71781046D01*
X144359000Y-71781046D01*
X144359000Y-71982954D01*
X144398390Y-72180982D01*
X144475656Y-72367520D01*
X144587830Y-72535400D01*
X144730600Y-72678170D01*
X144898480Y-72790344D01*
X145085018Y-72867610D01*
X145283046Y-72907000D01*
X145484954Y-72907000D01*
X145682982Y-72867610D01*
X145869520Y-72790344D01*
X146037400Y-72678170D01*
X146180170Y-72535400D01*
X146292344Y-72367520D01*
X146369610Y-72180982D01*
X146409000Y-71982954D01*
X146409000Y-71781046D01*
X146369610Y-71583018D01*
X146292344Y-71396480D01*
X146180170Y-71228600D01*
X146037400Y-71085830D01*
X145869520Y-70973656D01*
X145682982Y-70896390D01*
X145484954Y-70857000D01*
X145283046Y-70857000D01*
X145085018Y-70896390D01*
X144898480Y-70973656D01*
X144730600Y-71085830D01*
X144587830Y-71228600D01*
X144475656Y-71396480D01*
X144398390Y-71583018D01*
X144359000Y-71781046D01*
X133725000Y-71781046D01*
X133725000Y-70479000D01*
X162439001Y-70479000D01*
X162439001Y-95394738D01*
G37*
X162439001Y-95394738D02*
X162423021Y-95314402D01*
X162374022Y-95196110D01*
X162302888Y-95089649D01*
X162212351Y-94999112D01*
X162105890Y-94927978D01*
X161987598Y-94878979D01*
X161862019Y-94854000D01*
X161733981Y-94854000D01*
X161608402Y-94878979D01*
X161490110Y-94927978D01*
X161383649Y-94999112D01*
X161328761Y-95054000D01*
X159981239Y-95054000D01*
X159926351Y-94999112D01*
X159819890Y-94927978D01*
X159701598Y-94878979D01*
X159576019Y-94854000D01*
X159447981Y-94854000D01*
X159322402Y-94878979D01*
X159225000Y-94919325D01*
X159225000Y-89497046D01*
X160011000Y-89497046D01*
X160011000Y-89698954D01*
X160050390Y-89896982D01*
X160127656Y-90083520D01*
X160239830Y-90251400D01*
X160382600Y-90394170D01*
X160550480Y-90506344D01*
X160737018Y-90583610D01*
X160809362Y-90598000D01*
X160737018Y-90612390D01*
X160550480Y-90689656D01*
X160382600Y-90801830D01*
X160239830Y-90944600D01*
X160127656Y-91112480D01*
X160050390Y-91299018D01*
X160011000Y-91497046D01*
X160011000Y-91698954D01*
X160050390Y-91896982D01*
X160127656Y-92083520D01*
X160239830Y-92251400D01*
X160382600Y-92394170D01*
X160550480Y-92506344D01*
X160737018Y-92583610D01*
X160809362Y-92598000D01*
X160737018Y-92612390D01*
X160550480Y-92689656D01*
X160382600Y-92801830D01*
X160239830Y-92944600D01*
X160127656Y-93112480D01*
X160050390Y-93299018D01*
X160011000Y-93497046D01*
X160011000Y-93698954D01*
X160050390Y-93896982D01*
X160127656Y-94083520D01*
X160239830Y-94251400D01*
X160382600Y-94394170D01*
X160550480Y-94506344D01*
X160737018Y-94583610D01*
X160935046Y-94623000D01*
X161136954Y-94623000D01*
X161334982Y-94583610D01*
X161521520Y-94506344D01*
X161689400Y-94394170D01*
X161832170Y-94251400D01*
X161944344Y-94083520D01*
X162021610Y-93896982D01*
X162061000Y-93698954D01*
X162061000Y-93497046D01*
X162021610Y-93299018D01*
X161944344Y-93112480D01*
X161832170Y-92944600D01*
X161689400Y-92801830D01*
X161521520Y-92689656D01*
X161334982Y-92612390D01*
X161262638Y-92598000D01*
X161334982Y-92583610D01*
X161521520Y-92506344D01*
X161689400Y-92394170D01*
X161832170Y-92251400D01*
X161944344Y-92083520D01*
X162021610Y-91896982D01*
X162061000Y-91698954D01*
X162061000Y-91497046D01*
X162021610Y-91299018D01*
X161944344Y-91112480D01*
X161832170Y-90944600D01*
X161689400Y-90801830D01*
X161521520Y-90689656D01*
X161334982Y-90612390D01*
X161262638Y-90598000D01*
X161334982Y-90583610D01*
X161521520Y-90506344D01*
X161689400Y-90394170D01*
X161832170Y-90251400D01*
X161944344Y-90083520D01*
X162021610Y-89896982D01*
X162061000Y-89698954D01*
X162061000Y-89497046D01*
X162021610Y-89299018D01*
X161944344Y-89112480D01*
X161832170Y-88944600D01*
X161689400Y-88801830D01*
X161521520Y-88689656D01*
X161334982Y-88612390D01*
X161136954Y-88573000D01*
X160935046Y-88573000D01*
X160737018Y-88612390D01*
X160550480Y-88689656D01*
X160382600Y-88801830D01*
X160239830Y-88944600D01*
X160127656Y-89112480D01*
X160050390Y-89299018D01*
X160011000Y-89497046D01*
X159225000Y-89497046D01*
X159225000Y-84270750D01*
X160032657Y-83463093D01*
X160315391Y-83580205D01*
X160624445Y-83641680D01*
X160939555Y-83641680D01*
X161248609Y-83580205D01*
X161539733Y-83459618D01*
X161801736Y-83284552D01*
X162024552Y-83061736D01*
X162199618Y-82799733D01*
X162320205Y-82508609D01*
X162381680Y-82199555D01*
X162381680Y-81884445D01*
X162320205Y-81575391D01*
X162199618Y-81284267D01*
X162024552Y-81022264D01*
X161801736Y-80799448D01*
X161539733Y-80624382D01*
X161248609Y-80503795D01*
X160939555Y-80442320D01*
X160624445Y-80442320D01*
X160315391Y-80503795D01*
X160024267Y-80624382D01*
X159762264Y-80799448D01*
X159539448Y-81022264D01*
X159364382Y-81284267D01*
X159243795Y-81575391D01*
X159182320Y-81884445D01*
X159182320Y-82199555D01*
X159243795Y-82508609D01*
X159360907Y-82791343D01*
X158717000Y-83435250D01*
X158717000Y-80968750D01*
X159852378Y-79833373D01*
X162031680Y-79833373D01*
X162100292Y-79826615D01*
X162166267Y-79806602D01*
X162227070Y-79774102D01*
X162280365Y-79730365D01*
X162324102Y-79677070D01*
X162356602Y-79616267D01*
X162376615Y-79550292D01*
X162383373Y-79481680D01*
X162383373Y-76982320D01*
X162376615Y-76913708D01*
X162356602Y-76847733D01*
X162324102Y-76786930D01*
X162280365Y-76733635D01*
X162227070Y-76689898D01*
X162166267Y-76657398D01*
X162100292Y-76637385D01*
X162031680Y-76630627D01*
X159532320Y-76630627D01*
X159463708Y-76637385D01*
X159397733Y-76657398D01*
X159336930Y-76689898D01*
X159283635Y-76733635D01*
X159239898Y-76786930D01*
X159207398Y-76847733D01*
X159187385Y-76913708D01*
X159180627Y-76982320D01*
X159180627Y-79161622D01*
X157922629Y-80419621D01*
X157904500Y-80434499D01*
X157855375Y-80494358D01*
X157848888Y-80484649D01*
X157758351Y-80394112D01*
X157651890Y-80322978D01*
X157533598Y-80273979D01*
X157408019Y-80249000D01*
X157279981Y-80249000D01*
X157154402Y-80273979D01*
X157036110Y-80322978D01*
X156929649Y-80394112D01*
X156874761Y-80449000D01*
X156867094Y-80449000D01*
X156844999Y-80446824D01*
X156822905Y-80449000D01*
X156822895Y-80449000D01*
X156756785Y-80455511D01*
X156671959Y-80481243D01*
X156593783Y-80523029D01*
X156542432Y-80565172D01*
X156542428Y-80565176D01*
X156525263Y-80579263D01*
X156511176Y-80596428D01*
X154574000Y-82533604D01*
X154574000Y-82485981D01*
X154549021Y-82360402D01*
X154500022Y-82242110D01*
X154428888Y-82135649D01*
X154374000Y-82080761D01*
X154374000Y-74444091D01*
X154376176Y-74421999D01*
X154374000Y-74399907D01*
X154374000Y-74399895D01*
X154367489Y-74333785D01*
X154341757Y-74248959D01*
X154314526Y-74198014D01*
X154299971Y-74170783D01*
X154257828Y-74119432D01*
X154257824Y-74119428D01*
X154243737Y-74102263D01*
X154226572Y-74088176D01*
X152410693Y-72272298D01*
X152410693Y-71207000D01*
X152403935Y-71138388D01*
X152383922Y-71072413D01*
X152351422Y-71011610D01*
X152307685Y-70958315D01*
X152254390Y-70914578D01*
X152193587Y-70882078D01*
X152127612Y-70862065D01*
X152059000Y-70855307D01*
X150709000Y-70855307D01*
X150640388Y-70862065D01*
X150574413Y-70882078D01*
X150513610Y-70914578D01*
X150460315Y-70958315D01*
X150416578Y-71011610D01*
X150384078Y-71072413D01*
X150364065Y-71138388D01*
X150357307Y-71207000D01*
X150357307Y-71553316D01*
X150292344Y-71396480D01*
X150180170Y-71228600D01*
X150037400Y-71085830D01*
X149869520Y-70973656D01*
X149682982Y-70896390D01*
X149484954Y-70857000D01*
X149283046Y-70857000D01*
X149085018Y-70896390D01*
X148898480Y-70973656D01*
X148730600Y-71085830D01*
X148587830Y-71228600D01*
X148475656Y-71396480D01*
X148398390Y-71583018D01*
X148359000Y-71781046D01*
X148359000Y-71982954D01*
X148398390Y-72180982D01*
X148475656Y-72367520D01*
X148587830Y-72535400D01*
X148730600Y-72678170D01*
X148898480Y-72790344D01*
X149085018Y-72867610D01*
X149220080Y-72894475D01*
X150034176Y-73708572D01*
X150048263Y-73725737D01*
X150065428Y-73739824D01*
X150065432Y-73739828D01*
X150116783Y-73781971D01*
X150194959Y-73823757D01*
X150279785Y-73849489D01*
X150345895Y-73856000D01*
X150345905Y-73856000D01*
X150367999Y-73858176D01*
X150390094Y-73856000D01*
X151959605Y-73856000D01*
X152966000Y-74862396D01*
X152966001Y-81601603D01*
X152351433Y-82216171D01*
X152334263Y-82230263D01*
X152320172Y-82247433D01*
X152278029Y-82298784D01*
X152244572Y-82361378D01*
X152236243Y-82376960D01*
X152210511Y-82461786D01*
X152204000Y-82527896D01*
X152204000Y-82527906D01*
X152201824Y-82550000D01*
X152204000Y-82572095D01*
X152204001Y-84903603D01*
X151081429Y-86026176D01*
X151064264Y-86040263D01*
X151050177Y-86057428D01*
X151050172Y-86057433D01*
X151008029Y-86108784D01*
X150966243Y-86186960D01*
X150940512Y-86271785D01*
X150931824Y-86360000D01*
X150934001Y-86382104D01*
X150934000Y-94047604D01*
X149673605Y-95308000D01*
X141500093Y-95308000D01*
X141477999Y-95305824D01*
X141455905Y-95308000D01*
X141455895Y-95308000D01*
X141389785Y-95314511D01*
X141304959Y-95340243D01*
X141264255Y-95362000D01*
X141240395Y-95362000D01*
X142319828Y-94282568D01*
X142319832Y-94282563D01*
X143050573Y-93551823D01*
X143067737Y-93537737D01*
X143081824Y-93520572D01*
X143081828Y-93520568D01*
X143123971Y-93469217D01*
X143165757Y-93391041D01*
X143181249Y-93339971D01*
X143191489Y-93306215D01*
X143198000Y-93240105D01*
X143198000Y-93240094D01*
X143200176Y-93218000D01*
X143198000Y-93195906D01*
X143198000Y-92013276D01*
X143202110Y-92016022D01*
X143320402Y-92065021D01*
X143445981Y-92090000D01*
X143574019Y-92090000D01*
X143699598Y-92065021D01*
X143817890Y-92016022D01*
X143924351Y-91944888D01*
X144014888Y-91854351D01*
X144086022Y-91747890D01*
X144135021Y-91629598D01*
X144160000Y-91504019D01*
X144160000Y-91375981D01*
X144135021Y-91250402D01*
X144086022Y-91132110D01*
X144014888Y-91025649D01*
X143960000Y-90970761D01*
X143960000Y-85874094D01*
X143962176Y-85852000D01*
X143960000Y-85829905D01*
X143960000Y-85829895D01*
X143953489Y-85763785D01*
X143927757Y-85678959D01*
X143918702Y-85662019D01*
X143885971Y-85600783D01*
X143843828Y-85549432D01*
X143843824Y-85549428D01*
X143829737Y-85532263D01*
X143812572Y-85518176D01*
X142827829Y-84533434D01*
X142813737Y-84516263D01*
X142745216Y-84460029D01*
X142667041Y-84418243D01*
X142582215Y-84392511D01*
X142516105Y-84386000D01*
X142516094Y-84386000D01*
X142494000Y-84383824D01*
X142471906Y-84386000D01*
X140484094Y-84386000D01*
X140462000Y-84383824D01*
X140439905Y-84386000D01*
X140439895Y-84386000D01*
X140373785Y-84392511D01*
X140288959Y-84418243D01*
X140210783Y-84460029D01*
X140159432Y-84502172D01*
X140159428Y-84502176D01*
X140142263Y-84516263D01*
X140128176Y-84533428D01*
X138143000Y-86518605D01*
X138143000Y-79765349D01*
X138144474Y-79727972D01*
X138139345Y-79695556D01*
X138136127Y-79662884D01*
X138132047Y-79649434D01*
X138129851Y-79635555D01*
X138118495Y-79604758D01*
X138108966Y-79573346D01*
X138102341Y-79560952D01*
X138097479Y-79547766D01*
X138080334Y-79519778D01*
X138064859Y-79490827D01*
X138055942Y-79479961D01*
X138048602Y-79467980D01*
X138026329Y-79443878D01*
X138005501Y-79418499D01*
X137976574Y-79394759D01*
X136839930Y-78384410D01*
X136920205Y-78190609D01*
X136981680Y-77881555D01*
X136981680Y-77566445D01*
X136920205Y-77257391D01*
X136799618Y-76966267D01*
X136624552Y-76704264D01*
X136401736Y-76481448D01*
X136139733Y-76306382D01*
X135848609Y-76185795D01*
X135539555Y-76124320D01*
X135224445Y-76124320D01*
X134915391Y-76185795D01*
X134624267Y-76306382D01*
X134362264Y-76481448D01*
X134139448Y-76704264D01*
X133964382Y-76966267D01*
X133843795Y-77257391D01*
X133782320Y-77566445D01*
X133782320Y-77881555D01*
X133843795Y-78190609D01*
X133964382Y-78481733D01*
X134139448Y-78743736D01*
X134362264Y-78966552D01*
X134624267Y-79141618D01*
X134915391Y-79262205D01*
X135224445Y-79323680D01*
X135539555Y-79323680D01*
X135848609Y-79262205D01*
X136139733Y-79141618D01*
X136209447Y-79095036D01*
X137193001Y-79969307D01*
X137193001Y-82673250D01*
X136983373Y-82463622D01*
X136983373Y-80284320D01*
X136976615Y-80215708D01*
X136956602Y-80149733D01*
X136924102Y-80088930D01*
X136880365Y-80035635D01*
X136827070Y-79991898D01*
X136766267Y-79959398D01*
X136700292Y-79939385D01*
X136631680Y-79932627D01*
X134132320Y-79932627D01*
X134063708Y-79939385D01*
X133997733Y-79959398D01*
X133936930Y-79991898D01*
X133883635Y-80035635D01*
X133839898Y-80088930D01*
X133807398Y-80149733D01*
X133787385Y-80215708D01*
X133780627Y-80284320D01*
X133780627Y-82783680D01*
X133787385Y-82852292D01*
X133807398Y-82918267D01*
X133839898Y-82979070D01*
X133883635Y-83032365D01*
X133936930Y-83076102D01*
X133997733Y-83108602D01*
X134063708Y-83128615D01*
X134132320Y-83135373D01*
X136311622Y-83135373D01*
X136586622Y-83410373D01*
X136586628Y-83410378D01*
X136685001Y-83508751D01*
X136685000Y-100560668D01*
X136682702Y-100584000D01*
X136689729Y-100655345D01*
X136691873Y-100677115D01*
X136706432Y-100725109D01*
X136598110Y-100769978D01*
X136491649Y-100841112D01*
X136401112Y-100931649D01*
X136329978Y-101038110D01*
X136280979Y-101156402D01*
X136256000Y-101281981D01*
X136256000Y-101410019D01*
X136280979Y-101535598D01*
X136329978Y-101653890D01*
X136401112Y-101760351D01*
X136456000Y-101815239D01*
X136456000Y-102130104D01*
X136456001Y-102130114D01*
X136456000Y-103863905D01*
X136453824Y-103886000D01*
X136456000Y-103908094D01*
X136456000Y-103908104D01*
X136462511Y-103974214D01*
X136487472Y-104056499D01*
X136488243Y-104059040D01*
X136530029Y-104137216D01*
X136565037Y-104179873D01*
X136586263Y-104205737D01*
X136603433Y-104219828D01*
X138742001Y-106358397D01*
X138742000Y-107673905D01*
X138739824Y-107696000D01*
X138742000Y-107718094D01*
X138742000Y-107718104D01*
X138748511Y-107784214D01*
X138774243Y-107869040D01*
X138816029Y-107947216D01*
X138851037Y-107989873D01*
X138872263Y-108015737D01*
X138889434Y-108029829D01*
X142414176Y-111554572D01*
X142428263Y-111571737D01*
X142445428Y-111585824D01*
X142445432Y-111585828D01*
X142496783Y-111627971D01*
X142515601Y-111638029D01*
X142574959Y-111669757D01*
X142659785Y-111695489D01*
X142725895Y-111702000D01*
X142725907Y-111702000D01*
X142747999Y-111704176D01*
X142770091Y-111702000D01*
X144460724Y-111702000D01*
X144457978Y-111706110D01*
X144408979Y-111824402D01*
X144384000Y-111949981D01*
X144384000Y-112078019D01*
X144408979Y-112203598D01*
X144457978Y-112321890D01*
X144529112Y-112428351D01*
X144619649Y-112518888D01*
X144726110Y-112590022D01*
X144844402Y-112639021D01*
X144969981Y-112664000D01*
X145047604Y-112664000D01*
X145192604Y-112809000D01*
X143729751Y-112809000D01*
X143652000Y-112731249D01*
X143652000Y-112688981D01*
X143627021Y-112563402D01*
X143578022Y-112445110D01*
X143506888Y-112338649D01*
X143416351Y-112248112D01*
X143309890Y-112176978D01*
X143191598Y-112127979D01*
X143066019Y-112103000D01*
X142937981Y-112103000D01*
X142812402Y-112127979D01*
X142694110Y-112176978D01*
X142587649Y-112248112D01*
X142497112Y-112338649D01*
X142425978Y-112445110D01*
X142376979Y-112563402D01*
X142352000Y-112688981D01*
X142352000Y-112817019D01*
X142376979Y-112942598D01*
X142425978Y-113060890D01*
X142497112Y-113167351D01*
X142587649Y-113257888D01*
X142694110Y-113329022D01*
X142812402Y-113378021D01*
X142937981Y-113403000D01*
X142980249Y-113403000D01*
X143180620Y-113603371D01*
X143195499Y-113621501D01*
X143267827Y-113680859D01*
X143350346Y-113724966D01*
X143412722Y-113743888D01*
X143439883Y-113752127D01*
X143532999Y-113761298D01*
X143556331Y-113759000D01*
X147123250Y-113759000D01*
X147178000Y-113813750D01*
X147178000Y-113856019D01*
X147202979Y-113981598D01*
X147251978Y-114099890D01*
X147323112Y-114206351D01*
X147353000Y-114236239D01*
X147353001Y-116054658D01*
X147350702Y-116078000D01*
X147359873Y-116171116D01*
X147387035Y-116260653D01*
X147387035Y-116260654D01*
X147431142Y-116343173D01*
X147490500Y-116415501D01*
X147508629Y-116430379D01*
X152179000Y-121100752D01*
X152179001Y-121475760D01*
X152149112Y-121505649D01*
X152077978Y-121612110D01*
X152028979Y-121730402D01*
X152004000Y-121855981D01*
X152004000Y-121984019D01*
X152028979Y-122109598D01*
X152077978Y-122227890D01*
X152149112Y-122334351D01*
X152239649Y-122424888D01*
X152346110Y-122496022D01*
X152464402Y-122545021D01*
X152589981Y-122570000D01*
X152718019Y-122570000D01*
X152843598Y-122545021D01*
X152961890Y-122496022D01*
X152973018Y-122488587D01*
X151197605Y-124264000D01*
X146418369Y-124264000D01*
X146372022Y-124152110D01*
X146300888Y-124045649D01*
X146210351Y-123955112D01*
X146103890Y-123883978D01*
X145985598Y-123834979D01*
X145860019Y-123810000D01*
X145731981Y-123810000D01*
X145606402Y-123834979D01*
X145488110Y-123883978D01*
X145381649Y-123955112D01*
X145291112Y-124045649D01*
X145219978Y-124152110D01*
X145170979Y-124270402D01*
X145164147Y-124304751D01*
X144337000Y-123477605D01*
X144337000Y-123399981D01*
X144312021Y-123274402D01*
X144263022Y-123156110D01*
X144191888Y-123049649D01*
X144101351Y-122959112D01*
X143994890Y-122887978D01*
X143876598Y-122838979D01*
X143751019Y-122814000D01*
X143622981Y-122814000D01*
X143497402Y-122838979D01*
X143379110Y-122887978D01*
X143272649Y-122959112D01*
X143182112Y-123049649D01*
X143110978Y-123156110D01*
X143061979Y-123274402D01*
X143037000Y-123399981D01*
X143037000Y-123528019D01*
X143061979Y-123653598D01*
X143110978Y-123771890D01*
X143182112Y-123878351D01*
X143272649Y-123968888D01*
X143379110Y-124040022D01*
X143497402Y-124089021D01*
X143622981Y-124114000D01*
X143700605Y-124114000D01*
X143811419Y-124224814D01*
X143751019Y-124212800D01*
X143622981Y-124212800D01*
X143497402Y-124237779D01*
X143379110Y-124286778D01*
X143272649Y-124357912D01*
X143182112Y-124448449D01*
X143110978Y-124554910D01*
X143061979Y-124673202D01*
X143037000Y-124798781D01*
X143037000Y-124926819D01*
X143061979Y-125052398D01*
X143110978Y-125170690D01*
X143182112Y-125277151D01*
X143272649Y-125367688D01*
X143379110Y-125438822D01*
X143497402Y-125487821D01*
X143622981Y-125512800D01*
X143700605Y-125512800D01*
X143812917Y-125625112D01*
X143751019Y-125612800D01*
X143622981Y-125612800D01*
X143497402Y-125637779D01*
X143379110Y-125686778D01*
X143272649Y-125757912D01*
X143182112Y-125848449D01*
X143110978Y-125954910D01*
X143061979Y-126073202D01*
X143037000Y-126198781D01*
X143037000Y-126326819D01*
X143061979Y-126452398D01*
X143110978Y-126570690D01*
X143182112Y-126677151D01*
X143272649Y-126767688D01*
X143379110Y-126838822D01*
X143497402Y-126887821D01*
X143622981Y-126912800D01*
X143751019Y-126912800D01*
X143876598Y-126887821D01*
X143994890Y-126838822D01*
X144101351Y-126767688D01*
X144156239Y-126712800D01*
X152099106Y-126712800D01*
X152121200Y-126714976D01*
X152143294Y-126712800D01*
X152143305Y-126712800D01*
X152209415Y-126706289D01*
X152294241Y-126680557D01*
X152372416Y-126638771D01*
X152440937Y-126582537D01*
X152455029Y-126565366D01*
X157466396Y-121554000D01*
X157544019Y-121554000D01*
X157669598Y-121529021D01*
X157767000Y-121488675D01*
X157767001Y-127484658D01*
X157764702Y-127508000D01*
X157773873Y-127601116D01*
X157790407Y-127655618D01*
X157801035Y-127690654D01*
X157845142Y-127773173D01*
X157904500Y-127845501D01*
X157922629Y-127860379D01*
X159360907Y-129298657D01*
X159243795Y-129581391D01*
X159182320Y-129890445D01*
X159182320Y-130205555D01*
X159243795Y-130514609D01*
X159364382Y-130805733D01*
X159539448Y-131067736D01*
X159762264Y-131290552D01*
X160024267Y-131465618D01*
X160315391Y-131586205D01*
X160624445Y-131647680D01*
X160939555Y-131647680D01*
X161248609Y-131586205D01*
X161539733Y-131465618D01*
X161801736Y-131290552D01*
X162024552Y-131067736D01*
X162199618Y-130805733D01*
X162320205Y-130514609D01*
X162381680Y-130205555D01*
X162381680Y-129890445D01*
X162320205Y-129581391D01*
X162199618Y-129290267D01*
X162024552Y-129028264D01*
X161801736Y-128805448D01*
X161539733Y-128630382D01*
X161248609Y-128509795D01*
X160939555Y-128448320D01*
X160624445Y-128448320D01*
X160315391Y-128509795D01*
X160032657Y-128626907D01*
X158717000Y-127311250D01*
X158717000Y-124844750D01*
X159180627Y-125308377D01*
X159180627Y-127487680D01*
X159187385Y-127556292D01*
X159207398Y-127622267D01*
X159239898Y-127683070D01*
X159283635Y-127736365D01*
X159336930Y-127780102D01*
X159397733Y-127812602D01*
X159463708Y-127832615D01*
X159532320Y-127839373D01*
X162031680Y-127839373D01*
X162100292Y-127832615D01*
X162166267Y-127812602D01*
X162227070Y-127780102D01*
X162280365Y-127736365D01*
X162324102Y-127683070D01*
X162356602Y-127622267D01*
X162376615Y-127556292D01*
X162383373Y-127487680D01*
X162383373Y-124988320D01*
X162376615Y-124919708D01*
X162356602Y-124853733D01*
X162324102Y-124792930D01*
X162280365Y-124739635D01*
X162227070Y-124695898D01*
X162166267Y-124663398D01*
X162100292Y-124643385D01*
X162031680Y-124636627D01*
X159852377Y-124636627D01*
X159225000Y-124009250D01*
X159225000Y-118133332D01*
X159227298Y-118110000D01*
X159218127Y-118016884D01*
X159190966Y-117927346D01*
X159169241Y-117886702D01*
X159146859Y-117844827D01*
X159128946Y-117823000D01*
X161266668Y-117823000D01*
X161290000Y-117825298D01*
X161313332Y-117823000D01*
X161383116Y-117816127D01*
X161472654Y-117788966D01*
X161555173Y-117744859D01*
X161627501Y-117685501D01*
X161642384Y-117667366D01*
X162439000Y-116870751D01*
X162439000Y-132213000D01*
X133725000Y-132213000D01*
X133725000Y-128798320D01*
X133780627Y-128798320D01*
X133780627Y-131297680D01*
X133787385Y-131366292D01*
X133807398Y-131432267D01*
X133839898Y-131493070D01*
X133883635Y-131546365D01*
X133936930Y-131590102D01*
X133997733Y-131622602D01*
X134063708Y-131642615D01*
X134132320Y-131649373D01*
X136631680Y-131649373D01*
X136700292Y-131642615D01*
X136766267Y-131622602D01*
X136827070Y-131590102D01*
X136880365Y-131546365D01*
X136924102Y-131493070D01*
X136956602Y-131432267D01*
X136976615Y-131366292D01*
X136983373Y-131297680D01*
X136983373Y-129118378D01*
X137479377Y-128622375D01*
X137497501Y-128607501D01*
X137556859Y-128535173D01*
X137600966Y-128452654D01*
X137628127Y-128363116D01*
X137635000Y-128293332D01*
X137637298Y-128270000D01*
X137635000Y-128246668D01*
X137635000Y-124402750D01*
X144468752Y-117569000D01*
X144502668Y-117569000D01*
X144526000Y-117571298D01*
X144549332Y-117569000D01*
X144619116Y-117562127D01*
X144708654Y-117534966D01*
X144791173Y-117490859D01*
X144863501Y-117431501D01*
X144878384Y-117413366D01*
X145563751Y-116728000D01*
X145606019Y-116728000D01*
X145731598Y-116703021D01*
X145849890Y-116654022D01*
X145956351Y-116582888D01*
X146046888Y-116492351D01*
X146118022Y-116385890D01*
X146167021Y-116267598D01*
X146192000Y-116142019D01*
X146192000Y-116013981D01*
X146167021Y-115888402D01*
X146118022Y-115770110D01*
X146046888Y-115663649D01*
X145956351Y-115573112D01*
X145849890Y-115501978D01*
X145731598Y-115452979D01*
X145606019Y-115428000D01*
X145477981Y-115428000D01*
X145352402Y-115452979D01*
X145234110Y-115501978D01*
X145127649Y-115573112D01*
X145037112Y-115663649D01*
X145034000Y-115668307D01*
X145030888Y-115663649D01*
X144940351Y-115573112D01*
X144833890Y-115501978D01*
X144715598Y-115452979D01*
X144590019Y-115428000D01*
X144461981Y-115428000D01*
X144336402Y-115452979D01*
X144218110Y-115501978D01*
X144111649Y-115573112D01*
X144021112Y-115663649D01*
X143949978Y-115770110D01*
X143900979Y-115888402D01*
X143876000Y-116013981D01*
X143876000Y-116056248D01*
X135293930Y-124638320D01*
X135224445Y-124638320D01*
X134915391Y-124699795D01*
X134624267Y-124820382D01*
X134362264Y-124995448D01*
X134139448Y-125218264D01*
X133964382Y-125480267D01*
X133843795Y-125771391D01*
X133782320Y-126080445D01*
X133782320Y-126395555D01*
X133843795Y-126704609D01*
X133964382Y-126995733D01*
X134139448Y-127257736D01*
X134362264Y-127480552D01*
X134624267Y-127655618D01*
X134915391Y-127776205D01*
X135224445Y-127837680D01*
X135539555Y-127837680D01*
X135848609Y-127776205D01*
X136139733Y-127655618D01*
X136401736Y-127480552D01*
X136624552Y-127257736D01*
X136685001Y-127167269D01*
X136685001Y-128073247D01*
X136311622Y-128446627D01*
X134132320Y-128446627D01*
X134063708Y-128453385D01*
X133997733Y-128473398D01*
X133936930Y-128505898D01*
X133883635Y-128549635D01*
X133839898Y-128602930D01*
X133807398Y-128663733D01*
X133787385Y-128729708D01*
X133780627Y-128798320D01*
X133725000Y-128798320D01*
X133725000Y-113849046D01*
X134103000Y-113849046D01*
X134103000Y-114050954D01*
X134142390Y-114248982D01*
X134219656Y-114435520D01*
X134331830Y-114603400D01*
X134474600Y-114746170D01*
X134642480Y-114858344D01*
X134829018Y-114935610D01*
X135027046Y-114975000D01*
X135228954Y-114975000D01*
X135426982Y-114935610D01*
X135613520Y-114858344D01*
X135781400Y-114746170D01*
X135924170Y-114603400D01*
X136036344Y-114435520D01*
X136113610Y-114248982D01*
X136153000Y-114050954D01*
X136153000Y-113849046D01*
X136113610Y-113651018D01*
X136036344Y-113464480D01*
X135924170Y-113296600D01*
X135781400Y-113153830D01*
X135613520Y-113041656D01*
X135426982Y-112964390D01*
X135228954Y-112925000D01*
X135027046Y-112925000D01*
X134829018Y-112964390D01*
X134642480Y-113041656D01*
X134474600Y-113153830D01*
X134331830Y-113296600D01*
X134219656Y-113464480D01*
X134142390Y-113651018D01*
X134103000Y-113849046D01*
X133725000Y-113849046D01*
X133725000Y-107275000D01*
X134101307Y-107275000D01*
X134101307Y-108625000D01*
X134108065Y-108693612D01*
X134128078Y-108759587D01*
X134160578Y-108820390D01*
X134204315Y-108873685D01*
X134257610Y-108917422D01*
X134318413Y-108949922D01*
X134384388Y-108969935D01*
X134453000Y-108976693D01*
X134799316Y-108976693D01*
X134642480Y-109041656D01*
X134474600Y-109153830D01*
X134331830Y-109296600D01*
X134219656Y-109464480D01*
X134142390Y-109651018D01*
X134103000Y-109849046D01*
X134103000Y-110050954D01*
X134142390Y-110248982D01*
X134219656Y-110435520D01*
X134331830Y-110603400D01*
X134474600Y-110746170D01*
X134642480Y-110858344D01*
X134829018Y-110935610D01*
X135027046Y-110975000D01*
X135228954Y-110975000D01*
X135426982Y-110935610D01*
X135613520Y-110858344D01*
X135781400Y-110746170D01*
X135924170Y-110603400D01*
X136036344Y-110435520D01*
X136113610Y-110248982D01*
X136153000Y-110050954D01*
X136153000Y-109849046D01*
X136113610Y-109651018D01*
X136036344Y-109464480D01*
X135924170Y-109296600D01*
X135781400Y-109153830D01*
X135613520Y-109041656D01*
X135456684Y-108976693D01*
X135803000Y-108976693D01*
X135871612Y-108969935D01*
X135937587Y-108949922D01*
X135998390Y-108917422D01*
X136051685Y-108873685D01*
X136095422Y-108820390D01*
X136127922Y-108759587D01*
X136147935Y-108693612D01*
X136154693Y-108625000D01*
X136154693Y-107275000D01*
X136147935Y-107206388D01*
X136127922Y-107140413D01*
X136095422Y-107079610D01*
X136051685Y-107026315D01*
X135998390Y-106982578D01*
X135937587Y-106950078D01*
X135871612Y-106930065D01*
X135803000Y-106923307D01*
X134453000Y-106923307D01*
X134384388Y-106930065D01*
X134318413Y-106950078D01*
X134257610Y-106982578D01*
X134204315Y-107026315D01*
X134160578Y-107079610D01*
X134128078Y-107140413D01*
X134108065Y-107206388D01*
X134101307Y-107275000D01*
X133725000Y-107275000D01*
X133725000Y-88225000D01*
X134355307Y-88225000D01*
X134355307Y-89575000D01*
X134362065Y-89643612D01*
X134382078Y-89709587D01*
X134414578Y-89770390D01*
X134458315Y-89823685D01*
X134511610Y-89867422D01*
X134572413Y-89899922D01*
X134638388Y-89919935D01*
X134707000Y-89926693D01*
X135053316Y-89926693D01*
X134896480Y-89991656D01*
X134728600Y-90103830D01*
X134585830Y-90246600D01*
X134473656Y-90414480D01*
X134396390Y-90601018D01*
X134357000Y-90799046D01*
X134357000Y-91000954D01*
X134396390Y-91198982D01*
X134473656Y-91385520D01*
X134585830Y-91553400D01*
X134728600Y-91696170D01*
X134896480Y-91808344D01*
X135083018Y-91885610D01*
X135155362Y-91900000D01*
X135083018Y-91914390D01*
X134896480Y-91991656D01*
X134728600Y-92103830D01*
X134585830Y-92246600D01*
X134473656Y-92414480D01*
X134396390Y-92601018D01*
X134357000Y-92799046D01*
X134357000Y-93000954D01*
X134396390Y-93198982D01*
X134473656Y-93385520D01*
X134585830Y-93553400D01*
X134728600Y-93696170D01*
X134896480Y-93808344D01*
X135083018Y-93885610D01*
X135155362Y-93900000D01*
X135083018Y-93914390D01*
X134896480Y-93991656D01*
X134728600Y-94103830D01*
X134585830Y-94246600D01*
X134473656Y-94414480D01*
X134396390Y-94601018D01*
X134357000Y-94799046D01*
X134357000Y-95000954D01*
X134396390Y-95198982D01*
X134473656Y-95385520D01*
X134585830Y-95553400D01*
X134728600Y-95696170D01*
X134896480Y-95808344D01*
X135083018Y-95885610D01*
X135155362Y-95900000D01*
X135083018Y-95914390D01*
X134896480Y-95991656D01*
X134728600Y-96103830D01*
X134585830Y-96246600D01*
X134473656Y-96414480D01*
X134396390Y-96601018D01*
X134357000Y-96799046D01*
X134357000Y-97000954D01*
X134396390Y-97198982D01*
X134473656Y-97385520D01*
X134585830Y-97553400D01*
X134728600Y-97696170D01*
X134896480Y-97808344D01*
X135083018Y-97885610D01*
X135281046Y-97925000D01*
X135482954Y-97925000D01*
X135680982Y-97885610D01*
X135867520Y-97808344D01*
X136035400Y-97696170D01*
X136178170Y-97553400D01*
X136290344Y-97385520D01*
X136367610Y-97198982D01*
X136407000Y-97000954D01*
X136407000Y-96799046D01*
X136367610Y-96601018D01*
X136290344Y-96414480D01*
X136178170Y-96246600D01*
X136035400Y-96103830D01*
X135867520Y-95991656D01*
X135680982Y-95914390D01*
X135608638Y-95900000D01*
X135680982Y-95885610D01*
X135867520Y-95808344D01*
X136035400Y-95696170D01*
X136178170Y-95553400D01*
X136290344Y-95385520D01*
X136367610Y-95198982D01*
X136407000Y-95000954D01*
X136407000Y-94799046D01*
X136367610Y-94601018D01*
X136290344Y-94414480D01*
X136178170Y-94246600D01*
X136035400Y-94103830D01*
X135867520Y-93991656D01*
X135680982Y-93914390D01*
X135608638Y-93900000D01*
X135680982Y-93885610D01*
X135867520Y-93808344D01*
X136035400Y-93696170D01*
X136178170Y-93553400D01*
X136290344Y-93385520D01*
X136367610Y-93198982D01*
X136407000Y-93000954D01*
X136407000Y-92799046D01*
X136367610Y-92601018D01*
X136290344Y-92414480D01*
X136178170Y-92246600D01*
X136035400Y-92103830D01*
X135867520Y-91991656D01*
X135680982Y-91914390D01*
X135608638Y-91900000D01*
X135680982Y-91885610D01*
X135867520Y-91808344D01*
X136035400Y-91696170D01*
X136178170Y-91553400D01*
X136290344Y-91385520D01*
X136367610Y-91198982D01*
X136407000Y-91000954D01*
X136407000Y-90799046D01*
X136367610Y-90601018D01*
X136290344Y-90414480D01*
X136178170Y-90246600D01*
X136035400Y-90103830D01*
X135867520Y-89991656D01*
X135710684Y-89926693D01*
X136057000Y-89926693D01*
X136125612Y-89919935D01*
X136191587Y-89899922D01*
X136252390Y-89867422D01*
X136305685Y-89823685D01*
X136349422Y-89770390D01*
X136381922Y-89709587D01*
X136401935Y-89643612D01*
X136408693Y-89575000D01*
X136408693Y-88225000D01*
X136401935Y-88156388D01*
X136381922Y-88090413D01*
X136349422Y-88029610D01*
X136305685Y-87976315D01*
X136252390Y-87932578D01*
X136191587Y-87900078D01*
X136125612Y-87880065D01*
X136057000Y-87873307D01*
X134707000Y-87873307D01*
X134638388Y-87880065D01*
X134572413Y-87900078D01*
X134511610Y-87932578D01*
X134458315Y-87976315D01*
X134414578Y-88029610D01*
X134382078Y-88090413D01*
X134362065Y-88156388D01*
X134355307Y-88225000D01*
X133725000Y-88225000D01*
X133725000Y-71781046D01*
X144359000Y-71781046D01*
X144359000Y-71982954D01*
X144398390Y-72180982D01*
X144475656Y-72367520D01*
X144587830Y-72535400D01*
X144730600Y-72678170D01*
X144898480Y-72790344D01*
X145085018Y-72867610D01*
X145283046Y-72907000D01*
X145484954Y-72907000D01*
X145682982Y-72867610D01*
X145869520Y-72790344D01*
X146037400Y-72678170D01*
X146180170Y-72535400D01*
X146292344Y-72367520D01*
X146369610Y-72180982D01*
X146409000Y-71982954D01*
X146409000Y-71781046D01*
X146369610Y-71583018D01*
X146292344Y-71396480D01*
X146180170Y-71228600D01*
X146037400Y-71085830D01*
X145869520Y-70973656D01*
X145682982Y-70896390D01*
X145484954Y-70857000D01*
X145283046Y-70857000D01*
X145085018Y-70896390D01*
X144898480Y-70973656D01*
X144730600Y-71085830D01*
X144587830Y-71228600D01*
X144475656Y-71396480D01*
X144398390Y-71583018D01*
X144359000Y-71781046D01*
X133725000Y-71781046D01*
X133725000Y-70479000D01*
X162439001Y-70479000D01*
X162439001Y-95394738D01*
G36*
X150988000Y-113524396D02*
G01*
X150988000Y-113602019D01*
X151012979Y-113727598D01*
X151061978Y-113845890D01*
X151133112Y-113952351D01*
X151223649Y-114042888D01*
X151330110Y-114114022D01*
X151448402Y-114163021D01*
X151573981Y-114188000D01*
X151702019Y-114188000D01*
X151827598Y-114163021D01*
X151925000Y-114122675D01*
X151925001Y-116308658D01*
X151922702Y-116332000D01*
X151931873Y-116425116D01*
X151946963Y-116474859D01*
X151959035Y-116514654D01*
X152003142Y-116597173D01*
X152062500Y-116669501D01*
X152080629Y-116684379D01*
X152269250Y-116873000D01*
X151072751Y-116873000D01*
X150479845Y-116280094D01*
X150485021Y-116267598D01*
X150510000Y-116142019D01*
X150510000Y-116013981D01*
X150485021Y-115888402D01*
X150436022Y-115770110D01*
X150364888Y-115663649D01*
X150274351Y-115573112D01*
X150167890Y-115501978D01*
X150049598Y-115452979D01*
X149924019Y-115428000D01*
X149795981Y-115428000D01*
X149670402Y-115452979D01*
X149552110Y-115501978D01*
X149445649Y-115573112D01*
X149355112Y-115663649D01*
X149352000Y-115668307D01*
X149348888Y-115663649D01*
X149258351Y-115573112D01*
X149151890Y-115501978D01*
X149033598Y-115452979D01*
X148908019Y-115428000D01*
X148779981Y-115428000D01*
X148654402Y-115452979D01*
X148536110Y-115501978D01*
X148429649Y-115573112D01*
X148339112Y-115663649D01*
X148303000Y-115717695D01*
X148303000Y-114236239D01*
X148332888Y-114206351D01*
X148404022Y-114099890D01*
X148453021Y-113981598D01*
X148478000Y-113856019D01*
X148478000Y-113727981D01*
X148453021Y-113602402D01*
X148404022Y-113484110D01*
X148332888Y-113377649D01*
X148242351Y-113287112D01*
X148150889Y-113226000D01*
X150689605Y-113226000D01*
X150988000Y-113524396D01*
G37*
X150988000Y-113524396D02*
X150988000Y-113602019D01*
X151012979Y-113727598D01*
X151061978Y-113845890D01*
X151133112Y-113952351D01*
X151223649Y-114042888D01*
X151330110Y-114114022D01*
X151448402Y-114163021D01*
X151573981Y-114188000D01*
X151702019Y-114188000D01*
X151827598Y-114163021D01*
X151925000Y-114122675D01*
X151925001Y-116308658D01*
X151922702Y-116332000D01*
X151931873Y-116425116D01*
X151946963Y-116474859D01*
X151959035Y-116514654D01*
X152003142Y-116597173D01*
X152062500Y-116669501D01*
X152080629Y-116684379D01*
X152269250Y-116873000D01*
X151072751Y-116873000D01*
X150479845Y-116280094D01*
X150485021Y-116267598D01*
X150510000Y-116142019D01*
X150510000Y-116013981D01*
X150485021Y-115888402D01*
X150436022Y-115770110D01*
X150364888Y-115663649D01*
X150274351Y-115573112D01*
X150167890Y-115501978D01*
X150049598Y-115452979D01*
X149924019Y-115428000D01*
X149795981Y-115428000D01*
X149670402Y-115452979D01*
X149552110Y-115501978D01*
X149445649Y-115573112D01*
X149355112Y-115663649D01*
X149352000Y-115668307D01*
X149348888Y-115663649D01*
X149258351Y-115573112D01*
X149151890Y-115501978D01*
X149033598Y-115452979D01*
X148908019Y-115428000D01*
X148779981Y-115428000D01*
X148654402Y-115452979D01*
X148536110Y-115501978D01*
X148429649Y-115573112D01*
X148339112Y-115663649D01*
X148303000Y-115717695D01*
X148303000Y-114236239D01*
X148332888Y-114206351D01*
X148404022Y-114099890D01*
X148453021Y-113981598D01*
X148478000Y-113856019D01*
X148478000Y-113727981D01*
X148453021Y-113602402D01*
X148404022Y-113484110D01*
X148332888Y-113377649D01*
X148242351Y-113287112D01*
X148150889Y-113226000D01*
X150689605Y-113226000D01*
X150988000Y-113524396D01*
G36*
X161323000Y-114602727D02*
G01*
X161267520Y-114565656D01*
X161080982Y-114488390D01*
X160882954Y-114449000D01*
X160681046Y-114449000D01*
X160483018Y-114488390D01*
X160296480Y-114565656D01*
X160128600Y-114677830D01*
X159985830Y-114820600D01*
X159873656Y-114988480D01*
X159796390Y-115175018D01*
X159757000Y-115373046D01*
X159757000Y-115574954D01*
X159796390Y-115772982D01*
X159873656Y-115959520D01*
X159985830Y-116127400D01*
X160128600Y-116270170D01*
X160270523Y-116365000D01*
X159200751Y-116365000D01*
X158848384Y-116012634D01*
X158833501Y-115994499D01*
X158761173Y-115935141D01*
X158678654Y-115891034D01*
X158589116Y-115863873D01*
X158519332Y-115857000D01*
X158496000Y-115854702D01*
X158472668Y-115857000D01*
X157829395Y-115857000D01*
X159306573Y-114379823D01*
X159323737Y-114365737D01*
X159337824Y-114348572D01*
X159337828Y-114348568D01*
X159379971Y-114297217D01*
X159421757Y-114219041D01*
X159424573Y-114209757D01*
X159447489Y-114134215D01*
X159454000Y-114068105D01*
X159454000Y-114068094D01*
X159456176Y-114046000D01*
X159454000Y-114023906D01*
X159454000Y-113438395D01*
X160447498Y-112444897D01*
X160483018Y-112459610D01*
X160681046Y-112499000D01*
X160882954Y-112499000D01*
X161080982Y-112459610D01*
X161267520Y-112382344D01*
X161323000Y-112345273D01*
X161323000Y-114602727D01*
G37*
X161323000Y-114602727D02*
X161267520Y-114565656D01*
X161080982Y-114488390D01*
X160882954Y-114449000D01*
X160681046Y-114449000D01*
X160483018Y-114488390D01*
X160296480Y-114565656D01*
X160128600Y-114677830D01*
X159985830Y-114820600D01*
X159873656Y-114988480D01*
X159796390Y-115175018D01*
X159757000Y-115373046D01*
X159757000Y-115574954D01*
X159796390Y-115772982D01*
X159873656Y-115959520D01*
X159985830Y-116127400D01*
X160128600Y-116270170D01*
X160270523Y-116365000D01*
X159200751Y-116365000D01*
X158848384Y-116012634D01*
X158833501Y-115994499D01*
X158761173Y-115935141D01*
X158678654Y-115891034D01*
X158589116Y-115863873D01*
X158519332Y-115857000D01*
X158496000Y-115854702D01*
X158472668Y-115857000D01*
X157829395Y-115857000D01*
X159306573Y-114379823D01*
X159323737Y-114365737D01*
X159337824Y-114348572D01*
X159337828Y-114348568D01*
X159379971Y-114297217D01*
X159421757Y-114219041D01*
X159424573Y-114209757D01*
X159447489Y-114134215D01*
X159454000Y-114068105D01*
X159454000Y-114068094D01*
X159456176Y-114046000D01*
X159454000Y-114023906D01*
X159454000Y-113438395D01*
X160447498Y-112444897D01*
X160483018Y-112459610D01*
X160681046Y-112499000D01*
X160882954Y-112499000D01*
X161080982Y-112459610D01*
X161267520Y-112382344D01*
X161323000Y-112345273D01*
X161323000Y-114602727D01*
G36*
X159799001Y-104844752D02*
G01*
X159799000Y-105894667D01*
X159796702Y-105918000D01*
X159799000Y-105941331D01*
X159805873Y-106011115D01*
X159833034Y-106100653D01*
X159877141Y-106183173D01*
X159936499Y-106255501D01*
X159954634Y-106270384D01*
X161323001Y-107638752D01*
X161323001Y-108447307D01*
X160107000Y-108447307D01*
X160038388Y-108454065D01*
X159972413Y-108474078D01*
X159911610Y-108506578D01*
X159858315Y-108550315D01*
X159814578Y-108603610D01*
X159782078Y-108664413D01*
X159762065Y-108730388D01*
X159755307Y-108799000D01*
X159755307Y-109864297D01*
X158193429Y-111426176D01*
X158176264Y-111440263D01*
X158162177Y-111457428D01*
X158162172Y-111457433D01*
X158120029Y-111508784D01*
X158078243Y-111586960D01*
X158052512Y-111671785D01*
X158043824Y-111760000D01*
X158046001Y-111782104D01*
X158046000Y-113605604D01*
X156785605Y-114866000D01*
X154872396Y-114866000D01*
X154628000Y-114621605D01*
X154628000Y-113860889D01*
X154689112Y-113952351D01*
X154779649Y-114042888D01*
X154886110Y-114114022D01*
X155004402Y-114163021D01*
X155129981Y-114188000D01*
X155258019Y-114188000D01*
X155383598Y-114163021D01*
X155501890Y-114114022D01*
X155608351Y-114042888D01*
X155698888Y-113952351D01*
X155770022Y-113845890D01*
X155819021Y-113727598D01*
X155844000Y-113602019D01*
X155844000Y-113524395D01*
X155855328Y-113513067D01*
X155887978Y-113591890D01*
X155959112Y-113698351D01*
X156049649Y-113788888D01*
X156156110Y-113860022D01*
X156274402Y-113909021D01*
X156399981Y-113934000D01*
X156528019Y-113934000D01*
X156653598Y-113909021D01*
X156771890Y-113860022D01*
X156878351Y-113788888D01*
X156968888Y-113698351D01*
X157040022Y-113591890D01*
X157089021Y-113473598D01*
X157114000Y-113348019D01*
X157114000Y-113219981D01*
X157089021Y-113094402D01*
X157040022Y-112976110D01*
X156968888Y-112869649D01*
X156914000Y-112814761D01*
X156914000Y-109750094D01*
X156916176Y-109728000D01*
X156914000Y-109705906D01*
X156914000Y-109705895D01*
X156907489Y-109639785D01*
X156893544Y-109593816D01*
X156907598Y-109591021D01*
X157025890Y-109542022D01*
X157132351Y-109470888D01*
X157222888Y-109380351D01*
X157294022Y-109273890D01*
X157343021Y-109155598D01*
X157368000Y-109030019D01*
X157368000Y-108901981D01*
X157355851Y-108840905D01*
X157415598Y-108829021D01*
X157533890Y-108780022D01*
X157640351Y-108708888D01*
X157730888Y-108618351D01*
X157802022Y-108511890D01*
X157851021Y-108393598D01*
X157876000Y-108268019D01*
X157876000Y-108139981D01*
X157851021Y-108014402D01*
X157802022Y-107896110D01*
X157730888Y-107789649D01*
X157723046Y-107781807D01*
X157798402Y-107813021D01*
X157923981Y-107838000D01*
X158052019Y-107838000D01*
X158111914Y-107826086D01*
X158100000Y-107885981D01*
X158100000Y-108014019D01*
X158124979Y-108139598D01*
X158173978Y-108257890D01*
X158245112Y-108364351D01*
X158335649Y-108454888D01*
X158442110Y-108526022D01*
X158560402Y-108575021D01*
X158685981Y-108600000D01*
X158814019Y-108600000D01*
X158939598Y-108575021D01*
X159057890Y-108526022D01*
X159164351Y-108454888D01*
X159254888Y-108364351D01*
X159326022Y-108257890D01*
X159375021Y-108139598D01*
X159400000Y-108014019D01*
X159400000Y-107885981D01*
X159375021Y-107760402D01*
X159326022Y-107642110D01*
X159254888Y-107535649D01*
X159200000Y-107480761D01*
X159200000Y-104245751D01*
X159799001Y-104844752D01*
G37*
X159799001Y-104844752D02*
X159799000Y-105894667D01*
X159796702Y-105918000D01*
X159799000Y-105941331D01*
X159805873Y-106011115D01*
X159833034Y-106100653D01*
X159877141Y-106183173D01*
X159936499Y-106255501D01*
X159954634Y-106270384D01*
X161323001Y-107638752D01*
X161323001Y-108447307D01*
X160107000Y-108447307D01*
X160038388Y-108454065D01*
X159972413Y-108474078D01*
X159911610Y-108506578D01*
X159858315Y-108550315D01*
X159814578Y-108603610D01*
X159782078Y-108664413D01*
X159762065Y-108730388D01*
X159755307Y-108799000D01*
X159755307Y-109864297D01*
X158193429Y-111426176D01*
X158176264Y-111440263D01*
X158162177Y-111457428D01*
X158162172Y-111457433D01*
X158120029Y-111508784D01*
X158078243Y-111586960D01*
X158052512Y-111671785D01*
X158043824Y-111760000D01*
X158046001Y-111782104D01*
X158046000Y-113605604D01*
X156785605Y-114866000D01*
X154872396Y-114866000D01*
X154628000Y-114621605D01*
X154628000Y-113860889D01*
X154689112Y-113952351D01*
X154779649Y-114042888D01*
X154886110Y-114114022D01*
X155004402Y-114163021D01*
X155129981Y-114188000D01*
X155258019Y-114188000D01*
X155383598Y-114163021D01*
X155501890Y-114114022D01*
X155608351Y-114042888D01*
X155698888Y-113952351D01*
X155770022Y-113845890D01*
X155819021Y-113727598D01*
X155844000Y-113602019D01*
X155844000Y-113524395D01*
X155855328Y-113513067D01*
X155887978Y-113591890D01*
X155959112Y-113698351D01*
X156049649Y-113788888D01*
X156156110Y-113860022D01*
X156274402Y-113909021D01*
X156399981Y-113934000D01*
X156528019Y-113934000D01*
X156653598Y-113909021D01*
X156771890Y-113860022D01*
X156878351Y-113788888D01*
X156968888Y-113698351D01*
X157040022Y-113591890D01*
X157089021Y-113473598D01*
X157114000Y-113348019D01*
X157114000Y-113219981D01*
X157089021Y-113094402D01*
X157040022Y-112976110D01*
X156968888Y-112869649D01*
X156914000Y-112814761D01*
X156914000Y-109750094D01*
X156916176Y-109728000D01*
X156914000Y-109705906D01*
X156914000Y-109705895D01*
X156907489Y-109639785D01*
X156893544Y-109593816D01*
X156907598Y-109591021D01*
X157025890Y-109542022D01*
X157132351Y-109470888D01*
X157222888Y-109380351D01*
X157294022Y-109273890D01*
X157343021Y-109155598D01*
X157368000Y-109030019D01*
X157368000Y-108901981D01*
X157355851Y-108840905D01*
X157415598Y-108829021D01*
X157533890Y-108780022D01*
X157640351Y-108708888D01*
X157730888Y-108618351D01*
X157802022Y-108511890D01*
X157851021Y-108393598D01*
X157876000Y-108268019D01*
X157876000Y-108139981D01*
X157851021Y-108014402D01*
X157802022Y-107896110D01*
X157730888Y-107789649D01*
X157723046Y-107781807D01*
X157798402Y-107813021D01*
X157923981Y-107838000D01*
X158052019Y-107838000D01*
X158111914Y-107826086D01*
X158100000Y-107885981D01*
X158100000Y-108014019D01*
X158124979Y-108139598D01*
X158173978Y-108257890D01*
X158245112Y-108364351D01*
X158335649Y-108454888D01*
X158442110Y-108526022D01*
X158560402Y-108575021D01*
X158685981Y-108600000D01*
X158814019Y-108600000D01*
X158939598Y-108575021D01*
X159057890Y-108526022D01*
X159164351Y-108454888D01*
X159254888Y-108364351D01*
X159326022Y-108257890D01*
X159375021Y-108139598D01*
X159400000Y-108014019D01*
X159400000Y-107885981D01*
X159375021Y-107760402D01*
X159326022Y-107642110D01*
X159254888Y-107535649D01*
X159200000Y-107480761D01*
X159200000Y-104245751D01*
X159799001Y-104844752D01*
G36*
X151950000Y-97259905D02*
G01*
X151947824Y-97282000D01*
X151950000Y-97304094D01*
X151950000Y-97304104D01*
X151956511Y-97370214D01*
X151979427Y-97445757D01*
X151982243Y-97455040D01*
X152004000Y-97495744D01*
X152004000Y-97600019D01*
X152028979Y-97725598D01*
X152077978Y-97843890D01*
X152149112Y-97950351D01*
X152239649Y-98040888D01*
X152346110Y-98112022D01*
X152464402Y-98161021D01*
X152589981Y-98186000D01*
X152718019Y-98186000D01*
X152843598Y-98161021D01*
X152961890Y-98112022D01*
X153068351Y-98040888D01*
X153158888Y-97950351D01*
X153172934Y-97929329D01*
X154744001Y-99500397D01*
X154744000Y-108943895D01*
X154744000Y-109197906D01*
X154741824Y-109220000D01*
X154744000Y-109242094D01*
X154744000Y-109242105D01*
X154750511Y-109308215D01*
X154776243Y-109393041D01*
X154785035Y-109409489D01*
X154818029Y-109471216D01*
X154860172Y-109522567D01*
X154860177Y-109522572D01*
X154874264Y-109539737D01*
X154891429Y-109553824D01*
X155506000Y-110168396D01*
X155506001Y-112589603D01*
X155207605Y-112888000D01*
X155129981Y-112888000D01*
X155004402Y-112912979D01*
X154886110Y-112961978D01*
X154779649Y-113033112D01*
X154689112Y-113123649D01*
X154628000Y-113215111D01*
X154628000Y-109242094D01*
X154630176Y-109220000D01*
X154628000Y-109197906D01*
X154628000Y-109197895D01*
X154621489Y-109131785D01*
X154595757Y-109046959D01*
X154582322Y-109021824D01*
X154553971Y-108968783D01*
X154511828Y-108917432D01*
X154511824Y-108917428D01*
X154497737Y-108900263D01*
X154480573Y-108886177D01*
X153866000Y-108271605D01*
X153866000Y-100860094D01*
X153868176Y-100838000D01*
X153866000Y-100815906D01*
X153866000Y-100815895D01*
X153859489Y-100749785D01*
X153833757Y-100664959D01*
X153824965Y-100648511D01*
X153791971Y-100586783D01*
X153749828Y-100535432D01*
X153749824Y-100535428D01*
X153735737Y-100518263D01*
X153718573Y-100504177D01*
X152987827Y-99773432D01*
X152973737Y-99756263D01*
X152905216Y-99700029D01*
X152827041Y-99658243D01*
X152742215Y-99632511D01*
X152676105Y-99626000D01*
X152676094Y-99626000D01*
X152654000Y-99623824D01*
X152631906Y-99626000D01*
X152586396Y-99626000D01*
X152288000Y-99327605D01*
X152288000Y-99249981D01*
X152263021Y-99124402D01*
X152214022Y-99006110D01*
X152142888Y-98899649D01*
X152052351Y-98809112D01*
X151945890Y-98737978D01*
X151827598Y-98688979D01*
X151702019Y-98664000D01*
X151573981Y-98664000D01*
X151448402Y-98688979D01*
X151330110Y-98737978D01*
X151223649Y-98809112D01*
X151133112Y-98899649D01*
X151061978Y-99006110D01*
X151029328Y-99084933D01*
X150256000Y-98311605D01*
X150256000Y-98233981D01*
X150231021Y-98108402D01*
X150182022Y-97990110D01*
X150110888Y-97883649D01*
X150020351Y-97793112D01*
X149913890Y-97721978D01*
X149795598Y-97672979D01*
X149670019Y-97648000D01*
X149541981Y-97648000D01*
X149416402Y-97672979D01*
X149298110Y-97721978D01*
X149191649Y-97793112D01*
X149101112Y-97883649D01*
X149029978Y-97990110D01*
X148980979Y-98108402D01*
X148956000Y-98233981D01*
X148956000Y-98362019D01*
X148980979Y-98487598D01*
X149029978Y-98605890D01*
X149101112Y-98712351D01*
X149191649Y-98802888D01*
X149298110Y-98874022D01*
X149416402Y-98923021D01*
X149541981Y-98948000D01*
X149619605Y-98948000D01*
X151558176Y-100886572D01*
X151572263Y-100903737D01*
X151589428Y-100917824D01*
X151589432Y-100917828D01*
X151640783Y-100959971D01*
X151679862Y-100980859D01*
X151718959Y-101001757D01*
X151803785Y-101027489D01*
X151869895Y-101034000D01*
X151869905Y-101034000D01*
X151891999Y-101036176D01*
X151914093Y-101034000D01*
X152213605Y-101034000D01*
X152458000Y-101278396D01*
X152458001Y-108547000D01*
X152409396Y-108547000D01*
X151326000Y-107463605D01*
X151326000Y-102130093D01*
X151328176Y-102107999D01*
X151326000Y-102085905D01*
X151326000Y-102085895D01*
X151319489Y-102019785D01*
X151293757Y-101934959D01*
X151251972Y-101856785D01*
X151251971Y-101856783D01*
X151209828Y-101805432D01*
X151209824Y-101805428D01*
X151195737Y-101788263D01*
X151178573Y-101774177D01*
X149240000Y-99835605D01*
X149240000Y-99757981D01*
X149215021Y-99632402D01*
X149166022Y-99514110D01*
X149094888Y-99407649D01*
X149065000Y-99377761D01*
X149065000Y-99083331D01*
X149067298Y-99059999D01*
X149058127Y-98966883D01*
X149044821Y-98923021D01*
X149030966Y-98877346D01*
X148986859Y-98794827D01*
X148927501Y-98722499D01*
X148909366Y-98707616D01*
X148811000Y-98609250D01*
X148811000Y-97732750D01*
X149040751Y-97503000D01*
X150090668Y-97503000D01*
X150114000Y-97505298D01*
X150137332Y-97503000D01*
X150207116Y-97496127D01*
X150296654Y-97468966D01*
X150379173Y-97424859D01*
X150451501Y-97365501D01*
X150466384Y-97347366D01*
X151950001Y-95863750D01*
X151950000Y-97259905D01*
G37*
X151950000Y-97259905D02*
X151947824Y-97282000D01*
X151950000Y-97304094D01*
X151950000Y-97304104D01*
X151956511Y-97370214D01*
X151979427Y-97445757D01*
X151982243Y-97455040D01*
X152004000Y-97495744D01*
X152004000Y-97600019D01*
X152028979Y-97725598D01*
X152077978Y-97843890D01*
X152149112Y-97950351D01*
X152239649Y-98040888D01*
X152346110Y-98112022D01*
X152464402Y-98161021D01*
X152589981Y-98186000D01*
X152718019Y-98186000D01*
X152843598Y-98161021D01*
X152961890Y-98112022D01*
X153068351Y-98040888D01*
X153158888Y-97950351D01*
X153172934Y-97929329D01*
X154744001Y-99500397D01*
X154744000Y-108943895D01*
X154744000Y-109197906D01*
X154741824Y-109220000D01*
X154744000Y-109242094D01*
X154744000Y-109242105D01*
X154750511Y-109308215D01*
X154776243Y-109393041D01*
X154785035Y-109409489D01*
X154818029Y-109471216D01*
X154860172Y-109522567D01*
X154860177Y-109522572D01*
X154874264Y-109539737D01*
X154891429Y-109553824D01*
X155506000Y-110168396D01*
X155506001Y-112589603D01*
X155207605Y-112888000D01*
X155129981Y-112888000D01*
X155004402Y-112912979D01*
X154886110Y-112961978D01*
X154779649Y-113033112D01*
X154689112Y-113123649D01*
X154628000Y-113215111D01*
X154628000Y-109242094D01*
X154630176Y-109220000D01*
X154628000Y-109197906D01*
X154628000Y-109197895D01*
X154621489Y-109131785D01*
X154595757Y-109046959D01*
X154582322Y-109021824D01*
X154553971Y-108968783D01*
X154511828Y-108917432D01*
X154511824Y-108917428D01*
X154497737Y-108900263D01*
X154480573Y-108886177D01*
X153866000Y-108271605D01*
X153866000Y-100860094D01*
X153868176Y-100838000D01*
X153866000Y-100815906D01*
X153866000Y-100815895D01*
X153859489Y-100749785D01*
X153833757Y-100664959D01*
X153824965Y-100648511D01*
X153791971Y-100586783D01*
X153749828Y-100535432D01*
X153749824Y-100535428D01*
X153735737Y-100518263D01*
X153718573Y-100504177D01*
X152987827Y-99773432D01*
X152973737Y-99756263D01*
X152905216Y-99700029D01*
X152827041Y-99658243D01*
X152742215Y-99632511D01*
X152676105Y-99626000D01*
X152676094Y-99626000D01*
X152654000Y-99623824D01*
X152631906Y-99626000D01*
X152586396Y-99626000D01*
X152288000Y-99327605D01*
X152288000Y-99249981D01*
X152263021Y-99124402D01*
X152214022Y-99006110D01*
X152142888Y-98899649D01*
X152052351Y-98809112D01*
X151945890Y-98737978D01*
X151827598Y-98688979D01*
X151702019Y-98664000D01*
X151573981Y-98664000D01*
X151448402Y-98688979D01*
X151330110Y-98737978D01*
X151223649Y-98809112D01*
X151133112Y-98899649D01*
X151061978Y-99006110D01*
X151029328Y-99084933D01*
X150256000Y-98311605D01*
X150256000Y-98233981D01*
X150231021Y-98108402D01*
X150182022Y-97990110D01*
X150110888Y-97883649D01*
X150020351Y-97793112D01*
X149913890Y-97721978D01*
X149795598Y-97672979D01*
X149670019Y-97648000D01*
X149541981Y-97648000D01*
X149416402Y-97672979D01*
X149298110Y-97721978D01*
X149191649Y-97793112D01*
X149101112Y-97883649D01*
X149029978Y-97990110D01*
X148980979Y-98108402D01*
X148956000Y-98233981D01*
X148956000Y-98362019D01*
X148980979Y-98487598D01*
X149029978Y-98605890D01*
X149101112Y-98712351D01*
X149191649Y-98802888D01*
X149298110Y-98874022D01*
X149416402Y-98923021D01*
X149541981Y-98948000D01*
X149619605Y-98948000D01*
X151558176Y-100886572D01*
X151572263Y-100903737D01*
X151589428Y-100917824D01*
X151589432Y-100917828D01*
X151640783Y-100959971D01*
X151679862Y-100980859D01*
X151718959Y-101001757D01*
X151803785Y-101027489D01*
X151869895Y-101034000D01*
X151869905Y-101034000D01*
X151891999Y-101036176D01*
X151914093Y-101034000D01*
X152213605Y-101034000D01*
X152458000Y-101278396D01*
X152458001Y-108547000D01*
X152409396Y-108547000D01*
X151326000Y-107463605D01*
X151326000Y-102130093D01*
X151328176Y-102107999D01*
X151326000Y-102085905D01*
X151326000Y-102085895D01*
X151319489Y-102019785D01*
X151293757Y-101934959D01*
X151251972Y-101856785D01*
X151251971Y-101856783D01*
X151209828Y-101805432D01*
X151209824Y-101805428D01*
X151195737Y-101788263D01*
X151178573Y-101774177D01*
X149240000Y-99835605D01*
X149240000Y-99757981D01*
X149215021Y-99632402D01*
X149166022Y-99514110D01*
X149094888Y-99407649D01*
X149065000Y-99377761D01*
X149065000Y-99083331D01*
X149067298Y-99059999D01*
X149058127Y-98966883D01*
X149044821Y-98923021D01*
X149030966Y-98877346D01*
X148986859Y-98794827D01*
X148927501Y-98722499D01*
X148909366Y-98707616D01*
X148811000Y-98609250D01*
X148811000Y-97732750D01*
X149040751Y-97503000D01*
X150090668Y-97503000D01*
X150114000Y-97505298D01*
X150137332Y-97503000D01*
X150207116Y-97496127D01*
X150296654Y-97468966D01*
X150379173Y-97424859D01*
X150451501Y-97365501D01*
X150466384Y-97347366D01*
X151950001Y-95863750D01*
X151950000Y-97259905D01*
G36*
X153220000Y-109660396D02*
G01*
X153220001Y-112416250D01*
X152113000Y-111309250D01*
X152113000Y-109771612D01*
X152115110Y-109773022D01*
X152233402Y-109822021D01*
X152358981Y-109847000D01*
X152487019Y-109847000D01*
X152612598Y-109822021D01*
X152730890Y-109773022D01*
X152837351Y-109701888D01*
X152927888Y-109611351D01*
X152999022Y-109504890D01*
X153018199Y-109458594D01*
X153220000Y-109660396D01*
G37*
X153220000Y-109660396D02*
X153220001Y-112416250D01*
X152113000Y-111309250D01*
X152113000Y-109771612D01*
X152115110Y-109773022D01*
X152233402Y-109822021D01*
X152358981Y-109847000D01*
X152487019Y-109847000D01*
X152612598Y-109822021D01*
X152730890Y-109773022D01*
X152837351Y-109701888D01*
X152927888Y-109611351D01*
X152999022Y-109504890D01*
X153018199Y-109458594D01*
X153220000Y-109660396D01*
G36*
X144051001Y-101542752D02*
G01*
X144051000Y-105727761D01*
X144021112Y-105757649D01*
X143949978Y-105864110D01*
X143900979Y-105982402D01*
X143876000Y-106107981D01*
X143876000Y-106236019D01*
X143900979Y-106361598D01*
X143949978Y-106479890D01*
X144021112Y-106586351D01*
X144111649Y-106676888D01*
X144218110Y-106748022D01*
X144336402Y-106797021D01*
X144461981Y-106822000D01*
X144590019Y-106822000D01*
X144715598Y-106797021D01*
X144833890Y-106748022D01*
X144940351Y-106676888D01*
X145030888Y-106586351D01*
X145034000Y-106581693D01*
X145037112Y-106586351D01*
X145127649Y-106676888D01*
X145234110Y-106748022D01*
X145352402Y-106797021D01*
X145477981Y-106822000D01*
X145606019Y-106822000D01*
X145731598Y-106797021D01*
X145849890Y-106748022D01*
X145854000Y-106745276D01*
X145854000Y-109959906D01*
X145851824Y-109982000D01*
X145854000Y-110004094D01*
X145854000Y-110004104D01*
X145860511Y-110070214D01*
X145883427Y-110145757D01*
X145886243Y-110155040D01*
X145928029Y-110233216D01*
X145948455Y-110258105D01*
X145984263Y-110301737D01*
X146001433Y-110315828D01*
X147748176Y-112062572D01*
X147762263Y-112079737D01*
X147779428Y-112093824D01*
X147779432Y-112093828D01*
X147830783Y-112135971D01*
X147869862Y-112156859D01*
X147908959Y-112177757D01*
X147993785Y-112203489D01*
X148059895Y-112210000D01*
X148059906Y-112210000D01*
X148082000Y-112212176D01*
X148104094Y-112210000D01*
X148882761Y-112210000D01*
X148937649Y-112264888D01*
X149029111Y-112326000D01*
X146118889Y-112326000D01*
X146210351Y-112264888D01*
X146300888Y-112174351D01*
X146372022Y-112067890D01*
X146421021Y-111949598D01*
X146446000Y-111824019D01*
X146446000Y-111695981D01*
X146421021Y-111570402D01*
X146372022Y-111452110D01*
X146300888Y-111345649D01*
X146210351Y-111255112D01*
X146103890Y-111183978D01*
X145985598Y-111134979D01*
X145860019Y-111110000D01*
X145782395Y-111110000D01*
X145621827Y-110949432D01*
X145607737Y-110932263D01*
X145539216Y-110876029D01*
X145461041Y-110834243D01*
X145376215Y-110808511D01*
X145310105Y-110802000D01*
X145310094Y-110802000D01*
X145288000Y-110799824D01*
X145265906Y-110802000D01*
X142934396Y-110802000D01*
X141707068Y-109574672D01*
X141785890Y-109542022D01*
X141892351Y-109470888D01*
X141982888Y-109380351D01*
X142054022Y-109273890D01*
X142103021Y-109155598D01*
X142128000Y-109030019D01*
X142128000Y-108952396D01*
X142288572Y-108791824D01*
X142305737Y-108777737D01*
X142319824Y-108760572D01*
X142319828Y-108760568D01*
X142361971Y-108709218D01*
X142394965Y-108647489D01*
X142403757Y-108631041D01*
X142429489Y-108546215D01*
X142436000Y-108480105D01*
X142436000Y-108480093D01*
X142438176Y-108458001D01*
X142436000Y-108435909D01*
X142436000Y-102577239D01*
X142490888Y-102522351D01*
X142562022Y-102415890D01*
X142611021Y-102297598D01*
X142622905Y-102237851D01*
X142683981Y-102250000D01*
X142812019Y-102250000D01*
X142937598Y-102225021D01*
X143055890Y-102176022D01*
X143162351Y-102104888D01*
X143252888Y-102014351D01*
X143324022Y-101907890D01*
X143373021Y-101789598D01*
X143398000Y-101664019D01*
X143398000Y-101535981D01*
X143373021Y-101410402D01*
X143332675Y-101313000D01*
X143821250Y-101313000D01*
X144051001Y-101542752D01*
G37*
X144051001Y-101542752D02*
X144051000Y-105727761D01*
X144021112Y-105757649D01*
X143949978Y-105864110D01*
X143900979Y-105982402D01*
X143876000Y-106107981D01*
X143876000Y-106236019D01*
X143900979Y-106361598D01*
X143949978Y-106479890D01*
X144021112Y-106586351D01*
X144111649Y-106676888D01*
X144218110Y-106748022D01*
X144336402Y-106797021D01*
X144461981Y-106822000D01*
X144590019Y-106822000D01*
X144715598Y-106797021D01*
X144833890Y-106748022D01*
X144940351Y-106676888D01*
X145030888Y-106586351D01*
X145034000Y-106581693D01*
X145037112Y-106586351D01*
X145127649Y-106676888D01*
X145234110Y-106748022D01*
X145352402Y-106797021D01*
X145477981Y-106822000D01*
X145606019Y-106822000D01*
X145731598Y-106797021D01*
X145849890Y-106748022D01*
X145854000Y-106745276D01*
X145854000Y-109959906D01*
X145851824Y-109982000D01*
X145854000Y-110004094D01*
X145854000Y-110004104D01*
X145860511Y-110070214D01*
X145883427Y-110145757D01*
X145886243Y-110155040D01*
X145928029Y-110233216D01*
X145948455Y-110258105D01*
X145984263Y-110301737D01*
X146001433Y-110315828D01*
X147748176Y-112062572D01*
X147762263Y-112079737D01*
X147779428Y-112093824D01*
X147779432Y-112093828D01*
X147830783Y-112135971D01*
X147869862Y-112156859D01*
X147908959Y-112177757D01*
X147993785Y-112203489D01*
X148059895Y-112210000D01*
X148059906Y-112210000D01*
X148082000Y-112212176D01*
X148104094Y-112210000D01*
X148882761Y-112210000D01*
X148937649Y-112264888D01*
X149029111Y-112326000D01*
X146118889Y-112326000D01*
X146210351Y-112264888D01*
X146300888Y-112174351D01*
X146372022Y-112067890D01*
X146421021Y-111949598D01*
X146446000Y-111824019D01*
X146446000Y-111695981D01*
X146421021Y-111570402D01*
X146372022Y-111452110D01*
X146300888Y-111345649D01*
X146210351Y-111255112D01*
X146103890Y-111183978D01*
X145985598Y-111134979D01*
X145860019Y-111110000D01*
X145782395Y-111110000D01*
X145621827Y-110949432D01*
X145607737Y-110932263D01*
X145539216Y-110876029D01*
X145461041Y-110834243D01*
X145376215Y-110808511D01*
X145310105Y-110802000D01*
X145310094Y-110802000D01*
X145288000Y-110799824D01*
X145265906Y-110802000D01*
X142934396Y-110802000D01*
X141707068Y-109574672D01*
X141785890Y-109542022D01*
X141892351Y-109470888D01*
X141982888Y-109380351D01*
X142054022Y-109273890D01*
X142103021Y-109155598D01*
X142128000Y-109030019D01*
X142128000Y-108952396D01*
X142288572Y-108791824D01*
X142305737Y-108777737D01*
X142319824Y-108760572D01*
X142319828Y-108760568D01*
X142361971Y-108709218D01*
X142394965Y-108647489D01*
X142403757Y-108631041D01*
X142429489Y-108546215D01*
X142436000Y-108480105D01*
X142436000Y-108480093D01*
X142438176Y-108458001D01*
X142436000Y-108435909D01*
X142436000Y-102577239D01*
X142490888Y-102522351D01*
X142562022Y-102415890D01*
X142611021Y-102297598D01*
X142622905Y-102237851D01*
X142683981Y-102250000D01*
X142812019Y-102250000D01*
X142937598Y-102225021D01*
X143055890Y-102176022D01*
X143162351Y-102104888D01*
X143252888Y-102014351D01*
X143324022Y-101907890D01*
X143373021Y-101789598D01*
X143398000Y-101664019D01*
X143398000Y-101535981D01*
X143373021Y-101410402D01*
X143332675Y-101313000D01*
X143821250Y-101313000D01*
X144051001Y-101542752D01*
G36*
X147886001Y-108898397D02*
G01*
X147886000Y-109766761D01*
X147831112Y-109821649D01*
X147759978Y-109928110D01*
X147727328Y-110006933D01*
X147262000Y-109541605D01*
X147262000Y-108274395D01*
X147886001Y-108898397D01*
G37*
X147886001Y-108898397D02*
X147886000Y-109766761D01*
X147831112Y-109821649D01*
X147759978Y-109928110D01*
X147727328Y-110006933D01*
X147262000Y-109541605D01*
X147262000Y-108274395D01*
X147886001Y-108898397D01*
G36*
X138189605Y-101689000D02*
G01*
X138111981Y-101689000D01*
X137986402Y-101713979D01*
X137868110Y-101762978D01*
X137761649Y-101834112D01*
X137671112Y-101924649D01*
X137599978Y-102031110D01*
X137550979Y-102149402D01*
X137526000Y-102274981D01*
X137526000Y-102403019D01*
X137550979Y-102528598D01*
X137599978Y-102646890D01*
X137671112Y-102753351D01*
X137761649Y-102843888D01*
X137868110Y-102915022D01*
X137986402Y-102964021D01*
X138111981Y-102989000D01*
X138240019Y-102989000D01*
X138365598Y-102964021D01*
X138483890Y-102915022D01*
X138590351Y-102843888D01*
X138680888Y-102753351D01*
X138752022Y-102646890D01*
X138801021Y-102528598D01*
X138826000Y-102403019D01*
X138826000Y-102325395D01*
X139355396Y-101796000D01*
X140396724Y-101796000D01*
X140393978Y-101800110D01*
X140344979Y-101918402D01*
X140320000Y-102043981D01*
X140320000Y-102172019D01*
X140344979Y-102297598D01*
X140393978Y-102415890D01*
X140465112Y-102522351D01*
X140520000Y-102577239D01*
X140520001Y-107581630D01*
X140408110Y-107627978D01*
X140301649Y-107699112D01*
X140211112Y-107789649D01*
X140139978Y-107896110D01*
X140107328Y-107974933D01*
X139642000Y-107509605D01*
X139642000Y-106194093D01*
X139644176Y-106171999D01*
X139642000Y-106149905D01*
X139642000Y-106149895D01*
X139635489Y-106083785D01*
X139609757Y-105998959D01*
X139592443Y-105966567D01*
X139567971Y-105920783D01*
X139525828Y-105869432D01*
X139525824Y-105869428D01*
X139511737Y-105852263D01*
X139494572Y-105838176D01*
X137356000Y-103699605D01*
X137356000Y-101815239D01*
X137410888Y-101760351D01*
X137482022Y-101653890D01*
X137531021Y-101535598D01*
X137556000Y-101410019D01*
X137556000Y-101313000D01*
X138565604Y-101313000D01*
X138189605Y-101689000D01*
G37*
X138189605Y-101689000D02*
X138111981Y-101689000D01*
X137986402Y-101713979D01*
X137868110Y-101762978D01*
X137761649Y-101834112D01*
X137671112Y-101924649D01*
X137599978Y-102031110D01*
X137550979Y-102149402D01*
X137526000Y-102274981D01*
X137526000Y-102403019D01*
X137550979Y-102528598D01*
X137599978Y-102646890D01*
X137671112Y-102753351D01*
X137761649Y-102843888D01*
X137868110Y-102915022D01*
X137986402Y-102964021D01*
X138111981Y-102989000D01*
X138240019Y-102989000D01*
X138365598Y-102964021D01*
X138483890Y-102915022D01*
X138590351Y-102843888D01*
X138680888Y-102753351D01*
X138752022Y-102646890D01*
X138801021Y-102528598D01*
X138826000Y-102403019D01*
X138826000Y-102325395D01*
X139355396Y-101796000D01*
X140396724Y-101796000D01*
X140393978Y-101800110D01*
X140344979Y-101918402D01*
X140320000Y-102043981D01*
X140320000Y-102172019D01*
X140344979Y-102297598D01*
X140393978Y-102415890D01*
X140465112Y-102522351D01*
X140520000Y-102577239D01*
X140520001Y-107581630D01*
X140408110Y-107627978D01*
X140301649Y-107699112D01*
X140211112Y-107789649D01*
X140139978Y-107896110D01*
X140107328Y-107974933D01*
X139642000Y-107509605D01*
X139642000Y-106194093D01*
X139644176Y-106171999D01*
X139642000Y-106149905D01*
X139642000Y-106149895D01*
X139635489Y-106083785D01*
X139609757Y-105998959D01*
X139592443Y-105966567D01*
X139567971Y-105920783D01*
X139525828Y-105869432D01*
X139525824Y-105869428D01*
X139511737Y-105852263D01*
X139494572Y-105838176D01*
X137356000Y-103699605D01*
X137356000Y-101815239D01*
X137410888Y-101760351D01*
X137482022Y-101653890D01*
X137531021Y-101535598D01*
X137556000Y-101410019D01*
X137556000Y-101313000D01*
X138565604Y-101313000D01*
X138189605Y-101689000D01*
G36*
X162439000Y-106649250D02*
G01*
X161257000Y-105467250D01*
X161257000Y-104417332D01*
X161259298Y-104394000D01*
X161250127Y-104300883D01*
X161238323Y-104261971D01*
X161222966Y-104211346D01*
X161178859Y-104128827D01*
X161119501Y-104056499D01*
X161101372Y-104041621D01*
X159225000Y-102165250D01*
X159225000Y-97908121D01*
X159243795Y-98002609D01*
X159364382Y-98293733D01*
X159539448Y-98555736D01*
X159762264Y-98778552D01*
X160024267Y-98953618D01*
X160315391Y-99074205D01*
X160624445Y-99135680D01*
X160939555Y-99135680D01*
X161248609Y-99074205D01*
X161539733Y-98953618D01*
X161801736Y-98778552D01*
X162024552Y-98555736D01*
X162199618Y-98293733D01*
X162320205Y-98002609D01*
X162381680Y-97693555D01*
X162381680Y-97378445D01*
X162320205Y-97069391D01*
X162199618Y-96778267D01*
X162024552Y-96516264D01*
X161801736Y-96293448D01*
X161539733Y-96118382D01*
X161248609Y-95997795D01*
X161028438Y-95954000D01*
X161328761Y-95954000D01*
X161383649Y-96008888D01*
X161490110Y-96080022D01*
X161608402Y-96129021D01*
X161733981Y-96154000D01*
X161862019Y-96154000D01*
X161987598Y-96129021D01*
X162105890Y-96080022D01*
X162212351Y-96008888D01*
X162302888Y-95918351D01*
X162374022Y-95811890D01*
X162423021Y-95693598D01*
X162439001Y-95613262D01*
X162439000Y-106649250D01*
G37*
X162439000Y-106649250D02*
X161257000Y-105467250D01*
X161257000Y-104417332D01*
X161259298Y-104394000D01*
X161250127Y-104300883D01*
X161238323Y-104261971D01*
X161222966Y-104211346D01*
X161178859Y-104128827D01*
X161119501Y-104056499D01*
X161101372Y-104041621D01*
X159225000Y-102165250D01*
X159225000Y-97908121D01*
X159243795Y-98002609D01*
X159364382Y-98293733D01*
X159539448Y-98555736D01*
X159762264Y-98778552D01*
X160024267Y-98953618D01*
X160315391Y-99074205D01*
X160624445Y-99135680D01*
X160939555Y-99135680D01*
X161248609Y-99074205D01*
X161539733Y-98953618D01*
X161801736Y-98778552D01*
X162024552Y-98555736D01*
X162199618Y-98293733D01*
X162320205Y-98002609D01*
X162381680Y-97693555D01*
X162381680Y-97378445D01*
X162320205Y-97069391D01*
X162199618Y-96778267D01*
X162024552Y-96516264D01*
X161801736Y-96293448D01*
X161539733Y-96118382D01*
X161248609Y-95997795D01*
X161028438Y-95954000D01*
X161328761Y-95954000D01*
X161383649Y-96008888D01*
X161490110Y-96080022D01*
X161608402Y-96129021D01*
X161733981Y-96154000D01*
X161862019Y-96154000D01*
X161987598Y-96129021D01*
X162105890Y-96080022D01*
X162212351Y-96008888D01*
X162302888Y-95918351D01*
X162374022Y-95811890D01*
X162423021Y-95693598D01*
X162439001Y-95613262D01*
X162439000Y-106649250D01*
G36*
X148282110Y-100398022D02*
G01*
X148400402Y-100447021D01*
X148525981Y-100472000D01*
X148603605Y-100472000D01*
X150426000Y-102294396D01*
X150426001Y-105304250D01*
X150212384Y-105090634D01*
X150197501Y-105072499D01*
X150125173Y-105013141D01*
X150042654Y-104969034D01*
X149953116Y-104941873D01*
X149883332Y-104935000D01*
X149860000Y-104932702D01*
X149836668Y-104935000D01*
X149375332Y-104935000D01*
X149352000Y-104932702D01*
X149328668Y-104935000D01*
X149258884Y-104941873D01*
X149169346Y-104969034D01*
X149086827Y-105013141D01*
X149014499Y-105072499D01*
X148999625Y-105090623D01*
X148568249Y-105522000D01*
X148525981Y-105522000D01*
X148400402Y-105546979D01*
X148282110Y-105595978D01*
X148278000Y-105598724D01*
X148278000Y-100395276D01*
X148282110Y-100398022D01*
G37*
X148282110Y-100398022D02*
X148400402Y-100447021D01*
X148525981Y-100472000D01*
X148603605Y-100472000D01*
X150426000Y-102294396D01*
X150426001Y-105304250D01*
X150212384Y-105090634D01*
X150197501Y-105072499D01*
X150125173Y-105013141D01*
X150042654Y-104969034D01*
X149953116Y-104941873D01*
X149883332Y-104935000D01*
X149860000Y-104932702D01*
X149836668Y-104935000D01*
X149375332Y-104935000D01*
X149352000Y-104932702D01*
X149328668Y-104935000D01*
X149258884Y-104941873D01*
X149169346Y-104969034D01*
X149086827Y-105013141D01*
X149014499Y-105072499D01*
X148999625Y-105090623D01*
X148568249Y-105522000D01*
X148525981Y-105522000D01*
X148400402Y-105546979D01*
X148282110Y-105595978D01*
X148278000Y-105598724D01*
X148278000Y-100395276D01*
X148282110Y-100398022D01*
G36*
X146362001Y-99751605D02*
G01*
X146129827Y-99519432D01*
X146115737Y-99502263D01*
X146047216Y-99446029D01*
X145969041Y-99404243D01*
X145884215Y-99378511D01*
X145818105Y-99372000D01*
X145818094Y-99372000D01*
X145796000Y-99369824D01*
X145773906Y-99372000D01*
X142564395Y-99372000D01*
X143188396Y-98748000D01*
X146362001Y-98748000D01*
X146362001Y-99751605D01*
G37*
X146362001Y-99751605D02*
X146129827Y-99519432D01*
X146115737Y-99502263D01*
X146047216Y-99446029D01*
X145969041Y-99404243D01*
X145884215Y-99378511D01*
X145818105Y-99372000D01*
X145818094Y-99372000D01*
X145796000Y-99369824D01*
X145773906Y-99372000D01*
X142564395Y-99372000D01*
X143188396Y-98748000D01*
X146362001Y-98748000D01*
X146362001Y-99751605D01*
G36*
X156929649Y-85213888D02*
G01*
X157036110Y-85285022D01*
X157154402Y-85334021D01*
X157279981Y-85359000D01*
X157408019Y-85359000D01*
X157533598Y-85334021D01*
X157651890Y-85285022D01*
X157758351Y-85213888D01*
X157767001Y-85205238D01*
X157767000Y-95662604D01*
X156280395Y-94176000D01*
X156502761Y-94176000D01*
X156557649Y-94230888D01*
X156664110Y-94302022D01*
X156782402Y-94351021D01*
X156907981Y-94376000D01*
X157036019Y-94376000D01*
X157161598Y-94351021D01*
X157279890Y-94302022D01*
X157386351Y-94230888D01*
X157476888Y-94140351D01*
X157548022Y-94033890D01*
X157597021Y-93915598D01*
X157622000Y-93790019D01*
X157622000Y-93661981D01*
X157597021Y-93536402D01*
X157548022Y-93418110D01*
X157476888Y-93311649D01*
X157386351Y-93221112D01*
X157279890Y-93149978D01*
X157161598Y-93100979D01*
X157036019Y-93076000D01*
X156907981Y-93076000D01*
X156782402Y-93100979D01*
X156664110Y-93149978D01*
X156557649Y-93221112D01*
X156502761Y-93276000D01*
X156396396Y-93276000D01*
X154765828Y-91645433D01*
X154751737Y-91628263D01*
X154683216Y-91572029D01*
X154605041Y-91530243D01*
X154520215Y-91504511D01*
X154454105Y-91498000D01*
X154454094Y-91498000D01*
X154432000Y-91495824D01*
X154409906Y-91498000D01*
X153946091Y-91498000D01*
X153923999Y-91495824D01*
X153901907Y-91498000D01*
X153901895Y-91498000D01*
X153835785Y-91504511D01*
X153789816Y-91518456D01*
X153787021Y-91504402D01*
X153738022Y-91386110D01*
X153666888Y-91279649D01*
X153576351Y-91189112D01*
X153469890Y-91117978D01*
X153351598Y-91068979D01*
X153226019Y-91044000D01*
X153097981Y-91044000D01*
X152972402Y-91068979D01*
X152875000Y-91109325D01*
X152875000Y-87318750D01*
X153975906Y-86217845D01*
X153988402Y-86223021D01*
X154113981Y-86248000D01*
X154242019Y-86248000D01*
X154367598Y-86223021D01*
X154485890Y-86174022D01*
X154592351Y-86102888D01*
X154682888Y-86012351D01*
X154754022Y-85905890D01*
X154803021Y-85787598D01*
X154828000Y-85662019D01*
X154828000Y-85533981D01*
X154803021Y-85408402D01*
X154754022Y-85290110D01*
X154682888Y-85183649D01*
X154658239Y-85159000D01*
X156874761Y-85159000D01*
X156929649Y-85213888D01*
G37*
X156929649Y-85213888D02*
X157036110Y-85285022D01*
X157154402Y-85334021D01*
X157279981Y-85359000D01*
X157408019Y-85359000D01*
X157533598Y-85334021D01*
X157651890Y-85285022D01*
X157758351Y-85213888D01*
X157767001Y-85205238D01*
X157767000Y-95662604D01*
X156280395Y-94176000D01*
X156502761Y-94176000D01*
X156557649Y-94230888D01*
X156664110Y-94302022D01*
X156782402Y-94351021D01*
X156907981Y-94376000D01*
X157036019Y-94376000D01*
X157161598Y-94351021D01*
X157279890Y-94302022D01*
X157386351Y-94230888D01*
X157476888Y-94140351D01*
X157548022Y-94033890D01*
X157597021Y-93915598D01*
X157622000Y-93790019D01*
X157622000Y-93661981D01*
X157597021Y-93536402D01*
X157548022Y-93418110D01*
X157476888Y-93311649D01*
X157386351Y-93221112D01*
X157279890Y-93149978D01*
X157161598Y-93100979D01*
X157036019Y-93076000D01*
X156907981Y-93076000D01*
X156782402Y-93100979D01*
X156664110Y-93149978D01*
X156557649Y-93221112D01*
X156502761Y-93276000D01*
X156396396Y-93276000D01*
X154765828Y-91645433D01*
X154751737Y-91628263D01*
X154683216Y-91572029D01*
X154605041Y-91530243D01*
X154520215Y-91504511D01*
X154454105Y-91498000D01*
X154454094Y-91498000D01*
X154432000Y-91495824D01*
X154409906Y-91498000D01*
X153946091Y-91498000D01*
X153923999Y-91495824D01*
X153901907Y-91498000D01*
X153901895Y-91498000D01*
X153835785Y-91504511D01*
X153789816Y-91518456D01*
X153787021Y-91504402D01*
X153738022Y-91386110D01*
X153666888Y-91279649D01*
X153576351Y-91189112D01*
X153469890Y-91117978D01*
X153351598Y-91068979D01*
X153226019Y-91044000D01*
X153097981Y-91044000D01*
X152972402Y-91068979D01*
X152875000Y-91109325D01*
X152875000Y-87318750D01*
X153975906Y-86217845D01*
X153988402Y-86223021D01*
X154113981Y-86248000D01*
X154242019Y-86248000D01*
X154367598Y-86223021D01*
X154485890Y-86174022D01*
X154592351Y-86102888D01*
X154682888Y-86012351D01*
X154754022Y-85905890D01*
X154803021Y-85787598D01*
X154828000Y-85662019D01*
X154828000Y-85533981D01*
X154803021Y-85408402D01*
X154754022Y-85290110D01*
X154682888Y-85183649D01*
X154658239Y-85159000D01*
X156874761Y-85159000D01*
X156929649Y-85213888D01*
M02*
