G04 #@! TF.GenerationSoftware,KiCad,Pcbnew,(5.1.5)-3*
G04 #@! TF.CreationDate,2021-11-09T21:41:46-05:00*
G04 #@! TF.ProjectId,MotorDriver,4d6f746f-7244-4726-9976-65722e6b6963,rev?*
G04 #@! TF.SameCoordinates,Original*
G04 #@! TF.FileFunction,Copper,L2,Inr*
G04 #@! TF.FilePolarity,Positive*
%FSLAX46Y46*%
G04 Gerber Fmt 4.6, Leading zero omitted, Abs format (unit mm)*
G04 Created by KiCad (PCBNEW (5.1.5)-3) date 2021-11-09 21:41:46*
%MOMM*%
%LPD*%
G04 APERTURE LIST*
%ADD10O,1.350000X1.350000*%
%ADD11R,1.350000X1.350000*%
%ADD12C,2.499360*%
%ADD13R,2.499360X2.499360*%
%ADD14C,0.900000*%
%ADD15C,0.600000*%
%ADD16C,0.800000*%
%ADD17C,0.200000*%
G04 APERTURE END LIST*
D10*
X91694000Y-58452000D03*
D11*
X91694000Y-60452000D03*
D10*
X68580000Y-60294000D03*
X68580000Y-62294000D03*
X68580000Y-64294000D03*
D11*
X68580000Y-66294000D03*
D12*
X91694000Y-72390000D03*
D13*
X91694000Y-68580000D03*
D10*
X83165200Y-41148000D03*
X81165200Y-41148000D03*
X79165200Y-41148000D03*
D11*
X77165200Y-41148000D03*
D12*
X72000000Y-76464000D03*
D13*
X72000000Y-80274000D03*
D12*
X88000000Y-80264000D03*
D13*
X88000000Y-76454000D03*
D12*
X88000000Y-45161200D03*
D13*
X88000000Y-41351200D03*
D12*
X72000000Y-41361200D03*
D13*
X72000000Y-45171200D03*
D14*
X87376000Y-73406000D03*
D15*
X71818500Y-70739000D03*
X76454000Y-71945500D03*
X82296000Y-48133000D03*
D14*
X77279500Y-48641000D03*
X73406000Y-64770000D03*
X86360000Y-49784000D03*
X74676000Y-70612000D03*
X79248000Y-76200000D03*
X82550000Y-54610000D03*
X80010000Y-54610000D03*
X80010000Y-66040000D03*
X76200000Y-53340000D03*
X76200000Y-59690000D03*
X82550000Y-58420000D03*
X80010000Y-58420000D03*
X80010000Y-62230000D03*
X82550000Y-62230000D03*
X90551000Y-55372000D03*
X87176000Y-72444000D03*
X76073000Y-94488000D03*
X82804000Y-94361000D03*
X79502000Y-90043000D03*
X80264000Y-81026000D03*
X68453000Y-57848500D03*
X85407500Y-40830500D03*
X70866000Y-47561500D03*
X88963500Y-48069500D03*
X86804500Y-82740500D03*
X72834500Y-83312000D03*
D15*
X87693500Y-53022500D03*
X87693500Y-54292500D03*
X87693500Y-55562500D03*
X87630000Y-65722500D03*
X72199500Y-59372500D03*
X72199500Y-58102500D03*
X72199500Y-56832500D03*
X72199500Y-53022500D03*
X77597000Y-87122000D03*
X81534000Y-69596000D03*
D16*
X77343000Y-42926000D03*
D15*
X78524000Y-45936000D03*
X73914000Y-74041000D03*
X77533500Y-69469000D03*
X78105000Y-64262000D03*
D14*
X82232500Y-44767500D03*
D15*
X82423000Y-42926000D03*
X82359500Y-43561000D03*
X70739000Y-49149000D03*
D14*
X86423500Y-93027500D03*
X84391500Y-87439500D03*
X84391500Y-90233500D03*
D15*
X79946500Y-46990000D03*
X78359000Y-45021500D03*
X77152500Y-63817500D03*
X73660000Y-74866500D03*
X76962000Y-67754500D03*
X73700000Y-88798800D03*
X73700000Y-90198800D03*
X75501500Y-87249000D03*
X76962000Y-87884000D03*
X75438000Y-85979000D03*
X73700000Y-92998800D03*
X76263500Y-81470500D03*
X84772500Y-49022000D03*
X82232500Y-77406500D03*
X88500000Y-51745000D03*
X77597000Y-44005500D03*
X78422500Y-44069000D03*
X81661000Y-78041500D03*
X88500000Y-56825000D03*
X78105000Y-78930500D03*
X84137500Y-59753500D03*
X78232000Y-80010000D03*
X84836000Y-60198000D03*
D14*
X78041500Y-77724000D03*
X81915000Y-79248000D03*
D15*
X83248500Y-63817500D03*
D14*
X86169500Y-68961000D03*
X86169500Y-67437000D03*
D15*
X79883000Y-47625000D03*
X92011500Y-63182500D03*
D17*
G36*
X71265951Y-39987892D02*
G01*
X71012137Y-40157485D01*
X70796285Y-40373337D01*
X70626692Y-40627151D01*
X70509874Y-40909175D01*
X70450320Y-41208570D01*
X70450320Y-41513830D01*
X70509874Y-41813225D01*
X70626692Y-42095249D01*
X70796285Y-42349063D01*
X71012137Y-42564915D01*
X71265951Y-42734508D01*
X71547975Y-42851326D01*
X71847370Y-42910880D01*
X72152630Y-42910880D01*
X72423218Y-42857056D01*
X76643000Y-42857056D01*
X76643000Y-42994944D01*
X76669901Y-43130182D01*
X76722668Y-43257574D01*
X76799274Y-43372224D01*
X76896776Y-43469726D01*
X77011426Y-43546332D01*
X77138818Y-43599099D01*
X77152209Y-43601763D01*
X77130950Y-43623022D01*
X77065287Y-43721293D01*
X77020058Y-43830486D01*
X76997000Y-43946405D01*
X76997000Y-44064595D01*
X77020058Y-44180514D01*
X77065287Y-44289707D01*
X77130950Y-44387978D01*
X77214522Y-44471550D01*
X77312793Y-44537213D01*
X77421986Y-44582442D01*
X77537905Y-44605500D01*
X77656095Y-44605500D01*
X77772014Y-44582442D01*
X77881207Y-44537213D01*
X77977706Y-44472734D01*
X78026816Y-44521844D01*
X77976522Y-44555450D01*
X77892950Y-44639022D01*
X77827287Y-44737293D01*
X77782058Y-44846486D01*
X77759000Y-44962405D01*
X77759000Y-45080595D01*
X77782058Y-45196514D01*
X77827287Y-45305707D01*
X77892950Y-45403978D01*
X77976522Y-45487550D01*
X78064882Y-45546590D01*
X78057950Y-45553522D01*
X77992287Y-45651793D01*
X77947058Y-45760986D01*
X77924000Y-45876905D01*
X77924000Y-45995095D01*
X77947058Y-46111014D01*
X77992287Y-46220207D01*
X78057950Y-46318478D01*
X78141522Y-46402050D01*
X78239793Y-46467713D01*
X78348986Y-46512942D01*
X78464905Y-46536000D01*
X78583095Y-46536000D01*
X78699014Y-46512942D01*
X78808207Y-46467713D01*
X78906478Y-46402050D01*
X78990050Y-46318478D01*
X79055713Y-46220207D01*
X79100942Y-46111014D01*
X79124000Y-45995095D01*
X79124000Y-45876905D01*
X79100942Y-45760986D01*
X79055713Y-45651793D01*
X78990050Y-45553522D01*
X78906478Y-45469950D01*
X78818118Y-45410910D01*
X78825050Y-45403978D01*
X78890713Y-45305707D01*
X78935942Y-45196514D01*
X78959000Y-45080595D01*
X78959000Y-44962405D01*
X78935942Y-44846486D01*
X78890713Y-44737293D01*
X78861539Y-44693631D01*
X81482500Y-44693631D01*
X81482500Y-44841369D01*
X81511322Y-44986267D01*
X81567859Y-45122758D01*
X81649937Y-45245597D01*
X81754403Y-45350063D01*
X81877242Y-45432141D01*
X82013733Y-45488678D01*
X82158631Y-45517500D01*
X82306369Y-45517500D01*
X82451267Y-45488678D01*
X82587758Y-45432141D01*
X82710597Y-45350063D01*
X82815063Y-45245597D01*
X82897141Y-45122758D01*
X82944439Y-45008570D01*
X86450320Y-45008570D01*
X86450320Y-45313830D01*
X86509874Y-45613225D01*
X86626692Y-45895249D01*
X86796285Y-46149063D01*
X87012137Y-46364915D01*
X87265951Y-46534508D01*
X87547975Y-46651326D01*
X87847370Y-46710880D01*
X88152630Y-46710880D01*
X88452025Y-46651326D01*
X88734049Y-46534508D01*
X88987863Y-46364915D01*
X89203715Y-46149063D01*
X89373308Y-45895249D01*
X89490126Y-45613225D01*
X89549680Y-45313830D01*
X89549680Y-45008570D01*
X89490126Y-44709175D01*
X89373308Y-44427151D01*
X89203715Y-44173337D01*
X88987863Y-43957485D01*
X88734049Y-43787892D01*
X88452025Y-43671074D01*
X88152630Y-43611520D01*
X87847370Y-43611520D01*
X87547975Y-43671074D01*
X87265951Y-43787892D01*
X87012137Y-43957485D01*
X86796285Y-44173337D01*
X86626692Y-44427151D01*
X86509874Y-44709175D01*
X86450320Y-45008570D01*
X82944439Y-45008570D01*
X82953678Y-44986267D01*
X82982500Y-44841369D01*
X82982500Y-44693631D01*
X82953678Y-44548733D01*
X82897141Y-44412242D01*
X82815063Y-44289403D01*
X82710597Y-44184937D01*
X82599795Y-44110902D01*
X82643707Y-44092713D01*
X82741978Y-44027050D01*
X82825550Y-43943478D01*
X82891213Y-43845207D01*
X82936442Y-43736014D01*
X82959500Y-43620095D01*
X82959500Y-43501905D01*
X82936442Y-43385986D01*
X82898487Y-43294354D01*
X82954713Y-43210207D01*
X82999942Y-43101014D01*
X83023000Y-42985095D01*
X83023000Y-42866905D01*
X82999942Y-42750986D01*
X82954713Y-42641793D01*
X82889050Y-42543522D01*
X82805478Y-42459950D01*
X82707207Y-42394287D01*
X82598014Y-42349058D01*
X82482095Y-42326000D01*
X82363905Y-42326000D01*
X82247986Y-42349058D01*
X82138793Y-42394287D01*
X82040522Y-42459950D01*
X81956950Y-42543522D01*
X81891287Y-42641793D01*
X81846058Y-42750986D01*
X81823000Y-42866905D01*
X81823000Y-42985095D01*
X81846058Y-43101014D01*
X81884013Y-43192646D01*
X81827787Y-43276793D01*
X81782558Y-43385986D01*
X81759500Y-43501905D01*
X81759500Y-43620095D01*
X81782558Y-43736014D01*
X81827787Y-43845207D01*
X81893450Y-43943478D01*
X81977022Y-44027050D01*
X82008876Y-44048334D01*
X81877242Y-44102859D01*
X81754403Y-44184937D01*
X81649937Y-44289403D01*
X81567859Y-44412242D01*
X81511322Y-44548733D01*
X81482500Y-44693631D01*
X78861539Y-44693631D01*
X78825050Y-44639022D01*
X78754684Y-44568656D01*
X78804978Y-44535050D01*
X78888550Y-44451478D01*
X78954213Y-44353207D01*
X78999442Y-44244014D01*
X79022500Y-44128095D01*
X79022500Y-44009905D01*
X78999442Y-43893986D01*
X78954213Y-43784793D01*
X78888550Y-43686522D01*
X78804978Y-43602950D01*
X78706707Y-43537287D01*
X78597514Y-43492058D01*
X78481595Y-43469000D01*
X78363405Y-43469000D01*
X78247486Y-43492058D01*
X78138293Y-43537287D01*
X78041794Y-43601766D01*
X77979478Y-43539450D01*
X77881207Y-43473787D01*
X77813294Y-43445656D01*
X77886726Y-43372224D01*
X77963332Y-43257574D01*
X78016099Y-43130182D01*
X78043000Y-42994944D01*
X78043000Y-42857056D01*
X78016099Y-42721818D01*
X77963332Y-42594426D01*
X77886726Y-42479776D01*
X77789224Y-42382274D01*
X77674574Y-42305668D01*
X77547182Y-42252901D01*
X77411944Y-42226000D01*
X77274056Y-42226000D01*
X77138818Y-42252901D01*
X77011426Y-42305668D01*
X76896776Y-42382274D01*
X76799274Y-42479776D01*
X76722668Y-42594426D01*
X76669901Y-42721818D01*
X76643000Y-42857056D01*
X72423218Y-42857056D01*
X72452025Y-42851326D01*
X72734049Y-42734508D01*
X72987863Y-42564915D01*
X73203715Y-42349063D01*
X73373308Y-42095249D01*
X73490126Y-41813225D01*
X73549680Y-41513830D01*
X73549680Y-41208570D01*
X73518531Y-41051971D01*
X78190200Y-41051971D01*
X78190200Y-41244029D01*
X78227668Y-41432397D01*
X78301166Y-41609836D01*
X78407868Y-41769527D01*
X78543673Y-41905332D01*
X78703364Y-42012034D01*
X78880803Y-42085532D01*
X79069171Y-42123000D01*
X79261229Y-42123000D01*
X79449597Y-42085532D01*
X79627036Y-42012034D01*
X79786727Y-41905332D01*
X79922532Y-41769527D01*
X80029234Y-41609836D01*
X80102732Y-41432397D01*
X80140200Y-41244029D01*
X80140200Y-41051971D01*
X80190200Y-41051971D01*
X80190200Y-41244029D01*
X80227668Y-41432397D01*
X80301166Y-41609836D01*
X80407868Y-41769527D01*
X80543673Y-41905332D01*
X80703364Y-42012034D01*
X80880803Y-42085532D01*
X81069171Y-42123000D01*
X81261229Y-42123000D01*
X81449597Y-42085532D01*
X81627036Y-42012034D01*
X81786727Y-41905332D01*
X81922532Y-41769527D01*
X82029234Y-41609836D01*
X82102732Y-41432397D01*
X82140200Y-41244029D01*
X82140200Y-41051971D01*
X82190200Y-41051971D01*
X82190200Y-41244029D01*
X82227668Y-41432397D01*
X82301166Y-41609836D01*
X82407868Y-41769527D01*
X82543673Y-41905332D01*
X82703364Y-42012034D01*
X82880803Y-42085532D01*
X83069171Y-42123000D01*
X83261229Y-42123000D01*
X83449597Y-42085532D01*
X83627036Y-42012034D01*
X83786727Y-41905332D01*
X83922532Y-41769527D01*
X84029234Y-41609836D01*
X84102732Y-41432397D01*
X84140200Y-41244029D01*
X84140200Y-41051971D01*
X84102732Y-40863603D01*
X84029234Y-40686164D01*
X83922532Y-40526473D01*
X83786727Y-40390668D01*
X83627036Y-40283966D01*
X83449597Y-40210468D01*
X83261229Y-40173000D01*
X83069171Y-40173000D01*
X82880803Y-40210468D01*
X82703364Y-40283966D01*
X82543673Y-40390668D01*
X82407868Y-40526473D01*
X82301166Y-40686164D01*
X82227668Y-40863603D01*
X82190200Y-41051971D01*
X82140200Y-41051971D01*
X82102732Y-40863603D01*
X82029234Y-40686164D01*
X81922532Y-40526473D01*
X81786727Y-40390668D01*
X81627036Y-40283966D01*
X81449597Y-40210468D01*
X81261229Y-40173000D01*
X81069171Y-40173000D01*
X80880803Y-40210468D01*
X80703364Y-40283966D01*
X80543673Y-40390668D01*
X80407868Y-40526473D01*
X80301166Y-40686164D01*
X80227668Y-40863603D01*
X80190200Y-41051971D01*
X80140200Y-41051971D01*
X80102732Y-40863603D01*
X80029234Y-40686164D01*
X79922532Y-40526473D01*
X79786727Y-40390668D01*
X79627036Y-40283966D01*
X79449597Y-40210468D01*
X79261229Y-40173000D01*
X79069171Y-40173000D01*
X78880803Y-40210468D01*
X78703364Y-40283966D01*
X78543673Y-40390668D01*
X78407868Y-40526473D01*
X78301166Y-40686164D01*
X78227668Y-40863603D01*
X78190200Y-41051971D01*
X73518531Y-41051971D01*
X73490126Y-40909175D01*
X73373308Y-40627151D01*
X73203715Y-40373337D01*
X72987863Y-40157485D01*
X72734049Y-39987892D01*
X72640155Y-39949000D01*
X86491678Y-39949000D01*
X86471816Y-39986160D01*
X86454661Y-40042710D01*
X86448869Y-40101520D01*
X86448869Y-42600880D01*
X86454661Y-42659690D01*
X86471816Y-42716240D01*
X86499673Y-42768357D01*
X86537162Y-42814038D01*
X86582843Y-42851527D01*
X86634960Y-42879384D01*
X86691510Y-42896539D01*
X86750320Y-42902331D01*
X89249680Y-42902331D01*
X89308490Y-42896539D01*
X89365040Y-42879384D01*
X89417157Y-42851527D01*
X89462838Y-42814038D01*
X89500327Y-42768357D01*
X89528184Y-42716240D01*
X89545339Y-42659690D01*
X89551131Y-42600880D01*
X89551131Y-40101520D01*
X89545339Y-40042710D01*
X89528184Y-39986160D01*
X89508322Y-39949000D01*
X89591000Y-39949000D01*
X89591001Y-53194177D01*
X89589479Y-53207272D01*
X89591001Y-53226108D01*
X89591001Y-53228961D01*
X89592284Y-53241992D01*
X89594635Y-53271082D01*
X89595422Y-53273852D01*
X89595704Y-53276711D01*
X89604158Y-53304579D01*
X89612141Y-53332661D01*
X89613454Y-53335224D01*
X89614288Y-53337974D01*
X89628030Y-53363685D01*
X89641325Y-53389642D01*
X89643109Y-53391895D01*
X89644466Y-53394434D01*
X89662978Y-53416991D01*
X89671109Y-53427260D01*
X89673091Y-53429313D01*
X89685080Y-53443921D01*
X89695270Y-53452284D01*
X93147001Y-57027292D01*
X93147000Y-71848345D01*
X93067308Y-71655951D01*
X92897715Y-71402137D01*
X92681863Y-71186285D01*
X92428049Y-71016692D01*
X92146025Y-70899874D01*
X91846630Y-70840320D01*
X91541370Y-70840320D01*
X91241975Y-70899874D01*
X90959951Y-71016692D01*
X90706137Y-71186285D01*
X90490285Y-71402137D01*
X90320692Y-71655951D01*
X90203874Y-71937975D01*
X90144320Y-72237370D01*
X90144320Y-72542630D01*
X90203874Y-72842025D01*
X90320692Y-73124049D01*
X90490285Y-73377863D01*
X90706137Y-73593715D01*
X90959951Y-73763308D01*
X91241975Y-73880126D01*
X91541370Y-73939680D01*
X91846630Y-73939680D01*
X92146025Y-73880126D01*
X92428049Y-73763308D01*
X92681863Y-73593715D01*
X92897715Y-73377863D01*
X93067308Y-73124049D01*
X93147000Y-72931655D01*
X93147000Y-74478000D01*
X89804961Y-74478000D01*
X89789000Y-74476428D01*
X89773040Y-74478000D01*
X89773039Y-74478000D01*
X89725289Y-74482703D01*
X89664026Y-74501287D01*
X89607566Y-74531465D01*
X89558079Y-74572079D01*
X89517465Y-74621566D01*
X89487287Y-74678026D01*
X89468703Y-74739289D01*
X89462428Y-74803000D01*
X89464001Y-74818971D01*
X89464001Y-74992579D01*
X89462838Y-74991162D01*
X89417157Y-74953673D01*
X89365040Y-74925816D01*
X89308490Y-74908661D01*
X89249680Y-74902869D01*
X86750320Y-74902869D01*
X86691510Y-74908661D01*
X86634960Y-74925816D01*
X86582843Y-74953673D01*
X86537162Y-74991162D01*
X86499673Y-75036843D01*
X86471816Y-75088960D01*
X86454661Y-75145510D01*
X86448869Y-75204320D01*
X86448869Y-77703680D01*
X86454661Y-77762490D01*
X86471816Y-77819040D01*
X86499673Y-77871157D01*
X86537162Y-77916838D01*
X86582843Y-77954327D01*
X86634960Y-77982184D01*
X86691510Y-77999339D01*
X86750320Y-78005131D01*
X89249680Y-78005131D01*
X89308490Y-77999339D01*
X89365040Y-77982184D01*
X89417157Y-77954327D01*
X89462838Y-77916838D01*
X89464001Y-77915421D01*
X89464000Y-79748902D01*
X89373308Y-79529951D01*
X89203715Y-79276137D01*
X88987863Y-79060285D01*
X88734049Y-78890692D01*
X88452025Y-78773874D01*
X88152630Y-78714320D01*
X87847370Y-78714320D01*
X87547975Y-78773874D01*
X87265951Y-78890692D01*
X87012137Y-79060285D01*
X86796285Y-79276137D01*
X86626692Y-79529951D01*
X86509874Y-79811975D01*
X86450320Y-80111370D01*
X86450320Y-80416630D01*
X86509874Y-80716025D01*
X86626692Y-80998049D01*
X86796285Y-81251863D01*
X87012137Y-81467715D01*
X87265951Y-81637308D01*
X87547975Y-81754126D01*
X87748599Y-81794033D01*
X87728465Y-81818566D01*
X87698287Y-81875026D01*
X87679703Y-81936289D01*
X87673428Y-82000000D01*
X87675000Y-82015960D01*
X87675001Y-96675000D01*
X72325000Y-96675000D01*
X72325000Y-92939705D01*
X73100000Y-92939705D01*
X73100000Y-93057895D01*
X73123058Y-93173814D01*
X73168287Y-93283007D01*
X73233950Y-93381278D01*
X73317522Y-93464850D01*
X73415793Y-93530513D01*
X73524986Y-93575742D01*
X73640905Y-93598800D01*
X73759095Y-93598800D01*
X73875014Y-93575742D01*
X73984207Y-93530513D01*
X74082478Y-93464850D01*
X74166050Y-93381278D01*
X74231713Y-93283007D01*
X74276942Y-93173814D01*
X74300000Y-93057895D01*
X74300000Y-92953631D01*
X85673500Y-92953631D01*
X85673500Y-93101369D01*
X85702322Y-93246267D01*
X85758859Y-93382758D01*
X85840937Y-93505597D01*
X85945403Y-93610063D01*
X86068242Y-93692141D01*
X86204733Y-93748678D01*
X86349631Y-93777500D01*
X86497369Y-93777500D01*
X86642267Y-93748678D01*
X86778758Y-93692141D01*
X86901597Y-93610063D01*
X87006063Y-93505597D01*
X87088141Y-93382758D01*
X87144678Y-93246267D01*
X87173500Y-93101369D01*
X87173500Y-92953631D01*
X87144678Y-92808733D01*
X87088141Y-92672242D01*
X87006063Y-92549403D01*
X86901597Y-92444937D01*
X86778758Y-92362859D01*
X86642267Y-92306322D01*
X86497369Y-92277500D01*
X86349631Y-92277500D01*
X86204733Y-92306322D01*
X86068242Y-92362859D01*
X85945403Y-92444937D01*
X85840937Y-92549403D01*
X85758859Y-92672242D01*
X85702322Y-92808733D01*
X85673500Y-92953631D01*
X74300000Y-92953631D01*
X74300000Y-92939705D01*
X74276942Y-92823786D01*
X74231713Y-92714593D01*
X74166050Y-92616322D01*
X74082478Y-92532750D01*
X73984207Y-92467087D01*
X73875014Y-92421858D01*
X73759095Y-92398800D01*
X73640905Y-92398800D01*
X73524986Y-92421858D01*
X73415793Y-92467087D01*
X73317522Y-92532750D01*
X73233950Y-92616322D01*
X73168287Y-92714593D01*
X73123058Y-92823786D01*
X73100000Y-92939705D01*
X72325000Y-92939705D01*
X72325000Y-90139705D01*
X73100000Y-90139705D01*
X73100000Y-90257895D01*
X73123058Y-90373814D01*
X73168287Y-90483007D01*
X73233950Y-90581278D01*
X73317522Y-90664850D01*
X73415793Y-90730513D01*
X73524986Y-90775742D01*
X73640905Y-90798800D01*
X73759095Y-90798800D01*
X73875014Y-90775742D01*
X73984207Y-90730513D01*
X74082478Y-90664850D01*
X74166050Y-90581278D01*
X74231713Y-90483007D01*
X74276942Y-90373814D01*
X74300000Y-90257895D01*
X74300000Y-90159631D01*
X83641500Y-90159631D01*
X83641500Y-90307369D01*
X83670322Y-90452267D01*
X83726859Y-90588758D01*
X83808937Y-90711597D01*
X83913403Y-90816063D01*
X84036242Y-90898141D01*
X84172733Y-90954678D01*
X84317631Y-90983500D01*
X84465369Y-90983500D01*
X84610267Y-90954678D01*
X84746758Y-90898141D01*
X84869597Y-90816063D01*
X84974063Y-90711597D01*
X85056141Y-90588758D01*
X85112678Y-90452267D01*
X85141500Y-90307369D01*
X85141500Y-90159631D01*
X85112678Y-90014733D01*
X85056141Y-89878242D01*
X84974063Y-89755403D01*
X84869597Y-89650937D01*
X84746758Y-89568859D01*
X84610267Y-89512322D01*
X84465369Y-89483500D01*
X84317631Y-89483500D01*
X84172733Y-89512322D01*
X84036242Y-89568859D01*
X83913403Y-89650937D01*
X83808937Y-89755403D01*
X83726859Y-89878242D01*
X83670322Y-90014733D01*
X83641500Y-90159631D01*
X74300000Y-90159631D01*
X74300000Y-90139705D01*
X74276942Y-90023786D01*
X74231713Y-89914593D01*
X74166050Y-89816322D01*
X74082478Y-89732750D01*
X73984207Y-89667087D01*
X73875014Y-89621858D01*
X73759095Y-89598800D01*
X73640905Y-89598800D01*
X73524986Y-89621858D01*
X73415793Y-89667087D01*
X73317522Y-89732750D01*
X73233950Y-89816322D01*
X73168287Y-89914593D01*
X73123058Y-90023786D01*
X73100000Y-90139705D01*
X72325000Y-90139705D01*
X72325000Y-88739705D01*
X73100000Y-88739705D01*
X73100000Y-88857895D01*
X73123058Y-88973814D01*
X73168287Y-89083007D01*
X73233950Y-89181278D01*
X73317522Y-89264850D01*
X73415793Y-89330513D01*
X73524986Y-89375742D01*
X73640905Y-89398800D01*
X73759095Y-89398800D01*
X73875014Y-89375742D01*
X73984207Y-89330513D01*
X74082478Y-89264850D01*
X74166050Y-89181278D01*
X74231713Y-89083007D01*
X74276942Y-88973814D01*
X74300000Y-88857895D01*
X74300000Y-88739705D01*
X74276942Y-88623786D01*
X74231713Y-88514593D01*
X74166050Y-88416322D01*
X74082478Y-88332750D01*
X73984207Y-88267087D01*
X73875014Y-88221858D01*
X73759095Y-88198800D01*
X73640905Y-88198800D01*
X73524986Y-88221858D01*
X73415793Y-88267087D01*
X73317522Y-88332750D01*
X73233950Y-88416322D01*
X73168287Y-88514593D01*
X73123058Y-88623786D01*
X73100000Y-88739705D01*
X72325000Y-88739705D01*
X72325000Y-87189905D01*
X74901500Y-87189905D01*
X74901500Y-87308095D01*
X74924558Y-87424014D01*
X74969787Y-87533207D01*
X75035450Y-87631478D01*
X75119022Y-87715050D01*
X75217293Y-87780713D01*
X75326486Y-87825942D01*
X75442405Y-87849000D01*
X75560595Y-87849000D01*
X75676514Y-87825942D01*
X75679017Y-87824905D01*
X76362000Y-87824905D01*
X76362000Y-87943095D01*
X76385058Y-88059014D01*
X76430287Y-88168207D01*
X76495950Y-88266478D01*
X76579522Y-88350050D01*
X76677793Y-88415713D01*
X76786986Y-88460942D01*
X76902905Y-88484000D01*
X77021095Y-88484000D01*
X77137014Y-88460942D01*
X77246207Y-88415713D01*
X77344478Y-88350050D01*
X77428050Y-88266478D01*
X77493713Y-88168207D01*
X77538942Y-88059014D01*
X77562000Y-87943095D01*
X77562000Y-87824905D01*
X77541531Y-87722000D01*
X77656095Y-87722000D01*
X77772014Y-87698942D01*
X77881207Y-87653713D01*
X77979478Y-87588050D01*
X78063050Y-87504478D01*
X78128713Y-87406207D01*
X78145520Y-87365631D01*
X83641500Y-87365631D01*
X83641500Y-87513369D01*
X83670322Y-87658267D01*
X83726859Y-87794758D01*
X83808937Y-87917597D01*
X83913403Y-88022063D01*
X84036242Y-88104141D01*
X84172733Y-88160678D01*
X84317631Y-88189500D01*
X84465369Y-88189500D01*
X84610267Y-88160678D01*
X84746758Y-88104141D01*
X84869597Y-88022063D01*
X84974063Y-87917597D01*
X85056141Y-87794758D01*
X85112678Y-87658267D01*
X85141500Y-87513369D01*
X85141500Y-87365631D01*
X85112678Y-87220733D01*
X85056141Y-87084242D01*
X84974063Y-86961403D01*
X84869597Y-86856937D01*
X84746758Y-86774859D01*
X84610267Y-86718322D01*
X84465369Y-86689500D01*
X84317631Y-86689500D01*
X84172733Y-86718322D01*
X84036242Y-86774859D01*
X83913403Y-86856937D01*
X83808937Y-86961403D01*
X83726859Y-87084242D01*
X83670322Y-87220733D01*
X83641500Y-87365631D01*
X78145520Y-87365631D01*
X78173942Y-87297014D01*
X78197000Y-87181095D01*
X78197000Y-87062905D01*
X78173942Y-86946986D01*
X78128713Y-86837793D01*
X78063050Y-86739522D01*
X77979478Y-86655950D01*
X77881207Y-86590287D01*
X77772014Y-86545058D01*
X77656095Y-86522000D01*
X77537905Y-86522000D01*
X77421986Y-86545058D01*
X77312793Y-86590287D01*
X77214522Y-86655950D01*
X77130950Y-86739522D01*
X77065287Y-86837793D01*
X77020058Y-86946986D01*
X76997000Y-87062905D01*
X76997000Y-87181095D01*
X77017469Y-87284000D01*
X76902905Y-87284000D01*
X76786986Y-87307058D01*
X76677793Y-87352287D01*
X76579522Y-87417950D01*
X76495950Y-87501522D01*
X76430287Y-87599793D01*
X76385058Y-87708986D01*
X76362000Y-87824905D01*
X75679017Y-87824905D01*
X75785707Y-87780713D01*
X75883978Y-87715050D01*
X75967550Y-87631478D01*
X76033213Y-87533207D01*
X76078442Y-87424014D01*
X76101500Y-87308095D01*
X76101500Y-87189905D01*
X76078442Y-87073986D01*
X76033213Y-86964793D01*
X75967550Y-86866522D01*
X75883978Y-86782950D01*
X75785707Y-86717287D01*
X75676514Y-86672058D01*
X75560595Y-86649000D01*
X75442405Y-86649000D01*
X75326486Y-86672058D01*
X75217293Y-86717287D01*
X75119022Y-86782950D01*
X75035450Y-86866522D01*
X74969787Y-86964793D01*
X74924558Y-87073986D01*
X74901500Y-87189905D01*
X72325000Y-87189905D01*
X72325000Y-85919905D01*
X74838000Y-85919905D01*
X74838000Y-86038095D01*
X74861058Y-86154014D01*
X74906287Y-86263207D01*
X74971950Y-86361478D01*
X75055522Y-86445050D01*
X75153793Y-86510713D01*
X75262986Y-86555942D01*
X75378905Y-86579000D01*
X75497095Y-86579000D01*
X75613014Y-86555942D01*
X75722207Y-86510713D01*
X75820478Y-86445050D01*
X75904050Y-86361478D01*
X75969713Y-86263207D01*
X76014942Y-86154014D01*
X76038000Y-86038095D01*
X76038000Y-85919905D01*
X76014942Y-85803986D01*
X75969713Y-85694793D01*
X75904050Y-85596522D01*
X75820478Y-85512950D01*
X75722207Y-85447287D01*
X75613014Y-85402058D01*
X75497095Y-85379000D01*
X75378905Y-85379000D01*
X75262986Y-85402058D01*
X75153793Y-85447287D01*
X75055522Y-85512950D01*
X74971950Y-85596522D01*
X74906287Y-85694793D01*
X74861058Y-85803986D01*
X74838000Y-85919905D01*
X72325000Y-85919905D01*
X72325000Y-82015960D01*
X72326572Y-82000000D01*
X72320297Y-81936289D01*
X72301713Y-81875026D01*
X72275044Y-81825131D01*
X73249680Y-81825131D01*
X73308490Y-81819339D01*
X73365040Y-81802184D01*
X73417157Y-81774327D01*
X73462838Y-81736838D01*
X73500327Y-81691157D01*
X73528184Y-81639040D01*
X73545339Y-81582490D01*
X73551131Y-81523680D01*
X73551131Y-81411405D01*
X75663500Y-81411405D01*
X75663500Y-81529595D01*
X75686558Y-81645514D01*
X75731787Y-81754707D01*
X75797450Y-81852978D01*
X75881022Y-81936550D01*
X75979293Y-82002213D01*
X76088486Y-82047442D01*
X76204405Y-82070500D01*
X76322595Y-82070500D01*
X76438514Y-82047442D01*
X76547707Y-82002213D01*
X76645978Y-81936550D01*
X76729550Y-81852978D01*
X76795213Y-81754707D01*
X76840442Y-81645514D01*
X76863500Y-81529595D01*
X76863500Y-81411405D01*
X76840442Y-81295486D01*
X76795213Y-81186293D01*
X76729550Y-81088022D01*
X76645978Y-81004450D01*
X76547707Y-80938787D01*
X76438514Y-80893558D01*
X76322595Y-80870500D01*
X76204405Y-80870500D01*
X76088486Y-80893558D01*
X75979293Y-80938787D01*
X75881022Y-81004450D01*
X75797450Y-81088022D01*
X75731787Y-81186293D01*
X75686558Y-81295486D01*
X75663500Y-81411405D01*
X73551131Y-81411405D01*
X73551131Y-79024320D01*
X73545339Y-78965510D01*
X73528184Y-78908960D01*
X73500327Y-78856843D01*
X73462838Y-78811162D01*
X73417157Y-78773673D01*
X73365040Y-78745816D01*
X73308490Y-78728661D01*
X73249680Y-78722869D01*
X70750320Y-78722869D01*
X70691510Y-78728661D01*
X70634960Y-78745816D01*
X70582843Y-78773673D01*
X70537162Y-78811162D01*
X70499673Y-78856843D01*
X70471816Y-78908960D01*
X70454661Y-78965510D01*
X70448869Y-79024320D01*
X70448869Y-81523680D01*
X70454661Y-81582490D01*
X70471816Y-81639040D01*
X70491037Y-81675000D01*
X70325000Y-81675000D01*
X70325000Y-76311370D01*
X70450320Y-76311370D01*
X70450320Y-76616630D01*
X70509874Y-76916025D01*
X70626692Y-77198049D01*
X70796285Y-77451863D01*
X71012137Y-77667715D01*
X71265951Y-77837308D01*
X71547975Y-77954126D01*
X71847370Y-78013680D01*
X72152630Y-78013680D01*
X72452025Y-77954126D01*
X72734049Y-77837308D01*
X72987863Y-77667715D01*
X73005447Y-77650131D01*
X77291500Y-77650131D01*
X77291500Y-77797869D01*
X77320322Y-77942767D01*
X77376859Y-78079258D01*
X77458937Y-78202097D01*
X77563403Y-78306563D01*
X77686242Y-78388641D01*
X77778676Y-78426929D01*
X77722522Y-78464450D01*
X77638950Y-78548022D01*
X77573287Y-78646293D01*
X77528058Y-78755486D01*
X77505000Y-78871405D01*
X77505000Y-78989595D01*
X77528058Y-79105514D01*
X77573287Y-79214707D01*
X77638950Y-79312978D01*
X77722522Y-79396550D01*
X77820793Y-79462213D01*
X77914043Y-79500838D01*
X77849522Y-79543950D01*
X77765950Y-79627522D01*
X77700287Y-79725793D01*
X77655058Y-79834986D01*
X77632000Y-79950905D01*
X77632000Y-80069095D01*
X77655058Y-80185014D01*
X77700287Y-80294207D01*
X77765950Y-80392478D01*
X77849522Y-80476050D01*
X77947793Y-80541713D01*
X78056986Y-80586942D01*
X78172905Y-80610000D01*
X78291095Y-80610000D01*
X78407014Y-80586942D01*
X78516207Y-80541713D01*
X78614478Y-80476050D01*
X78698050Y-80392478D01*
X78763713Y-80294207D01*
X78808942Y-80185014D01*
X78832000Y-80069095D01*
X78832000Y-79950905D01*
X78808942Y-79834986D01*
X78763713Y-79725793D01*
X78698050Y-79627522D01*
X78614478Y-79543950D01*
X78516207Y-79478287D01*
X78422957Y-79439662D01*
X78487478Y-79396550D01*
X78571050Y-79312978D01*
X78636713Y-79214707D01*
X78681942Y-79105514D01*
X78705000Y-78989595D01*
X78705000Y-78871405D01*
X78681942Y-78755486D01*
X78636713Y-78646293D01*
X78571050Y-78548022D01*
X78487478Y-78464450D01*
X78389207Y-78398787D01*
X78380735Y-78395278D01*
X78396758Y-78388641D01*
X78519597Y-78306563D01*
X78624063Y-78202097D01*
X78706141Y-78079258D01*
X78746259Y-77982405D01*
X81061000Y-77982405D01*
X81061000Y-78100595D01*
X81084058Y-78216514D01*
X81129287Y-78325707D01*
X81194950Y-78423978D01*
X81278522Y-78507550D01*
X81376793Y-78573213D01*
X81485986Y-78618442D01*
X81502361Y-78621699D01*
X81436903Y-78665437D01*
X81332437Y-78769903D01*
X81250359Y-78892742D01*
X81193822Y-79029233D01*
X81165000Y-79174131D01*
X81165000Y-79321869D01*
X81193822Y-79466767D01*
X81250359Y-79603258D01*
X81332437Y-79726097D01*
X81436903Y-79830563D01*
X81559742Y-79912641D01*
X81696233Y-79969178D01*
X81841131Y-79998000D01*
X81988869Y-79998000D01*
X82133767Y-79969178D01*
X82270258Y-79912641D01*
X82393097Y-79830563D01*
X82497563Y-79726097D01*
X82579641Y-79603258D01*
X82636178Y-79466767D01*
X82665000Y-79321869D01*
X82665000Y-79174131D01*
X82636178Y-79029233D01*
X82579641Y-78892742D01*
X82497563Y-78769903D01*
X82393097Y-78665437D01*
X82270258Y-78583359D01*
X82133767Y-78526822D01*
X82041964Y-78508561D01*
X82043478Y-78507550D01*
X82127050Y-78423978D01*
X82192713Y-78325707D01*
X82237942Y-78216514D01*
X82261000Y-78100595D01*
X82261000Y-78006500D01*
X82291595Y-78006500D01*
X82407514Y-77983442D01*
X82516707Y-77938213D01*
X82614978Y-77872550D01*
X82698550Y-77788978D01*
X82764213Y-77690707D01*
X82809442Y-77581514D01*
X82832500Y-77465595D01*
X82832500Y-77347405D01*
X82809442Y-77231486D01*
X82764213Y-77122293D01*
X82698550Y-77024022D01*
X82614978Y-76940450D01*
X82516707Y-76874787D01*
X82407514Y-76829558D01*
X82291595Y-76806500D01*
X82173405Y-76806500D01*
X82057486Y-76829558D01*
X81948293Y-76874787D01*
X81850022Y-76940450D01*
X81766450Y-77024022D01*
X81700787Y-77122293D01*
X81655558Y-77231486D01*
X81632500Y-77347405D01*
X81632500Y-77441500D01*
X81601905Y-77441500D01*
X81485986Y-77464558D01*
X81376793Y-77509787D01*
X81278522Y-77575450D01*
X81194950Y-77659022D01*
X81129287Y-77757293D01*
X81084058Y-77866486D01*
X81061000Y-77982405D01*
X78746259Y-77982405D01*
X78762678Y-77942767D01*
X78791500Y-77797869D01*
X78791500Y-77650131D01*
X78762678Y-77505233D01*
X78706141Y-77368742D01*
X78624063Y-77245903D01*
X78519597Y-77141437D01*
X78396758Y-77059359D01*
X78260267Y-77002822D01*
X78115369Y-76974000D01*
X77967631Y-76974000D01*
X77822733Y-77002822D01*
X77686242Y-77059359D01*
X77563403Y-77141437D01*
X77458937Y-77245903D01*
X77376859Y-77368742D01*
X77320322Y-77505233D01*
X77291500Y-77650131D01*
X73005447Y-77650131D01*
X73203715Y-77451863D01*
X73373308Y-77198049D01*
X73490126Y-76916025D01*
X73549680Y-76616630D01*
X73549680Y-76311370D01*
X73490126Y-76011975D01*
X73373308Y-75729951D01*
X73203715Y-75476137D01*
X72987863Y-75260285D01*
X72734049Y-75090692D01*
X72452025Y-74973874D01*
X72152630Y-74914320D01*
X71847370Y-74914320D01*
X71547975Y-74973874D01*
X71265951Y-75090692D01*
X71012137Y-75260285D01*
X70796285Y-75476137D01*
X70626692Y-75729951D01*
X70509874Y-76011975D01*
X70450320Y-76311370D01*
X70325000Y-76311370D01*
X70325000Y-74807405D01*
X73060000Y-74807405D01*
X73060000Y-74925595D01*
X73083058Y-75041514D01*
X73128287Y-75150707D01*
X73193950Y-75248978D01*
X73277522Y-75332550D01*
X73375793Y-75398213D01*
X73484986Y-75443442D01*
X73600905Y-75466500D01*
X73719095Y-75466500D01*
X73835014Y-75443442D01*
X73944207Y-75398213D01*
X74042478Y-75332550D01*
X74126050Y-75248978D01*
X74191713Y-75150707D01*
X74236942Y-75041514D01*
X74260000Y-74925595D01*
X74260000Y-74807405D01*
X74236942Y-74691486D01*
X74191713Y-74582293D01*
X74188107Y-74576896D01*
X74198207Y-74572713D01*
X74296478Y-74507050D01*
X74380050Y-74423478D01*
X74445713Y-74325207D01*
X74490942Y-74216014D01*
X74514000Y-74100095D01*
X74514000Y-73981905D01*
X74490942Y-73865986D01*
X74445713Y-73756793D01*
X74380050Y-73658522D01*
X74296478Y-73574950D01*
X74198207Y-73509287D01*
X74089014Y-73464058D01*
X73973095Y-73441000D01*
X73854905Y-73441000D01*
X73738986Y-73464058D01*
X73629793Y-73509287D01*
X73531522Y-73574950D01*
X73447950Y-73658522D01*
X73382287Y-73756793D01*
X73337058Y-73865986D01*
X73314000Y-73981905D01*
X73314000Y-74100095D01*
X73337058Y-74216014D01*
X73382287Y-74325207D01*
X73385893Y-74330604D01*
X73375793Y-74334787D01*
X73277522Y-74400450D01*
X73193950Y-74484022D01*
X73128287Y-74582293D01*
X73083058Y-74691486D01*
X73060000Y-74807405D01*
X70325000Y-74807405D01*
X70325000Y-71886405D01*
X75854000Y-71886405D01*
X75854000Y-72004595D01*
X75877058Y-72120514D01*
X75922287Y-72229707D01*
X75987950Y-72327978D01*
X76071522Y-72411550D01*
X76169793Y-72477213D01*
X76278986Y-72522442D01*
X76394905Y-72545500D01*
X76513095Y-72545500D01*
X76629014Y-72522442D01*
X76738207Y-72477213D01*
X76836478Y-72411550D01*
X76920050Y-72327978D01*
X76985713Y-72229707D01*
X77030942Y-72120514D01*
X77054000Y-72004595D01*
X77054000Y-71886405D01*
X77030942Y-71770486D01*
X76985713Y-71661293D01*
X76920050Y-71563022D01*
X76836478Y-71479450D01*
X76738207Y-71413787D01*
X76629014Y-71368558D01*
X76513095Y-71345500D01*
X76394905Y-71345500D01*
X76278986Y-71368558D01*
X76169793Y-71413787D01*
X76071522Y-71479450D01*
X75987950Y-71563022D01*
X75922287Y-71661293D01*
X75877058Y-71770486D01*
X75854000Y-71886405D01*
X70325000Y-71886405D01*
X70325000Y-71015953D01*
X70326571Y-71000000D01*
X70325000Y-70984047D01*
X70325000Y-70984039D01*
X70320297Y-70936289D01*
X70301713Y-70875026D01*
X70271535Y-70818566D01*
X70254408Y-70797697D01*
X70241096Y-70781476D01*
X70241092Y-70781472D01*
X70230921Y-70769079D01*
X70218528Y-70758908D01*
X70139525Y-70679905D01*
X71218500Y-70679905D01*
X71218500Y-70798095D01*
X71241558Y-70914014D01*
X71286787Y-71023207D01*
X71352450Y-71121478D01*
X71436022Y-71205050D01*
X71534293Y-71270713D01*
X71643486Y-71315942D01*
X71759405Y-71339000D01*
X71877595Y-71339000D01*
X71993514Y-71315942D01*
X72102707Y-71270713D01*
X72200978Y-71205050D01*
X72284550Y-71121478D01*
X72350213Y-71023207D01*
X72395442Y-70914014D01*
X72418500Y-70798095D01*
X72418500Y-70679905D01*
X72395442Y-70563986D01*
X72350213Y-70454793D01*
X72284550Y-70356522D01*
X72200978Y-70272950D01*
X72102707Y-70207287D01*
X71993514Y-70162058D01*
X71877595Y-70139000D01*
X71759405Y-70139000D01*
X71643486Y-70162058D01*
X71534293Y-70207287D01*
X71436022Y-70272950D01*
X71352450Y-70356522D01*
X71286787Y-70454793D01*
X71241558Y-70563986D01*
X71218500Y-70679905D01*
X70139525Y-70679905D01*
X68869525Y-69409905D01*
X76933500Y-69409905D01*
X76933500Y-69528095D01*
X76956558Y-69644014D01*
X77001787Y-69753207D01*
X77067450Y-69851478D01*
X77151022Y-69935050D01*
X77249293Y-70000713D01*
X77358486Y-70045942D01*
X77474405Y-70069000D01*
X77592595Y-70069000D01*
X77708514Y-70045942D01*
X77817707Y-70000713D01*
X77915978Y-69935050D01*
X77999550Y-69851478D01*
X78065213Y-69753207D01*
X78110442Y-69644014D01*
X78131747Y-69536905D01*
X80934000Y-69536905D01*
X80934000Y-69655095D01*
X80957058Y-69771014D01*
X81002287Y-69880207D01*
X81067950Y-69978478D01*
X81151522Y-70062050D01*
X81249793Y-70127713D01*
X81358986Y-70172942D01*
X81474905Y-70196000D01*
X81593095Y-70196000D01*
X81709014Y-70172942D01*
X81818207Y-70127713D01*
X81916478Y-70062050D01*
X82000050Y-69978478D01*
X82065713Y-69880207D01*
X82110942Y-69771014D01*
X82134000Y-69655095D01*
X82134000Y-69536905D01*
X82110942Y-69420986D01*
X82065713Y-69311793D01*
X82000050Y-69213522D01*
X81916478Y-69129950D01*
X81818207Y-69064287D01*
X81709014Y-69019058D01*
X81593095Y-68996000D01*
X81474905Y-68996000D01*
X81358986Y-69019058D01*
X81249793Y-69064287D01*
X81151522Y-69129950D01*
X81067950Y-69213522D01*
X81002287Y-69311793D01*
X80957058Y-69420986D01*
X80934000Y-69536905D01*
X78131747Y-69536905D01*
X78133500Y-69528095D01*
X78133500Y-69409905D01*
X78110442Y-69293986D01*
X78065213Y-69184793D01*
X77999550Y-69086522D01*
X77915978Y-69002950D01*
X77817707Y-68937287D01*
X77708514Y-68892058D01*
X77683745Y-68887131D01*
X85419500Y-68887131D01*
X85419500Y-69034869D01*
X85448322Y-69179767D01*
X85504859Y-69316258D01*
X85586937Y-69439097D01*
X85691403Y-69543563D01*
X85814242Y-69625641D01*
X85950733Y-69682178D01*
X86095631Y-69711000D01*
X86243369Y-69711000D01*
X86388267Y-69682178D01*
X86524758Y-69625641D01*
X86647597Y-69543563D01*
X86752063Y-69439097D01*
X86834141Y-69316258D01*
X86890678Y-69179767D01*
X86919500Y-69034869D01*
X86919500Y-68887131D01*
X86890678Y-68742233D01*
X86834141Y-68605742D01*
X86752063Y-68482903D01*
X86647597Y-68378437D01*
X86524758Y-68296359D01*
X86388267Y-68239822D01*
X86243369Y-68211000D01*
X86095631Y-68211000D01*
X85950733Y-68239822D01*
X85814242Y-68296359D01*
X85691403Y-68378437D01*
X85586937Y-68482903D01*
X85504859Y-68605742D01*
X85448322Y-68742233D01*
X85419500Y-68887131D01*
X77683745Y-68887131D01*
X77592595Y-68869000D01*
X77474405Y-68869000D01*
X77358486Y-68892058D01*
X77249293Y-68937287D01*
X77151022Y-69002950D01*
X77067450Y-69086522D01*
X77001787Y-69184793D01*
X76956558Y-69293986D01*
X76933500Y-69409905D01*
X68869525Y-69409905D01*
X67325000Y-67865382D01*
X67325000Y-67695405D01*
X76362000Y-67695405D01*
X76362000Y-67813595D01*
X76385058Y-67929514D01*
X76430287Y-68038707D01*
X76495950Y-68136978D01*
X76579522Y-68220550D01*
X76677793Y-68286213D01*
X76786986Y-68331442D01*
X76902905Y-68354500D01*
X77021095Y-68354500D01*
X77137014Y-68331442D01*
X77246207Y-68286213D01*
X77344478Y-68220550D01*
X77428050Y-68136978D01*
X77493713Y-68038707D01*
X77538942Y-67929514D01*
X77562000Y-67813595D01*
X77562000Y-67695405D01*
X77538942Y-67579486D01*
X77493713Y-67470293D01*
X77428050Y-67372022D01*
X77419159Y-67363131D01*
X85419500Y-67363131D01*
X85419500Y-67510869D01*
X85448322Y-67655767D01*
X85504859Y-67792258D01*
X85586937Y-67915097D01*
X85691403Y-68019563D01*
X85814242Y-68101641D01*
X85950733Y-68158178D01*
X86095631Y-68187000D01*
X86243369Y-68187000D01*
X86388267Y-68158178D01*
X86524758Y-68101641D01*
X86647597Y-68019563D01*
X86752063Y-67915097D01*
X86834141Y-67792258D01*
X86890678Y-67655767D01*
X86919500Y-67510869D01*
X86919500Y-67363131D01*
X86890678Y-67218233D01*
X86834141Y-67081742D01*
X86752063Y-66958903D01*
X86647597Y-66854437D01*
X86524758Y-66772359D01*
X86388267Y-66715822D01*
X86243369Y-66687000D01*
X86095631Y-66687000D01*
X85950733Y-66715822D01*
X85814242Y-66772359D01*
X85691403Y-66854437D01*
X85586937Y-66958903D01*
X85504859Y-67081742D01*
X85448322Y-67218233D01*
X85419500Y-67363131D01*
X77419159Y-67363131D01*
X77344478Y-67288450D01*
X77246207Y-67222787D01*
X77137014Y-67177558D01*
X77021095Y-67154500D01*
X76902905Y-67154500D01*
X76786986Y-67177558D01*
X76677793Y-67222787D01*
X76579522Y-67288450D01*
X76495950Y-67372022D01*
X76430287Y-67470293D01*
X76385058Y-67579486D01*
X76362000Y-67695405D01*
X67325000Y-67695405D01*
X67325000Y-65663405D01*
X87030000Y-65663405D01*
X87030000Y-65781595D01*
X87053058Y-65897514D01*
X87098287Y-66006707D01*
X87163950Y-66104978D01*
X87247522Y-66188550D01*
X87345793Y-66254213D01*
X87454986Y-66299442D01*
X87570905Y-66322500D01*
X87689095Y-66322500D01*
X87805014Y-66299442D01*
X87914207Y-66254213D01*
X88012478Y-66188550D01*
X88096050Y-66104978D01*
X88161713Y-66006707D01*
X88206942Y-65897514D01*
X88230000Y-65781595D01*
X88230000Y-65663405D01*
X88206942Y-65547486D01*
X88161713Y-65438293D01*
X88096050Y-65340022D01*
X88012478Y-65256450D01*
X87914207Y-65190787D01*
X87805014Y-65145558D01*
X87689095Y-65122500D01*
X87570905Y-65122500D01*
X87454986Y-65145558D01*
X87345793Y-65190787D01*
X87247522Y-65256450D01*
X87163950Y-65340022D01*
X87098287Y-65438293D01*
X87053058Y-65547486D01*
X87030000Y-65663405D01*
X67325000Y-65663405D01*
X67325000Y-64197971D01*
X67605000Y-64197971D01*
X67605000Y-64390029D01*
X67642468Y-64578397D01*
X67715966Y-64755836D01*
X67822668Y-64915527D01*
X67958473Y-65051332D01*
X68118164Y-65158034D01*
X68295603Y-65231532D01*
X68483971Y-65269000D01*
X68676029Y-65269000D01*
X68864397Y-65231532D01*
X69041836Y-65158034D01*
X69201527Y-65051332D01*
X69337332Y-64915527D01*
X69444034Y-64755836D01*
X69517532Y-64578397D01*
X69555000Y-64390029D01*
X69555000Y-64197971D01*
X69517532Y-64009603D01*
X69444034Y-63832164D01*
X69394750Y-63758405D01*
X76552500Y-63758405D01*
X76552500Y-63876595D01*
X76575558Y-63992514D01*
X76620787Y-64101707D01*
X76686450Y-64199978D01*
X76770022Y-64283550D01*
X76868293Y-64349213D01*
X76977486Y-64394442D01*
X77093405Y-64417500D01*
X77211595Y-64417500D01*
X77327514Y-64394442D01*
X77436707Y-64349213D01*
X77505000Y-64303581D01*
X77505000Y-64321095D01*
X77528058Y-64437014D01*
X77573287Y-64546207D01*
X77638950Y-64644478D01*
X77722522Y-64728050D01*
X77820793Y-64793713D01*
X77929986Y-64838942D01*
X78045905Y-64862000D01*
X78164095Y-64862000D01*
X78280014Y-64838942D01*
X78389207Y-64793713D01*
X78487478Y-64728050D01*
X78571050Y-64644478D01*
X78636713Y-64546207D01*
X78681942Y-64437014D01*
X78705000Y-64321095D01*
X78705000Y-64202905D01*
X78681942Y-64086986D01*
X78636713Y-63977793D01*
X78571050Y-63879522D01*
X78487478Y-63795950D01*
X78431289Y-63758405D01*
X82648500Y-63758405D01*
X82648500Y-63876595D01*
X82671558Y-63992514D01*
X82716787Y-64101707D01*
X82782450Y-64199978D01*
X82866022Y-64283550D01*
X82964293Y-64349213D01*
X83073486Y-64394442D01*
X83189405Y-64417500D01*
X83307595Y-64417500D01*
X83423514Y-64394442D01*
X83532707Y-64349213D01*
X83630978Y-64283550D01*
X83714550Y-64199978D01*
X83780213Y-64101707D01*
X83825442Y-63992514D01*
X83848500Y-63876595D01*
X83848500Y-63758405D01*
X83825442Y-63642486D01*
X83780213Y-63533293D01*
X83714550Y-63435022D01*
X83630978Y-63351450D01*
X83532707Y-63285787D01*
X83423514Y-63240558D01*
X83307595Y-63217500D01*
X83189405Y-63217500D01*
X83073486Y-63240558D01*
X82964293Y-63285787D01*
X82866022Y-63351450D01*
X82782450Y-63435022D01*
X82716787Y-63533293D01*
X82671558Y-63642486D01*
X82648500Y-63758405D01*
X78431289Y-63758405D01*
X78389207Y-63730287D01*
X78280014Y-63685058D01*
X78164095Y-63662000D01*
X78045905Y-63662000D01*
X77929986Y-63685058D01*
X77820793Y-63730287D01*
X77752500Y-63775919D01*
X77752500Y-63758405D01*
X77729442Y-63642486D01*
X77684213Y-63533293D01*
X77618550Y-63435022D01*
X77534978Y-63351450D01*
X77436707Y-63285787D01*
X77327514Y-63240558D01*
X77211595Y-63217500D01*
X77093405Y-63217500D01*
X76977486Y-63240558D01*
X76868293Y-63285787D01*
X76770022Y-63351450D01*
X76686450Y-63435022D01*
X76620787Y-63533293D01*
X76575558Y-63642486D01*
X76552500Y-63758405D01*
X69394750Y-63758405D01*
X69337332Y-63672473D01*
X69201527Y-63536668D01*
X69041836Y-63429966D01*
X68864397Y-63356468D01*
X68676029Y-63319000D01*
X68483971Y-63319000D01*
X68295603Y-63356468D01*
X68118164Y-63429966D01*
X67958473Y-63536668D01*
X67822668Y-63672473D01*
X67715966Y-63832164D01*
X67642468Y-64009603D01*
X67605000Y-64197971D01*
X67325000Y-64197971D01*
X67325000Y-62197971D01*
X67605000Y-62197971D01*
X67605000Y-62390029D01*
X67642468Y-62578397D01*
X67715966Y-62755836D01*
X67822668Y-62915527D01*
X67958473Y-63051332D01*
X68118164Y-63158034D01*
X68295603Y-63231532D01*
X68483971Y-63269000D01*
X68676029Y-63269000D01*
X68864397Y-63231532D01*
X69041836Y-63158034D01*
X69093662Y-63123405D01*
X91411500Y-63123405D01*
X91411500Y-63241595D01*
X91434558Y-63357514D01*
X91479787Y-63466707D01*
X91545450Y-63564978D01*
X91629022Y-63648550D01*
X91727293Y-63714213D01*
X91836486Y-63759442D01*
X91952405Y-63782500D01*
X92070595Y-63782500D01*
X92186514Y-63759442D01*
X92295707Y-63714213D01*
X92393978Y-63648550D01*
X92477550Y-63564978D01*
X92543213Y-63466707D01*
X92588442Y-63357514D01*
X92611500Y-63241595D01*
X92611500Y-63123405D01*
X92588442Y-63007486D01*
X92543213Y-62898293D01*
X92477550Y-62800022D01*
X92393978Y-62716450D01*
X92295707Y-62650787D01*
X92186514Y-62605558D01*
X92070595Y-62582500D01*
X91952405Y-62582500D01*
X91836486Y-62605558D01*
X91727293Y-62650787D01*
X91629022Y-62716450D01*
X91545450Y-62800022D01*
X91479787Y-62898293D01*
X91434558Y-63007486D01*
X91411500Y-63123405D01*
X69093662Y-63123405D01*
X69201527Y-63051332D01*
X69337332Y-62915527D01*
X69444034Y-62755836D01*
X69517532Y-62578397D01*
X69555000Y-62390029D01*
X69555000Y-62197971D01*
X69517532Y-62009603D01*
X69444034Y-61832164D01*
X69337332Y-61672473D01*
X69201527Y-61536668D01*
X69041836Y-61429966D01*
X68864397Y-61356468D01*
X68676029Y-61319000D01*
X68483971Y-61319000D01*
X68295603Y-61356468D01*
X68118164Y-61429966D01*
X67958473Y-61536668D01*
X67822668Y-61672473D01*
X67715966Y-61832164D01*
X67642468Y-62009603D01*
X67605000Y-62197971D01*
X67325000Y-62197971D01*
X67325000Y-60197971D01*
X67605000Y-60197971D01*
X67605000Y-60390029D01*
X67642468Y-60578397D01*
X67715966Y-60755836D01*
X67822668Y-60915527D01*
X67958473Y-61051332D01*
X68118164Y-61158034D01*
X68295603Y-61231532D01*
X68483971Y-61269000D01*
X68676029Y-61269000D01*
X68864397Y-61231532D01*
X69041836Y-61158034D01*
X69201527Y-61051332D01*
X69337332Y-60915527D01*
X69444034Y-60755836D01*
X69517532Y-60578397D01*
X69555000Y-60390029D01*
X69555000Y-60197971D01*
X69517532Y-60009603D01*
X69444034Y-59832164D01*
X69337332Y-59672473D01*
X69201527Y-59536668D01*
X69041836Y-59429966D01*
X68864397Y-59356468D01*
X68676029Y-59319000D01*
X68483971Y-59319000D01*
X68295603Y-59356468D01*
X68118164Y-59429966D01*
X67958473Y-59536668D01*
X67822668Y-59672473D01*
X67715966Y-59832164D01*
X67642468Y-60009603D01*
X67605000Y-60197971D01*
X67325000Y-60197971D01*
X67325000Y-59313405D01*
X71599500Y-59313405D01*
X71599500Y-59431595D01*
X71622558Y-59547514D01*
X71667787Y-59656707D01*
X71733450Y-59754978D01*
X71817022Y-59838550D01*
X71915293Y-59904213D01*
X72024486Y-59949442D01*
X72140405Y-59972500D01*
X72258595Y-59972500D01*
X72374514Y-59949442D01*
X72483707Y-59904213D01*
X72581978Y-59838550D01*
X72665550Y-59754978D01*
X72706023Y-59694405D01*
X83537500Y-59694405D01*
X83537500Y-59812595D01*
X83560558Y-59928514D01*
X83605787Y-60037707D01*
X83671450Y-60135978D01*
X83755022Y-60219550D01*
X83853293Y-60285213D01*
X83962486Y-60330442D01*
X84078405Y-60353500D01*
X84196595Y-60353500D01*
X84252947Y-60342291D01*
X84259058Y-60373014D01*
X84304287Y-60482207D01*
X84369950Y-60580478D01*
X84453522Y-60664050D01*
X84551793Y-60729713D01*
X84660986Y-60774942D01*
X84776905Y-60798000D01*
X84895095Y-60798000D01*
X85011014Y-60774942D01*
X85120207Y-60729713D01*
X85218478Y-60664050D01*
X85302050Y-60580478D01*
X85367713Y-60482207D01*
X85412942Y-60373014D01*
X85436000Y-60257095D01*
X85436000Y-60138905D01*
X85412942Y-60022986D01*
X85367713Y-59913793D01*
X85302050Y-59815522D01*
X85263528Y-59777000D01*
X90717549Y-59777000D01*
X90717549Y-61127000D01*
X90723341Y-61185810D01*
X90740496Y-61242360D01*
X90768353Y-61294477D01*
X90805842Y-61340158D01*
X90851523Y-61377647D01*
X90903640Y-61405504D01*
X90960190Y-61422659D01*
X91019000Y-61428451D01*
X92369000Y-61428451D01*
X92427810Y-61422659D01*
X92484360Y-61405504D01*
X92536477Y-61377647D01*
X92582158Y-61340158D01*
X92619647Y-61294477D01*
X92647504Y-61242360D01*
X92664659Y-61185810D01*
X92670451Y-61127000D01*
X92670451Y-59777000D01*
X92664659Y-59718190D01*
X92647504Y-59661640D01*
X92619647Y-59609523D01*
X92582158Y-59563842D01*
X92536477Y-59526353D01*
X92484360Y-59498496D01*
X92427810Y-59481341D01*
X92369000Y-59475549D01*
X91019000Y-59475549D01*
X90960190Y-59481341D01*
X90903640Y-59498496D01*
X90851523Y-59526353D01*
X90805842Y-59563842D01*
X90768353Y-59609523D01*
X90740496Y-59661640D01*
X90723341Y-59718190D01*
X90717549Y-59777000D01*
X85263528Y-59777000D01*
X85218478Y-59731950D01*
X85120207Y-59666287D01*
X85011014Y-59621058D01*
X84895095Y-59598000D01*
X84776905Y-59598000D01*
X84720553Y-59609209D01*
X84714442Y-59578486D01*
X84669213Y-59469293D01*
X84603550Y-59371022D01*
X84519978Y-59287450D01*
X84421707Y-59221787D01*
X84312514Y-59176558D01*
X84196595Y-59153500D01*
X84078405Y-59153500D01*
X83962486Y-59176558D01*
X83853293Y-59221787D01*
X83755022Y-59287450D01*
X83671450Y-59371022D01*
X83605787Y-59469293D01*
X83560558Y-59578486D01*
X83537500Y-59694405D01*
X72706023Y-59694405D01*
X72731213Y-59656707D01*
X72776442Y-59547514D01*
X72799500Y-59431595D01*
X72799500Y-59313405D01*
X72776442Y-59197486D01*
X72731213Y-59088293D01*
X72665550Y-58990022D01*
X72581978Y-58906450D01*
X72483707Y-58840787D01*
X72374514Y-58795558D01*
X72258595Y-58772500D01*
X72140405Y-58772500D01*
X72024486Y-58795558D01*
X71915293Y-58840787D01*
X71817022Y-58906450D01*
X71733450Y-58990022D01*
X71667787Y-59088293D01*
X71622558Y-59197486D01*
X71599500Y-59313405D01*
X67325000Y-59313405D01*
X67325000Y-58134618D01*
X67416213Y-58043405D01*
X71599500Y-58043405D01*
X71599500Y-58161595D01*
X71622558Y-58277514D01*
X71667787Y-58386707D01*
X71733450Y-58484978D01*
X71817022Y-58568550D01*
X71915293Y-58634213D01*
X72024486Y-58679442D01*
X72140405Y-58702500D01*
X72258595Y-58702500D01*
X72374514Y-58679442D01*
X72483707Y-58634213D01*
X72581978Y-58568550D01*
X72665550Y-58484978D01*
X72731213Y-58386707D01*
X72743944Y-58355971D01*
X90719000Y-58355971D01*
X90719000Y-58548029D01*
X90756468Y-58736397D01*
X90829966Y-58913836D01*
X90936668Y-59073527D01*
X91072473Y-59209332D01*
X91232164Y-59316034D01*
X91409603Y-59389532D01*
X91597971Y-59427000D01*
X91790029Y-59427000D01*
X91978397Y-59389532D01*
X92155836Y-59316034D01*
X92315527Y-59209332D01*
X92451332Y-59073527D01*
X92558034Y-58913836D01*
X92631532Y-58736397D01*
X92669000Y-58548029D01*
X92669000Y-58355971D01*
X92631532Y-58167603D01*
X92558034Y-57990164D01*
X92451332Y-57830473D01*
X92315527Y-57694668D01*
X92155836Y-57587966D01*
X91978397Y-57514468D01*
X91790029Y-57477000D01*
X91597971Y-57477000D01*
X91409603Y-57514468D01*
X91232164Y-57587966D01*
X91072473Y-57694668D01*
X90936668Y-57830473D01*
X90829966Y-57990164D01*
X90756468Y-58167603D01*
X90719000Y-58355971D01*
X72743944Y-58355971D01*
X72776442Y-58277514D01*
X72799500Y-58161595D01*
X72799500Y-58043405D01*
X72776442Y-57927486D01*
X72731213Y-57818293D01*
X72665550Y-57720022D01*
X72581978Y-57636450D01*
X72483707Y-57570787D01*
X72374514Y-57525558D01*
X72258595Y-57502500D01*
X72140405Y-57502500D01*
X72024486Y-57525558D01*
X71915293Y-57570787D01*
X71817022Y-57636450D01*
X71733450Y-57720022D01*
X71667787Y-57818293D01*
X71622558Y-57927486D01*
X71599500Y-58043405D01*
X67416213Y-58043405D01*
X68686213Y-56773405D01*
X71599500Y-56773405D01*
X71599500Y-56891595D01*
X71622558Y-57007514D01*
X71667787Y-57116707D01*
X71733450Y-57214978D01*
X71817022Y-57298550D01*
X71915293Y-57364213D01*
X72024486Y-57409442D01*
X72140405Y-57432500D01*
X72258595Y-57432500D01*
X72374514Y-57409442D01*
X72483707Y-57364213D01*
X72581978Y-57298550D01*
X72665550Y-57214978D01*
X72731213Y-57116707D01*
X72776442Y-57007514D01*
X72799500Y-56891595D01*
X72799500Y-56773405D01*
X72798009Y-56765905D01*
X87900000Y-56765905D01*
X87900000Y-56884095D01*
X87923058Y-57000014D01*
X87968287Y-57109207D01*
X88033950Y-57207478D01*
X88117522Y-57291050D01*
X88215793Y-57356713D01*
X88324986Y-57401942D01*
X88440905Y-57425000D01*
X88559095Y-57425000D01*
X88675014Y-57401942D01*
X88784207Y-57356713D01*
X88882478Y-57291050D01*
X88966050Y-57207478D01*
X89031713Y-57109207D01*
X89076942Y-57000014D01*
X89100000Y-56884095D01*
X89100000Y-56765905D01*
X89076942Y-56649986D01*
X89031713Y-56540793D01*
X88966050Y-56442522D01*
X88882478Y-56358950D01*
X88784207Y-56293287D01*
X88675014Y-56248058D01*
X88559095Y-56225000D01*
X88440905Y-56225000D01*
X88324986Y-56248058D01*
X88215793Y-56293287D01*
X88117522Y-56358950D01*
X88033950Y-56442522D01*
X87968287Y-56540793D01*
X87923058Y-56649986D01*
X87900000Y-56765905D01*
X72798009Y-56765905D01*
X72776442Y-56657486D01*
X72731213Y-56548293D01*
X72665550Y-56450022D01*
X72581978Y-56366450D01*
X72483707Y-56300787D01*
X72374514Y-56255558D01*
X72258595Y-56232500D01*
X72140405Y-56232500D01*
X72024486Y-56255558D01*
X71915293Y-56300787D01*
X71817022Y-56366450D01*
X71733450Y-56450022D01*
X71667787Y-56548293D01*
X71622558Y-56657486D01*
X71599500Y-56773405D01*
X68686213Y-56773405D01*
X69956214Y-55503405D01*
X87093500Y-55503405D01*
X87093500Y-55621595D01*
X87116558Y-55737514D01*
X87161787Y-55846707D01*
X87227450Y-55944978D01*
X87311022Y-56028550D01*
X87409293Y-56094213D01*
X87518486Y-56139442D01*
X87634405Y-56162500D01*
X87752595Y-56162500D01*
X87868514Y-56139442D01*
X87977707Y-56094213D01*
X88075978Y-56028550D01*
X88159550Y-55944978D01*
X88225213Y-55846707D01*
X88270442Y-55737514D01*
X88293500Y-55621595D01*
X88293500Y-55503405D01*
X88270442Y-55387486D01*
X88225213Y-55278293D01*
X88159550Y-55180022D01*
X88075978Y-55096450D01*
X87977707Y-55030787D01*
X87868514Y-54985558D01*
X87752595Y-54962500D01*
X87634405Y-54962500D01*
X87518486Y-54985558D01*
X87409293Y-55030787D01*
X87311022Y-55096450D01*
X87227450Y-55180022D01*
X87161787Y-55278293D01*
X87116558Y-55387486D01*
X87093500Y-55503405D01*
X69956214Y-55503405D01*
X70218529Y-55241091D01*
X70230921Y-55230921D01*
X70241092Y-55218528D01*
X70241096Y-55218524D01*
X70254408Y-55202303D01*
X70271535Y-55181434D01*
X70301713Y-55124974D01*
X70320297Y-55063711D01*
X70325000Y-55015961D01*
X70325000Y-55015953D01*
X70326571Y-55000000D01*
X70325000Y-54984047D01*
X70325000Y-54233405D01*
X87093500Y-54233405D01*
X87093500Y-54351595D01*
X87116558Y-54467514D01*
X87161787Y-54576707D01*
X87227450Y-54674978D01*
X87311022Y-54758550D01*
X87409293Y-54824213D01*
X87518486Y-54869442D01*
X87634405Y-54892500D01*
X87752595Y-54892500D01*
X87868514Y-54869442D01*
X87977707Y-54824213D01*
X88075978Y-54758550D01*
X88159550Y-54674978D01*
X88225213Y-54576707D01*
X88270442Y-54467514D01*
X88293500Y-54351595D01*
X88293500Y-54233405D01*
X88270442Y-54117486D01*
X88225213Y-54008293D01*
X88159550Y-53910022D01*
X88075978Y-53826450D01*
X87977707Y-53760787D01*
X87868514Y-53715558D01*
X87752595Y-53692500D01*
X87634405Y-53692500D01*
X87518486Y-53715558D01*
X87409293Y-53760787D01*
X87311022Y-53826450D01*
X87227450Y-53910022D01*
X87161787Y-54008293D01*
X87116558Y-54117486D01*
X87093500Y-54233405D01*
X70325000Y-54233405D01*
X70325000Y-52963405D01*
X71599500Y-52963405D01*
X71599500Y-53081595D01*
X71622558Y-53197514D01*
X71667787Y-53306707D01*
X71733450Y-53404978D01*
X71817022Y-53488550D01*
X71915293Y-53554213D01*
X72024486Y-53599442D01*
X72140405Y-53622500D01*
X72258595Y-53622500D01*
X72374514Y-53599442D01*
X72483707Y-53554213D01*
X72581978Y-53488550D01*
X72665550Y-53404978D01*
X72731213Y-53306707D01*
X72776442Y-53197514D01*
X72799500Y-53081595D01*
X72799500Y-52963405D01*
X87093500Y-52963405D01*
X87093500Y-53081595D01*
X87116558Y-53197514D01*
X87161787Y-53306707D01*
X87227450Y-53404978D01*
X87311022Y-53488550D01*
X87409293Y-53554213D01*
X87518486Y-53599442D01*
X87634405Y-53622500D01*
X87752595Y-53622500D01*
X87868514Y-53599442D01*
X87977707Y-53554213D01*
X88075978Y-53488550D01*
X88159550Y-53404978D01*
X88225213Y-53306707D01*
X88270442Y-53197514D01*
X88293500Y-53081595D01*
X88293500Y-52963405D01*
X88270442Y-52847486D01*
X88225213Y-52738293D01*
X88159550Y-52640022D01*
X88075978Y-52556450D01*
X87977707Y-52490787D01*
X87868514Y-52445558D01*
X87752595Y-52422500D01*
X87634405Y-52422500D01*
X87518486Y-52445558D01*
X87409293Y-52490787D01*
X87311022Y-52556450D01*
X87227450Y-52640022D01*
X87161787Y-52738293D01*
X87116558Y-52847486D01*
X87093500Y-52963405D01*
X72799500Y-52963405D01*
X72776442Y-52847486D01*
X72731213Y-52738293D01*
X72665550Y-52640022D01*
X72581978Y-52556450D01*
X72483707Y-52490787D01*
X72374514Y-52445558D01*
X72258595Y-52422500D01*
X72140405Y-52422500D01*
X72024486Y-52445558D01*
X71915293Y-52490787D01*
X71817022Y-52556450D01*
X71733450Y-52640022D01*
X71667787Y-52738293D01*
X71622558Y-52847486D01*
X71599500Y-52963405D01*
X70325000Y-52963405D01*
X70325000Y-51685905D01*
X87900000Y-51685905D01*
X87900000Y-51804095D01*
X87923058Y-51920014D01*
X87968287Y-52029207D01*
X88033950Y-52127478D01*
X88117522Y-52211050D01*
X88215793Y-52276713D01*
X88324986Y-52321942D01*
X88440905Y-52345000D01*
X88559095Y-52345000D01*
X88675014Y-52321942D01*
X88784207Y-52276713D01*
X88882478Y-52211050D01*
X88966050Y-52127478D01*
X89031713Y-52029207D01*
X89076942Y-51920014D01*
X89100000Y-51804095D01*
X89100000Y-51685905D01*
X89076942Y-51569986D01*
X89031713Y-51460793D01*
X88966050Y-51362522D01*
X88882478Y-51278950D01*
X88784207Y-51213287D01*
X88675014Y-51168058D01*
X88559095Y-51145000D01*
X88440905Y-51145000D01*
X88324986Y-51168058D01*
X88215793Y-51213287D01*
X88117522Y-51278950D01*
X88033950Y-51362522D01*
X87968287Y-51460793D01*
X87923058Y-51569986D01*
X87900000Y-51685905D01*
X70325000Y-51685905D01*
X70325000Y-49583528D01*
X70356522Y-49615050D01*
X70454793Y-49680713D01*
X70563986Y-49725942D01*
X70679905Y-49749000D01*
X70798095Y-49749000D01*
X70914014Y-49725942D01*
X71023207Y-49680713D01*
X71121478Y-49615050D01*
X71205050Y-49531478D01*
X71270713Y-49433207D01*
X71315942Y-49324014D01*
X71339000Y-49208095D01*
X71339000Y-49089905D01*
X71315942Y-48973986D01*
X71311353Y-48962905D01*
X84172500Y-48962905D01*
X84172500Y-49081095D01*
X84195558Y-49197014D01*
X84240787Y-49306207D01*
X84306450Y-49404478D01*
X84390022Y-49488050D01*
X84488293Y-49553713D01*
X84597486Y-49598942D01*
X84713405Y-49622000D01*
X84831595Y-49622000D01*
X84947514Y-49598942D01*
X85056707Y-49553713D01*
X85154978Y-49488050D01*
X85238550Y-49404478D01*
X85304213Y-49306207D01*
X85349442Y-49197014D01*
X85372500Y-49081095D01*
X85372500Y-48962905D01*
X85349442Y-48846986D01*
X85304213Y-48737793D01*
X85238550Y-48639522D01*
X85154978Y-48555950D01*
X85056707Y-48490287D01*
X84947514Y-48445058D01*
X84831595Y-48422000D01*
X84713405Y-48422000D01*
X84597486Y-48445058D01*
X84488293Y-48490287D01*
X84390022Y-48555950D01*
X84306450Y-48639522D01*
X84240787Y-48737793D01*
X84195558Y-48846986D01*
X84172500Y-48962905D01*
X71311353Y-48962905D01*
X71270713Y-48864793D01*
X71205050Y-48766522D01*
X71121478Y-48682950D01*
X71023207Y-48617287D01*
X70914014Y-48572058D01*
X70798095Y-48549000D01*
X70679905Y-48549000D01*
X70563986Y-48572058D01*
X70454793Y-48617287D01*
X70356522Y-48682950D01*
X70325000Y-48714472D01*
X70325000Y-47565905D01*
X79283000Y-47565905D01*
X79283000Y-47684095D01*
X79306058Y-47800014D01*
X79351287Y-47909207D01*
X79416950Y-48007478D01*
X79500522Y-48091050D01*
X79598793Y-48156713D01*
X79707986Y-48201942D01*
X79823905Y-48225000D01*
X79942095Y-48225000D01*
X80058014Y-48201942D01*
X80167207Y-48156713D01*
X80265478Y-48091050D01*
X80349050Y-48007478D01*
X80414713Y-47909207D01*
X80459942Y-47800014D01*
X80483000Y-47684095D01*
X80483000Y-47565905D01*
X80459942Y-47449986D01*
X80421987Y-47358354D01*
X80478213Y-47274207D01*
X80523442Y-47165014D01*
X80546500Y-47049095D01*
X80546500Y-46930905D01*
X80523442Y-46814986D01*
X80478213Y-46705793D01*
X80412550Y-46607522D01*
X80328978Y-46523950D01*
X80230707Y-46458287D01*
X80121514Y-46413058D01*
X80005595Y-46390000D01*
X79887405Y-46390000D01*
X79771486Y-46413058D01*
X79662293Y-46458287D01*
X79564022Y-46523950D01*
X79480450Y-46607522D01*
X79414787Y-46705793D01*
X79369558Y-46814986D01*
X79346500Y-46930905D01*
X79346500Y-47049095D01*
X79369558Y-47165014D01*
X79407513Y-47256646D01*
X79351287Y-47340793D01*
X79306058Y-47449986D01*
X79283000Y-47565905D01*
X70325000Y-47565905D01*
X70325000Y-43921520D01*
X70448869Y-43921520D01*
X70448869Y-46420880D01*
X70454661Y-46479690D01*
X70471816Y-46536240D01*
X70499673Y-46588357D01*
X70537162Y-46634038D01*
X70582843Y-46671527D01*
X70634960Y-46699384D01*
X70691510Y-46716539D01*
X70750320Y-46722331D01*
X73249680Y-46722331D01*
X73308490Y-46716539D01*
X73365040Y-46699384D01*
X73417157Y-46671527D01*
X73462838Y-46634038D01*
X73500327Y-46588357D01*
X73528184Y-46536240D01*
X73545339Y-46479690D01*
X73551131Y-46420880D01*
X73551131Y-43921520D01*
X73545339Y-43862710D01*
X73528184Y-43806160D01*
X73500327Y-43754043D01*
X73462838Y-43708362D01*
X73417157Y-43670873D01*
X73365040Y-43643016D01*
X73308490Y-43625861D01*
X73249680Y-43620069D01*
X70750320Y-43620069D01*
X70691510Y-43625861D01*
X70634960Y-43643016D01*
X70582843Y-43670873D01*
X70537162Y-43708362D01*
X70499673Y-43754043D01*
X70471816Y-43806160D01*
X70454661Y-43862710D01*
X70448869Y-43921520D01*
X70325000Y-43921520D01*
X70325000Y-39949000D01*
X71359845Y-39949000D01*
X71265951Y-39987892D01*
G37*
X71265951Y-39987892D02*
X71012137Y-40157485D01*
X70796285Y-40373337D01*
X70626692Y-40627151D01*
X70509874Y-40909175D01*
X70450320Y-41208570D01*
X70450320Y-41513830D01*
X70509874Y-41813225D01*
X70626692Y-42095249D01*
X70796285Y-42349063D01*
X71012137Y-42564915D01*
X71265951Y-42734508D01*
X71547975Y-42851326D01*
X71847370Y-42910880D01*
X72152630Y-42910880D01*
X72423218Y-42857056D01*
X76643000Y-42857056D01*
X76643000Y-42994944D01*
X76669901Y-43130182D01*
X76722668Y-43257574D01*
X76799274Y-43372224D01*
X76896776Y-43469726D01*
X77011426Y-43546332D01*
X77138818Y-43599099D01*
X77152209Y-43601763D01*
X77130950Y-43623022D01*
X77065287Y-43721293D01*
X77020058Y-43830486D01*
X76997000Y-43946405D01*
X76997000Y-44064595D01*
X77020058Y-44180514D01*
X77065287Y-44289707D01*
X77130950Y-44387978D01*
X77214522Y-44471550D01*
X77312793Y-44537213D01*
X77421986Y-44582442D01*
X77537905Y-44605500D01*
X77656095Y-44605500D01*
X77772014Y-44582442D01*
X77881207Y-44537213D01*
X77977706Y-44472734D01*
X78026816Y-44521844D01*
X77976522Y-44555450D01*
X77892950Y-44639022D01*
X77827287Y-44737293D01*
X77782058Y-44846486D01*
X77759000Y-44962405D01*
X77759000Y-45080595D01*
X77782058Y-45196514D01*
X77827287Y-45305707D01*
X77892950Y-45403978D01*
X77976522Y-45487550D01*
X78064882Y-45546590D01*
X78057950Y-45553522D01*
X77992287Y-45651793D01*
X77947058Y-45760986D01*
X77924000Y-45876905D01*
X77924000Y-45995095D01*
X77947058Y-46111014D01*
X77992287Y-46220207D01*
X78057950Y-46318478D01*
X78141522Y-46402050D01*
X78239793Y-46467713D01*
X78348986Y-46512942D01*
X78464905Y-46536000D01*
X78583095Y-46536000D01*
X78699014Y-46512942D01*
X78808207Y-46467713D01*
X78906478Y-46402050D01*
X78990050Y-46318478D01*
X79055713Y-46220207D01*
X79100942Y-46111014D01*
X79124000Y-45995095D01*
X79124000Y-45876905D01*
X79100942Y-45760986D01*
X79055713Y-45651793D01*
X78990050Y-45553522D01*
X78906478Y-45469950D01*
X78818118Y-45410910D01*
X78825050Y-45403978D01*
X78890713Y-45305707D01*
X78935942Y-45196514D01*
X78959000Y-45080595D01*
X78959000Y-44962405D01*
X78935942Y-44846486D01*
X78890713Y-44737293D01*
X78861539Y-44693631D01*
X81482500Y-44693631D01*
X81482500Y-44841369D01*
X81511322Y-44986267D01*
X81567859Y-45122758D01*
X81649937Y-45245597D01*
X81754403Y-45350063D01*
X81877242Y-45432141D01*
X82013733Y-45488678D01*
X82158631Y-45517500D01*
X82306369Y-45517500D01*
X82451267Y-45488678D01*
X82587758Y-45432141D01*
X82710597Y-45350063D01*
X82815063Y-45245597D01*
X82897141Y-45122758D01*
X82944439Y-45008570D01*
X86450320Y-45008570D01*
X86450320Y-45313830D01*
X86509874Y-45613225D01*
X86626692Y-45895249D01*
X86796285Y-46149063D01*
X87012137Y-46364915D01*
X87265951Y-46534508D01*
X87547975Y-46651326D01*
X87847370Y-46710880D01*
X88152630Y-46710880D01*
X88452025Y-46651326D01*
X88734049Y-46534508D01*
X88987863Y-46364915D01*
X89203715Y-46149063D01*
X89373308Y-45895249D01*
X89490126Y-45613225D01*
X89549680Y-45313830D01*
X89549680Y-45008570D01*
X89490126Y-44709175D01*
X89373308Y-44427151D01*
X89203715Y-44173337D01*
X88987863Y-43957485D01*
X88734049Y-43787892D01*
X88452025Y-43671074D01*
X88152630Y-43611520D01*
X87847370Y-43611520D01*
X87547975Y-43671074D01*
X87265951Y-43787892D01*
X87012137Y-43957485D01*
X86796285Y-44173337D01*
X86626692Y-44427151D01*
X86509874Y-44709175D01*
X86450320Y-45008570D01*
X82944439Y-45008570D01*
X82953678Y-44986267D01*
X82982500Y-44841369D01*
X82982500Y-44693631D01*
X82953678Y-44548733D01*
X82897141Y-44412242D01*
X82815063Y-44289403D01*
X82710597Y-44184937D01*
X82599795Y-44110902D01*
X82643707Y-44092713D01*
X82741978Y-44027050D01*
X82825550Y-43943478D01*
X82891213Y-43845207D01*
X82936442Y-43736014D01*
X82959500Y-43620095D01*
X82959500Y-43501905D01*
X82936442Y-43385986D01*
X82898487Y-43294354D01*
X82954713Y-43210207D01*
X82999942Y-43101014D01*
X83023000Y-42985095D01*
X83023000Y-42866905D01*
X82999942Y-42750986D01*
X82954713Y-42641793D01*
X82889050Y-42543522D01*
X82805478Y-42459950D01*
X82707207Y-42394287D01*
X82598014Y-42349058D01*
X82482095Y-42326000D01*
X82363905Y-42326000D01*
X82247986Y-42349058D01*
X82138793Y-42394287D01*
X82040522Y-42459950D01*
X81956950Y-42543522D01*
X81891287Y-42641793D01*
X81846058Y-42750986D01*
X81823000Y-42866905D01*
X81823000Y-42985095D01*
X81846058Y-43101014D01*
X81884013Y-43192646D01*
X81827787Y-43276793D01*
X81782558Y-43385986D01*
X81759500Y-43501905D01*
X81759500Y-43620095D01*
X81782558Y-43736014D01*
X81827787Y-43845207D01*
X81893450Y-43943478D01*
X81977022Y-44027050D01*
X82008876Y-44048334D01*
X81877242Y-44102859D01*
X81754403Y-44184937D01*
X81649937Y-44289403D01*
X81567859Y-44412242D01*
X81511322Y-44548733D01*
X81482500Y-44693631D01*
X78861539Y-44693631D01*
X78825050Y-44639022D01*
X78754684Y-44568656D01*
X78804978Y-44535050D01*
X78888550Y-44451478D01*
X78954213Y-44353207D01*
X78999442Y-44244014D01*
X79022500Y-44128095D01*
X79022500Y-44009905D01*
X78999442Y-43893986D01*
X78954213Y-43784793D01*
X78888550Y-43686522D01*
X78804978Y-43602950D01*
X78706707Y-43537287D01*
X78597514Y-43492058D01*
X78481595Y-43469000D01*
X78363405Y-43469000D01*
X78247486Y-43492058D01*
X78138293Y-43537287D01*
X78041794Y-43601766D01*
X77979478Y-43539450D01*
X77881207Y-43473787D01*
X77813294Y-43445656D01*
X77886726Y-43372224D01*
X77963332Y-43257574D01*
X78016099Y-43130182D01*
X78043000Y-42994944D01*
X78043000Y-42857056D01*
X78016099Y-42721818D01*
X77963332Y-42594426D01*
X77886726Y-42479776D01*
X77789224Y-42382274D01*
X77674574Y-42305668D01*
X77547182Y-42252901D01*
X77411944Y-42226000D01*
X77274056Y-42226000D01*
X77138818Y-42252901D01*
X77011426Y-42305668D01*
X76896776Y-42382274D01*
X76799274Y-42479776D01*
X76722668Y-42594426D01*
X76669901Y-42721818D01*
X76643000Y-42857056D01*
X72423218Y-42857056D01*
X72452025Y-42851326D01*
X72734049Y-42734508D01*
X72987863Y-42564915D01*
X73203715Y-42349063D01*
X73373308Y-42095249D01*
X73490126Y-41813225D01*
X73549680Y-41513830D01*
X73549680Y-41208570D01*
X73518531Y-41051971D01*
X78190200Y-41051971D01*
X78190200Y-41244029D01*
X78227668Y-41432397D01*
X78301166Y-41609836D01*
X78407868Y-41769527D01*
X78543673Y-41905332D01*
X78703364Y-42012034D01*
X78880803Y-42085532D01*
X79069171Y-42123000D01*
X79261229Y-42123000D01*
X79449597Y-42085532D01*
X79627036Y-42012034D01*
X79786727Y-41905332D01*
X79922532Y-41769527D01*
X80029234Y-41609836D01*
X80102732Y-41432397D01*
X80140200Y-41244029D01*
X80140200Y-41051971D01*
X80190200Y-41051971D01*
X80190200Y-41244029D01*
X80227668Y-41432397D01*
X80301166Y-41609836D01*
X80407868Y-41769527D01*
X80543673Y-41905332D01*
X80703364Y-42012034D01*
X80880803Y-42085532D01*
X81069171Y-42123000D01*
X81261229Y-42123000D01*
X81449597Y-42085532D01*
X81627036Y-42012034D01*
X81786727Y-41905332D01*
X81922532Y-41769527D01*
X82029234Y-41609836D01*
X82102732Y-41432397D01*
X82140200Y-41244029D01*
X82140200Y-41051971D01*
X82190200Y-41051971D01*
X82190200Y-41244029D01*
X82227668Y-41432397D01*
X82301166Y-41609836D01*
X82407868Y-41769527D01*
X82543673Y-41905332D01*
X82703364Y-42012034D01*
X82880803Y-42085532D01*
X83069171Y-42123000D01*
X83261229Y-42123000D01*
X83449597Y-42085532D01*
X83627036Y-42012034D01*
X83786727Y-41905332D01*
X83922532Y-41769527D01*
X84029234Y-41609836D01*
X84102732Y-41432397D01*
X84140200Y-41244029D01*
X84140200Y-41051971D01*
X84102732Y-40863603D01*
X84029234Y-40686164D01*
X83922532Y-40526473D01*
X83786727Y-40390668D01*
X83627036Y-40283966D01*
X83449597Y-40210468D01*
X83261229Y-40173000D01*
X83069171Y-40173000D01*
X82880803Y-40210468D01*
X82703364Y-40283966D01*
X82543673Y-40390668D01*
X82407868Y-40526473D01*
X82301166Y-40686164D01*
X82227668Y-40863603D01*
X82190200Y-41051971D01*
X82140200Y-41051971D01*
X82102732Y-40863603D01*
X82029234Y-40686164D01*
X81922532Y-40526473D01*
X81786727Y-40390668D01*
X81627036Y-40283966D01*
X81449597Y-40210468D01*
X81261229Y-40173000D01*
X81069171Y-40173000D01*
X80880803Y-40210468D01*
X80703364Y-40283966D01*
X80543673Y-40390668D01*
X80407868Y-40526473D01*
X80301166Y-40686164D01*
X80227668Y-40863603D01*
X80190200Y-41051971D01*
X80140200Y-41051971D01*
X80102732Y-40863603D01*
X80029234Y-40686164D01*
X79922532Y-40526473D01*
X79786727Y-40390668D01*
X79627036Y-40283966D01*
X79449597Y-40210468D01*
X79261229Y-40173000D01*
X79069171Y-40173000D01*
X78880803Y-40210468D01*
X78703364Y-40283966D01*
X78543673Y-40390668D01*
X78407868Y-40526473D01*
X78301166Y-40686164D01*
X78227668Y-40863603D01*
X78190200Y-41051971D01*
X73518531Y-41051971D01*
X73490126Y-40909175D01*
X73373308Y-40627151D01*
X73203715Y-40373337D01*
X72987863Y-40157485D01*
X72734049Y-39987892D01*
X72640155Y-39949000D01*
X86491678Y-39949000D01*
X86471816Y-39986160D01*
X86454661Y-40042710D01*
X86448869Y-40101520D01*
X86448869Y-42600880D01*
X86454661Y-42659690D01*
X86471816Y-42716240D01*
X86499673Y-42768357D01*
X86537162Y-42814038D01*
X86582843Y-42851527D01*
X86634960Y-42879384D01*
X86691510Y-42896539D01*
X86750320Y-42902331D01*
X89249680Y-42902331D01*
X89308490Y-42896539D01*
X89365040Y-42879384D01*
X89417157Y-42851527D01*
X89462838Y-42814038D01*
X89500327Y-42768357D01*
X89528184Y-42716240D01*
X89545339Y-42659690D01*
X89551131Y-42600880D01*
X89551131Y-40101520D01*
X89545339Y-40042710D01*
X89528184Y-39986160D01*
X89508322Y-39949000D01*
X89591000Y-39949000D01*
X89591001Y-53194177D01*
X89589479Y-53207272D01*
X89591001Y-53226108D01*
X89591001Y-53228961D01*
X89592284Y-53241992D01*
X89594635Y-53271082D01*
X89595422Y-53273852D01*
X89595704Y-53276711D01*
X89604158Y-53304579D01*
X89612141Y-53332661D01*
X89613454Y-53335224D01*
X89614288Y-53337974D01*
X89628030Y-53363685D01*
X89641325Y-53389642D01*
X89643109Y-53391895D01*
X89644466Y-53394434D01*
X89662978Y-53416991D01*
X89671109Y-53427260D01*
X89673091Y-53429313D01*
X89685080Y-53443921D01*
X89695270Y-53452284D01*
X93147001Y-57027292D01*
X93147000Y-71848345D01*
X93067308Y-71655951D01*
X92897715Y-71402137D01*
X92681863Y-71186285D01*
X92428049Y-71016692D01*
X92146025Y-70899874D01*
X91846630Y-70840320D01*
X91541370Y-70840320D01*
X91241975Y-70899874D01*
X90959951Y-71016692D01*
X90706137Y-71186285D01*
X90490285Y-71402137D01*
X90320692Y-71655951D01*
X90203874Y-71937975D01*
X90144320Y-72237370D01*
X90144320Y-72542630D01*
X90203874Y-72842025D01*
X90320692Y-73124049D01*
X90490285Y-73377863D01*
X90706137Y-73593715D01*
X90959951Y-73763308D01*
X91241975Y-73880126D01*
X91541370Y-73939680D01*
X91846630Y-73939680D01*
X92146025Y-73880126D01*
X92428049Y-73763308D01*
X92681863Y-73593715D01*
X92897715Y-73377863D01*
X93067308Y-73124049D01*
X93147000Y-72931655D01*
X93147000Y-74478000D01*
X89804961Y-74478000D01*
X89789000Y-74476428D01*
X89773040Y-74478000D01*
X89773039Y-74478000D01*
X89725289Y-74482703D01*
X89664026Y-74501287D01*
X89607566Y-74531465D01*
X89558079Y-74572079D01*
X89517465Y-74621566D01*
X89487287Y-74678026D01*
X89468703Y-74739289D01*
X89462428Y-74803000D01*
X89464001Y-74818971D01*
X89464001Y-74992579D01*
X89462838Y-74991162D01*
X89417157Y-74953673D01*
X89365040Y-74925816D01*
X89308490Y-74908661D01*
X89249680Y-74902869D01*
X86750320Y-74902869D01*
X86691510Y-74908661D01*
X86634960Y-74925816D01*
X86582843Y-74953673D01*
X86537162Y-74991162D01*
X86499673Y-75036843D01*
X86471816Y-75088960D01*
X86454661Y-75145510D01*
X86448869Y-75204320D01*
X86448869Y-77703680D01*
X86454661Y-77762490D01*
X86471816Y-77819040D01*
X86499673Y-77871157D01*
X86537162Y-77916838D01*
X86582843Y-77954327D01*
X86634960Y-77982184D01*
X86691510Y-77999339D01*
X86750320Y-78005131D01*
X89249680Y-78005131D01*
X89308490Y-77999339D01*
X89365040Y-77982184D01*
X89417157Y-77954327D01*
X89462838Y-77916838D01*
X89464001Y-77915421D01*
X89464000Y-79748902D01*
X89373308Y-79529951D01*
X89203715Y-79276137D01*
X88987863Y-79060285D01*
X88734049Y-78890692D01*
X88452025Y-78773874D01*
X88152630Y-78714320D01*
X87847370Y-78714320D01*
X87547975Y-78773874D01*
X87265951Y-78890692D01*
X87012137Y-79060285D01*
X86796285Y-79276137D01*
X86626692Y-79529951D01*
X86509874Y-79811975D01*
X86450320Y-80111370D01*
X86450320Y-80416630D01*
X86509874Y-80716025D01*
X86626692Y-80998049D01*
X86796285Y-81251863D01*
X87012137Y-81467715D01*
X87265951Y-81637308D01*
X87547975Y-81754126D01*
X87748599Y-81794033D01*
X87728465Y-81818566D01*
X87698287Y-81875026D01*
X87679703Y-81936289D01*
X87673428Y-82000000D01*
X87675000Y-82015960D01*
X87675001Y-96675000D01*
X72325000Y-96675000D01*
X72325000Y-92939705D01*
X73100000Y-92939705D01*
X73100000Y-93057895D01*
X73123058Y-93173814D01*
X73168287Y-93283007D01*
X73233950Y-93381278D01*
X73317522Y-93464850D01*
X73415793Y-93530513D01*
X73524986Y-93575742D01*
X73640905Y-93598800D01*
X73759095Y-93598800D01*
X73875014Y-93575742D01*
X73984207Y-93530513D01*
X74082478Y-93464850D01*
X74166050Y-93381278D01*
X74231713Y-93283007D01*
X74276942Y-93173814D01*
X74300000Y-93057895D01*
X74300000Y-92953631D01*
X85673500Y-92953631D01*
X85673500Y-93101369D01*
X85702322Y-93246267D01*
X85758859Y-93382758D01*
X85840937Y-93505597D01*
X85945403Y-93610063D01*
X86068242Y-93692141D01*
X86204733Y-93748678D01*
X86349631Y-93777500D01*
X86497369Y-93777500D01*
X86642267Y-93748678D01*
X86778758Y-93692141D01*
X86901597Y-93610063D01*
X87006063Y-93505597D01*
X87088141Y-93382758D01*
X87144678Y-93246267D01*
X87173500Y-93101369D01*
X87173500Y-92953631D01*
X87144678Y-92808733D01*
X87088141Y-92672242D01*
X87006063Y-92549403D01*
X86901597Y-92444937D01*
X86778758Y-92362859D01*
X86642267Y-92306322D01*
X86497369Y-92277500D01*
X86349631Y-92277500D01*
X86204733Y-92306322D01*
X86068242Y-92362859D01*
X85945403Y-92444937D01*
X85840937Y-92549403D01*
X85758859Y-92672242D01*
X85702322Y-92808733D01*
X85673500Y-92953631D01*
X74300000Y-92953631D01*
X74300000Y-92939705D01*
X74276942Y-92823786D01*
X74231713Y-92714593D01*
X74166050Y-92616322D01*
X74082478Y-92532750D01*
X73984207Y-92467087D01*
X73875014Y-92421858D01*
X73759095Y-92398800D01*
X73640905Y-92398800D01*
X73524986Y-92421858D01*
X73415793Y-92467087D01*
X73317522Y-92532750D01*
X73233950Y-92616322D01*
X73168287Y-92714593D01*
X73123058Y-92823786D01*
X73100000Y-92939705D01*
X72325000Y-92939705D01*
X72325000Y-90139705D01*
X73100000Y-90139705D01*
X73100000Y-90257895D01*
X73123058Y-90373814D01*
X73168287Y-90483007D01*
X73233950Y-90581278D01*
X73317522Y-90664850D01*
X73415793Y-90730513D01*
X73524986Y-90775742D01*
X73640905Y-90798800D01*
X73759095Y-90798800D01*
X73875014Y-90775742D01*
X73984207Y-90730513D01*
X74082478Y-90664850D01*
X74166050Y-90581278D01*
X74231713Y-90483007D01*
X74276942Y-90373814D01*
X74300000Y-90257895D01*
X74300000Y-90159631D01*
X83641500Y-90159631D01*
X83641500Y-90307369D01*
X83670322Y-90452267D01*
X83726859Y-90588758D01*
X83808937Y-90711597D01*
X83913403Y-90816063D01*
X84036242Y-90898141D01*
X84172733Y-90954678D01*
X84317631Y-90983500D01*
X84465369Y-90983500D01*
X84610267Y-90954678D01*
X84746758Y-90898141D01*
X84869597Y-90816063D01*
X84974063Y-90711597D01*
X85056141Y-90588758D01*
X85112678Y-90452267D01*
X85141500Y-90307369D01*
X85141500Y-90159631D01*
X85112678Y-90014733D01*
X85056141Y-89878242D01*
X84974063Y-89755403D01*
X84869597Y-89650937D01*
X84746758Y-89568859D01*
X84610267Y-89512322D01*
X84465369Y-89483500D01*
X84317631Y-89483500D01*
X84172733Y-89512322D01*
X84036242Y-89568859D01*
X83913403Y-89650937D01*
X83808937Y-89755403D01*
X83726859Y-89878242D01*
X83670322Y-90014733D01*
X83641500Y-90159631D01*
X74300000Y-90159631D01*
X74300000Y-90139705D01*
X74276942Y-90023786D01*
X74231713Y-89914593D01*
X74166050Y-89816322D01*
X74082478Y-89732750D01*
X73984207Y-89667087D01*
X73875014Y-89621858D01*
X73759095Y-89598800D01*
X73640905Y-89598800D01*
X73524986Y-89621858D01*
X73415793Y-89667087D01*
X73317522Y-89732750D01*
X73233950Y-89816322D01*
X73168287Y-89914593D01*
X73123058Y-90023786D01*
X73100000Y-90139705D01*
X72325000Y-90139705D01*
X72325000Y-88739705D01*
X73100000Y-88739705D01*
X73100000Y-88857895D01*
X73123058Y-88973814D01*
X73168287Y-89083007D01*
X73233950Y-89181278D01*
X73317522Y-89264850D01*
X73415793Y-89330513D01*
X73524986Y-89375742D01*
X73640905Y-89398800D01*
X73759095Y-89398800D01*
X73875014Y-89375742D01*
X73984207Y-89330513D01*
X74082478Y-89264850D01*
X74166050Y-89181278D01*
X74231713Y-89083007D01*
X74276942Y-88973814D01*
X74300000Y-88857895D01*
X74300000Y-88739705D01*
X74276942Y-88623786D01*
X74231713Y-88514593D01*
X74166050Y-88416322D01*
X74082478Y-88332750D01*
X73984207Y-88267087D01*
X73875014Y-88221858D01*
X73759095Y-88198800D01*
X73640905Y-88198800D01*
X73524986Y-88221858D01*
X73415793Y-88267087D01*
X73317522Y-88332750D01*
X73233950Y-88416322D01*
X73168287Y-88514593D01*
X73123058Y-88623786D01*
X73100000Y-88739705D01*
X72325000Y-88739705D01*
X72325000Y-87189905D01*
X74901500Y-87189905D01*
X74901500Y-87308095D01*
X74924558Y-87424014D01*
X74969787Y-87533207D01*
X75035450Y-87631478D01*
X75119022Y-87715050D01*
X75217293Y-87780713D01*
X75326486Y-87825942D01*
X75442405Y-87849000D01*
X75560595Y-87849000D01*
X75676514Y-87825942D01*
X75679017Y-87824905D01*
X76362000Y-87824905D01*
X76362000Y-87943095D01*
X76385058Y-88059014D01*
X76430287Y-88168207D01*
X76495950Y-88266478D01*
X76579522Y-88350050D01*
X76677793Y-88415713D01*
X76786986Y-88460942D01*
X76902905Y-88484000D01*
X77021095Y-88484000D01*
X77137014Y-88460942D01*
X77246207Y-88415713D01*
X77344478Y-88350050D01*
X77428050Y-88266478D01*
X77493713Y-88168207D01*
X77538942Y-88059014D01*
X77562000Y-87943095D01*
X77562000Y-87824905D01*
X77541531Y-87722000D01*
X77656095Y-87722000D01*
X77772014Y-87698942D01*
X77881207Y-87653713D01*
X77979478Y-87588050D01*
X78063050Y-87504478D01*
X78128713Y-87406207D01*
X78145520Y-87365631D01*
X83641500Y-87365631D01*
X83641500Y-87513369D01*
X83670322Y-87658267D01*
X83726859Y-87794758D01*
X83808937Y-87917597D01*
X83913403Y-88022063D01*
X84036242Y-88104141D01*
X84172733Y-88160678D01*
X84317631Y-88189500D01*
X84465369Y-88189500D01*
X84610267Y-88160678D01*
X84746758Y-88104141D01*
X84869597Y-88022063D01*
X84974063Y-87917597D01*
X85056141Y-87794758D01*
X85112678Y-87658267D01*
X85141500Y-87513369D01*
X85141500Y-87365631D01*
X85112678Y-87220733D01*
X85056141Y-87084242D01*
X84974063Y-86961403D01*
X84869597Y-86856937D01*
X84746758Y-86774859D01*
X84610267Y-86718322D01*
X84465369Y-86689500D01*
X84317631Y-86689500D01*
X84172733Y-86718322D01*
X84036242Y-86774859D01*
X83913403Y-86856937D01*
X83808937Y-86961403D01*
X83726859Y-87084242D01*
X83670322Y-87220733D01*
X83641500Y-87365631D01*
X78145520Y-87365631D01*
X78173942Y-87297014D01*
X78197000Y-87181095D01*
X78197000Y-87062905D01*
X78173942Y-86946986D01*
X78128713Y-86837793D01*
X78063050Y-86739522D01*
X77979478Y-86655950D01*
X77881207Y-86590287D01*
X77772014Y-86545058D01*
X77656095Y-86522000D01*
X77537905Y-86522000D01*
X77421986Y-86545058D01*
X77312793Y-86590287D01*
X77214522Y-86655950D01*
X77130950Y-86739522D01*
X77065287Y-86837793D01*
X77020058Y-86946986D01*
X76997000Y-87062905D01*
X76997000Y-87181095D01*
X77017469Y-87284000D01*
X76902905Y-87284000D01*
X76786986Y-87307058D01*
X76677793Y-87352287D01*
X76579522Y-87417950D01*
X76495950Y-87501522D01*
X76430287Y-87599793D01*
X76385058Y-87708986D01*
X76362000Y-87824905D01*
X75679017Y-87824905D01*
X75785707Y-87780713D01*
X75883978Y-87715050D01*
X75967550Y-87631478D01*
X76033213Y-87533207D01*
X76078442Y-87424014D01*
X76101500Y-87308095D01*
X76101500Y-87189905D01*
X76078442Y-87073986D01*
X76033213Y-86964793D01*
X75967550Y-86866522D01*
X75883978Y-86782950D01*
X75785707Y-86717287D01*
X75676514Y-86672058D01*
X75560595Y-86649000D01*
X75442405Y-86649000D01*
X75326486Y-86672058D01*
X75217293Y-86717287D01*
X75119022Y-86782950D01*
X75035450Y-86866522D01*
X74969787Y-86964793D01*
X74924558Y-87073986D01*
X74901500Y-87189905D01*
X72325000Y-87189905D01*
X72325000Y-85919905D01*
X74838000Y-85919905D01*
X74838000Y-86038095D01*
X74861058Y-86154014D01*
X74906287Y-86263207D01*
X74971950Y-86361478D01*
X75055522Y-86445050D01*
X75153793Y-86510713D01*
X75262986Y-86555942D01*
X75378905Y-86579000D01*
X75497095Y-86579000D01*
X75613014Y-86555942D01*
X75722207Y-86510713D01*
X75820478Y-86445050D01*
X75904050Y-86361478D01*
X75969713Y-86263207D01*
X76014942Y-86154014D01*
X76038000Y-86038095D01*
X76038000Y-85919905D01*
X76014942Y-85803986D01*
X75969713Y-85694793D01*
X75904050Y-85596522D01*
X75820478Y-85512950D01*
X75722207Y-85447287D01*
X75613014Y-85402058D01*
X75497095Y-85379000D01*
X75378905Y-85379000D01*
X75262986Y-85402058D01*
X75153793Y-85447287D01*
X75055522Y-85512950D01*
X74971950Y-85596522D01*
X74906287Y-85694793D01*
X74861058Y-85803986D01*
X74838000Y-85919905D01*
X72325000Y-85919905D01*
X72325000Y-82015960D01*
X72326572Y-82000000D01*
X72320297Y-81936289D01*
X72301713Y-81875026D01*
X72275044Y-81825131D01*
X73249680Y-81825131D01*
X73308490Y-81819339D01*
X73365040Y-81802184D01*
X73417157Y-81774327D01*
X73462838Y-81736838D01*
X73500327Y-81691157D01*
X73528184Y-81639040D01*
X73545339Y-81582490D01*
X73551131Y-81523680D01*
X73551131Y-81411405D01*
X75663500Y-81411405D01*
X75663500Y-81529595D01*
X75686558Y-81645514D01*
X75731787Y-81754707D01*
X75797450Y-81852978D01*
X75881022Y-81936550D01*
X75979293Y-82002213D01*
X76088486Y-82047442D01*
X76204405Y-82070500D01*
X76322595Y-82070500D01*
X76438514Y-82047442D01*
X76547707Y-82002213D01*
X76645978Y-81936550D01*
X76729550Y-81852978D01*
X76795213Y-81754707D01*
X76840442Y-81645514D01*
X76863500Y-81529595D01*
X76863500Y-81411405D01*
X76840442Y-81295486D01*
X76795213Y-81186293D01*
X76729550Y-81088022D01*
X76645978Y-81004450D01*
X76547707Y-80938787D01*
X76438514Y-80893558D01*
X76322595Y-80870500D01*
X76204405Y-80870500D01*
X76088486Y-80893558D01*
X75979293Y-80938787D01*
X75881022Y-81004450D01*
X75797450Y-81088022D01*
X75731787Y-81186293D01*
X75686558Y-81295486D01*
X75663500Y-81411405D01*
X73551131Y-81411405D01*
X73551131Y-79024320D01*
X73545339Y-78965510D01*
X73528184Y-78908960D01*
X73500327Y-78856843D01*
X73462838Y-78811162D01*
X73417157Y-78773673D01*
X73365040Y-78745816D01*
X73308490Y-78728661D01*
X73249680Y-78722869D01*
X70750320Y-78722869D01*
X70691510Y-78728661D01*
X70634960Y-78745816D01*
X70582843Y-78773673D01*
X70537162Y-78811162D01*
X70499673Y-78856843D01*
X70471816Y-78908960D01*
X70454661Y-78965510D01*
X70448869Y-79024320D01*
X70448869Y-81523680D01*
X70454661Y-81582490D01*
X70471816Y-81639040D01*
X70491037Y-81675000D01*
X70325000Y-81675000D01*
X70325000Y-76311370D01*
X70450320Y-76311370D01*
X70450320Y-76616630D01*
X70509874Y-76916025D01*
X70626692Y-77198049D01*
X70796285Y-77451863D01*
X71012137Y-77667715D01*
X71265951Y-77837308D01*
X71547975Y-77954126D01*
X71847370Y-78013680D01*
X72152630Y-78013680D01*
X72452025Y-77954126D01*
X72734049Y-77837308D01*
X72987863Y-77667715D01*
X73005447Y-77650131D01*
X77291500Y-77650131D01*
X77291500Y-77797869D01*
X77320322Y-77942767D01*
X77376859Y-78079258D01*
X77458937Y-78202097D01*
X77563403Y-78306563D01*
X77686242Y-78388641D01*
X77778676Y-78426929D01*
X77722522Y-78464450D01*
X77638950Y-78548022D01*
X77573287Y-78646293D01*
X77528058Y-78755486D01*
X77505000Y-78871405D01*
X77505000Y-78989595D01*
X77528058Y-79105514D01*
X77573287Y-79214707D01*
X77638950Y-79312978D01*
X77722522Y-79396550D01*
X77820793Y-79462213D01*
X77914043Y-79500838D01*
X77849522Y-79543950D01*
X77765950Y-79627522D01*
X77700287Y-79725793D01*
X77655058Y-79834986D01*
X77632000Y-79950905D01*
X77632000Y-80069095D01*
X77655058Y-80185014D01*
X77700287Y-80294207D01*
X77765950Y-80392478D01*
X77849522Y-80476050D01*
X77947793Y-80541713D01*
X78056986Y-80586942D01*
X78172905Y-80610000D01*
X78291095Y-80610000D01*
X78407014Y-80586942D01*
X78516207Y-80541713D01*
X78614478Y-80476050D01*
X78698050Y-80392478D01*
X78763713Y-80294207D01*
X78808942Y-80185014D01*
X78832000Y-80069095D01*
X78832000Y-79950905D01*
X78808942Y-79834986D01*
X78763713Y-79725793D01*
X78698050Y-79627522D01*
X78614478Y-79543950D01*
X78516207Y-79478287D01*
X78422957Y-79439662D01*
X78487478Y-79396550D01*
X78571050Y-79312978D01*
X78636713Y-79214707D01*
X78681942Y-79105514D01*
X78705000Y-78989595D01*
X78705000Y-78871405D01*
X78681942Y-78755486D01*
X78636713Y-78646293D01*
X78571050Y-78548022D01*
X78487478Y-78464450D01*
X78389207Y-78398787D01*
X78380735Y-78395278D01*
X78396758Y-78388641D01*
X78519597Y-78306563D01*
X78624063Y-78202097D01*
X78706141Y-78079258D01*
X78746259Y-77982405D01*
X81061000Y-77982405D01*
X81061000Y-78100595D01*
X81084058Y-78216514D01*
X81129287Y-78325707D01*
X81194950Y-78423978D01*
X81278522Y-78507550D01*
X81376793Y-78573213D01*
X81485986Y-78618442D01*
X81502361Y-78621699D01*
X81436903Y-78665437D01*
X81332437Y-78769903D01*
X81250359Y-78892742D01*
X81193822Y-79029233D01*
X81165000Y-79174131D01*
X81165000Y-79321869D01*
X81193822Y-79466767D01*
X81250359Y-79603258D01*
X81332437Y-79726097D01*
X81436903Y-79830563D01*
X81559742Y-79912641D01*
X81696233Y-79969178D01*
X81841131Y-79998000D01*
X81988869Y-79998000D01*
X82133767Y-79969178D01*
X82270258Y-79912641D01*
X82393097Y-79830563D01*
X82497563Y-79726097D01*
X82579641Y-79603258D01*
X82636178Y-79466767D01*
X82665000Y-79321869D01*
X82665000Y-79174131D01*
X82636178Y-79029233D01*
X82579641Y-78892742D01*
X82497563Y-78769903D01*
X82393097Y-78665437D01*
X82270258Y-78583359D01*
X82133767Y-78526822D01*
X82041964Y-78508561D01*
X82043478Y-78507550D01*
X82127050Y-78423978D01*
X82192713Y-78325707D01*
X82237942Y-78216514D01*
X82261000Y-78100595D01*
X82261000Y-78006500D01*
X82291595Y-78006500D01*
X82407514Y-77983442D01*
X82516707Y-77938213D01*
X82614978Y-77872550D01*
X82698550Y-77788978D01*
X82764213Y-77690707D01*
X82809442Y-77581514D01*
X82832500Y-77465595D01*
X82832500Y-77347405D01*
X82809442Y-77231486D01*
X82764213Y-77122293D01*
X82698550Y-77024022D01*
X82614978Y-76940450D01*
X82516707Y-76874787D01*
X82407514Y-76829558D01*
X82291595Y-76806500D01*
X82173405Y-76806500D01*
X82057486Y-76829558D01*
X81948293Y-76874787D01*
X81850022Y-76940450D01*
X81766450Y-77024022D01*
X81700787Y-77122293D01*
X81655558Y-77231486D01*
X81632500Y-77347405D01*
X81632500Y-77441500D01*
X81601905Y-77441500D01*
X81485986Y-77464558D01*
X81376793Y-77509787D01*
X81278522Y-77575450D01*
X81194950Y-77659022D01*
X81129287Y-77757293D01*
X81084058Y-77866486D01*
X81061000Y-77982405D01*
X78746259Y-77982405D01*
X78762678Y-77942767D01*
X78791500Y-77797869D01*
X78791500Y-77650131D01*
X78762678Y-77505233D01*
X78706141Y-77368742D01*
X78624063Y-77245903D01*
X78519597Y-77141437D01*
X78396758Y-77059359D01*
X78260267Y-77002822D01*
X78115369Y-76974000D01*
X77967631Y-76974000D01*
X77822733Y-77002822D01*
X77686242Y-77059359D01*
X77563403Y-77141437D01*
X77458937Y-77245903D01*
X77376859Y-77368742D01*
X77320322Y-77505233D01*
X77291500Y-77650131D01*
X73005447Y-77650131D01*
X73203715Y-77451863D01*
X73373308Y-77198049D01*
X73490126Y-76916025D01*
X73549680Y-76616630D01*
X73549680Y-76311370D01*
X73490126Y-76011975D01*
X73373308Y-75729951D01*
X73203715Y-75476137D01*
X72987863Y-75260285D01*
X72734049Y-75090692D01*
X72452025Y-74973874D01*
X72152630Y-74914320D01*
X71847370Y-74914320D01*
X71547975Y-74973874D01*
X71265951Y-75090692D01*
X71012137Y-75260285D01*
X70796285Y-75476137D01*
X70626692Y-75729951D01*
X70509874Y-76011975D01*
X70450320Y-76311370D01*
X70325000Y-76311370D01*
X70325000Y-74807405D01*
X73060000Y-74807405D01*
X73060000Y-74925595D01*
X73083058Y-75041514D01*
X73128287Y-75150707D01*
X73193950Y-75248978D01*
X73277522Y-75332550D01*
X73375793Y-75398213D01*
X73484986Y-75443442D01*
X73600905Y-75466500D01*
X73719095Y-75466500D01*
X73835014Y-75443442D01*
X73944207Y-75398213D01*
X74042478Y-75332550D01*
X74126050Y-75248978D01*
X74191713Y-75150707D01*
X74236942Y-75041514D01*
X74260000Y-74925595D01*
X74260000Y-74807405D01*
X74236942Y-74691486D01*
X74191713Y-74582293D01*
X74188107Y-74576896D01*
X74198207Y-74572713D01*
X74296478Y-74507050D01*
X74380050Y-74423478D01*
X74445713Y-74325207D01*
X74490942Y-74216014D01*
X74514000Y-74100095D01*
X74514000Y-73981905D01*
X74490942Y-73865986D01*
X74445713Y-73756793D01*
X74380050Y-73658522D01*
X74296478Y-73574950D01*
X74198207Y-73509287D01*
X74089014Y-73464058D01*
X73973095Y-73441000D01*
X73854905Y-73441000D01*
X73738986Y-73464058D01*
X73629793Y-73509287D01*
X73531522Y-73574950D01*
X73447950Y-73658522D01*
X73382287Y-73756793D01*
X73337058Y-73865986D01*
X73314000Y-73981905D01*
X73314000Y-74100095D01*
X73337058Y-74216014D01*
X73382287Y-74325207D01*
X73385893Y-74330604D01*
X73375793Y-74334787D01*
X73277522Y-74400450D01*
X73193950Y-74484022D01*
X73128287Y-74582293D01*
X73083058Y-74691486D01*
X73060000Y-74807405D01*
X70325000Y-74807405D01*
X70325000Y-71886405D01*
X75854000Y-71886405D01*
X75854000Y-72004595D01*
X75877058Y-72120514D01*
X75922287Y-72229707D01*
X75987950Y-72327978D01*
X76071522Y-72411550D01*
X76169793Y-72477213D01*
X76278986Y-72522442D01*
X76394905Y-72545500D01*
X76513095Y-72545500D01*
X76629014Y-72522442D01*
X76738207Y-72477213D01*
X76836478Y-72411550D01*
X76920050Y-72327978D01*
X76985713Y-72229707D01*
X77030942Y-72120514D01*
X77054000Y-72004595D01*
X77054000Y-71886405D01*
X77030942Y-71770486D01*
X76985713Y-71661293D01*
X76920050Y-71563022D01*
X76836478Y-71479450D01*
X76738207Y-71413787D01*
X76629014Y-71368558D01*
X76513095Y-71345500D01*
X76394905Y-71345500D01*
X76278986Y-71368558D01*
X76169793Y-71413787D01*
X76071522Y-71479450D01*
X75987950Y-71563022D01*
X75922287Y-71661293D01*
X75877058Y-71770486D01*
X75854000Y-71886405D01*
X70325000Y-71886405D01*
X70325000Y-71015953D01*
X70326571Y-71000000D01*
X70325000Y-70984047D01*
X70325000Y-70984039D01*
X70320297Y-70936289D01*
X70301713Y-70875026D01*
X70271535Y-70818566D01*
X70254408Y-70797697D01*
X70241096Y-70781476D01*
X70241092Y-70781472D01*
X70230921Y-70769079D01*
X70218528Y-70758908D01*
X70139525Y-70679905D01*
X71218500Y-70679905D01*
X71218500Y-70798095D01*
X71241558Y-70914014D01*
X71286787Y-71023207D01*
X71352450Y-71121478D01*
X71436022Y-71205050D01*
X71534293Y-71270713D01*
X71643486Y-71315942D01*
X71759405Y-71339000D01*
X71877595Y-71339000D01*
X71993514Y-71315942D01*
X72102707Y-71270713D01*
X72200978Y-71205050D01*
X72284550Y-71121478D01*
X72350213Y-71023207D01*
X72395442Y-70914014D01*
X72418500Y-70798095D01*
X72418500Y-70679905D01*
X72395442Y-70563986D01*
X72350213Y-70454793D01*
X72284550Y-70356522D01*
X72200978Y-70272950D01*
X72102707Y-70207287D01*
X71993514Y-70162058D01*
X71877595Y-70139000D01*
X71759405Y-70139000D01*
X71643486Y-70162058D01*
X71534293Y-70207287D01*
X71436022Y-70272950D01*
X71352450Y-70356522D01*
X71286787Y-70454793D01*
X71241558Y-70563986D01*
X71218500Y-70679905D01*
X70139525Y-70679905D01*
X68869525Y-69409905D01*
X76933500Y-69409905D01*
X76933500Y-69528095D01*
X76956558Y-69644014D01*
X77001787Y-69753207D01*
X77067450Y-69851478D01*
X77151022Y-69935050D01*
X77249293Y-70000713D01*
X77358486Y-70045942D01*
X77474405Y-70069000D01*
X77592595Y-70069000D01*
X77708514Y-70045942D01*
X77817707Y-70000713D01*
X77915978Y-69935050D01*
X77999550Y-69851478D01*
X78065213Y-69753207D01*
X78110442Y-69644014D01*
X78131747Y-69536905D01*
X80934000Y-69536905D01*
X80934000Y-69655095D01*
X80957058Y-69771014D01*
X81002287Y-69880207D01*
X81067950Y-69978478D01*
X81151522Y-70062050D01*
X81249793Y-70127713D01*
X81358986Y-70172942D01*
X81474905Y-70196000D01*
X81593095Y-70196000D01*
X81709014Y-70172942D01*
X81818207Y-70127713D01*
X81916478Y-70062050D01*
X82000050Y-69978478D01*
X82065713Y-69880207D01*
X82110942Y-69771014D01*
X82134000Y-69655095D01*
X82134000Y-69536905D01*
X82110942Y-69420986D01*
X82065713Y-69311793D01*
X82000050Y-69213522D01*
X81916478Y-69129950D01*
X81818207Y-69064287D01*
X81709014Y-69019058D01*
X81593095Y-68996000D01*
X81474905Y-68996000D01*
X81358986Y-69019058D01*
X81249793Y-69064287D01*
X81151522Y-69129950D01*
X81067950Y-69213522D01*
X81002287Y-69311793D01*
X80957058Y-69420986D01*
X80934000Y-69536905D01*
X78131747Y-69536905D01*
X78133500Y-69528095D01*
X78133500Y-69409905D01*
X78110442Y-69293986D01*
X78065213Y-69184793D01*
X77999550Y-69086522D01*
X77915978Y-69002950D01*
X77817707Y-68937287D01*
X77708514Y-68892058D01*
X77683745Y-68887131D01*
X85419500Y-68887131D01*
X85419500Y-69034869D01*
X85448322Y-69179767D01*
X85504859Y-69316258D01*
X85586937Y-69439097D01*
X85691403Y-69543563D01*
X85814242Y-69625641D01*
X85950733Y-69682178D01*
X86095631Y-69711000D01*
X86243369Y-69711000D01*
X86388267Y-69682178D01*
X86524758Y-69625641D01*
X86647597Y-69543563D01*
X86752063Y-69439097D01*
X86834141Y-69316258D01*
X86890678Y-69179767D01*
X86919500Y-69034869D01*
X86919500Y-68887131D01*
X86890678Y-68742233D01*
X86834141Y-68605742D01*
X86752063Y-68482903D01*
X86647597Y-68378437D01*
X86524758Y-68296359D01*
X86388267Y-68239822D01*
X86243369Y-68211000D01*
X86095631Y-68211000D01*
X85950733Y-68239822D01*
X85814242Y-68296359D01*
X85691403Y-68378437D01*
X85586937Y-68482903D01*
X85504859Y-68605742D01*
X85448322Y-68742233D01*
X85419500Y-68887131D01*
X77683745Y-68887131D01*
X77592595Y-68869000D01*
X77474405Y-68869000D01*
X77358486Y-68892058D01*
X77249293Y-68937287D01*
X77151022Y-69002950D01*
X77067450Y-69086522D01*
X77001787Y-69184793D01*
X76956558Y-69293986D01*
X76933500Y-69409905D01*
X68869525Y-69409905D01*
X67325000Y-67865382D01*
X67325000Y-67695405D01*
X76362000Y-67695405D01*
X76362000Y-67813595D01*
X76385058Y-67929514D01*
X76430287Y-68038707D01*
X76495950Y-68136978D01*
X76579522Y-68220550D01*
X76677793Y-68286213D01*
X76786986Y-68331442D01*
X76902905Y-68354500D01*
X77021095Y-68354500D01*
X77137014Y-68331442D01*
X77246207Y-68286213D01*
X77344478Y-68220550D01*
X77428050Y-68136978D01*
X77493713Y-68038707D01*
X77538942Y-67929514D01*
X77562000Y-67813595D01*
X77562000Y-67695405D01*
X77538942Y-67579486D01*
X77493713Y-67470293D01*
X77428050Y-67372022D01*
X77419159Y-67363131D01*
X85419500Y-67363131D01*
X85419500Y-67510869D01*
X85448322Y-67655767D01*
X85504859Y-67792258D01*
X85586937Y-67915097D01*
X85691403Y-68019563D01*
X85814242Y-68101641D01*
X85950733Y-68158178D01*
X86095631Y-68187000D01*
X86243369Y-68187000D01*
X86388267Y-68158178D01*
X86524758Y-68101641D01*
X86647597Y-68019563D01*
X86752063Y-67915097D01*
X86834141Y-67792258D01*
X86890678Y-67655767D01*
X86919500Y-67510869D01*
X86919500Y-67363131D01*
X86890678Y-67218233D01*
X86834141Y-67081742D01*
X86752063Y-66958903D01*
X86647597Y-66854437D01*
X86524758Y-66772359D01*
X86388267Y-66715822D01*
X86243369Y-66687000D01*
X86095631Y-66687000D01*
X85950733Y-66715822D01*
X85814242Y-66772359D01*
X85691403Y-66854437D01*
X85586937Y-66958903D01*
X85504859Y-67081742D01*
X85448322Y-67218233D01*
X85419500Y-67363131D01*
X77419159Y-67363131D01*
X77344478Y-67288450D01*
X77246207Y-67222787D01*
X77137014Y-67177558D01*
X77021095Y-67154500D01*
X76902905Y-67154500D01*
X76786986Y-67177558D01*
X76677793Y-67222787D01*
X76579522Y-67288450D01*
X76495950Y-67372022D01*
X76430287Y-67470293D01*
X76385058Y-67579486D01*
X76362000Y-67695405D01*
X67325000Y-67695405D01*
X67325000Y-65663405D01*
X87030000Y-65663405D01*
X87030000Y-65781595D01*
X87053058Y-65897514D01*
X87098287Y-66006707D01*
X87163950Y-66104978D01*
X87247522Y-66188550D01*
X87345793Y-66254213D01*
X87454986Y-66299442D01*
X87570905Y-66322500D01*
X87689095Y-66322500D01*
X87805014Y-66299442D01*
X87914207Y-66254213D01*
X88012478Y-66188550D01*
X88096050Y-66104978D01*
X88161713Y-66006707D01*
X88206942Y-65897514D01*
X88230000Y-65781595D01*
X88230000Y-65663405D01*
X88206942Y-65547486D01*
X88161713Y-65438293D01*
X88096050Y-65340022D01*
X88012478Y-65256450D01*
X87914207Y-65190787D01*
X87805014Y-65145558D01*
X87689095Y-65122500D01*
X87570905Y-65122500D01*
X87454986Y-65145558D01*
X87345793Y-65190787D01*
X87247522Y-65256450D01*
X87163950Y-65340022D01*
X87098287Y-65438293D01*
X87053058Y-65547486D01*
X87030000Y-65663405D01*
X67325000Y-65663405D01*
X67325000Y-64197971D01*
X67605000Y-64197971D01*
X67605000Y-64390029D01*
X67642468Y-64578397D01*
X67715966Y-64755836D01*
X67822668Y-64915527D01*
X67958473Y-65051332D01*
X68118164Y-65158034D01*
X68295603Y-65231532D01*
X68483971Y-65269000D01*
X68676029Y-65269000D01*
X68864397Y-65231532D01*
X69041836Y-65158034D01*
X69201527Y-65051332D01*
X69337332Y-64915527D01*
X69444034Y-64755836D01*
X69517532Y-64578397D01*
X69555000Y-64390029D01*
X69555000Y-64197971D01*
X69517532Y-64009603D01*
X69444034Y-63832164D01*
X69394750Y-63758405D01*
X76552500Y-63758405D01*
X76552500Y-63876595D01*
X76575558Y-63992514D01*
X76620787Y-64101707D01*
X76686450Y-64199978D01*
X76770022Y-64283550D01*
X76868293Y-64349213D01*
X76977486Y-64394442D01*
X77093405Y-64417500D01*
X77211595Y-64417500D01*
X77327514Y-64394442D01*
X77436707Y-64349213D01*
X77505000Y-64303581D01*
X77505000Y-64321095D01*
X77528058Y-64437014D01*
X77573287Y-64546207D01*
X77638950Y-64644478D01*
X77722522Y-64728050D01*
X77820793Y-64793713D01*
X77929986Y-64838942D01*
X78045905Y-64862000D01*
X78164095Y-64862000D01*
X78280014Y-64838942D01*
X78389207Y-64793713D01*
X78487478Y-64728050D01*
X78571050Y-64644478D01*
X78636713Y-64546207D01*
X78681942Y-64437014D01*
X78705000Y-64321095D01*
X78705000Y-64202905D01*
X78681942Y-64086986D01*
X78636713Y-63977793D01*
X78571050Y-63879522D01*
X78487478Y-63795950D01*
X78431289Y-63758405D01*
X82648500Y-63758405D01*
X82648500Y-63876595D01*
X82671558Y-63992514D01*
X82716787Y-64101707D01*
X82782450Y-64199978D01*
X82866022Y-64283550D01*
X82964293Y-64349213D01*
X83073486Y-64394442D01*
X83189405Y-64417500D01*
X83307595Y-64417500D01*
X83423514Y-64394442D01*
X83532707Y-64349213D01*
X83630978Y-64283550D01*
X83714550Y-64199978D01*
X83780213Y-64101707D01*
X83825442Y-63992514D01*
X83848500Y-63876595D01*
X83848500Y-63758405D01*
X83825442Y-63642486D01*
X83780213Y-63533293D01*
X83714550Y-63435022D01*
X83630978Y-63351450D01*
X83532707Y-63285787D01*
X83423514Y-63240558D01*
X83307595Y-63217500D01*
X83189405Y-63217500D01*
X83073486Y-63240558D01*
X82964293Y-63285787D01*
X82866022Y-63351450D01*
X82782450Y-63435022D01*
X82716787Y-63533293D01*
X82671558Y-63642486D01*
X82648500Y-63758405D01*
X78431289Y-63758405D01*
X78389207Y-63730287D01*
X78280014Y-63685058D01*
X78164095Y-63662000D01*
X78045905Y-63662000D01*
X77929986Y-63685058D01*
X77820793Y-63730287D01*
X77752500Y-63775919D01*
X77752500Y-63758405D01*
X77729442Y-63642486D01*
X77684213Y-63533293D01*
X77618550Y-63435022D01*
X77534978Y-63351450D01*
X77436707Y-63285787D01*
X77327514Y-63240558D01*
X77211595Y-63217500D01*
X77093405Y-63217500D01*
X76977486Y-63240558D01*
X76868293Y-63285787D01*
X76770022Y-63351450D01*
X76686450Y-63435022D01*
X76620787Y-63533293D01*
X76575558Y-63642486D01*
X76552500Y-63758405D01*
X69394750Y-63758405D01*
X69337332Y-63672473D01*
X69201527Y-63536668D01*
X69041836Y-63429966D01*
X68864397Y-63356468D01*
X68676029Y-63319000D01*
X68483971Y-63319000D01*
X68295603Y-63356468D01*
X68118164Y-63429966D01*
X67958473Y-63536668D01*
X67822668Y-63672473D01*
X67715966Y-63832164D01*
X67642468Y-64009603D01*
X67605000Y-64197971D01*
X67325000Y-64197971D01*
X67325000Y-62197971D01*
X67605000Y-62197971D01*
X67605000Y-62390029D01*
X67642468Y-62578397D01*
X67715966Y-62755836D01*
X67822668Y-62915527D01*
X67958473Y-63051332D01*
X68118164Y-63158034D01*
X68295603Y-63231532D01*
X68483971Y-63269000D01*
X68676029Y-63269000D01*
X68864397Y-63231532D01*
X69041836Y-63158034D01*
X69093662Y-63123405D01*
X91411500Y-63123405D01*
X91411500Y-63241595D01*
X91434558Y-63357514D01*
X91479787Y-63466707D01*
X91545450Y-63564978D01*
X91629022Y-63648550D01*
X91727293Y-63714213D01*
X91836486Y-63759442D01*
X91952405Y-63782500D01*
X92070595Y-63782500D01*
X92186514Y-63759442D01*
X92295707Y-63714213D01*
X92393978Y-63648550D01*
X92477550Y-63564978D01*
X92543213Y-63466707D01*
X92588442Y-63357514D01*
X92611500Y-63241595D01*
X92611500Y-63123405D01*
X92588442Y-63007486D01*
X92543213Y-62898293D01*
X92477550Y-62800022D01*
X92393978Y-62716450D01*
X92295707Y-62650787D01*
X92186514Y-62605558D01*
X92070595Y-62582500D01*
X91952405Y-62582500D01*
X91836486Y-62605558D01*
X91727293Y-62650787D01*
X91629022Y-62716450D01*
X91545450Y-62800022D01*
X91479787Y-62898293D01*
X91434558Y-63007486D01*
X91411500Y-63123405D01*
X69093662Y-63123405D01*
X69201527Y-63051332D01*
X69337332Y-62915527D01*
X69444034Y-62755836D01*
X69517532Y-62578397D01*
X69555000Y-62390029D01*
X69555000Y-62197971D01*
X69517532Y-62009603D01*
X69444034Y-61832164D01*
X69337332Y-61672473D01*
X69201527Y-61536668D01*
X69041836Y-61429966D01*
X68864397Y-61356468D01*
X68676029Y-61319000D01*
X68483971Y-61319000D01*
X68295603Y-61356468D01*
X68118164Y-61429966D01*
X67958473Y-61536668D01*
X67822668Y-61672473D01*
X67715966Y-61832164D01*
X67642468Y-62009603D01*
X67605000Y-62197971D01*
X67325000Y-62197971D01*
X67325000Y-60197971D01*
X67605000Y-60197971D01*
X67605000Y-60390029D01*
X67642468Y-60578397D01*
X67715966Y-60755836D01*
X67822668Y-60915527D01*
X67958473Y-61051332D01*
X68118164Y-61158034D01*
X68295603Y-61231532D01*
X68483971Y-61269000D01*
X68676029Y-61269000D01*
X68864397Y-61231532D01*
X69041836Y-61158034D01*
X69201527Y-61051332D01*
X69337332Y-60915527D01*
X69444034Y-60755836D01*
X69517532Y-60578397D01*
X69555000Y-60390029D01*
X69555000Y-60197971D01*
X69517532Y-60009603D01*
X69444034Y-59832164D01*
X69337332Y-59672473D01*
X69201527Y-59536668D01*
X69041836Y-59429966D01*
X68864397Y-59356468D01*
X68676029Y-59319000D01*
X68483971Y-59319000D01*
X68295603Y-59356468D01*
X68118164Y-59429966D01*
X67958473Y-59536668D01*
X67822668Y-59672473D01*
X67715966Y-59832164D01*
X67642468Y-60009603D01*
X67605000Y-60197971D01*
X67325000Y-60197971D01*
X67325000Y-59313405D01*
X71599500Y-59313405D01*
X71599500Y-59431595D01*
X71622558Y-59547514D01*
X71667787Y-59656707D01*
X71733450Y-59754978D01*
X71817022Y-59838550D01*
X71915293Y-59904213D01*
X72024486Y-59949442D01*
X72140405Y-59972500D01*
X72258595Y-59972500D01*
X72374514Y-59949442D01*
X72483707Y-59904213D01*
X72581978Y-59838550D01*
X72665550Y-59754978D01*
X72706023Y-59694405D01*
X83537500Y-59694405D01*
X83537500Y-59812595D01*
X83560558Y-59928514D01*
X83605787Y-60037707D01*
X83671450Y-60135978D01*
X83755022Y-60219550D01*
X83853293Y-60285213D01*
X83962486Y-60330442D01*
X84078405Y-60353500D01*
X84196595Y-60353500D01*
X84252947Y-60342291D01*
X84259058Y-60373014D01*
X84304287Y-60482207D01*
X84369950Y-60580478D01*
X84453522Y-60664050D01*
X84551793Y-60729713D01*
X84660986Y-60774942D01*
X84776905Y-60798000D01*
X84895095Y-60798000D01*
X85011014Y-60774942D01*
X85120207Y-60729713D01*
X85218478Y-60664050D01*
X85302050Y-60580478D01*
X85367713Y-60482207D01*
X85412942Y-60373014D01*
X85436000Y-60257095D01*
X85436000Y-60138905D01*
X85412942Y-60022986D01*
X85367713Y-59913793D01*
X85302050Y-59815522D01*
X85263528Y-59777000D01*
X90717549Y-59777000D01*
X90717549Y-61127000D01*
X90723341Y-61185810D01*
X90740496Y-61242360D01*
X90768353Y-61294477D01*
X90805842Y-61340158D01*
X90851523Y-61377647D01*
X90903640Y-61405504D01*
X90960190Y-61422659D01*
X91019000Y-61428451D01*
X92369000Y-61428451D01*
X92427810Y-61422659D01*
X92484360Y-61405504D01*
X92536477Y-61377647D01*
X92582158Y-61340158D01*
X92619647Y-61294477D01*
X92647504Y-61242360D01*
X92664659Y-61185810D01*
X92670451Y-61127000D01*
X92670451Y-59777000D01*
X92664659Y-59718190D01*
X92647504Y-59661640D01*
X92619647Y-59609523D01*
X92582158Y-59563842D01*
X92536477Y-59526353D01*
X92484360Y-59498496D01*
X92427810Y-59481341D01*
X92369000Y-59475549D01*
X91019000Y-59475549D01*
X90960190Y-59481341D01*
X90903640Y-59498496D01*
X90851523Y-59526353D01*
X90805842Y-59563842D01*
X90768353Y-59609523D01*
X90740496Y-59661640D01*
X90723341Y-59718190D01*
X90717549Y-59777000D01*
X85263528Y-59777000D01*
X85218478Y-59731950D01*
X85120207Y-59666287D01*
X85011014Y-59621058D01*
X84895095Y-59598000D01*
X84776905Y-59598000D01*
X84720553Y-59609209D01*
X84714442Y-59578486D01*
X84669213Y-59469293D01*
X84603550Y-59371022D01*
X84519978Y-59287450D01*
X84421707Y-59221787D01*
X84312514Y-59176558D01*
X84196595Y-59153500D01*
X84078405Y-59153500D01*
X83962486Y-59176558D01*
X83853293Y-59221787D01*
X83755022Y-59287450D01*
X83671450Y-59371022D01*
X83605787Y-59469293D01*
X83560558Y-59578486D01*
X83537500Y-59694405D01*
X72706023Y-59694405D01*
X72731213Y-59656707D01*
X72776442Y-59547514D01*
X72799500Y-59431595D01*
X72799500Y-59313405D01*
X72776442Y-59197486D01*
X72731213Y-59088293D01*
X72665550Y-58990022D01*
X72581978Y-58906450D01*
X72483707Y-58840787D01*
X72374514Y-58795558D01*
X72258595Y-58772500D01*
X72140405Y-58772500D01*
X72024486Y-58795558D01*
X71915293Y-58840787D01*
X71817022Y-58906450D01*
X71733450Y-58990022D01*
X71667787Y-59088293D01*
X71622558Y-59197486D01*
X71599500Y-59313405D01*
X67325000Y-59313405D01*
X67325000Y-58134618D01*
X67416213Y-58043405D01*
X71599500Y-58043405D01*
X71599500Y-58161595D01*
X71622558Y-58277514D01*
X71667787Y-58386707D01*
X71733450Y-58484978D01*
X71817022Y-58568550D01*
X71915293Y-58634213D01*
X72024486Y-58679442D01*
X72140405Y-58702500D01*
X72258595Y-58702500D01*
X72374514Y-58679442D01*
X72483707Y-58634213D01*
X72581978Y-58568550D01*
X72665550Y-58484978D01*
X72731213Y-58386707D01*
X72743944Y-58355971D01*
X90719000Y-58355971D01*
X90719000Y-58548029D01*
X90756468Y-58736397D01*
X90829966Y-58913836D01*
X90936668Y-59073527D01*
X91072473Y-59209332D01*
X91232164Y-59316034D01*
X91409603Y-59389532D01*
X91597971Y-59427000D01*
X91790029Y-59427000D01*
X91978397Y-59389532D01*
X92155836Y-59316034D01*
X92315527Y-59209332D01*
X92451332Y-59073527D01*
X92558034Y-58913836D01*
X92631532Y-58736397D01*
X92669000Y-58548029D01*
X92669000Y-58355971D01*
X92631532Y-58167603D01*
X92558034Y-57990164D01*
X92451332Y-57830473D01*
X92315527Y-57694668D01*
X92155836Y-57587966D01*
X91978397Y-57514468D01*
X91790029Y-57477000D01*
X91597971Y-57477000D01*
X91409603Y-57514468D01*
X91232164Y-57587966D01*
X91072473Y-57694668D01*
X90936668Y-57830473D01*
X90829966Y-57990164D01*
X90756468Y-58167603D01*
X90719000Y-58355971D01*
X72743944Y-58355971D01*
X72776442Y-58277514D01*
X72799500Y-58161595D01*
X72799500Y-58043405D01*
X72776442Y-57927486D01*
X72731213Y-57818293D01*
X72665550Y-57720022D01*
X72581978Y-57636450D01*
X72483707Y-57570787D01*
X72374514Y-57525558D01*
X72258595Y-57502500D01*
X72140405Y-57502500D01*
X72024486Y-57525558D01*
X71915293Y-57570787D01*
X71817022Y-57636450D01*
X71733450Y-57720022D01*
X71667787Y-57818293D01*
X71622558Y-57927486D01*
X71599500Y-58043405D01*
X67416213Y-58043405D01*
X68686213Y-56773405D01*
X71599500Y-56773405D01*
X71599500Y-56891595D01*
X71622558Y-57007514D01*
X71667787Y-57116707D01*
X71733450Y-57214978D01*
X71817022Y-57298550D01*
X71915293Y-57364213D01*
X72024486Y-57409442D01*
X72140405Y-57432500D01*
X72258595Y-57432500D01*
X72374514Y-57409442D01*
X72483707Y-57364213D01*
X72581978Y-57298550D01*
X72665550Y-57214978D01*
X72731213Y-57116707D01*
X72776442Y-57007514D01*
X72799500Y-56891595D01*
X72799500Y-56773405D01*
X72798009Y-56765905D01*
X87900000Y-56765905D01*
X87900000Y-56884095D01*
X87923058Y-57000014D01*
X87968287Y-57109207D01*
X88033950Y-57207478D01*
X88117522Y-57291050D01*
X88215793Y-57356713D01*
X88324986Y-57401942D01*
X88440905Y-57425000D01*
X88559095Y-57425000D01*
X88675014Y-57401942D01*
X88784207Y-57356713D01*
X88882478Y-57291050D01*
X88966050Y-57207478D01*
X89031713Y-57109207D01*
X89076942Y-57000014D01*
X89100000Y-56884095D01*
X89100000Y-56765905D01*
X89076942Y-56649986D01*
X89031713Y-56540793D01*
X88966050Y-56442522D01*
X88882478Y-56358950D01*
X88784207Y-56293287D01*
X88675014Y-56248058D01*
X88559095Y-56225000D01*
X88440905Y-56225000D01*
X88324986Y-56248058D01*
X88215793Y-56293287D01*
X88117522Y-56358950D01*
X88033950Y-56442522D01*
X87968287Y-56540793D01*
X87923058Y-56649986D01*
X87900000Y-56765905D01*
X72798009Y-56765905D01*
X72776442Y-56657486D01*
X72731213Y-56548293D01*
X72665550Y-56450022D01*
X72581978Y-56366450D01*
X72483707Y-56300787D01*
X72374514Y-56255558D01*
X72258595Y-56232500D01*
X72140405Y-56232500D01*
X72024486Y-56255558D01*
X71915293Y-56300787D01*
X71817022Y-56366450D01*
X71733450Y-56450022D01*
X71667787Y-56548293D01*
X71622558Y-56657486D01*
X71599500Y-56773405D01*
X68686213Y-56773405D01*
X69956214Y-55503405D01*
X87093500Y-55503405D01*
X87093500Y-55621595D01*
X87116558Y-55737514D01*
X87161787Y-55846707D01*
X87227450Y-55944978D01*
X87311022Y-56028550D01*
X87409293Y-56094213D01*
X87518486Y-56139442D01*
X87634405Y-56162500D01*
X87752595Y-56162500D01*
X87868514Y-56139442D01*
X87977707Y-56094213D01*
X88075978Y-56028550D01*
X88159550Y-55944978D01*
X88225213Y-55846707D01*
X88270442Y-55737514D01*
X88293500Y-55621595D01*
X88293500Y-55503405D01*
X88270442Y-55387486D01*
X88225213Y-55278293D01*
X88159550Y-55180022D01*
X88075978Y-55096450D01*
X87977707Y-55030787D01*
X87868514Y-54985558D01*
X87752595Y-54962500D01*
X87634405Y-54962500D01*
X87518486Y-54985558D01*
X87409293Y-55030787D01*
X87311022Y-55096450D01*
X87227450Y-55180022D01*
X87161787Y-55278293D01*
X87116558Y-55387486D01*
X87093500Y-55503405D01*
X69956214Y-55503405D01*
X70218529Y-55241091D01*
X70230921Y-55230921D01*
X70241092Y-55218528D01*
X70241096Y-55218524D01*
X70254408Y-55202303D01*
X70271535Y-55181434D01*
X70301713Y-55124974D01*
X70320297Y-55063711D01*
X70325000Y-55015961D01*
X70325000Y-55015953D01*
X70326571Y-55000000D01*
X70325000Y-54984047D01*
X70325000Y-54233405D01*
X87093500Y-54233405D01*
X87093500Y-54351595D01*
X87116558Y-54467514D01*
X87161787Y-54576707D01*
X87227450Y-54674978D01*
X87311022Y-54758550D01*
X87409293Y-54824213D01*
X87518486Y-54869442D01*
X87634405Y-54892500D01*
X87752595Y-54892500D01*
X87868514Y-54869442D01*
X87977707Y-54824213D01*
X88075978Y-54758550D01*
X88159550Y-54674978D01*
X88225213Y-54576707D01*
X88270442Y-54467514D01*
X88293500Y-54351595D01*
X88293500Y-54233405D01*
X88270442Y-54117486D01*
X88225213Y-54008293D01*
X88159550Y-53910022D01*
X88075978Y-53826450D01*
X87977707Y-53760787D01*
X87868514Y-53715558D01*
X87752595Y-53692500D01*
X87634405Y-53692500D01*
X87518486Y-53715558D01*
X87409293Y-53760787D01*
X87311022Y-53826450D01*
X87227450Y-53910022D01*
X87161787Y-54008293D01*
X87116558Y-54117486D01*
X87093500Y-54233405D01*
X70325000Y-54233405D01*
X70325000Y-52963405D01*
X71599500Y-52963405D01*
X71599500Y-53081595D01*
X71622558Y-53197514D01*
X71667787Y-53306707D01*
X71733450Y-53404978D01*
X71817022Y-53488550D01*
X71915293Y-53554213D01*
X72024486Y-53599442D01*
X72140405Y-53622500D01*
X72258595Y-53622500D01*
X72374514Y-53599442D01*
X72483707Y-53554213D01*
X72581978Y-53488550D01*
X72665550Y-53404978D01*
X72731213Y-53306707D01*
X72776442Y-53197514D01*
X72799500Y-53081595D01*
X72799500Y-52963405D01*
X87093500Y-52963405D01*
X87093500Y-53081595D01*
X87116558Y-53197514D01*
X87161787Y-53306707D01*
X87227450Y-53404978D01*
X87311022Y-53488550D01*
X87409293Y-53554213D01*
X87518486Y-53599442D01*
X87634405Y-53622500D01*
X87752595Y-53622500D01*
X87868514Y-53599442D01*
X87977707Y-53554213D01*
X88075978Y-53488550D01*
X88159550Y-53404978D01*
X88225213Y-53306707D01*
X88270442Y-53197514D01*
X88293500Y-53081595D01*
X88293500Y-52963405D01*
X88270442Y-52847486D01*
X88225213Y-52738293D01*
X88159550Y-52640022D01*
X88075978Y-52556450D01*
X87977707Y-52490787D01*
X87868514Y-52445558D01*
X87752595Y-52422500D01*
X87634405Y-52422500D01*
X87518486Y-52445558D01*
X87409293Y-52490787D01*
X87311022Y-52556450D01*
X87227450Y-52640022D01*
X87161787Y-52738293D01*
X87116558Y-52847486D01*
X87093500Y-52963405D01*
X72799500Y-52963405D01*
X72776442Y-52847486D01*
X72731213Y-52738293D01*
X72665550Y-52640022D01*
X72581978Y-52556450D01*
X72483707Y-52490787D01*
X72374514Y-52445558D01*
X72258595Y-52422500D01*
X72140405Y-52422500D01*
X72024486Y-52445558D01*
X71915293Y-52490787D01*
X71817022Y-52556450D01*
X71733450Y-52640022D01*
X71667787Y-52738293D01*
X71622558Y-52847486D01*
X71599500Y-52963405D01*
X70325000Y-52963405D01*
X70325000Y-51685905D01*
X87900000Y-51685905D01*
X87900000Y-51804095D01*
X87923058Y-51920014D01*
X87968287Y-52029207D01*
X88033950Y-52127478D01*
X88117522Y-52211050D01*
X88215793Y-52276713D01*
X88324986Y-52321942D01*
X88440905Y-52345000D01*
X88559095Y-52345000D01*
X88675014Y-52321942D01*
X88784207Y-52276713D01*
X88882478Y-52211050D01*
X88966050Y-52127478D01*
X89031713Y-52029207D01*
X89076942Y-51920014D01*
X89100000Y-51804095D01*
X89100000Y-51685905D01*
X89076942Y-51569986D01*
X89031713Y-51460793D01*
X88966050Y-51362522D01*
X88882478Y-51278950D01*
X88784207Y-51213287D01*
X88675014Y-51168058D01*
X88559095Y-51145000D01*
X88440905Y-51145000D01*
X88324986Y-51168058D01*
X88215793Y-51213287D01*
X88117522Y-51278950D01*
X88033950Y-51362522D01*
X87968287Y-51460793D01*
X87923058Y-51569986D01*
X87900000Y-51685905D01*
X70325000Y-51685905D01*
X70325000Y-49583528D01*
X70356522Y-49615050D01*
X70454793Y-49680713D01*
X70563986Y-49725942D01*
X70679905Y-49749000D01*
X70798095Y-49749000D01*
X70914014Y-49725942D01*
X71023207Y-49680713D01*
X71121478Y-49615050D01*
X71205050Y-49531478D01*
X71270713Y-49433207D01*
X71315942Y-49324014D01*
X71339000Y-49208095D01*
X71339000Y-49089905D01*
X71315942Y-48973986D01*
X71311353Y-48962905D01*
X84172500Y-48962905D01*
X84172500Y-49081095D01*
X84195558Y-49197014D01*
X84240787Y-49306207D01*
X84306450Y-49404478D01*
X84390022Y-49488050D01*
X84488293Y-49553713D01*
X84597486Y-49598942D01*
X84713405Y-49622000D01*
X84831595Y-49622000D01*
X84947514Y-49598942D01*
X85056707Y-49553713D01*
X85154978Y-49488050D01*
X85238550Y-49404478D01*
X85304213Y-49306207D01*
X85349442Y-49197014D01*
X85372500Y-49081095D01*
X85372500Y-48962905D01*
X85349442Y-48846986D01*
X85304213Y-48737793D01*
X85238550Y-48639522D01*
X85154978Y-48555950D01*
X85056707Y-48490287D01*
X84947514Y-48445058D01*
X84831595Y-48422000D01*
X84713405Y-48422000D01*
X84597486Y-48445058D01*
X84488293Y-48490287D01*
X84390022Y-48555950D01*
X84306450Y-48639522D01*
X84240787Y-48737793D01*
X84195558Y-48846986D01*
X84172500Y-48962905D01*
X71311353Y-48962905D01*
X71270713Y-48864793D01*
X71205050Y-48766522D01*
X71121478Y-48682950D01*
X71023207Y-48617287D01*
X70914014Y-48572058D01*
X70798095Y-48549000D01*
X70679905Y-48549000D01*
X70563986Y-48572058D01*
X70454793Y-48617287D01*
X70356522Y-48682950D01*
X70325000Y-48714472D01*
X70325000Y-47565905D01*
X79283000Y-47565905D01*
X79283000Y-47684095D01*
X79306058Y-47800014D01*
X79351287Y-47909207D01*
X79416950Y-48007478D01*
X79500522Y-48091050D01*
X79598793Y-48156713D01*
X79707986Y-48201942D01*
X79823905Y-48225000D01*
X79942095Y-48225000D01*
X80058014Y-48201942D01*
X80167207Y-48156713D01*
X80265478Y-48091050D01*
X80349050Y-48007478D01*
X80414713Y-47909207D01*
X80459942Y-47800014D01*
X80483000Y-47684095D01*
X80483000Y-47565905D01*
X80459942Y-47449986D01*
X80421987Y-47358354D01*
X80478213Y-47274207D01*
X80523442Y-47165014D01*
X80546500Y-47049095D01*
X80546500Y-46930905D01*
X80523442Y-46814986D01*
X80478213Y-46705793D01*
X80412550Y-46607522D01*
X80328978Y-46523950D01*
X80230707Y-46458287D01*
X80121514Y-46413058D01*
X80005595Y-46390000D01*
X79887405Y-46390000D01*
X79771486Y-46413058D01*
X79662293Y-46458287D01*
X79564022Y-46523950D01*
X79480450Y-46607522D01*
X79414787Y-46705793D01*
X79369558Y-46814986D01*
X79346500Y-46930905D01*
X79346500Y-47049095D01*
X79369558Y-47165014D01*
X79407513Y-47256646D01*
X79351287Y-47340793D01*
X79306058Y-47449986D01*
X79283000Y-47565905D01*
X70325000Y-47565905D01*
X70325000Y-43921520D01*
X70448869Y-43921520D01*
X70448869Y-46420880D01*
X70454661Y-46479690D01*
X70471816Y-46536240D01*
X70499673Y-46588357D01*
X70537162Y-46634038D01*
X70582843Y-46671527D01*
X70634960Y-46699384D01*
X70691510Y-46716539D01*
X70750320Y-46722331D01*
X73249680Y-46722331D01*
X73308490Y-46716539D01*
X73365040Y-46699384D01*
X73417157Y-46671527D01*
X73462838Y-46634038D01*
X73500327Y-46588357D01*
X73528184Y-46536240D01*
X73545339Y-46479690D01*
X73551131Y-46420880D01*
X73551131Y-43921520D01*
X73545339Y-43862710D01*
X73528184Y-43806160D01*
X73500327Y-43754043D01*
X73462838Y-43708362D01*
X73417157Y-43670873D01*
X73365040Y-43643016D01*
X73308490Y-43625861D01*
X73249680Y-43620069D01*
X70750320Y-43620069D01*
X70691510Y-43625861D01*
X70634960Y-43643016D01*
X70582843Y-43670873D01*
X70537162Y-43708362D01*
X70499673Y-43754043D01*
X70471816Y-43806160D01*
X70454661Y-43862710D01*
X70448869Y-43921520D01*
X70325000Y-43921520D01*
X70325000Y-39949000D01*
X71359845Y-39949000D01*
X71265951Y-39987892D01*
M02*
