G04 #@! TF.GenerationSoftware,KiCad,Pcbnew,(5.1.5)-3*
G04 #@! TF.CreationDate,2021-11-09T21:41:46-05:00*
G04 #@! TF.ProjectId,MotorDriver,4d6f746f-7244-4726-9976-65722e6b6963,rev?*
G04 #@! TF.SameCoordinates,Original*
G04 #@! TF.FileFunction,Paste,Top*
G04 #@! TF.FilePolarity,Positive*
%FSLAX46Y46*%
G04 Gerber Fmt 4.6, Leading zero omitted, Abs format (unit mm)*
G04 Created by KiCad (PCBNEW (5.1.5)-3) date 2021-11-09 21:41:46*
%MOMM*%
%LPD*%
G04 APERTURE LIST*
%ADD10C,0.100000*%
%ADD11R,2.700000X0.800000*%
%ADD12R,0.350000X0.500000*%
%ADD13R,0.260000X0.450000*%
%ADD14R,0.450000X0.260000*%
%ADD15R,1.800000X2.550000*%
%ADD16R,0.800000X0.200000*%
%ADD17R,1.000000X1.700000*%
%ADD18R,0.700000X0.300000*%
%ADD19R,2.450000X1.000000*%
%ADD20R,1.000000X2.450000*%
%ADD21R,2.000000X0.900000*%
%ADD22R,0.900000X2.000000*%
%ADD23R,5.000000X5.000000*%
G04 APERTURE END LIST*
D10*
G36*
X80448958Y-42860710D02*
G01*
X80463276Y-42862834D01*
X80477317Y-42866351D01*
X80490946Y-42871228D01*
X80504031Y-42877417D01*
X80516447Y-42884858D01*
X80528073Y-42893481D01*
X80538798Y-42903202D01*
X80548519Y-42913927D01*
X80557142Y-42925553D01*
X80564583Y-42937969D01*
X80570772Y-42951054D01*
X80575649Y-42964683D01*
X80579166Y-42978724D01*
X80581290Y-42993042D01*
X80582000Y-43007500D01*
X80582000Y-43352500D01*
X80581290Y-43366958D01*
X80579166Y-43381276D01*
X80575649Y-43395317D01*
X80570772Y-43408946D01*
X80564583Y-43422031D01*
X80557142Y-43434447D01*
X80548519Y-43446073D01*
X80538798Y-43456798D01*
X80528073Y-43466519D01*
X80516447Y-43475142D01*
X80504031Y-43482583D01*
X80490946Y-43488772D01*
X80477317Y-43493649D01*
X80463276Y-43497166D01*
X80448958Y-43499290D01*
X80434500Y-43500000D01*
X80139500Y-43500000D01*
X80125042Y-43499290D01*
X80110724Y-43497166D01*
X80096683Y-43493649D01*
X80083054Y-43488772D01*
X80069969Y-43482583D01*
X80057553Y-43475142D01*
X80045927Y-43466519D01*
X80035202Y-43456798D01*
X80025481Y-43446073D01*
X80016858Y-43434447D01*
X80009417Y-43422031D01*
X80003228Y-43408946D01*
X79998351Y-43395317D01*
X79994834Y-43381276D01*
X79992710Y-43366958D01*
X79992000Y-43352500D01*
X79992000Y-43007500D01*
X79992710Y-42993042D01*
X79994834Y-42978724D01*
X79998351Y-42964683D01*
X80003228Y-42951054D01*
X80009417Y-42937969D01*
X80016858Y-42925553D01*
X80025481Y-42913927D01*
X80035202Y-42903202D01*
X80045927Y-42893481D01*
X80057553Y-42884858D01*
X80069969Y-42877417D01*
X80083054Y-42871228D01*
X80096683Y-42866351D01*
X80110724Y-42862834D01*
X80125042Y-42860710D01*
X80139500Y-42860000D01*
X80434500Y-42860000D01*
X80448958Y-42860710D01*
G37*
G36*
X81418958Y-42860710D02*
G01*
X81433276Y-42862834D01*
X81447317Y-42866351D01*
X81460946Y-42871228D01*
X81474031Y-42877417D01*
X81486447Y-42884858D01*
X81498073Y-42893481D01*
X81508798Y-42903202D01*
X81518519Y-42913927D01*
X81527142Y-42925553D01*
X81534583Y-42937969D01*
X81540772Y-42951054D01*
X81545649Y-42964683D01*
X81549166Y-42978724D01*
X81551290Y-42993042D01*
X81552000Y-43007500D01*
X81552000Y-43352500D01*
X81551290Y-43366958D01*
X81549166Y-43381276D01*
X81545649Y-43395317D01*
X81540772Y-43408946D01*
X81534583Y-43422031D01*
X81527142Y-43434447D01*
X81518519Y-43446073D01*
X81508798Y-43456798D01*
X81498073Y-43466519D01*
X81486447Y-43475142D01*
X81474031Y-43482583D01*
X81460946Y-43488772D01*
X81447317Y-43493649D01*
X81433276Y-43497166D01*
X81418958Y-43499290D01*
X81404500Y-43500000D01*
X81109500Y-43500000D01*
X81095042Y-43499290D01*
X81080724Y-43497166D01*
X81066683Y-43493649D01*
X81053054Y-43488772D01*
X81039969Y-43482583D01*
X81027553Y-43475142D01*
X81015927Y-43466519D01*
X81005202Y-43456798D01*
X80995481Y-43446073D01*
X80986858Y-43434447D01*
X80979417Y-43422031D01*
X80973228Y-43408946D01*
X80968351Y-43395317D01*
X80964834Y-43381276D01*
X80962710Y-43366958D01*
X80962000Y-43352500D01*
X80962000Y-43007500D01*
X80962710Y-42993042D01*
X80964834Y-42978724D01*
X80968351Y-42964683D01*
X80973228Y-42951054D01*
X80979417Y-42937969D01*
X80986858Y-42925553D01*
X80995481Y-42913927D01*
X81005202Y-42903202D01*
X81015927Y-42893481D01*
X81027553Y-42884858D01*
X81039969Y-42877417D01*
X81053054Y-42871228D01*
X81066683Y-42866351D01*
X81080724Y-42862834D01*
X81095042Y-42860710D01*
X81109500Y-42860000D01*
X81404500Y-42860000D01*
X81418958Y-42860710D01*
G37*
G36*
X80448958Y-43876710D02*
G01*
X80463276Y-43878834D01*
X80477317Y-43882351D01*
X80490946Y-43887228D01*
X80504031Y-43893417D01*
X80516447Y-43900858D01*
X80528073Y-43909481D01*
X80538798Y-43919202D01*
X80548519Y-43929927D01*
X80557142Y-43941553D01*
X80564583Y-43953969D01*
X80570772Y-43967054D01*
X80575649Y-43980683D01*
X80579166Y-43994724D01*
X80581290Y-44009042D01*
X80582000Y-44023500D01*
X80582000Y-44368500D01*
X80581290Y-44382958D01*
X80579166Y-44397276D01*
X80575649Y-44411317D01*
X80570772Y-44424946D01*
X80564583Y-44438031D01*
X80557142Y-44450447D01*
X80548519Y-44462073D01*
X80538798Y-44472798D01*
X80528073Y-44482519D01*
X80516447Y-44491142D01*
X80504031Y-44498583D01*
X80490946Y-44504772D01*
X80477317Y-44509649D01*
X80463276Y-44513166D01*
X80448958Y-44515290D01*
X80434500Y-44516000D01*
X80139500Y-44516000D01*
X80125042Y-44515290D01*
X80110724Y-44513166D01*
X80096683Y-44509649D01*
X80083054Y-44504772D01*
X80069969Y-44498583D01*
X80057553Y-44491142D01*
X80045927Y-44482519D01*
X80035202Y-44472798D01*
X80025481Y-44462073D01*
X80016858Y-44450447D01*
X80009417Y-44438031D01*
X80003228Y-44424946D01*
X79998351Y-44411317D01*
X79994834Y-44397276D01*
X79992710Y-44382958D01*
X79992000Y-44368500D01*
X79992000Y-44023500D01*
X79992710Y-44009042D01*
X79994834Y-43994724D01*
X79998351Y-43980683D01*
X80003228Y-43967054D01*
X80009417Y-43953969D01*
X80016858Y-43941553D01*
X80025481Y-43929927D01*
X80035202Y-43919202D01*
X80045927Y-43909481D01*
X80057553Y-43900858D01*
X80069969Y-43893417D01*
X80083054Y-43887228D01*
X80096683Y-43882351D01*
X80110724Y-43878834D01*
X80125042Y-43876710D01*
X80139500Y-43876000D01*
X80434500Y-43876000D01*
X80448958Y-43876710D01*
G37*
G36*
X81418958Y-43876710D02*
G01*
X81433276Y-43878834D01*
X81447317Y-43882351D01*
X81460946Y-43887228D01*
X81474031Y-43893417D01*
X81486447Y-43900858D01*
X81498073Y-43909481D01*
X81508798Y-43919202D01*
X81518519Y-43929927D01*
X81527142Y-43941553D01*
X81534583Y-43953969D01*
X81540772Y-43967054D01*
X81545649Y-43980683D01*
X81549166Y-43994724D01*
X81551290Y-44009042D01*
X81552000Y-44023500D01*
X81552000Y-44368500D01*
X81551290Y-44382958D01*
X81549166Y-44397276D01*
X81545649Y-44411317D01*
X81540772Y-44424946D01*
X81534583Y-44438031D01*
X81527142Y-44450447D01*
X81518519Y-44462073D01*
X81508798Y-44472798D01*
X81498073Y-44482519D01*
X81486447Y-44491142D01*
X81474031Y-44498583D01*
X81460946Y-44504772D01*
X81447317Y-44509649D01*
X81433276Y-44513166D01*
X81418958Y-44515290D01*
X81404500Y-44516000D01*
X81109500Y-44516000D01*
X81095042Y-44515290D01*
X81080724Y-44513166D01*
X81066683Y-44509649D01*
X81053054Y-44504772D01*
X81039969Y-44498583D01*
X81027553Y-44491142D01*
X81015927Y-44482519D01*
X81005202Y-44472798D01*
X80995481Y-44462073D01*
X80986858Y-44450447D01*
X80979417Y-44438031D01*
X80973228Y-44424946D01*
X80968351Y-44411317D01*
X80964834Y-44397276D01*
X80962710Y-44382958D01*
X80962000Y-44368500D01*
X80962000Y-44023500D01*
X80962710Y-44009042D01*
X80964834Y-43994724D01*
X80968351Y-43980683D01*
X80973228Y-43967054D01*
X80979417Y-43953969D01*
X80986858Y-43941553D01*
X80995481Y-43929927D01*
X81005202Y-43919202D01*
X81015927Y-43909481D01*
X81027553Y-43900858D01*
X81039969Y-43893417D01*
X81053054Y-43887228D01*
X81066683Y-43882351D01*
X81080724Y-43878834D01*
X81095042Y-43876710D01*
X81109500Y-43876000D01*
X81404500Y-43876000D01*
X81418958Y-43876710D01*
G37*
D11*
X83058000Y-71290000D03*
X83058000Y-73490000D03*
D10*
G36*
X75830958Y-48448710D02*
G01*
X75845276Y-48450834D01*
X75859317Y-48454351D01*
X75872946Y-48459228D01*
X75886031Y-48465417D01*
X75898447Y-48472858D01*
X75910073Y-48481481D01*
X75920798Y-48491202D01*
X75930519Y-48501927D01*
X75939142Y-48513553D01*
X75946583Y-48525969D01*
X75952772Y-48539054D01*
X75957649Y-48552683D01*
X75961166Y-48566724D01*
X75963290Y-48581042D01*
X75964000Y-48595500D01*
X75964000Y-48940500D01*
X75963290Y-48954958D01*
X75961166Y-48969276D01*
X75957649Y-48983317D01*
X75952772Y-48996946D01*
X75946583Y-49010031D01*
X75939142Y-49022447D01*
X75930519Y-49034073D01*
X75920798Y-49044798D01*
X75910073Y-49054519D01*
X75898447Y-49063142D01*
X75886031Y-49070583D01*
X75872946Y-49076772D01*
X75859317Y-49081649D01*
X75845276Y-49085166D01*
X75830958Y-49087290D01*
X75816500Y-49088000D01*
X75521500Y-49088000D01*
X75507042Y-49087290D01*
X75492724Y-49085166D01*
X75478683Y-49081649D01*
X75465054Y-49076772D01*
X75451969Y-49070583D01*
X75439553Y-49063142D01*
X75427927Y-49054519D01*
X75417202Y-49044798D01*
X75407481Y-49034073D01*
X75398858Y-49022447D01*
X75391417Y-49010031D01*
X75385228Y-48996946D01*
X75380351Y-48983317D01*
X75376834Y-48969276D01*
X75374710Y-48954958D01*
X75374000Y-48940500D01*
X75374000Y-48595500D01*
X75374710Y-48581042D01*
X75376834Y-48566724D01*
X75380351Y-48552683D01*
X75385228Y-48539054D01*
X75391417Y-48525969D01*
X75398858Y-48513553D01*
X75407481Y-48501927D01*
X75417202Y-48491202D01*
X75427927Y-48481481D01*
X75439553Y-48472858D01*
X75451969Y-48465417D01*
X75465054Y-48459228D01*
X75478683Y-48454351D01*
X75492724Y-48450834D01*
X75507042Y-48448710D01*
X75521500Y-48448000D01*
X75816500Y-48448000D01*
X75830958Y-48448710D01*
G37*
G36*
X74860958Y-48448710D02*
G01*
X74875276Y-48450834D01*
X74889317Y-48454351D01*
X74902946Y-48459228D01*
X74916031Y-48465417D01*
X74928447Y-48472858D01*
X74940073Y-48481481D01*
X74950798Y-48491202D01*
X74960519Y-48501927D01*
X74969142Y-48513553D01*
X74976583Y-48525969D01*
X74982772Y-48539054D01*
X74987649Y-48552683D01*
X74991166Y-48566724D01*
X74993290Y-48581042D01*
X74994000Y-48595500D01*
X74994000Y-48940500D01*
X74993290Y-48954958D01*
X74991166Y-48969276D01*
X74987649Y-48983317D01*
X74982772Y-48996946D01*
X74976583Y-49010031D01*
X74969142Y-49022447D01*
X74960519Y-49034073D01*
X74950798Y-49044798D01*
X74940073Y-49054519D01*
X74928447Y-49063142D01*
X74916031Y-49070583D01*
X74902946Y-49076772D01*
X74889317Y-49081649D01*
X74875276Y-49085166D01*
X74860958Y-49087290D01*
X74846500Y-49088000D01*
X74551500Y-49088000D01*
X74537042Y-49087290D01*
X74522724Y-49085166D01*
X74508683Y-49081649D01*
X74495054Y-49076772D01*
X74481969Y-49070583D01*
X74469553Y-49063142D01*
X74457927Y-49054519D01*
X74447202Y-49044798D01*
X74437481Y-49034073D01*
X74428858Y-49022447D01*
X74421417Y-49010031D01*
X74415228Y-48996946D01*
X74410351Y-48983317D01*
X74406834Y-48969276D01*
X74404710Y-48954958D01*
X74404000Y-48940500D01*
X74404000Y-48595500D01*
X74404710Y-48581042D01*
X74406834Y-48566724D01*
X74410351Y-48552683D01*
X74415228Y-48539054D01*
X74421417Y-48525969D01*
X74428858Y-48513553D01*
X74437481Y-48501927D01*
X74447202Y-48491202D01*
X74457927Y-48481481D01*
X74469553Y-48472858D01*
X74481969Y-48465417D01*
X74495054Y-48459228D01*
X74508683Y-48454351D01*
X74522724Y-48450834D01*
X74537042Y-48448710D01*
X74551500Y-48448000D01*
X74846500Y-48448000D01*
X74860958Y-48448710D01*
G37*
G36*
X85784958Y-75628710D02*
G01*
X85799276Y-75630834D01*
X85813317Y-75634351D01*
X85826946Y-75639228D01*
X85840031Y-75645417D01*
X85852447Y-75652858D01*
X85864073Y-75661481D01*
X85874798Y-75671202D01*
X85884519Y-75681927D01*
X85893142Y-75693553D01*
X85900583Y-75705969D01*
X85906772Y-75719054D01*
X85911649Y-75732683D01*
X85915166Y-75746724D01*
X85917290Y-75761042D01*
X85918000Y-75775500D01*
X85918000Y-76070500D01*
X85917290Y-76084958D01*
X85915166Y-76099276D01*
X85911649Y-76113317D01*
X85906772Y-76126946D01*
X85900583Y-76140031D01*
X85893142Y-76152447D01*
X85884519Y-76164073D01*
X85874798Y-76174798D01*
X85864073Y-76184519D01*
X85852447Y-76193142D01*
X85840031Y-76200583D01*
X85826946Y-76206772D01*
X85813317Y-76211649D01*
X85799276Y-76215166D01*
X85784958Y-76217290D01*
X85770500Y-76218000D01*
X85425500Y-76218000D01*
X85411042Y-76217290D01*
X85396724Y-76215166D01*
X85382683Y-76211649D01*
X85369054Y-76206772D01*
X85355969Y-76200583D01*
X85343553Y-76193142D01*
X85331927Y-76184519D01*
X85321202Y-76174798D01*
X85311481Y-76164073D01*
X85302858Y-76152447D01*
X85295417Y-76140031D01*
X85289228Y-76126946D01*
X85284351Y-76113317D01*
X85280834Y-76099276D01*
X85278710Y-76084958D01*
X85278000Y-76070500D01*
X85278000Y-75775500D01*
X85278710Y-75761042D01*
X85280834Y-75746724D01*
X85284351Y-75732683D01*
X85289228Y-75719054D01*
X85295417Y-75705969D01*
X85302858Y-75693553D01*
X85311481Y-75681927D01*
X85321202Y-75671202D01*
X85331927Y-75661481D01*
X85343553Y-75652858D01*
X85355969Y-75645417D01*
X85369054Y-75639228D01*
X85382683Y-75634351D01*
X85396724Y-75630834D01*
X85411042Y-75628710D01*
X85425500Y-75628000D01*
X85770500Y-75628000D01*
X85784958Y-75628710D01*
G37*
G36*
X85784958Y-74658710D02*
G01*
X85799276Y-74660834D01*
X85813317Y-74664351D01*
X85826946Y-74669228D01*
X85840031Y-74675417D01*
X85852447Y-74682858D01*
X85864073Y-74691481D01*
X85874798Y-74701202D01*
X85884519Y-74711927D01*
X85893142Y-74723553D01*
X85900583Y-74735969D01*
X85906772Y-74749054D01*
X85911649Y-74762683D01*
X85915166Y-74776724D01*
X85917290Y-74791042D01*
X85918000Y-74805500D01*
X85918000Y-75100500D01*
X85917290Y-75114958D01*
X85915166Y-75129276D01*
X85911649Y-75143317D01*
X85906772Y-75156946D01*
X85900583Y-75170031D01*
X85893142Y-75182447D01*
X85884519Y-75194073D01*
X85874798Y-75204798D01*
X85864073Y-75214519D01*
X85852447Y-75223142D01*
X85840031Y-75230583D01*
X85826946Y-75236772D01*
X85813317Y-75241649D01*
X85799276Y-75245166D01*
X85784958Y-75247290D01*
X85770500Y-75248000D01*
X85425500Y-75248000D01*
X85411042Y-75247290D01*
X85396724Y-75245166D01*
X85382683Y-75241649D01*
X85369054Y-75236772D01*
X85355969Y-75230583D01*
X85343553Y-75223142D01*
X85331927Y-75214519D01*
X85321202Y-75204798D01*
X85311481Y-75194073D01*
X85302858Y-75182447D01*
X85295417Y-75170031D01*
X85289228Y-75156946D01*
X85284351Y-75143317D01*
X85280834Y-75129276D01*
X85278710Y-75114958D01*
X85278000Y-75100500D01*
X85278000Y-74805500D01*
X85278710Y-74791042D01*
X85280834Y-74776724D01*
X85284351Y-74762683D01*
X85289228Y-74749054D01*
X85295417Y-74735969D01*
X85302858Y-74723553D01*
X85311481Y-74711927D01*
X85321202Y-74701202D01*
X85331927Y-74691481D01*
X85343553Y-74682858D01*
X85355969Y-74675417D01*
X85369054Y-74669228D01*
X85382683Y-74664351D01*
X85396724Y-74660834D01*
X85411042Y-74658710D01*
X85425500Y-74658000D01*
X85770500Y-74658000D01*
X85784958Y-74658710D01*
G37*
G36*
X86036958Y-70038710D02*
G01*
X86051276Y-70040834D01*
X86065317Y-70044351D01*
X86078946Y-70049228D01*
X86092031Y-70055417D01*
X86104447Y-70062858D01*
X86116073Y-70071481D01*
X86126798Y-70081202D01*
X86136519Y-70091927D01*
X86145142Y-70103553D01*
X86152583Y-70115969D01*
X86158772Y-70129054D01*
X86163649Y-70142683D01*
X86167166Y-70156724D01*
X86169290Y-70171042D01*
X86170000Y-70185500D01*
X86170000Y-70530500D01*
X86169290Y-70544958D01*
X86167166Y-70559276D01*
X86163649Y-70573317D01*
X86158772Y-70586946D01*
X86152583Y-70600031D01*
X86145142Y-70612447D01*
X86136519Y-70624073D01*
X86126798Y-70634798D01*
X86116073Y-70644519D01*
X86104447Y-70653142D01*
X86092031Y-70660583D01*
X86078946Y-70666772D01*
X86065317Y-70671649D01*
X86051276Y-70675166D01*
X86036958Y-70677290D01*
X86022500Y-70678000D01*
X85727500Y-70678000D01*
X85713042Y-70677290D01*
X85698724Y-70675166D01*
X85684683Y-70671649D01*
X85671054Y-70666772D01*
X85657969Y-70660583D01*
X85645553Y-70653142D01*
X85633927Y-70644519D01*
X85623202Y-70634798D01*
X85613481Y-70624073D01*
X85604858Y-70612447D01*
X85597417Y-70600031D01*
X85591228Y-70586946D01*
X85586351Y-70573317D01*
X85582834Y-70559276D01*
X85580710Y-70544958D01*
X85580000Y-70530500D01*
X85580000Y-70185500D01*
X85580710Y-70171042D01*
X85582834Y-70156724D01*
X85586351Y-70142683D01*
X85591228Y-70129054D01*
X85597417Y-70115969D01*
X85604858Y-70103553D01*
X85613481Y-70091927D01*
X85623202Y-70081202D01*
X85633927Y-70071481D01*
X85645553Y-70062858D01*
X85657969Y-70055417D01*
X85671054Y-70049228D01*
X85684683Y-70044351D01*
X85698724Y-70040834D01*
X85713042Y-70038710D01*
X85727500Y-70038000D01*
X86022500Y-70038000D01*
X86036958Y-70038710D01*
G37*
G36*
X87006958Y-70038710D02*
G01*
X87021276Y-70040834D01*
X87035317Y-70044351D01*
X87048946Y-70049228D01*
X87062031Y-70055417D01*
X87074447Y-70062858D01*
X87086073Y-70071481D01*
X87096798Y-70081202D01*
X87106519Y-70091927D01*
X87115142Y-70103553D01*
X87122583Y-70115969D01*
X87128772Y-70129054D01*
X87133649Y-70142683D01*
X87137166Y-70156724D01*
X87139290Y-70171042D01*
X87140000Y-70185500D01*
X87140000Y-70530500D01*
X87139290Y-70544958D01*
X87137166Y-70559276D01*
X87133649Y-70573317D01*
X87128772Y-70586946D01*
X87122583Y-70600031D01*
X87115142Y-70612447D01*
X87106519Y-70624073D01*
X87096798Y-70634798D01*
X87086073Y-70644519D01*
X87074447Y-70653142D01*
X87062031Y-70660583D01*
X87048946Y-70666772D01*
X87035317Y-70671649D01*
X87021276Y-70675166D01*
X87006958Y-70677290D01*
X86992500Y-70678000D01*
X86697500Y-70678000D01*
X86683042Y-70677290D01*
X86668724Y-70675166D01*
X86654683Y-70671649D01*
X86641054Y-70666772D01*
X86627969Y-70660583D01*
X86615553Y-70653142D01*
X86603927Y-70644519D01*
X86593202Y-70634798D01*
X86583481Y-70624073D01*
X86574858Y-70612447D01*
X86567417Y-70600031D01*
X86561228Y-70586946D01*
X86556351Y-70573317D01*
X86552834Y-70559276D01*
X86550710Y-70544958D01*
X86550000Y-70530500D01*
X86550000Y-70185500D01*
X86550710Y-70171042D01*
X86552834Y-70156724D01*
X86556351Y-70142683D01*
X86561228Y-70129054D01*
X86567417Y-70115969D01*
X86574858Y-70103553D01*
X86583481Y-70091927D01*
X86593202Y-70081202D01*
X86603927Y-70071481D01*
X86615553Y-70062858D01*
X86627969Y-70055417D01*
X86641054Y-70049228D01*
X86654683Y-70044351D01*
X86668724Y-70040834D01*
X86683042Y-70038710D01*
X86697500Y-70038000D01*
X86992500Y-70038000D01*
X87006958Y-70038710D01*
G37*
G36*
X75369351Y-73998361D02*
G01*
X75376632Y-73999441D01*
X75383771Y-74001229D01*
X75390701Y-74003709D01*
X75397355Y-74006856D01*
X75403668Y-74010640D01*
X75409579Y-74015024D01*
X75415033Y-74019967D01*
X75419976Y-74025421D01*
X75424360Y-74031332D01*
X75428144Y-74037645D01*
X75431291Y-74044299D01*
X75433771Y-74051229D01*
X75435559Y-74058368D01*
X75436639Y-74065649D01*
X75437000Y-74073000D01*
X75437000Y-74223000D01*
X75436639Y-74230351D01*
X75435559Y-74237632D01*
X75433771Y-74244771D01*
X75431291Y-74251701D01*
X75428144Y-74258355D01*
X75424360Y-74264668D01*
X75419976Y-74270579D01*
X75415033Y-74276033D01*
X75409579Y-74280976D01*
X75403668Y-74285360D01*
X75397355Y-74289144D01*
X75390701Y-74292291D01*
X75383771Y-74294771D01*
X75376632Y-74296559D01*
X75369351Y-74297639D01*
X75362000Y-74298000D01*
X74662000Y-74298000D01*
X74654649Y-74297639D01*
X74647368Y-74296559D01*
X74640229Y-74294771D01*
X74633299Y-74292291D01*
X74626645Y-74289144D01*
X74620332Y-74285360D01*
X74614421Y-74280976D01*
X74608967Y-74276033D01*
X74604024Y-74270579D01*
X74599640Y-74264668D01*
X74595856Y-74258355D01*
X74592709Y-74251701D01*
X74590229Y-74244771D01*
X74588441Y-74237632D01*
X74587361Y-74230351D01*
X74587000Y-74223000D01*
X74587000Y-74073000D01*
X74587361Y-74065649D01*
X74588441Y-74058368D01*
X74590229Y-74051229D01*
X74592709Y-74044299D01*
X74595856Y-74037645D01*
X74599640Y-74031332D01*
X74604024Y-74025421D01*
X74608967Y-74019967D01*
X74614421Y-74015024D01*
X74620332Y-74010640D01*
X74626645Y-74006856D01*
X74633299Y-74003709D01*
X74640229Y-74001229D01*
X74647368Y-73999441D01*
X74654649Y-73998361D01*
X74662000Y-73998000D01*
X75362000Y-73998000D01*
X75369351Y-73998361D01*
G37*
G36*
X75369351Y-73498361D02*
G01*
X75376632Y-73499441D01*
X75383771Y-73501229D01*
X75390701Y-73503709D01*
X75397355Y-73506856D01*
X75403668Y-73510640D01*
X75409579Y-73515024D01*
X75415033Y-73519967D01*
X75419976Y-73525421D01*
X75424360Y-73531332D01*
X75428144Y-73537645D01*
X75431291Y-73544299D01*
X75433771Y-73551229D01*
X75435559Y-73558368D01*
X75436639Y-73565649D01*
X75437000Y-73573000D01*
X75437000Y-73723000D01*
X75436639Y-73730351D01*
X75435559Y-73737632D01*
X75433771Y-73744771D01*
X75431291Y-73751701D01*
X75428144Y-73758355D01*
X75424360Y-73764668D01*
X75419976Y-73770579D01*
X75415033Y-73776033D01*
X75409579Y-73780976D01*
X75403668Y-73785360D01*
X75397355Y-73789144D01*
X75390701Y-73792291D01*
X75383771Y-73794771D01*
X75376632Y-73796559D01*
X75369351Y-73797639D01*
X75362000Y-73798000D01*
X74662000Y-73798000D01*
X74654649Y-73797639D01*
X74647368Y-73796559D01*
X74640229Y-73794771D01*
X74633299Y-73792291D01*
X74626645Y-73789144D01*
X74620332Y-73785360D01*
X74614421Y-73780976D01*
X74608967Y-73776033D01*
X74604024Y-73770579D01*
X74599640Y-73764668D01*
X74595856Y-73758355D01*
X74592709Y-73751701D01*
X74590229Y-73744771D01*
X74588441Y-73737632D01*
X74587361Y-73730351D01*
X74587000Y-73723000D01*
X74587000Y-73573000D01*
X74587361Y-73565649D01*
X74588441Y-73558368D01*
X74590229Y-73551229D01*
X74592709Y-73544299D01*
X74595856Y-73537645D01*
X74599640Y-73531332D01*
X74604024Y-73525421D01*
X74608967Y-73519967D01*
X74614421Y-73515024D01*
X74620332Y-73510640D01*
X74626645Y-73506856D01*
X74633299Y-73503709D01*
X74640229Y-73501229D01*
X74647368Y-73499441D01*
X74654649Y-73498361D01*
X74662000Y-73498000D01*
X75362000Y-73498000D01*
X75369351Y-73498361D01*
G37*
G36*
X75369351Y-72998361D02*
G01*
X75376632Y-72999441D01*
X75383771Y-73001229D01*
X75390701Y-73003709D01*
X75397355Y-73006856D01*
X75403668Y-73010640D01*
X75409579Y-73015024D01*
X75415033Y-73019967D01*
X75419976Y-73025421D01*
X75424360Y-73031332D01*
X75428144Y-73037645D01*
X75431291Y-73044299D01*
X75433771Y-73051229D01*
X75435559Y-73058368D01*
X75436639Y-73065649D01*
X75437000Y-73073000D01*
X75437000Y-73223000D01*
X75436639Y-73230351D01*
X75435559Y-73237632D01*
X75433771Y-73244771D01*
X75431291Y-73251701D01*
X75428144Y-73258355D01*
X75424360Y-73264668D01*
X75419976Y-73270579D01*
X75415033Y-73276033D01*
X75409579Y-73280976D01*
X75403668Y-73285360D01*
X75397355Y-73289144D01*
X75390701Y-73292291D01*
X75383771Y-73294771D01*
X75376632Y-73296559D01*
X75369351Y-73297639D01*
X75362000Y-73298000D01*
X74662000Y-73298000D01*
X74654649Y-73297639D01*
X74647368Y-73296559D01*
X74640229Y-73294771D01*
X74633299Y-73292291D01*
X74626645Y-73289144D01*
X74620332Y-73285360D01*
X74614421Y-73280976D01*
X74608967Y-73276033D01*
X74604024Y-73270579D01*
X74599640Y-73264668D01*
X74595856Y-73258355D01*
X74592709Y-73251701D01*
X74590229Y-73244771D01*
X74588441Y-73237632D01*
X74587361Y-73230351D01*
X74587000Y-73223000D01*
X74587000Y-73073000D01*
X74587361Y-73065649D01*
X74588441Y-73058368D01*
X74590229Y-73051229D01*
X74592709Y-73044299D01*
X74595856Y-73037645D01*
X74599640Y-73031332D01*
X74604024Y-73025421D01*
X74608967Y-73019967D01*
X74614421Y-73015024D01*
X74620332Y-73010640D01*
X74626645Y-73006856D01*
X74633299Y-73003709D01*
X74640229Y-73001229D01*
X74647368Y-72999441D01*
X74654649Y-72998361D01*
X74662000Y-72998000D01*
X75362000Y-72998000D01*
X75369351Y-72998361D01*
G37*
G36*
X75369351Y-72498361D02*
G01*
X75376632Y-72499441D01*
X75383771Y-72501229D01*
X75390701Y-72503709D01*
X75397355Y-72506856D01*
X75403668Y-72510640D01*
X75409579Y-72515024D01*
X75415033Y-72519967D01*
X75419976Y-72525421D01*
X75424360Y-72531332D01*
X75428144Y-72537645D01*
X75431291Y-72544299D01*
X75433771Y-72551229D01*
X75435559Y-72558368D01*
X75436639Y-72565649D01*
X75437000Y-72573000D01*
X75437000Y-72723000D01*
X75436639Y-72730351D01*
X75435559Y-72737632D01*
X75433771Y-72744771D01*
X75431291Y-72751701D01*
X75428144Y-72758355D01*
X75424360Y-72764668D01*
X75419976Y-72770579D01*
X75415033Y-72776033D01*
X75409579Y-72780976D01*
X75403668Y-72785360D01*
X75397355Y-72789144D01*
X75390701Y-72792291D01*
X75383771Y-72794771D01*
X75376632Y-72796559D01*
X75369351Y-72797639D01*
X75362000Y-72798000D01*
X74662000Y-72798000D01*
X74654649Y-72797639D01*
X74647368Y-72796559D01*
X74640229Y-72794771D01*
X74633299Y-72792291D01*
X74626645Y-72789144D01*
X74620332Y-72785360D01*
X74614421Y-72780976D01*
X74608967Y-72776033D01*
X74604024Y-72770579D01*
X74599640Y-72764668D01*
X74595856Y-72758355D01*
X74592709Y-72751701D01*
X74590229Y-72744771D01*
X74588441Y-72737632D01*
X74587361Y-72730351D01*
X74587000Y-72723000D01*
X74587000Y-72573000D01*
X74587361Y-72565649D01*
X74588441Y-72558368D01*
X74590229Y-72551229D01*
X74592709Y-72544299D01*
X74595856Y-72537645D01*
X74599640Y-72531332D01*
X74604024Y-72525421D01*
X74608967Y-72519967D01*
X74614421Y-72515024D01*
X74620332Y-72510640D01*
X74626645Y-72506856D01*
X74633299Y-72503709D01*
X74640229Y-72501229D01*
X74647368Y-72499441D01*
X74654649Y-72498361D01*
X74662000Y-72498000D01*
X75362000Y-72498000D01*
X75369351Y-72498361D01*
G37*
G36*
X75369351Y-71998361D02*
G01*
X75376632Y-71999441D01*
X75383771Y-72001229D01*
X75390701Y-72003709D01*
X75397355Y-72006856D01*
X75403668Y-72010640D01*
X75409579Y-72015024D01*
X75415033Y-72019967D01*
X75419976Y-72025421D01*
X75424360Y-72031332D01*
X75428144Y-72037645D01*
X75431291Y-72044299D01*
X75433771Y-72051229D01*
X75435559Y-72058368D01*
X75436639Y-72065649D01*
X75437000Y-72073000D01*
X75437000Y-72223000D01*
X75436639Y-72230351D01*
X75435559Y-72237632D01*
X75433771Y-72244771D01*
X75431291Y-72251701D01*
X75428144Y-72258355D01*
X75424360Y-72264668D01*
X75419976Y-72270579D01*
X75415033Y-72276033D01*
X75409579Y-72280976D01*
X75403668Y-72285360D01*
X75397355Y-72289144D01*
X75390701Y-72292291D01*
X75383771Y-72294771D01*
X75376632Y-72296559D01*
X75369351Y-72297639D01*
X75362000Y-72298000D01*
X74662000Y-72298000D01*
X74654649Y-72297639D01*
X74647368Y-72296559D01*
X74640229Y-72294771D01*
X74633299Y-72292291D01*
X74626645Y-72289144D01*
X74620332Y-72285360D01*
X74614421Y-72280976D01*
X74608967Y-72276033D01*
X74604024Y-72270579D01*
X74599640Y-72264668D01*
X74595856Y-72258355D01*
X74592709Y-72251701D01*
X74590229Y-72244771D01*
X74588441Y-72237632D01*
X74587361Y-72230351D01*
X74587000Y-72223000D01*
X74587000Y-72073000D01*
X74587361Y-72065649D01*
X74588441Y-72058368D01*
X74590229Y-72051229D01*
X74592709Y-72044299D01*
X74595856Y-72037645D01*
X74599640Y-72031332D01*
X74604024Y-72025421D01*
X74608967Y-72019967D01*
X74614421Y-72015024D01*
X74620332Y-72010640D01*
X74626645Y-72006856D01*
X74633299Y-72003709D01*
X74640229Y-72001229D01*
X74647368Y-71999441D01*
X74654649Y-71998361D01*
X74662000Y-71998000D01*
X75362000Y-71998000D01*
X75369351Y-71998361D01*
G37*
G36*
X75369351Y-71498361D02*
G01*
X75376632Y-71499441D01*
X75383771Y-71501229D01*
X75390701Y-71503709D01*
X75397355Y-71506856D01*
X75403668Y-71510640D01*
X75409579Y-71515024D01*
X75415033Y-71519967D01*
X75419976Y-71525421D01*
X75424360Y-71531332D01*
X75428144Y-71537645D01*
X75431291Y-71544299D01*
X75433771Y-71551229D01*
X75435559Y-71558368D01*
X75436639Y-71565649D01*
X75437000Y-71573000D01*
X75437000Y-71723000D01*
X75436639Y-71730351D01*
X75435559Y-71737632D01*
X75433771Y-71744771D01*
X75431291Y-71751701D01*
X75428144Y-71758355D01*
X75424360Y-71764668D01*
X75419976Y-71770579D01*
X75415033Y-71776033D01*
X75409579Y-71780976D01*
X75403668Y-71785360D01*
X75397355Y-71789144D01*
X75390701Y-71792291D01*
X75383771Y-71794771D01*
X75376632Y-71796559D01*
X75369351Y-71797639D01*
X75362000Y-71798000D01*
X74662000Y-71798000D01*
X74654649Y-71797639D01*
X74647368Y-71796559D01*
X74640229Y-71794771D01*
X74633299Y-71792291D01*
X74626645Y-71789144D01*
X74620332Y-71785360D01*
X74614421Y-71780976D01*
X74608967Y-71776033D01*
X74604024Y-71770579D01*
X74599640Y-71764668D01*
X74595856Y-71758355D01*
X74592709Y-71751701D01*
X74590229Y-71744771D01*
X74588441Y-71737632D01*
X74587361Y-71730351D01*
X74587000Y-71723000D01*
X74587000Y-71573000D01*
X74587361Y-71565649D01*
X74588441Y-71558368D01*
X74590229Y-71551229D01*
X74592709Y-71544299D01*
X74595856Y-71537645D01*
X74599640Y-71531332D01*
X74604024Y-71525421D01*
X74608967Y-71519967D01*
X74614421Y-71515024D01*
X74620332Y-71510640D01*
X74626645Y-71506856D01*
X74633299Y-71503709D01*
X74640229Y-71501229D01*
X74647368Y-71499441D01*
X74654649Y-71498361D01*
X74662000Y-71498000D01*
X75362000Y-71498000D01*
X75369351Y-71498361D01*
G37*
G36*
X75794351Y-70523361D02*
G01*
X75801632Y-70524441D01*
X75808771Y-70526229D01*
X75815701Y-70528709D01*
X75822355Y-70531856D01*
X75828668Y-70535640D01*
X75834579Y-70540024D01*
X75840033Y-70544967D01*
X75844976Y-70550421D01*
X75849360Y-70556332D01*
X75853144Y-70562645D01*
X75856291Y-70569299D01*
X75858771Y-70576229D01*
X75860559Y-70583368D01*
X75861639Y-70590649D01*
X75862000Y-70598000D01*
X75862000Y-71298000D01*
X75861639Y-71305351D01*
X75860559Y-71312632D01*
X75858771Y-71319771D01*
X75856291Y-71326701D01*
X75853144Y-71333355D01*
X75849360Y-71339668D01*
X75844976Y-71345579D01*
X75840033Y-71351033D01*
X75834579Y-71355976D01*
X75828668Y-71360360D01*
X75822355Y-71364144D01*
X75815701Y-71367291D01*
X75808771Y-71369771D01*
X75801632Y-71371559D01*
X75794351Y-71372639D01*
X75787000Y-71373000D01*
X75637000Y-71373000D01*
X75629649Y-71372639D01*
X75622368Y-71371559D01*
X75615229Y-71369771D01*
X75608299Y-71367291D01*
X75601645Y-71364144D01*
X75595332Y-71360360D01*
X75589421Y-71355976D01*
X75583967Y-71351033D01*
X75579024Y-71345579D01*
X75574640Y-71339668D01*
X75570856Y-71333355D01*
X75567709Y-71326701D01*
X75565229Y-71319771D01*
X75563441Y-71312632D01*
X75562361Y-71305351D01*
X75562000Y-71298000D01*
X75562000Y-70598000D01*
X75562361Y-70590649D01*
X75563441Y-70583368D01*
X75565229Y-70576229D01*
X75567709Y-70569299D01*
X75570856Y-70562645D01*
X75574640Y-70556332D01*
X75579024Y-70550421D01*
X75583967Y-70544967D01*
X75589421Y-70540024D01*
X75595332Y-70535640D01*
X75601645Y-70531856D01*
X75608299Y-70528709D01*
X75615229Y-70526229D01*
X75622368Y-70524441D01*
X75629649Y-70523361D01*
X75637000Y-70523000D01*
X75787000Y-70523000D01*
X75794351Y-70523361D01*
G37*
G36*
X76294351Y-70523361D02*
G01*
X76301632Y-70524441D01*
X76308771Y-70526229D01*
X76315701Y-70528709D01*
X76322355Y-70531856D01*
X76328668Y-70535640D01*
X76334579Y-70540024D01*
X76340033Y-70544967D01*
X76344976Y-70550421D01*
X76349360Y-70556332D01*
X76353144Y-70562645D01*
X76356291Y-70569299D01*
X76358771Y-70576229D01*
X76360559Y-70583368D01*
X76361639Y-70590649D01*
X76362000Y-70598000D01*
X76362000Y-71298000D01*
X76361639Y-71305351D01*
X76360559Y-71312632D01*
X76358771Y-71319771D01*
X76356291Y-71326701D01*
X76353144Y-71333355D01*
X76349360Y-71339668D01*
X76344976Y-71345579D01*
X76340033Y-71351033D01*
X76334579Y-71355976D01*
X76328668Y-71360360D01*
X76322355Y-71364144D01*
X76315701Y-71367291D01*
X76308771Y-71369771D01*
X76301632Y-71371559D01*
X76294351Y-71372639D01*
X76287000Y-71373000D01*
X76137000Y-71373000D01*
X76129649Y-71372639D01*
X76122368Y-71371559D01*
X76115229Y-71369771D01*
X76108299Y-71367291D01*
X76101645Y-71364144D01*
X76095332Y-71360360D01*
X76089421Y-71355976D01*
X76083967Y-71351033D01*
X76079024Y-71345579D01*
X76074640Y-71339668D01*
X76070856Y-71333355D01*
X76067709Y-71326701D01*
X76065229Y-71319771D01*
X76063441Y-71312632D01*
X76062361Y-71305351D01*
X76062000Y-71298000D01*
X76062000Y-70598000D01*
X76062361Y-70590649D01*
X76063441Y-70583368D01*
X76065229Y-70576229D01*
X76067709Y-70569299D01*
X76070856Y-70562645D01*
X76074640Y-70556332D01*
X76079024Y-70550421D01*
X76083967Y-70544967D01*
X76089421Y-70540024D01*
X76095332Y-70535640D01*
X76101645Y-70531856D01*
X76108299Y-70528709D01*
X76115229Y-70526229D01*
X76122368Y-70524441D01*
X76129649Y-70523361D01*
X76137000Y-70523000D01*
X76287000Y-70523000D01*
X76294351Y-70523361D01*
G37*
G36*
X76794351Y-70523361D02*
G01*
X76801632Y-70524441D01*
X76808771Y-70526229D01*
X76815701Y-70528709D01*
X76822355Y-70531856D01*
X76828668Y-70535640D01*
X76834579Y-70540024D01*
X76840033Y-70544967D01*
X76844976Y-70550421D01*
X76849360Y-70556332D01*
X76853144Y-70562645D01*
X76856291Y-70569299D01*
X76858771Y-70576229D01*
X76860559Y-70583368D01*
X76861639Y-70590649D01*
X76862000Y-70598000D01*
X76862000Y-71298000D01*
X76861639Y-71305351D01*
X76860559Y-71312632D01*
X76858771Y-71319771D01*
X76856291Y-71326701D01*
X76853144Y-71333355D01*
X76849360Y-71339668D01*
X76844976Y-71345579D01*
X76840033Y-71351033D01*
X76834579Y-71355976D01*
X76828668Y-71360360D01*
X76822355Y-71364144D01*
X76815701Y-71367291D01*
X76808771Y-71369771D01*
X76801632Y-71371559D01*
X76794351Y-71372639D01*
X76787000Y-71373000D01*
X76637000Y-71373000D01*
X76629649Y-71372639D01*
X76622368Y-71371559D01*
X76615229Y-71369771D01*
X76608299Y-71367291D01*
X76601645Y-71364144D01*
X76595332Y-71360360D01*
X76589421Y-71355976D01*
X76583967Y-71351033D01*
X76579024Y-71345579D01*
X76574640Y-71339668D01*
X76570856Y-71333355D01*
X76567709Y-71326701D01*
X76565229Y-71319771D01*
X76563441Y-71312632D01*
X76562361Y-71305351D01*
X76562000Y-71298000D01*
X76562000Y-70598000D01*
X76562361Y-70590649D01*
X76563441Y-70583368D01*
X76565229Y-70576229D01*
X76567709Y-70569299D01*
X76570856Y-70562645D01*
X76574640Y-70556332D01*
X76579024Y-70550421D01*
X76583967Y-70544967D01*
X76589421Y-70540024D01*
X76595332Y-70535640D01*
X76601645Y-70531856D01*
X76608299Y-70528709D01*
X76615229Y-70526229D01*
X76622368Y-70524441D01*
X76629649Y-70523361D01*
X76637000Y-70523000D01*
X76787000Y-70523000D01*
X76794351Y-70523361D01*
G37*
G36*
X77294351Y-70523361D02*
G01*
X77301632Y-70524441D01*
X77308771Y-70526229D01*
X77315701Y-70528709D01*
X77322355Y-70531856D01*
X77328668Y-70535640D01*
X77334579Y-70540024D01*
X77340033Y-70544967D01*
X77344976Y-70550421D01*
X77349360Y-70556332D01*
X77353144Y-70562645D01*
X77356291Y-70569299D01*
X77358771Y-70576229D01*
X77360559Y-70583368D01*
X77361639Y-70590649D01*
X77362000Y-70598000D01*
X77362000Y-71298000D01*
X77361639Y-71305351D01*
X77360559Y-71312632D01*
X77358771Y-71319771D01*
X77356291Y-71326701D01*
X77353144Y-71333355D01*
X77349360Y-71339668D01*
X77344976Y-71345579D01*
X77340033Y-71351033D01*
X77334579Y-71355976D01*
X77328668Y-71360360D01*
X77322355Y-71364144D01*
X77315701Y-71367291D01*
X77308771Y-71369771D01*
X77301632Y-71371559D01*
X77294351Y-71372639D01*
X77287000Y-71373000D01*
X77137000Y-71373000D01*
X77129649Y-71372639D01*
X77122368Y-71371559D01*
X77115229Y-71369771D01*
X77108299Y-71367291D01*
X77101645Y-71364144D01*
X77095332Y-71360360D01*
X77089421Y-71355976D01*
X77083967Y-71351033D01*
X77079024Y-71345579D01*
X77074640Y-71339668D01*
X77070856Y-71333355D01*
X77067709Y-71326701D01*
X77065229Y-71319771D01*
X77063441Y-71312632D01*
X77062361Y-71305351D01*
X77062000Y-71298000D01*
X77062000Y-70598000D01*
X77062361Y-70590649D01*
X77063441Y-70583368D01*
X77065229Y-70576229D01*
X77067709Y-70569299D01*
X77070856Y-70562645D01*
X77074640Y-70556332D01*
X77079024Y-70550421D01*
X77083967Y-70544967D01*
X77089421Y-70540024D01*
X77095332Y-70535640D01*
X77101645Y-70531856D01*
X77108299Y-70528709D01*
X77115229Y-70526229D01*
X77122368Y-70524441D01*
X77129649Y-70523361D01*
X77137000Y-70523000D01*
X77287000Y-70523000D01*
X77294351Y-70523361D01*
G37*
G36*
X77794351Y-70523361D02*
G01*
X77801632Y-70524441D01*
X77808771Y-70526229D01*
X77815701Y-70528709D01*
X77822355Y-70531856D01*
X77828668Y-70535640D01*
X77834579Y-70540024D01*
X77840033Y-70544967D01*
X77844976Y-70550421D01*
X77849360Y-70556332D01*
X77853144Y-70562645D01*
X77856291Y-70569299D01*
X77858771Y-70576229D01*
X77860559Y-70583368D01*
X77861639Y-70590649D01*
X77862000Y-70598000D01*
X77862000Y-71298000D01*
X77861639Y-71305351D01*
X77860559Y-71312632D01*
X77858771Y-71319771D01*
X77856291Y-71326701D01*
X77853144Y-71333355D01*
X77849360Y-71339668D01*
X77844976Y-71345579D01*
X77840033Y-71351033D01*
X77834579Y-71355976D01*
X77828668Y-71360360D01*
X77822355Y-71364144D01*
X77815701Y-71367291D01*
X77808771Y-71369771D01*
X77801632Y-71371559D01*
X77794351Y-71372639D01*
X77787000Y-71373000D01*
X77637000Y-71373000D01*
X77629649Y-71372639D01*
X77622368Y-71371559D01*
X77615229Y-71369771D01*
X77608299Y-71367291D01*
X77601645Y-71364144D01*
X77595332Y-71360360D01*
X77589421Y-71355976D01*
X77583967Y-71351033D01*
X77579024Y-71345579D01*
X77574640Y-71339668D01*
X77570856Y-71333355D01*
X77567709Y-71326701D01*
X77565229Y-71319771D01*
X77563441Y-71312632D01*
X77562361Y-71305351D01*
X77562000Y-71298000D01*
X77562000Y-70598000D01*
X77562361Y-70590649D01*
X77563441Y-70583368D01*
X77565229Y-70576229D01*
X77567709Y-70569299D01*
X77570856Y-70562645D01*
X77574640Y-70556332D01*
X77579024Y-70550421D01*
X77583967Y-70544967D01*
X77589421Y-70540024D01*
X77595332Y-70535640D01*
X77601645Y-70531856D01*
X77608299Y-70528709D01*
X77615229Y-70526229D01*
X77622368Y-70524441D01*
X77629649Y-70523361D01*
X77637000Y-70523000D01*
X77787000Y-70523000D01*
X77794351Y-70523361D01*
G37*
G36*
X78294351Y-70523361D02*
G01*
X78301632Y-70524441D01*
X78308771Y-70526229D01*
X78315701Y-70528709D01*
X78322355Y-70531856D01*
X78328668Y-70535640D01*
X78334579Y-70540024D01*
X78340033Y-70544967D01*
X78344976Y-70550421D01*
X78349360Y-70556332D01*
X78353144Y-70562645D01*
X78356291Y-70569299D01*
X78358771Y-70576229D01*
X78360559Y-70583368D01*
X78361639Y-70590649D01*
X78362000Y-70598000D01*
X78362000Y-71298000D01*
X78361639Y-71305351D01*
X78360559Y-71312632D01*
X78358771Y-71319771D01*
X78356291Y-71326701D01*
X78353144Y-71333355D01*
X78349360Y-71339668D01*
X78344976Y-71345579D01*
X78340033Y-71351033D01*
X78334579Y-71355976D01*
X78328668Y-71360360D01*
X78322355Y-71364144D01*
X78315701Y-71367291D01*
X78308771Y-71369771D01*
X78301632Y-71371559D01*
X78294351Y-71372639D01*
X78287000Y-71373000D01*
X78137000Y-71373000D01*
X78129649Y-71372639D01*
X78122368Y-71371559D01*
X78115229Y-71369771D01*
X78108299Y-71367291D01*
X78101645Y-71364144D01*
X78095332Y-71360360D01*
X78089421Y-71355976D01*
X78083967Y-71351033D01*
X78079024Y-71345579D01*
X78074640Y-71339668D01*
X78070856Y-71333355D01*
X78067709Y-71326701D01*
X78065229Y-71319771D01*
X78063441Y-71312632D01*
X78062361Y-71305351D01*
X78062000Y-71298000D01*
X78062000Y-70598000D01*
X78062361Y-70590649D01*
X78063441Y-70583368D01*
X78065229Y-70576229D01*
X78067709Y-70569299D01*
X78070856Y-70562645D01*
X78074640Y-70556332D01*
X78079024Y-70550421D01*
X78083967Y-70544967D01*
X78089421Y-70540024D01*
X78095332Y-70535640D01*
X78101645Y-70531856D01*
X78108299Y-70528709D01*
X78115229Y-70526229D01*
X78122368Y-70524441D01*
X78129649Y-70523361D01*
X78137000Y-70523000D01*
X78287000Y-70523000D01*
X78294351Y-70523361D01*
G37*
G36*
X79269351Y-71498361D02*
G01*
X79276632Y-71499441D01*
X79283771Y-71501229D01*
X79290701Y-71503709D01*
X79297355Y-71506856D01*
X79303668Y-71510640D01*
X79309579Y-71515024D01*
X79315033Y-71519967D01*
X79319976Y-71525421D01*
X79324360Y-71531332D01*
X79328144Y-71537645D01*
X79331291Y-71544299D01*
X79333771Y-71551229D01*
X79335559Y-71558368D01*
X79336639Y-71565649D01*
X79337000Y-71573000D01*
X79337000Y-71723000D01*
X79336639Y-71730351D01*
X79335559Y-71737632D01*
X79333771Y-71744771D01*
X79331291Y-71751701D01*
X79328144Y-71758355D01*
X79324360Y-71764668D01*
X79319976Y-71770579D01*
X79315033Y-71776033D01*
X79309579Y-71780976D01*
X79303668Y-71785360D01*
X79297355Y-71789144D01*
X79290701Y-71792291D01*
X79283771Y-71794771D01*
X79276632Y-71796559D01*
X79269351Y-71797639D01*
X79262000Y-71798000D01*
X78562000Y-71798000D01*
X78554649Y-71797639D01*
X78547368Y-71796559D01*
X78540229Y-71794771D01*
X78533299Y-71792291D01*
X78526645Y-71789144D01*
X78520332Y-71785360D01*
X78514421Y-71780976D01*
X78508967Y-71776033D01*
X78504024Y-71770579D01*
X78499640Y-71764668D01*
X78495856Y-71758355D01*
X78492709Y-71751701D01*
X78490229Y-71744771D01*
X78488441Y-71737632D01*
X78487361Y-71730351D01*
X78487000Y-71723000D01*
X78487000Y-71573000D01*
X78487361Y-71565649D01*
X78488441Y-71558368D01*
X78490229Y-71551229D01*
X78492709Y-71544299D01*
X78495856Y-71537645D01*
X78499640Y-71531332D01*
X78504024Y-71525421D01*
X78508967Y-71519967D01*
X78514421Y-71515024D01*
X78520332Y-71510640D01*
X78526645Y-71506856D01*
X78533299Y-71503709D01*
X78540229Y-71501229D01*
X78547368Y-71499441D01*
X78554649Y-71498361D01*
X78562000Y-71498000D01*
X79262000Y-71498000D01*
X79269351Y-71498361D01*
G37*
G36*
X79269351Y-71998361D02*
G01*
X79276632Y-71999441D01*
X79283771Y-72001229D01*
X79290701Y-72003709D01*
X79297355Y-72006856D01*
X79303668Y-72010640D01*
X79309579Y-72015024D01*
X79315033Y-72019967D01*
X79319976Y-72025421D01*
X79324360Y-72031332D01*
X79328144Y-72037645D01*
X79331291Y-72044299D01*
X79333771Y-72051229D01*
X79335559Y-72058368D01*
X79336639Y-72065649D01*
X79337000Y-72073000D01*
X79337000Y-72223000D01*
X79336639Y-72230351D01*
X79335559Y-72237632D01*
X79333771Y-72244771D01*
X79331291Y-72251701D01*
X79328144Y-72258355D01*
X79324360Y-72264668D01*
X79319976Y-72270579D01*
X79315033Y-72276033D01*
X79309579Y-72280976D01*
X79303668Y-72285360D01*
X79297355Y-72289144D01*
X79290701Y-72292291D01*
X79283771Y-72294771D01*
X79276632Y-72296559D01*
X79269351Y-72297639D01*
X79262000Y-72298000D01*
X78562000Y-72298000D01*
X78554649Y-72297639D01*
X78547368Y-72296559D01*
X78540229Y-72294771D01*
X78533299Y-72292291D01*
X78526645Y-72289144D01*
X78520332Y-72285360D01*
X78514421Y-72280976D01*
X78508967Y-72276033D01*
X78504024Y-72270579D01*
X78499640Y-72264668D01*
X78495856Y-72258355D01*
X78492709Y-72251701D01*
X78490229Y-72244771D01*
X78488441Y-72237632D01*
X78487361Y-72230351D01*
X78487000Y-72223000D01*
X78487000Y-72073000D01*
X78487361Y-72065649D01*
X78488441Y-72058368D01*
X78490229Y-72051229D01*
X78492709Y-72044299D01*
X78495856Y-72037645D01*
X78499640Y-72031332D01*
X78504024Y-72025421D01*
X78508967Y-72019967D01*
X78514421Y-72015024D01*
X78520332Y-72010640D01*
X78526645Y-72006856D01*
X78533299Y-72003709D01*
X78540229Y-72001229D01*
X78547368Y-71999441D01*
X78554649Y-71998361D01*
X78562000Y-71998000D01*
X79262000Y-71998000D01*
X79269351Y-71998361D01*
G37*
G36*
X79269351Y-72498361D02*
G01*
X79276632Y-72499441D01*
X79283771Y-72501229D01*
X79290701Y-72503709D01*
X79297355Y-72506856D01*
X79303668Y-72510640D01*
X79309579Y-72515024D01*
X79315033Y-72519967D01*
X79319976Y-72525421D01*
X79324360Y-72531332D01*
X79328144Y-72537645D01*
X79331291Y-72544299D01*
X79333771Y-72551229D01*
X79335559Y-72558368D01*
X79336639Y-72565649D01*
X79337000Y-72573000D01*
X79337000Y-72723000D01*
X79336639Y-72730351D01*
X79335559Y-72737632D01*
X79333771Y-72744771D01*
X79331291Y-72751701D01*
X79328144Y-72758355D01*
X79324360Y-72764668D01*
X79319976Y-72770579D01*
X79315033Y-72776033D01*
X79309579Y-72780976D01*
X79303668Y-72785360D01*
X79297355Y-72789144D01*
X79290701Y-72792291D01*
X79283771Y-72794771D01*
X79276632Y-72796559D01*
X79269351Y-72797639D01*
X79262000Y-72798000D01*
X78562000Y-72798000D01*
X78554649Y-72797639D01*
X78547368Y-72796559D01*
X78540229Y-72794771D01*
X78533299Y-72792291D01*
X78526645Y-72789144D01*
X78520332Y-72785360D01*
X78514421Y-72780976D01*
X78508967Y-72776033D01*
X78504024Y-72770579D01*
X78499640Y-72764668D01*
X78495856Y-72758355D01*
X78492709Y-72751701D01*
X78490229Y-72744771D01*
X78488441Y-72737632D01*
X78487361Y-72730351D01*
X78487000Y-72723000D01*
X78487000Y-72573000D01*
X78487361Y-72565649D01*
X78488441Y-72558368D01*
X78490229Y-72551229D01*
X78492709Y-72544299D01*
X78495856Y-72537645D01*
X78499640Y-72531332D01*
X78504024Y-72525421D01*
X78508967Y-72519967D01*
X78514421Y-72515024D01*
X78520332Y-72510640D01*
X78526645Y-72506856D01*
X78533299Y-72503709D01*
X78540229Y-72501229D01*
X78547368Y-72499441D01*
X78554649Y-72498361D01*
X78562000Y-72498000D01*
X79262000Y-72498000D01*
X79269351Y-72498361D01*
G37*
G36*
X79269351Y-72998361D02*
G01*
X79276632Y-72999441D01*
X79283771Y-73001229D01*
X79290701Y-73003709D01*
X79297355Y-73006856D01*
X79303668Y-73010640D01*
X79309579Y-73015024D01*
X79315033Y-73019967D01*
X79319976Y-73025421D01*
X79324360Y-73031332D01*
X79328144Y-73037645D01*
X79331291Y-73044299D01*
X79333771Y-73051229D01*
X79335559Y-73058368D01*
X79336639Y-73065649D01*
X79337000Y-73073000D01*
X79337000Y-73223000D01*
X79336639Y-73230351D01*
X79335559Y-73237632D01*
X79333771Y-73244771D01*
X79331291Y-73251701D01*
X79328144Y-73258355D01*
X79324360Y-73264668D01*
X79319976Y-73270579D01*
X79315033Y-73276033D01*
X79309579Y-73280976D01*
X79303668Y-73285360D01*
X79297355Y-73289144D01*
X79290701Y-73292291D01*
X79283771Y-73294771D01*
X79276632Y-73296559D01*
X79269351Y-73297639D01*
X79262000Y-73298000D01*
X78562000Y-73298000D01*
X78554649Y-73297639D01*
X78547368Y-73296559D01*
X78540229Y-73294771D01*
X78533299Y-73292291D01*
X78526645Y-73289144D01*
X78520332Y-73285360D01*
X78514421Y-73280976D01*
X78508967Y-73276033D01*
X78504024Y-73270579D01*
X78499640Y-73264668D01*
X78495856Y-73258355D01*
X78492709Y-73251701D01*
X78490229Y-73244771D01*
X78488441Y-73237632D01*
X78487361Y-73230351D01*
X78487000Y-73223000D01*
X78487000Y-73073000D01*
X78487361Y-73065649D01*
X78488441Y-73058368D01*
X78490229Y-73051229D01*
X78492709Y-73044299D01*
X78495856Y-73037645D01*
X78499640Y-73031332D01*
X78504024Y-73025421D01*
X78508967Y-73019967D01*
X78514421Y-73015024D01*
X78520332Y-73010640D01*
X78526645Y-73006856D01*
X78533299Y-73003709D01*
X78540229Y-73001229D01*
X78547368Y-72999441D01*
X78554649Y-72998361D01*
X78562000Y-72998000D01*
X79262000Y-72998000D01*
X79269351Y-72998361D01*
G37*
G36*
X79269351Y-73498361D02*
G01*
X79276632Y-73499441D01*
X79283771Y-73501229D01*
X79290701Y-73503709D01*
X79297355Y-73506856D01*
X79303668Y-73510640D01*
X79309579Y-73515024D01*
X79315033Y-73519967D01*
X79319976Y-73525421D01*
X79324360Y-73531332D01*
X79328144Y-73537645D01*
X79331291Y-73544299D01*
X79333771Y-73551229D01*
X79335559Y-73558368D01*
X79336639Y-73565649D01*
X79337000Y-73573000D01*
X79337000Y-73723000D01*
X79336639Y-73730351D01*
X79335559Y-73737632D01*
X79333771Y-73744771D01*
X79331291Y-73751701D01*
X79328144Y-73758355D01*
X79324360Y-73764668D01*
X79319976Y-73770579D01*
X79315033Y-73776033D01*
X79309579Y-73780976D01*
X79303668Y-73785360D01*
X79297355Y-73789144D01*
X79290701Y-73792291D01*
X79283771Y-73794771D01*
X79276632Y-73796559D01*
X79269351Y-73797639D01*
X79262000Y-73798000D01*
X78562000Y-73798000D01*
X78554649Y-73797639D01*
X78547368Y-73796559D01*
X78540229Y-73794771D01*
X78533299Y-73792291D01*
X78526645Y-73789144D01*
X78520332Y-73785360D01*
X78514421Y-73780976D01*
X78508967Y-73776033D01*
X78504024Y-73770579D01*
X78499640Y-73764668D01*
X78495856Y-73758355D01*
X78492709Y-73751701D01*
X78490229Y-73744771D01*
X78488441Y-73737632D01*
X78487361Y-73730351D01*
X78487000Y-73723000D01*
X78487000Y-73573000D01*
X78487361Y-73565649D01*
X78488441Y-73558368D01*
X78490229Y-73551229D01*
X78492709Y-73544299D01*
X78495856Y-73537645D01*
X78499640Y-73531332D01*
X78504024Y-73525421D01*
X78508967Y-73519967D01*
X78514421Y-73515024D01*
X78520332Y-73510640D01*
X78526645Y-73506856D01*
X78533299Y-73503709D01*
X78540229Y-73501229D01*
X78547368Y-73499441D01*
X78554649Y-73498361D01*
X78562000Y-73498000D01*
X79262000Y-73498000D01*
X79269351Y-73498361D01*
G37*
G36*
X79269351Y-73998361D02*
G01*
X79276632Y-73999441D01*
X79283771Y-74001229D01*
X79290701Y-74003709D01*
X79297355Y-74006856D01*
X79303668Y-74010640D01*
X79309579Y-74015024D01*
X79315033Y-74019967D01*
X79319976Y-74025421D01*
X79324360Y-74031332D01*
X79328144Y-74037645D01*
X79331291Y-74044299D01*
X79333771Y-74051229D01*
X79335559Y-74058368D01*
X79336639Y-74065649D01*
X79337000Y-74073000D01*
X79337000Y-74223000D01*
X79336639Y-74230351D01*
X79335559Y-74237632D01*
X79333771Y-74244771D01*
X79331291Y-74251701D01*
X79328144Y-74258355D01*
X79324360Y-74264668D01*
X79319976Y-74270579D01*
X79315033Y-74276033D01*
X79309579Y-74280976D01*
X79303668Y-74285360D01*
X79297355Y-74289144D01*
X79290701Y-74292291D01*
X79283771Y-74294771D01*
X79276632Y-74296559D01*
X79269351Y-74297639D01*
X79262000Y-74298000D01*
X78562000Y-74298000D01*
X78554649Y-74297639D01*
X78547368Y-74296559D01*
X78540229Y-74294771D01*
X78533299Y-74292291D01*
X78526645Y-74289144D01*
X78520332Y-74285360D01*
X78514421Y-74280976D01*
X78508967Y-74276033D01*
X78504024Y-74270579D01*
X78499640Y-74264668D01*
X78495856Y-74258355D01*
X78492709Y-74251701D01*
X78490229Y-74244771D01*
X78488441Y-74237632D01*
X78487361Y-74230351D01*
X78487000Y-74223000D01*
X78487000Y-74073000D01*
X78487361Y-74065649D01*
X78488441Y-74058368D01*
X78490229Y-74051229D01*
X78492709Y-74044299D01*
X78495856Y-74037645D01*
X78499640Y-74031332D01*
X78504024Y-74025421D01*
X78508967Y-74019967D01*
X78514421Y-74015024D01*
X78520332Y-74010640D01*
X78526645Y-74006856D01*
X78533299Y-74003709D01*
X78540229Y-74001229D01*
X78547368Y-73999441D01*
X78554649Y-73998361D01*
X78562000Y-73998000D01*
X79262000Y-73998000D01*
X79269351Y-73998361D01*
G37*
G36*
X78294351Y-74423361D02*
G01*
X78301632Y-74424441D01*
X78308771Y-74426229D01*
X78315701Y-74428709D01*
X78322355Y-74431856D01*
X78328668Y-74435640D01*
X78334579Y-74440024D01*
X78340033Y-74444967D01*
X78344976Y-74450421D01*
X78349360Y-74456332D01*
X78353144Y-74462645D01*
X78356291Y-74469299D01*
X78358771Y-74476229D01*
X78360559Y-74483368D01*
X78361639Y-74490649D01*
X78362000Y-74498000D01*
X78362000Y-75198000D01*
X78361639Y-75205351D01*
X78360559Y-75212632D01*
X78358771Y-75219771D01*
X78356291Y-75226701D01*
X78353144Y-75233355D01*
X78349360Y-75239668D01*
X78344976Y-75245579D01*
X78340033Y-75251033D01*
X78334579Y-75255976D01*
X78328668Y-75260360D01*
X78322355Y-75264144D01*
X78315701Y-75267291D01*
X78308771Y-75269771D01*
X78301632Y-75271559D01*
X78294351Y-75272639D01*
X78287000Y-75273000D01*
X78137000Y-75273000D01*
X78129649Y-75272639D01*
X78122368Y-75271559D01*
X78115229Y-75269771D01*
X78108299Y-75267291D01*
X78101645Y-75264144D01*
X78095332Y-75260360D01*
X78089421Y-75255976D01*
X78083967Y-75251033D01*
X78079024Y-75245579D01*
X78074640Y-75239668D01*
X78070856Y-75233355D01*
X78067709Y-75226701D01*
X78065229Y-75219771D01*
X78063441Y-75212632D01*
X78062361Y-75205351D01*
X78062000Y-75198000D01*
X78062000Y-74498000D01*
X78062361Y-74490649D01*
X78063441Y-74483368D01*
X78065229Y-74476229D01*
X78067709Y-74469299D01*
X78070856Y-74462645D01*
X78074640Y-74456332D01*
X78079024Y-74450421D01*
X78083967Y-74444967D01*
X78089421Y-74440024D01*
X78095332Y-74435640D01*
X78101645Y-74431856D01*
X78108299Y-74428709D01*
X78115229Y-74426229D01*
X78122368Y-74424441D01*
X78129649Y-74423361D01*
X78137000Y-74423000D01*
X78287000Y-74423000D01*
X78294351Y-74423361D01*
G37*
G36*
X77794351Y-74423361D02*
G01*
X77801632Y-74424441D01*
X77808771Y-74426229D01*
X77815701Y-74428709D01*
X77822355Y-74431856D01*
X77828668Y-74435640D01*
X77834579Y-74440024D01*
X77840033Y-74444967D01*
X77844976Y-74450421D01*
X77849360Y-74456332D01*
X77853144Y-74462645D01*
X77856291Y-74469299D01*
X77858771Y-74476229D01*
X77860559Y-74483368D01*
X77861639Y-74490649D01*
X77862000Y-74498000D01*
X77862000Y-75198000D01*
X77861639Y-75205351D01*
X77860559Y-75212632D01*
X77858771Y-75219771D01*
X77856291Y-75226701D01*
X77853144Y-75233355D01*
X77849360Y-75239668D01*
X77844976Y-75245579D01*
X77840033Y-75251033D01*
X77834579Y-75255976D01*
X77828668Y-75260360D01*
X77822355Y-75264144D01*
X77815701Y-75267291D01*
X77808771Y-75269771D01*
X77801632Y-75271559D01*
X77794351Y-75272639D01*
X77787000Y-75273000D01*
X77637000Y-75273000D01*
X77629649Y-75272639D01*
X77622368Y-75271559D01*
X77615229Y-75269771D01*
X77608299Y-75267291D01*
X77601645Y-75264144D01*
X77595332Y-75260360D01*
X77589421Y-75255976D01*
X77583967Y-75251033D01*
X77579024Y-75245579D01*
X77574640Y-75239668D01*
X77570856Y-75233355D01*
X77567709Y-75226701D01*
X77565229Y-75219771D01*
X77563441Y-75212632D01*
X77562361Y-75205351D01*
X77562000Y-75198000D01*
X77562000Y-74498000D01*
X77562361Y-74490649D01*
X77563441Y-74483368D01*
X77565229Y-74476229D01*
X77567709Y-74469299D01*
X77570856Y-74462645D01*
X77574640Y-74456332D01*
X77579024Y-74450421D01*
X77583967Y-74444967D01*
X77589421Y-74440024D01*
X77595332Y-74435640D01*
X77601645Y-74431856D01*
X77608299Y-74428709D01*
X77615229Y-74426229D01*
X77622368Y-74424441D01*
X77629649Y-74423361D01*
X77637000Y-74423000D01*
X77787000Y-74423000D01*
X77794351Y-74423361D01*
G37*
G36*
X77294351Y-74423361D02*
G01*
X77301632Y-74424441D01*
X77308771Y-74426229D01*
X77315701Y-74428709D01*
X77322355Y-74431856D01*
X77328668Y-74435640D01*
X77334579Y-74440024D01*
X77340033Y-74444967D01*
X77344976Y-74450421D01*
X77349360Y-74456332D01*
X77353144Y-74462645D01*
X77356291Y-74469299D01*
X77358771Y-74476229D01*
X77360559Y-74483368D01*
X77361639Y-74490649D01*
X77362000Y-74498000D01*
X77362000Y-75198000D01*
X77361639Y-75205351D01*
X77360559Y-75212632D01*
X77358771Y-75219771D01*
X77356291Y-75226701D01*
X77353144Y-75233355D01*
X77349360Y-75239668D01*
X77344976Y-75245579D01*
X77340033Y-75251033D01*
X77334579Y-75255976D01*
X77328668Y-75260360D01*
X77322355Y-75264144D01*
X77315701Y-75267291D01*
X77308771Y-75269771D01*
X77301632Y-75271559D01*
X77294351Y-75272639D01*
X77287000Y-75273000D01*
X77137000Y-75273000D01*
X77129649Y-75272639D01*
X77122368Y-75271559D01*
X77115229Y-75269771D01*
X77108299Y-75267291D01*
X77101645Y-75264144D01*
X77095332Y-75260360D01*
X77089421Y-75255976D01*
X77083967Y-75251033D01*
X77079024Y-75245579D01*
X77074640Y-75239668D01*
X77070856Y-75233355D01*
X77067709Y-75226701D01*
X77065229Y-75219771D01*
X77063441Y-75212632D01*
X77062361Y-75205351D01*
X77062000Y-75198000D01*
X77062000Y-74498000D01*
X77062361Y-74490649D01*
X77063441Y-74483368D01*
X77065229Y-74476229D01*
X77067709Y-74469299D01*
X77070856Y-74462645D01*
X77074640Y-74456332D01*
X77079024Y-74450421D01*
X77083967Y-74444967D01*
X77089421Y-74440024D01*
X77095332Y-74435640D01*
X77101645Y-74431856D01*
X77108299Y-74428709D01*
X77115229Y-74426229D01*
X77122368Y-74424441D01*
X77129649Y-74423361D01*
X77137000Y-74423000D01*
X77287000Y-74423000D01*
X77294351Y-74423361D01*
G37*
G36*
X76794351Y-74423361D02*
G01*
X76801632Y-74424441D01*
X76808771Y-74426229D01*
X76815701Y-74428709D01*
X76822355Y-74431856D01*
X76828668Y-74435640D01*
X76834579Y-74440024D01*
X76840033Y-74444967D01*
X76844976Y-74450421D01*
X76849360Y-74456332D01*
X76853144Y-74462645D01*
X76856291Y-74469299D01*
X76858771Y-74476229D01*
X76860559Y-74483368D01*
X76861639Y-74490649D01*
X76862000Y-74498000D01*
X76862000Y-75198000D01*
X76861639Y-75205351D01*
X76860559Y-75212632D01*
X76858771Y-75219771D01*
X76856291Y-75226701D01*
X76853144Y-75233355D01*
X76849360Y-75239668D01*
X76844976Y-75245579D01*
X76840033Y-75251033D01*
X76834579Y-75255976D01*
X76828668Y-75260360D01*
X76822355Y-75264144D01*
X76815701Y-75267291D01*
X76808771Y-75269771D01*
X76801632Y-75271559D01*
X76794351Y-75272639D01*
X76787000Y-75273000D01*
X76637000Y-75273000D01*
X76629649Y-75272639D01*
X76622368Y-75271559D01*
X76615229Y-75269771D01*
X76608299Y-75267291D01*
X76601645Y-75264144D01*
X76595332Y-75260360D01*
X76589421Y-75255976D01*
X76583967Y-75251033D01*
X76579024Y-75245579D01*
X76574640Y-75239668D01*
X76570856Y-75233355D01*
X76567709Y-75226701D01*
X76565229Y-75219771D01*
X76563441Y-75212632D01*
X76562361Y-75205351D01*
X76562000Y-75198000D01*
X76562000Y-74498000D01*
X76562361Y-74490649D01*
X76563441Y-74483368D01*
X76565229Y-74476229D01*
X76567709Y-74469299D01*
X76570856Y-74462645D01*
X76574640Y-74456332D01*
X76579024Y-74450421D01*
X76583967Y-74444967D01*
X76589421Y-74440024D01*
X76595332Y-74435640D01*
X76601645Y-74431856D01*
X76608299Y-74428709D01*
X76615229Y-74426229D01*
X76622368Y-74424441D01*
X76629649Y-74423361D01*
X76637000Y-74423000D01*
X76787000Y-74423000D01*
X76794351Y-74423361D01*
G37*
G36*
X76294351Y-74423361D02*
G01*
X76301632Y-74424441D01*
X76308771Y-74426229D01*
X76315701Y-74428709D01*
X76322355Y-74431856D01*
X76328668Y-74435640D01*
X76334579Y-74440024D01*
X76340033Y-74444967D01*
X76344976Y-74450421D01*
X76349360Y-74456332D01*
X76353144Y-74462645D01*
X76356291Y-74469299D01*
X76358771Y-74476229D01*
X76360559Y-74483368D01*
X76361639Y-74490649D01*
X76362000Y-74498000D01*
X76362000Y-75198000D01*
X76361639Y-75205351D01*
X76360559Y-75212632D01*
X76358771Y-75219771D01*
X76356291Y-75226701D01*
X76353144Y-75233355D01*
X76349360Y-75239668D01*
X76344976Y-75245579D01*
X76340033Y-75251033D01*
X76334579Y-75255976D01*
X76328668Y-75260360D01*
X76322355Y-75264144D01*
X76315701Y-75267291D01*
X76308771Y-75269771D01*
X76301632Y-75271559D01*
X76294351Y-75272639D01*
X76287000Y-75273000D01*
X76137000Y-75273000D01*
X76129649Y-75272639D01*
X76122368Y-75271559D01*
X76115229Y-75269771D01*
X76108299Y-75267291D01*
X76101645Y-75264144D01*
X76095332Y-75260360D01*
X76089421Y-75255976D01*
X76083967Y-75251033D01*
X76079024Y-75245579D01*
X76074640Y-75239668D01*
X76070856Y-75233355D01*
X76067709Y-75226701D01*
X76065229Y-75219771D01*
X76063441Y-75212632D01*
X76062361Y-75205351D01*
X76062000Y-75198000D01*
X76062000Y-74498000D01*
X76062361Y-74490649D01*
X76063441Y-74483368D01*
X76065229Y-74476229D01*
X76067709Y-74469299D01*
X76070856Y-74462645D01*
X76074640Y-74456332D01*
X76079024Y-74450421D01*
X76083967Y-74444967D01*
X76089421Y-74440024D01*
X76095332Y-74435640D01*
X76101645Y-74431856D01*
X76108299Y-74428709D01*
X76115229Y-74426229D01*
X76122368Y-74424441D01*
X76129649Y-74423361D01*
X76137000Y-74423000D01*
X76287000Y-74423000D01*
X76294351Y-74423361D01*
G37*
G36*
X75794351Y-74423361D02*
G01*
X75801632Y-74424441D01*
X75808771Y-74426229D01*
X75815701Y-74428709D01*
X75822355Y-74431856D01*
X75828668Y-74435640D01*
X75834579Y-74440024D01*
X75840033Y-74444967D01*
X75844976Y-74450421D01*
X75849360Y-74456332D01*
X75853144Y-74462645D01*
X75856291Y-74469299D01*
X75858771Y-74476229D01*
X75860559Y-74483368D01*
X75861639Y-74490649D01*
X75862000Y-74498000D01*
X75862000Y-75198000D01*
X75861639Y-75205351D01*
X75860559Y-75212632D01*
X75858771Y-75219771D01*
X75856291Y-75226701D01*
X75853144Y-75233355D01*
X75849360Y-75239668D01*
X75844976Y-75245579D01*
X75840033Y-75251033D01*
X75834579Y-75255976D01*
X75828668Y-75260360D01*
X75822355Y-75264144D01*
X75815701Y-75267291D01*
X75808771Y-75269771D01*
X75801632Y-75271559D01*
X75794351Y-75272639D01*
X75787000Y-75273000D01*
X75637000Y-75273000D01*
X75629649Y-75272639D01*
X75622368Y-75271559D01*
X75615229Y-75269771D01*
X75608299Y-75267291D01*
X75601645Y-75264144D01*
X75595332Y-75260360D01*
X75589421Y-75255976D01*
X75583967Y-75251033D01*
X75579024Y-75245579D01*
X75574640Y-75239668D01*
X75570856Y-75233355D01*
X75567709Y-75226701D01*
X75565229Y-75219771D01*
X75563441Y-75212632D01*
X75562361Y-75205351D01*
X75562000Y-75198000D01*
X75562000Y-74498000D01*
X75562361Y-74490649D01*
X75563441Y-74483368D01*
X75565229Y-74476229D01*
X75567709Y-74469299D01*
X75570856Y-74462645D01*
X75574640Y-74456332D01*
X75579024Y-74450421D01*
X75583967Y-74444967D01*
X75589421Y-74440024D01*
X75595332Y-74435640D01*
X75601645Y-74431856D01*
X75608299Y-74428709D01*
X75615229Y-74426229D01*
X75622368Y-74424441D01*
X75629649Y-74423361D01*
X75637000Y-74423000D01*
X75787000Y-74423000D01*
X75794351Y-74423361D01*
G37*
D12*
X75733000Y-47536000D03*
X76383000Y-45936000D03*
X77033000Y-45936000D03*
X77683000Y-45936000D03*
X76383000Y-47536000D03*
X77033000Y-47536000D03*
X77683000Y-47536000D03*
X75733000Y-45936000D03*
D13*
X79514000Y-46223000D03*
X80014000Y-46223000D03*
X80514000Y-46223000D03*
X81014000Y-46223000D03*
D14*
X81539000Y-46748000D03*
X81539000Y-47248000D03*
X81539000Y-47748000D03*
X81539000Y-48248000D03*
D13*
X81014000Y-48773000D03*
X80514000Y-48773000D03*
X80014000Y-48773000D03*
X79514000Y-48773000D03*
D14*
X78989000Y-48248000D03*
X78989000Y-47748000D03*
X78989000Y-47248000D03*
X78989000Y-46748000D03*
D10*
G36*
X77227958Y-80135210D02*
G01*
X77242276Y-80137334D01*
X77256317Y-80140851D01*
X77269946Y-80145728D01*
X77283031Y-80151917D01*
X77295447Y-80159358D01*
X77307073Y-80167981D01*
X77317798Y-80177702D01*
X77327519Y-80188427D01*
X77336142Y-80200053D01*
X77343583Y-80212469D01*
X77349772Y-80225554D01*
X77354649Y-80239183D01*
X77358166Y-80253224D01*
X77360290Y-80267542D01*
X77361000Y-80282000D01*
X77361000Y-80627000D01*
X77360290Y-80641458D01*
X77358166Y-80655776D01*
X77354649Y-80669817D01*
X77349772Y-80683446D01*
X77343583Y-80696531D01*
X77336142Y-80708947D01*
X77327519Y-80720573D01*
X77317798Y-80731298D01*
X77307073Y-80741019D01*
X77295447Y-80749642D01*
X77283031Y-80757083D01*
X77269946Y-80763272D01*
X77256317Y-80768149D01*
X77242276Y-80771666D01*
X77227958Y-80773790D01*
X77213500Y-80774500D01*
X76918500Y-80774500D01*
X76904042Y-80773790D01*
X76889724Y-80771666D01*
X76875683Y-80768149D01*
X76862054Y-80763272D01*
X76848969Y-80757083D01*
X76836553Y-80749642D01*
X76824927Y-80741019D01*
X76814202Y-80731298D01*
X76804481Y-80720573D01*
X76795858Y-80708947D01*
X76788417Y-80696531D01*
X76782228Y-80683446D01*
X76777351Y-80669817D01*
X76773834Y-80655776D01*
X76771710Y-80641458D01*
X76771000Y-80627000D01*
X76771000Y-80282000D01*
X76771710Y-80267542D01*
X76773834Y-80253224D01*
X76777351Y-80239183D01*
X76782228Y-80225554D01*
X76788417Y-80212469D01*
X76795858Y-80200053D01*
X76804481Y-80188427D01*
X76814202Y-80177702D01*
X76824927Y-80167981D01*
X76836553Y-80159358D01*
X76848969Y-80151917D01*
X76862054Y-80145728D01*
X76875683Y-80140851D01*
X76889724Y-80137334D01*
X76904042Y-80135210D01*
X76918500Y-80134500D01*
X77213500Y-80134500D01*
X77227958Y-80135210D01*
G37*
G36*
X76257958Y-80135210D02*
G01*
X76272276Y-80137334D01*
X76286317Y-80140851D01*
X76299946Y-80145728D01*
X76313031Y-80151917D01*
X76325447Y-80159358D01*
X76337073Y-80167981D01*
X76347798Y-80177702D01*
X76357519Y-80188427D01*
X76366142Y-80200053D01*
X76373583Y-80212469D01*
X76379772Y-80225554D01*
X76384649Y-80239183D01*
X76388166Y-80253224D01*
X76390290Y-80267542D01*
X76391000Y-80282000D01*
X76391000Y-80627000D01*
X76390290Y-80641458D01*
X76388166Y-80655776D01*
X76384649Y-80669817D01*
X76379772Y-80683446D01*
X76373583Y-80696531D01*
X76366142Y-80708947D01*
X76357519Y-80720573D01*
X76347798Y-80731298D01*
X76337073Y-80741019D01*
X76325447Y-80749642D01*
X76313031Y-80757083D01*
X76299946Y-80763272D01*
X76286317Y-80768149D01*
X76272276Y-80771666D01*
X76257958Y-80773790D01*
X76243500Y-80774500D01*
X75948500Y-80774500D01*
X75934042Y-80773790D01*
X75919724Y-80771666D01*
X75905683Y-80768149D01*
X75892054Y-80763272D01*
X75878969Y-80757083D01*
X75866553Y-80749642D01*
X75854927Y-80741019D01*
X75844202Y-80731298D01*
X75834481Y-80720573D01*
X75825858Y-80708947D01*
X75818417Y-80696531D01*
X75812228Y-80683446D01*
X75807351Y-80669817D01*
X75803834Y-80655776D01*
X75801710Y-80641458D01*
X75801000Y-80627000D01*
X75801000Y-80282000D01*
X75801710Y-80267542D01*
X75803834Y-80253224D01*
X75807351Y-80239183D01*
X75812228Y-80225554D01*
X75818417Y-80212469D01*
X75825858Y-80200053D01*
X75834481Y-80188427D01*
X75844202Y-80177702D01*
X75854927Y-80167981D01*
X75866553Y-80159358D01*
X75878969Y-80151917D01*
X75892054Y-80145728D01*
X75905683Y-80140851D01*
X75919724Y-80137334D01*
X75934042Y-80135210D01*
X75948500Y-80134500D01*
X76243500Y-80134500D01*
X76257958Y-80135210D01*
G37*
G36*
X92769958Y-65006710D02*
G01*
X92784276Y-65008834D01*
X92798317Y-65012351D01*
X92811946Y-65017228D01*
X92825031Y-65023417D01*
X92837447Y-65030858D01*
X92849073Y-65039481D01*
X92859798Y-65049202D01*
X92869519Y-65059927D01*
X92878142Y-65071553D01*
X92885583Y-65083969D01*
X92891772Y-65097054D01*
X92896649Y-65110683D01*
X92900166Y-65124724D01*
X92902290Y-65139042D01*
X92903000Y-65153500D01*
X92903000Y-65448500D01*
X92902290Y-65462958D01*
X92900166Y-65477276D01*
X92896649Y-65491317D01*
X92891772Y-65504946D01*
X92885583Y-65518031D01*
X92878142Y-65530447D01*
X92869519Y-65542073D01*
X92859798Y-65552798D01*
X92849073Y-65562519D01*
X92837447Y-65571142D01*
X92825031Y-65578583D01*
X92811946Y-65584772D01*
X92798317Y-65589649D01*
X92784276Y-65593166D01*
X92769958Y-65595290D01*
X92755500Y-65596000D01*
X92410500Y-65596000D01*
X92396042Y-65595290D01*
X92381724Y-65593166D01*
X92367683Y-65589649D01*
X92354054Y-65584772D01*
X92340969Y-65578583D01*
X92328553Y-65571142D01*
X92316927Y-65562519D01*
X92306202Y-65552798D01*
X92296481Y-65542073D01*
X92287858Y-65530447D01*
X92280417Y-65518031D01*
X92274228Y-65504946D01*
X92269351Y-65491317D01*
X92265834Y-65477276D01*
X92263710Y-65462958D01*
X92263000Y-65448500D01*
X92263000Y-65153500D01*
X92263710Y-65139042D01*
X92265834Y-65124724D01*
X92269351Y-65110683D01*
X92274228Y-65097054D01*
X92280417Y-65083969D01*
X92287858Y-65071553D01*
X92296481Y-65059927D01*
X92306202Y-65049202D01*
X92316927Y-65039481D01*
X92328553Y-65030858D01*
X92340969Y-65023417D01*
X92354054Y-65017228D01*
X92367683Y-65012351D01*
X92381724Y-65008834D01*
X92396042Y-65006710D01*
X92410500Y-65006000D01*
X92755500Y-65006000D01*
X92769958Y-65006710D01*
G37*
G36*
X92769958Y-65976710D02*
G01*
X92784276Y-65978834D01*
X92798317Y-65982351D01*
X92811946Y-65987228D01*
X92825031Y-65993417D01*
X92837447Y-66000858D01*
X92849073Y-66009481D01*
X92859798Y-66019202D01*
X92869519Y-66029927D01*
X92878142Y-66041553D01*
X92885583Y-66053969D01*
X92891772Y-66067054D01*
X92896649Y-66080683D01*
X92900166Y-66094724D01*
X92902290Y-66109042D01*
X92903000Y-66123500D01*
X92903000Y-66418500D01*
X92902290Y-66432958D01*
X92900166Y-66447276D01*
X92896649Y-66461317D01*
X92891772Y-66474946D01*
X92885583Y-66488031D01*
X92878142Y-66500447D01*
X92869519Y-66512073D01*
X92859798Y-66522798D01*
X92849073Y-66532519D01*
X92837447Y-66541142D01*
X92825031Y-66548583D01*
X92811946Y-66554772D01*
X92798317Y-66559649D01*
X92784276Y-66563166D01*
X92769958Y-66565290D01*
X92755500Y-66566000D01*
X92410500Y-66566000D01*
X92396042Y-66565290D01*
X92381724Y-66563166D01*
X92367683Y-66559649D01*
X92354054Y-66554772D01*
X92340969Y-66548583D01*
X92328553Y-66541142D01*
X92316927Y-66532519D01*
X92306202Y-66522798D01*
X92296481Y-66512073D01*
X92287858Y-66500447D01*
X92280417Y-66488031D01*
X92274228Y-66474946D01*
X92269351Y-66461317D01*
X92265834Y-66447276D01*
X92263710Y-66432958D01*
X92263000Y-66418500D01*
X92263000Y-66123500D01*
X92263710Y-66109042D01*
X92265834Y-66094724D01*
X92269351Y-66080683D01*
X92274228Y-66067054D01*
X92280417Y-66053969D01*
X92287858Y-66041553D01*
X92296481Y-66029927D01*
X92306202Y-66019202D01*
X92316927Y-66009481D01*
X92328553Y-66000858D01*
X92340969Y-65993417D01*
X92354054Y-65987228D01*
X92367683Y-65982351D01*
X92381724Y-65978834D01*
X92396042Y-65976710D01*
X92410500Y-65976000D01*
X92755500Y-65976000D01*
X92769958Y-65976710D01*
G37*
G36*
X90610958Y-63690710D02*
G01*
X90625276Y-63692834D01*
X90639317Y-63696351D01*
X90652946Y-63701228D01*
X90666031Y-63707417D01*
X90678447Y-63714858D01*
X90690073Y-63723481D01*
X90700798Y-63733202D01*
X90710519Y-63743927D01*
X90719142Y-63755553D01*
X90726583Y-63767969D01*
X90732772Y-63781054D01*
X90737649Y-63794683D01*
X90741166Y-63808724D01*
X90743290Y-63823042D01*
X90744000Y-63837500D01*
X90744000Y-64132500D01*
X90743290Y-64146958D01*
X90741166Y-64161276D01*
X90737649Y-64175317D01*
X90732772Y-64188946D01*
X90726583Y-64202031D01*
X90719142Y-64214447D01*
X90710519Y-64226073D01*
X90700798Y-64236798D01*
X90690073Y-64246519D01*
X90678447Y-64255142D01*
X90666031Y-64262583D01*
X90652946Y-64268772D01*
X90639317Y-64273649D01*
X90625276Y-64277166D01*
X90610958Y-64279290D01*
X90596500Y-64280000D01*
X90251500Y-64280000D01*
X90237042Y-64279290D01*
X90222724Y-64277166D01*
X90208683Y-64273649D01*
X90195054Y-64268772D01*
X90181969Y-64262583D01*
X90169553Y-64255142D01*
X90157927Y-64246519D01*
X90147202Y-64236798D01*
X90137481Y-64226073D01*
X90128858Y-64214447D01*
X90121417Y-64202031D01*
X90115228Y-64188946D01*
X90110351Y-64175317D01*
X90106834Y-64161276D01*
X90104710Y-64146958D01*
X90104000Y-64132500D01*
X90104000Y-63837500D01*
X90104710Y-63823042D01*
X90106834Y-63808724D01*
X90110351Y-63794683D01*
X90115228Y-63781054D01*
X90121417Y-63767969D01*
X90128858Y-63755553D01*
X90137481Y-63743927D01*
X90147202Y-63733202D01*
X90157927Y-63723481D01*
X90169553Y-63714858D01*
X90181969Y-63707417D01*
X90195054Y-63701228D01*
X90208683Y-63696351D01*
X90222724Y-63692834D01*
X90237042Y-63690710D01*
X90251500Y-63690000D01*
X90596500Y-63690000D01*
X90610958Y-63690710D01*
G37*
G36*
X90610958Y-62720710D02*
G01*
X90625276Y-62722834D01*
X90639317Y-62726351D01*
X90652946Y-62731228D01*
X90666031Y-62737417D01*
X90678447Y-62744858D01*
X90690073Y-62753481D01*
X90700798Y-62763202D01*
X90710519Y-62773927D01*
X90719142Y-62785553D01*
X90726583Y-62797969D01*
X90732772Y-62811054D01*
X90737649Y-62824683D01*
X90741166Y-62838724D01*
X90743290Y-62853042D01*
X90744000Y-62867500D01*
X90744000Y-63162500D01*
X90743290Y-63176958D01*
X90741166Y-63191276D01*
X90737649Y-63205317D01*
X90732772Y-63218946D01*
X90726583Y-63232031D01*
X90719142Y-63244447D01*
X90710519Y-63256073D01*
X90700798Y-63266798D01*
X90690073Y-63276519D01*
X90678447Y-63285142D01*
X90666031Y-63292583D01*
X90652946Y-63298772D01*
X90639317Y-63303649D01*
X90625276Y-63307166D01*
X90610958Y-63309290D01*
X90596500Y-63310000D01*
X90251500Y-63310000D01*
X90237042Y-63309290D01*
X90222724Y-63307166D01*
X90208683Y-63303649D01*
X90195054Y-63298772D01*
X90181969Y-63292583D01*
X90169553Y-63285142D01*
X90157927Y-63276519D01*
X90147202Y-63266798D01*
X90137481Y-63256073D01*
X90128858Y-63244447D01*
X90121417Y-63232031D01*
X90115228Y-63218946D01*
X90110351Y-63205317D01*
X90106834Y-63191276D01*
X90104710Y-63176958D01*
X90104000Y-63162500D01*
X90104000Y-62867500D01*
X90104710Y-62853042D01*
X90106834Y-62838724D01*
X90110351Y-62824683D01*
X90115228Y-62811054D01*
X90121417Y-62797969D01*
X90128858Y-62785553D01*
X90137481Y-62773927D01*
X90147202Y-62763202D01*
X90157927Y-62753481D01*
X90169553Y-62744858D01*
X90181969Y-62737417D01*
X90195054Y-62731228D01*
X90208683Y-62726351D01*
X90222724Y-62722834D01*
X90237042Y-62720710D01*
X90251500Y-62720000D01*
X90596500Y-62720000D01*
X90610958Y-62720710D01*
G37*
G36*
X91688458Y-63625210D02*
G01*
X91702776Y-63627334D01*
X91716817Y-63630851D01*
X91730446Y-63635728D01*
X91743531Y-63641917D01*
X91755947Y-63649358D01*
X91767573Y-63657981D01*
X91778298Y-63667702D01*
X91788019Y-63678427D01*
X91796642Y-63690053D01*
X91804083Y-63702469D01*
X91810272Y-63715554D01*
X91815149Y-63729183D01*
X91818666Y-63743224D01*
X91820790Y-63757542D01*
X91821500Y-63772000D01*
X91821500Y-64117000D01*
X91820790Y-64131458D01*
X91818666Y-64145776D01*
X91815149Y-64159817D01*
X91810272Y-64173446D01*
X91804083Y-64186531D01*
X91796642Y-64198947D01*
X91788019Y-64210573D01*
X91778298Y-64221298D01*
X91767573Y-64231019D01*
X91755947Y-64239642D01*
X91743531Y-64247083D01*
X91730446Y-64253272D01*
X91716817Y-64258149D01*
X91702776Y-64261666D01*
X91688458Y-64263790D01*
X91674000Y-64264500D01*
X91379000Y-64264500D01*
X91364542Y-64263790D01*
X91350224Y-64261666D01*
X91336183Y-64258149D01*
X91322554Y-64253272D01*
X91309469Y-64247083D01*
X91297053Y-64239642D01*
X91285427Y-64231019D01*
X91274702Y-64221298D01*
X91264981Y-64210573D01*
X91256358Y-64198947D01*
X91248917Y-64186531D01*
X91242728Y-64173446D01*
X91237851Y-64159817D01*
X91234334Y-64145776D01*
X91232210Y-64131458D01*
X91231500Y-64117000D01*
X91231500Y-63772000D01*
X91232210Y-63757542D01*
X91234334Y-63743224D01*
X91237851Y-63729183D01*
X91242728Y-63715554D01*
X91248917Y-63702469D01*
X91256358Y-63690053D01*
X91264981Y-63678427D01*
X91274702Y-63667702D01*
X91285427Y-63657981D01*
X91297053Y-63649358D01*
X91309469Y-63641917D01*
X91322554Y-63635728D01*
X91336183Y-63630851D01*
X91350224Y-63627334D01*
X91364542Y-63625210D01*
X91379000Y-63624500D01*
X91674000Y-63624500D01*
X91688458Y-63625210D01*
G37*
G36*
X92658458Y-63625210D02*
G01*
X92672776Y-63627334D01*
X92686817Y-63630851D01*
X92700446Y-63635728D01*
X92713531Y-63641917D01*
X92725947Y-63649358D01*
X92737573Y-63657981D01*
X92748298Y-63667702D01*
X92758019Y-63678427D01*
X92766642Y-63690053D01*
X92774083Y-63702469D01*
X92780272Y-63715554D01*
X92785149Y-63729183D01*
X92788666Y-63743224D01*
X92790790Y-63757542D01*
X92791500Y-63772000D01*
X92791500Y-64117000D01*
X92790790Y-64131458D01*
X92788666Y-64145776D01*
X92785149Y-64159817D01*
X92780272Y-64173446D01*
X92774083Y-64186531D01*
X92766642Y-64198947D01*
X92758019Y-64210573D01*
X92748298Y-64221298D01*
X92737573Y-64231019D01*
X92725947Y-64239642D01*
X92713531Y-64247083D01*
X92700446Y-64253272D01*
X92686817Y-64258149D01*
X92672776Y-64261666D01*
X92658458Y-64263790D01*
X92644000Y-64264500D01*
X92349000Y-64264500D01*
X92334542Y-64263790D01*
X92320224Y-64261666D01*
X92306183Y-64258149D01*
X92292554Y-64253272D01*
X92279469Y-64247083D01*
X92267053Y-64239642D01*
X92255427Y-64231019D01*
X92244702Y-64221298D01*
X92234981Y-64210573D01*
X92226358Y-64198947D01*
X92218917Y-64186531D01*
X92212728Y-64173446D01*
X92207851Y-64159817D01*
X92204334Y-64145776D01*
X92202210Y-64131458D01*
X92201500Y-64117000D01*
X92201500Y-63772000D01*
X92202210Y-63757542D01*
X92204334Y-63743224D01*
X92207851Y-63729183D01*
X92212728Y-63715554D01*
X92218917Y-63702469D01*
X92226358Y-63690053D01*
X92234981Y-63678427D01*
X92244702Y-63667702D01*
X92255427Y-63657981D01*
X92267053Y-63649358D01*
X92279469Y-63641917D01*
X92292554Y-63635728D01*
X92306183Y-63630851D01*
X92320224Y-63627334D01*
X92334542Y-63625210D01*
X92349000Y-63624500D01*
X92644000Y-63624500D01*
X92658458Y-63625210D01*
G37*
D15*
X87376000Y-72644000D03*
D16*
X88876000Y-71644000D03*
X88876000Y-72044000D03*
X88876000Y-72444000D03*
X88876000Y-72844000D03*
X88876000Y-73244000D03*
X88876000Y-73644000D03*
X85876000Y-73644000D03*
X85876000Y-73244000D03*
X85876000Y-72844000D03*
X85876000Y-72444000D03*
X85876000Y-72044000D03*
X85876000Y-71644000D03*
D17*
X75946000Y-78486000D03*
D18*
X76996000Y-77736000D03*
X76996000Y-78236000D03*
X76996000Y-78736000D03*
X76996000Y-79236000D03*
X74896000Y-79236000D03*
X74896000Y-78736000D03*
X74896000Y-78236000D03*
X74896000Y-77736000D03*
D17*
X84074000Y-78486000D03*
D18*
X83024000Y-79236000D03*
X83024000Y-78736000D03*
X83024000Y-78236000D03*
X83024000Y-77736000D03*
X85124000Y-77736000D03*
X85124000Y-78236000D03*
X85124000Y-78736000D03*
X85124000Y-79236000D03*
D17*
X84328000Y-43942000D03*
D18*
X83278000Y-44692000D03*
X83278000Y-44192000D03*
X83278000Y-43692000D03*
X83278000Y-43192000D03*
X85378000Y-43192000D03*
X85378000Y-43692000D03*
X85378000Y-44192000D03*
X85378000Y-44692000D03*
D17*
X75692000Y-44013000D03*
D18*
X76742000Y-43263000D03*
X76742000Y-43763000D03*
X76742000Y-44263000D03*
X76742000Y-44763000D03*
X74642000Y-44763000D03*
X74642000Y-44263000D03*
X74642000Y-43763000D03*
X74642000Y-43263000D03*
D19*
X73700000Y-95798800D03*
X73700000Y-94398800D03*
X73700000Y-92998800D03*
X73700000Y-91598800D03*
X73700000Y-90198800D03*
X73700000Y-88798800D03*
X73700000Y-87400000D03*
X73700000Y-86000000D03*
D20*
X75100000Y-83703800D03*
X76500000Y-83703800D03*
X77900000Y-83703800D03*
X79300000Y-83703800D03*
X80700000Y-83703800D03*
X82100000Y-83703800D03*
X83500000Y-83703800D03*
X84900000Y-83703800D03*
D19*
X86300000Y-85998800D03*
X86300000Y-87398800D03*
X86300000Y-88798800D03*
X86300000Y-90198800D03*
X86300000Y-91598800D03*
X86300000Y-92998800D03*
X86300000Y-94398800D03*
X86300000Y-95798800D03*
D10*
G36*
X83196958Y-81087710D02*
G01*
X83211276Y-81089834D01*
X83225317Y-81093351D01*
X83238946Y-81098228D01*
X83252031Y-81104417D01*
X83264447Y-81111858D01*
X83276073Y-81120481D01*
X83286798Y-81130202D01*
X83296519Y-81140927D01*
X83305142Y-81152553D01*
X83312583Y-81164969D01*
X83318772Y-81178054D01*
X83323649Y-81191683D01*
X83327166Y-81205724D01*
X83329290Y-81220042D01*
X83330000Y-81234500D01*
X83330000Y-81579500D01*
X83329290Y-81593958D01*
X83327166Y-81608276D01*
X83323649Y-81622317D01*
X83318772Y-81635946D01*
X83312583Y-81649031D01*
X83305142Y-81661447D01*
X83296519Y-81673073D01*
X83286798Y-81683798D01*
X83276073Y-81693519D01*
X83264447Y-81702142D01*
X83252031Y-81709583D01*
X83238946Y-81715772D01*
X83225317Y-81720649D01*
X83211276Y-81724166D01*
X83196958Y-81726290D01*
X83182500Y-81727000D01*
X82887500Y-81727000D01*
X82873042Y-81726290D01*
X82858724Y-81724166D01*
X82844683Y-81720649D01*
X82831054Y-81715772D01*
X82817969Y-81709583D01*
X82805553Y-81702142D01*
X82793927Y-81693519D01*
X82783202Y-81683798D01*
X82773481Y-81673073D01*
X82764858Y-81661447D01*
X82757417Y-81649031D01*
X82751228Y-81635946D01*
X82746351Y-81622317D01*
X82742834Y-81608276D01*
X82740710Y-81593958D01*
X82740000Y-81579500D01*
X82740000Y-81234500D01*
X82740710Y-81220042D01*
X82742834Y-81205724D01*
X82746351Y-81191683D01*
X82751228Y-81178054D01*
X82757417Y-81164969D01*
X82764858Y-81152553D01*
X82773481Y-81140927D01*
X82783202Y-81130202D01*
X82793927Y-81120481D01*
X82805553Y-81111858D01*
X82817969Y-81104417D01*
X82831054Y-81098228D01*
X82844683Y-81093351D01*
X82858724Y-81089834D01*
X82873042Y-81087710D01*
X82887500Y-81087000D01*
X83182500Y-81087000D01*
X83196958Y-81087710D01*
G37*
G36*
X82226958Y-81087710D02*
G01*
X82241276Y-81089834D01*
X82255317Y-81093351D01*
X82268946Y-81098228D01*
X82282031Y-81104417D01*
X82294447Y-81111858D01*
X82306073Y-81120481D01*
X82316798Y-81130202D01*
X82326519Y-81140927D01*
X82335142Y-81152553D01*
X82342583Y-81164969D01*
X82348772Y-81178054D01*
X82353649Y-81191683D01*
X82357166Y-81205724D01*
X82359290Y-81220042D01*
X82360000Y-81234500D01*
X82360000Y-81579500D01*
X82359290Y-81593958D01*
X82357166Y-81608276D01*
X82353649Y-81622317D01*
X82348772Y-81635946D01*
X82342583Y-81649031D01*
X82335142Y-81661447D01*
X82326519Y-81673073D01*
X82316798Y-81683798D01*
X82306073Y-81693519D01*
X82294447Y-81702142D01*
X82282031Y-81709583D01*
X82268946Y-81715772D01*
X82255317Y-81720649D01*
X82241276Y-81724166D01*
X82226958Y-81726290D01*
X82212500Y-81727000D01*
X81917500Y-81727000D01*
X81903042Y-81726290D01*
X81888724Y-81724166D01*
X81874683Y-81720649D01*
X81861054Y-81715772D01*
X81847969Y-81709583D01*
X81835553Y-81702142D01*
X81823927Y-81693519D01*
X81813202Y-81683798D01*
X81803481Y-81673073D01*
X81794858Y-81661447D01*
X81787417Y-81649031D01*
X81781228Y-81635946D01*
X81776351Y-81622317D01*
X81772834Y-81608276D01*
X81770710Y-81593958D01*
X81770000Y-81579500D01*
X81770000Y-81234500D01*
X81770710Y-81220042D01*
X81772834Y-81205724D01*
X81776351Y-81191683D01*
X81781228Y-81178054D01*
X81787417Y-81164969D01*
X81794858Y-81152553D01*
X81803481Y-81140927D01*
X81813202Y-81130202D01*
X81823927Y-81120481D01*
X81835553Y-81111858D01*
X81847969Y-81104417D01*
X81861054Y-81098228D01*
X81874683Y-81093351D01*
X81888724Y-81089834D01*
X81903042Y-81087710D01*
X81917500Y-81087000D01*
X82212500Y-81087000D01*
X82226958Y-81087710D01*
G37*
G36*
X73846958Y-71864710D02*
G01*
X73861276Y-71866834D01*
X73875317Y-71870351D01*
X73888946Y-71875228D01*
X73902031Y-71881417D01*
X73914447Y-71888858D01*
X73926073Y-71897481D01*
X73936798Y-71907202D01*
X73946519Y-71917927D01*
X73955142Y-71929553D01*
X73962583Y-71941969D01*
X73968772Y-71955054D01*
X73973649Y-71968683D01*
X73977166Y-71982724D01*
X73979290Y-71997042D01*
X73980000Y-72011500D01*
X73980000Y-72306500D01*
X73979290Y-72320958D01*
X73977166Y-72335276D01*
X73973649Y-72349317D01*
X73968772Y-72362946D01*
X73962583Y-72376031D01*
X73955142Y-72388447D01*
X73946519Y-72400073D01*
X73936798Y-72410798D01*
X73926073Y-72420519D01*
X73914447Y-72429142D01*
X73902031Y-72436583D01*
X73888946Y-72442772D01*
X73875317Y-72447649D01*
X73861276Y-72451166D01*
X73846958Y-72453290D01*
X73832500Y-72454000D01*
X73487500Y-72454000D01*
X73473042Y-72453290D01*
X73458724Y-72451166D01*
X73444683Y-72447649D01*
X73431054Y-72442772D01*
X73417969Y-72436583D01*
X73405553Y-72429142D01*
X73393927Y-72420519D01*
X73383202Y-72410798D01*
X73373481Y-72400073D01*
X73364858Y-72388447D01*
X73357417Y-72376031D01*
X73351228Y-72362946D01*
X73346351Y-72349317D01*
X73342834Y-72335276D01*
X73340710Y-72320958D01*
X73340000Y-72306500D01*
X73340000Y-72011500D01*
X73340710Y-71997042D01*
X73342834Y-71982724D01*
X73346351Y-71968683D01*
X73351228Y-71955054D01*
X73357417Y-71941969D01*
X73364858Y-71929553D01*
X73373481Y-71917927D01*
X73383202Y-71907202D01*
X73393927Y-71897481D01*
X73405553Y-71888858D01*
X73417969Y-71881417D01*
X73431054Y-71875228D01*
X73444683Y-71870351D01*
X73458724Y-71866834D01*
X73473042Y-71864710D01*
X73487500Y-71864000D01*
X73832500Y-71864000D01*
X73846958Y-71864710D01*
G37*
G36*
X73846958Y-72834710D02*
G01*
X73861276Y-72836834D01*
X73875317Y-72840351D01*
X73888946Y-72845228D01*
X73902031Y-72851417D01*
X73914447Y-72858858D01*
X73926073Y-72867481D01*
X73936798Y-72877202D01*
X73946519Y-72887927D01*
X73955142Y-72899553D01*
X73962583Y-72911969D01*
X73968772Y-72925054D01*
X73973649Y-72938683D01*
X73977166Y-72952724D01*
X73979290Y-72967042D01*
X73980000Y-72981500D01*
X73980000Y-73276500D01*
X73979290Y-73290958D01*
X73977166Y-73305276D01*
X73973649Y-73319317D01*
X73968772Y-73332946D01*
X73962583Y-73346031D01*
X73955142Y-73358447D01*
X73946519Y-73370073D01*
X73936798Y-73380798D01*
X73926073Y-73390519D01*
X73914447Y-73399142D01*
X73902031Y-73406583D01*
X73888946Y-73412772D01*
X73875317Y-73417649D01*
X73861276Y-73421166D01*
X73846958Y-73423290D01*
X73832500Y-73424000D01*
X73487500Y-73424000D01*
X73473042Y-73423290D01*
X73458724Y-73421166D01*
X73444683Y-73417649D01*
X73431054Y-73412772D01*
X73417969Y-73406583D01*
X73405553Y-73399142D01*
X73393927Y-73390519D01*
X73383202Y-73380798D01*
X73373481Y-73370073D01*
X73364858Y-73358447D01*
X73357417Y-73346031D01*
X73351228Y-73332946D01*
X73346351Y-73319317D01*
X73342834Y-73305276D01*
X73340710Y-73290958D01*
X73340000Y-73276500D01*
X73340000Y-72981500D01*
X73340710Y-72967042D01*
X73342834Y-72952724D01*
X73346351Y-72938683D01*
X73351228Y-72925054D01*
X73357417Y-72911969D01*
X73364858Y-72899553D01*
X73373481Y-72887927D01*
X73383202Y-72877202D01*
X73393927Y-72867481D01*
X73405553Y-72858858D01*
X73417969Y-72851417D01*
X73431054Y-72845228D01*
X73444683Y-72840351D01*
X73458724Y-72836834D01*
X73473042Y-72834710D01*
X73487500Y-72834000D01*
X73832500Y-72834000D01*
X73846958Y-72834710D01*
G37*
G36*
X80450958Y-71356710D02*
G01*
X80465276Y-71358834D01*
X80479317Y-71362351D01*
X80492946Y-71367228D01*
X80506031Y-71373417D01*
X80518447Y-71380858D01*
X80530073Y-71389481D01*
X80540798Y-71399202D01*
X80550519Y-71409927D01*
X80559142Y-71421553D01*
X80566583Y-71433969D01*
X80572772Y-71447054D01*
X80577649Y-71460683D01*
X80581166Y-71474724D01*
X80583290Y-71489042D01*
X80584000Y-71503500D01*
X80584000Y-71798500D01*
X80583290Y-71812958D01*
X80581166Y-71827276D01*
X80577649Y-71841317D01*
X80572772Y-71854946D01*
X80566583Y-71868031D01*
X80559142Y-71880447D01*
X80550519Y-71892073D01*
X80540798Y-71902798D01*
X80530073Y-71912519D01*
X80518447Y-71921142D01*
X80506031Y-71928583D01*
X80492946Y-71934772D01*
X80479317Y-71939649D01*
X80465276Y-71943166D01*
X80450958Y-71945290D01*
X80436500Y-71946000D01*
X80091500Y-71946000D01*
X80077042Y-71945290D01*
X80062724Y-71943166D01*
X80048683Y-71939649D01*
X80035054Y-71934772D01*
X80021969Y-71928583D01*
X80009553Y-71921142D01*
X79997927Y-71912519D01*
X79987202Y-71902798D01*
X79977481Y-71892073D01*
X79968858Y-71880447D01*
X79961417Y-71868031D01*
X79955228Y-71854946D01*
X79950351Y-71841317D01*
X79946834Y-71827276D01*
X79944710Y-71812958D01*
X79944000Y-71798500D01*
X79944000Y-71503500D01*
X79944710Y-71489042D01*
X79946834Y-71474724D01*
X79950351Y-71460683D01*
X79955228Y-71447054D01*
X79961417Y-71433969D01*
X79968858Y-71421553D01*
X79977481Y-71409927D01*
X79987202Y-71399202D01*
X79997927Y-71389481D01*
X80009553Y-71380858D01*
X80021969Y-71373417D01*
X80035054Y-71367228D01*
X80048683Y-71362351D01*
X80062724Y-71358834D01*
X80077042Y-71356710D01*
X80091500Y-71356000D01*
X80436500Y-71356000D01*
X80450958Y-71356710D01*
G37*
G36*
X80450958Y-72326710D02*
G01*
X80465276Y-72328834D01*
X80479317Y-72332351D01*
X80492946Y-72337228D01*
X80506031Y-72343417D01*
X80518447Y-72350858D01*
X80530073Y-72359481D01*
X80540798Y-72369202D01*
X80550519Y-72379927D01*
X80559142Y-72391553D01*
X80566583Y-72403969D01*
X80572772Y-72417054D01*
X80577649Y-72430683D01*
X80581166Y-72444724D01*
X80583290Y-72459042D01*
X80584000Y-72473500D01*
X80584000Y-72768500D01*
X80583290Y-72782958D01*
X80581166Y-72797276D01*
X80577649Y-72811317D01*
X80572772Y-72824946D01*
X80566583Y-72838031D01*
X80559142Y-72850447D01*
X80550519Y-72862073D01*
X80540798Y-72872798D01*
X80530073Y-72882519D01*
X80518447Y-72891142D01*
X80506031Y-72898583D01*
X80492946Y-72904772D01*
X80479317Y-72909649D01*
X80465276Y-72913166D01*
X80450958Y-72915290D01*
X80436500Y-72916000D01*
X80091500Y-72916000D01*
X80077042Y-72915290D01*
X80062724Y-72913166D01*
X80048683Y-72909649D01*
X80035054Y-72904772D01*
X80021969Y-72898583D01*
X80009553Y-72891142D01*
X79997927Y-72882519D01*
X79987202Y-72872798D01*
X79977481Y-72862073D01*
X79968858Y-72850447D01*
X79961417Y-72838031D01*
X79955228Y-72824946D01*
X79950351Y-72811317D01*
X79946834Y-72797276D01*
X79944710Y-72782958D01*
X79944000Y-72768500D01*
X79944000Y-72473500D01*
X79944710Y-72459042D01*
X79946834Y-72444724D01*
X79950351Y-72430683D01*
X79955228Y-72417054D01*
X79961417Y-72403969D01*
X79968858Y-72391553D01*
X79977481Y-72379927D01*
X79987202Y-72369202D01*
X79997927Y-72359481D01*
X80009553Y-72350858D01*
X80021969Y-72343417D01*
X80035054Y-72337228D01*
X80048683Y-72332351D01*
X80062724Y-72328834D01*
X80077042Y-72326710D01*
X80091500Y-72326000D01*
X80436500Y-72326000D01*
X80450958Y-72326710D01*
G37*
G36*
X83371958Y-45512210D02*
G01*
X83386276Y-45514334D01*
X83400317Y-45517851D01*
X83413946Y-45522728D01*
X83427031Y-45528917D01*
X83439447Y-45536358D01*
X83451073Y-45544981D01*
X83461798Y-45554702D01*
X83471519Y-45565427D01*
X83480142Y-45577053D01*
X83487583Y-45589469D01*
X83493772Y-45602554D01*
X83498649Y-45616183D01*
X83502166Y-45630224D01*
X83504290Y-45644542D01*
X83505000Y-45659000D01*
X83505000Y-45954000D01*
X83504290Y-45968458D01*
X83502166Y-45982776D01*
X83498649Y-45996817D01*
X83493772Y-46010446D01*
X83487583Y-46023531D01*
X83480142Y-46035947D01*
X83471519Y-46047573D01*
X83461798Y-46058298D01*
X83451073Y-46068019D01*
X83439447Y-46076642D01*
X83427031Y-46084083D01*
X83413946Y-46090272D01*
X83400317Y-46095149D01*
X83386276Y-46098666D01*
X83371958Y-46100790D01*
X83357500Y-46101500D01*
X83012500Y-46101500D01*
X82998042Y-46100790D01*
X82983724Y-46098666D01*
X82969683Y-46095149D01*
X82956054Y-46090272D01*
X82942969Y-46084083D01*
X82930553Y-46076642D01*
X82918927Y-46068019D01*
X82908202Y-46058298D01*
X82898481Y-46047573D01*
X82889858Y-46035947D01*
X82882417Y-46023531D01*
X82876228Y-46010446D01*
X82871351Y-45996817D01*
X82867834Y-45982776D01*
X82865710Y-45968458D01*
X82865000Y-45954000D01*
X82865000Y-45659000D01*
X82865710Y-45644542D01*
X82867834Y-45630224D01*
X82871351Y-45616183D01*
X82876228Y-45602554D01*
X82882417Y-45589469D01*
X82889858Y-45577053D01*
X82898481Y-45565427D01*
X82908202Y-45554702D01*
X82918927Y-45544981D01*
X82930553Y-45536358D01*
X82942969Y-45528917D01*
X82956054Y-45522728D01*
X82969683Y-45517851D01*
X82983724Y-45514334D01*
X82998042Y-45512210D01*
X83012500Y-45511500D01*
X83357500Y-45511500D01*
X83371958Y-45512210D01*
G37*
G36*
X83371958Y-46482210D02*
G01*
X83386276Y-46484334D01*
X83400317Y-46487851D01*
X83413946Y-46492728D01*
X83427031Y-46498917D01*
X83439447Y-46506358D01*
X83451073Y-46514981D01*
X83461798Y-46524702D01*
X83471519Y-46535427D01*
X83480142Y-46547053D01*
X83487583Y-46559469D01*
X83493772Y-46572554D01*
X83498649Y-46586183D01*
X83502166Y-46600224D01*
X83504290Y-46614542D01*
X83505000Y-46629000D01*
X83505000Y-46924000D01*
X83504290Y-46938458D01*
X83502166Y-46952776D01*
X83498649Y-46966817D01*
X83493772Y-46980446D01*
X83487583Y-46993531D01*
X83480142Y-47005947D01*
X83471519Y-47017573D01*
X83461798Y-47028298D01*
X83451073Y-47038019D01*
X83439447Y-47046642D01*
X83427031Y-47054083D01*
X83413946Y-47060272D01*
X83400317Y-47065149D01*
X83386276Y-47068666D01*
X83371958Y-47070790D01*
X83357500Y-47071500D01*
X83012500Y-47071500D01*
X82998042Y-47070790D01*
X82983724Y-47068666D01*
X82969683Y-47065149D01*
X82956054Y-47060272D01*
X82942969Y-47054083D01*
X82930553Y-47046642D01*
X82918927Y-47038019D01*
X82908202Y-47028298D01*
X82898481Y-47017573D01*
X82889858Y-47005947D01*
X82882417Y-46993531D01*
X82876228Y-46980446D01*
X82871351Y-46966817D01*
X82867834Y-46952776D01*
X82865710Y-46938458D01*
X82865000Y-46924000D01*
X82865000Y-46629000D01*
X82865710Y-46614542D01*
X82867834Y-46600224D01*
X82871351Y-46586183D01*
X82876228Y-46572554D01*
X82882417Y-46559469D01*
X82889858Y-46547053D01*
X82898481Y-46535427D01*
X82908202Y-46524702D01*
X82918927Y-46514981D01*
X82930553Y-46506358D01*
X82942969Y-46498917D01*
X82956054Y-46492728D01*
X82969683Y-46487851D01*
X82983724Y-46484334D01*
X82998042Y-46482210D01*
X83012500Y-46481500D01*
X83357500Y-46481500D01*
X83371958Y-46482210D01*
G37*
G36*
X83196958Y-80071710D02*
G01*
X83211276Y-80073834D01*
X83225317Y-80077351D01*
X83238946Y-80082228D01*
X83252031Y-80088417D01*
X83264447Y-80095858D01*
X83276073Y-80104481D01*
X83286798Y-80114202D01*
X83296519Y-80124927D01*
X83305142Y-80136553D01*
X83312583Y-80148969D01*
X83318772Y-80162054D01*
X83323649Y-80175683D01*
X83327166Y-80189724D01*
X83329290Y-80204042D01*
X83330000Y-80218500D01*
X83330000Y-80563500D01*
X83329290Y-80577958D01*
X83327166Y-80592276D01*
X83323649Y-80606317D01*
X83318772Y-80619946D01*
X83312583Y-80633031D01*
X83305142Y-80645447D01*
X83296519Y-80657073D01*
X83286798Y-80667798D01*
X83276073Y-80677519D01*
X83264447Y-80686142D01*
X83252031Y-80693583D01*
X83238946Y-80699772D01*
X83225317Y-80704649D01*
X83211276Y-80708166D01*
X83196958Y-80710290D01*
X83182500Y-80711000D01*
X82887500Y-80711000D01*
X82873042Y-80710290D01*
X82858724Y-80708166D01*
X82844683Y-80704649D01*
X82831054Y-80699772D01*
X82817969Y-80693583D01*
X82805553Y-80686142D01*
X82793927Y-80677519D01*
X82783202Y-80667798D01*
X82773481Y-80657073D01*
X82764858Y-80645447D01*
X82757417Y-80633031D01*
X82751228Y-80619946D01*
X82746351Y-80606317D01*
X82742834Y-80592276D01*
X82740710Y-80577958D01*
X82740000Y-80563500D01*
X82740000Y-80218500D01*
X82740710Y-80204042D01*
X82742834Y-80189724D01*
X82746351Y-80175683D01*
X82751228Y-80162054D01*
X82757417Y-80148969D01*
X82764858Y-80136553D01*
X82773481Y-80124927D01*
X82783202Y-80114202D01*
X82793927Y-80104481D01*
X82805553Y-80095858D01*
X82817969Y-80088417D01*
X82831054Y-80082228D01*
X82844683Y-80077351D01*
X82858724Y-80073834D01*
X82873042Y-80071710D01*
X82887500Y-80071000D01*
X83182500Y-80071000D01*
X83196958Y-80071710D01*
G37*
G36*
X82226958Y-80071710D02*
G01*
X82241276Y-80073834D01*
X82255317Y-80077351D01*
X82268946Y-80082228D01*
X82282031Y-80088417D01*
X82294447Y-80095858D01*
X82306073Y-80104481D01*
X82316798Y-80114202D01*
X82326519Y-80124927D01*
X82335142Y-80136553D01*
X82342583Y-80148969D01*
X82348772Y-80162054D01*
X82353649Y-80175683D01*
X82357166Y-80189724D01*
X82359290Y-80204042D01*
X82360000Y-80218500D01*
X82360000Y-80563500D01*
X82359290Y-80577958D01*
X82357166Y-80592276D01*
X82353649Y-80606317D01*
X82348772Y-80619946D01*
X82342583Y-80633031D01*
X82335142Y-80645447D01*
X82326519Y-80657073D01*
X82316798Y-80667798D01*
X82306073Y-80677519D01*
X82294447Y-80686142D01*
X82282031Y-80693583D01*
X82268946Y-80699772D01*
X82255317Y-80704649D01*
X82241276Y-80708166D01*
X82226958Y-80710290D01*
X82212500Y-80711000D01*
X81917500Y-80711000D01*
X81903042Y-80710290D01*
X81888724Y-80708166D01*
X81874683Y-80704649D01*
X81861054Y-80699772D01*
X81847969Y-80693583D01*
X81835553Y-80686142D01*
X81823927Y-80677519D01*
X81813202Y-80667798D01*
X81803481Y-80657073D01*
X81794858Y-80645447D01*
X81787417Y-80633031D01*
X81781228Y-80619946D01*
X81776351Y-80606317D01*
X81772834Y-80592276D01*
X81770710Y-80577958D01*
X81770000Y-80563500D01*
X81770000Y-80218500D01*
X81770710Y-80204042D01*
X81772834Y-80189724D01*
X81776351Y-80175683D01*
X81781228Y-80162054D01*
X81787417Y-80148969D01*
X81794858Y-80136553D01*
X81803481Y-80124927D01*
X81813202Y-80114202D01*
X81823927Y-80104481D01*
X81835553Y-80095858D01*
X81847969Y-80088417D01*
X81861054Y-80082228D01*
X81874683Y-80077351D01*
X81888724Y-80073834D01*
X81903042Y-80071710D01*
X81917500Y-80071000D01*
X82212500Y-80071000D01*
X82226958Y-80071710D01*
G37*
G36*
X77146958Y-76261710D02*
G01*
X77161276Y-76263834D01*
X77175317Y-76267351D01*
X77188946Y-76272228D01*
X77202031Y-76278417D01*
X77214447Y-76285858D01*
X77226073Y-76294481D01*
X77236798Y-76304202D01*
X77246519Y-76314927D01*
X77255142Y-76326553D01*
X77262583Y-76338969D01*
X77268772Y-76352054D01*
X77273649Y-76365683D01*
X77277166Y-76379724D01*
X77279290Y-76394042D01*
X77280000Y-76408500D01*
X77280000Y-76753500D01*
X77279290Y-76767958D01*
X77277166Y-76782276D01*
X77273649Y-76796317D01*
X77268772Y-76809946D01*
X77262583Y-76823031D01*
X77255142Y-76835447D01*
X77246519Y-76847073D01*
X77236798Y-76857798D01*
X77226073Y-76867519D01*
X77214447Y-76876142D01*
X77202031Y-76883583D01*
X77188946Y-76889772D01*
X77175317Y-76894649D01*
X77161276Y-76898166D01*
X77146958Y-76900290D01*
X77132500Y-76901000D01*
X76837500Y-76901000D01*
X76823042Y-76900290D01*
X76808724Y-76898166D01*
X76794683Y-76894649D01*
X76781054Y-76889772D01*
X76767969Y-76883583D01*
X76755553Y-76876142D01*
X76743927Y-76867519D01*
X76733202Y-76857798D01*
X76723481Y-76847073D01*
X76714858Y-76835447D01*
X76707417Y-76823031D01*
X76701228Y-76809946D01*
X76696351Y-76796317D01*
X76692834Y-76782276D01*
X76690710Y-76767958D01*
X76690000Y-76753500D01*
X76690000Y-76408500D01*
X76690710Y-76394042D01*
X76692834Y-76379724D01*
X76696351Y-76365683D01*
X76701228Y-76352054D01*
X76707417Y-76338969D01*
X76714858Y-76326553D01*
X76723481Y-76314927D01*
X76733202Y-76304202D01*
X76743927Y-76294481D01*
X76755553Y-76285858D01*
X76767969Y-76278417D01*
X76781054Y-76272228D01*
X76794683Y-76267351D01*
X76808724Y-76263834D01*
X76823042Y-76261710D01*
X76837500Y-76261000D01*
X77132500Y-76261000D01*
X77146958Y-76261710D01*
G37*
G36*
X78116958Y-76261710D02*
G01*
X78131276Y-76263834D01*
X78145317Y-76267351D01*
X78158946Y-76272228D01*
X78172031Y-76278417D01*
X78184447Y-76285858D01*
X78196073Y-76294481D01*
X78206798Y-76304202D01*
X78216519Y-76314927D01*
X78225142Y-76326553D01*
X78232583Y-76338969D01*
X78238772Y-76352054D01*
X78243649Y-76365683D01*
X78247166Y-76379724D01*
X78249290Y-76394042D01*
X78250000Y-76408500D01*
X78250000Y-76753500D01*
X78249290Y-76767958D01*
X78247166Y-76782276D01*
X78243649Y-76796317D01*
X78238772Y-76809946D01*
X78232583Y-76823031D01*
X78225142Y-76835447D01*
X78216519Y-76847073D01*
X78206798Y-76857798D01*
X78196073Y-76867519D01*
X78184447Y-76876142D01*
X78172031Y-76883583D01*
X78158946Y-76889772D01*
X78145317Y-76894649D01*
X78131276Y-76898166D01*
X78116958Y-76900290D01*
X78102500Y-76901000D01*
X77807500Y-76901000D01*
X77793042Y-76900290D01*
X77778724Y-76898166D01*
X77764683Y-76894649D01*
X77751054Y-76889772D01*
X77737969Y-76883583D01*
X77725553Y-76876142D01*
X77713927Y-76867519D01*
X77703202Y-76857798D01*
X77693481Y-76847073D01*
X77684858Y-76835447D01*
X77677417Y-76823031D01*
X77671228Y-76809946D01*
X77666351Y-76796317D01*
X77662834Y-76782276D01*
X77660710Y-76767958D01*
X77660000Y-76753500D01*
X77660000Y-76408500D01*
X77660710Y-76394042D01*
X77662834Y-76379724D01*
X77666351Y-76365683D01*
X77671228Y-76352054D01*
X77677417Y-76338969D01*
X77684858Y-76326553D01*
X77693481Y-76314927D01*
X77703202Y-76304202D01*
X77713927Y-76294481D01*
X77725553Y-76285858D01*
X77737969Y-76278417D01*
X77751054Y-76272228D01*
X77764683Y-76267351D01*
X77778724Y-76263834D01*
X77793042Y-76261710D01*
X77807500Y-76261000D01*
X78102500Y-76261000D01*
X78116958Y-76261710D01*
G37*
G36*
X72828958Y-70419710D02*
G01*
X72843276Y-70421834D01*
X72857317Y-70425351D01*
X72870946Y-70430228D01*
X72884031Y-70436417D01*
X72896447Y-70443858D01*
X72908073Y-70452481D01*
X72918798Y-70462202D01*
X72928519Y-70472927D01*
X72937142Y-70484553D01*
X72944583Y-70496969D01*
X72950772Y-70510054D01*
X72955649Y-70523683D01*
X72959166Y-70537724D01*
X72961290Y-70552042D01*
X72962000Y-70566500D01*
X72962000Y-70911500D01*
X72961290Y-70925958D01*
X72959166Y-70940276D01*
X72955649Y-70954317D01*
X72950772Y-70967946D01*
X72944583Y-70981031D01*
X72937142Y-70993447D01*
X72928519Y-71005073D01*
X72918798Y-71015798D01*
X72908073Y-71025519D01*
X72896447Y-71034142D01*
X72884031Y-71041583D01*
X72870946Y-71047772D01*
X72857317Y-71052649D01*
X72843276Y-71056166D01*
X72828958Y-71058290D01*
X72814500Y-71059000D01*
X72519500Y-71059000D01*
X72505042Y-71058290D01*
X72490724Y-71056166D01*
X72476683Y-71052649D01*
X72463054Y-71047772D01*
X72449969Y-71041583D01*
X72437553Y-71034142D01*
X72425927Y-71025519D01*
X72415202Y-71015798D01*
X72405481Y-71005073D01*
X72396858Y-70993447D01*
X72389417Y-70981031D01*
X72383228Y-70967946D01*
X72378351Y-70954317D01*
X72374834Y-70940276D01*
X72372710Y-70925958D01*
X72372000Y-70911500D01*
X72372000Y-70566500D01*
X72372710Y-70552042D01*
X72374834Y-70537724D01*
X72378351Y-70523683D01*
X72383228Y-70510054D01*
X72389417Y-70496969D01*
X72396858Y-70484553D01*
X72405481Y-70472927D01*
X72415202Y-70462202D01*
X72425927Y-70452481D01*
X72437553Y-70443858D01*
X72449969Y-70436417D01*
X72463054Y-70430228D01*
X72476683Y-70425351D01*
X72490724Y-70421834D01*
X72505042Y-70419710D01*
X72519500Y-70419000D01*
X72814500Y-70419000D01*
X72828958Y-70419710D01*
G37*
G36*
X73798958Y-70419710D02*
G01*
X73813276Y-70421834D01*
X73827317Y-70425351D01*
X73840946Y-70430228D01*
X73854031Y-70436417D01*
X73866447Y-70443858D01*
X73878073Y-70452481D01*
X73888798Y-70462202D01*
X73898519Y-70472927D01*
X73907142Y-70484553D01*
X73914583Y-70496969D01*
X73920772Y-70510054D01*
X73925649Y-70523683D01*
X73929166Y-70537724D01*
X73931290Y-70552042D01*
X73932000Y-70566500D01*
X73932000Y-70911500D01*
X73931290Y-70925958D01*
X73929166Y-70940276D01*
X73925649Y-70954317D01*
X73920772Y-70967946D01*
X73914583Y-70981031D01*
X73907142Y-70993447D01*
X73898519Y-71005073D01*
X73888798Y-71015798D01*
X73878073Y-71025519D01*
X73866447Y-71034142D01*
X73854031Y-71041583D01*
X73840946Y-71047772D01*
X73827317Y-71052649D01*
X73813276Y-71056166D01*
X73798958Y-71058290D01*
X73784500Y-71059000D01*
X73489500Y-71059000D01*
X73475042Y-71058290D01*
X73460724Y-71056166D01*
X73446683Y-71052649D01*
X73433054Y-71047772D01*
X73419969Y-71041583D01*
X73407553Y-71034142D01*
X73395927Y-71025519D01*
X73385202Y-71015798D01*
X73375481Y-71005073D01*
X73366858Y-70993447D01*
X73359417Y-70981031D01*
X73353228Y-70967946D01*
X73348351Y-70954317D01*
X73344834Y-70940276D01*
X73342710Y-70925958D01*
X73342000Y-70911500D01*
X73342000Y-70566500D01*
X73342710Y-70552042D01*
X73344834Y-70537724D01*
X73348351Y-70523683D01*
X73353228Y-70510054D01*
X73359417Y-70496969D01*
X73366858Y-70484553D01*
X73375481Y-70472927D01*
X73385202Y-70462202D01*
X73395927Y-70452481D01*
X73407553Y-70443858D01*
X73419969Y-70436417D01*
X73433054Y-70430228D01*
X73446683Y-70425351D01*
X73460724Y-70421834D01*
X73475042Y-70419710D01*
X73489500Y-70419000D01*
X73784500Y-70419000D01*
X73798958Y-70419710D01*
G37*
G36*
X80450958Y-73388710D02*
G01*
X80465276Y-73390834D01*
X80479317Y-73394351D01*
X80492946Y-73399228D01*
X80506031Y-73405417D01*
X80518447Y-73412858D01*
X80530073Y-73421481D01*
X80540798Y-73431202D01*
X80550519Y-73441927D01*
X80559142Y-73453553D01*
X80566583Y-73465969D01*
X80572772Y-73479054D01*
X80577649Y-73492683D01*
X80581166Y-73506724D01*
X80583290Y-73521042D01*
X80584000Y-73535500D01*
X80584000Y-73830500D01*
X80583290Y-73844958D01*
X80581166Y-73859276D01*
X80577649Y-73873317D01*
X80572772Y-73886946D01*
X80566583Y-73900031D01*
X80559142Y-73912447D01*
X80550519Y-73924073D01*
X80540798Y-73934798D01*
X80530073Y-73944519D01*
X80518447Y-73953142D01*
X80506031Y-73960583D01*
X80492946Y-73966772D01*
X80479317Y-73971649D01*
X80465276Y-73975166D01*
X80450958Y-73977290D01*
X80436500Y-73978000D01*
X80091500Y-73978000D01*
X80077042Y-73977290D01*
X80062724Y-73975166D01*
X80048683Y-73971649D01*
X80035054Y-73966772D01*
X80021969Y-73960583D01*
X80009553Y-73953142D01*
X79997927Y-73944519D01*
X79987202Y-73934798D01*
X79977481Y-73924073D01*
X79968858Y-73912447D01*
X79961417Y-73900031D01*
X79955228Y-73886946D01*
X79950351Y-73873317D01*
X79946834Y-73859276D01*
X79944710Y-73844958D01*
X79944000Y-73830500D01*
X79944000Y-73535500D01*
X79944710Y-73521042D01*
X79946834Y-73506724D01*
X79950351Y-73492683D01*
X79955228Y-73479054D01*
X79961417Y-73465969D01*
X79968858Y-73453553D01*
X79977481Y-73441927D01*
X79987202Y-73431202D01*
X79997927Y-73421481D01*
X80009553Y-73412858D01*
X80021969Y-73405417D01*
X80035054Y-73399228D01*
X80048683Y-73394351D01*
X80062724Y-73390834D01*
X80077042Y-73388710D01*
X80091500Y-73388000D01*
X80436500Y-73388000D01*
X80450958Y-73388710D01*
G37*
G36*
X80450958Y-74358710D02*
G01*
X80465276Y-74360834D01*
X80479317Y-74364351D01*
X80492946Y-74369228D01*
X80506031Y-74375417D01*
X80518447Y-74382858D01*
X80530073Y-74391481D01*
X80540798Y-74401202D01*
X80550519Y-74411927D01*
X80559142Y-74423553D01*
X80566583Y-74435969D01*
X80572772Y-74449054D01*
X80577649Y-74462683D01*
X80581166Y-74476724D01*
X80583290Y-74491042D01*
X80584000Y-74505500D01*
X80584000Y-74800500D01*
X80583290Y-74814958D01*
X80581166Y-74829276D01*
X80577649Y-74843317D01*
X80572772Y-74856946D01*
X80566583Y-74870031D01*
X80559142Y-74882447D01*
X80550519Y-74894073D01*
X80540798Y-74904798D01*
X80530073Y-74914519D01*
X80518447Y-74923142D01*
X80506031Y-74930583D01*
X80492946Y-74936772D01*
X80479317Y-74941649D01*
X80465276Y-74945166D01*
X80450958Y-74947290D01*
X80436500Y-74948000D01*
X80091500Y-74948000D01*
X80077042Y-74947290D01*
X80062724Y-74945166D01*
X80048683Y-74941649D01*
X80035054Y-74936772D01*
X80021969Y-74930583D01*
X80009553Y-74923142D01*
X79997927Y-74914519D01*
X79987202Y-74904798D01*
X79977481Y-74894073D01*
X79968858Y-74882447D01*
X79961417Y-74870031D01*
X79955228Y-74856946D01*
X79950351Y-74843317D01*
X79946834Y-74829276D01*
X79944710Y-74814958D01*
X79944000Y-74800500D01*
X79944000Y-74505500D01*
X79944710Y-74491042D01*
X79946834Y-74476724D01*
X79950351Y-74462683D01*
X79955228Y-74449054D01*
X79961417Y-74435969D01*
X79968858Y-74423553D01*
X79977481Y-74411927D01*
X79987202Y-74401202D01*
X79997927Y-74391481D01*
X80009553Y-74382858D01*
X80021969Y-74375417D01*
X80035054Y-74369228D01*
X80048683Y-74364351D01*
X80062724Y-74360834D01*
X80077042Y-74358710D01*
X80091500Y-74358000D01*
X80436500Y-74358000D01*
X80450958Y-74358710D01*
G37*
G36*
X78162958Y-42860710D02*
G01*
X78177276Y-42862834D01*
X78191317Y-42866351D01*
X78204946Y-42871228D01*
X78218031Y-42877417D01*
X78230447Y-42884858D01*
X78242073Y-42893481D01*
X78252798Y-42903202D01*
X78262519Y-42913927D01*
X78271142Y-42925553D01*
X78278583Y-42937969D01*
X78284772Y-42951054D01*
X78289649Y-42964683D01*
X78293166Y-42978724D01*
X78295290Y-42993042D01*
X78296000Y-43007500D01*
X78296000Y-43352500D01*
X78295290Y-43366958D01*
X78293166Y-43381276D01*
X78289649Y-43395317D01*
X78284772Y-43408946D01*
X78278583Y-43422031D01*
X78271142Y-43434447D01*
X78262519Y-43446073D01*
X78252798Y-43456798D01*
X78242073Y-43466519D01*
X78230447Y-43475142D01*
X78218031Y-43482583D01*
X78204946Y-43488772D01*
X78191317Y-43493649D01*
X78177276Y-43497166D01*
X78162958Y-43499290D01*
X78148500Y-43500000D01*
X77853500Y-43500000D01*
X77839042Y-43499290D01*
X77824724Y-43497166D01*
X77810683Y-43493649D01*
X77797054Y-43488772D01*
X77783969Y-43482583D01*
X77771553Y-43475142D01*
X77759927Y-43466519D01*
X77749202Y-43456798D01*
X77739481Y-43446073D01*
X77730858Y-43434447D01*
X77723417Y-43422031D01*
X77717228Y-43408946D01*
X77712351Y-43395317D01*
X77708834Y-43381276D01*
X77706710Y-43366958D01*
X77706000Y-43352500D01*
X77706000Y-43007500D01*
X77706710Y-42993042D01*
X77708834Y-42978724D01*
X77712351Y-42964683D01*
X77717228Y-42951054D01*
X77723417Y-42937969D01*
X77730858Y-42925553D01*
X77739481Y-42913927D01*
X77749202Y-42903202D01*
X77759927Y-42893481D01*
X77771553Y-42884858D01*
X77783969Y-42877417D01*
X77797054Y-42871228D01*
X77810683Y-42866351D01*
X77824724Y-42862834D01*
X77839042Y-42860710D01*
X77853500Y-42860000D01*
X78148500Y-42860000D01*
X78162958Y-42860710D01*
G37*
G36*
X79132958Y-42860710D02*
G01*
X79147276Y-42862834D01*
X79161317Y-42866351D01*
X79174946Y-42871228D01*
X79188031Y-42877417D01*
X79200447Y-42884858D01*
X79212073Y-42893481D01*
X79222798Y-42903202D01*
X79232519Y-42913927D01*
X79241142Y-42925553D01*
X79248583Y-42937969D01*
X79254772Y-42951054D01*
X79259649Y-42964683D01*
X79263166Y-42978724D01*
X79265290Y-42993042D01*
X79266000Y-43007500D01*
X79266000Y-43352500D01*
X79265290Y-43366958D01*
X79263166Y-43381276D01*
X79259649Y-43395317D01*
X79254772Y-43408946D01*
X79248583Y-43422031D01*
X79241142Y-43434447D01*
X79232519Y-43446073D01*
X79222798Y-43456798D01*
X79212073Y-43466519D01*
X79200447Y-43475142D01*
X79188031Y-43482583D01*
X79174946Y-43488772D01*
X79161317Y-43493649D01*
X79147276Y-43497166D01*
X79132958Y-43499290D01*
X79118500Y-43500000D01*
X78823500Y-43500000D01*
X78809042Y-43499290D01*
X78794724Y-43497166D01*
X78780683Y-43493649D01*
X78767054Y-43488772D01*
X78753969Y-43482583D01*
X78741553Y-43475142D01*
X78729927Y-43466519D01*
X78719202Y-43456798D01*
X78709481Y-43446073D01*
X78700858Y-43434447D01*
X78693417Y-43422031D01*
X78687228Y-43408946D01*
X78682351Y-43395317D01*
X78678834Y-43381276D01*
X78676710Y-43366958D01*
X78676000Y-43352500D01*
X78676000Y-43007500D01*
X78676710Y-42993042D01*
X78678834Y-42978724D01*
X78682351Y-42964683D01*
X78687228Y-42951054D01*
X78693417Y-42937969D01*
X78700858Y-42925553D01*
X78709481Y-42913927D01*
X78719202Y-42903202D01*
X78729927Y-42893481D01*
X78741553Y-42884858D01*
X78753969Y-42877417D01*
X78767054Y-42871228D01*
X78780683Y-42866351D01*
X78794724Y-42862834D01*
X78809042Y-42860710D01*
X78823500Y-42860000D01*
X79118500Y-42860000D01*
X79132958Y-42860710D01*
G37*
G36*
X84451458Y-45512210D02*
G01*
X84465776Y-45514334D01*
X84479817Y-45517851D01*
X84493446Y-45522728D01*
X84506531Y-45528917D01*
X84518947Y-45536358D01*
X84530573Y-45544981D01*
X84541298Y-45554702D01*
X84551019Y-45565427D01*
X84559642Y-45577053D01*
X84567083Y-45589469D01*
X84573272Y-45602554D01*
X84578149Y-45616183D01*
X84581666Y-45630224D01*
X84583790Y-45644542D01*
X84584500Y-45659000D01*
X84584500Y-45954000D01*
X84583790Y-45968458D01*
X84581666Y-45982776D01*
X84578149Y-45996817D01*
X84573272Y-46010446D01*
X84567083Y-46023531D01*
X84559642Y-46035947D01*
X84551019Y-46047573D01*
X84541298Y-46058298D01*
X84530573Y-46068019D01*
X84518947Y-46076642D01*
X84506531Y-46084083D01*
X84493446Y-46090272D01*
X84479817Y-46095149D01*
X84465776Y-46098666D01*
X84451458Y-46100790D01*
X84437000Y-46101500D01*
X84092000Y-46101500D01*
X84077542Y-46100790D01*
X84063224Y-46098666D01*
X84049183Y-46095149D01*
X84035554Y-46090272D01*
X84022469Y-46084083D01*
X84010053Y-46076642D01*
X83998427Y-46068019D01*
X83987702Y-46058298D01*
X83977981Y-46047573D01*
X83969358Y-46035947D01*
X83961917Y-46023531D01*
X83955728Y-46010446D01*
X83950851Y-45996817D01*
X83947334Y-45982776D01*
X83945210Y-45968458D01*
X83944500Y-45954000D01*
X83944500Y-45659000D01*
X83945210Y-45644542D01*
X83947334Y-45630224D01*
X83950851Y-45616183D01*
X83955728Y-45602554D01*
X83961917Y-45589469D01*
X83969358Y-45577053D01*
X83977981Y-45565427D01*
X83987702Y-45554702D01*
X83998427Y-45544981D01*
X84010053Y-45536358D01*
X84022469Y-45528917D01*
X84035554Y-45522728D01*
X84049183Y-45517851D01*
X84063224Y-45514334D01*
X84077542Y-45512210D01*
X84092000Y-45511500D01*
X84437000Y-45511500D01*
X84451458Y-45512210D01*
G37*
G36*
X84451458Y-46482210D02*
G01*
X84465776Y-46484334D01*
X84479817Y-46487851D01*
X84493446Y-46492728D01*
X84506531Y-46498917D01*
X84518947Y-46506358D01*
X84530573Y-46514981D01*
X84541298Y-46524702D01*
X84551019Y-46535427D01*
X84559642Y-46547053D01*
X84567083Y-46559469D01*
X84573272Y-46572554D01*
X84578149Y-46586183D01*
X84581666Y-46600224D01*
X84583790Y-46614542D01*
X84584500Y-46629000D01*
X84584500Y-46924000D01*
X84583790Y-46938458D01*
X84581666Y-46952776D01*
X84578149Y-46966817D01*
X84573272Y-46980446D01*
X84567083Y-46993531D01*
X84559642Y-47005947D01*
X84551019Y-47017573D01*
X84541298Y-47028298D01*
X84530573Y-47038019D01*
X84518947Y-47046642D01*
X84506531Y-47054083D01*
X84493446Y-47060272D01*
X84479817Y-47065149D01*
X84465776Y-47068666D01*
X84451458Y-47070790D01*
X84437000Y-47071500D01*
X84092000Y-47071500D01*
X84077542Y-47070790D01*
X84063224Y-47068666D01*
X84049183Y-47065149D01*
X84035554Y-47060272D01*
X84022469Y-47054083D01*
X84010053Y-47046642D01*
X83998427Y-47038019D01*
X83987702Y-47028298D01*
X83977981Y-47017573D01*
X83969358Y-47005947D01*
X83961917Y-46993531D01*
X83955728Y-46980446D01*
X83950851Y-46966817D01*
X83947334Y-46952776D01*
X83945210Y-46938458D01*
X83944500Y-46924000D01*
X83944500Y-46629000D01*
X83945210Y-46614542D01*
X83947334Y-46600224D01*
X83950851Y-46586183D01*
X83955728Y-46572554D01*
X83961917Y-46559469D01*
X83969358Y-46547053D01*
X83977981Y-46535427D01*
X83987702Y-46524702D01*
X83998427Y-46514981D01*
X84010053Y-46506358D01*
X84022469Y-46498917D01*
X84035554Y-46492728D01*
X84049183Y-46487851D01*
X84063224Y-46484334D01*
X84077542Y-46482210D01*
X84092000Y-46481500D01*
X84437000Y-46481500D01*
X84451458Y-46482210D01*
G37*
G36*
X85276958Y-79992710D02*
G01*
X85291276Y-79994834D01*
X85305317Y-79998351D01*
X85318946Y-80003228D01*
X85332031Y-80009417D01*
X85344447Y-80016858D01*
X85356073Y-80025481D01*
X85366798Y-80035202D01*
X85376519Y-80045927D01*
X85385142Y-80057553D01*
X85392583Y-80069969D01*
X85398772Y-80083054D01*
X85403649Y-80096683D01*
X85407166Y-80110724D01*
X85409290Y-80125042D01*
X85410000Y-80139500D01*
X85410000Y-80434500D01*
X85409290Y-80448958D01*
X85407166Y-80463276D01*
X85403649Y-80477317D01*
X85398772Y-80490946D01*
X85392583Y-80504031D01*
X85385142Y-80516447D01*
X85376519Y-80528073D01*
X85366798Y-80538798D01*
X85356073Y-80548519D01*
X85344447Y-80557142D01*
X85332031Y-80564583D01*
X85318946Y-80570772D01*
X85305317Y-80575649D01*
X85291276Y-80579166D01*
X85276958Y-80581290D01*
X85262500Y-80582000D01*
X84917500Y-80582000D01*
X84903042Y-80581290D01*
X84888724Y-80579166D01*
X84874683Y-80575649D01*
X84861054Y-80570772D01*
X84847969Y-80564583D01*
X84835553Y-80557142D01*
X84823927Y-80548519D01*
X84813202Y-80538798D01*
X84803481Y-80528073D01*
X84794858Y-80516447D01*
X84787417Y-80504031D01*
X84781228Y-80490946D01*
X84776351Y-80477317D01*
X84772834Y-80463276D01*
X84770710Y-80448958D01*
X84770000Y-80434500D01*
X84770000Y-80139500D01*
X84770710Y-80125042D01*
X84772834Y-80110724D01*
X84776351Y-80096683D01*
X84781228Y-80083054D01*
X84787417Y-80069969D01*
X84794858Y-80057553D01*
X84803481Y-80045927D01*
X84813202Y-80035202D01*
X84823927Y-80025481D01*
X84835553Y-80016858D01*
X84847969Y-80009417D01*
X84861054Y-80003228D01*
X84874683Y-79998351D01*
X84888724Y-79994834D01*
X84903042Y-79992710D01*
X84917500Y-79992000D01*
X85262500Y-79992000D01*
X85276958Y-79992710D01*
G37*
G36*
X85276958Y-80962710D02*
G01*
X85291276Y-80964834D01*
X85305317Y-80968351D01*
X85318946Y-80973228D01*
X85332031Y-80979417D01*
X85344447Y-80986858D01*
X85356073Y-80995481D01*
X85366798Y-81005202D01*
X85376519Y-81015927D01*
X85385142Y-81027553D01*
X85392583Y-81039969D01*
X85398772Y-81053054D01*
X85403649Y-81066683D01*
X85407166Y-81080724D01*
X85409290Y-81095042D01*
X85410000Y-81109500D01*
X85410000Y-81404500D01*
X85409290Y-81418958D01*
X85407166Y-81433276D01*
X85403649Y-81447317D01*
X85398772Y-81460946D01*
X85392583Y-81474031D01*
X85385142Y-81486447D01*
X85376519Y-81498073D01*
X85366798Y-81508798D01*
X85356073Y-81518519D01*
X85344447Y-81527142D01*
X85332031Y-81534583D01*
X85318946Y-81540772D01*
X85305317Y-81545649D01*
X85291276Y-81549166D01*
X85276958Y-81551290D01*
X85262500Y-81552000D01*
X84917500Y-81552000D01*
X84903042Y-81551290D01*
X84888724Y-81549166D01*
X84874683Y-81545649D01*
X84861054Y-81540772D01*
X84847969Y-81534583D01*
X84835553Y-81527142D01*
X84823927Y-81518519D01*
X84813202Y-81508798D01*
X84803481Y-81498073D01*
X84794858Y-81486447D01*
X84787417Y-81474031D01*
X84781228Y-81460946D01*
X84776351Y-81447317D01*
X84772834Y-81433276D01*
X84770710Y-81418958D01*
X84770000Y-81404500D01*
X84770000Y-81109500D01*
X84770710Y-81095042D01*
X84772834Y-81080724D01*
X84776351Y-81066683D01*
X84781228Y-81053054D01*
X84787417Y-81039969D01*
X84794858Y-81027553D01*
X84803481Y-81015927D01*
X84813202Y-81005202D01*
X84823927Y-80995481D01*
X84835553Y-80986858D01*
X84847969Y-80979417D01*
X84861054Y-80973228D01*
X84874683Y-80968351D01*
X84888724Y-80964834D01*
X84903042Y-80962710D01*
X84917500Y-80962000D01*
X85262500Y-80962000D01*
X85276958Y-80962710D01*
G37*
G36*
X75449958Y-76261710D02*
G01*
X75464276Y-76263834D01*
X75478317Y-76267351D01*
X75491946Y-76272228D01*
X75505031Y-76278417D01*
X75517447Y-76285858D01*
X75529073Y-76294481D01*
X75539798Y-76304202D01*
X75549519Y-76314927D01*
X75558142Y-76326553D01*
X75565583Y-76338969D01*
X75571772Y-76352054D01*
X75576649Y-76365683D01*
X75580166Y-76379724D01*
X75582290Y-76394042D01*
X75583000Y-76408500D01*
X75583000Y-76753500D01*
X75582290Y-76767958D01*
X75580166Y-76782276D01*
X75576649Y-76796317D01*
X75571772Y-76809946D01*
X75565583Y-76823031D01*
X75558142Y-76835447D01*
X75549519Y-76847073D01*
X75539798Y-76857798D01*
X75529073Y-76867519D01*
X75517447Y-76876142D01*
X75505031Y-76883583D01*
X75491946Y-76889772D01*
X75478317Y-76894649D01*
X75464276Y-76898166D01*
X75449958Y-76900290D01*
X75435500Y-76901000D01*
X75140500Y-76901000D01*
X75126042Y-76900290D01*
X75111724Y-76898166D01*
X75097683Y-76894649D01*
X75084054Y-76889772D01*
X75070969Y-76883583D01*
X75058553Y-76876142D01*
X75046927Y-76867519D01*
X75036202Y-76857798D01*
X75026481Y-76847073D01*
X75017858Y-76835447D01*
X75010417Y-76823031D01*
X75004228Y-76809946D01*
X74999351Y-76796317D01*
X74995834Y-76782276D01*
X74993710Y-76767958D01*
X74993000Y-76753500D01*
X74993000Y-76408500D01*
X74993710Y-76394042D01*
X74995834Y-76379724D01*
X74999351Y-76365683D01*
X75004228Y-76352054D01*
X75010417Y-76338969D01*
X75017858Y-76326553D01*
X75026481Y-76314927D01*
X75036202Y-76304202D01*
X75046927Y-76294481D01*
X75058553Y-76285858D01*
X75070969Y-76278417D01*
X75084054Y-76272228D01*
X75097683Y-76267351D01*
X75111724Y-76263834D01*
X75126042Y-76261710D01*
X75140500Y-76261000D01*
X75435500Y-76261000D01*
X75449958Y-76261710D01*
G37*
G36*
X74479958Y-76261710D02*
G01*
X74494276Y-76263834D01*
X74508317Y-76267351D01*
X74521946Y-76272228D01*
X74535031Y-76278417D01*
X74547447Y-76285858D01*
X74559073Y-76294481D01*
X74569798Y-76304202D01*
X74579519Y-76314927D01*
X74588142Y-76326553D01*
X74595583Y-76338969D01*
X74601772Y-76352054D01*
X74606649Y-76365683D01*
X74610166Y-76379724D01*
X74612290Y-76394042D01*
X74613000Y-76408500D01*
X74613000Y-76753500D01*
X74612290Y-76767958D01*
X74610166Y-76782276D01*
X74606649Y-76796317D01*
X74601772Y-76809946D01*
X74595583Y-76823031D01*
X74588142Y-76835447D01*
X74579519Y-76847073D01*
X74569798Y-76857798D01*
X74559073Y-76867519D01*
X74547447Y-76876142D01*
X74535031Y-76883583D01*
X74521946Y-76889772D01*
X74508317Y-76894649D01*
X74494276Y-76898166D01*
X74479958Y-76900290D01*
X74465500Y-76901000D01*
X74170500Y-76901000D01*
X74156042Y-76900290D01*
X74141724Y-76898166D01*
X74127683Y-76894649D01*
X74114054Y-76889772D01*
X74100969Y-76883583D01*
X74088553Y-76876142D01*
X74076927Y-76867519D01*
X74066202Y-76857798D01*
X74056481Y-76847073D01*
X74047858Y-76835447D01*
X74040417Y-76823031D01*
X74034228Y-76809946D01*
X74029351Y-76796317D01*
X74025834Y-76782276D01*
X74023710Y-76767958D01*
X74023000Y-76753500D01*
X74023000Y-76408500D01*
X74023710Y-76394042D01*
X74025834Y-76379724D01*
X74029351Y-76365683D01*
X74034228Y-76352054D01*
X74040417Y-76338969D01*
X74047858Y-76326553D01*
X74056481Y-76314927D01*
X74066202Y-76304202D01*
X74076927Y-76294481D01*
X74088553Y-76285858D01*
X74100969Y-76278417D01*
X74114054Y-76272228D01*
X74127683Y-76267351D01*
X74141724Y-76263834D01*
X74156042Y-76261710D01*
X74170500Y-76261000D01*
X74465500Y-76261000D01*
X74479958Y-76261710D01*
G37*
G36*
X74608958Y-41846710D02*
G01*
X74623276Y-41848834D01*
X74637317Y-41852351D01*
X74650946Y-41857228D01*
X74664031Y-41863417D01*
X74676447Y-41870858D01*
X74688073Y-41879481D01*
X74698798Y-41889202D01*
X74708519Y-41899927D01*
X74717142Y-41911553D01*
X74724583Y-41923969D01*
X74730772Y-41937054D01*
X74735649Y-41950683D01*
X74739166Y-41964724D01*
X74741290Y-41979042D01*
X74742000Y-41993500D01*
X74742000Y-42288500D01*
X74741290Y-42302958D01*
X74739166Y-42317276D01*
X74735649Y-42331317D01*
X74730772Y-42344946D01*
X74724583Y-42358031D01*
X74717142Y-42370447D01*
X74708519Y-42382073D01*
X74698798Y-42392798D01*
X74688073Y-42402519D01*
X74676447Y-42411142D01*
X74664031Y-42418583D01*
X74650946Y-42424772D01*
X74637317Y-42429649D01*
X74623276Y-42433166D01*
X74608958Y-42435290D01*
X74594500Y-42436000D01*
X74249500Y-42436000D01*
X74235042Y-42435290D01*
X74220724Y-42433166D01*
X74206683Y-42429649D01*
X74193054Y-42424772D01*
X74179969Y-42418583D01*
X74167553Y-42411142D01*
X74155927Y-42402519D01*
X74145202Y-42392798D01*
X74135481Y-42382073D01*
X74126858Y-42370447D01*
X74119417Y-42358031D01*
X74113228Y-42344946D01*
X74108351Y-42331317D01*
X74104834Y-42317276D01*
X74102710Y-42302958D01*
X74102000Y-42288500D01*
X74102000Y-41993500D01*
X74102710Y-41979042D01*
X74104834Y-41964724D01*
X74108351Y-41950683D01*
X74113228Y-41937054D01*
X74119417Y-41923969D01*
X74126858Y-41911553D01*
X74135481Y-41899927D01*
X74145202Y-41889202D01*
X74155927Y-41879481D01*
X74167553Y-41870858D01*
X74179969Y-41863417D01*
X74193054Y-41857228D01*
X74206683Y-41852351D01*
X74220724Y-41848834D01*
X74235042Y-41846710D01*
X74249500Y-41846000D01*
X74594500Y-41846000D01*
X74608958Y-41846710D01*
G37*
G36*
X74608958Y-40876710D02*
G01*
X74623276Y-40878834D01*
X74637317Y-40882351D01*
X74650946Y-40887228D01*
X74664031Y-40893417D01*
X74676447Y-40900858D01*
X74688073Y-40909481D01*
X74698798Y-40919202D01*
X74708519Y-40929927D01*
X74717142Y-40941553D01*
X74724583Y-40953969D01*
X74730772Y-40967054D01*
X74735649Y-40980683D01*
X74739166Y-40994724D01*
X74741290Y-41009042D01*
X74742000Y-41023500D01*
X74742000Y-41318500D01*
X74741290Y-41332958D01*
X74739166Y-41347276D01*
X74735649Y-41361317D01*
X74730772Y-41374946D01*
X74724583Y-41388031D01*
X74717142Y-41400447D01*
X74708519Y-41412073D01*
X74698798Y-41422798D01*
X74688073Y-41432519D01*
X74676447Y-41441142D01*
X74664031Y-41448583D01*
X74650946Y-41454772D01*
X74637317Y-41459649D01*
X74623276Y-41463166D01*
X74608958Y-41465290D01*
X74594500Y-41466000D01*
X74249500Y-41466000D01*
X74235042Y-41465290D01*
X74220724Y-41463166D01*
X74206683Y-41459649D01*
X74193054Y-41454772D01*
X74179969Y-41448583D01*
X74167553Y-41441142D01*
X74155927Y-41432519D01*
X74145202Y-41422798D01*
X74135481Y-41412073D01*
X74126858Y-41400447D01*
X74119417Y-41388031D01*
X74113228Y-41374946D01*
X74108351Y-41361317D01*
X74104834Y-41347276D01*
X74102710Y-41332958D01*
X74102000Y-41318500D01*
X74102000Y-41023500D01*
X74102710Y-41009042D01*
X74104834Y-40994724D01*
X74108351Y-40980683D01*
X74113228Y-40967054D01*
X74119417Y-40953969D01*
X74126858Y-40941553D01*
X74135481Y-40929927D01*
X74145202Y-40919202D01*
X74155927Y-40909481D01*
X74167553Y-40900858D01*
X74179969Y-40893417D01*
X74193054Y-40887228D01*
X74206683Y-40882351D01*
X74220724Y-40878834D01*
X74235042Y-40876710D01*
X74249500Y-40876000D01*
X74594500Y-40876000D01*
X74608958Y-40876710D01*
G37*
G36*
X89038958Y-70038710D02*
G01*
X89053276Y-70040834D01*
X89067317Y-70044351D01*
X89080946Y-70049228D01*
X89094031Y-70055417D01*
X89106447Y-70062858D01*
X89118073Y-70071481D01*
X89128798Y-70081202D01*
X89138519Y-70091927D01*
X89147142Y-70103553D01*
X89154583Y-70115969D01*
X89160772Y-70129054D01*
X89165649Y-70142683D01*
X89169166Y-70156724D01*
X89171290Y-70171042D01*
X89172000Y-70185500D01*
X89172000Y-70530500D01*
X89171290Y-70544958D01*
X89169166Y-70559276D01*
X89165649Y-70573317D01*
X89160772Y-70586946D01*
X89154583Y-70600031D01*
X89147142Y-70612447D01*
X89138519Y-70624073D01*
X89128798Y-70634798D01*
X89118073Y-70644519D01*
X89106447Y-70653142D01*
X89094031Y-70660583D01*
X89080946Y-70666772D01*
X89067317Y-70671649D01*
X89053276Y-70675166D01*
X89038958Y-70677290D01*
X89024500Y-70678000D01*
X88729500Y-70678000D01*
X88715042Y-70677290D01*
X88700724Y-70675166D01*
X88686683Y-70671649D01*
X88673054Y-70666772D01*
X88659969Y-70660583D01*
X88647553Y-70653142D01*
X88635927Y-70644519D01*
X88625202Y-70634798D01*
X88615481Y-70624073D01*
X88606858Y-70612447D01*
X88599417Y-70600031D01*
X88593228Y-70586946D01*
X88588351Y-70573317D01*
X88584834Y-70559276D01*
X88582710Y-70544958D01*
X88582000Y-70530500D01*
X88582000Y-70185500D01*
X88582710Y-70171042D01*
X88584834Y-70156724D01*
X88588351Y-70142683D01*
X88593228Y-70129054D01*
X88599417Y-70115969D01*
X88606858Y-70103553D01*
X88615481Y-70091927D01*
X88625202Y-70081202D01*
X88635927Y-70071481D01*
X88647553Y-70062858D01*
X88659969Y-70055417D01*
X88673054Y-70049228D01*
X88686683Y-70044351D01*
X88700724Y-70040834D01*
X88715042Y-70038710D01*
X88729500Y-70038000D01*
X89024500Y-70038000D01*
X89038958Y-70038710D01*
G37*
G36*
X88068958Y-70038710D02*
G01*
X88083276Y-70040834D01*
X88097317Y-70044351D01*
X88110946Y-70049228D01*
X88124031Y-70055417D01*
X88136447Y-70062858D01*
X88148073Y-70071481D01*
X88158798Y-70081202D01*
X88168519Y-70091927D01*
X88177142Y-70103553D01*
X88184583Y-70115969D01*
X88190772Y-70129054D01*
X88195649Y-70142683D01*
X88199166Y-70156724D01*
X88201290Y-70171042D01*
X88202000Y-70185500D01*
X88202000Y-70530500D01*
X88201290Y-70544958D01*
X88199166Y-70559276D01*
X88195649Y-70573317D01*
X88190772Y-70586946D01*
X88184583Y-70600031D01*
X88177142Y-70612447D01*
X88168519Y-70624073D01*
X88158798Y-70634798D01*
X88148073Y-70644519D01*
X88136447Y-70653142D01*
X88124031Y-70660583D01*
X88110946Y-70666772D01*
X88097317Y-70671649D01*
X88083276Y-70675166D01*
X88068958Y-70677290D01*
X88054500Y-70678000D01*
X87759500Y-70678000D01*
X87745042Y-70677290D01*
X87730724Y-70675166D01*
X87716683Y-70671649D01*
X87703054Y-70666772D01*
X87689969Y-70660583D01*
X87677553Y-70653142D01*
X87665927Y-70644519D01*
X87655202Y-70634798D01*
X87645481Y-70624073D01*
X87636858Y-70612447D01*
X87629417Y-70600031D01*
X87623228Y-70586946D01*
X87618351Y-70573317D01*
X87614834Y-70559276D01*
X87612710Y-70544958D01*
X87612000Y-70530500D01*
X87612000Y-70185500D01*
X87612710Y-70171042D01*
X87614834Y-70156724D01*
X87618351Y-70142683D01*
X87623228Y-70129054D01*
X87629417Y-70115969D01*
X87636858Y-70103553D01*
X87645481Y-70091927D01*
X87655202Y-70081202D01*
X87665927Y-70071481D01*
X87677553Y-70062858D01*
X87689969Y-70055417D01*
X87703054Y-70049228D01*
X87716683Y-70044351D01*
X87730724Y-70040834D01*
X87745042Y-70038710D01*
X87759500Y-70038000D01*
X88054500Y-70038000D01*
X88068958Y-70038710D01*
G37*
G36*
X90608958Y-65974710D02*
G01*
X90623276Y-65976834D01*
X90637317Y-65980351D01*
X90650946Y-65985228D01*
X90664031Y-65991417D01*
X90676447Y-65998858D01*
X90688073Y-66007481D01*
X90698798Y-66017202D01*
X90708519Y-66027927D01*
X90717142Y-66039553D01*
X90724583Y-66051969D01*
X90730772Y-66065054D01*
X90735649Y-66078683D01*
X90739166Y-66092724D01*
X90741290Y-66107042D01*
X90742000Y-66121500D01*
X90742000Y-66466500D01*
X90741290Y-66480958D01*
X90739166Y-66495276D01*
X90735649Y-66509317D01*
X90730772Y-66522946D01*
X90724583Y-66536031D01*
X90717142Y-66548447D01*
X90708519Y-66560073D01*
X90698798Y-66570798D01*
X90688073Y-66580519D01*
X90676447Y-66589142D01*
X90664031Y-66596583D01*
X90650946Y-66602772D01*
X90637317Y-66607649D01*
X90623276Y-66611166D01*
X90608958Y-66613290D01*
X90594500Y-66614000D01*
X90299500Y-66614000D01*
X90285042Y-66613290D01*
X90270724Y-66611166D01*
X90256683Y-66607649D01*
X90243054Y-66602772D01*
X90229969Y-66596583D01*
X90217553Y-66589142D01*
X90205927Y-66580519D01*
X90195202Y-66570798D01*
X90185481Y-66560073D01*
X90176858Y-66548447D01*
X90169417Y-66536031D01*
X90163228Y-66522946D01*
X90158351Y-66509317D01*
X90154834Y-66495276D01*
X90152710Y-66480958D01*
X90152000Y-66466500D01*
X90152000Y-66121500D01*
X90152710Y-66107042D01*
X90154834Y-66092724D01*
X90158351Y-66078683D01*
X90163228Y-66065054D01*
X90169417Y-66051969D01*
X90176858Y-66039553D01*
X90185481Y-66027927D01*
X90195202Y-66017202D01*
X90205927Y-66007481D01*
X90217553Y-65998858D01*
X90229969Y-65991417D01*
X90243054Y-65985228D01*
X90256683Y-65980351D01*
X90270724Y-65976834D01*
X90285042Y-65974710D01*
X90299500Y-65974000D01*
X90594500Y-65974000D01*
X90608958Y-65974710D01*
G37*
G36*
X91578958Y-65974710D02*
G01*
X91593276Y-65976834D01*
X91607317Y-65980351D01*
X91620946Y-65985228D01*
X91634031Y-65991417D01*
X91646447Y-65998858D01*
X91658073Y-66007481D01*
X91668798Y-66017202D01*
X91678519Y-66027927D01*
X91687142Y-66039553D01*
X91694583Y-66051969D01*
X91700772Y-66065054D01*
X91705649Y-66078683D01*
X91709166Y-66092724D01*
X91711290Y-66107042D01*
X91712000Y-66121500D01*
X91712000Y-66466500D01*
X91711290Y-66480958D01*
X91709166Y-66495276D01*
X91705649Y-66509317D01*
X91700772Y-66522946D01*
X91694583Y-66536031D01*
X91687142Y-66548447D01*
X91678519Y-66560073D01*
X91668798Y-66570798D01*
X91658073Y-66580519D01*
X91646447Y-66589142D01*
X91634031Y-66596583D01*
X91620946Y-66602772D01*
X91607317Y-66607649D01*
X91593276Y-66611166D01*
X91578958Y-66613290D01*
X91564500Y-66614000D01*
X91269500Y-66614000D01*
X91255042Y-66613290D01*
X91240724Y-66611166D01*
X91226683Y-66607649D01*
X91213054Y-66602772D01*
X91199969Y-66596583D01*
X91187553Y-66589142D01*
X91175927Y-66580519D01*
X91165202Y-66570798D01*
X91155481Y-66560073D01*
X91146858Y-66548447D01*
X91139417Y-66536031D01*
X91133228Y-66522946D01*
X91128351Y-66509317D01*
X91124834Y-66495276D01*
X91122710Y-66480958D01*
X91122000Y-66466500D01*
X91122000Y-66121500D01*
X91122710Y-66107042D01*
X91124834Y-66092724D01*
X91128351Y-66078683D01*
X91133228Y-66065054D01*
X91139417Y-66051969D01*
X91146858Y-66039553D01*
X91155481Y-66027927D01*
X91165202Y-66017202D01*
X91175927Y-66007481D01*
X91187553Y-65998858D01*
X91199969Y-65991417D01*
X91213054Y-65985228D01*
X91226683Y-65980351D01*
X91240724Y-65976834D01*
X91255042Y-65974710D01*
X91269500Y-65974000D01*
X91564500Y-65974000D01*
X91578958Y-65974710D01*
G37*
G36*
X81418958Y-44892710D02*
G01*
X81433276Y-44894834D01*
X81447317Y-44898351D01*
X81460946Y-44903228D01*
X81474031Y-44909417D01*
X81486447Y-44916858D01*
X81498073Y-44925481D01*
X81508798Y-44935202D01*
X81518519Y-44945927D01*
X81527142Y-44957553D01*
X81534583Y-44969969D01*
X81540772Y-44983054D01*
X81545649Y-44996683D01*
X81549166Y-45010724D01*
X81551290Y-45025042D01*
X81552000Y-45039500D01*
X81552000Y-45384500D01*
X81551290Y-45398958D01*
X81549166Y-45413276D01*
X81545649Y-45427317D01*
X81540772Y-45440946D01*
X81534583Y-45454031D01*
X81527142Y-45466447D01*
X81518519Y-45478073D01*
X81508798Y-45488798D01*
X81498073Y-45498519D01*
X81486447Y-45507142D01*
X81474031Y-45514583D01*
X81460946Y-45520772D01*
X81447317Y-45525649D01*
X81433276Y-45529166D01*
X81418958Y-45531290D01*
X81404500Y-45532000D01*
X81109500Y-45532000D01*
X81095042Y-45531290D01*
X81080724Y-45529166D01*
X81066683Y-45525649D01*
X81053054Y-45520772D01*
X81039969Y-45514583D01*
X81027553Y-45507142D01*
X81015927Y-45498519D01*
X81005202Y-45488798D01*
X80995481Y-45478073D01*
X80986858Y-45466447D01*
X80979417Y-45454031D01*
X80973228Y-45440946D01*
X80968351Y-45427317D01*
X80964834Y-45413276D01*
X80962710Y-45398958D01*
X80962000Y-45384500D01*
X80962000Y-45039500D01*
X80962710Y-45025042D01*
X80964834Y-45010724D01*
X80968351Y-44996683D01*
X80973228Y-44983054D01*
X80979417Y-44969969D01*
X80986858Y-44957553D01*
X80995481Y-44945927D01*
X81005202Y-44935202D01*
X81015927Y-44925481D01*
X81027553Y-44916858D01*
X81039969Y-44909417D01*
X81053054Y-44903228D01*
X81066683Y-44898351D01*
X81080724Y-44894834D01*
X81095042Y-44892710D01*
X81109500Y-44892000D01*
X81404500Y-44892000D01*
X81418958Y-44892710D01*
G37*
G36*
X80448958Y-44892710D02*
G01*
X80463276Y-44894834D01*
X80477317Y-44898351D01*
X80490946Y-44903228D01*
X80504031Y-44909417D01*
X80516447Y-44916858D01*
X80528073Y-44925481D01*
X80538798Y-44935202D01*
X80548519Y-44945927D01*
X80557142Y-44957553D01*
X80564583Y-44969969D01*
X80570772Y-44983054D01*
X80575649Y-44996683D01*
X80579166Y-45010724D01*
X80581290Y-45025042D01*
X80582000Y-45039500D01*
X80582000Y-45384500D01*
X80581290Y-45398958D01*
X80579166Y-45413276D01*
X80575649Y-45427317D01*
X80570772Y-45440946D01*
X80564583Y-45454031D01*
X80557142Y-45466447D01*
X80548519Y-45478073D01*
X80538798Y-45488798D01*
X80528073Y-45498519D01*
X80516447Y-45507142D01*
X80504031Y-45514583D01*
X80490946Y-45520772D01*
X80477317Y-45525649D01*
X80463276Y-45529166D01*
X80448958Y-45531290D01*
X80434500Y-45532000D01*
X80139500Y-45532000D01*
X80125042Y-45531290D01*
X80110724Y-45529166D01*
X80096683Y-45525649D01*
X80083054Y-45520772D01*
X80069969Y-45514583D01*
X80057553Y-45507142D01*
X80045927Y-45498519D01*
X80035202Y-45488798D01*
X80025481Y-45478073D01*
X80016858Y-45466447D01*
X80009417Y-45454031D01*
X80003228Y-45440946D01*
X79998351Y-45427317D01*
X79994834Y-45413276D01*
X79992710Y-45398958D01*
X79992000Y-45384500D01*
X79992000Y-45039500D01*
X79992710Y-45025042D01*
X79994834Y-45010724D01*
X79998351Y-44996683D01*
X80003228Y-44983054D01*
X80009417Y-44969969D01*
X80016858Y-44957553D01*
X80025481Y-44945927D01*
X80035202Y-44935202D01*
X80045927Y-44925481D01*
X80057553Y-44916858D01*
X80069969Y-44909417D01*
X80083054Y-44903228D01*
X80096683Y-44898351D01*
X80110724Y-44894834D01*
X80125042Y-44892710D01*
X80139500Y-44892000D01*
X80434500Y-44892000D01*
X80448958Y-44892710D01*
G37*
G36*
X72719458Y-48575710D02*
G01*
X72733776Y-48577834D01*
X72747817Y-48581351D01*
X72761446Y-48586228D01*
X72774531Y-48592417D01*
X72786947Y-48599858D01*
X72798573Y-48608481D01*
X72809298Y-48618202D01*
X72819019Y-48628927D01*
X72827642Y-48640553D01*
X72835083Y-48652969D01*
X72841272Y-48666054D01*
X72846149Y-48679683D01*
X72849666Y-48693724D01*
X72851790Y-48708042D01*
X72852500Y-48722500D01*
X72852500Y-49067500D01*
X72851790Y-49081958D01*
X72849666Y-49096276D01*
X72846149Y-49110317D01*
X72841272Y-49123946D01*
X72835083Y-49137031D01*
X72827642Y-49149447D01*
X72819019Y-49161073D01*
X72809298Y-49171798D01*
X72798573Y-49181519D01*
X72786947Y-49190142D01*
X72774531Y-49197583D01*
X72761446Y-49203772D01*
X72747817Y-49208649D01*
X72733776Y-49212166D01*
X72719458Y-49214290D01*
X72705000Y-49215000D01*
X72410000Y-49215000D01*
X72395542Y-49214290D01*
X72381224Y-49212166D01*
X72367183Y-49208649D01*
X72353554Y-49203772D01*
X72340469Y-49197583D01*
X72328053Y-49190142D01*
X72316427Y-49181519D01*
X72305702Y-49171798D01*
X72295981Y-49161073D01*
X72287358Y-49149447D01*
X72279917Y-49137031D01*
X72273728Y-49123946D01*
X72268851Y-49110317D01*
X72265334Y-49096276D01*
X72263210Y-49081958D01*
X72262500Y-49067500D01*
X72262500Y-48722500D01*
X72263210Y-48708042D01*
X72265334Y-48693724D01*
X72268851Y-48679683D01*
X72273728Y-48666054D01*
X72279917Y-48652969D01*
X72287358Y-48640553D01*
X72295981Y-48628927D01*
X72305702Y-48618202D01*
X72316427Y-48608481D01*
X72328053Y-48599858D01*
X72340469Y-48592417D01*
X72353554Y-48586228D01*
X72367183Y-48581351D01*
X72381224Y-48577834D01*
X72395542Y-48575710D01*
X72410000Y-48575000D01*
X72705000Y-48575000D01*
X72719458Y-48575710D01*
G37*
G36*
X71749458Y-48575710D02*
G01*
X71763776Y-48577834D01*
X71777817Y-48581351D01*
X71791446Y-48586228D01*
X71804531Y-48592417D01*
X71816947Y-48599858D01*
X71828573Y-48608481D01*
X71839298Y-48618202D01*
X71849019Y-48628927D01*
X71857642Y-48640553D01*
X71865083Y-48652969D01*
X71871272Y-48666054D01*
X71876149Y-48679683D01*
X71879666Y-48693724D01*
X71881790Y-48708042D01*
X71882500Y-48722500D01*
X71882500Y-49067500D01*
X71881790Y-49081958D01*
X71879666Y-49096276D01*
X71876149Y-49110317D01*
X71871272Y-49123946D01*
X71865083Y-49137031D01*
X71857642Y-49149447D01*
X71849019Y-49161073D01*
X71839298Y-49171798D01*
X71828573Y-49181519D01*
X71816947Y-49190142D01*
X71804531Y-49197583D01*
X71791446Y-49203772D01*
X71777817Y-49208649D01*
X71763776Y-49212166D01*
X71749458Y-49214290D01*
X71735000Y-49215000D01*
X71440000Y-49215000D01*
X71425542Y-49214290D01*
X71411224Y-49212166D01*
X71397183Y-49208649D01*
X71383554Y-49203772D01*
X71370469Y-49197583D01*
X71358053Y-49190142D01*
X71346427Y-49181519D01*
X71335702Y-49171798D01*
X71325981Y-49161073D01*
X71317358Y-49149447D01*
X71309917Y-49137031D01*
X71303728Y-49123946D01*
X71298851Y-49110317D01*
X71295334Y-49096276D01*
X71293210Y-49081958D01*
X71292500Y-49067500D01*
X71292500Y-48722500D01*
X71293210Y-48708042D01*
X71295334Y-48693724D01*
X71298851Y-48679683D01*
X71303728Y-48666054D01*
X71309917Y-48652969D01*
X71317358Y-48640553D01*
X71325981Y-48628927D01*
X71335702Y-48618202D01*
X71346427Y-48608481D01*
X71358053Y-48599858D01*
X71370469Y-48592417D01*
X71383554Y-48586228D01*
X71397183Y-48581351D01*
X71411224Y-48577834D01*
X71425542Y-48575710D01*
X71440000Y-48575000D01*
X71735000Y-48575000D01*
X71749458Y-48575710D01*
G37*
G36*
X91578958Y-64704710D02*
G01*
X91593276Y-64706834D01*
X91607317Y-64710351D01*
X91620946Y-64715228D01*
X91634031Y-64721417D01*
X91646447Y-64728858D01*
X91658073Y-64737481D01*
X91668798Y-64747202D01*
X91678519Y-64757927D01*
X91687142Y-64769553D01*
X91694583Y-64781969D01*
X91700772Y-64795054D01*
X91705649Y-64808683D01*
X91709166Y-64822724D01*
X91711290Y-64837042D01*
X91712000Y-64851500D01*
X91712000Y-65196500D01*
X91711290Y-65210958D01*
X91709166Y-65225276D01*
X91705649Y-65239317D01*
X91700772Y-65252946D01*
X91694583Y-65266031D01*
X91687142Y-65278447D01*
X91678519Y-65290073D01*
X91668798Y-65300798D01*
X91658073Y-65310519D01*
X91646447Y-65319142D01*
X91634031Y-65326583D01*
X91620946Y-65332772D01*
X91607317Y-65337649D01*
X91593276Y-65341166D01*
X91578958Y-65343290D01*
X91564500Y-65344000D01*
X91269500Y-65344000D01*
X91255042Y-65343290D01*
X91240724Y-65341166D01*
X91226683Y-65337649D01*
X91213054Y-65332772D01*
X91199969Y-65326583D01*
X91187553Y-65319142D01*
X91175927Y-65310519D01*
X91165202Y-65300798D01*
X91155481Y-65290073D01*
X91146858Y-65278447D01*
X91139417Y-65266031D01*
X91133228Y-65252946D01*
X91128351Y-65239317D01*
X91124834Y-65225276D01*
X91122710Y-65210958D01*
X91122000Y-65196500D01*
X91122000Y-64851500D01*
X91122710Y-64837042D01*
X91124834Y-64822724D01*
X91128351Y-64808683D01*
X91133228Y-64795054D01*
X91139417Y-64781969D01*
X91146858Y-64769553D01*
X91155481Y-64757927D01*
X91165202Y-64747202D01*
X91175927Y-64737481D01*
X91187553Y-64728858D01*
X91199969Y-64721417D01*
X91213054Y-64715228D01*
X91226683Y-64710351D01*
X91240724Y-64706834D01*
X91255042Y-64704710D01*
X91269500Y-64704000D01*
X91564500Y-64704000D01*
X91578958Y-64704710D01*
G37*
G36*
X90608958Y-64704710D02*
G01*
X90623276Y-64706834D01*
X90637317Y-64710351D01*
X90650946Y-64715228D01*
X90664031Y-64721417D01*
X90676447Y-64728858D01*
X90688073Y-64737481D01*
X90698798Y-64747202D01*
X90708519Y-64757927D01*
X90717142Y-64769553D01*
X90724583Y-64781969D01*
X90730772Y-64795054D01*
X90735649Y-64808683D01*
X90739166Y-64822724D01*
X90741290Y-64837042D01*
X90742000Y-64851500D01*
X90742000Y-65196500D01*
X90741290Y-65210958D01*
X90739166Y-65225276D01*
X90735649Y-65239317D01*
X90730772Y-65252946D01*
X90724583Y-65266031D01*
X90717142Y-65278447D01*
X90708519Y-65290073D01*
X90698798Y-65300798D01*
X90688073Y-65310519D01*
X90676447Y-65319142D01*
X90664031Y-65326583D01*
X90650946Y-65332772D01*
X90637317Y-65337649D01*
X90623276Y-65341166D01*
X90608958Y-65343290D01*
X90594500Y-65344000D01*
X90299500Y-65344000D01*
X90285042Y-65343290D01*
X90270724Y-65341166D01*
X90256683Y-65337649D01*
X90243054Y-65332772D01*
X90229969Y-65326583D01*
X90217553Y-65319142D01*
X90205927Y-65310519D01*
X90195202Y-65300798D01*
X90185481Y-65290073D01*
X90176858Y-65278447D01*
X90169417Y-65266031D01*
X90163228Y-65252946D01*
X90158351Y-65239317D01*
X90154834Y-65225276D01*
X90152710Y-65210958D01*
X90152000Y-65196500D01*
X90152000Y-64851500D01*
X90152710Y-64837042D01*
X90154834Y-64822724D01*
X90158351Y-64808683D01*
X90163228Y-64795054D01*
X90169417Y-64781969D01*
X90176858Y-64769553D01*
X90185481Y-64757927D01*
X90195202Y-64747202D01*
X90205927Y-64737481D01*
X90217553Y-64728858D01*
X90229969Y-64721417D01*
X90243054Y-64715228D01*
X90256683Y-64710351D01*
X90270724Y-64706834D01*
X90285042Y-64704710D01*
X90299500Y-64704000D01*
X90594500Y-64704000D01*
X90608958Y-64704710D01*
G37*
G36*
X83371958Y-48450710D02*
G01*
X83386276Y-48452834D01*
X83400317Y-48456351D01*
X83413946Y-48461228D01*
X83427031Y-48467417D01*
X83439447Y-48474858D01*
X83451073Y-48483481D01*
X83461798Y-48493202D01*
X83471519Y-48503927D01*
X83480142Y-48515553D01*
X83487583Y-48527969D01*
X83493772Y-48541054D01*
X83498649Y-48554683D01*
X83502166Y-48568724D01*
X83504290Y-48583042D01*
X83505000Y-48597500D01*
X83505000Y-48892500D01*
X83504290Y-48906958D01*
X83502166Y-48921276D01*
X83498649Y-48935317D01*
X83493772Y-48948946D01*
X83487583Y-48962031D01*
X83480142Y-48974447D01*
X83471519Y-48986073D01*
X83461798Y-48996798D01*
X83451073Y-49006519D01*
X83439447Y-49015142D01*
X83427031Y-49022583D01*
X83413946Y-49028772D01*
X83400317Y-49033649D01*
X83386276Y-49037166D01*
X83371958Y-49039290D01*
X83357500Y-49040000D01*
X83012500Y-49040000D01*
X82998042Y-49039290D01*
X82983724Y-49037166D01*
X82969683Y-49033649D01*
X82956054Y-49028772D01*
X82942969Y-49022583D01*
X82930553Y-49015142D01*
X82918927Y-49006519D01*
X82908202Y-48996798D01*
X82898481Y-48986073D01*
X82889858Y-48974447D01*
X82882417Y-48962031D01*
X82876228Y-48948946D01*
X82871351Y-48935317D01*
X82867834Y-48921276D01*
X82865710Y-48906958D01*
X82865000Y-48892500D01*
X82865000Y-48597500D01*
X82865710Y-48583042D01*
X82867834Y-48568724D01*
X82871351Y-48554683D01*
X82876228Y-48541054D01*
X82882417Y-48527969D01*
X82889858Y-48515553D01*
X82898481Y-48503927D01*
X82908202Y-48493202D01*
X82918927Y-48483481D01*
X82930553Y-48474858D01*
X82942969Y-48467417D01*
X82956054Y-48461228D01*
X82969683Y-48456351D01*
X82983724Y-48452834D01*
X82998042Y-48450710D01*
X83012500Y-48450000D01*
X83357500Y-48450000D01*
X83371958Y-48450710D01*
G37*
G36*
X83371958Y-47480710D02*
G01*
X83386276Y-47482834D01*
X83400317Y-47486351D01*
X83413946Y-47491228D01*
X83427031Y-47497417D01*
X83439447Y-47504858D01*
X83451073Y-47513481D01*
X83461798Y-47523202D01*
X83471519Y-47533927D01*
X83480142Y-47545553D01*
X83487583Y-47557969D01*
X83493772Y-47571054D01*
X83498649Y-47584683D01*
X83502166Y-47598724D01*
X83504290Y-47613042D01*
X83505000Y-47627500D01*
X83505000Y-47922500D01*
X83504290Y-47936958D01*
X83502166Y-47951276D01*
X83498649Y-47965317D01*
X83493772Y-47978946D01*
X83487583Y-47992031D01*
X83480142Y-48004447D01*
X83471519Y-48016073D01*
X83461798Y-48026798D01*
X83451073Y-48036519D01*
X83439447Y-48045142D01*
X83427031Y-48052583D01*
X83413946Y-48058772D01*
X83400317Y-48063649D01*
X83386276Y-48067166D01*
X83371958Y-48069290D01*
X83357500Y-48070000D01*
X83012500Y-48070000D01*
X82998042Y-48069290D01*
X82983724Y-48067166D01*
X82969683Y-48063649D01*
X82956054Y-48058772D01*
X82942969Y-48052583D01*
X82930553Y-48045142D01*
X82918927Y-48036519D01*
X82908202Y-48026798D01*
X82898481Y-48016073D01*
X82889858Y-48004447D01*
X82882417Y-47992031D01*
X82876228Y-47978946D01*
X82871351Y-47965317D01*
X82867834Y-47951276D01*
X82865710Y-47936958D01*
X82865000Y-47922500D01*
X82865000Y-47627500D01*
X82865710Y-47613042D01*
X82867834Y-47598724D01*
X82871351Y-47584683D01*
X82876228Y-47571054D01*
X82882417Y-47557969D01*
X82889858Y-47545553D01*
X82898481Y-47533927D01*
X82908202Y-47523202D01*
X82918927Y-47513481D01*
X82930553Y-47504858D01*
X82942969Y-47497417D01*
X82956054Y-47491228D01*
X82969683Y-47486351D01*
X82983724Y-47482834D01*
X82998042Y-47480710D01*
X83012500Y-47480000D01*
X83357500Y-47480000D01*
X83371958Y-47480710D01*
G37*
D21*
X71500000Y-68255000D03*
X71500000Y-66985000D03*
X71500000Y-65715000D03*
X71500000Y-64445000D03*
X71500000Y-63175000D03*
X71500000Y-61905000D03*
X71500000Y-60635000D03*
X71500000Y-59365000D03*
X71500000Y-58095000D03*
X71500000Y-56825000D03*
X71500000Y-55555000D03*
X71500000Y-54285000D03*
X71500000Y-53015000D03*
X71500000Y-51745000D03*
D22*
X74285000Y-50745000D03*
X75555000Y-50745000D03*
X76825000Y-50745000D03*
X78095000Y-50745000D03*
X79365000Y-50745000D03*
X80635000Y-50745000D03*
X81905000Y-50745000D03*
X83175000Y-50745000D03*
X84445000Y-50745000D03*
X85715000Y-50745000D03*
D21*
X88500000Y-51745000D03*
X88500000Y-53015000D03*
X88500000Y-54285000D03*
X88500000Y-55555000D03*
X88500000Y-56825000D03*
X88500000Y-58095000D03*
X88500000Y-59365000D03*
X88500000Y-60635000D03*
X88500000Y-61905000D03*
X88500000Y-63175000D03*
X88500000Y-64445000D03*
X88500000Y-65715000D03*
X88500000Y-66985000D03*
X88500000Y-68255000D03*
D23*
X81000000Y-60755000D03*
M02*
