G04 #@! TF.GenerationSoftware,KiCad,Pcbnew,(5.1.5)-3*
G04 #@! TF.CreationDate,2021-11-09T21:41:46-05:00*
G04 #@! TF.ProjectId,MotorDriver,4d6f746f-7244-4726-9976-65722e6b6963,rev?*
G04 #@! TF.SameCoordinates,Original*
G04 #@! TF.FileFunction,Legend,Top*
G04 #@! TF.FilePolarity,Positive*
%FSLAX46Y46*%
G04 Gerber Fmt 4.6, Leading zero omitted, Abs format (unit mm)*
G04 Created by KiCad (PCBNEW (5.1.5)-3) date 2021-11-09 21:41:46*
%MOMM*%
%LPD*%
G04 APERTURE LIST*
%ADD10C,0.120000*%
%ADD11C,0.100000*%
%ADD12C,0.150000*%
%ADD13C,0.300000*%
%ADD14C,0.203200*%
%ADD15C,0.250000*%
%ADD16O,1.452000X1.452000*%
%ADD17R,1.452000X1.452000*%
%ADD18R,2.802000X0.902000*%
%ADD19R,0.452000X0.602000*%
%ADD20R,0.362000X0.552000*%
%ADD21R,0.552000X0.362000*%
%ADD22C,2.601360*%
%ADD23R,2.601360X2.601360*%
%ADD24R,1.902000X2.652000*%
%ADD25R,0.902000X0.302000*%
%ADD26R,1.102000X1.802000*%
%ADD27R,0.802000X0.402000*%
%ADD28R,2.552000X1.102000*%
%ADD29R,1.102000X2.552000*%
%ADD30R,2.102000X1.002000*%
%ADD31R,1.002000X2.102000*%
%ADD32R,5.102000X5.102000*%
G04 APERTURE END LIST*
D10*
X92754000Y-61512000D02*
X91694000Y-61512000D01*
X92754000Y-60452000D02*
X92754000Y-61512000D01*
X92754000Y-59452000D02*
X90634000Y-59452000D01*
X90634000Y-59452000D02*
X90634000Y-57392000D01*
X92754000Y-59452000D02*
X92754000Y-57392000D01*
X92754000Y-57392000D02*
X90634000Y-57392000D01*
X69640000Y-67354000D02*
X68580000Y-67354000D01*
X69640000Y-66294000D02*
X69640000Y-67354000D01*
X69640000Y-65294000D02*
X67520000Y-65294000D01*
X67520000Y-65294000D02*
X67520000Y-59234000D01*
X69640000Y-65294000D02*
X69640000Y-59234000D01*
X69640000Y-59234000D02*
X67520000Y-59234000D01*
D11*
X81558000Y-72390000D02*
X84558000Y-72390000D01*
D12*
X74812000Y-70748000D02*
X74812000Y-71273000D01*
X79112000Y-70748000D02*
X79112000Y-71273000D01*
X79112000Y-75048000D02*
X79112000Y-74523000D01*
X74812000Y-75048000D02*
X74812000Y-74523000D01*
X79112000Y-70748000D02*
X78587000Y-70748000D01*
X79112000Y-75048000D02*
X78587000Y-75048000D01*
X74812000Y-70748000D02*
X75337000Y-70748000D01*
D11*
X75358000Y-46276000D02*
X75358000Y-45636000D01*
X77578000Y-45636000D02*
X78058000Y-45636000D01*
X78058000Y-46276000D02*
X78058000Y-45636000D01*
X75358000Y-47836000D02*
X75358000Y-47196000D01*
X78058000Y-47836000D02*
X78058000Y-47196000D01*
X77578000Y-47836000D02*
X78058000Y-47836000D01*
X75358000Y-47836000D02*
X75838000Y-47836000D01*
D13*
X78414000Y-45998000D02*
G75*
G03X78414000Y-45998000I-150000J0D01*
G01*
D14*
X78764000Y-48998000D02*
X78764000Y-48598000D01*
X79164000Y-48998000D02*
X78764000Y-48998000D01*
X81764000Y-48998000D02*
X81364000Y-48998000D01*
X81764000Y-48598000D02*
X81764000Y-48998000D01*
X81764000Y-45998000D02*
X81764000Y-46398000D01*
X81364000Y-45998000D02*
X81764000Y-45998000D01*
X78764000Y-45998000D02*
X79164000Y-45998000D01*
X78764000Y-46398000D02*
X78764000Y-45998000D01*
D10*
X76105200Y-42208000D02*
X76105200Y-41148000D01*
X77165200Y-42208000D02*
X76105200Y-42208000D01*
X78165200Y-42208000D02*
X78165200Y-40088000D01*
X78165200Y-40088000D02*
X84225200Y-40088000D01*
X78165200Y-42208000D02*
X84225200Y-42208000D01*
X84225200Y-42208000D02*
X84225200Y-40088000D01*
D15*
X85601000Y-71044000D02*
G75*
G03X85601000Y-71044000I-125000J0D01*
G01*
X74671000Y-77086000D02*
G75*
G03X74671000Y-77086000I-125000J0D01*
G01*
X85599000Y-79886000D02*
G75*
G03X85599000Y-79886000I-125000J0D01*
G01*
X85853000Y-45342000D02*
G75*
G03X85853000Y-45342000I-125000J0D01*
G01*
X74417000Y-42613000D02*
G75*
G03X74417000Y-42613000I-125000J0D01*
G01*
D12*
X86750000Y-106750000D02*
X86750000Y-96750000D01*
X73250000Y-106750000D02*
X73250000Y-96750000D01*
X86750000Y-106750000D02*
X73250000Y-106750000D01*
X73250000Y-83250000D02*
X73250000Y-85000000D01*
X74000000Y-83250000D02*
X73250000Y-83250000D01*
X86750000Y-83250000D02*
X86750000Y-85000000D01*
X86000000Y-83250000D02*
X86750000Y-83250000D01*
D10*
X89120000Y-69300000D02*
X89500000Y-69300000D01*
X89120000Y-69720000D02*
X89120000Y-69300000D01*
X70880000Y-69720000D02*
X70880000Y-69300000D01*
X89120000Y-69720000D02*
X70880000Y-69720000D01*
X70880000Y-50280000D02*
X71880000Y-50280000D01*
X70880000Y-50900000D02*
X70880000Y-50280000D01*
X89120000Y-50280000D02*
X88120000Y-50280000D01*
X89120000Y-50900000D02*
X89120000Y-50280000D01*
D12*
X74620380Y-81581523D02*
X73620380Y-81581523D01*
X74334666Y-81248190D01*
X73620380Y-80914857D01*
X74620380Y-80914857D01*
X73715619Y-80486285D02*
X73668000Y-80438666D01*
X73620380Y-80343428D01*
X73620380Y-80105333D01*
X73668000Y-80010095D01*
X73715619Y-79962476D01*
X73810857Y-79914857D01*
X73906095Y-79914857D01*
X74048952Y-79962476D01*
X74620380Y-80533904D01*
X74620380Y-79914857D01*
X83264476Y-77160380D02*
X83264476Y-76160380D01*
X83597809Y-76874666D01*
X83931142Y-76160380D01*
X83931142Y-77160380D01*
X84312095Y-76160380D02*
X84931142Y-76160380D01*
X84597809Y-76541333D01*
X84740666Y-76541333D01*
X84835904Y-76588952D01*
X84883523Y-76636571D01*
X84931142Y-76731809D01*
X84931142Y-76969904D01*
X84883523Y-77065142D01*
X84835904Y-77112761D01*
X84740666Y-77160380D01*
X84454952Y-77160380D01*
X84359714Y-77112761D01*
X84312095Y-77065142D01*
X86304380Y-42719523D02*
X85304380Y-42719523D01*
X86018666Y-42386190D01*
X85304380Y-42052857D01*
X86304380Y-42052857D01*
X85637714Y-41148095D02*
X86304380Y-41148095D01*
X85256761Y-41386190D02*
X85971047Y-41624285D01*
X85971047Y-41005238D01*
X74620380Y-47037523D02*
X73620380Y-47037523D01*
X74334666Y-46704190D01*
X73620380Y-46370857D01*
X74620380Y-46370857D01*
X74620380Y-45370857D02*
X74620380Y-45942285D01*
X74620380Y-45656571D02*
X73620380Y-45656571D01*
X73763238Y-45751809D01*
X73858476Y-45847047D01*
X73906095Y-45942285D01*
%LPC*%
D16*
X91694000Y-58452000D03*
D17*
X91694000Y-60452000D03*
D16*
X68580000Y-60294000D03*
X68580000Y-62294000D03*
X68580000Y-64294000D03*
D17*
X68580000Y-66294000D03*
D11*
G36*
X80476957Y-42809833D02*
G01*
X80493751Y-42812324D01*
X80510219Y-42816449D01*
X80526204Y-42822169D01*
X80541552Y-42829428D01*
X80556114Y-42838156D01*
X80569750Y-42848269D01*
X80582329Y-42859671D01*
X80593731Y-42872250D01*
X80603844Y-42885886D01*
X80612572Y-42900448D01*
X80619831Y-42915796D01*
X80625551Y-42931781D01*
X80629676Y-42948249D01*
X80632167Y-42965043D01*
X80633000Y-42982000D01*
X80633000Y-43378000D01*
X80632167Y-43394957D01*
X80629676Y-43411751D01*
X80625551Y-43428219D01*
X80619831Y-43444204D01*
X80612572Y-43459552D01*
X80603844Y-43474114D01*
X80593731Y-43487750D01*
X80582329Y-43500329D01*
X80569750Y-43511731D01*
X80556114Y-43521844D01*
X80541552Y-43530572D01*
X80526204Y-43537831D01*
X80510219Y-43543551D01*
X80493751Y-43547676D01*
X80476957Y-43550167D01*
X80460000Y-43551000D01*
X80114000Y-43551000D01*
X80097043Y-43550167D01*
X80080249Y-43547676D01*
X80063781Y-43543551D01*
X80047796Y-43537831D01*
X80032448Y-43530572D01*
X80017886Y-43521844D01*
X80004250Y-43511731D01*
X79991671Y-43500329D01*
X79980269Y-43487750D01*
X79970156Y-43474114D01*
X79961428Y-43459552D01*
X79954169Y-43444204D01*
X79948449Y-43428219D01*
X79944324Y-43411751D01*
X79941833Y-43394957D01*
X79941000Y-43378000D01*
X79941000Y-42982000D01*
X79941833Y-42965043D01*
X79944324Y-42948249D01*
X79948449Y-42931781D01*
X79954169Y-42915796D01*
X79961428Y-42900448D01*
X79970156Y-42885886D01*
X79980269Y-42872250D01*
X79991671Y-42859671D01*
X80004250Y-42848269D01*
X80017886Y-42838156D01*
X80032448Y-42829428D01*
X80047796Y-42822169D01*
X80063781Y-42816449D01*
X80080249Y-42812324D01*
X80097043Y-42809833D01*
X80114000Y-42809000D01*
X80460000Y-42809000D01*
X80476957Y-42809833D01*
G37*
G36*
X81446957Y-42809833D02*
G01*
X81463751Y-42812324D01*
X81480219Y-42816449D01*
X81496204Y-42822169D01*
X81511552Y-42829428D01*
X81526114Y-42838156D01*
X81539750Y-42848269D01*
X81552329Y-42859671D01*
X81563731Y-42872250D01*
X81573844Y-42885886D01*
X81582572Y-42900448D01*
X81589831Y-42915796D01*
X81595551Y-42931781D01*
X81599676Y-42948249D01*
X81602167Y-42965043D01*
X81603000Y-42982000D01*
X81603000Y-43378000D01*
X81602167Y-43394957D01*
X81599676Y-43411751D01*
X81595551Y-43428219D01*
X81589831Y-43444204D01*
X81582572Y-43459552D01*
X81573844Y-43474114D01*
X81563731Y-43487750D01*
X81552329Y-43500329D01*
X81539750Y-43511731D01*
X81526114Y-43521844D01*
X81511552Y-43530572D01*
X81496204Y-43537831D01*
X81480219Y-43543551D01*
X81463751Y-43547676D01*
X81446957Y-43550167D01*
X81430000Y-43551000D01*
X81084000Y-43551000D01*
X81067043Y-43550167D01*
X81050249Y-43547676D01*
X81033781Y-43543551D01*
X81017796Y-43537831D01*
X81002448Y-43530572D01*
X80987886Y-43521844D01*
X80974250Y-43511731D01*
X80961671Y-43500329D01*
X80950269Y-43487750D01*
X80940156Y-43474114D01*
X80931428Y-43459552D01*
X80924169Y-43444204D01*
X80918449Y-43428219D01*
X80914324Y-43411751D01*
X80911833Y-43394957D01*
X80911000Y-43378000D01*
X80911000Y-42982000D01*
X80911833Y-42965043D01*
X80914324Y-42948249D01*
X80918449Y-42931781D01*
X80924169Y-42915796D01*
X80931428Y-42900448D01*
X80940156Y-42885886D01*
X80950269Y-42872250D01*
X80961671Y-42859671D01*
X80974250Y-42848269D01*
X80987886Y-42838156D01*
X81002448Y-42829428D01*
X81017796Y-42822169D01*
X81033781Y-42816449D01*
X81050249Y-42812324D01*
X81067043Y-42809833D01*
X81084000Y-42809000D01*
X81430000Y-42809000D01*
X81446957Y-42809833D01*
G37*
G36*
X80476957Y-43825833D02*
G01*
X80493751Y-43828324D01*
X80510219Y-43832449D01*
X80526204Y-43838169D01*
X80541552Y-43845428D01*
X80556114Y-43854156D01*
X80569750Y-43864269D01*
X80582329Y-43875671D01*
X80593731Y-43888250D01*
X80603844Y-43901886D01*
X80612572Y-43916448D01*
X80619831Y-43931796D01*
X80625551Y-43947781D01*
X80629676Y-43964249D01*
X80632167Y-43981043D01*
X80633000Y-43998000D01*
X80633000Y-44394000D01*
X80632167Y-44410957D01*
X80629676Y-44427751D01*
X80625551Y-44444219D01*
X80619831Y-44460204D01*
X80612572Y-44475552D01*
X80603844Y-44490114D01*
X80593731Y-44503750D01*
X80582329Y-44516329D01*
X80569750Y-44527731D01*
X80556114Y-44537844D01*
X80541552Y-44546572D01*
X80526204Y-44553831D01*
X80510219Y-44559551D01*
X80493751Y-44563676D01*
X80476957Y-44566167D01*
X80460000Y-44567000D01*
X80114000Y-44567000D01*
X80097043Y-44566167D01*
X80080249Y-44563676D01*
X80063781Y-44559551D01*
X80047796Y-44553831D01*
X80032448Y-44546572D01*
X80017886Y-44537844D01*
X80004250Y-44527731D01*
X79991671Y-44516329D01*
X79980269Y-44503750D01*
X79970156Y-44490114D01*
X79961428Y-44475552D01*
X79954169Y-44460204D01*
X79948449Y-44444219D01*
X79944324Y-44427751D01*
X79941833Y-44410957D01*
X79941000Y-44394000D01*
X79941000Y-43998000D01*
X79941833Y-43981043D01*
X79944324Y-43964249D01*
X79948449Y-43947781D01*
X79954169Y-43931796D01*
X79961428Y-43916448D01*
X79970156Y-43901886D01*
X79980269Y-43888250D01*
X79991671Y-43875671D01*
X80004250Y-43864269D01*
X80017886Y-43854156D01*
X80032448Y-43845428D01*
X80047796Y-43838169D01*
X80063781Y-43832449D01*
X80080249Y-43828324D01*
X80097043Y-43825833D01*
X80114000Y-43825000D01*
X80460000Y-43825000D01*
X80476957Y-43825833D01*
G37*
G36*
X81446957Y-43825833D02*
G01*
X81463751Y-43828324D01*
X81480219Y-43832449D01*
X81496204Y-43838169D01*
X81511552Y-43845428D01*
X81526114Y-43854156D01*
X81539750Y-43864269D01*
X81552329Y-43875671D01*
X81563731Y-43888250D01*
X81573844Y-43901886D01*
X81582572Y-43916448D01*
X81589831Y-43931796D01*
X81595551Y-43947781D01*
X81599676Y-43964249D01*
X81602167Y-43981043D01*
X81603000Y-43998000D01*
X81603000Y-44394000D01*
X81602167Y-44410957D01*
X81599676Y-44427751D01*
X81595551Y-44444219D01*
X81589831Y-44460204D01*
X81582572Y-44475552D01*
X81573844Y-44490114D01*
X81563731Y-44503750D01*
X81552329Y-44516329D01*
X81539750Y-44527731D01*
X81526114Y-44537844D01*
X81511552Y-44546572D01*
X81496204Y-44553831D01*
X81480219Y-44559551D01*
X81463751Y-44563676D01*
X81446957Y-44566167D01*
X81430000Y-44567000D01*
X81084000Y-44567000D01*
X81067043Y-44566167D01*
X81050249Y-44563676D01*
X81033781Y-44559551D01*
X81017796Y-44553831D01*
X81002448Y-44546572D01*
X80987886Y-44537844D01*
X80974250Y-44527731D01*
X80961671Y-44516329D01*
X80950269Y-44503750D01*
X80940156Y-44490114D01*
X80931428Y-44475552D01*
X80924169Y-44460204D01*
X80918449Y-44444219D01*
X80914324Y-44427751D01*
X80911833Y-44410957D01*
X80911000Y-44394000D01*
X80911000Y-43998000D01*
X80911833Y-43981043D01*
X80914324Y-43964249D01*
X80918449Y-43947781D01*
X80924169Y-43931796D01*
X80931428Y-43916448D01*
X80940156Y-43901886D01*
X80950269Y-43888250D01*
X80961671Y-43875671D01*
X80974250Y-43864269D01*
X80987886Y-43854156D01*
X81002448Y-43845428D01*
X81017796Y-43838169D01*
X81033781Y-43832449D01*
X81050249Y-43828324D01*
X81067043Y-43825833D01*
X81084000Y-43825000D01*
X81430000Y-43825000D01*
X81446957Y-43825833D01*
G37*
D18*
X83058000Y-71290000D03*
X83058000Y-73490000D03*
D11*
G36*
X75858957Y-48397833D02*
G01*
X75875751Y-48400324D01*
X75892219Y-48404449D01*
X75908204Y-48410169D01*
X75923552Y-48417428D01*
X75938114Y-48426156D01*
X75951750Y-48436269D01*
X75964329Y-48447671D01*
X75975731Y-48460250D01*
X75985844Y-48473886D01*
X75994572Y-48488448D01*
X76001831Y-48503796D01*
X76007551Y-48519781D01*
X76011676Y-48536249D01*
X76014167Y-48553043D01*
X76015000Y-48570000D01*
X76015000Y-48966000D01*
X76014167Y-48982957D01*
X76011676Y-48999751D01*
X76007551Y-49016219D01*
X76001831Y-49032204D01*
X75994572Y-49047552D01*
X75985844Y-49062114D01*
X75975731Y-49075750D01*
X75964329Y-49088329D01*
X75951750Y-49099731D01*
X75938114Y-49109844D01*
X75923552Y-49118572D01*
X75908204Y-49125831D01*
X75892219Y-49131551D01*
X75875751Y-49135676D01*
X75858957Y-49138167D01*
X75842000Y-49139000D01*
X75496000Y-49139000D01*
X75479043Y-49138167D01*
X75462249Y-49135676D01*
X75445781Y-49131551D01*
X75429796Y-49125831D01*
X75414448Y-49118572D01*
X75399886Y-49109844D01*
X75386250Y-49099731D01*
X75373671Y-49088329D01*
X75362269Y-49075750D01*
X75352156Y-49062114D01*
X75343428Y-49047552D01*
X75336169Y-49032204D01*
X75330449Y-49016219D01*
X75326324Y-48999751D01*
X75323833Y-48982957D01*
X75323000Y-48966000D01*
X75323000Y-48570000D01*
X75323833Y-48553043D01*
X75326324Y-48536249D01*
X75330449Y-48519781D01*
X75336169Y-48503796D01*
X75343428Y-48488448D01*
X75352156Y-48473886D01*
X75362269Y-48460250D01*
X75373671Y-48447671D01*
X75386250Y-48436269D01*
X75399886Y-48426156D01*
X75414448Y-48417428D01*
X75429796Y-48410169D01*
X75445781Y-48404449D01*
X75462249Y-48400324D01*
X75479043Y-48397833D01*
X75496000Y-48397000D01*
X75842000Y-48397000D01*
X75858957Y-48397833D01*
G37*
G36*
X74888957Y-48397833D02*
G01*
X74905751Y-48400324D01*
X74922219Y-48404449D01*
X74938204Y-48410169D01*
X74953552Y-48417428D01*
X74968114Y-48426156D01*
X74981750Y-48436269D01*
X74994329Y-48447671D01*
X75005731Y-48460250D01*
X75015844Y-48473886D01*
X75024572Y-48488448D01*
X75031831Y-48503796D01*
X75037551Y-48519781D01*
X75041676Y-48536249D01*
X75044167Y-48553043D01*
X75045000Y-48570000D01*
X75045000Y-48966000D01*
X75044167Y-48982957D01*
X75041676Y-48999751D01*
X75037551Y-49016219D01*
X75031831Y-49032204D01*
X75024572Y-49047552D01*
X75015844Y-49062114D01*
X75005731Y-49075750D01*
X74994329Y-49088329D01*
X74981750Y-49099731D01*
X74968114Y-49109844D01*
X74953552Y-49118572D01*
X74938204Y-49125831D01*
X74922219Y-49131551D01*
X74905751Y-49135676D01*
X74888957Y-49138167D01*
X74872000Y-49139000D01*
X74526000Y-49139000D01*
X74509043Y-49138167D01*
X74492249Y-49135676D01*
X74475781Y-49131551D01*
X74459796Y-49125831D01*
X74444448Y-49118572D01*
X74429886Y-49109844D01*
X74416250Y-49099731D01*
X74403671Y-49088329D01*
X74392269Y-49075750D01*
X74382156Y-49062114D01*
X74373428Y-49047552D01*
X74366169Y-49032204D01*
X74360449Y-49016219D01*
X74356324Y-48999751D01*
X74353833Y-48982957D01*
X74353000Y-48966000D01*
X74353000Y-48570000D01*
X74353833Y-48553043D01*
X74356324Y-48536249D01*
X74360449Y-48519781D01*
X74366169Y-48503796D01*
X74373428Y-48488448D01*
X74382156Y-48473886D01*
X74392269Y-48460250D01*
X74403671Y-48447671D01*
X74416250Y-48436269D01*
X74429886Y-48426156D01*
X74444448Y-48417428D01*
X74459796Y-48410169D01*
X74475781Y-48404449D01*
X74492249Y-48400324D01*
X74509043Y-48397833D01*
X74526000Y-48397000D01*
X74872000Y-48397000D01*
X74888957Y-48397833D01*
G37*
G36*
X85812957Y-75577833D02*
G01*
X85829751Y-75580324D01*
X85846219Y-75584449D01*
X85862204Y-75590169D01*
X85877552Y-75597428D01*
X85892114Y-75606156D01*
X85905750Y-75616269D01*
X85918329Y-75627671D01*
X85929731Y-75640250D01*
X85939844Y-75653886D01*
X85948572Y-75668448D01*
X85955831Y-75683796D01*
X85961551Y-75699781D01*
X85965676Y-75716249D01*
X85968167Y-75733043D01*
X85969000Y-75750000D01*
X85969000Y-76096000D01*
X85968167Y-76112957D01*
X85965676Y-76129751D01*
X85961551Y-76146219D01*
X85955831Y-76162204D01*
X85948572Y-76177552D01*
X85939844Y-76192114D01*
X85929731Y-76205750D01*
X85918329Y-76218329D01*
X85905750Y-76229731D01*
X85892114Y-76239844D01*
X85877552Y-76248572D01*
X85862204Y-76255831D01*
X85846219Y-76261551D01*
X85829751Y-76265676D01*
X85812957Y-76268167D01*
X85796000Y-76269000D01*
X85400000Y-76269000D01*
X85383043Y-76268167D01*
X85366249Y-76265676D01*
X85349781Y-76261551D01*
X85333796Y-76255831D01*
X85318448Y-76248572D01*
X85303886Y-76239844D01*
X85290250Y-76229731D01*
X85277671Y-76218329D01*
X85266269Y-76205750D01*
X85256156Y-76192114D01*
X85247428Y-76177552D01*
X85240169Y-76162204D01*
X85234449Y-76146219D01*
X85230324Y-76129751D01*
X85227833Y-76112957D01*
X85227000Y-76096000D01*
X85227000Y-75750000D01*
X85227833Y-75733043D01*
X85230324Y-75716249D01*
X85234449Y-75699781D01*
X85240169Y-75683796D01*
X85247428Y-75668448D01*
X85256156Y-75653886D01*
X85266269Y-75640250D01*
X85277671Y-75627671D01*
X85290250Y-75616269D01*
X85303886Y-75606156D01*
X85318448Y-75597428D01*
X85333796Y-75590169D01*
X85349781Y-75584449D01*
X85366249Y-75580324D01*
X85383043Y-75577833D01*
X85400000Y-75577000D01*
X85796000Y-75577000D01*
X85812957Y-75577833D01*
G37*
G36*
X85812957Y-74607833D02*
G01*
X85829751Y-74610324D01*
X85846219Y-74614449D01*
X85862204Y-74620169D01*
X85877552Y-74627428D01*
X85892114Y-74636156D01*
X85905750Y-74646269D01*
X85918329Y-74657671D01*
X85929731Y-74670250D01*
X85939844Y-74683886D01*
X85948572Y-74698448D01*
X85955831Y-74713796D01*
X85961551Y-74729781D01*
X85965676Y-74746249D01*
X85968167Y-74763043D01*
X85969000Y-74780000D01*
X85969000Y-75126000D01*
X85968167Y-75142957D01*
X85965676Y-75159751D01*
X85961551Y-75176219D01*
X85955831Y-75192204D01*
X85948572Y-75207552D01*
X85939844Y-75222114D01*
X85929731Y-75235750D01*
X85918329Y-75248329D01*
X85905750Y-75259731D01*
X85892114Y-75269844D01*
X85877552Y-75278572D01*
X85862204Y-75285831D01*
X85846219Y-75291551D01*
X85829751Y-75295676D01*
X85812957Y-75298167D01*
X85796000Y-75299000D01*
X85400000Y-75299000D01*
X85383043Y-75298167D01*
X85366249Y-75295676D01*
X85349781Y-75291551D01*
X85333796Y-75285831D01*
X85318448Y-75278572D01*
X85303886Y-75269844D01*
X85290250Y-75259731D01*
X85277671Y-75248329D01*
X85266269Y-75235750D01*
X85256156Y-75222114D01*
X85247428Y-75207552D01*
X85240169Y-75192204D01*
X85234449Y-75176219D01*
X85230324Y-75159751D01*
X85227833Y-75142957D01*
X85227000Y-75126000D01*
X85227000Y-74780000D01*
X85227833Y-74763043D01*
X85230324Y-74746249D01*
X85234449Y-74729781D01*
X85240169Y-74713796D01*
X85247428Y-74698448D01*
X85256156Y-74683886D01*
X85266269Y-74670250D01*
X85277671Y-74657671D01*
X85290250Y-74646269D01*
X85303886Y-74636156D01*
X85318448Y-74627428D01*
X85333796Y-74620169D01*
X85349781Y-74614449D01*
X85366249Y-74610324D01*
X85383043Y-74607833D01*
X85400000Y-74607000D01*
X85796000Y-74607000D01*
X85812957Y-74607833D01*
G37*
G36*
X86064957Y-69987833D02*
G01*
X86081751Y-69990324D01*
X86098219Y-69994449D01*
X86114204Y-70000169D01*
X86129552Y-70007428D01*
X86144114Y-70016156D01*
X86157750Y-70026269D01*
X86170329Y-70037671D01*
X86181731Y-70050250D01*
X86191844Y-70063886D01*
X86200572Y-70078448D01*
X86207831Y-70093796D01*
X86213551Y-70109781D01*
X86217676Y-70126249D01*
X86220167Y-70143043D01*
X86221000Y-70160000D01*
X86221000Y-70556000D01*
X86220167Y-70572957D01*
X86217676Y-70589751D01*
X86213551Y-70606219D01*
X86207831Y-70622204D01*
X86200572Y-70637552D01*
X86191844Y-70652114D01*
X86181731Y-70665750D01*
X86170329Y-70678329D01*
X86157750Y-70689731D01*
X86144114Y-70699844D01*
X86129552Y-70708572D01*
X86114204Y-70715831D01*
X86098219Y-70721551D01*
X86081751Y-70725676D01*
X86064957Y-70728167D01*
X86048000Y-70729000D01*
X85702000Y-70729000D01*
X85685043Y-70728167D01*
X85668249Y-70725676D01*
X85651781Y-70721551D01*
X85635796Y-70715831D01*
X85620448Y-70708572D01*
X85605886Y-70699844D01*
X85592250Y-70689731D01*
X85579671Y-70678329D01*
X85568269Y-70665750D01*
X85558156Y-70652114D01*
X85549428Y-70637552D01*
X85542169Y-70622204D01*
X85536449Y-70606219D01*
X85532324Y-70589751D01*
X85529833Y-70572957D01*
X85529000Y-70556000D01*
X85529000Y-70160000D01*
X85529833Y-70143043D01*
X85532324Y-70126249D01*
X85536449Y-70109781D01*
X85542169Y-70093796D01*
X85549428Y-70078448D01*
X85558156Y-70063886D01*
X85568269Y-70050250D01*
X85579671Y-70037671D01*
X85592250Y-70026269D01*
X85605886Y-70016156D01*
X85620448Y-70007428D01*
X85635796Y-70000169D01*
X85651781Y-69994449D01*
X85668249Y-69990324D01*
X85685043Y-69987833D01*
X85702000Y-69987000D01*
X86048000Y-69987000D01*
X86064957Y-69987833D01*
G37*
G36*
X87034957Y-69987833D02*
G01*
X87051751Y-69990324D01*
X87068219Y-69994449D01*
X87084204Y-70000169D01*
X87099552Y-70007428D01*
X87114114Y-70016156D01*
X87127750Y-70026269D01*
X87140329Y-70037671D01*
X87151731Y-70050250D01*
X87161844Y-70063886D01*
X87170572Y-70078448D01*
X87177831Y-70093796D01*
X87183551Y-70109781D01*
X87187676Y-70126249D01*
X87190167Y-70143043D01*
X87191000Y-70160000D01*
X87191000Y-70556000D01*
X87190167Y-70572957D01*
X87187676Y-70589751D01*
X87183551Y-70606219D01*
X87177831Y-70622204D01*
X87170572Y-70637552D01*
X87161844Y-70652114D01*
X87151731Y-70665750D01*
X87140329Y-70678329D01*
X87127750Y-70689731D01*
X87114114Y-70699844D01*
X87099552Y-70708572D01*
X87084204Y-70715831D01*
X87068219Y-70721551D01*
X87051751Y-70725676D01*
X87034957Y-70728167D01*
X87018000Y-70729000D01*
X86672000Y-70729000D01*
X86655043Y-70728167D01*
X86638249Y-70725676D01*
X86621781Y-70721551D01*
X86605796Y-70715831D01*
X86590448Y-70708572D01*
X86575886Y-70699844D01*
X86562250Y-70689731D01*
X86549671Y-70678329D01*
X86538269Y-70665750D01*
X86528156Y-70652114D01*
X86519428Y-70637552D01*
X86512169Y-70622204D01*
X86506449Y-70606219D01*
X86502324Y-70589751D01*
X86499833Y-70572957D01*
X86499000Y-70556000D01*
X86499000Y-70160000D01*
X86499833Y-70143043D01*
X86502324Y-70126249D01*
X86506449Y-70109781D01*
X86512169Y-70093796D01*
X86519428Y-70078448D01*
X86528156Y-70063886D01*
X86538269Y-70050250D01*
X86549671Y-70037671D01*
X86562250Y-70026269D01*
X86575886Y-70016156D01*
X86590448Y-70007428D01*
X86605796Y-70000169D01*
X86621781Y-69994449D01*
X86638249Y-69990324D01*
X86655043Y-69987833D01*
X86672000Y-69987000D01*
X87018000Y-69987000D01*
X87034957Y-69987833D01*
G37*
G36*
X75397351Y-73947484D02*
G01*
X75407107Y-73948931D01*
X75416674Y-73951327D01*
X75425960Y-73954650D01*
X75434875Y-73958867D01*
X75443335Y-73963937D01*
X75451257Y-73969812D01*
X75458564Y-73976436D01*
X75465188Y-73983743D01*
X75471063Y-73991665D01*
X75476133Y-74000125D01*
X75480350Y-74009040D01*
X75483673Y-74018326D01*
X75486069Y-74027893D01*
X75487516Y-74037649D01*
X75488000Y-74047500D01*
X75488000Y-74248500D01*
X75487516Y-74258351D01*
X75486069Y-74268107D01*
X75483673Y-74277674D01*
X75480350Y-74286960D01*
X75476133Y-74295875D01*
X75471063Y-74304335D01*
X75465188Y-74312257D01*
X75458564Y-74319564D01*
X75451257Y-74326188D01*
X75443335Y-74332063D01*
X75434875Y-74337133D01*
X75425960Y-74341350D01*
X75416674Y-74344673D01*
X75407107Y-74347069D01*
X75397351Y-74348516D01*
X75387500Y-74349000D01*
X74636500Y-74349000D01*
X74626649Y-74348516D01*
X74616893Y-74347069D01*
X74607326Y-74344673D01*
X74598040Y-74341350D01*
X74589125Y-74337133D01*
X74580665Y-74332063D01*
X74572743Y-74326188D01*
X74565436Y-74319564D01*
X74558812Y-74312257D01*
X74552937Y-74304335D01*
X74547867Y-74295875D01*
X74543650Y-74286960D01*
X74540327Y-74277674D01*
X74537931Y-74268107D01*
X74536484Y-74258351D01*
X74536000Y-74248500D01*
X74536000Y-74047500D01*
X74536484Y-74037649D01*
X74537931Y-74027893D01*
X74540327Y-74018326D01*
X74543650Y-74009040D01*
X74547867Y-74000125D01*
X74552937Y-73991665D01*
X74558812Y-73983743D01*
X74565436Y-73976436D01*
X74572743Y-73969812D01*
X74580665Y-73963937D01*
X74589125Y-73958867D01*
X74598040Y-73954650D01*
X74607326Y-73951327D01*
X74616893Y-73948931D01*
X74626649Y-73947484D01*
X74636500Y-73947000D01*
X75387500Y-73947000D01*
X75397351Y-73947484D01*
G37*
G36*
X75397351Y-73447484D02*
G01*
X75407107Y-73448931D01*
X75416674Y-73451327D01*
X75425960Y-73454650D01*
X75434875Y-73458867D01*
X75443335Y-73463937D01*
X75451257Y-73469812D01*
X75458564Y-73476436D01*
X75465188Y-73483743D01*
X75471063Y-73491665D01*
X75476133Y-73500125D01*
X75480350Y-73509040D01*
X75483673Y-73518326D01*
X75486069Y-73527893D01*
X75487516Y-73537649D01*
X75488000Y-73547500D01*
X75488000Y-73748500D01*
X75487516Y-73758351D01*
X75486069Y-73768107D01*
X75483673Y-73777674D01*
X75480350Y-73786960D01*
X75476133Y-73795875D01*
X75471063Y-73804335D01*
X75465188Y-73812257D01*
X75458564Y-73819564D01*
X75451257Y-73826188D01*
X75443335Y-73832063D01*
X75434875Y-73837133D01*
X75425960Y-73841350D01*
X75416674Y-73844673D01*
X75407107Y-73847069D01*
X75397351Y-73848516D01*
X75387500Y-73849000D01*
X74636500Y-73849000D01*
X74626649Y-73848516D01*
X74616893Y-73847069D01*
X74607326Y-73844673D01*
X74598040Y-73841350D01*
X74589125Y-73837133D01*
X74580665Y-73832063D01*
X74572743Y-73826188D01*
X74565436Y-73819564D01*
X74558812Y-73812257D01*
X74552937Y-73804335D01*
X74547867Y-73795875D01*
X74543650Y-73786960D01*
X74540327Y-73777674D01*
X74537931Y-73768107D01*
X74536484Y-73758351D01*
X74536000Y-73748500D01*
X74536000Y-73547500D01*
X74536484Y-73537649D01*
X74537931Y-73527893D01*
X74540327Y-73518326D01*
X74543650Y-73509040D01*
X74547867Y-73500125D01*
X74552937Y-73491665D01*
X74558812Y-73483743D01*
X74565436Y-73476436D01*
X74572743Y-73469812D01*
X74580665Y-73463937D01*
X74589125Y-73458867D01*
X74598040Y-73454650D01*
X74607326Y-73451327D01*
X74616893Y-73448931D01*
X74626649Y-73447484D01*
X74636500Y-73447000D01*
X75387500Y-73447000D01*
X75397351Y-73447484D01*
G37*
G36*
X75397351Y-72947484D02*
G01*
X75407107Y-72948931D01*
X75416674Y-72951327D01*
X75425960Y-72954650D01*
X75434875Y-72958867D01*
X75443335Y-72963937D01*
X75451257Y-72969812D01*
X75458564Y-72976436D01*
X75465188Y-72983743D01*
X75471063Y-72991665D01*
X75476133Y-73000125D01*
X75480350Y-73009040D01*
X75483673Y-73018326D01*
X75486069Y-73027893D01*
X75487516Y-73037649D01*
X75488000Y-73047500D01*
X75488000Y-73248500D01*
X75487516Y-73258351D01*
X75486069Y-73268107D01*
X75483673Y-73277674D01*
X75480350Y-73286960D01*
X75476133Y-73295875D01*
X75471063Y-73304335D01*
X75465188Y-73312257D01*
X75458564Y-73319564D01*
X75451257Y-73326188D01*
X75443335Y-73332063D01*
X75434875Y-73337133D01*
X75425960Y-73341350D01*
X75416674Y-73344673D01*
X75407107Y-73347069D01*
X75397351Y-73348516D01*
X75387500Y-73349000D01*
X74636500Y-73349000D01*
X74626649Y-73348516D01*
X74616893Y-73347069D01*
X74607326Y-73344673D01*
X74598040Y-73341350D01*
X74589125Y-73337133D01*
X74580665Y-73332063D01*
X74572743Y-73326188D01*
X74565436Y-73319564D01*
X74558812Y-73312257D01*
X74552937Y-73304335D01*
X74547867Y-73295875D01*
X74543650Y-73286960D01*
X74540327Y-73277674D01*
X74537931Y-73268107D01*
X74536484Y-73258351D01*
X74536000Y-73248500D01*
X74536000Y-73047500D01*
X74536484Y-73037649D01*
X74537931Y-73027893D01*
X74540327Y-73018326D01*
X74543650Y-73009040D01*
X74547867Y-73000125D01*
X74552937Y-72991665D01*
X74558812Y-72983743D01*
X74565436Y-72976436D01*
X74572743Y-72969812D01*
X74580665Y-72963937D01*
X74589125Y-72958867D01*
X74598040Y-72954650D01*
X74607326Y-72951327D01*
X74616893Y-72948931D01*
X74626649Y-72947484D01*
X74636500Y-72947000D01*
X75387500Y-72947000D01*
X75397351Y-72947484D01*
G37*
G36*
X75397351Y-72447484D02*
G01*
X75407107Y-72448931D01*
X75416674Y-72451327D01*
X75425960Y-72454650D01*
X75434875Y-72458867D01*
X75443335Y-72463937D01*
X75451257Y-72469812D01*
X75458564Y-72476436D01*
X75465188Y-72483743D01*
X75471063Y-72491665D01*
X75476133Y-72500125D01*
X75480350Y-72509040D01*
X75483673Y-72518326D01*
X75486069Y-72527893D01*
X75487516Y-72537649D01*
X75488000Y-72547500D01*
X75488000Y-72748500D01*
X75487516Y-72758351D01*
X75486069Y-72768107D01*
X75483673Y-72777674D01*
X75480350Y-72786960D01*
X75476133Y-72795875D01*
X75471063Y-72804335D01*
X75465188Y-72812257D01*
X75458564Y-72819564D01*
X75451257Y-72826188D01*
X75443335Y-72832063D01*
X75434875Y-72837133D01*
X75425960Y-72841350D01*
X75416674Y-72844673D01*
X75407107Y-72847069D01*
X75397351Y-72848516D01*
X75387500Y-72849000D01*
X74636500Y-72849000D01*
X74626649Y-72848516D01*
X74616893Y-72847069D01*
X74607326Y-72844673D01*
X74598040Y-72841350D01*
X74589125Y-72837133D01*
X74580665Y-72832063D01*
X74572743Y-72826188D01*
X74565436Y-72819564D01*
X74558812Y-72812257D01*
X74552937Y-72804335D01*
X74547867Y-72795875D01*
X74543650Y-72786960D01*
X74540327Y-72777674D01*
X74537931Y-72768107D01*
X74536484Y-72758351D01*
X74536000Y-72748500D01*
X74536000Y-72547500D01*
X74536484Y-72537649D01*
X74537931Y-72527893D01*
X74540327Y-72518326D01*
X74543650Y-72509040D01*
X74547867Y-72500125D01*
X74552937Y-72491665D01*
X74558812Y-72483743D01*
X74565436Y-72476436D01*
X74572743Y-72469812D01*
X74580665Y-72463937D01*
X74589125Y-72458867D01*
X74598040Y-72454650D01*
X74607326Y-72451327D01*
X74616893Y-72448931D01*
X74626649Y-72447484D01*
X74636500Y-72447000D01*
X75387500Y-72447000D01*
X75397351Y-72447484D01*
G37*
G36*
X75397351Y-71947484D02*
G01*
X75407107Y-71948931D01*
X75416674Y-71951327D01*
X75425960Y-71954650D01*
X75434875Y-71958867D01*
X75443335Y-71963937D01*
X75451257Y-71969812D01*
X75458564Y-71976436D01*
X75465188Y-71983743D01*
X75471063Y-71991665D01*
X75476133Y-72000125D01*
X75480350Y-72009040D01*
X75483673Y-72018326D01*
X75486069Y-72027893D01*
X75487516Y-72037649D01*
X75488000Y-72047500D01*
X75488000Y-72248500D01*
X75487516Y-72258351D01*
X75486069Y-72268107D01*
X75483673Y-72277674D01*
X75480350Y-72286960D01*
X75476133Y-72295875D01*
X75471063Y-72304335D01*
X75465188Y-72312257D01*
X75458564Y-72319564D01*
X75451257Y-72326188D01*
X75443335Y-72332063D01*
X75434875Y-72337133D01*
X75425960Y-72341350D01*
X75416674Y-72344673D01*
X75407107Y-72347069D01*
X75397351Y-72348516D01*
X75387500Y-72349000D01*
X74636500Y-72349000D01*
X74626649Y-72348516D01*
X74616893Y-72347069D01*
X74607326Y-72344673D01*
X74598040Y-72341350D01*
X74589125Y-72337133D01*
X74580665Y-72332063D01*
X74572743Y-72326188D01*
X74565436Y-72319564D01*
X74558812Y-72312257D01*
X74552937Y-72304335D01*
X74547867Y-72295875D01*
X74543650Y-72286960D01*
X74540327Y-72277674D01*
X74537931Y-72268107D01*
X74536484Y-72258351D01*
X74536000Y-72248500D01*
X74536000Y-72047500D01*
X74536484Y-72037649D01*
X74537931Y-72027893D01*
X74540327Y-72018326D01*
X74543650Y-72009040D01*
X74547867Y-72000125D01*
X74552937Y-71991665D01*
X74558812Y-71983743D01*
X74565436Y-71976436D01*
X74572743Y-71969812D01*
X74580665Y-71963937D01*
X74589125Y-71958867D01*
X74598040Y-71954650D01*
X74607326Y-71951327D01*
X74616893Y-71948931D01*
X74626649Y-71947484D01*
X74636500Y-71947000D01*
X75387500Y-71947000D01*
X75397351Y-71947484D01*
G37*
G36*
X75397351Y-71447484D02*
G01*
X75407107Y-71448931D01*
X75416674Y-71451327D01*
X75425960Y-71454650D01*
X75434875Y-71458867D01*
X75443335Y-71463937D01*
X75451257Y-71469812D01*
X75458564Y-71476436D01*
X75465188Y-71483743D01*
X75471063Y-71491665D01*
X75476133Y-71500125D01*
X75480350Y-71509040D01*
X75483673Y-71518326D01*
X75486069Y-71527893D01*
X75487516Y-71537649D01*
X75488000Y-71547500D01*
X75488000Y-71748500D01*
X75487516Y-71758351D01*
X75486069Y-71768107D01*
X75483673Y-71777674D01*
X75480350Y-71786960D01*
X75476133Y-71795875D01*
X75471063Y-71804335D01*
X75465188Y-71812257D01*
X75458564Y-71819564D01*
X75451257Y-71826188D01*
X75443335Y-71832063D01*
X75434875Y-71837133D01*
X75425960Y-71841350D01*
X75416674Y-71844673D01*
X75407107Y-71847069D01*
X75397351Y-71848516D01*
X75387500Y-71849000D01*
X74636500Y-71849000D01*
X74626649Y-71848516D01*
X74616893Y-71847069D01*
X74607326Y-71844673D01*
X74598040Y-71841350D01*
X74589125Y-71837133D01*
X74580665Y-71832063D01*
X74572743Y-71826188D01*
X74565436Y-71819564D01*
X74558812Y-71812257D01*
X74552937Y-71804335D01*
X74547867Y-71795875D01*
X74543650Y-71786960D01*
X74540327Y-71777674D01*
X74537931Y-71768107D01*
X74536484Y-71758351D01*
X74536000Y-71748500D01*
X74536000Y-71547500D01*
X74536484Y-71537649D01*
X74537931Y-71527893D01*
X74540327Y-71518326D01*
X74543650Y-71509040D01*
X74547867Y-71500125D01*
X74552937Y-71491665D01*
X74558812Y-71483743D01*
X74565436Y-71476436D01*
X74572743Y-71469812D01*
X74580665Y-71463937D01*
X74589125Y-71458867D01*
X74598040Y-71454650D01*
X74607326Y-71451327D01*
X74616893Y-71448931D01*
X74626649Y-71447484D01*
X74636500Y-71447000D01*
X75387500Y-71447000D01*
X75397351Y-71447484D01*
G37*
G36*
X75822351Y-70472484D02*
G01*
X75832107Y-70473931D01*
X75841674Y-70476327D01*
X75850960Y-70479650D01*
X75859875Y-70483867D01*
X75868335Y-70488937D01*
X75876257Y-70494812D01*
X75883564Y-70501436D01*
X75890188Y-70508743D01*
X75896063Y-70516665D01*
X75901133Y-70525125D01*
X75905350Y-70534040D01*
X75908673Y-70543326D01*
X75911069Y-70552893D01*
X75912516Y-70562649D01*
X75913000Y-70572500D01*
X75913000Y-71323500D01*
X75912516Y-71333351D01*
X75911069Y-71343107D01*
X75908673Y-71352674D01*
X75905350Y-71361960D01*
X75901133Y-71370875D01*
X75896063Y-71379335D01*
X75890188Y-71387257D01*
X75883564Y-71394564D01*
X75876257Y-71401188D01*
X75868335Y-71407063D01*
X75859875Y-71412133D01*
X75850960Y-71416350D01*
X75841674Y-71419673D01*
X75832107Y-71422069D01*
X75822351Y-71423516D01*
X75812500Y-71424000D01*
X75611500Y-71424000D01*
X75601649Y-71423516D01*
X75591893Y-71422069D01*
X75582326Y-71419673D01*
X75573040Y-71416350D01*
X75564125Y-71412133D01*
X75555665Y-71407063D01*
X75547743Y-71401188D01*
X75540436Y-71394564D01*
X75533812Y-71387257D01*
X75527937Y-71379335D01*
X75522867Y-71370875D01*
X75518650Y-71361960D01*
X75515327Y-71352674D01*
X75512931Y-71343107D01*
X75511484Y-71333351D01*
X75511000Y-71323500D01*
X75511000Y-70572500D01*
X75511484Y-70562649D01*
X75512931Y-70552893D01*
X75515327Y-70543326D01*
X75518650Y-70534040D01*
X75522867Y-70525125D01*
X75527937Y-70516665D01*
X75533812Y-70508743D01*
X75540436Y-70501436D01*
X75547743Y-70494812D01*
X75555665Y-70488937D01*
X75564125Y-70483867D01*
X75573040Y-70479650D01*
X75582326Y-70476327D01*
X75591893Y-70473931D01*
X75601649Y-70472484D01*
X75611500Y-70472000D01*
X75812500Y-70472000D01*
X75822351Y-70472484D01*
G37*
G36*
X76322351Y-70472484D02*
G01*
X76332107Y-70473931D01*
X76341674Y-70476327D01*
X76350960Y-70479650D01*
X76359875Y-70483867D01*
X76368335Y-70488937D01*
X76376257Y-70494812D01*
X76383564Y-70501436D01*
X76390188Y-70508743D01*
X76396063Y-70516665D01*
X76401133Y-70525125D01*
X76405350Y-70534040D01*
X76408673Y-70543326D01*
X76411069Y-70552893D01*
X76412516Y-70562649D01*
X76413000Y-70572500D01*
X76413000Y-71323500D01*
X76412516Y-71333351D01*
X76411069Y-71343107D01*
X76408673Y-71352674D01*
X76405350Y-71361960D01*
X76401133Y-71370875D01*
X76396063Y-71379335D01*
X76390188Y-71387257D01*
X76383564Y-71394564D01*
X76376257Y-71401188D01*
X76368335Y-71407063D01*
X76359875Y-71412133D01*
X76350960Y-71416350D01*
X76341674Y-71419673D01*
X76332107Y-71422069D01*
X76322351Y-71423516D01*
X76312500Y-71424000D01*
X76111500Y-71424000D01*
X76101649Y-71423516D01*
X76091893Y-71422069D01*
X76082326Y-71419673D01*
X76073040Y-71416350D01*
X76064125Y-71412133D01*
X76055665Y-71407063D01*
X76047743Y-71401188D01*
X76040436Y-71394564D01*
X76033812Y-71387257D01*
X76027937Y-71379335D01*
X76022867Y-71370875D01*
X76018650Y-71361960D01*
X76015327Y-71352674D01*
X76012931Y-71343107D01*
X76011484Y-71333351D01*
X76011000Y-71323500D01*
X76011000Y-70572500D01*
X76011484Y-70562649D01*
X76012931Y-70552893D01*
X76015327Y-70543326D01*
X76018650Y-70534040D01*
X76022867Y-70525125D01*
X76027937Y-70516665D01*
X76033812Y-70508743D01*
X76040436Y-70501436D01*
X76047743Y-70494812D01*
X76055665Y-70488937D01*
X76064125Y-70483867D01*
X76073040Y-70479650D01*
X76082326Y-70476327D01*
X76091893Y-70473931D01*
X76101649Y-70472484D01*
X76111500Y-70472000D01*
X76312500Y-70472000D01*
X76322351Y-70472484D01*
G37*
G36*
X76822351Y-70472484D02*
G01*
X76832107Y-70473931D01*
X76841674Y-70476327D01*
X76850960Y-70479650D01*
X76859875Y-70483867D01*
X76868335Y-70488937D01*
X76876257Y-70494812D01*
X76883564Y-70501436D01*
X76890188Y-70508743D01*
X76896063Y-70516665D01*
X76901133Y-70525125D01*
X76905350Y-70534040D01*
X76908673Y-70543326D01*
X76911069Y-70552893D01*
X76912516Y-70562649D01*
X76913000Y-70572500D01*
X76913000Y-71323500D01*
X76912516Y-71333351D01*
X76911069Y-71343107D01*
X76908673Y-71352674D01*
X76905350Y-71361960D01*
X76901133Y-71370875D01*
X76896063Y-71379335D01*
X76890188Y-71387257D01*
X76883564Y-71394564D01*
X76876257Y-71401188D01*
X76868335Y-71407063D01*
X76859875Y-71412133D01*
X76850960Y-71416350D01*
X76841674Y-71419673D01*
X76832107Y-71422069D01*
X76822351Y-71423516D01*
X76812500Y-71424000D01*
X76611500Y-71424000D01*
X76601649Y-71423516D01*
X76591893Y-71422069D01*
X76582326Y-71419673D01*
X76573040Y-71416350D01*
X76564125Y-71412133D01*
X76555665Y-71407063D01*
X76547743Y-71401188D01*
X76540436Y-71394564D01*
X76533812Y-71387257D01*
X76527937Y-71379335D01*
X76522867Y-71370875D01*
X76518650Y-71361960D01*
X76515327Y-71352674D01*
X76512931Y-71343107D01*
X76511484Y-71333351D01*
X76511000Y-71323500D01*
X76511000Y-70572500D01*
X76511484Y-70562649D01*
X76512931Y-70552893D01*
X76515327Y-70543326D01*
X76518650Y-70534040D01*
X76522867Y-70525125D01*
X76527937Y-70516665D01*
X76533812Y-70508743D01*
X76540436Y-70501436D01*
X76547743Y-70494812D01*
X76555665Y-70488937D01*
X76564125Y-70483867D01*
X76573040Y-70479650D01*
X76582326Y-70476327D01*
X76591893Y-70473931D01*
X76601649Y-70472484D01*
X76611500Y-70472000D01*
X76812500Y-70472000D01*
X76822351Y-70472484D01*
G37*
G36*
X77322351Y-70472484D02*
G01*
X77332107Y-70473931D01*
X77341674Y-70476327D01*
X77350960Y-70479650D01*
X77359875Y-70483867D01*
X77368335Y-70488937D01*
X77376257Y-70494812D01*
X77383564Y-70501436D01*
X77390188Y-70508743D01*
X77396063Y-70516665D01*
X77401133Y-70525125D01*
X77405350Y-70534040D01*
X77408673Y-70543326D01*
X77411069Y-70552893D01*
X77412516Y-70562649D01*
X77413000Y-70572500D01*
X77413000Y-71323500D01*
X77412516Y-71333351D01*
X77411069Y-71343107D01*
X77408673Y-71352674D01*
X77405350Y-71361960D01*
X77401133Y-71370875D01*
X77396063Y-71379335D01*
X77390188Y-71387257D01*
X77383564Y-71394564D01*
X77376257Y-71401188D01*
X77368335Y-71407063D01*
X77359875Y-71412133D01*
X77350960Y-71416350D01*
X77341674Y-71419673D01*
X77332107Y-71422069D01*
X77322351Y-71423516D01*
X77312500Y-71424000D01*
X77111500Y-71424000D01*
X77101649Y-71423516D01*
X77091893Y-71422069D01*
X77082326Y-71419673D01*
X77073040Y-71416350D01*
X77064125Y-71412133D01*
X77055665Y-71407063D01*
X77047743Y-71401188D01*
X77040436Y-71394564D01*
X77033812Y-71387257D01*
X77027937Y-71379335D01*
X77022867Y-71370875D01*
X77018650Y-71361960D01*
X77015327Y-71352674D01*
X77012931Y-71343107D01*
X77011484Y-71333351D01*
X77011000Y-71323500D01*
X77011000Y-70572500D01*
X77011484Y-70562649D01*
X77012931Y-70552893D01*
X77015327Y-70543326D01*
X77018650Y-70534040D01*
X77022867Y-70525125D01*
X77027937Y-70516665D01*
X77033812Y-70508743D01*
X77040436Y-70501436D01*
X77047743Y-70494812D01*
X77055665Y-70488937D01*
X77064125Y-70483867D01*
X77073040Y-70479650D01*
X77082326Y-70476327D01*
X77091893Y-70473931D01*
X77101649Y-70472484D01*
X77111500Y-70472000D01*
X77312500Y-70472000D01*
X77322351Y-70472484D01*
G37*
G36*
X77822351Y-70472484D02*
G01*
X77832107Y-70473931D01*
X77841674Y-70476327D01*
X77850960Y-70479650D01*
X77859875Y-70483867D01*
X77868335Y-70488937D01*
X77876257Y-70494812D01*
X77883564Y-70501436D01*
X77890188Y-70508743D01*
X77896063Y-70516665D01*
X77901133Y-70525125D01*
X77905350Y-70534040D01*
X77908673Y-70543326D01*
X77911069Y-70552893D01*
X77912516Y-70562649D01*
X77913000Y-70572500D01*
X77913000Y-71323500D01*
X77912516Y-71333351D01*
X77911069Y-71343107D01*
X77908673Y-71352674D01*
X77905350Y-71361960D01*
X77901133Y-71370875D01*
X77896063Y-71379335D01*
X77890188Y-71387257D01*
X77883564Y-71394564D01*
X77876257Y-71401188D01*
X77868335Y-71407063D01*
X77859875Y-71412133D01*
X77850960Y-71416350D01*
X77841674Y-71419673D01*
X77832107Y-71422069D01*
X77822351Y-71423516D01*
X77812500Y-71424000D01*
X77611500Y-71424000D01*
X77601649Y-71423516D01*
X77591893Y-71422069D01*
X77582326Y-71419673D01*
X77573040Y-71416350D01*
X77564125Y-71412133D01*
X77555665Y-71407063D01*
X77547743Y-71401188D01*
X77540436Y-71394564D01*
X77533812Y-71387257D01*
X77527937Y-71379335D01*
X77522867Y-71370875D01*
X77518650Y-71361960D01*
X77515327Y-71352674D01*
X77512931Y-71343107D01*
X77511484Y-71333351D01*
X77511000Y-71323500D01*
X77511000Y-70572500D01*
X77511484Y-70562649D01*
X77512931Y-70552893D01*
X77515327Y-70543326D01*
X77518650Y-70534040D01*
X77522867Y-70525125D01*
X77527937Y-70516665D01*
X77533812Y-70508743D01*
X77540436Y-70501436D01*
X77547743Y-70494812D01*
X77555665Y-70488937D01*
X77564125Y-70483867D01*
X77573040Y-70479650D01*
X77582326Y-70476327D01*
X77591893Y-70473931D01*
X77601649Y-70472484D01*
X77611500Y-70472000D01*
X77812500Y-70472000D01*
X77822351Y-70472484D01*
G37*
G36*
X78322351Y-70472484D02*
G01*
X78332107Y-70473931D01*
X78341674Y-70476327D01*
X78350960Y-70479650D01*
X78359875Y-70483867D01*
X78368335Y-70488937D01*
X78376257Y-70494812D01*
X78383564Y-70501436D01*
X78390188Y-70508743D01*
X78396063Y-70516665D01*
X78401133Y-70525125D01*
X78405350Y-70534040D01*
X78408673Y-70543326D01*
X78411069Y-70552893D01*
X78412516Y-70562649D01*
X78413000Y-70572500D01*
X78413000Y-71323500D01*
X78412516Y-71333351D01*
X78411069Y-71343107D01*
X78408673Y-71352674D01*
X78405350Y-71361960D01*
X78401133Y-71370875D01*
X78396063Y-71379335D01*
X78390188Y-71387257D01*
X78383564Y-71394564D01*
X78376257Y-71401188D01*
X78368335Y-71407063D01*
X78359875Y-71412133D01*
X78350960Y-71416350D01*
X78341674Y-71419673D01*
X78332107Y-71422069D01*
X78322351Y-71423516D01*
X78312500Y-71424000D01*
X78111500Y-71424000D01*
X78101649Y-71423516D01*
X78091893Y-71422069D01*
X78082326Y-71419673D01*
X78073040Y-71416350D01*
X78064125Y-71412133D01*
X78055665Y-71407063D01*
X78047743Y-71401188D01*
X78040436Y-71394564D01*
X78033812Y-71387257D01*
X78027937Y-71379335D01*
X78022867Y-71370875D01*
X78018650Y-71361960D01*
X78015327Y-71352674D01*
X78012931Y-71343107D01*
X78011484Y-71333351D01*
X78011000Y-71323500D01*
X78011000Y-70572500D01*
X78011484Y-70562649D01*
X78012931Y-70552893D01*
X78015327Y-70543326D01*
X78018650Y-70534040D01*
X78022867Y-70525125D01*
X78027937Y-70516665D01*
X78033812Y-70508743D01*
X78040436Y-70501436D01*
X78047743Y-70494812D01*
X78055665Y-70488937D01*
X78064125Y-70483867D01*
X78073040Y-70479650D01*
X78082326Y-70476327D01*
X78091893Y-70473931D01*
X78101649Y-70472484D01*
X78111500Y-70472000D01*
X78312500Y-70472000D01*
X78322351Y-70472484D01*
G37*
G36*
X79297351Y-71447484D02*
G01*
X79307107Y-71448931D01*
X79316674Y-71451327D01*
X79325960Y-71454650D01*
X79334875Y-71458867D01*
X79343335Y-71463937D01*
X79351257Y-71469812D01*
X79358564Y-71476436D01*
X79365188Y-71483743D01*
X79371063Y-71491665D01*
X79376133Y-71500125D01*
X79380350Y-71509040D01*
X79383673Y-71518326D01*
X79386069Y-71527893D01*
X79387516Y-71537649D01*
X79388000Y-71547500D01*
X79388000Y-71748500D01*
X79387516Y-71758351D01*
X79386069Y-71768107D01*
X79383673Y-71777674D01*
X79380350Y-71786960D01*
X79376133Y-71795875D01*
X79371063Y-71804335D01*
X79365188Y-71812257D01*
X79358564Y-71819564D01*
X79351257Y-71826188D01*
X79343335Y-71832063D01*
X79334875Y-71837133D01*
X79325960Y-71841350D01*
X79316674Y-71844673D01*
X79307107Y-71847069D01*
X79297351Y-71848516D01*
X79287500Y-71849000D01*
X78536500Y-71849000D01*
X78526649Y-71848516D01*
X78516893Y-71847069D01*
X78507326Y-71844673D01*
X78498040Y-71841350D01*
X78489125Y-71837133D01*
X78480665Y-71832063D01*
X78472743Y-71826188D01*
X78465436Y-71819564D01*
X78458812Y-71812257D01*
X78452937Y-71804335D01*
X78447867Y-71795875D01*
X78443650Y-71786960D01*
X78440327Y-71777674D01*
X78437931Y-71768107D01*
X78436484Y-71758351D01*
X78436000Y-71748500D01*
X78436000Y-71547500D01*
X78436484Y-71537649D01*
X78437931Y-71527893D01*
X78440327Y-71518326D01*
X78443650Y-71509040D01*
X78447867Y-71500125D01*
X78452937Y-71491665D01*
X78458812Y-71483743D01*
X78465436Y-71476436D01*
X78472743Y-71469812D01*
X78480665Y-71463937D01*
X78489125Y-71458867D01*
X78498040Y-71454650D01*
X78507326Y-71451327D01*
X78516893Y-71448931D01*
X78526649Y-71447484D01*
X78536500Y-71447000D01*
X79287500Y-71447000D01*
X79297351Y-71447484D01*
G37*
G36*
X79297351Y-71947484D02*
G01*
X79307107Y-71948931D01*
X79316674Y-71951327D01*
X79325960Y-71954650D01*
X79334875Y-71958867D01*
X79343335Y-71963937D01*
X79351257Y-71969812D01*
X79358564Y-71976436D01*
X79365188Y-71983743D01*
X79371063Y-71991665D01*
X79376133Y-72000125D01*
X79380350Y-72009040D01*
X79383673Y-72018326D01*
X79386069Y-72027893D01*
X79387516Y-72037649D01*
X79388000Y-72047500D01*
X79388000Y-72248500D01*
X79387516Y-72258351D01*
X79386069Y-72268107D01*
X79383673Y-72277674D01*
X79380350Y-72286960D01*
X79376133Y-72295875D01*
X79371063Y-72304335D01*
X79365188Y-72312257D01*
X79358564Y-72319564D01*
X79351257Y-72326188D01*
X79343335Y-72332063D01*
X79334875Y-72337133D01*
X79325960Y-72341350D01*
X79316674Y-72344673D01*
X79307107Y-72347069D01*
X79297351Y-72348516D01*
X79287500Y-72349000D01*
X78536500Y-72349000D01*
X78526649Y-72348516D01*
X78516893Y-72347069D01*
X78507326Y-72344673D01*
X78498040Y-72341350D01*
X78489125Y-72337133D01*
X78480665Y-72332063D01*
X78472743Y-72326188D01*
X78465436Y-72319564D01*
X78458812Y-72312257D01*
X78452937Y-72304335D01*
X78447867Y-72295875D01*
X78443650Y-72286960D01*
X78440327Y-72277674D01*
X78437931Y-72268107D01*
X78436484Y-72258351D01*
X78436000Y-72248500D01*
X78436000Y-72047500D01*
X78436484Y-72037649D01*
X78437931Y-72027893D01*
X78440327Y-72018326D01*
X78443650Y-72009040D01*
X78447867Y-72000125D01*
X78452937Y-71991665D01*
X78458812Y-71983743D01*
X78465436Y-71976436D01*
X78472743Y-71969812D01*
X78480665Y-71963937D01*
X78489125Y-71958867D01*
X78498040Y-71954650D01*
X78507326Y-71951327D01*
X78516893Y-71948931D01*
X78526649Y-71947484D01*
X78536500Y-71947000D01*
X79287500Y-71947000D01*
X79297351Y-71947484D01*
G37*
G36*
X79297351Y-72447484D02*
G01*
X79307107Y-72448931D01*
X79316674Y-72451327D01*
X79325960Y-72454650D01*
X79334875Y-72458867D01*
X79343335Y-72463937D01*
X79351257Y-72469812D01*
X79358564Y-72476436D01*
X79365188Y-72483743D01*
X79371063Y-72491665D01*
X79376133Y-72500125D01*
X79380350Y-72509040D01*
X79383673Y-72518326D01*
X79386069Y-72527893D01*
X79387516Y-72537649D01*
X79388000Y-72547500D01*
X79388000Y-72748500D01*
X79387516Y-72758351D01*
X79386069Y-72768107D01*
X79383673Y-72777674D01*
X79380350Y-72786960D01*
X79376133Y-72795875D01*
X79371063Y-72804335D01*
X79365188Y-72812257D01*
X79358564Y-72819564D01*
X79351257Y-72826188D01*
X79343335Y-72832063D01*
X79334875Y-72837133D01*
X79325960Y-72841350D01*
X79316674Y-72844673D01*
X79307107Y-72847069D01*
X79297351Y-72848516D01*
X79287500Y-72849000D01*
X78536500Y-72849000D01*
X78526649Y-72848516D01*
X78516893Y-72847069D01*
X78507326Y-72844673D01*
X78498040Y-72841350D01*
X78489125Y-72837133D01*
X78480665Y-72832063D01*
X78472743Y-72826188D01*
X78465436Y-72819564D01*
X78458812Y-72812257D01*
X78452937Y-72804335D01*
X78447867Y-72795875D01*
X78443650Y-72786960D01*
X78440327Y-72777674D01*
X78437931Y-72768107D01*
X78436484Y-72758351D01*
X78436000Y-72748500D01*
X78436000Y-72547500D01*
X78436484Y-72537649D01*
X78437931Y-72527893D01*
X78440327Y-72518326D01*
X78443650Y-72509040D01*
X78447867Y-72500125D01*
X78452937Y-72491665D01*
X78458812Y-72483743D01*
X78465436Y-72476436D01*
X78472743Y-72469812D01*
X78480665Y-72463937D01*
X78489125Y-72458867D01*
X78498040Y-72454650D01*
X78507326Y-72451327D01*
X78516893Y-72448931D01*
X78526649Y-72447484D01*
X78536500Y-72447000D01*
X79287500Y-72447000D01*
X79297351Y-72447484D01*
G37*
G36*
X79297351Y-72947484D02*
G01*
X79307107Y-72948931D01*
X79316674Y-72951327D01*
X79325960Y-72954650D01*
X79334875Y-72958867D01*
X79343335Y-72963937D01*
X79351257Y-72969812D01*
X79358564Y-72976436D01*
X79365188Y-72983743D01*
X79371063Y-72991665D01*
X79376133Y-73000125D01*
X79380350Y-73009040D01*
X79383673Y-73018326D01*
X79386069Y-73027893D01*
X79387516Y-73037649D01*
X79388000Y-73047500D01*
X79388000Y-73248500D01*
X79387516Y-73258351D01*
X79386069Y-73268107D01*
X79383673Y-73277674D01*
X79380350Y-73286960D01*
X79376133Y-73295875D01*
X79371063Y-73304335D01*
X79365188Y-73312257D01*
X79358564Y-73319564D01*
X79351257Y-73326188D01*
X79343335Y-73332063D01*
X79334875Y-73337133D01*
X79325960Y-73341350D01*
X79316674Y-73344673D01*
X79307107Y-73347069D01*
X79297351Y-73348516D01*
X79287500Y-73349000D01*
X78536500Y-73349000D01*
X78526649Y-73348516D01*
X78516893Y-73347069D01*
X78507326Y-73344673D01*
X78498040Y-73341350D01*
X78489125Y-73337133D01*
X78480665Y-73332063D01*
X78472743Y-73326188D01*
X78465436Y-73319564D01*
X78458812Y-73312257D01*
X78452937Y-73304335D01*
X78447867Y-73295875D01*
X78443650Y-73286960D01*
X78440327Y-73277674D01*
X78437931Y-73268107D01*
X78436484Y-73258351D01*
X78436000Y-73248500D01*
X78436000Y-73047500D01*
X78436484Y-73037649D01*
X78437931Y-73027893D01*
X78440327Y-73018326D01*
X78443650Y-73009040D01*
X78447867Y-73000125D01*
X78452937Y-72991665D01*
X78458812Y-72983743D01*
X78465436Y-72976436D01*
X78472743Y-72969812D01*
X78480665Y-72963937D01*
X78489125Y-72958867D01*
X78498040Y-72954650D01*
X78507326Y-72951327D01*
X78516893Y-72948931D01*
X78526649Y-72947484D01*
X78536500Y-72947000D01*
X79287500Y-72947000D01*
X79297351Y-72947484D01*
G37*
G36*
X79297351Y-73447484D02*
G01*
X79307107Y-73448931D01*
X79316674Y-73451327D01*
X79325960Y-73454650D01*
X79334875Y-73458867D01*
X79343335Y-73463937D01*
X79351257Y-73469812D01*
X79358564Y-73476436D01*
X79365188Y-73483743D01*
X79371063Y-73491665D01*
X79376133Y-73500125D01*
X79380350Y-73509040D01*
X79383673Y-73518326D01*
X79386069Y-73527893D01*
X79387516Y-73537649D01*
X79388000Y-73547500D01*
X79388000Y-73748500D01*
X79387516Y-73758351D01*
X79386069Y-73768107D01*
X79383673Y-73777674D01*
X79380350Y-73786960D01*
X79376133Y-73795875D01*
X79371063Y-73804335D01*
X79365188Y-73812257D01*
X79358564Y-73819564D01*
X79351257Y-73826188D01*
X79343335Y-73832063D01*
X79334875Y-73837133D01*
X79325960Y-73841350D01*
X79316674Y-73844673D01*
X79307107Y-73847069D01*
X79297351Y-73848516D01*
X79287500Y-73849000D01*
X78536500Y-73849000D01*
X78526649Y-73848516D01*
X78516893Y-73847069D01*
X78507326Y-73844673D01*
X78498040Y-73841350D01*
X78489125Y-73837133D01*
X78480665Y-73832063D01*
X78472743Y-73826188D01*
X78465436Y-73819564D01*
X78458812Y-73812257D01*
X78452937Y-73804335D01*
X78447867Y-73795875D01*
X78443650Y-73786960D01*
X78440327Y-73777674D01*
X78437931Y-73768107D01*
X78436484Y-73758351D01*
X78436000Y-73748500D01*
X78436000Y-73547500D01*
X78436484Y-73537649D01*
X78437931Y-73527893D01*
X78440327Y-73518326D01*
X78443650Y-73509040D01*
X78447867Y-73500125D01*
X78452937Y-73491665D01*
X78458812Y-73483743D01*
X78465436Y-73476436D01*
X78472743Y-73469812D01*
X78480665Y-73463937D01*
X78489125Y-73458867D01*
X78498040Y-73454650D01*
X78507326Y-73451327D01*
X78516893Y-73448931D01*
X78526649Y-73447484D01*
X78536500Y-73447000D01*
X79287500Y-73447000D01*
X79297351Y-73447484D01*
G37*
G36*
X79297351Y-73947484D02*
G01*
X79307107Y-73948931D01*
X79316674Y-73951327D01*
X79325960Y-73954650D01*
X79334875Y-73958867D01*
X79343335Y-73963937D01*
X79351257Y-73969812D01*
X79358564Y-73976436D01*
X79365188Y-73983743D01*
X79371063Y-73991665D01*
X79376133Y-74000125D01*
X79380350Y-74009040D01*
X79383673Y-74018326D01*
X79386069Y-74027893D01*
X79387516Y-74037649D01*
X79388000Y-74047500D01*
X79388000Y-74248500D01*
X79387516Y-74258351D01*
X79386069Y-74268107D01*
X79383673Y-74277674D01*
X79380350Y-74286960D01*
X79376133Y-74295875D01*
X79371063Y-74304335D01*
X79365188Y-74312257D01*
X79358564Y-74319564D01*
X79351257Y-74326188D01*
X79343335Y-74332063D01*
X79334875Y-74337133D01*
X79325960Y-74341350D01*
X79316674Y-74344673D01*
X79307107Y-74347069D01*
X79297351Y-74348516D01*
X79287500Y-74349000D01*
X78536500Y-74349000D01*
X78526649Y-74348516D01*
X78516893Y-74347069D01*
X78507326Y-74344673D01*
X78498040Y-74341350D01*
X78489125Y-74337133D01*
X78480665Y-74332063D01*
X78472743Y-74326188D01*
X78465436Y-74319564D01*
X78458812Y-74312257D01*
X78452937Y-74304335D01*
X78447867Y-74295875D01*
X78443650Y-74286960D01*
X78440327Y-74277674D01*
X78437931Y-74268107D01*
X78436484Y-74258351D01*
X78436000Y-74248500D01*
X78436000Y-74047500D01*
X78436484Y-74037649D01*
X78437931Y-74027893D01*
X78440327Y-74018326D01*
X78443650Y-74009040D01*
X78447867Y-74000125D01*
X78452937Y-73991665D01*
X78458812Y-73983743D01*
X78465436Y-73976436D01*
X78472743Y-73969812D01*
X78480665Y-73963937D01*
X78489125Y-73958867D01*
X78498040Y-73954650D01*
X78507326Y-73951327D01*
X78516893Y-73948931D01*
X78526649Y-73947484D01*
X78536500Y-73947000D01*
X79287500Y-73947000D01*
X79297351Y-73947484D01*
G37*
G36*
X78322351Y-74372484D02*
G01*
X78332107Y-74373931D01*
X78341674Y-74376327D01*
X78350960Y-74379650D01*
X78359875Y-74383867D01*
X78368335Y-74388937D01*
X78376257Y-74394812D01*
X78383564Y-74401436D01*
X78390188Y-74408743D01*
X78396063Y-74416665D01*
X78401133Y-74425125D01*
X78405350Y-74434040D01*
X78408673Y-74443326D01*
X78411069Y-74452893D01*
X78412516Y-74462649D01*
X78413000Y-74472500D01*
X78413000Y-75223500D01*
X78412516Y-75233351D01*
X78411069Y-75243107D01*
X78408673Y-75252674D01*
X78405350Y-75261960D01*
X78401133Y-75270875D01*
X78396063Y-75279335D01*
X78390188Y-75287257D01*
X78383564Y-75294564D01*
X78376257Y-75301188D01*
X78368335Y-75307063D01*
X78359875Y-75312133D01*
X78350960Y-75316350D01*
X78341674Y-75319673D01*
X78332107Y-75322069D01*
X78322351Y-75323516D01*
X78312500Y-75324000D01*
X78111500Y-75324000D01*
X78101649Y-75323516D01*
X78091893Y-75322069D01*
X78082326Y-75319673D01*
X78073040Y-75316350D01*
X78064125Y-75312133D01*
X78055665Y-75307063D01*
X78047743Y-75301188D01*
X78040436Y-75294564D01*
X78033812Y-75287257D01*
X78027937Y-75279335D01*
X78022867Y-75270875D01*
X78018650Y-75261960D01*
X78015327Y-75252674D01*
X78012931Y-75243107D01*
X78011484Y-75233351D01*
X78011000Y-75223500D01*
X78011000Y-74472500D01*
X78011484Y-74462649D01*
X78012931Y-74452893D01*
X78015327Y-74443326D01*
X78018650Y-74434040D01*
X78022867Y-74425125D01*
X78027937Y-74416665D01*
X78033812Y-74408743D01*
X78040436Y-74401436D01*
X78047743Y-74394812D01*
X78055665Y-74388937D01*
X78064125Y-74383867D01*
X78073040Y-74379650D01*
X78082326Y-74376327D01*
X78091893Y-74373931D01*
X78101649Y-74372484D01*
X78111500Y-74372000D01*
X78312500Y-74372000D01*
X78322351Y-74372484D01*
G37*
G36*
X77822351Y-74372484D02*
G01*
X77832107Y-74373931D01*
X77841674Y-74376327D01*
X77850960Y-74379650D01*
X77859875Y-74383867D01*
X77868335Y-74388937D01*
X77876257Y-74394812D01*
X77883564Y-74401436D01*
X77890188Y-74408743D01*
X77896063Y-74416665D01*
X77901133Y-74425125D01*
X77905350Y-74434040D01*
X77908673Y-74443326D01*
X77911069Y-74452893D01*
X77912516Y-74462649D01*
X77913000Y-74472500D01*
X77913000Y-75223500D01*
X77912516Y-75233351D01*
X77911069Y-75243107D01*
X77908673Y-75252674D01*
X77905350Y-75261960D01*
X77901133Y-75270875D01*
X77896063Y-75279335D01*
X77890188Y-75287257D01*
X77883564Y-75294564D01*
X77876257Y-75301188D01*
X77868335Y-75307063D01*
X77859875Y-75312133D01*
X77850960Y-75316350D01*
X77841674Y-75319673D01*
X77832107Y-75322069D01*
X77822351Y-75323516D01*
X77812500Y-75324000D01*
X77611500Y-75324000D01*
X77601649Y-75323516D01*
X77591893Y-75322069D01*
X77582326Y-75319673D01*
X77573040Y-75316350D01*
X77564125Y-75312133D01*
X77555665Y-75307063D01*
X77547743Y-75301188D01*
X77540436Y-75294564D01*
X77533812Y-75287257D01*
X77527937Y-75279335D01*
X77522867Y-75270875D01*
X77518650Y-75261960D01*
X77515327Y-75252674D01*
X77512931Y-75243107D01*
X77511484Y-75233351D01*
X77511000Y-75223500D01*
X77511000Y-74472500D01*
X77511484Y-74462649D01*
X77512931Y-74452893D01*
X77515327Y-74443326D01*
X77518650Y-74434040D01*
X77522867Y-74425125D01*
X77527937Y-74416665D01*
X77533812Y-74408743D01*
X77540436Y-74401436D01*
X77547743Y-74394812D01*
X77555665Y-74388937D01*
X77564125Y-74383867D01*
X77573040Y-74379650D01*
X77582326Y-74376327D01*
X77591893Y-74373931D01*
X77601649Y-74372484D01*
X77611500Y-74372000D01*
X77812500Y-74372000D01*
X77822351Y-74372484D01*
G37*
G36*
X77322351Y-74372484D02*
G01*
X77332107Y-74373931D01*
X77341674Y-74376327D01*
X77350960Y-74379650D01*
X77359875Y-74383867D01*
X77368335Y-74388937D01*
X77376257Y-74394812D01*
X77383564Y-74401436D01*
X77390188Y-74408743D01*
X77396063Y-74416665D01*
X77401133Y-74425125D01*
X77405350Y-74434040D01*
X77408673Y-74443326D01*
X77411069Y-74452893D01*
X77412516Y-74462649D01*
X77413000Y-74472500D01*
X77413000Y-75223500D01*
X77412516Y-75233351D01*
X77411069Y-75243107D01*
X77408673Y-75252674D01*
X77405350Y-75261960D01*
X77401133Y-75270875D01*
X77396063Y-75279335D01*
X77390188Y-75287257D01*
X77383564Y-75294564D01*
X77376257Y-75301188D01*
X77368335Y-75307063D01*
X77359875Y-75312133D01*
X77350960Y-75316350D01*
X77341674Y-75319673D01*
X77332107Y-75322069D01*
X77322351Y-75323516D01*
X77312500Y-75324000D01*
X77111500Y-75324000D01*
X77101649Y-75323516D01*
X77091893Y-75322069D01*
X77082326Y-75319673D01*
X77073040Y-75316350D01*
X77064125Y-75312133D01*
X77055665Y-75307063D01*
X77047743Y-75301188D01*
X77040436Y-75294564D01*
X77033812Y-75287257D01*
X77027937Y-75279335D01*
X77022867Y-75270875D01*
X77018650Y-75261960D01*
X77015327Y-75252674D01*
X77012931Y-75243107D01*
X77011484Y-75233351D01*
X77011000Y-75223500D01*
X77011000Y-74472500D01*
X77011484Y-74462649D01*
X77012931Y-74452893D01*
X77015327Y-74443326D01*
X77018650Y-74434040D01*
X77022867Y-74425125D01*
X77027937Y-74416665D01*
X77033812Y-74408743D01*
X77040436Y-74401436D01*
X77047743Y-74394812D01*
X77055665Y-74388937D01*
X77064125Y-74383867D01*
X77073040Y-74379650D01*
X77082326Y-74376327D01*
X77091893Y-74373931D01*
X77101649Y-74372484D01*
X77111500Y-74372000D01*
X77312500Y-74372000D01*
X77322351Y-74372484D01*
G37*
G36*
X76822351Y-74372484D02*
G01*
X76832107Y-74373931D01*
X76841674Y-74376327D01*
X76850960Y-74379650D01*
X76859875Y-74383867D01*
X76868335Y-74388937D01*
X76876257Y-74394812D01*
X76883564Y-74401436D01*
X76890188Y-74408743D01*
X76896063Y-74416665D01*
X76901133Y-74425125D01*
X76905350Y-74434040D01*
X76908673Y-74443326D01*
X76911069Y-74452893D01*
X76912516Y-74462649D01*
X76913000Y-74472500D01*
X76913000Y-75223500D01*
X76912516Y-75233351D01*
X76911069Y-75243107D01*
X76908673Y-75252674D01*
X76905350Y-75261960D01*
X76901133Y-75270875D01*
X76896063Y-75279335D01*
X76890188Y-75287257D01*
X76883564Y-75294564D01*
X76876257Y-75301188D01*
X76868335Y-75307063D01*
X76859875Y-75312133D01*
X76850960Y-75316350D01*
X76841674Y-75319673D01*
X76832107Y-75322069D01*
X76822351Y-75323516D01*
X76812500Y-75324000D01*
X76611500Y-75324000D01*
X76601649Y-75323516D01*
X76591893Y-75322069D01*
X76582326Y-75319673D01*
X76573040Y-75316350D01*
X76564125Y-75312133D01*
X76555665Y-75307063D01*
X76547743Y-75301188D01*
X76540436Y-75294564D01*
X76533812Y-75287257D01*
X76527937Y-75279335D01*
X76522867Y-75270875D01*
X76518650Y-75261960D01*
X76515327Y-75252674D01*
X76512931Y-75243107D01*
X76511484Y-75233351D01*
X76511000Y-75223500D01*
X76511000Y-74472500D01*
X76511484Y-74462649D01*
X76512931Y-74452893D01*
X76515327Y-74443326D01*
X76518650Y-74434040D01*
X76522867Y-74425125D01*
X76527937Y-74416665D01*
X76533812Y-74408743D01*
X76540436Y-74401436D01*
X76547743Y-74394812D01*
X76555665Y-74388937D01*
X76564125Y-74383867D01*
X76573040Y-74379650D01*
X76582326Y-74376327D01*
X76591893Y-74373931D01*
X76601649Y-74372484D01*
X76611500Y-74372000D01*
X76812500Y-74372000D01*
X76822351Y-74372484D01*
G37*
G36*
X76322351Y-74372484D02*
G01*
X76332107Y-74373931D01*
X76341674Y-74376327D01*
X76350960Y-74379650D01*
X76359875Y-74383867D01*
X76368335Y-74388937D01*
X76376257Y-74394812D01*
X76383564Y-74401436D01*
X76390188Y-74408743D01*
X76396063Y-74416665D01*
X76401133Y-74425125D01*
X76405350Y-74434040D01*
X76408673Y-74443326D01*
X76411069Y-74452893D01*
X76412516Y-74462649D01*
X76413000Y-74472500D01*
X76413000Y-75223500D01*
X76412516Y-75233351D01*
X76411069Y-75243107D01*
X76408673Y-75252674D01*
X76405350Y-75261960D01*
X76401133Y-75270875D01*
X76396063Y-75279335D01*
X76390188Y-75287257D01*
X76383564Y-75294564D01*
X76376257Y-75301188D01*
X76368335Y-75307063D01*
X76359875Y-75312133D01*
X76350960Y-75316350D01*
X76341674Y-75319673D01*
X76332107Y-75322069D01*
X76322351Y-75323516D01*
X76312500Y-75324000D01*
X76111500Y-75324000D01*
X76101649Y-75323516D01*
X76091893Y-75322069D01*
X76082326Y-75319673D01*
X76073040Y-75316350D01*
X76064125Y-75312133D01*
X76055665Y-75307063D01*
X76047743Y-75301188D01*
X76040436Y-75294564D01*
X76033812Y-75287257D01*
X76027937Y-75279335D01*
X76022867Y-75270875D01*
X76018650Y-75261960D01*
X76015327Y-75252674D01*
X76012931Y-75243107D01*
X76011484Y-75233351D01*
X76011000Y-75223500D01*
X76011000Y-74472500D01*
X76011484Y-74462649D01*
X76012931Y-74452893D01*
X76015327Y-74443326D01*
X76018650Y-74434040D01*
X76022867Y-74425125D01*
X76027937Y-74416665D01*
X76033812Y-74408743D01*
X76040436Y-74401436D01*
X76047743Y-74394812D01*
X76055665Y-74388937D01*
X76064125Y-74383867D01*
X76073040Y-74379650D01*
X76082326Y-74376327D01*
X76091893Y-74373931D01*
X76101649Y-74372484D01*
X76111500Y-74372000D01*
X76312500Y-74372000D01*
X76322351Y-74372484D01*
G37*
G36*
X75822351Y-74372484D02*
G01*
X75832107Y-74373931D01*
X75841674Y-74376327D01*
X75850960Y-74379650D01*
X75859875Y-74383867D01*
X75868335Y-74388937D01*
X75876257Y-74394812D01*
X75883564Y-74401436D01*
X75890188Y-74408743D01*
X75896063Y-74416665D01*
X75901133Y-74425125D01*
X75905350Y-74434040D01*
X75908673Y-74443326D01*
X75911069Y-74452893D01*
X75912516Y-74462649D01*
X75913000Y-74472500D01*
X75913000Y-75223500D01*
X75912516Y-75233351D01*
X75911069Y-75243107D01*
X75908673Y-75252674D01*
X75905350Y-75261960D01*
X75901133Y-75270875D01*
X75896063Y-75279335D01*
X75890188Y-75287257D01*
X75883564Y-75294564D01*
X75876257Y-75301188D01*
X75868335Y-75307063D01*
X75859875Y-75312133D01*
X75850960Y-75316350D01*
X75841674Y-75319673D01*
X75832107Y-75322069D01*
X75822351Y-75323516D01*
X75812500Y-75324000D01*
X75611500Y-75324000D01*
X75601649Y-75323516D01*
X75591893Y-75322069D01*
X75582326Y-75319673D01*
X75573040Y-75316350D01*
X75564125Y-75312133D01*
X75555665Y-75307063D01*
X75547743Y-75301188D01*
X75540436Y-75294564D01*
X75533812Y-75287257D01*
X75527937Y-75279335D01*
X75522867Y-75270875D01*
X75518650Y-75261960D01*
X75515327Y-75252674D01*
X75512931Y-75243107D01*
X75511484Y-75233351D01*
X75511000Y-75223500D01*
X75511000Y-74472500D01*
X75511484Y-74462649D01*
X75512931Y-74452893D01*
X75515327Y-74443326D01*
X75518650Y-74434040D01*
X75522867Y-74425125D01*
X75527937Y-74416665D01*
X75533812Y-74408743D01*
X75540436Y-74401436D01*
X75547743Y-74394812D01*
X75555665Y-74388937D01*
X75564125Y-74383867D01*
X75573040Y-74379650D01*
X75582326Y-74376327D01*
X75591893Y-74373931D01*
X75601649Y-74372484D01*
X75611500Y-74372000D01*
X75812500Y-74372000D01*
X75822351Y-74372484D01*
G37*
D19*
X75733000Y-47536000D03*
X76383000Y-45936000D03*
X77033000Y-45936000D03*
X77683000Y-45936000D03*
X76383000Y-47536000D03*
X77033000Y-47536000D03*
X77683000Y-47536000D03*
X75733000Y-45936000D03*
D20*
X79514000Y-46223000D03*
X80014000Y-46223000D03*
X80514000Y-46223000D03*
X81014000Y-46223000D03*
D21*
X81539000Y-46748000D03*
X81539000Y-47248000D03*
X81539000Y-47748000D03*
X81539000Y-48248000D03*
D20*
X81014000Y-48773000D03*
X80514000Y-48773000D03*
X80014000Y-48773000D03*
X79514000Y-48773000D03*
D21*
X78989000Y-48248000D03*
X78989000Y-47748000D03*
X78989000Y-47248000D03*
X78989000Y-46748000D03*
D11*
G36*
X77255957Y-80084333D02*
G01*
X77272751Y-80086824D01*
X77289219Y-80090949D01*
X77305204Y-80096669D01*
X77320552Y-80103928D01*
X77335114Y-80112656D01*
X77348750Y-80122769D01*
X77361329Y-80134171D01*
X77372731Y-80146750D01*
X77382844Y-80160386D01*
X77391572Y-80174948D01*
X77398831Y-80190296D01*
X77404551Y-80206281D01*
X77408676Y-80222749D01*
X77411167Y-80239543D01*
X77412000Y-80256500D01*
X77412000Y-80652500D01*
X77411167Y-80669457D01*
X77408676Y-80686251D01*
X77404551Y-80702719D01*
X77398831Y-80718704D01*
X77391572Y-80734052D01*
X77382844Y-80748614D01*
X77372731Y-80762250D01*
X77361329Y-80774829D01*
X77348750Y-80786231D01*
X77335114Y-80796344D01*
X77320552Y-80805072D01*
X77305204Y-80812331D01*
X77289219Y-80818051D01*
X77272751Y-80822176D01*
X77255957Y-80824667D01*
X77239000Y-80825500D01*
X76893000Y-80825500D01*
X76876043Y-80824667D01*
X76859249Y-80822176D01*
X76842781Y-80818051D01*
X76826796Y-80812331D01*
X76811448Y-80805072D01*
X76796886Y-80796344D01*
X76783250Y-80786231D01*
X76770671Y-80774829D01*
X76759269Y-80762250D01*
X76749156Y-80748614D01*
X76740428Y-80734052D01*
X76733169Y-80718704D01*
X76727449Y-80702719D01*
X76723324Y-80686251D01*
X76720833Y-80669457D01*
X76720000Y-80652500D01*
X76720000Y-80256500D01*
X76720833Y-80239543D01*
X76723324Y-80222749D01*
X76727449Y-80206281D01*
X76733169Y-80190296D01*
X76740428Y-80174948D01*
X76749156Y-80160386D01*
X76759269Y-80146750D01*
X76770671Y-80134171D01*
X76783250Y-80122769D01*
X76796886Y-80112656D01*
X76811448Y-80103928D01*
X76826796Y-80096669D01*
X76842781Y-80090949D01*
X76859249Y-80086824D01*
X76876043Y-80084333D01*
X76893000Y-80083500D01*
X77239000Y-80083500D01*
X77255957Y-80084333D01*
G37*
G36*
X76285957Y-80084333D02*
G01*
X76302751Y-80086824D01*
X76319219Y-80090949D01*
X76335204Y-80096669D01*
X76350552Y-80103928D01*
X76365114Y-80112656D01*
X76378750Y-80122769D01*
X76391329Y-80134171D01*
X76402731Y-80146750D01*
X76412844Y-80160386D01*
X76421572Y-80174948D01*
X76428831Y-80190296D01*
X76434551Y-80206281D01*
X76438676Y-80222749D01*
X76441167Y-80239543D01*
X76442000Y-80256500D01*
X76442000Y-80652500D01*
X76441167Y-80669457D01*
X76438676Y-80686251D01*
X76434551Y-80702719D01*
X76428831Y-80718704D01*
X76421572Y-80734052D01*
X76412844Y-80748614D01*
X76402731Y-80762250D01*
X76391329Y-80774829D01*
X76378750Y-80786231D01*
X76365114Y-80796344D01*
X76350552Y-80805072D01*
X76335204Y-80812331D01*
X76319219Y-80818051D01*
X76302751Y-80822176D01*
X76285957Y-80824667D01*
X76269000Y-80825500D01*
X75923000Y-80825500D01*
X75906043Y-80824667D01*
X75889249Y-80822176D01*
X75872781Y-80818051D01*
X75856796Y-80812331D01*
X75841448Y-80805072D01*
X75826886Y-80796344D01*
X75813250Y-80786231D01*
X75800671Y-80774829D01*
X75789269Y-80762250D01*
X75779156Y-80748614D01*
X75770428Y-80734052D01*
X75763169Y-80718704D01*
X75757449Y-80702719D01*
X75753324Y-80686251D01*
X75750833Y-80669457D01*
X75750000Y-80652500D01*
X75750000Y-80256500D01*
X75750833Y-80239543D01*
X75753324Y-80222749D01*
X75757449Y-80206281D01*
X75763169Y-80190296D01*
X75770428Y-80174948D01*
X75779156Y-80160386D01*
X75789269Y-80146750D01*
X75800671Y-80134171D01*
X75813250Y-80122769D01*
X75826886Y-80112656D01*
X75841448Y-80103928D01*
X75856796Y-80096669D01*
X75872781Y-80090949D01*
X75889249Y-80086824D01*
X75906043Y-80084333D01*
X75923000Y-80083500D01*
X76269000Y-80083500D01*
X76285957Y-80084333D01*
G37*
G36*
X92797957Y-64955833D02*
G01*
X92814751Y-64958324D01*
X92831219Y-64962449D01*
X92847204Y-64968169D01*
X92862552Y-64975428D01*
X92877114Y-64984156D01*
X92890750Y-64994269D01*
X92903329Y-65005671D01*
X92914731Y-65018250D01*
X92924844Y-65031886D01*
X92933572Y-65046448D01*
X92940831Y-65061796D01*
X92946551Y-65077781D01*
X92950676Y-65094249D01*
X92953167Y-65111043D01*
X92954000Y-65128000D01*
X92954000Y-65474000D01*
X92953167Y-65490957D01*
X92950676Y-65507751D01*
X92946551Y-65524219D01*
X92940831Y-65540204D01*
X92933572Y-65555552D01*
X92924844Y-65570114D01*
X92914731Y-65583750D01*
X92903329Y-65596329D01*
X92890750Y-65607731D01*
X92877114Y-65617844D01*
X92862552Y-65626572D01*
X92847204Y-65633831D01*
X92831219Y-65639551D01*
X92814751Y-65643676D01*
X92797957Y-65646167D01*
X92781000Y-65647000D01*
X92385000Y-65647000D01*
X92368043Y-65646167D01*
X92351249Y-65643676D01*
X92334781Y-65639551D01*
X92318796Y-65633831D01*
X92303448Y-65626572D01*
X92288886Y-65617844D01*
X92275250Y-65607731D01*
X92262671Y-65596329D01*
X92251269Y-65583750D01*
X92241156Y-65570114D01*
X92232428Y-65555552D01*
X92225169Y-65540204D01*
X92219449Y-65524219D01*
X92215324Y-65507751D01*
X92212833Y-65490957D01*
X92212000Y-65474000D01*
X92212000Y-65128000D01*
X92212833Y-65111043D01*
X92215324Y-65094249D01*
X92219449Y-65077781D01*
X92225169Y-65061796D01*
X92232428Y-65046448D01*
X92241156Y-65031886D01*
X92251269Y-65018250D01*
X92262671Y-65005671D01*
X92275250Y-64994269D01*
X92288886Y-64984156D01*
X92303448Y-64975428D01*
X92318796Y-64968169D01*
X92334781Y-64962449D01*
X92351249Y-64958324D01*
X92368043Y-64955833D01*
X92385000Y-64955000D01*
X92781000Y-64955000D01*
X92797957Y-64955833D01*
G37*
G36*
X92797957Y-65925833D02*
G01*
X92814751Y-65928324D01*
X92831219Y-65932449D01*
X92847204Y-65938169D01*
X92862552Y-65945428D01*
X92877114Y-65954156D01*
X92890750Y-65964269D01*
X92903329Y-65975671D01*
X92914731Y-65988250D01*
X92924844Y-66001886D01*
X92933572Y-66016448D01*
X92940831Y-66031796D01*
X92946551Y-66047781D01*
X92950676Y-66064249D01*
X92953167Y-66081043D01*
X92954000Y-66098000D01*
X92954000Y-66444000D01*
X92953167Y-66460957D01*
X92950676Y-66477751D01*
X92946551Y-66494219D01*
X92940831Y-66510204D01*
X92933572Y-66525552D01*
X92924844Y-66540114D01*
X92914731Y-66553750D01*
X92903329Y-66566329D01*
X92890750Y-66577731D01*
X92877114Y-66587844D01*
X92862552Y-66596572D01*
X92847204Y-66603831D01*
X92831219Y-66609551D01*
X92814751Y-66613676D01*
X92797957Y-66616167D01*
X92781000Y-66617000D01*
X92385000Y-66617000D01*
X92368043Y-66616167D01*
X92351249Y-66613676D01*
X92334781Y-66609551D01*
X92318796Y-66603831D01*
X92303448Y-66596572D01*
X92288886Y-66587844D01*
X92275250Y-66577731D01*
X92262671Y-66566329D01*
X92251269Y-66553750D01*
X92241156Y-66540114D01*
X92232428Y-66525552D01*
X92225169Y-66510204D01*
X92219449Y-66494219D01*
X92215324Y-66477751D01*
X92212833Y-66460957D01*
X92212000Y-66444000D01*
X92212000Y-66098000D01*
X92212833Y-66081043D01*
X92215324Y-66064249D01*
X92219449Y-66047781D01*
X92225169Y-66031796D01*
X92232428Y-66016448D01*
X92241156Y-66001886D01*
X92251269Y-65988250D01*
X92262671Y-65975671D01*
X92275250Y-65964269D01*
X92288886Y-65954156D01*
X92303448Y-65945428D01*
X92318796Y-65938169D01*
X92334781Y-65932449D01*
X92351249Y-65928324D01*
X92368043Y-65925833D01*
X92385000Y-65925000D01*
X92781000Y-65925000D01*
X92797957Y-65925833D01*
G37*
G36*
X90638957Y-63639833D02*
G01*
X90655751Y-63642324D01*
X90672219Y-63646449D01*
X90688204Y-63652169D01*
X90703552Y-63659428D01*
X90718114Y-63668156D01*
X90731750Y-63678269D01*
X90744329Y-63689671D01*
X90755731Y-63702250D01*
X90765844Y-63715886D01*
X90774572Y-63730448D01*
X90781831Y-63745796D01*
X90787551Y-63761781D01*
X90791676Y-63778249D01*
X90794167Y-63795043D01*
X90795000Y-63812000D01*
X90795000Y-64158000D01*
X90794167Y-64174957D01*
X90791676Y-64191751D01*
X90787551Y-64208219D01*
X90781831Y-64224204D01*
X90774572Y-64239552D01*
X90765844Y-64254114D01*
X90755731Y-64267750D01*
X90744329Y-64280329D01*
X90731750Y-64291731D01*
X90718114Y-64301844D01*
X90703552Y-64310572D01*
X90688204Y-64317831D01*
X90672219Y-64323551D01*
X90655751Y-64327676D01*
X90638957Y-64330167D01*
X90622000Y-64331000D01*
X90226000Y-64331000D01*
X90209043Y-64330167D01*
X90192249Y-64327676D01*
X90175781Y-64323551D01*
X90159796Y-64317831D01*
X90144448Y-64310572D01*
X90129886Y-64301844D01*
X90116250Y-64291731D01*
X90103671Y-64280329D01*
X90092269Y-64267750D01*
X90082156Y-64254114D01*
X90073428Y-64239552D01*
X90066169Y-64224204D01*
X90060449Y-64208219D01*
X90056324Y-64191751D01*
X90053833Y-64174957D01*
X90053000Y-64158000D01*
X90053000Y-63812000D01*
X90053833Y-63795043D01*
X90056324Y-63778249D01*
X90060449Y-63761781D01*
X90066169Y-63745796D01*
X90073428Y-63730448D01*
X90082156Y-63715886D01*
X90092269Y-63702250D01*
X90103671Y-63689671D01*
X90116250Y-63678269D01*
X90129886Y-63668156D01*
X90144448Y-63659428D01*
X90159796Y-63652169D01*
X90175781Y-63646449D01*
X90192249Y-63642324D01*
X90209043Y-63639833D01*
X90226000Y-63639000D01*
X90622000Y-63639000D01*
X90638957Y-63639833D01*
G37*
G36*
X90638957Y-62669833D02*
G01*
X90655751Y-62672324D01*
X90672219Y-62676449D01*
X90688204Y-62682169D01*
X90703552Y-62689428D01*
X90718114Y-62698156D01*
X90731750Y-62708269D01*
X90744329Y-62719671D01*
X90755731Y-62732250D01*
X90765844Y-62745886D01*
X90774572Y-62760448D01*
X90781831Y-62775796D01*
X90787551Y-62791781D01*
X90791676Y-62808249D01*
X90794167Y-62825043D01*
X90795000Y-62842000D01*
X90795000Y-63188000D01*
X90794167Y-63204957D01*
X90791676Y-63221751D01*
X90787551Y-63238219D01*
X90781831Y-63254204D01*
X90774572Y-63269552D01*
X90765844Y-63284114D01*
X90755731Y-63297750D01*
X90744329Y-63310329D01*
X90731750Y-63321731D01*
X90718114Y-63331844D01*
X90703552Y-63340572D01*
X90688204Y-63347831D01*
X90672219Y-63353551D01*
X90655751Y-63357676D01*
X90638957Y-63360167D01*
X90622000Y-63361000D01*
X90226000Y-63361000D01*
X90209043Y-63360167D01*
X90192249Y-63357676D01*
X90175781Y-63353551D01*
X90159796Y-63347831D01*
X90144448Y-63340572D01*
X90129886Y-63331844D01*
X90116250Y-63321731D01*
X90103671Y-63310329D01*
X90092269Y-63297750D01*
X90082156Y-63284114D01*
X90073428Y-63269552D01*
X90066169Y-63254204D01*
X90060449Y-63238219D01*
X90056324Y-63221751D01*
X90053833Y-63204957D01*
X90053000Y-63188000D01*
X90053000Y-62842000D01*
X90053833Y-62825043D01*
X90056324Y-62808249D01*
X90060449Y-62791781D01*
X90066169Y-62775796D01*
X90073428Y-62760448D01*
X90082156Y-62745886D01*
X90092269Y-62732250D01*
X90103671Y-62719671D01*
X90116250Y-62708269D01*
X90129886Y-62698156D01*
X90144448Y-62689428D01*
X90159796Y-62682169D01*
X90175781Y-62676449D01*
X90192249Y-62672324D01*
X90209043Y-62669833D01*
X90226000Y-62669000D01*
X90622000Y-62669000D01*
X90638957Y-62669833D01*
G37*
G36*
X91716457Y-63574333D02*
G01*
X91733251Y-63576824D01*
X91749719Y-63580949D01*
X91765704Y-63586669D01*
X91781052Y-63593928D01*
X91795614Y-63602656D01*
X91809250Y-63612769D01*
X91821829Y-63624171D01*
X91833231Y-63636750D01*
X91843344Y-63650386D01*
X91852072Y-63664948D01*
X91859331Y-63680296D01*
X91865051Y-63696281D01*
X91869176Y-63712749D01*
X91871667Y-63729543D01*
X91872500Y-63746500D01*
X91872500Y-64142500D01*
X91871667Y-64159457D01*
X91869176Y-64176251D01*
X91865051Y-64192719D01*
X91859331Y-64208704D01*
X91852072Y-64224052D01*
X91843344Y-64238614D01*
X91833231Y-64252250D01*
X91821829Y-64264829D01*
X91809250Y-64276231D01*
X91795614Y-64286344D01*
X91781052Y-64295072D01*
X91765704Y-64302331D01*
X91749719Y-64308051D01*
X91733251Y-64312176D01*
X91716457Y-64314667D01*
X91699500Y-64315500D01*
X91353500Y-64315500D01*
X91336543Y-64314667D01*
X91319749Y-64312176D01*
X91303281Y-64308051D01*
X91287296Y-64302331D01*
X91271948Y-64295072D01*
X91257386Y-64286344D01*
X91243750Y-64276231D01*
X91231171Y-64264829D01*
X91219769Y-64252250D01*
X91209656Y-64238614D01*
X91200928Y-64224052D01*
X91193669Y-64208704D01*
X91187949Y-64192719D01*
X91183824Y-64176251D01*
X91181333Y-64159457D01*
X91180500Y-64142500D01*
X91180500Y-63746500D01*
X91181333Y-63729543D01*
X91183824Y-63712749D01*
X91187949Y-63696281D01*
X91193669Y-63680296D01*
X91200928Y-63664948D01*
X91209656Y-63650386D01*
X91219769Y-63636750D01*
X91231171Y-63624171D01*
X91243750Y-63612769D01*
X91257386Y-63602656D01*
X91271948Y-63593928D01*
X91287296Y-63586669D01*
X91303281Y-63580949D01*
X91319749Y-63576824D01*
X91336543Y-63574333D01*
X91353500Y-63573500D01*
X91699500Y-63573500D01*
X91716457Y-63574333D01*
G37*
G36*
X92686457Y-63574333D02*
G01*
X92703251Y-63576824D01*
X92719719Y-63580949D01*
X92735704Y-63586669D01*
X92751052Y-63593928D01*
X92765614Y-63602656D01*
X92779250Y-63612769D01*
X92791829Y-63624171D01*
X92803231Y-63636750D01*
X92813344Y-63650386D01*
X92822072Y-63664948D01*
X92829331Y-63680296D01*
X92835051Y-63696281D01*
X92839176Y-63712749D01*
X92841667Y-63729543D01*
X92842500Y-63746500D01*
X92842500Y-64142500D01*
X92841667Y-64159457D01*
X92839176Y-64176251D01*
X92835051Y-64192719D01*
X92829331Y-64208704D01*
X92822072Y-64224052D01*
X92813344Y-64238614D01*
X92803231Y-64252250D01*
X92791829Y-64264829D01*
X92779250Y-64276231D01*
X92765614Y-64286344D01*
X92751052Y-64295072D01*
X92735704Y-64302331D01*
X92719719Y-64308051D01*
X92703251Y-64312176D01*
X92686457Y-64314667D01*
X92669500Y-64315500D01*
X92323500Y-64315500D01*
X92306543Y-64314667D01*
X92289749Y-64312176D01*
X92273281Y-64308051D01*
X92257296Y-64302331D01*
X92241948Y-64295072D01*
X92227386Y-64286344D01*
X92213750Y-64276231D01*
X92201171Y-64264829D01*
X92189769Y-64252250D01*
X92179656Y-64238614D01*
X92170928Y-64224052D01*
X92163669Y-64208704D01*
X92157949Y-64192719D01*
X92153824Y-64176251D01*
X92151333Y-64159457D01*
X92150500Y-64142500D01*
X92150500Y-63746500D01*
X92151333Y-63729543D01*
X92153824Y-63712749D01*
X92157949Y-63696281D01*
X92163669Y-63680296D01*
X92170928Y-63664948D01*
X92179656Y-63650386D01*
X92189769Y-63636750D01*
X92201171Y-63624171D01*
X92213750Y-63612769D01*
X92227386Y-63602656D01*
X92241948Y-63593928D01*
X92257296Y-63586669D01*
X92273281Y-63580949D01*
X92289749Y-63576824D01*
X92306543Y-63574333D01*
X92323500Y-63573500D01*
X92669500Y-63573500D01*
X92686457Y-63574333D01*
G37*
D22*
X91694000Y-72390000D03*
D23*
X91694000Y-68580000D03*
D16*
X83165200Y-41148000D03*
X81165200Y-41148000D03*
X79165200Y-41148000D03*
D17*
X77165200Y-41148000D03*
D22*
X72000000Y-76464000D03*
D23*
X72000000Y-80274000D03*
D22*
X88000000Y-80264000D03*
D23*
X88000000Y-76454000D03*
D22*
X88000000Y-45161200D03*
D23*
X88000000Y-41351200D03*
D22*
X72000000Y-41361200D03*
D23*
X72000000Y-45171200D03*
D24*
X87376000Y-72644000D03*
D25*
X88876000Y-71644000D03*
X88876000Y-72044000D03*
X88876000Y-72444000D03*
X88876000Y-72844000D03*
X88876000Y-73244000D03*
X88876000Y-73644000D03*
X85876000Y-73644000D03*
X85876000Y-73244000D03*
X85876000Y-72844000D03*
X85876000Y-72444000D03*
X85876000Y-72044000D03*
X85876000Y-71644000D03*
D26*
X75946000Y-78486000D03*
D27*
X76996000Y-77736000D03*
X76996000Y-78236000D03*
X76996000Y-78736000D03*
X76996000Y-79236000D03*
X74896000Y-79236000D03*
X74896000Y-78736000D03*
X74896000Y-78236000D03*
X74896000Y-77736000D03*
D26*
X84074000Y-78486000D03*
D27*
X83024000Y-79236000D03*
X83024000Y-78736000D03*
X83024000Y-78236000D03*
X83024000Y-77736000D03*
X85124000Y-77736000D03*
X85124000Y-78236000D03*
X85124000Y-78736000D03*
X85124000Y-79236000D03*
D26*
X84328000Y-43942000D03*
D27*
X83278000Y-44692000D03*
X83278000Y-44192000D03*
X83278000Y-43692000D03*
X83278000Y-43192000D03*
X85378000Y-43192000D03*
X85378000Y-43692000D03*
X85378000Y-44192000D03*
X85378000Y-44692000D03*
D26*
X75692000Y-44013000D03*
D27*
X76742000Y-43263000D03*
X76742000Y-43763000D03*
X76742000Y-44263000D03*
X76742000Y-44763000D03*
X74642000Y-44763000D03*
X74642000Y-44263000D03*
X74642000Y-43763000D03*
X74642000Y-43263000D03*
D28*
X73700000Y-95798800D03*
X73700000Y-94398800D03*
X73700000Y-92998800D03*
X73700000Y-91598800D03*
X73700000Y-90198800D03*
X73700000Y-88798800D03*
X73700000Y-87400000D03*
X73700000Y-86000000D03*
D29*
X75100000Y-83703800D03*
X76500000Y-83703800D03*
X77900000Y-83703800D03*
X79300000Y-83703800D03*
X80700000Y-83703800D03*
X82100000Y-83703800D03*
X83500000Y-83703800D03*
X84900000Y-83703800D03*
D28*
X86300000Y-85998800D03*
X86300000Y-87398800D03*
X86300000Y-88798800D03*
X86300000Y-90198800D03*
X86300000Y-91598800D03*
X86300000Y-92998800D03*
X86300000Y-94398800D03*
X86300000Y-95798800D03*
D11*
G36*
X83224957Y-81036833D02*
G01*
X83241751Y-81039324D01*
X83258219Y-81043449D01*
X83274204Y-81049169D01*
X83289552Y-81056428D01*
X83304114Y-81065156D01*
X83317750Y-81075269D01*
X83330329Y-81086671D01*
X83341731Y-81099250D01*
X83351844Y-81112886D01*
X83360572Y-81127448D01*
X83367831Y-81142796D01*
X83373551Y-81158781D01*
X83377676Y-81175249D01*
X83380167Y-81192043D01*
X83381000Y-81209000D01*
X83381000Y-81605000D01*
X83380167Y-81621957D01*
X83377676Y-81638751D01*
X83373551Y-81655219D01*
X83367831Y-81671204D01*
X83360572Y-81686552D01*
X83351844Y-81701114D01*
X83341731Y-81714750D01*
X83330329Y-81727329D01*
X83317750Y-81738731D01*
X83304114Y-81748844D01*
X83289552Y-81757572D01*
X83274204Y-81764831D01*
X83258219Y-81770551D01*
X83241751Y-81774676D01*
X83224957Y-81777167D01*
X83208000Y-81778000D01*
X82862000Y-81778000D01*
X82845043Y-81777167D01*
X82828249Y-81774676D01*
X82811781Y-81770551D01*
X82795796Y-81764831D01*
X82780448Y-81757572D01*
X82765886Y-81748844D01*
X82752250Y-81738731D01*
X82739671Y-81727329D01*
X82728269Y-81714750D01*
X82718156Y-81701114D01*
X82709428Y-81686552D01*
X82702169Y-81671204D01*
X82696449Y-81655219D01*
X82692324Y-81638751D01*
X82689833Y-81621957D01*
X82689000Y-81605000D01*
X82689000Y-81209000D01*
X82689833Y-81192043D01*
X82692324Y-81175249D01*
X82696449Y-81158781D01*
X82702169Y-81142796D01*
X82709428Y-81127448D01*
X82718156Y-81112886D01*
X82728269Y-81099250D01*
X82739671Y-81086671D01*
X82752250Y-81075269D01*
X82765886Y-81065156D01*
X82780448Y-81056428D01*
X82795796Y-81049169D01*
X82811781Y-81043449D01*
X82828249Y-81039324D01*
X82845043Y-81036833D01*
X82862000Y-81036000D01*
X83208000Y-81036000D01*
X83224957Y-81036833D01*
G37*
G36*
X82254957Y-81036833D02*
G01*
X82271751Y-81039324D01*
X82288219Y-81043449D01*
X82304204Y-81049169D01*
X82319552Y-81056428D01*
X82334114Y-81065156D01*
X82347750Y-81075269D01*
X82360329Y-81086671D01*
X82371731Y-81099250D01*
X82381844Y-81112886D01*
X82390572Y-81127448D01*
X82397831Y-81142796D01*
X82403551Y-81158781D01*
X82407676Y-81175249D01*
X82410167Y-81192043D01*
X82411000Y-81209000D01*
X82411000Y-81605000D01*
X82410167Y-81621957D01*
X82407676Y-81638751D01*
X82403551Y-81655219D01*
X82397831Y-81671204D01*
X82390572Y-81686552D01*
X82381844Y-81701114D01*
X82371731Y-81714750D01*
X82360329Y-81727329D01*
X82347750Y-81738731D01*
X82334114Y-81748844D01*
X82319552Y-81757572D01*
X82304204Y-81764831D01*
X82288219Y-81770551D01*
X82271751Y-81774676D01*
X82254957Y-81777167D01*
X82238000Y-81778000D01*
X81892000Y-81778000D01*
X81875043Y-81777167D01*
X81858249Y-81774676D01*
X81841781Y-81770551D01*
X81825796Y-81764831D01*
X81810448Y-81757572D01*
X81795886Y-81748844D01*
X81782250Y-81738731D01*
X81769671Y-81727329D01*
X81758269Y-81714750D01*
X81748156Y-81701114D01*
X81739428Y-81686552D01*
X81732169Y-81671204D01*
X81726449Y-81655219D01*
X81722324Y-81638751D01*
X81719833Y-81621957D01*
X81719000Y-81605000D01*
X81719000Y-81209000D01*
X81719833Y-81192043D01*
X81722324Y-81175249D01*
X81726449Y-81158781D01*
X81732169Y-81142796D01*
X81739428Y-81127448D01*
X81748156Y-81112886D01*
X81758269Y-81099250D01*
X81769671Y-81086671D01*
X81782250Y-81075269D01*
X81795886Y-81065156D01*
X81810448Y-81056428D01*
X81825796Y-81049169D01*
X81841781Y-81043449D01*
X81858249Y-81039324D01*
X81875043Y-81036833D01*
X81892000Y-81036000D01*
X82238000Y-81036000D01*
X82254957Y-81036833D01*
G37*
G36*
X73874957Y-71813833D02*
G01*
X73891751Y-71816324D01*
X73908219Y-71820449D01*
X73924204Y-71826169D01*
X73939552Y-71833428D01*
X73954114Y-71842156D01*
X73967750Y-71852269D01*
X73980329Y-71863671D01*
X73991731Y-71876250D01*
X74001844Y-71889886D01*
X74010572Y-71904448D01*
X74017831Y-71919796D01*
X74023551Y-71935781D01*
X74027676Y-71952249D01*
X74030167Y-71969043D01*
X74031000Y-71986000D01*
X74031000Y-72332000D01*
X74030167Y-72348957D01*
X74027676Y-72365751D01*
X74023551Y-72382219D01*
X74017831Y-72398204D01*
X74010572Y-72413552D01*
X74001844Y-72428114D01*
X73991731Y-72441750D01*
X73980329Y-72454329D01*
X73967750Y-72465731D01*
X73954114Y-72475844D01*
X73939552Y-72484572D01*
X73924204Y-72491831D01*
X73908219Y-72497551D01*
X73891751Y-72501676D01*
X73874957Y-72504167D01*
X73858000Y-72505000D01*
X73462000Y-72505000D01*
X73445043Y-72504167D01*
X73428249Y-72501676D01*
X73411781Y-72497551D01*
X73395796Y-72491831D01*
X73380448Y-72484572D01*
X73365886Y-72475844D01*
X73352250Y-72465731D01*
X73339671Y-72454329D01*
X73328269Y-72441750D01*
X73318156Y-72428114D01*
X73309428Y-72413552D01*
X73302169Y-72398204D01*
X73296449Y-72382219D01*
X73292324Y-72365751D01*
X73289833Y-72348957D01*
X73289000Y-72332000D01*
X73289000Y-71986000D01*
X73289833Y-71969043D01*
X73292324Y-71952249D01*
X73296449Y-71935781D01*
X73302169Y-71919796D01*
X73309428Y-71904448D01*
X73318156Y-71889886D01*
X73328269Y-71876250D01*
X73339671Y-71863671D01*
X73352250Y-71852269D01*
X73365886Y-71842156D01*
X73380448Y-71833428D01*
X73395796Y-71826169D01*
X73411781Y-71820449D01*
X73428249Y-71816324D01*
X73445043Y-71813833D01*
X73462000Y-71813000D01*
X73858000Y-71813000D01*
X73874957Y-71813833D01*
G37*
G36*
X73874957Y-72783833D02*
G01*
X73891751Y-72786324D01*
X73908219Y-72790449D01*
X73924204Y-72796169D01*
X73939552Y-72803428D01*
X73954114Y-72812156D01*
X73967750Y-72822269D01*
X73980329Y-72833671D01*
X73991731Y-72846250D01*
X74001844Y-72859886D01*
X74010572Y-72874448D01*
X74017831Y-72889796D01*
X74023551Y-72905781D01*
X74027676Y-72922249D01*
X74030167Y-72939043D01*
X74031000Y-72956000D01*
X74031000Y-73302000D01*
X74030167Y-73318957D01*
X74027676Y-73335751D01*
X74023551Y-73352219D01*
X74017831Y-73368204D01*
X74010572Y-73383552D01*
X74001844Y-73398114D01*
X73991731Y-73411750D01*
X73980329Y-73424329D01*
X73967750Y-73435731D01*
X73954114Y-73445844D01*
X73939552Y-73454572D01*
X73924204Y-73461831D01*
X73908219Y-73467551D01*
X73891751Y-73471676D01*
X73874957Y-73474167D01*
X73858000Y-73475000D01*
X73462000Y-73475000D01*
X73445043Y-73474167D01*
X73428249Y-73471676D01*
X73411781Y-73467551D01*
X73395796Y-73461831D01*
X73380448Y-73454572D01*
X73365886Y-73445844D01*
X73352250Y-73435731D01*
X73339671Y-73424329D01*
X73328269Y-73411750D01*
X73318156Y-73398114D01*
X73309428Y-73383552D01*
X73302169Y-73368204D01*
X73296449Y-73352219D01*
X73292324Y-73335751D01*
X73289833Y-73318957D01*
X73289000Y-73302000D01*
X73289000Y-72956000D01*
X73289833Y-72939043D01*
X73292324Y-72922249D01*
X73296449Y-72905781D01*
X73302169Y-72889796D01*
X73309428Y-72874448D01*
X73318156Y-72859886D01*
X73328269Y-72846250D01*
X73339671Y-72833671D01*
X73352250Y-72822269D01*
X73365886Y-72812156D01*
X73380448Y-72803428D01*
X73395796Y-72796169D01*
X73411781Y-72790449D01*
X73428249Y-72786324D01*
X73445043Y-72783833D01*
X73462000Y-72783000D01*
X73858000Y-72783000D01*
X73874957Y-72783833D01*
G37*
G36*
X80478957Y-71305833D02*
G01*
X80495751Y-71308324D01*
X80512219Y-71312449D01*
X80528204Y-71318169D01*
X80543552Y-71325428D01*
X80558114Y-71334156D01*
X80571750Y-71344269D01*
X80584329Y-71355671D01*
X80595731Y-71368250D01*
X80605844Y-71381886D01*
X80614572Y-71396448D01*
X80621831Y-71411796D01*
X80627551Y-71427781D01*
X80631676Y-71444249D01*
X80634167Y-71461043D01*
X80635000Y-71478000D01*
X80635000Y-71824000D01*
X80634167Y-71840957D01*
X80631676Y-71857751D01*
X80627551Y-71874219D01*
X80621831Y-71890204D01*
X80614572Y-71905552D01*
X80605844Y-71920114D01*
X80595731Y-71933750D01*
X80584329Y-71946329D01*
X80571750Y-71957731D01*
X80558114Y-71967844D01*
X80543552Y-71976572D01*
X80528204Y-71983831D01*
X80512219Y-71989551D01*
X80495751Y-71993676D01*
X80478957Y-71996167D01*
X80462000Y-71997000D01*
X80066000Y-71997000D01*
X80049043Y-71996167D01*
X80032249Y-71993676D01*
X80015781Y-71989551D01*
X79999796Y-71983831D01*
X79984448Y-71976572D01*
X79969886Y-71967844D01*
X79956250Y-71957731D01*
X79943671Y-71946329D01*
X79932269Y-71933750D01*
X79922156Y-71920114D01*
X79913428Y-71905552D01*
X79906169Y-71890204D01*
X79900449Y-71874219D01*
X79896324Y-71857751D01*
X79893833Y-71840957D01*
X79893000Y-71824000D01*
X79893000Y-71478000D01*
X79893833Y-71461043D01*
X79896324Y-71444249D01*
X79900449Y-71427781D01*
X79906169Y-71411796D01*
X79913428Y-71396448D01*
X79922156Y-71381886D01*
X79932269Y-71368250D01*
X79943671Y-71355671D01*
X79956250Y-71344269D01*
X79969886Y-71334156D01*
X79984448Y-71325428D01*
X79999796Y-71318169D01*
X80015781Y-71312449D01*
X80032249Y-71308324D01*
X80049043Y-71305833D01*
X80066000Y-71305000D01*
X80462000Y-71305000D01*
X80478957Y-71305833D01*
G37*
G36*
X80478957Y-72275833D02*
G01*
X80495751Y-72278324D01*
X80512219Y-72282449D01*
X80528204Y-72288169D01*
X80543552Y-72295428D01*
X80558114Y-72304156D01*
X80571750Y-72314269D01*
X80584329Y-72325671D01*
X80595731Y-72338250D01*
X80605844Y-72351886D01*
X80614572Y-72366448D01*
X80621831Y-72381796D01*
X80627551Y-72397781D01*
X80631676Y-72414249D01*
X80634167Y-72431043D01*
X80635000Y-72448000D01*
X80635000Y-72794000D01*
X80634167Y-72810957D01*
X80631676Y-72827751D01*
X80627551Y-72844219D01*
X80621831Y-72860204D01*
X80614572Y-72875552D01*
X80605844Y-72890114D01*
X80595731Y-72903750D01*
X80584329Y-72916329D01*
X80571750Y-72927731D01*
X80558114Y-72937844D01*
X80543552Y-72946572D01*
X80528204Y-72953831D01*
X80512219Y-72959551D01*
X80495751Y-72963676D01*
X80478957Y-72966167D01*
X80462000Y-72967000D01*
X80066000Y-72967000D01*
X80049043Y-72966167D01*
X80032249Y-72963676D01*
X80015781Y-72959551D01*
X79999796Y-72953831D01*
X79984448Y-72946572D01*
X79969886Y-72937844D01*
X79956250Y-72927731D01*
X79943671Y-72916329D01*
X79932269Y-72903750D01*
X79922156Y-72890114D01*
X79913428Y-72875552D01*
X79906169Y-72860204D01*
X79900449Y-72844219D01*
X79896324Y-72827751D01*
X79893833Y-72810957D01*
X79893000Y-72794000D01*
X79893000Y-72448000D01*
X79893833Y-72431043D01*
X79896324Y-72414249D01*
X79900449Y-72397781D01*
X79906169Y-72381796D01*
X79913428Y-72366448D01*
X79922156Y-72351886D01*
X79932269Y-72338250D01*
X79943671Y-72325671D01*
X79956250Y-72314269D01*
X79969886Y-72304156D01*
X79984448Y-72295428D01*
X79999796Y-72288169D01*
X80015781Y-72282449D01*
X80032249Y-72278324D01*
X80049043Y-72275833D01*
X80066000Y-72275000D01*
X80462000Y-72275000D01*
X80478957Y-72275833D01*
G37*
G36*
X83399957Y-45461333D02*
G01*
X83416751Y-45463824D01*
X83433219Y-45467949D01*
X83449204Y-45473669D01*
X83464552Y-45480928D01*
X83479114Y-45489656D01*
X83492750Y-45499769D01*
X83505329Y-45511171D01*
X83516731Y-45523750D01*
X83526844Y-45537386D01*
X83535572Y-45551948D01*
X83542831Y-45567296D01*
X83548551Y-45583281D01*
X83552676Y-45599749D01*
X83555167Y-45616543D01*
X83556000Y-45633500D01*
X83556000Y-45979500D01*
X83555167Y-45996457D01*
X83552676Y-46013251D01*
X83548551Y-46029719D01*
X83542831Y-46045704D01*
X83535572Y-46061052D01*
X83526844Y-46075614D01*
X83516731Y-46089250D01*
X83505329Y-46101829D01*
X83492750Y-46113231D01*
X83479114Y-46123344D01*
X83464552Y-46132072D01*
X83449204Y-46139331D01*
X83433219Y-46145051D01*
X83416751Y-46149176D01*
X83399957Y-46151667D01*
X83383000Y-46152500D01*
X82987000Y-46152500D01*
X82970043Y-46151667D01*
X82953249Y-46149176D01*
X82936781Y-46145051D01*
X82920796Y-46139331D01*
X82905448Y-46132072D01*
X82890886Y-46123344D01*
X82877250Y-46113231D01*
X82864671Y-46101829D01*
X82853269Y-46089250D01*
X82843156Y-46075614D01*
X82834428Y-46061052D01*
X82827169Y-46045704D01*
X82821449Y-46029719D01*
X82817324Y-46013251D01*
X82814833Y-45996457D01*
X82814000Y-45979500D01*
X82814000Y-45633500D01*
X82814833Y-45616543D01*
X82817324Y-45599749D01*
X82821449Y-45583281D01*
X82827169Y-45567296D01*
X82834428Y-45551948D01*
X82843156Y-45537386D01*
X82853269Y-45523750D01*
X82864671Y-45511171D01*
X82877250Y-45499769D01*
X82890886Y-45489656D01*
X82905448Y-45480928D01*
X82920796Y-45473669D01*
X82936781Y-45467949D01*
X82953249Y-45463824D01*
X82970043Y-45461333D01*
X82987000Y-45460500D01*
X83383000Y-45460500D01*
X83399957Y-45461333D01*
G37*
G36*
X83399957Y-46431333D02*
G01*
X83416751Y-46433824D01*
X83433219Y-46437949D01*
X83449204Y-46443669D01*
X83464552Y-46450928D01*
X83479114Y-46459656D01*
X83492750Y-46469769D01*
X83505329Y-46481171D01*
X83516731Y-46493750D01*
X83526844Y-46507386D01*
X83535572Y-46521948D01*
X83542831Y-46537296D01*
X83548551Y-46553281D01*
X83552676Y-46569749D01*
X83555167Y-46586543D01*
X83556000Y-46603500D01*
X83556000Y-46949500D01*
X83555167Y-46966457D01*
X83552676Y-46983251D01*
X83548551Y-46999719D01*
X83542831Y-47015704D01*
X83535572Y-47031052D01*
X83526844Y-47045614D01*
X83516731Y-47059250D01*
X83505329Y-47071829D01*
X83492750Y-47083231D01*
X83479114Y-47093344D01*
X83464552Y-47102072D01*
X83449204Y-47109331D01*
X83433219Y-47115051D01*
X83416751Y-47119176D01*
X83399957Y-47121667D01*
X83383000Y-47122500D01*
X82987000Y-47122500D01*
X82970043Y-47121667D01*
X82953249Y-47119176D01*
X82936781Y-47115051D01*
X82920796Y-47109331D01*
X82905448Y-47102072D01*
X82890886Y-47093344D01*
X82877250Y-47083231D01*
X82864671Y-47071829D01*
X82853269Y-47059250D01*
X82843156Y-47045614D01*
X82834428Y-47031052D01*
X82827169Y-47015704D01*
X82821449Y-46999719D01*
X82817324Y-46983251D01*
X82814833Y-46966457D01*
X82814000Y-46949500D01*
X82814000Y-46603500D01*
X82814833Y-46586543D01*
X82817324Y-46569749D01*
X82821449Y-46553281D01*
X82827169Y-46537296D01*
X82834428Y-46521948D01*
X82843156Y-46507386D01*
X82853269Y-46493750D01*
X82864671Y-46481171D01*
X82877250Y-46469769D01*
X82890886Y-46459656D01*
X82905448Y-46450928D01*
X82920796Y-46443669D01*
X82936781Y-46437949D01*
X82953249Y-46433824D01*
X82970043Y-46431333D01*
X82987000Y-46430500D01*
X83383000Y-46430500D01*
X83399957Y-46431333D01*
G37*
G36*
X83224957Y-80020833D02*
G01*
X83241751Y-80023324D01*
X83258219Y-80027449D01*
X83274204Y-80033169D01*
X83289552Y-80040428D01*
X83304114Y-80049156D01*
X83317750Y-80059269D01*
X83330329Y-80070671D01*
X83341731Y-80083250D01*
X83351844Y-80096886D01*
X83360572Y-80111448D01*
X83367831Y-80126796D01*
X83373551Y-80142781D01*
X83377676Y-80159249D01*
X83380167Y-80176043D01*
X83381000Y-80193000D01*
X83381000Y-80589000D01*
X83380167Y-80605957D01*
X83377676Y-80622751D01*
X83373551Y-80639219D01*
X83367831Y-80655204D01*
X83360572Y-80670552D01*
X83351844Y-80685114D01*
X83341731Y-80698750D01*
X83330329Y-80711329D01*
X83317750Y-80722731D01*
X83304114Y-80732844D01*
X83289552Y-80741572D01*
X83274204Y-80748831D01*
X83258219Y-80754551D01*
X83241751Y-80758676D01*
X83224957Y-80761167D01*
X83208000Y-80762000D01*
X82862000Y-80762000D01*
X82845043Y-80761167D01*
X82828249Y-80758676D01*
X82811781Y-80754551D01*
X82795796Y-80748831D01*
X82780448Y-80741572D01*
X82765886Y-80732844D01*
X82752250Y-80722731D01*
X82739671Y-80711329D01*
X82728269Y-80698750D01*
X82718156Y-80685114D01*
X82709428Y-80670552D01*
X82702169Y-80655204D01*
X82696449Y-80639219D01*
X82692324Y-80622751D01*
X82689833Y-80605957D01*
X82689000Y-80589000D01*
X82689000Y-80193000D01*
X82689833Y-80176043D01*
X82692324Y-80159249D01*
X82696449Y-80142781D01*
X82702169Y-80126796D01*
X82709428Y-80111448D01*
X82718156Y-80096886D01*
X82728269Y-80083250D01*
X82739671Y-80070671D01*
X82752250Y-80059269D01*
X82765886Y-80049156D01*
X82780448Y-80040428D01*
X82795796Y-80033169D01*
X82811781Y-80027449D01*
X82828249Y-80023324D01*
X82845043Y-80020833D01*
X82862000Y-80020000D01*
X83208000Y-80020000D01*
X83224957Y-80020833D01*
G37*
G36*
X82254957Y-80020833D02*
G01*
X82271751Y-80023324D01*
X82288219Y-80027449D01*
X82304204Y-80033169D01*
X82319552Y-80040428D01*
X82334114Y-80049156D01*
X82347750Y-80059269D01*
X82360329Y-80070671D01*
X82371731Y-80083250D01*
X82381844Y-80096886D01*
X82390572Y-80111448D01*
X82397831Y-80126796D01*
X82403551Y-80142781D01*
X82407676Y-80159249D01*
X82410167Y-80176043D01*
X82411000Y-80193000D01*
X82411000Y-80589000D01*
X82410167Y-80605957D01*
X82407676Y-80622751D01*
X82403551Y-80639219D01*
X82397831Y-80655204D01*
X82390572Y-80670552D01*
X82381844Y-80685114D01*
X82371731Y-80698750D01*
X82360329Y-80711329D01*
X82347750Y-80722731D01*
X82334114Y-80732844D01*
X82319552Y-80741572D01*
X82304204Y-80748831D01*
X82288219Y-80754551D01*
X82271751Y-80758676D01*
X82254957Y-80761167D01*
X82238000Y-80762000D01*
X81892000Y-80762000D01*
X81875043Y-80761167D01*
X81858249Y-80758676D01*
X81841781Y-80754551D01*
X81825796Y-80748831D01*
X81810448Y-80741572D01*
X81795886Y-80732844D01*
X81782250Y-80722731D01*
X81769671Y-80711329D01*
X81758269Y-80698750D01*
X81748156Y-80685114D01*
X81739428Y-80670552D01*
X81732169Y-80655204D01*
X81726449Y-80639219D01*
X81722324Y-80622751D01*
X81719833Y-80605957D01*
X81719000Y-80589000D01*
X81719000Y-80193000D01*
X81719833Y-80176043D01*
X81722324Y-80159249D01*
X81726449Y-80142781D01*
X81732169Y-80126796D01*
X81739428Y-80111448D01*
X81748156Y-80096886D01*
X81758269Y-80083250D01*
X81769671Y-80070671D01*
X81782250Y-80059269D01*
X81795886Y-80049156D01*
X81810448Y-80040428D01*
X81825796Y-80033169D01*
X81841781Y-80027449D01*
X81858249Y-80023324D01*
X81875043Y-80020833D01*
X81892000Y-80020000D01*
X82238000Y-80020000D01*
X82254957Y-80020833D01*
G37*
G36*
X77174957Y-76210833D02*
G01*
X77191751Y-76213324D01*
X77208219Y-76217449D01*
X77224204Y-76223169D01*
X77239552Y-76230428D01*
X77254114Y-76239156D01*
X77267750Y-76249269D01*
X77280329Y-76260671D01*
X77291731Y-76273250D01*
X77301844Y-76286886D01*
X77310572Y-76301448D01*
X77317831Y-76316796D01*
X77323551Y-76332781D01*
X77327676Y-76349249D01*
X77330167Y-76366043D01*
X77331000Y-76383000D01*
X77331000Y-76779000D01*
X77330167Y-76795957D01*
X77327676Y-76812751D01*
X77323551Y-76829219D01*
X77317831Y-76845204D01*
X77310572Y-76860552D01*
X77301844Y-76875114D01*
X77291731Y-76888750D01*
X77280329Y-76901329D01*
X77267750Y-76912731D01*
X77254114Y-76922844D01*
X77239552Y-76931572D01*
X77224204Y-76938831D01*
X77208219Y-76944551D01*
X77191751Y-76948676D01*
X77174957Y-76951167D01*
X77158000Y-76952000D01*
X76812000Y-76952000D01*
X76795043Y-76951167D01*
X76778249Y-76948676D01*
X76761781Y-76944551D01*
X76745796Y-76938831D01*
X76730448Y-76931572D01*
X76715886Y-76922844D01*
X76702250Y-76912731D01*
X76689671Y-76901329D01*
X76678269Y-76888750D01*
X76668156Y-76875114D01*
X76659428Y-76860552D01*
X76652169Y-76845204D01*
X76646449Y-76829219D01*
X76642324Y-76812751D01*
X76639833Y-76795957D01*
X76639000Y-76779000D01*
X76639000Y-76383000D01*
X76639833Y-76366043D01*
X76642324Y-76349249D01*
X76646449Y-76332781D01*
X76652169Y-76316796D01*
X76659428Y-76301448D01*
X76668156Y-76286886D01*
X76678269Y-76273250D01*
X76689671Y-76260671D01*
X76702250Y-76249269D01*
X76715886Y-76239156D01*
X76730448Y-76230428D01*
X76745796Y-76223169D01*
X76761781Y-76217449D01*
X76778249Y-76213324D01*
X76795043Y-76210833D01*
X76812000Y-76210000D01*
X77158000Y-76210000D01*
X77174957Y-76210833D01*
G37*
G36*
X78144957Y-76210833D02*
G01*
X78161751Y-76213324D01*
X78178219Y-76217449D01*
X78194204Y-76223169D01*
X78209552Y-76230428D01*
X78224114Y-76239156D01*
X78237750Y-76249269D01*
X78250329Y-76260671D01*
X78261731Y-76273250D01*
X78271844Y-76286886D01*
X78280572Y-76301448D01*
X78287831Y-76316796D01*
X78293551Y-76332781D01*
X78297676Y-76349249D01*
X78300167Y-76366043D01*
X78301000Y-76383000D01*
X78301000Y-76779000D01*
X78300167Y-76795957D01*
X78297676Y-76812751D01*
X78293551Y-76829219D01*
X78287831Y-76845204D01*
X78280572Y-76860552D01*
X78271844Y-76875114D01*
X78261731Y-76888750D01*
X78250329Y-76901329D01*
X78237750Y-76912731D01*
X78224114Y-76922844D01*
X78209552Y-76931572D01*
X78194204Y-76938831D01*
X78178219Y-76944551D01*
X78161751Y-76948676D01*
X78144957Y-76951167D01*
X78128000Y-76952000D01*
X77782000Y-76952000D01*
X77765043Y-76951167D01*
X77748249Y-76948676D01*
X77731781Y-76944551D01*
X77715796Y-76938831D01*
X77700448Y-76931572D01*
X77685886Y-76922844D01*
X77672250Y-76912731D01*
X77659671Y-76901329D01*
X77648269Y-76888750D01*
X77638156Y-76875114D01*
X77629428Y-76860552D01*
X77622169Y-76845204D01*
X77616449Y-76829219D01*
X77612324Y-76812751D01*
X77609833Y-76795957D01*
X77609000Y-76779000D01*
X77609000Y-76383000D01*
X77609833Y-76366043D01*
X77612324Y-76349249D01*
X77616449Y-76332781D01*
X77622169Y-76316796D01*
X77629428Y-76301448D01*
X77638156Y-76286886D01*
X77648269Y-76273250D01*
X77659671Y-76260671D01*
X77672250Y-76249269D01*
X77685886Y-76239156D01*
X77700448Y-76230428D01*
X77715796Y-76223169D01*
X77731781Y-76217449D01*
X77748249Y-76213324D01*
X77765043Y-76210833D01*
X77782000Y-76210000D01*
X78128000Y-76210000D01*
X78144957Y-76210833D01*
G37*
G36*
X72856957Y-70368833D02*
G01*
X72873751Y-70371324D01*
X72890219Y-70375449D01*
X72906204Y-70381169D01*
X72921552Y-70388428D01*
X72936114Y-70397156D01*
X72949750Y-70407269D01*
X72962329Y-70418671D01*
X72973731Y-70431250D01*
X72983844Y-70444886D01*
X72992572Y-70459448D01*
X72999831Y-70474796D01*
X73005551Y-70490781D01*
X73009676Y-70507249D01*
X73012167Y-70524043D01*
X73013000Y-70541000D01*
X73013000Y-70937000D01*
X73012167Y-70953957D01*
X73009676Y-70970751D01*
X73005551Y-70987219D01*
X72999831Y-71003204D01*
X72992572Y-71018552D01*
X72983844Y-71033114D01*
X72973731Y-71046750D01*
X72962329Y-71059329D01*
X72949750Y-71070731D01*
X72936114Y-71080844D01*
X72921552Y-71089572D01*
X72906204Y-71096831D01*
X72890219Y-71102551D01*
X72873751Y-71106676D01*
X72856957Y-71109167D01*
X72840000Y-71110000D01*
X72494000Y-71110000D01*
X72477043Y-71109167D01*
X72460249Y-71106676D01*
X72443781Y-71102551D01*
X72427796Y-71096831D01*
X72412448Y-71089572D01*
X72397886Y-71080844D01*
X72384250Y-71070731D01*
X72371671Y-71059329D01*
X72360269Y-71046750D01*
X72350156Y-71033114D01*
X72341428Y-71018552D01*
X72334169Y-71003204D01*
X72328449Y-70987219D01*
X72324324Y-70970751D01*
X72321833Y-70953957D01*
X72321000Y-70937000D01*
X72321000Y-70541000D01*
X72321833Y-70524043D01*
X72324324Y-70507249D01*
X72328449Y-70490781D01*
X72334169Y-70474796D01*
X72341428Y-70459448D01*
X72350156Y-70444886D01*
X72360269Y-70431250D01*
X72371671Y-70418671D01*
X72384250Y-70407269D01*
X72397886Y-70397156D01*
X72412448Y-70388428D01*
X72427796Y-70381169D01*
X72443781Y-70375449D01*
X72460249Y-70371324D01*
X72477043Y-70368833D01*
X72494000Y-70368000D01*
X72840000Y-70368000D01*
X72856957Y-70368833D01*
G37*
G36*
X73826957Y-70368833D02*
G01*
X73843751Y-70371324D01*
X73860219Y-70375449D01*
X73876204Y-70381169D01*
X73891552Y-70388428D01*
X73906114Y-70397156D01*
X73919750Y-70407269D01*
X73932329Y-70418671D01*
X73943731Y-70431250D01*
X73953844Y-70444886D01*
X73962572Y-70459448D01*
X73969831Y-70474796D01*
X73975551Y-70490781D01*
X73979676Y-70507249D01*
X73982167Y-70524043D01*
X73983000Y-70541000D01*
X73983000Y-70937000D01*
X73982167Y-70953957D01*
X73979676Y-70970751D01*
X73975551Y-70987219D01*
X73969831Y-71003204D01*
X73962572Y-71018552D01*
X73953844Y-71033114D01*
X73943731Y-71046750D01*
X73932329Y-71059329D01*
X73919750Y-71070731D01*
X73906114Y-71080844D01*
X73891552Y-71089572D01*
X73876204Y-71096831D01*
X73860219Y-71102551D01*
X73843751Y-71106676D01*
X73826957Y-71109167D01*
X73810000Y-71110000D01*
X73464000Y-71110000D01*
X73447043Y-71109167D01*
X73430249Y-71106676D01*
X73413781Y-71102551D01*
X73397796Y-71096831D01*
X73382448Y-71089572D01*
X73367886Y-71080844D01*
X73354250Y-71070731D01*
X73341671Y-71059329D01*
X73330269Y-71046750D01*
X73320156Y-71033114D01*
X73311428Y-71018552D01*
X73304169Y-71003204D01*
X73298449Y-70987219D01*
X73294324Y-70970751D01*
X73291833Y-70953957D01*
X73291000Y-70937000D01*
X73291000Y-70541000D01*
X73291833Y-70524043D01*
X73294324Y-70507249D01*
X73298449Y-70490781D01*
X73304169Y-70474796D01*
X73311428Y-70459448D01*
X73320156Y-70444886D01*
X73330269Y-70431250D01*
X73341671Y-70418671D01*
X73354250Y-70407269D01*
X73367886Y-70397156D01*
X73382448Y-70388428D01*
X73397796Y-70381169D01*
X73413781Y-70375449D01*
X73430249Y-70371324D01*
X73447043Y-70368833D01*
X73464000Y-70368000D01*
X73810000Y-70368000D01*
X73826957Y-70368833D01*
G37*
G36*
X80478957Y-73337833D02*
G01*
X80495751Y-73340324D01*
X80512219Y-73344449D01*
X80528204Y-73350169D01*
X80543552Y-73357428D01*
X80558114Y-73366156D01*
X80571750Y-73376269D01*
X80584329Y-73387671D01*
X80595731Y-73400250D01*
X80605844Y-73413886D01*
X80614572Y-73428448D01*
X80621831Y-73443796D01*
X80627551Y-73459781D01*
X80631676Y-73476249D01*
X80634167Y-73493043D01*
X80635000Y-73510000D01*
X80635000Y-73856000D01*
X80634167Y-73872957D01*
X80631676Y-73889751D01*
X80627551Y-73906219D01*
X80621831Y-73922204D01*
X80614572Y-73937552D01*
X80605844Y-73952114D01*
X80595731Y-73965750D01*
X80584329Y-73978329D01*
X80571750Y-73989731D01*
X80558114Y-73999844D01*
X80543552Y-74008572D01*
X80528204Y-74015831D01*
X80512219Y-74021551D01*
X80495751Y-74025676D01*
X80478957Y-74028167D01*
X80462000Y-74029000D01*
X80066000Y-74029000D01*
X80049043Y-74028167D01*
X80032249Y-74025676D01*
X80015781Y-74021551D01*
X79999796Y-74015831D01*
X79984448Y-74008572D01*
X79969886Y-73999844D01*
X79956250Y-73989731D01*
X79943671Y-73978329D01*
X79932269Y-73965750D01*
X79922156Y-73952114D01*
X79913428Y-73937552D01*
X79906169Y-73922204D01*
X79900449Y-73906219D01*
X79896324Y-73889751D01*
X79893833Y-73872957D01*
X79893000Y-73856000D01*
X79893000Y-73510000D01*
X79893833Y-73493043D01*
X79896324Y-73476249D01*
X79900449Y-73459781D01*
X79906169Y-73443796D01*
X79913428Y-73428448D01*
X79922156Y-73413886D01*
X79932269Y-73400250D01*
X79943671Y-73387671D01*
X79956250Y-73376269D01*
X79969886Y-73366156D01*
X79984448Y-73357428D01*
X79999796Y-73350169D01*
X80015781Y-73344449D01*
X80032249Y-73340324D01*
X80049043Y-73337833D01*
X80066000Y-73337000D01*
X80462000Y-73337000D01*
X80478957Y-73337833D01*
G37*
G36*
X80478957Y-74307833D02*
G01*
X80495751Y-74310324D01*
X80512219Y-74314449D01*
X80528204Y-74320169D01*
X80543552Y-74327428D01*
X80558114Y-74336156D01*
X80571750Y-74346269D01*
X80584329Y-74357671D01*
X80595731Y-74370250D01*
X80605844Y-74383886D01*
X80614572Y-74398448D01*
X80621831Y-74413796D01*
X80627551Y-74429781D01*
X80631676Y-74446249D01*
X80634167Y-74463043D01*
X80635000Y-74480000D01*
X80635000Y-74826000D01*
X80634167Y-74842957D01*
X80631676Y-74859751D01*
X80627551Y-74876219D01*
X80621831Y-74892204D01*
X80614572Y-74907552D01*
X80605844Y-74922114D01*
X80595731Y-74935750D01*
X80584329Y-74948329D01*
X80571750Y-74959731D01*
X80558114Y-74969844D01*
X80543552Y-74978572D01*
X80528204Y-74985831D01*
X80512219Y-74991551D01*
X80495751Y-74995676D01*
X80478957Y-74998167D01*
X80462000Y-74999000D01*
X80066000Y-74999000D01*
X80049043Y-74998167D01*
X80032249Y-74995676D01*
X80015781Y-74991551D01*
X79999796Y-74985831D01*
X79984448Y-74978572D01*
X79969886Y-74969844D01*
X79956250Y-74959731D01*
X79943671Y-74948329D01*
X79932269Y-74935750D01*
X79922156Y-74922114D01*
X79913428Y-74907552D01*
X79906169Y-74892204D01*
X79900449Y-74876219D01*
X79896324Y-74859751D01*
X79893833Y-74842957D01*
X79893000Y-74826000D01*
X79893000Y-74480000D01*
X79893833Y-74463043D01*
X79896324Y-74446249D01*
X79900449Y-74429781D01*
X79906169Y-74413796D01*
X79913428Y-74398448D01*
X79922156Y-74383886D01*
X79932269Y-74370250D01*
X79943671Y-74357671D01*
X79956250Y-74346269D01*
X79969886Y-74336156D01*
X79984448Y-74327428D01*
X79999796Y-74320169D01*
X80015781Y-74314449D01*
X80032249Y-74310324D01*
X80049043Y-74307833D01*
X80066000Y-74307000D01*
X80462000Y-74307000D01*
X80478957Y-74307833D01*
G37*
G36*
X78190957Y-42809833D02*
G01*
X78207751Y-42812324D01*
X78224219Y-42816449D01*
X78240204Y-42822169D01*
X78255552Y-42829428D01*
X78270114Y-42838156D01*
X78283750Y-42848269D01*
X78296329Y-42859671D01*
X78307731Y-42872250D01*
X78317844Y-42885886D01*
X78326572Y-42900448D01*
X78333831Y-42915796D01*
X78339551Y-42931781D01*
X78343676Y-42948249D01*
X78346167Y-42965043D01*
X78347000Y-42982000D01*
X78347000Y-43378000D01*
X78346167Y-43394957D01*
X78343676Y-43411751D01*
X78339551Y-43428219D01*
X78333831Y-43444204D01*
X78326572Y-43459552D01*
X78317844Y-43474114D01*
X78307731Y-43487750D01*
X78296329Y-43500329D01*
X78283750Y-43511731D01*
X78270114Y-43521844D01*
X78255552Y-43530572D01*
X78240204Y-43537831D01*
X78224219Y-43543551D01*
X78207751Y-43547676D01*
X78190957Y-43550167D01*
X78174000Y-43551000D01*
X77828000Y-43551000D01*
X77811043Y-43550167D01*
X77794249Y-43547676D01*
X77777781Y-43543551D01*
X77761796Y-43537831D01*
X77746448Y-43530572D01*
X77731886Y-43521844D01*
X77718250Y-43511731D01*
X77705671Y-43500329D01*
X77694269Y-43487750D01*
X77684156Y-43474114D01*
X77675428Y-43459552D01*
X77668169Y-43444204D01*
X77662449Y-43428219D01*
X77658324Y-43411751D01*
X77655833Y-43394957D01*
X77655000Y-43378000D01*
X77655000Y-42982000D01*
X77655833Y-42965043D01*
X77658324Y-42948249D01*
X77662449Y-42931781D01*
X77668169Y-42915796D01*
X77675428Y-42900448D01*
X77684156Y-42885886D01*
X77694269Y-42872250D01*
X77705671Y-42859671D01*
X77718250Y-42848269D01*
X77731886Y-42838156D01*
X77746448Y-42829428D01*
X77761796Y-42822169D01*
X77777781Y-42816449D01*
X77794249Y-42812324D01*
X77811043Y-42809833D01*
X77828000Y-42809000D01*
X78174000Y-42809000D01*
X78190957Y-42809833D01*
G37*
G36*
X79160957Y-42809833D02*
G01*
X79177751Y-42812324D01*
X79194219Y-42816449D01*
X79210204Y-42822169D01*
X79225552Y-42829428D01*
X79240114Y-42838156D01*
X79253750Y-42848269D01*
X79266329Y-42859671D01*
X79277731Y-42872250D01*
X79287844Y-42885886D01*
X79296572Y-42900448D01*
X79303831Y-42915796D01*
X79309551Y-42931781D01*
X79313676Y-42948249D01*
X79316167Y-42965043D01*
X79317000Y-42982000D01*
X79317000Y-43378000D01*
X79316167Y-43394957D01*
X79313676Y-43411751D01*
X79309551Y-43428219D01*
X79303831Y-43444204D01*
X79296572Y-43459552D01*
X79287844Y-43474114D01*
X79277731Y-43487750D01*
X79266329Y-43500329D01*
X79253750Y-43511731D01*
X79240114Y-43521844D01*
X79225552Y-43530572D01*
X79210204Y-43537831D01*
X79194219Y-43543551D01*
X79177751Y-43547676D01*
X79160957Y-43550167D01*
X79144000Y-43551000D01*
X78798000Y-43551000D01*
X78781043Y-43550167D01*
X78764249Y-43547676D01*
X78747781Y-43543551D01*
X78731796Y-43537831D01*
X78716448Y-43530572D01*
X78701886Y-43521844D01*
X78688250Y-43511731D01*
X78675671Y-43500329D01*
X78664269Y-43487750D01*
X78654156Y-43474114D01*
X78645428Y-43459552D01*
X78638169Y-43444204D01*
X78632449Y-43428219D01*
X78628324Y-43411751D01*
X78625833Y-43394957D01*
X78625000Y-43378000D01*
X78625000Y-42982000D01*
X78625833Y-42965043D01*
X78628324Y-42948249D01*
X78632449Y-42931781D01*
X78638169Y-42915796D01*
X78645428Y-42900448D01*
X78654156Y-42885886D01*
X78664269Y-42872250D01*
X78675671Y-42859671D01*
X78688250Y-42848269D01*
X78701886Y-42838156D01*
X78716448Y-42829428D01*
X78731796Y-42822169D01*
X78747781Y-42816449D01*
X78764249Y-42812324D01*
X78781043Y-42809833D01*
X78798000Y-42809000D01*
X79144000Y-42809000D01*
X79160957Y-42809833D01*
G37*
G36*
X84479457Y-45461333D02*
G01*
X84496251Y-45463824D01*
X84512719Y-45467949D01*
X84528704Y-45473669D01*
X84544052Y-45480928D01*
X84558614Y-45489656D01*
X84572250Y-45499769D01*
X84584829Y-45511171D01*
X84596231Y-45523750D01*
X84606344Y-45537386D01*
X84615072Y-45551948D01*
X84622331Y-45567296D01*
X84628051Y-45583281D01*
X84632176Y-45599749D01*
X84634667Y-45616543D01*
X84635500Y-45633500D01*
X84635500Y-45979500D01*
X84634667Y-45996457D01*
X84632176Y-46013251D01*
X84628051Y-46029719D01*
X84622331Y-46045704D01*
X84615072Y-46061052D01*
X84606344Y-46075614D01*
X84596231Y-46089250D01*
X84584829Y-46101829D01*
X84572250Y-46113231D01*
X84558614Y-46123344D01*
X84544052Y-46132072D01*
X84528704Y-46139331D01*
X84512719Y-46145051D01*
X84496251Y-46149176D01*
X84479457Y-46151667D01*
X84462500Y-46152500D01*
X84066500Y-46152500D01*
X84049543Y-46151667D01*
X84032749Y-46149176D01*
X84016281Y-46145051D01*
X84000296Y-46139331D01*
X83984948Y-46132072D01*
X83970386Y-46123344D01*
X83956750Y-46113231D01*
X83944171Y-46101829D01*
X83932769Y-46089250D01*
X83922656Y-46075614D01*
X83913928Y-46061052D01*
X83906669Y-46045704D01*
X83900949Y-46029719D01*
X83896824Y-46013251D01*
X83894333Y-45996457D01*
X83893500Y-45979500D01*
X83893500Y-45633500D01*
X83894333Y-45616543D01*
X83896824Y-45599749D01*
X83900949Y-45583281D01*
X83906669Y-45567296D01*
X83913928Y-45551948D01*
X83922656Y-45537386D01*
X83932769Y-45523750D01*
X83944171Y-45511171D01*
X83956750Y-45499769D01*
X83970386Y-45489656D01*
X83984948Y-45480928D01*
X84000296Y-45473669D01*
X84016281Y-45467949D01*
X84032749Y-45463824D01*
X84049543Y-45461333D01*
X84066500Y-45460500D01*
X84462500Y-45460500D01*
X84479457Y-45461333D01*
G37*
G36*
X84479457Y-46431333D02*
G01*
X84496251Y-46433824D01*
X84512719Y-46437949D01*
X84528704Y-46443669D01*
X84544052Y-46450928D01*
X84558614Y-46459656D01*
X84572250Y-46469769D01*
X84584829Y-46481171D01*
X84596231Y-46493750D01*
X84606344Y-46507386D01*
X84615072Y-46521948D01*
X84622331Y-46537296D01*
X84628051Y-46553281D01*
X84632176Y-46569749D01*
X84634667Y-46586543D01*
X84635500Y-46603500D01*
X84635500Y-46949500D01*
X84634667Y-46966457D01*
X84632176Y-46983251D01*
X84628051Y-46999719D01*
X84622331Y-47015704D01*
X84615072Y-47031052D01*
X84606344Y-47045614D01*
X84596231Y-47059250D01*
X84584829Y-47071829D01*
X84572250Y-47083231D01*
X84558614Y-47093344D01*
X84544052Y-47102072D01*
X84528704Y-47109331D01*
X84512719Y-47115051D01*
X84496251Y-47119176D01*
X84479457Y-47121667D01*
X84462500Y-47122500D01*
X84066500Y-47122500D01*
X84049543Y-47121667D01*
X84032749Y-47119176D01*
X84016281Y-47115051D01*
X84000296Y-47109331D01*
X83984948Y-47102072D01*
X83970386Y-47093344D01*
X83956750Y-47083231D01*
X83944171Y-47071829D01*
X83932769Y-47059250D01*
X83922656Y-47045614D01*
X83913928Y-47031052D01*
X83906669Y-47015704D01*
X83900949Y-46999719D01*
X83896824Y-46983251D01*
X83894333Y-46966457D01*
X83893500Y-46949500D01*
X83893500Y-46603500D01*
X83894333Y-46586543D01*
X83896824Y-46569749D01*
X83900949Y-46553281D01*
X83906669Y-46537296D01*
X83913928Y-46521948D01*
X83922656Y-46507386D01*
X83932769Y-46493750D01*
X83944171Y-46481171D01*
X83956750Y-46469769D01*
X83970386Y-46459656D01*
X83984948Y-46450928D01*
X84000296Y-46443669D01*
X84016281Y-46437949D01*
X84032749Y-46433824D01*
X84049543Y-46431333D01*
X84066500Y-46430500D01*
X84462500Y-46430500D01*
X84479457Y-46431333D01*
G37*
G36*
X85304957Y-79941833D02*
G01*
X85321751Y-79944324D01*
X85338219Y-79948449D01*
X85354204Y-79954169D01*
X85369552Y-79961428D01*
X85384114Y-79970156D01*
X85397750Y-79980269D01*
X85410329Y-79991671D01*
X85421731Y-80004250D01*
X85431844Y-80017886D01*
X85440572Y-80032448D01*
X85447831Y-80047796D01*
X85453551Y-80063781D01*
X85457676Y-80080249D01*
X85460167Y-80097043D01*
X85461000Y-80114000D01*
X85461000Y-80460000D01*
X85460167Y-80476957D01*
X85457676Y-80493751D01*
X85453551Y-80510219D01*
X85447831Y-80526204D01*
X85440572Y-80541552D01*
X85431844Y-80556114D01*
X85421731Y-80569750D01*
X85410329Y-80582329D01*
X85397750Y-80593731D01*
X85384114Y-80603844D01*
X85369552Y-80612572D01*
X85354204Y-80619831D01*
X85338219Y-80625551D01*
X85321751Y-80629676D01*
X85304957Y-80632167D01*
X85288000Y-80633000D01*
X84892000Y-80633000D01*
X84875043Y-80632167D01*
X84858249Y-80629676D01*
X84841781Y-80625551D01*
X84825796Y-80619831D01*
X84810448Y-80612572D01*
X84795886Y-80603844D01*
X84782250Y-80593731D01*
X84769671Y-80582329D01*
X84758269Y-80569750D01*
X84748156Y-80556114D01*
X84739428Y-80541552D01*
X84732169Y-80526204D01*
X84726449Y-80510219D01*
X84722324Y-80493751D01*
X84719833Y-80476957D01*
X84719000Y-80460000D01*
X84719000Y-80114000D01*
X84719833Y-80097043D01*
X84722324Y-80080249D01*
X84726449Y-80063781D01*
X84732169Y-80047796D01*
X84739428Y-80032448D01*
X84748156Y-80017886D01*
X84758269Y-80004250D01*
X84769671Y-79991671D01*
X84782250Y-79980269D01*
X84795886Y-79970156D01*
X84810448Y-79961428D01*
X84825796Y-79954169D01*
X84841781Y-79948449D01*
X84858249Y-79944324D01*
X84875043Y-79941833D01*
X84892000Y-79941000D01*
X85288000Y-79941000D01*
X85304957Y-79941833D01*
G37*
G36*
X85304957Y-80911833D02*
G01*
X85321751Y-80914324D01*
X85338219Y-80918449D01*
X85354204Y-80924169D01*
X85369552Y-80931428D01*
X85384114Y-80940156D01*
X85397750Y-80950269D01*
X85410329Y-80961671D01*
X85421731Y-80974250D01*
X85431844Y-80987886D01*
X85440572Y-81002448D01*
X85447831Y-81017796D01*
X85453551Y-81033781D01*
X85457676Y-81050249D01*
X85460167Y-81067043D01*
X85461000Y-81084000D01*
X85461000Y-81430000D01*
X85460167Y-81446957D01*
X85457676Y-81463751D01*
X85453551Y-81480219D01*
X85447831Y-81496204D01*
X85440572Y-81511552D01*
X85431844Y-81526114D01*
X85421731Y-81539750D01*
X85410329Y-81552329D01*
X85397750Y-81563731D01*
X85384114Y-81573844D01*
X85369552Y-81582572D01*
X85354204Y-81589831D01*
X85338219Y-81595551D01*
X85321751Y-81599676D01*
X85304957Y-81602167D01*
X85288000Y-81603000D01*
X84892000Y-81603000D01*
X84875043Y-81602167D01*
X84858249Y-81599676D01*
X84841781Y-81595551D01*
X84825796Y-81589831D01*
X84810448Y-81582572D01*
X84795886Y-81573844D01*
X84782250Y-81563731D01*
X84769671Y-81552329D01*
X84758269Y-81539750D01*
X84748156Y-81526114D01*
X84739428Y-81511552D01*
X84732169Y-81496204D01*
X84726449Y-81480219D01*
X84722324Y-81463751D01*
X84719833Y-81446957D01*
X84719000Y-81430000D01*
X84719000Y-81084000D01*
X84719833Y-81067043D01*
X84722324Y-81050249D01*
X84726449Y-81033781D01*
X84732169Y-81017796D01*
X84739428Y-81002448D01*
X84748156Y-80987886D01*
X84758269Y-80974250D01*
X84769671Y-80961671D01*
X84782250Y-80950269D01*
X84795886Y-80940156D01*
X84810448Y-80931428D01*
X84825796Y-80924169D01*
X84841781Y-80918449D01*
X84858249Y-80914324D01*
X84875043Y-80911833D01*
X84892000Y-80911000D01*
X85288000Y-80911000D01*
X85304957Y-80911833D01*
G37*
G36*
X75477957Y-76210833D02*
G01*
X75494751Y-76213324D01*
X75511219Y-76217449D01*
X75527204Y-76223169D01*
X75542552Y-76230428D01*
X75557114Y-76239156D01*
X75570750Y-76249269D01*
X75583329Y-76260671D01*
X75594731Y-76273250D01*
X75604844Y-76286886D01*
X75613572Y-76301448D01*
X75620831Y-76316796D01*
X75626551Y-76332781D01*
X75630676Y-76349249D01*
X75633167Y-76366043D01*
X75634000Y-76383000D01*
X75634000Y-76779000D01*
X75633167Y-76795957D01*
X75630676Y-76812751D01*
X75626551Y-76829219D01*
X75620831Y-76845204D01*
X75613572Y-76860552D01*
X75604844Y-76875114D01*
X75594731Y-76888750D01*
X75583329Y-76901329D01*
X75570750Y-76912731D01*
X75557114Y-76922844D01*
X75542552Y-76931572D01*
X75527204Y-76938831D01*
X75511219Y-76944551D01*
X75494751Y-76948676D01*
X75477957Y-76951167D01*
X75461000Y-76952000D01*
X75115000Y-76952000D01*
X75098043Y-76951167D01*
X75081249Y-76948676D01*
X75064781Y-76944551D01*
X75048796Y-76938831D01*
X75033448Y-76931572D01*
X75018886Y-76922844D01*
X75005250Y-76912731D01*
X74992671Y-76901329D01*
X74981269Y-76888750D01*
X74971156Y-76875114D01*
X74962428Y-76860552D01*
X74955169Y-76845204D01*
X74949449Y-76829219D01*
X74945324Y-76812751D01*
X74942833Y-76795957D01*
X74942000Y-76779000D01*
X74942000Y-76383000D01*
X74942833Y-76366043D01*
X74945324Y-76349249D01*
X74949449Y-76332781D01*
X74955169Y-76316796D01*
X74962428Y-76301448D01*
X74971156Y-76286886D01*
X74981269Y-76273250D01*
X74992671Y-76260671D01*
X75005250Y-76249269D01*
X75018886Y-76239156D01*
X75033448Y-76230428D01*
X75048796Y-76223169D01*
X75064781Y-76217449D01*
X75081249Y-76213324D01*
X75098043Y-76210833D01*
X75115000Y-76210000D01*
X75461000Y-76210000D01*
X75477957Y-76210833D01*
G37*
G36*
X74507957Y-76210833D02*
G01*
X74524751Y-76213324D01*
X74541219Y-76217449D01*
X74557204Y-76223169D01*
X74572552Y-76230428D01*
X74587114Y-76239156D01*
X74600750Y-76249269D01*
X74613329Y-76260671D01*
X74624731Y-76273250D01*
X74634844Y-76286886D01*
X74643572Y-76301448D01*
X74650831Y-76316796D01*
X74656551Y-76332781D01*
X74660676Y-76349249D01*
X74663167Y-76366043D01*
X74664000Y-76383000D01*
X74664000Y-76779000D01*
X74663167Y-76795957D01*
X74660676Y-76812751D01*
X74656551Y-76829219D01*
X74650831Y-76845204D01*
X74643572Y-76860552D01*
X74634844Y-76875114D01*
X74624731Y-76888750D01*
X74613329Y-76901329D01*
X74600750Y-76912731D01*
X74587114Y-76922844D01*
X74572552Y-76931572D01*
X74557204Y-76938831D01*
X74541219Y-76944551D01*
X74524751Y-76948676D01*
X74507957Y-76951167D01*
X74491000Y-76952000D01*
X74145000Y-76952000D01*
X74128043Y-76951167D01*
X74111249Y-76948676D01*
X74094781Y-76944551D01*
X74078796Y-76938831D01*
X74063448Y-76931572D01*
X74048886Y-76922844D01*
X74035250Y-76912731D01*
X74022671Y-76901329D01*
X74011269Y-76888750D01*
X74001156Y-76875114D01*
X73992428Y-76860552D01*
X73985169Y-76845204D01*
X73979449Y-76829219D01*
X73975324Y-76812751D01*
X73972833Y-76795957D01*
X73972000Y-76779000D01*
X73972000Y-76383000D01*
X73972833Y-76366043D01*
X73975324Y-76349249D01*
X73979449Y-76332781D01*
X73985169Y-76316796D01*
X73992428Y-76301448D01*
X74001156Y-76286886D01*
X74011269Y-76273250D01*
X74022671Y-76260671D01*
X74035250Y-76249269D01*
X74048886Y-76239156D01*
X74063448Y-76230428D01*
X74078796Y-76223169D01*
X74094781Y-76217449D01*
X74111249Y-76213324D01*
X74128043Y-76210833D01*
X74145000Y-76210000D01*
X74491000Y-76210000D01*
X74507957Y-76210833D01*
G37*
G36*
X74636957Y-41795833D02*
G01*
X74653751Y-41798324D01*
X74670219Y-41802449D01*
X74686204Y-41808169D01*
X74701552Y-41815428D01*
X74716114Y-41824156D01*
X74729750Y-41834269D01*
X74742329Y-41845671D01*
X74753731Y-41858250D01*
X74763844Y-41871886D01*
X74772572Y-41886448D01*
X74779831Y-41901796D01*
X74785551Y-41917781D01*
X74789676Y-41934249D01*
X74792167Y-41951043D01*
X74793000Y-41968000D01*
X74793000Y-42314000D01*
X74792167Y-42330957D01*
X74789676Y-42347751D01*
X74785551Y-42364219D01*
X74779831Y-42380204D01*
X74772572Y-42395552D01*
X74763844Y-42410114D01*
X74753731Y-42423750D01*
X74742329Y-42436329D01*
X74729750Y-42447731D01*
X74716114Y-42457844D01*
X74701552Y-42466572D01*
X74686204Y-42473831D01*
X74670219Y-42479551D01*
X74653751Y-42483676D01*
X74636957Y-42486167D01*
X74620000Y-42487000D01*
X74224000Y-42487000D01*
X74207043Y-42486167D01*
X74190249Y-42483676D01*
X74173781Y-42479551D01*
X74157796Y-42473831D01*
X74142448Y-42466572D01*
X74127886Y-42457844D01*
X74114250Y-42447731D01*
X74101671Y-42436329D01*
X74090269Y-42423750D01*
X74080156Y-42410114D01*
X74071428Y-42395552D01*
X74064169Y-42380204D01*
X74058449Y-42364219D01*
X74054324Y-42347751D01*
X74051833Y-42330957D01*
X74051000Y-42314000D01*
X74051000Y-41968000D01*
X74051833Y-41951043D01*
X74054324Y-41934249D01*
X74058449Y-41917781D01*
X74064169Y-41901796D01*
X74071428Y-41886448D01*
X74080156Y-41871886D01*
X74090269Y-41858250D01*
X74101671Y-41845671D01*
X74114250Y-41834269D01*
X74127886Y-41824156D01*
X74142448Y-41815428D01*
X74157796Y-41808169D01*
X74173781Y-41802449D01*
X74190249Y-41798324D01*
X74207043Y-41795833D01*
X74224000Y-41795000D01*
X74620000Y-41795000D01*
X74636957Y-41795833D01*
G37*
G36*
X74636957Y-40825833D02*
G01*
X74653751Y-40828324D01*
X74670219Y-40832449D01*
X74686204Y-40838169D01*
X74701552Y-40845428D01*
X74716114Y-40854156D01*
X74729750Y-40864269D01*
X74742329Y-40875671D01*
X74753731Y-40888250D01*
X74763844Y-40901886D01*
X74772572Y-40916448D01*
X74779831Y-40931796D01*
X74785551Y-40947781D01*
X74789676Y-40964249D01*
X74792167Y-40981043D01*
X74793000Y-40998000D01*
X74793000Y-41344000D01*
X74792167Y-41360957D01*
X74789676Y-41377751D01*
X74785551Y-41394219D01*
X74779831Y-41410204D01*
X74772572Y-41425552D01*
X74763844Y-41440114D01*
X74753731Y-41453750D01*
X74742329Y-41466329D01*
X74729750Y-41477731D01*
X74716114Y-41487844D01*
X74701552Y-41496572D01*
X74686204Y-41503831D01*
X74670219Y-41509551D01*
X74653751Y-41513676D01*
X74636957Y-41516167D01*
X74620000Y-41517000D01*
X74224000Y-41517000D01*
X74207043Y-41516167D01*
X74190249Y-41513676D01*
X74173781Y-41509551D01*
X74157796Y-41503831D01*
X74142448Y-41496572D01*
X74127886Y-41487844D01*
X74114250Y-41477731D01*
X74101671Y-41466329D01*
X74090269Y-41453750D01*
X74080156Y-41440114D01*
X74071428Y-41425552D01*
X74064169Y-41410204D01*
X74058449Y-41394219D01*
X74054324Y-41377751D01*
X74051833Y-41360957D01*
X74051000Y-41344000D01*
X74051000Y-40998000D01*
X74051833Y-40981043D01*
X74054324Y-40964249D01*
X74058449Y-40947781D01*
X74064169Y-40931796D01*
X74071428Y-40916448D01*
X74080156Y-40901886D01*
X74090269Y-40888250D01*
X74101671Y-40875671D01*
X74114250Y-40864269D01*
X74127886Y-40854156D01*
X74142448Y-40845428D01*
X74157796Y-40838169D01*
X74173781Y-40832449D01*
X74190249Y-40828324D01*
X74207043Y-40825833D01*
X74224000Y-40825000D01*
X74620000Y-40825000D01*
X74636957Y-40825833D01*
G37*
G36*
X89066957Y-69987833D02*
G01*
X89083751Y-69990324D01*
X89100219Y-69994449D01*
X89116204Y-70000169D01*
X89131552Y-70007428D01*
X89146114Y-70016156D01*
X89159750Y-70026269D01*
X89172329Y-70037671D01*
X89183731Y-70050250D01*
X89193844Y-70063886D01*
X89202572Y-70078448D01*
X89209831Y-70093796D01*
X89215551Y-70109781D01*
X89219676Y-70126249D01*
X89222167Y-70143043D01*
X89223000Y-70160000D01*
X89223000Y-70556000D01*
X89222167Y-70572957D01*
X89219676Y-70589751D01*
X89215551Y-70606219D01*
X89209831Y-70622204D01*
X89202572Y-70637552D01*
X89193844Y-70652114D01*
X89183731Y-70665750D01*
X89172329Y-70678329D01*
X89159750Y-70689731D01*
X89146114Y-70699844D01*
X89131552Y-70708572D01*
X89116204Y-70715831D01*
X89100219Y-70721551D01*
X89083751Y-70725676D01*
X89066957Y-70728167D01*
X89050000Y-70729000D01*
X88704000Y-70729000D01*
X88687043Y-70728167D01*
X88670249Y-70725676D01*
X88653781Y-70721551D01*
X88637796Y-70715831D01*
X88622448Y-70708572D01*
X88607886Y-70699844D01*
X88594250Y-70689731D01*
X88581671Y-70678329D01*
X88570269Y-70665750D01*
X88560156Y-70652114D01*
X88551428Y-70637552D01*
X88544169Y-70622204D01*
X88538449Y-70606219D01*
X88534324Y-70589751D01*
X88531833Y-70572957D01*
X88531000Y-70556000D01*
X88531000Y-70160000D01*
X88531833Y-70143043D01*
X88534324Y-70126249D01*
X88538449Y-70109781D01*
X88544169Y-70093796D01*
X88551428Y-70078448D01*
X88560156Y-70063886D01*
X88570269Y-70050250D01*
X88581671Y-70037671D01*
X88594250Y-70026269D01*
X88607886Y-70016156D01*
X88622448Y-70007428D01*
X88637796Y-70000169D01*
X88653781Y-69994449D01*
X88670249Y-69990324D01*
X88687043Y-69987833D01*
X88704000Y-69987000D01*
X89050000Y-69987000D01*
X89066957Y-69987833D01*
G37*
G36*
X88096957Y-69987833D02*
G01*
X88113751Y-69990324D01*
X88130219Y-69994449D01*
X88146204Y-70000169D01*
X88161552Y-70007428D01*
X88176114Y-70016156D01*
X88189750Y-70026269D01*
X88202329Y-70037671D01*
X88213731Y-70050250D01*
X88223844Y-70063886D01*
X88232572Y-70078448D01*
X88239831Y-70093796D01*
X88245551Y-70109781D01*
X88249676Y-70126249D01*
X88252167Y-70143043D01*
X88253000Y-70160000D01*
X88253000Y-70556000D01*
X88252167Y-70572957D01*
X88249676Y-70589751D01*
X88245551Y-70606219D01*
X88239831Y-70622204D01*
X88232572Y-70637552D01*
X88223844Y-70652114D01*
X88213731Y-70665750D01*
X88202329Y-70678329D01*
X88189750Y-70689731D01*
X88176114Y-70699844D01*
X88161552Y-70708572D01*
X88146204Y-70715831D01*
X88130219Y-70721551D01*
X88113751Y-70725676D01*
X88096957Y-70728167D01*
X88080000Y-70729000D01*
X87734000Y-70729000D01*
X87717043Y-70728167D01*
X87700249Y-70725676D01*
X87683781Y-70721551D01*
X87667796Y-70715831D01*
X87652448Y-70708572D01*
X87637886Y-70699844D01*
X87624250Y-70689731D01*
X87611671Y-70678329D01*
X87600269Y-70665750D01*
X87590156Y-70652114D01*
X87581428Y-70637552D01*
X87574169Y-70622204D01*
X87568449Y-70606219D01*
X87564324Y-70589751D01*
X87561833Y-70572957D01*
X87561000Y-70556000D01*
X87561000Y-70160000D01*
X87561833Y-70143043D01*
X87564324Y-70126249D01*
X87568449Y-70109781D01*
X87574169Y-70093796D01*
X87581428Y-70078448D01*
X87590156Y-70063886D01*
X87600269Y-70050250D01*
X87611671Y-70037671D01*
X87624250Y-70026269D01*
X87637886Y-70016156D01*
X87652448Y-70007428D01*
X87667796Y-70000169D01*
X87683781Y-69994449D01*
X87700249Y-69990324D01*
X87717043Y-69987833D01*
X87734000Y-69987000D01*
X88080000Y-69987000D01*
X88096957Y-69987833D01*
G37*
G36*
X90636957Y-65923833D02*
G01*
X90653751Y-65926324D01*
X90670219Y-65930449D01*
X90686204Y-65936169D01*
X90701552Y-65943428D01*
X90716114Y-65952156D01*
X90729750Y-65962269D01*
X90742329Y-65973671D01*
X90753731Y-65986250D01*
X90763844Y-65999886D01*
X90772572Y-66014448D01*
X90779831Y-66029796D01*
X90785551Y-66045781D01*
X90789676Y-66062249D01*
X90792167Y-66079043D01*
X90793000Y-66096000D01*
X90793000Y-66492000D01*
X90792167Y-66508957D01*
X90789676Y-66525751D01*
X90785551Y-66542219D01*
X90779831Y-66558204D01*
X90772572Y-66573552D01*
X90763844Y-66588114D01*
X90753731Y-66601750D01*
X90742329Y-66614329D01*
X90729750Y-66625731D01*
X90716114Y-66635844D01*
X90701552Y-66644572D01*
X90686204Y-66651831D01*
X90670219Y-66657551D01*
X90653751Y-66661676D01*
X90636957Y-66664167D01*
X90620000Y-66665000D01*
X90274000Y-66665000D01*
X90257043Y-66664167D01*
X90240249Y-66661676D01*
X90223781Y-66657551D01*
X90207796Y-66651831D01*
X90192448Y-66644572D01*
X90177886Y-66635844D01*
X90164250Y-66625731D01*
X90151671Y-66614329D01*
X90140269Y-66601750D01*
X90130156Y-66588114D01*
X90121428Y-66573552D01*
X90114169Y-66558204D01*
X90108449Y-66542219D01*
X90104324Y-66525751D01*
X90101833Y-66508957D01*
X90101000Y-66492000D01*
X90101000Y-66096000D01*
X90101833Y-66079043D01*
X90104324Y-66062249D01*
X90108449Y-66045781D01*
X90114169Y-66029796D01*
X90121428Y-66014448D01*
X90130156Y-65999886D01*
X90140269Y-65986250D01*
X90151671Y-65973671D01*
X90164250Y-65962269D01*
X90177886Y-65952156D01*
X90192448Y-65943428D01*
X90207796Y-65936169D01*
X90223781Y-65930449D01*
X90240249Y-65926324D01*
X90257043Y-65923833D01*
X90274000Y-65923000D01*
X90620000Y-65923000D01*
X90636957Y-65923833D01*
G37*
G36*
X91606957Y-65923833D02*
G01*
X91623751Y-65926324D01*
X91640219Y-65930449D01*
X91656204Y-65936169D01*
X91671552Y-65943428D01*
X91686114Y-65952156D01*
X91699750Y-65962269D01*
X91712329Y-65973671D01*
X91723731Y-65986250D01*
X91733844Y-65999886D01*
X91742572Y-66014448D01*
X91749831Y-66029796D01*
X91755551Y-66045781D01*
X91759676Y-66062249D01*
X91762167Y-66079043D01*
X91763000Y-66096000D01*
X91763000Y-66492000D01*
X91762167Y-66508957D01*
X91759676Y-66525751D01*
X91755551Y-66542219D01*
X91749831Y-66558204D01*
X91742572Y-66573552D01*
X91733844Y-66588114D01*
X91723731Y-66601750D01*
X91712329Y-66614329D01*
X91699750Y-66625731D01*
X91686114Y-66635844D01*
X91671552Y-66644572D01*
X91656204Y-66651831D01*
X91640219Y-66657551D01*
X91623751Y-66661676D01*
X91606957Y-66664167D01*
X91590000Y-66665000D01*
X91244000Y-66665000D01*
X91227043Y-66664167D01*
X91210249Y-66661676D01*
X91193781Y-66657551D01*
X91177796Y-66651831D01*
X91162448Y-66644572D01*
X91147886Y-66635844D01*
X91134250Y-66625731D01*
X91121671Y-66614329D01*
X91110269Y-66601750D01*
X91100156Y-66588114D01*
X91091428Y-66573552D01*
X91084169Y-66558204D01*
X91078449Y-66542219D01*
X91074324Y-66525751D01*
X91071833Y-66508957D01*
X91071000Y-66492000D01*
X91071000Y-66096000D01*
X91071833Y-66079043D01*
X91074324Y-66062249D01*
X91078449Y-66045781D01*
X91084169Y-66029796D01*
X91091428Y-66014448D01*
X91100156Y-65999886D01*
X91110269Y-65986250D01*
X91121671Y-65973671D01*
X91134250Y-65962269D01*
X91147886Y-65952156D01*
X91162448Y-65943428D01*
X91177796Y-65936169D01*
X91193781Y-65930449D01*
X91210249Y-65926324D01*
X91227043Y-65923833D01*
X91244000Y-65923000D01*
X91590000Y-65923000D01*
X91606957Y-65923833D01*
G37*
G36*
X81446957Y-44841833D02*
G01*
X81463751Y-44844324D01*
X81480219Y-44848449D01*
X81496204Y-44854169D01*
X81511552Y-44861428D01*
X81526114Y-44870156D01*
X81539750Y-44880269D01*
X81552329Y-44891671D01*
X81563731Y-44904250D01*
X81573844Y-44917886D01*
X81582572Y-44932448D01*
X81589831Y-44947796D01*
X81595551Y-44963781D01*
X81599676Y-44980249D01*
X81602167Y-44997043D01*
X81603000Y-45014000D01*
X81603000Y-45410000D01*
X81602167Y-45426957D01*
X81599676Y-45443751D01*
X81595551Y-45460219D01*
X81589831Y-45476204D01*
X81582572Y-45491552D01*
X81573844Y-45506114D01*
X81563731Y-45519750D01*
X81552329Y-45532329D01*
X81539750Y-45543731D01*
X81526114Y-45553844D01*
X81511552Y-45562572D01*
X81496204Y-45569831D01*
X81480219Y-45575551D01*
X81463751Y-45579676D01*
X81446957Y-45582167D01*
X81430000Y-45583000D01*
X81084000Y-45583000D01*
X81067043Y-45582167D01*
X81050249Y-45579676D01*
X81033781Y-45575551D01*
X81017796Y-45569831D01*
X81002448Y-45562572D01*
X80987886Y-45553844D01*
X80974250Y-45543731D01*
X80961671Y-45532329D01*
X80950269Y-45519750D01*
X80940156Y-45506114D01*
X80931428Y-45491552D01*
X80924169Y-45476204D01*
X80918449Y-45460219D01*
X80914324Y-45443751D01*
X80911833Y-45426957D01*
X80911000Y-45410000D01*
X80911000Y-45014000D01*
X80911833Y-44997043D01*
X80914324Y-44980249D01*
X80918449Y-44963781D01*
X80924169Y-44947796D01*
X80931428Y-44932448D01*
X80940156Y-44917886D01*
X80950269Y-44904250D01*
X80961671Y-44891671D01*
X80974250Y-44880269D01*
X80987886Y-44870156D01*
X81002448Y-44861428D01*
X81017796Y-44854169D01*
X81033781Y-44848449D01*
X81050249Y-44844324D01*
X81067043Y-44841833D01*
X81084000Y-44841000D01*
X81430000Y-44841000D01*
X81446957Y-44841833D01*
G37*
G36*
X80476957Y-44841833D02*
G01*
X80493751Y-44844324D01*
X80510219Y-44848449D01*
X80526204Y-44854169D01*
X80541552Y-44861428D01*
X80556114Y-44870156D01*
X80569750Y-44880269D01*
X80582329Y-44891671D01*
X80593731Y-44904250D01*
X80603844Y-44917886D01*
X80612572Y-44932448D01*
X80619831Y-44947796D01*
X80625551Y-44963781D01*
X80629676Y-44980249D01*
X80632167Y-44997043D01*
X80633000Y-45014000D01*
X80633000Y-45410000D01*
X80632167Y-45426957D01*
X80629676Y-45443751D01*
X80625551Y-45460219D01*
X80619831Y-45476204D01*
X80612572Y-45491552D01*
X80603844Y-45506114D01*
X80593731Y-45519750D01*
X80582329Y-45532329D01*
X80569750Y-45543731D01*
X80556114Y-45553844D01*
X80541552Y-45562572D01*
X80526204Y-45569831D01*
X80510219Y-45575551D01*
X80493751Y-45579676D01*
X80476957Y-45582167D01*
X80460000Y-45583000D01*
X80114000Y-45583000D01*
X80097043Y-45582167D01*
X80080249Y-45579676D01*
X80063781Y-45575551D01*
X80047796Y-45569831D01*
X80032448Y-45562572D01*
X80017886Y-45553844D01*
X80004250Y-45543731D01*
X79991671Y-45532329D01*
X79980269Y-45519750D01*
X79970156Y-45506114D01*
X79961428Y-45491552D01*
X79954169Y-45476204D01*
X79948449Y-45460219D01*
X79944324Y-45443751D01*
X79941833Y-45426957D01*
X79941000Y-45410000D01*
X79941000Y-45014000D01*
X79941833Y-44997043D01*
X79944324Y-44980249D01*
X79948449Y-44963781D01*
X79954169Y-44947796D01*
X79961428Y-44932448D01*
X79970156Y-44917886D01*
X79980269Y-44904250D01*
X79991671Y-44891671D01*
X80004250Y-44880269D01*
X80017886Y-44870156D01*
X80032448Y-44861428D01*
X80047796Y-44854169D01*
X80063781Y-44848449D01*
X80080249Y-44844324D01*
X80097043Y-44841833D01*
X80114000Y-44841000D01*
X80460000Y-44841000D01*
X80476957Y-44841833D01*
G37*
G36*
X72747457Y-48524833D02*
G01*
X72764251Y-48527324D01*
X72780719Y-48531449D01*
X72796704Y-48537169D01*
X72812052Y-48544428D01*
X72826614Y-48553156D01*
X72840250Y-48563269D01*
X72852829Y-48574671D01*
X72864231Y-48587250D01*
X72874344Y-48600886D01*
X72883072Y-48615448D01*
X72890331Y-48630796D01*
X72896051Y-48646781D01*
X72900176Y-48663249D01*
X72902667Y-48680043D01*
X72903500Y-48697000D01*
X72903500Y-49093000D01*
X72902667Y-49109957D01*
X72900176Y-49126751D01*
X72896051Y-49143219D01*
X72890331Y-49159204D01*
X72883072Y-49174552D01*
X72874344Y-49189114D01*
X72864231Y-49202750D01*
X72852829Y-49215329D01*
X72840250Y-49226731D01*
X72826614Y-49236844D01*
X72812052Y-49245572D01*
X72796704Y-49252831D01*
X72780719Y-49258551D01*
X72764251Y-49262676D01*
X72747457Y-49265167D01*
X72730500Y-49266000D01*
X72384500Y-49266000D01*
X72367543Y-49265167D01*
X72350749Y-49262676D01*
X72334281Y-49258551D01*
X72318296Y-49252831D01*
X72302948Y-49245572D01*
X72288386Y-49236844D01*
X72274750Y-49226731D01*
X72262171Y-49215329D01*
X72250769Y-49202750D01*
X72240656Y-49189114D01*
X72231928Y-49174552D01*
X72224669Y-49159204D01*
X72218949Y-49143219D01*
X72214824Y-49126751D01*
X72212333Y-49109957D01*
X72211500Y-49093000D01*
X72211500Y-48697000D01*
X72212333Y-48680043D01*
X72214824Y-48663249D01*
X72218949Y-48646781D01*
X72224669Y-48630796D01*
X72231928Y-48615448D01*
X72240656Y-48600886D01*
X72250769Y-48587250D01*
X72262171Y-48574671D01*
X72274750Y-48563269D01*
X72288386Y-48553156D01*
X72302948Y-48544428D01*
X72318296Y-48537169D01*
X72334281Y-48531449D01*
X72350749Y-48527324D01*
X72367543Y-48524833D01*
X72384500Y-48524000D01*
X72730500Y-48524000D01*
X72747457Y-48524833D01*
G37*
G36*
X71777457Y-48524833D02*
G01*
X71794251Y-48527324D01*
X71810719Y-48531449D01*
X71826704Y-48537169D01*
X71842052Y-48544428D01*
X71856614Y-48553156D01*
X71870250Y-48563269D01*
X71882829Y-48574671D01*
X71894231Y-48587250D01*
X71904344Y-48600886D01*
X71913072Y-48615448D01*
X71920331Y-48630796D01*
X71926051Y-48646781D01*
X71930176Y-48663249D01*
X71932667Y-48680043D01*
X71933500Y-48697000D01*
X71933500Y-49093000D01*
X71932667Y-49109957D01*
X71930176Y-49126751D01*
X71926051Y-49143219D01*
X71920331Y-49159204D01*
X71913072Y-49174552D01*
X71904344Y-49189114D01*
X71894231Y-49202750D01*
X71882829Y-49215329D01*
X71870250Y-49226731D01*
X71856614Y-49236844D01*
X71842052Y-49245572D01*
X71826704Y-49252831D01*
X71810719Y-49258551D01*
X71794251Y-49262676D01*
X71777457Y-49265167D01*
X71760500Y-49266000D01*
X71414500Y-49266000D01*
X71397543Y-49265167D01*
X71380749Y-49262676D01*
X71364281Y-49258551D01*
X71348296Y-49252831D01*
X71332948Y-49245572D01*
X71318386Y-49236844D01*
X71304750Y-49226731D01*
X71292171Y-49215329D01*
X71280769Y-49202750D01*
X71270656Y-49189114D01*
X71261928Y-49174552D01*
X71254669Y-49159204D01*
X71248949Y-49143219D01*
X71244824Y-49126751D01*
X71242333Y-49109957D01*
X71241500Y-49093000D01*
X71241500Y-48697000D01*
X71242333Y-48680043D01*
X71244824Y-48663249D01*
X71248949Y-48646781D01*
X71254669Y-48630796D01*
X71261928Y-48615448D01*
X71270656Y-48600886D01*
X71280769Y-48587250D01*
X71292171Y-48574671D01*
X71304750Y-48563269D01*
X71318386Y-48553156D01*
X71332948Y-48544428D01*
X71348296Y-48537169D01*
X71364281Y-48531449D01*
X71380749Y-48527324D01*
X71397543Y-48524833D01*
X71414500Y-48524000D01*
X71760500Y-48524000D01*
X71777457Y-48524833D01*
G37*
G36*
X91606957Y-64653833D02*
G01*
X91623751Y-64656324D01*
X91640219Y-64660449D01*
X91656204Y-64666169D01*
X91671552Y-64673428D01*
X91686114Y-64682156D01*
X91699750Y-64692269D01*
X91712329Y-64703671D01*
X91723731Y-64716250D01*
X91733844Y-64729886D01*
X91742572Y-64744448D01*
X91749831Y-64759796D01*
X91755551Y-64775781D01*
X91759676Y-64792249D01*
X91762167Y-64809043D01*
X91763000Y-64826000D01*
X91763000Y-65222000D01*
X91762167Y-65238957D01*
X91759676Y-65255751D01*
X91755551Y-65272219D01*
X91749831Y-65288204D01*
X91742572Y-65303552D01*
X91733844Y-65318114D01*
X91723731Y-65331750D01*
X91712329Y-65344329D01*
X91699750Y-65355731D01*
X91686114Y-65365844D01*
X91671552Y-65374572D01*
X91656204Y-65381831D01*
X91640219Y-65387551D01*
X91623751Y-65391676D01*
X91606957Y-65394167D01*
X91590000Y-65395000D01*
X91244000Y-65395000D01*
X91227043Y-65394167D01*
X91210249Y-65391676D01*
X91193781Y-65387551D01*
X91177796Y-65381831D01*
X91162448Y-65374572D01*
X91147886Y-65365844D01*
X91134250Y-65355731D01*
X91121671Y-65344329D01*
X91110269Y-65331750D01*
X91100156Y-65318114D01*
X91091428Y-65303552D01*
X91084169Y-65288204D01*
X91078449Y-65272219D01*
X91074324Y-65255751D01*
X91071833Y-65238957D01*
X91071000Y-65222000D01*
X91071000Y-64826000D01*
X91071833Y-64809043D01*
X91074324Y-64792249D01*
X91078449Y-64775781D01*
X91084169Y-64759796D01*
X91091428Y-64744448D01*
X91100156Y-64729886D01*
X91110269Y-64716250D01*
X91121671Y-64703671D01*
X91134250Y-64692269D01*
X91147886Y-64682156D01*
X91162448Y-64673428D01*
X91177796Y-64666169D01*
X91193781Y-64660449D01*
X91210249Y-64656324D01*
X91227043Y-64653833D01*
X91244000Y-64653000D01*
X91590000Y-64653000D01*
X91606957Y-64653833D01*
G37*
G36*
X90636957Y-64653833D02*
G01*
X90653751Y-64656324D01*
X90670219Y-64660449D01*
X90686204Y-64666169D01*
X90701552Y-64673428D01*
X90716114Y-64682156D01*
X90729750Y-64692269D01*
X90742329Y-64703671D01*
X90753731Y-64716250D01*
X90763844Y-64729886D01*
X90772572Y-64744448D01*
X90779831Y-64759796D01*
X90785551Y-64775781D01*
X90789676Y-64792249D01*
X90792167Y-64809043D01*
X90793000Y-64826000D01*
X90793000Y-65222000D01*
X90792167Y-65238957D01*
X90789676Y-65255751D01*
X90785551Y-65272219D01*
X90779831Y-65288204D01*
X90772572Y-65303552D01*
X90763844Y-65318114D01*
X90753731Y-65331750D01*
X90742329Y-65344329D01*
X90729750Y-65355731D01*
X90716114Y-65365844D01*
X90701552Y-65374572D01*
X90686204Y-65381831D01*
X90670219Y-65387551D01*
X90653751Y-65391676D01*
X90636957Y-65394167D01*
X90620000Y-65395000D01*
X90274000Y-65395000D01*
X90257043Y-65394167D01*
X90240249Y-65391676D01*
X90223781Y-65387551D01*
X90207796Y-65381831D01*
X90192448Y-65374572D01*
X90177886Y-65365844D01*
X90164250Y-65355731D01*
X90151671Y-65344329D01*
X90140269Y-65331750D01*
X90130156Y-65318114D01*
X90121428Y-65303552D01*
X90114169Y-65288204D01*
X90108449Y-65272219D01*
X90104324Y-65255751D01*
X90101833Y-65238957D01*
X90101000Y-65222000D01*
X90101000Y-64826000D01*
X90101833Y-64809043D01*
X90104324Y-64792249D01*
X90108449Y-64775781D01*
X90114169Y-64759796D01*
X90121428Y-64744448D01*
X90130156Y-64729886D01*
X90140269Y-64716250D01*
X90151671Y-64703671D01*
X90164250Y-64692269D01*
X90177886Y-64682156D01*
X90192448Y-64673428D01*
X90207796Y-64666169D01*
X90223781Y-64660449D01*
X90240249Y-64656324D01*
X90257043Y-64653833D01*
X90274000Y-64653000D01*
X90620000Y-64653000D01*
X90636957Y-64653833D01*
G37*
G36*
X83399957Y-48399833D02*
G01*
X83416751Y-48402324D01*
X83433219Y-48406449D01*
X83449204Y-48412169D01*
X83464552Y-48419428D01*
X83479114Y-48428156D01*
X83492750Y-48438269D01*
X83505329Y-48449671D01*
X83516731Y-48462250D01*
X83526844Y-48475886D01*
X83535572Y-48490448D01*
X83542831Y-48505796D01*
X83548551Y-48521781D01*
X83552676Y-48538249D01*
X83555167Y-48555043D01*
X83556000Y-48572000D01*
X83556000Y-48918000D01*
X83555167Y-48934957D01*
X83552676Y-48951751D01*
X83548551Y-48968219D01*
X83542831Y-48984204D01*
X83535572Y-48999552D01*
X83526844Y-49014114D01*
X83516731Y-49027750D01*
X83505329Y-49040329D01*
X83492750Y-49051731D01*
X83479114Y-49061844D01*
X83464552Y-49070572D01*
X83449204Y-49077831D01*
X83433219Y-49083551D01*
X83416751Y-49087676D01*
X83399957Y-49090167D01*
X83383000Y-49091000D01*
X82987000Y-49091000D01*
X82970043Y-49090167D01*
X82953249Y-49087676D01*
X82936781Y-49083551D01*
X82920796Y-49077831D01*
X82905448Y-49070572D01*
X82890886Y-49061844D01*
X82877250Y-49051731D01*
X82864671Y-49040329D01*
X82853269Y-49027750D01*
X82843156Y-49014114D01*
X82834428Y-48999552D01*
X82827169Y-48984204D01*
X82821449Y-48968219D01*
X82817324Y-48951751D01*
X82814833Y-48934957D01*
X82814000Y-48918000D01*
X82814000Y-48572000D01*
X82814833Y-48555043D01*
X82817324Y-48538249D01*
X82821449Y-48521781D01*
X82827169Y-48505796D01*
X82834428Y-48490448D01*
X82843156Y-48475886D01*
X82853269Y-48462250D01*
X82864671Y-48449671D01*
X82877250Y-48438269D01*
X82890886Y-48428156D01*
X82905448Y-48419428D01*
X82920796Y-48412169D01*
X82936781Y-48406449D01*
X82953249Y-48402324D01*
X82970043Y-48399833D01*
X82987000Y-48399000D01*
X83383000Y-48399000D01*
X83399957Y-48399833D01*
G37*
G36*
X83399957Y-47429833D02*
G01*
X83416751Y-47432324D01*
X83433219Y-47436449D01*
X83449204Y-47442169D01*
X83464552Y-47449428D01*
X83479114Y-47458156D01*
X83492750Y-47468269D01*
X83505329Y-47479671D01*
X83516731Y-47492250D01*
X83526844Y-47505886D01*
X83535572Y-47520448D01*
X83542831Y-47535796D01*
X83548551Y-47551781D01*
X83552676Y-47568249D01*
X83555167Y-47585043D01*
X83556000Y-47602000D01*
X83556000Y-47948000D01*
X83555167Y-47964957D01*
X83552676Y-47981751D01*
X83548551Y-47998219D01*
X83542831Y-48014204D01*
X83535572Y-48029552D01*
X83526844Y-48044114D01*
X83516731Y-48057750D01*
X83505329Y-48070329D01*
X83492750Y-48081731D01*
X83479114Y-48091844D01*
X83464552Y-48100572D01*
X83449204Y-48107831D01*
X83433219Y-48113551D01*
X83416751Y-48117676D01*
X83399957Y-48120167D01*
X83383000Y-48121000D01*
X82987000Y-48121000D01*
X82970043Y-48120167D01*
X82953249Y-48117676D01*
X82936781Y-48113551D01*
X82920796Y-48107831D01*
X82905448Y-48100572D01*
X82890886Y-48091844D01*
X82877250Y-48081731D01*
X82864671Y-48070329D01*
X82853269Y-48057750D01*
X82843156Y-48044114D01*
X82834428Y-48029552D01*
X82827169Y-48014204D01*
X82821449Y-47998219D01*
X82817324Y-47981751D01*
X82814833Y-47964957D01*
X82814000Y-47948000D01*
X82814000Y-47602000D01*
X82814833Y-47585043D01*
X82817324Y-47568249D01*
X82821449Y-47551781D01*
X82827169Y-47535796D01*
X82834428Y-47520448D01*
X82843156Y-47505886D01*
X82853269Y-47492250D01*
X82864671Y-47479671D01*
X82877250Y-47468269D01*
X82890886Y-47458156D01*
X82905448Y-47449428D01*
X82920796Y-47442169D01*
X82936781Y-47436449D01*
X82953249Y-47432324D01*
X82970043Y-47429833D01*
X82987000Y-47429000D01*
X83383000Y-47429000D01*
X83399957Y-47429833D01*
G37*
D30*
X71500000Y-68255000D03*
X71500000Y-66985000D03*
X71500000Y-65715000D03*
X71500000Y-64445000D03*
X71500000Y-63175000D03*
X71500000Y-61905000D03*
X71500000Y-60635000D03*
X71500000Y-59365000D03*
X71500000Y-58095000D03*
X71500000Y-56825000D03*
X71500000Y-55555000D03*
X71500000Y-54285000D03*
X71500000Y-53015000D03*
X71500000Y-51745000D03*
D31*
X74285000Y-50745000D03*
X75555000Y-50745000D03*
X76825000Y-50745000D03*
X78095000Y-50745000D03*
X79365000Y-50745000D03*
X80635000Y-50745000D03*
X81905000Y-50745000D03*
X83175000Y-50745000D03*
X84445000Y-50745000D03*
X85715000Y-50745000D03*
D30*
X88500000Y-51745000D03*
X88500000Y-53015000D03*
X88500000Y-54285000D03*
X88500000Y-55555000D03*
X88500000Y-56825000D03*
X88500000Y-58095000D03*
X88500000Y-59365000D03*
X88500000Y-60635000D03*
X88500000Y-61905000D03*
X88500000Y-63175000D03*
X88500000Y-64445000D03*
X88500000Y-65715000D03*
X88500000Y-66985000D03*
X88500000Y-68255000D03*
D32*
X81000000Y-60755000D03*
M02*
