M48
; DRILL file {KiCad (5.1.5)-3} date 11/9/2021 9:42:01 PM
; FORMAT={-:-/ absolute / metric / decimal}
; #@! TF.CreationDate,2021-11-09T21:42:01-05:00
; #@! TF.GenerationSoftware,Kicad,Pcbnew,(5.1.5)-3
; #@! TF.FileFunction,Plated,1,4,PTH
FMAT,2
METRIC
T1C0.300
T2C0.400
T3C0.800
T4C1.001
%
G90
G05
T1
X70.739Y-49.149
X71.819Y-70.739
X72.2Y-53.023
X72.2Y-56.832
X72.2Y-58.102
X72.2Y-59.372
X73.66Y-74.867
X73.7Y-88.799
X73.7Y-90.199
X73.7Y-92.999
X73.914Y-74.041
X75.438Y-85.979
X75.501Y-87.249
X76.263Y-81.471
X76.454Y-71.945
X76.962Y-67.754
X76.962Y-87.884
X77.153Y-63.817
X77.533Y-69.469
X77.597Y-44.005
X77.597Y-87.122
X78.105Y-64.262
X78.105Y-78.93
X78.232Y-80.01
X78.359Y-45.021
X78.422Y-44.069
X78.524Y-45.936
X79.883Y-47.625
X79.947Y-46.99
X81.534Y-69.596
X81.661Y-78.041
X82.233Y-77.406
X82.296Y-48.133
X82.359Y-43.561
X82.423Y-42.926
X83.248Y-63.817
X84.138Y-59.753
X84.772Y-49.022
X84.836Y-60.198
X87.63Y-65.722
X87.694Y-53.023
X87.694Y-54.292
X87.694Y-55.562
X88.5Y-51.745
X88.5Y-56.825
X92.011Y-63.182
T2
X68.453Y-57.848
X70.866Y-47.561
X72.834Y-83.312
X73.406Y-64.77
X74.676Y-70.612
X76.073Y-94.488
X76.2Y-53.34
X76.2Y-59.69
X77.279Y-48.641
X77.343Y-42.926
X78.041Y-77.724
X79.248Y-76.2
X79.502Y-90.043
X80.01Y-54.61
X80.01Y-58.42
X80.01Y-62.23
X80.01Y-66.04
X80.264Y-81.026
X81.915Y-79.248
X82.233Y-44.767
X82.55Y-54.61
X82.55Y-58.42
X82.55Y-62.23
X82.804Y-94.361
X84.391Y-87.439
X84.391Y-90.233
X85.407Y-40.831
X86.169Y-67.437
X86.169Y-68.961
X86.36Y-49.784
X86.423Y-93.027
X86.804Y-82.74
X87.176Y-72.444
X87.376Y-73.406
X88.963Y-48.069
X90.551Y-55.372
T3
X77.165Y-41.148
X79.165Y-41.148
X81.165Y-41.148
X83.165Y-41.148
X68.58Y-60.294
X68.58Y-62.294
X68.58Y-64.294
X68.58Y-66.294
X91.694Y-58.452
X91.694Y-60.452
T4
X88.0Y-41.351
X88.0Y-45.161
X91.694Y-68.58
X91.694Y-72.39
X72.0Y-76.464
X72.0Y-80.274
X72.0Y-41.361
X72.0Y-45.171
X88.0Y-76.454
X88.0Y-80.264
T0
M30
