G04 #@! TF.GenerationSoftware,KiCad,Pcbnew,(5.1.5)-3*
G04 #@! TF.CreationDate,2021-11-09T21:41:46-05:00*
G04 #@! TF.ProjectId,MotorDriver,4d6f746f-7244-4726-9976-65722e6b6963,rev?*
G04 #@! TF.SameCoordinates,Original*
G04 #@! TF.FileFunction,Soldermask,Top*
G04 #@! TF.FilePolarity,Negative*
%FSLAX46Y46*%
G04 Gerber Fmt 4.6, Leading zero omitted, Abs format (unit mm)*
G04 Created by KiCad (PCBNEW (5.1.5)-3) date 2021-11-09 21:41:46*
%MOMM*%
%LPD*%
G04 APERTURE LIST*
%ADD10C,0.100000*%
G04 APERTURE END LIST*
D10*
G36*
X87576000Y-96349800D02*
G01*
X85024000Y-96349800D01*
X85024000Y-95247800D01*
X87576000Y-95247800D01*
X87576000Y-96349800D01*
G37*
G36*
X74976000Y-96349800D02*
G01*
X72424000Y-96349800D01*
X72424000Y-95247800D01*
X74976000Y-95247800D01*
X74976000Y-96349800D01*
G37*
G36*
X74976000Y-94949800D02*
G01*
X72424000Y-94949800D01*
X72424000Y-93847800D01*
X74976000Y-93847800D01*
X74976000Y-94949800D01*
G37*
G36*
X87576000Y-94949800D02*
G01*
X85024000Y-94949800D01*
X85024000Y-93847800D01*
X87576000Y-93847800D01*
X87576000Y-94949800D01*
G37*
G36*
X87576000Y-93549800D02*
G01*
X85024000Y-93549800D01*
X85024000Y-92447800D01*
X87576000Y-92447800D01*
X87576000Y-93549800D01*
G37*
G36*
X74976000Y-93549800D02*
G01*
X72424000Y-93549800D01*
X72424000Y-92447800D01*
X74976000Y-92447800D01*
X74976000Y-93549800D01*
G37*
G36*
X74976000Y-92149800D02*
G01*
X72424000Y-92149800D01*
X72424000Y-91047800D01*
X74976000Y-91047800D01*
X74976000Y-92149800D01*
G37*
G36*
X87576000Y-92149800D02*
G01*
X85024000Y-92149800D01*
X85024000Y-91047800D01*
X87576000Y-91047800D01*
X87576000Y-92149800D01*
G37*
G36*
X87576000Y-90749800D02*
G01*
X85024000Y-90749800D01*
X85024000Y-89647800D01*
X87576000Y-89647800D01*
X87576000Y-90749800D01*
G37*
G36*
X74976000Y-90749800D02*
G01*
X72424000Y-90749800D01*
X72424000Y-89647800D01*
X74976000Y-89647800D01*
X74976000Y-90749800D01*
G37*
G36*
X74976000Y-89349800D02*
G01*
X72424000Y-89349800D01*
X72424000Y-88247800D01*
X74976000Y-88247800D01*
X74976000Y-89349800D01*
G37*
G36*
X87576000Y-89349800D02*
G01*
X85024000Y-89349800D01*
X85024000Y-88247800D01*
X87576000Y-88247800D01*
X87576000Y-89349800D01*
G37*
G36*
X74976000Y-87951000D02*
G01*
X72424000Y-87951000D01*
X72424000Y-86849000D01*
X74976000Y-86849000D01*
X74976000Y-87951000D01*
G37*
G36*
X87576000Y-87949800D02*
G01*
X85024000Y-87949800D01*
X85024000Y-86847800D01*
X87576000Y-86847800D01*
X87576000Y-87949800D01*
G37*
G36*
X74976000Y-86551000D02*
G01*
X72424000Y-86551000D01*
X72424000Y-85449000D01*
X74976000Y-85449000D01*
X74976000Y-86551000D01*
G37*
G36*
X87576000Y-86549800D02*
G01*
X85024000Y-86549800D01*
X85024000Y-85447800D01*
X87576000Y-85447800D01*
X87576000Y-86549800D01*
G37*
G36*
X77051000Y-84979800D02*
G01*
X75949000Y-84979800D01*
X75949000Y-82427800D01*
X77051000Y-82427800D01*
X77051000Y-84979800D01*
G37*
G36*
X85451000Y-84979800D02*
G01*
X84349000Y-84979800D01*
X84349000Y-82427800D01*
X85451000Y-82427800D01*
X85451000Y-84979800D01*
G37*
G36*
X84051000Y-84979800D02*
G01*
X82949000Y-84979800D01*
X82949000Y-82427800D01*
X84051000Y-82427800D01*
X84051000Y-84979800D01*
G37*
G36*
X82651000Y-84979800D02*
G01*
X81549000Y-84979800D01*
X81549000Y-82427800D01*
X82651000Y-82427800D01*
X82651000Y-84979800D01*
G37*
G36*
X81251000Y-84979800D02*
G01*
X80149000Y-84979800D01*
X80149000Y-82427800D01*
X81251000Y-82427800D01*
X81251000Y-84979800D01*
G37*
G36*
X79851000Y-84979800D02*
G01*
X78749000Y-84979800D01*
X78749000Y-82427800D01*
X79851000Y-82427800D01*
X79851000Y-84979800D01*
G37*
G36*
X78451000Y-84979800D02*
G01*
X77349000Y-84979800D01*
X77349000Y-82427800D01*
X78451000Y-82427800D01*
X78451000Y-84979800D01*
G37*
G36*
X75651000Y-84979800D02*
G01*
X74549000Y-84979800D01*
X74549000Y-82427800D01*
X75651000Y-82427800D01*
X75651000Y-84979800D01*
G37*
G36*
X83291938Y-81038716D02*
G01*
X83312557Y-81044971D01*
X83331553Y-81055124D01*
X83348208Y-81068792D01*
X83361876Y-81085447D01*
X83372029Y-81104443D01*
X83378284Y-81125062D01*
X83381000Y-81152640D01*
X83381000Y-81661360D01*
X83378284Y-81688938D01*
X83372029Y-81709557D01*
X83361876Y-81728553D01*
X83348208Y-81745208D01*
X83331553Y-81758876D01*
X83312557Y-81769029D01*
X83291938Y-81775284D01*
X83264360Y-81778000D01*
X82805640Y-81778000D01*
X82778062Y-81775284D01*
X82757443Y-81769029D01*
X82738447Y-81758876D01*
X82721792Y-81745208D01*
X82708124Y-81728553D01*
X82697971Y-81709557D01*
X82691716Y-81688938D01*
X82689000Y-81661360D01*
X82689000Y-81152640D01*
X82691716Y-81125062D01*
X82697971Y-81104443D01*
X82708124Y-81085447D01*
X82721792Y-81068792D01*
X82738447Y-81055124D01*
X82757443Y-81044971D01*
X82778062Y-81038716D01*
X82805640Y-81036000D01*
X83264360Y-81036000D01*
X83291938Y-81038716D01*
G37*
G36*
X82321938Y-81038716D02*
G01*
X82342557Y-81044971D01*
X82361553Y-81055124D01*
X82378208Y-81068792D01*
X82391876Y-81085447D01*
X82402029Y-81104443D01*
X82408284Y-81125062D01*
X82411000Y-81152640D01*
X82411000Y-81661360D01*
X82408284Y-81688938D01*
X82402029Y-81709557D01*
X82391876Y-81728553D01*
X82378208Y-81745208D01*
X82361553Y-81758876D01*
X82342557Y-81769029D01*
X82321938Y-81775284D01*
X82294360Y-81778000D01*
X81835640Y-81778000D01*
X81808062Y-81775284D01*
X81787443Y-81769029D01*
X81768447Y-81758876D01*
X81751792Y-81745208D01*
X81738124Y-81728553D01*
X81727971Y-81709557D01*
X81721716Y-81688938D01*
X81719000Y-81661360D01*
X81719000Y-81152640D01*
X81721716Y-81125062D01*
X81727971Y-81104443D01*
X81738124Y-81085447D01*
X81751792Y-81068792D01*
X81768447Y-81055124D01*
X81787443Y-81044971D01*
X81808062Y-81038716D01*
X81835640Y-81036000D01*
X82294360Y-81036000D01*
X82321938Y-81038716D01*
G37*
G36*
X85371938Y-80913716D02*
G01*
X85392557Y-80919971D01*
X85411553Y-80930124D01*
X85428208Y-80943792D01*
X85441876Y-80960447D01*
X85452029Y-80979443D01*
X85458284Y-81000062D01*
X85461000Y-81027640D01*
X85461000Y-81486360D01*
X85458284Y-81513938D01*
X85452029Y-81534557D01*
X85441876Y-81553553D01*
X85428208Y-81570208D01*
X85411553Y-81583876D01*
X85392557Y-81594029D01*
X85371938Y-81600284D01*
X85344360Y-81603000D01*
X84835640Y-81603000D01*
X84808062Y-81600284D01*
X84787443Y-81594029D01*
X84768447Y-81583876D01*
X84751792Y-81570208D01*
X84738124Y-81553553D01*
X84727971Y-81534557D01*
X84721716Y-81513938D01*
X84719000Y-81486360D01*
X84719000Y-81027640D01*
X84721716Y-81000062D01*
X84727971Y-80979443D01*
X84738124Y-80960447D01*
X84751792Y-80943792D01*
X84768447Y-80930124D01*
X84787443Y-80919971D01*
X84808062Y-80913716D01*
X84835640Y-80911000D01*
X85344360Y-80911000D01*
X85371938Y-80913716D01*
G37*
G36*
X73300680Y-81574680D02*
G01*
X70699320Y-81574680D01*
X70699320Y-78973320D01*
X73300680Y-78973320D01*
X73300680Y-81574680D01*
G37*
G36*
X88379393Y-79013304D02*
G01*
X88616101Y-79111352D01*
X88616103Y-79111353D01*
X88829135Y-79253696D01*
X89010304Y-79434865D01*
X89152647Y-79647897D01*
X89152648Y-79647899D01*
X89250696Y-79884607D01*
X89300680Y-80135893D01*
X89300680Y-80392107D01*
X89250696Y-80643393D01*
X89152648Y-80880101D01*
X89152647Y-80880103D01*
X89010304Y-81093135D01*
X88829135Y-81274304D01*
X88616103Y-81416647D01*
X88616102Y-81416648D01*
X88616101Y-81416648D01*
X88379393Y-81514696D01*
X88128107Y-81564680D01*
X87871893Y-81564680D01*
X87620607Y-81514696D01*
X87383899Y-81416648D01*
X87383898Y-81416648D01*
X87383897Y-81416647D01*
X87170865Y-81274304D01*
X86989696Y-81093135D01*
X86847353Y-80880103D01*
X86847352Y-80880101D01*
X86749304Y-80643393D01*
X86699320Y-80392107D01*
X86699320Y-80135893D01*
X86749304Y-79884607D01*
X86847352Y-79647899D01*
X86847353Y-79647897D01*
X86989696Y-79434865D01*
X87170865Y-79253696D01*
X87383897Y-79111353D01*
X87383899Y-79111352D01*
X87620607Y-79013304D01*
X87871893Y-78963320D01*
X88128107Y-78963320D01*
X88379393Y-79013304D01*
G37*
G36*
X77322938Y-80086216D02*
G01*
X77343557Y-80092471D01*
X77362553Y-80102624D01*
X77379208Y-80116292D01*
X77392876Y-80132947D01*
X77403029Y-80151943D01*
X77409284Y-80172562D01*
X77412000Y-80200140D01*
X77412000Y-80708860D01*
X77409284Y-80736438D01*
X77403029Y-80757057D01*
X77392876Y-80776053D01*
X77379208Y-80792708D01*
X77362553Y-80806376D01*
X77343557Y-80816529D01*
X77322938Y-80822784D01*
X77295360Y-80825500D01*
X76836640Y-80825500D01*
X76809062Y-80822784D01*
X76788443Y-80816529D01*
X76769447Y-80806376D01*
X76752792Y-80792708D01*
X76739124Y-80776053D01*
X76728971Y-80757057D01*
X76722716Y-80736438D01*
X76720000Y-80708860D01*
X76720000Y-80200140D01*
X76722716Y-80172562D01*
X76728971Y-80151943D01*
X76739124Y-80132947D01*
X76752792Y-80116292D01*
X76769447Y-80102624D01*
X76788443Y-80092471D01*
X76809062Y-80086216D01*
X76836640Y-80083500D01*
X77295360Y-80083500D01*
X77322938Y-80086216D01*
G37*
G36*
X76352938Y-80086216D02*
G01*
X76373557Y-80092471D01*
X76392553Y-80102624D01*
X76409208Y-80116292D01*
X76422876Y-80132947D01*
X76433029Y-80151943D01*
X76439284Y-80172562D01*
X76442000Y-80200140D01*
X76442000Y-80708860D01*
X76439284Y-80736438D01*
X76433029Y-80757057D01*
X76422876Y-80776053D01*
X76409208Y-80792708D01*
X76392553Y-80806376D01*
X76373557Y-80816529D01*
X76352938Y-80822784D01*
X76325360Y-80825500D01*
X75866640Y-80825500D01*
X75839062Y-80822784D01*
X75818443Y-80816529D01*
X75799447Y-80806376D01*
X75782792Y-80792708D01*
X75769124Y-80776053D01*
X75758971Y-80757057D01*
X75752716Y-80736438D01*
X75750000Y-80708860D01*
X75750000Y-80200140D01*
X75752716Y-80172562D01*
X75758971Y-80151943D01*
X75769124Y-80132947D01*
X75782792Y-80116292D01*
X75799447Y-80102624D01*
X75818443Y-80092471D01*
X75839062Y-80086216D01*
X75866640Y-80083500D01*
X76325360Y-80083500D01*
X76352938Y-80086216D01*
G37*
G36*
X83291938Y-80022716D02*
G01*
X83312557Y-80028971D01*
X83331553Y-80039124D01*
X83348208Y-80052792D01*
X83361876Y-80069447D01*
X83372029Y-80088443D01*
X83378284Y-80109062D01*
X83381000Y-80136640D01*
X83381000Y-80645360D01*
X83378284Y-80672938D01*
X83372029Y-80693557D01*
X83361876Y-80712553D01*
X83348208Y-80729208D01*
X83331553Y-80742876D01*
X83312557Y-80753029D01*
X83291938Y-80759284D01*
X83264360Y-80762000D01*
X82805640Y-80762000D01*
X82778062Y-80759284D01*
X82757443Y-80753029D01*
X82738447Y-80742876D01*
X82721792Y-80729208D01*
X82708124Y-80712553D01*
X82697971Y-80693557D01*
X82691716Y-80672938D01*
X82689000Y-80645360D01*
X82689000Y-80136640D01*
X82691716Y-80109062D01*
X82697971Y-80088443D01*
X82708124Y-80069447D01*
X82721792Y-80052792D01*
X82738447Y-80039124D01*
X82757443Y-80028971D01*
X82778062Y-80022716D01*
X82805640Y-80020000D01*
X83264360Y-80020000D01*
X83291938Y-80022716D01*
G37*
G36*
X82321938Y-80022716D02*
G01*
X82342557Y-80028971D01*
X82361553Y-80039124D01*
X82378208Y-80052792D01*
X82391876Y-80069447D01*
X82402029Y-80088443D01*
X82408284Y-80109062D01*
X82411000Y-80136640D01*
X82411000Y-80645360D01*
X82408284Y-80672938D01*
X82402029Y-80693557D01*
X82391876Y-80712553D01*
X82378208Y-80729208D01*
X82361553Y-80742876D01*
X82342557Y-80753029D01*
X82321938Y-80759284D01*
X82294360Y-80762000D01*
X81835640Y-80762000D01*
X81808062Y-80759284D01*
X81787443Y-80753029D01*
X81768447Y-80742876D01*
X81751792Y-80729208D01*
X81738124Y-80712553D01*
X81727971Y-80693557D01*
X81721716Y-80672938D01*
X81719000Y-80645360D01*
X81719000Y-80136640D01*
X81721716Y-80109062D01*
X81727971Y-80088443D01*
X81738124Y-80069447D01*
X81751792Y-80052792D01*
X81768447Y-80039124D01*
X81787443Y-80028971D01*
X81808062Y-80022716D01*
X81835640Y-80020000D01*
X82294360Y-80020000D01*
X82321938Y-80022716D01*
G37*
G36*
X85371938Y-79943716D02*
G01*
X85392557Y-79949971D01*
X85411553Y-79960124D01*
X85428208Y-79973792D01*
X85441876Y-79990447D01*
X85452029Y-80009443D01*
X85458284Y-80030062D01*
X85461000Y-80057640D01*
X85461000Y-80516360D01*
X85458284Y-80543938D01*
X85452029Y-80564557D01*
X85441876Y-80583553D01*
X85428208Y-80600208D01*
X85411553Y-80613876D01*
X85392557Y-80624029D01*
X85371938Y-80630284D01*
X85344360Y-80633000D01*
X84835640Y-80633000D01*
X84808062Y-80630284D01*
X84787443Y-80624029D01*
X84768447Y-80613876D01*
X84751792Y-80600208D01*
X84738124Y-80583553D01*
X84727971Y-80564557D01*
X84721716Y-80543938D01*
X84719000Y-80516360D01*
X84719000Y-80057640D01*
X84721716Y-80030062D01*
X84727971Y-80009443D01*
X84738124Y-79990447D01*
X84751792Y-79973792D01*
X84768447Y-79960124D01*
X84787443Y-79949971D01*
X84808062Y-79943716D01*
X84835640Y-79941000D01*
X85344360Y-79941000D01*
X85371938Y-79943716D01*
G37*
G36*
X75333611Y-77548389D02*
G01*
X75352553Y-77563934D01*
X75374164Y-77575485D01*
X75397613Y-77582598D01*
X75421999Y-77585000D01*
X76470001Y-77585000D01*
X76494387Y-77582598D01*
X76517836Y-77575485D01*
X76539447Y-77563934D01*
X76558389Y-77548389D01*
X76569377Y-77535000D01*
X77397000Y-77535000D01*
X77397000Y-79437000D01*
X76569377Y-79437000D01*
X76558389Y-79423611D01*
X76539447Y-79408066D01*
X76517836Y-79396515D01*
X76494387Y-79389402D01*
X76470001Y-79387000D01*
X75421999Y-79387000D01*
X75397613Y-79389402D01*
X75374164Y-79396515D01*
X75352553Y-79408066D01*
X75333611Y-79423611D01*
X75322623Y-79437000D01*
X74495000Y-79437000D01*
X74495000Y-77535000D01*
X75322623Y-77535000D01*
X75333611Y-77548389D01*
G37*
G36*
X83461611Y-77548389D02*
G01*
X83480553Y-77563934D01*
X83502164Y-77575485D01*
X83525613Y-77582598D01*
X83549999Y-77585000D01*
X84598001Y-77585000D01*
X84622387Y-77582598D01*
X84645836Y-77575485D01*
X84667447Y-77563934D01*
X84686389Y-77548389D01*
X84697377Y-77535000D01*
X85525000Y-77535000D01*
X85525000Y-79437000D01*
X84697377Y-79437000D01*
X84686389Y-79423611D01*
X84667447Y-79408066D01*
X84645836Y-79396515D01*
X84622387Y-79389402D01*
X84598001Y-79387000D01*
X83549999Y-79387000D01*
X83525613Y-79389402D01*
X83502164Y-79396515D01*
X83480553Y-79408066D01*
X83461611Y-79423611D01*
X83450623Y-79437000D01*
X82623000Y-79437000D01*
X82623000Y-77535000D01*
X83450623Y-77535000D01*
X83461611Y-77548389D01*
G37*
G36*
X72379393Y-75213304D02*
G01*
X72605746Y-75307063D01*
X72616103Y-75311353D01*
X72829135Y-75453696D01*
X73010304Y-75634865D01*
X73152647Y-75847897D01*
X73152648Y-75847899D01*
X73250696Y-76084607D01*
X73300680Y-76335893D01*
X73300680Y-76592107D01*
X73250696Y-76843393D01*
X73211164Y-76938831D01*
X73152647Y-77080103D01*
X73010304Y-77293135D01*
X72829135Y-77474304D01*
X72616103Y-77616647D01*
X72616102Y-77616648D01*
X72616101Y-77616648D01*
X72379393Y-77714696D01*
X72128107Y-77764680D01*
X71871893Y-77764680D01*
X71620607Y-77714696D01*
X71383899Y-77616648D01*
X71383898Y-77616648D01*
X71383897Y-77616647D01*
X71170865Y-77474304D01*
X70989696Y-77293135D01*
X70847353Y-77080103D01*
X70788836Y-76938831D01*
X70749304Y-76843393D01*
X70699320Y-76592107D01*
X70699320Y-76335893D01*
X70749304Y-76084607D01*
X70847352Y-75847899D01*
X70847353Y-75847897D01*
X70989696Y-75634865D01*
X71170865Y-75453696D01*
X71383897Y-75311353D01*
X71394254Y-75307063D01*
X71620607Y-75213304D01*
X71871893Y-75163320D01*
X72128107Y-75163320D01*
X72379393Y-75213304D01*
G37*
G36*
X89300680Y-77754680D02*
G01*
X86699320Y-77754680D01*
X86699320Y-75153320D01*
X89300680Y-75153320D01*
X89300680Y-77754680D01*
G37*
G36*
X78211938Y-76212716D02*
G01*
X78232557Y-76218971D01*
X78251553Y-76229124D01*
X78268208Y-76242792D01*
X78281876Y-76259447D01*
X78292029Y-76278443D01*
X78298284Y-76299062D01*
X78301000Y-76326640D01*
X78301000Y-76835360D01*
X78298284Y-76862938D01*
X78292029Y-76883557D01*
X78281876Y-76902553D01*
X78268208Y-76919208D01*
X78251553Y-76932876D01*
X78232557Y-76943029D01*
X78211938Y-76949284D01*
X78184360Y-76952000D01*
X77725640Y-76952000D01*
X77698062Y-76949284D01*
X77677443Y-76943029D01*
X77658447Y-76932876D01*
X77641792Y-76919208D01*
X77628124Y-76902553D01*
X77617971Y-76883557D01*
X77611716Y-76862938D01*
X77609000Y-76835360D01*
X77609000Y-76326640D01*
X77611716Y-76299062D01*
X77617971Y-76278443D01*
X77628124Y-76259447D01*
X77641792Y-76242792D01*
X77658447Y-76229124D01*
X77677443Y-76218971D01*
X77698062Y-76212716D01*
X77725640Y-76210000D01*
X78184360Y-76210000D01*
X78211938Y-76212716D01*
G37*
G36*
X77241938Y-76212716D02*
G01*
X77262557Y-76218971D01*
X77281553Y-76229124D01*
X77298208Y-76242792D01*
X77311876Y-76259447D01*
X77322029Y-76278443D01*
X77328284Y-76299062D01*
X77331000Y-76326640D01*
X77331000Y-76835360D01*
X77328284Y-76862938D01*
X77322029Y-76883557D01*
X77311876Y-76902553D01*
X77298208Y-76919208D01*
X77281553Y-76932876D01*
X77262557Y-76943029D01*
X77241938Y-76949284D01*
X77214360Y-76952000D01*
X76755640Y-76952000D01*
X76728062Y-76949284D01*
X76707443Y-76943029D01*
X76688447Y-76932876D01*
X76671792Y-76919208D01*
X76658124Y-76902553D01*
X76647971Y-76883557D01*
X76641716Y-76862938D01*
X76639000Y-76835360D01*
X76639000Y-76326640D01*
X76641716Y-76299062D01*
X76647971Y-76278443D01*
X76658124Y-76259447D01*
X76671792Y-76242792D01*
X76688447Y-76229124D01*
X76707443Y-76218971D01*
X76728062Y-76212716D01*
X76755640Y-76210000D01*
X77214360Y-76210000D01*
X77241938Y-76212716D01*
G37*
G36*
X75544938Y-76212716D02*
G01*
X75565557Y-76218971D01*
X75584553Y-76229124D01*
X75601208Y-76242792D01*
X75614876Y-76259447D01*
X75625029Y-76278443D01*
X75631284Y-76299062D01*
X75634000Y-76326640D01*
X75634000Y-76835360D01*
X75631284Y-76862938D01*
X75625029Y-76883557D01*
X75614876Y-76902553D01*
X75601208Y-76919208D01*
X75584553Y-76932876D01*
X75565557Y-76943029D01*
X75544938Y-76949284D01*
X75517360Y-76952000D01*
X75058640Y-76952000D01*
X75031062Y-76949284D01*
X75010443Y-76943029D01*
X74991447Y-76932876D01*
X74974792Y-76919208D01*
X74961124Y-76902553D01*
X74950971Y-76883557D01*
X74944716Y-76862938D01*
X74942000Y-76835360D01*
X74942000Y-76326640D01*
X74944716Y-76299062D01*
X74950971Y-76278443D01*
X74961124Y-76259447D01*
X74974792Y-76242792D01*
X74991447Y-76229124D01*
X75010443Y-76218971D01*
X75031062Y-76212716D01*
X75058640Y-76210000D01*
X75517360Y-76210000D01*
X75544938Y-76212716D01*
G37*
G36*
X74574938Y-76212716D02*
G01*
X74595557Y-76218971D01*
X74614553Y-76229124D01*
X74631208Y-76242792D01*
X74644876Y-76259447D01*
X74655029Y-76278443D01*
X74661284Y-76299062D01*
X74664000Y-76326640D01*
X74664000Y-76835360D01*
X74661284Y-76862938D01*
X74655029Y-76883557D01*
X74644876Y-76902553D01*
X74631208Y-76919208D01*
X74614553Y-76932876D01*
X74595557Y-76943029D01*
X74574938Y-76949284D01*
X74547360Y-76952000D01*
X74088640Y-76952000D01*
X74061062Y-76949284D01*
X74040443Y-76943029D01*
X74021447Y-76932876D01*
X74004792Y-76919208D01*
X73991124Y-76902553D01*
X73980971Y-76883557D01*
X73974716Y-76862938D01*
X73972000Y-76835360D01*
X73972000Y-76326640D01*
X73974716Y-76299062D01*
X73980971Y-76278443D01*
X73991124Y-76259447D01*
X74004792Y-76242792D01*
X74021447Y-76229124D01*
X74040443Y-76218971D01*
X74061062Y-76212716D01*
X74088640Y-76210000D01*
X74547360Y-76210000D01*
X74574938Y-76212716D01*
G37*
G36*
X85879938Y-75579716D02*
G01*
X85900557Y-75585971D01*
X85919553Y-75596124D01*
X85936208Y-75609792D01*
X85949876Y-75626447D01*
X85960029Y-75645443D01*
X85966284Y-75666062D01*
X85969000Y-75693640D01*
X85969000Y-76152360D01*
X85966284Y-76179938D01*
X85960029Y-76200557D01*
X85949876Y-76219553D01*
X85936208Y-76236208D01*
X85919553Y-76249876D01*
X85900557Y-76260029D01*
X85879938Y-76266284D01*
X85852360Y-76269000D01*
X85343640Y-76269000D01*
X85316062Y-76266284D01*
X85295443Y-76260029D01*
X85276447Y-76249876D01*
X85259792Y-76236208D01*
X85246124Y-76219553D01*
X85235971Y-76200557D01*
X85229716Y-76179938D01*
X85227000Y-76152360D01*
X85227000Y-75693640D01*
X85229716Y-75666062D01*
X85235971Y-75645443D01*
X85246124Y-75626447D01*
X85259792Y-75609792D01*
X85276447Y-75596124D01*
X85295443Y-75585971D01*
X85316062Y-75579716D01*
X85343640Y-75577000D01*
X85852360Y-75577000D01*
X85879938Y-75579716D01*
G37*
G36*
X75882295Y-70473323D02*
G01*
X75889309Y-70475451D01*
X75903077Y-70482810D01*
X75925716Y-70492187D01*
X75949749Y-70496967D01*
X75974253Y-70496967D01*
X75998286Y-70492186D01*
X76020923Y-70482810D01*
X76034691Y-70475451D01*
X76041705Y-70473323D01*
X76055140Y-70472000D01*
X76368860Y-70472000D01*
X76382295Y-70473323D01*
X76389309Y-70475451D01*
X76403077Y-70482810D01*
X76425716Y-70492187D01*
X76449749Y-70496967D01*
X76474253Y-70496967D01*
X76498286Y-70492186D01*
X76520923Y-70482810D01*
X76534691Y-70475451D01*
X76541705Y-70473323D01*
X76555140Y-70472000D01*
X76868860Y-70472000D01*
X76882295Y-70473323D01*
X76889309Y-70475451D01*
X76903077Y-70482810D01*
X76925716Y-70492187D01*
X76949749Y-70496967D01*
X76974253Y-70496967D01*
X76998286Y-70492186D01*
X77020923Y-70482810D01*
X77034691Y-70475451D01*
X77041705Y-70473323D01*
X77055140Y-70472000D01*
X77368860Y-70472000D01*
X77382295Y-70473323D01*
X77389309Y-70475451D01*
X77403077Y-70482810D01*
X77425716Y-70492187D01*
X77449749Y-70496967D01*
X77474253Y-70496967D01*
X77498286Y-70492186D01*
X77520923Y-70482810D01*
X77534691Y-70475451D01*
X77541705Y-70473323D01*
X77555140Y-70472000D01*
X77868860Y-70472000D01*
X77882295Y-70473323D01*
X77889309Y-70475451D01*
X77903077Y-70482810D01*
X77925716Y-70492187D01*
X77949749Y-70496967D01*
X77974253Y-70496967D01*
X77998286Y-70492186D01*
X78020923Y-70482810D01*
X78034691Y-70475451D01*
X78041705Y-70473323D01*
X78055140Y-70472000D01*
X78368860Y-70472000D01*
X78382295Y-70473323D01*
X78389310Y-70475451D01*
X78395776Y-70478908D01*
X78401442Y-70483558D01*
X78406092Y-70489224D01*
X78409549Y-70495690D01*
X78411677Y-70502705D01*
X78413000Y-70516140D01*
X78413000Y-71322001D01*
X78415402Y-71346387D01*
X78422515Y-71369836D01*
X78434066Y-71391447D01*
X78449611Y-71410389D01*
X78468553Y-71425934D01*
X78490164Y-71437485D01*
X78513613Y-71444598D01*
X78537999Y-71447000D01*
X79343860Y-71447000D01*
X79357295Y-71448323D01*
X79364310Y-71450451D01*
X79370776Y-71453908D01*
X79376442Y-71458558D01*
X79381092Y-71464224D01*
X79384549Y-71470690D01*
X79386677Y-71477705D01*
X79388000Y-71491140D01*
X79388000Y-71804860D01*
X79386677Y-71818295D01*
X79384549Y-71825309D01*
X79377190Y-71839077D01*
X79367813Y-71861716D01*
X79363033Y-71885749D01*
X79363033Y-71910253D01*
X79367814Y-71934286D01*
X79377190Y-71956923D01*
X79384549Y-71970691D01*
X79386677Y-71977705D01*
X79388000Y-71991140D01*
X79388000Y-72304860D01*
X79386677Y-72318295D01*
X79384549Y-72325309D01*
X79377190Y-72339077D01*
X79367813Y-72361716D01*
X79363033Y-72385749D01*
X79363033Y-72410253D01*
X79367814Y-72434286D01*
X79377190Y-72456923D01*
X79384549Y-72470691D01*
X79386677Y-72477705D01*
X79388000Y-72491140D01*
X79388000Y-72804860D01*
X79386677Y-72818295D01*
X79384549Y-72825309D01*
X79377190Y-72839077D01*
X79367813Y-72861716D01*
X79363033Y-72885749D01*
X79363033Y-72910253D01*
X79367814Y-72934286D01*
X79377190Y-72956923D01*
X79384549Y-72970691D01*
X79386677Y-72977705D01*
X79388000Y-72991140D01*
X79388000Y-73304860D01*
X79386677Y-73318295D01*
X79384549Y-73325309D01*
X79377190Y-73339077D01*
X79367813Y-73361716D01*
X79363033Y-73385749D01*
X79363033Y-73410253D01*
X79367814Y-73434286D01*
X79377190Y-73456923D01*
X79384549Y-73470691D01*
X79386677Y-73477705D01*
X79388000Y-73491140D01*
X79388000Y-73804860D01*
X79386677Y-73818295D01*
X79384549Y-73825309D01*
X79377190Y-73839077D01*
X79367813Y-73861716D01*
X79363033Y-73885749D01*
X79363033Y-73910253D01*
X79367814Y-73934286D01*
X79377190Y-73956923D01*
X79384549Y-73970691D01*
X79386677Y-73977705D01*
X79388000Y-73991140D01*
X79388000Y-74304860D01*
X79386677Y-74318295D01*
X79384549Y-74325310D01*
X79381092Y-74331776D01*
X79376442Y-74337442D01*
X79370776Y-74342092D01*
X79364310Y-74345549D01*
X79357295Y-74347677D01*
X79343860Y-74349000D01*
X78537999Y-74349000D01*
X78513613Y-74351402D01*
X78490164Y-74358515D01*
X78468553Y-74370066D01*
X78449611Y-74385611D01*
X78434066Y-74404553D01*
X78422515Y-74426164D01*
X78415402Y-74449613D01*
X78413000Y-74473999D01*
X78413000Y-75279860D01*
X78411677Y-75293295D01*
X78409549Y-75300310D01*
X78406092Y-75306776D01*
X78401442Y-75312442D01*
X78395776Y-75317092D01*
X78389310Y-75320549D01*
X78382295Y-75322677D01*
X78368860Y-75324000D01*
X78055140Y-75324000D01*
X78041705Y-75322677D01*
X78034691Y-75320549D01*
X78020923Y-75313190D01*
X77998284Y-75303813D01*
X77974251Y-75299033D01*
X77949747Y-75299033D01*
X77925714Y-75303814D01*
X77903077Y-75313190D01*
X77889309Y-75320549D01*
X77882295Y-75322677D01*
X77868860Y-75324000D01*
X77555140Y-75324000D01*
X77541705Y-75322677D01*
X77534691Y-75320549D01*
X77520923Y-75313190D01*
X77498284Y-75303813D01*
X77474251Y-75299033D01*
X77449747Y-75299033D01*
X77425714Y-75303814D01*
X77403077Y-75313190D01*
X77389309Y-75320549D01*
X77382295Y-75322677D01*
X77368860Y-75324000D01*
X77055140Y-75324000D01*
X77041705Y-75322677D01*
X77034691Y-75320549D01*
X77020923Y-75313190D01*
X76998284Y-75303813D01*
X76974251Y-75299033D01*
X76949747Y-75299033D01*
X76925714Y-75303814D01*
X76903077Y-75313190D01*
X76889309Y-75320549D01*
X76882295Y-75322677D01*
X76868860Y-75324000D01*
X76555140Y-75324000D01*
X76541705Y-75322677D01*
X76534691Y-75320549D01*
X76520923Y-75313190D01*
X76498284Y-75303813D01*
X76474251Y-75299033D01*
X76449747Y-75299033D01*
X76425714Y-75303814D01*
X76403077Y-75313190D01*
X76389309Y-75320549D01*
X76382295Y-75322677D01*
X76368860Y-75324000D01*
X76055140Y-75324000D01*
X76041705Y-75322677D01*
X76034691Y-75320549D01*
X76020923Y-75313190D01*
X75998284Y-75303813D01*
X75974251Y-75299033D01*
X75949747Y-75299033D01*
X75925714Y-75303814D01*
X75903077Y-75313190D01*
X75889309Y-75320549D01*
X75882295Y-75322677D01*
X75868860Y-75324000D01*
X75555140Y-75324000D01*
X75541705Y-75322677D01*
X75534690Y-75320549D01*
X75528224Y-75317092D01*
X75522558Y-75312442D01*
X75517908Y-75306776D01*
X75514451Y-75300310D01*
X75512323Y-75293295D01*
X75511000Y-75279860D01*
X75511000Y-74473999D01*
X75508598Y-74449613D01*
X75501485Y-74426164D01*
X75489934Y-74404553D01*
X75474389Y-74385611D01*
X75455447Y-74370066D01*
X75433836Y-74358515D01*
X75410387Y-74351402D01*
X75386001Y-74349000D01*
X74580140Y-74349000D01*
X74566705Y-74347677D01*
X74559690Y-74345549D01*
X74553224Y-74342092D01*
X74547558Y-74337442D01*
X74542908Y-74331776D01*
X74539451Y-74325310D01*
X74537323Y-74318295D01*
X74536000Y-74304860D01*
X74536000Y-73991140D01*
X74537323Y-73977705D01*
X74539451Y-73970691D01*
X74546810Y-73956923D01*
X74556187Y-73934284D01*
X74560967Y-73910251D01*
X74560967Y-73885747D01*
X74556186Y-73861714D01*
X74546810Y-73839077D01*
X74539451Y-73825309D01*
X74537323Y-73818295D01*
X74536000Y-73804860D01*
X74536000Y-73491140D01*
X74537323Y-73477705D01*
X74539451Y-73470691D01*
X74546810Y-73456923D01*
X74556187Y-73434284D01*
X74560967Y-73410251D01*
X74560967Y-73385747D01*
X74556186Y-73361714D01*
X74546810Y-73339077D01*
X74539451Y-73325309D01*
X74537323Y-73318295D01*
X74536000Y-73304860D01*
X74536000Y-72991140D01*
X74537323Y-72977705D01*
X74539451Y-72970691D01*
X74546810Y-72956923D01*
X74556187Y-72934284D01*
X74560967Y-72910251D01*
X74560967Y-72885747D01*
X74556186Y-72861714D01*
X74546810Y-72839077D01*
X74539451Y-72825309D01*
X74537323Y-72818295D01*
X74536000Y-72804860D01*
X74536000Y-72491140D01*
X74537323Y-72477705D01*
X74539451Y-72470691D01*
X74546810Y-72456923D01*
X74556187Y-72434284D01*
X74560967Y-72410251D01*
X74560967Y-72385747D01*
X74556186Y-72361714D01*
X74546810Y-72339077D01*
X74539451Y-72325309D01*
X74537323Y-72318295D01*
X74536000Y-72304860D01*
X74536000Y-71991140D01*
X74537323Y-71977705D01*
X74539451Y-71970691D01*
X74546810Y-71956923D01*
X74556187Y-71934284D01*
X74560967Y-71910251D01*
X74560967Y-71885749D01*
X75463033Y-71885749D01*
X75463033Y-71910253D01*
X75467814Y-71934286D01*
X75477190Y-71956923D01*
X75484549Y-71970691D01*
X75486677Y-71977705D01*
X75488000Y-71991140D01*
X75488000Y-72304860D01*
X75486677Y-72318295D01*
X75484549Y-72325309D01*
X75477190Y-72339077D01*
X75467813Y-72361716D01*
X75463033Y-72385749D01*
X75463033Y-72410253D01*
X75467814Y-72434286D01*
X75477190Y-72456923D01*
X75484549Y-72470691D01*
X75486677Y-72477705D01*
X75488000Y-72491140D01*
X75488000Y-72804860D01*
X75486677Y-72818295D01*
X75484549Y-72825309D01*
X75477190Y-72839077D01*
X75467813Y-72861716D01*
X75463033Y-72885749D01*
X75463033Y-72910253D01*
X75467814Y-72934286D01*
X75477190Y-72956923D01*
X75484549Y-72970691D01*
X75486677Y-72977705D01*
X75488000Y-72991140D01*
X75488000Y-73304860D01*
X75486677Y-73318295D01*
X75484549Y-73325309D01*
X75477190Y-73339077D01*
X75467813Y-73361716D01*
X75463033Y-73385749D01*
X75463033Y-73410253D01*
X75467814Y-73434286D01*
X75477190Y-73456923D01*
X75484549Y-73470691D01*
X75486677Y-73477705D01*
X75488000Y-73491140D01*
X75488000Y-73804860D01*
X75486677Y-73818295D01*
X75484549Y-73825309D01*
X75477190Y-73839077D01*
X75467813Y-73861716D01*
X75463033Y-73885749D01*
X75463033Y-73910253D01*
X75467814Y-73934286D01*
X75477190Y-73956923D01*
X75484549Y-73970691D01*
X75486677Y-73977705D01*
X75488000Y-73991140D01*
X75488000Y-74247001D01*
X75490402Y-74271387D01*
X75497515Y-74294836D01*
X75509066Y-74316447D01*
X75524611Y-74335389D01*
X75543553Y-74350934D01*
X75565164Y-74362485D01*
X75588613Y-74369598D01*
X75612999Y-74372000D01*
X75868860Y-74372000D01*
X75882295Y-74373323D01*
X75889309Y-74375451D01*
X75903077Y-74382810D01*
X75925716Y-74392187D01*
X75949749Y-74396967D01*
X75974253Y-74396967D01*
X75998286Y-74392186D01*
X76020923Y-74382810D01*
X76034691Y-74375451D01*
X76041705Y-74373323D01*
X76055140Y-74372000D01*
X76368860Y-74372000D01*
X76382295Y-74373323D01*
X76389309Y-74375451D01*
X76403077Y-74382810D01*
X76425716Y-74392187D01*
X76449749Y-74396967D01*
X76474253Y-74396967D01*
X76498286Y-74392186D01*
X76520923Y-74382810D01*
X76534691Y-74375451D01*
X76541705Y-74373323D01*
X76555140Y-74372000D01*
X76868860Y-74372000D01*
X76882295Y-74373323D01*
X76889309Y-74375451D01*
X76903077Y-74382810D01*
X76925716Y-74392187D01*
X76949749Y-74396967D01*
X76974253Y-74396967D01*
X76998286Y-74392186D01*
X77020923Y-74382810D01*
X77034691Y-74375451D01*
X77041705Y-74373323D01*
X77055140Y-74372000D01*
X77368860Y-74372000D01*
X77382295Y-74373323D01*
X77389309Y-74375451D01*
X77403077Y-74382810D01*
X77425716Y-74392187D01*
X77449749Y-74396967D01*
X77474253Y-74396967D01*
X77498286Y-74392186D01*
X77520923Y-74382810D01*
X77534691Y-74375451D01*
X77541705Y-74373323D01*
X77555140Y-74372000D01*
X77868860Y-74372000D01*
X77882295Y-74373323D01*
X77889309Y-74375451D01*
X77903077Y-74382810D01*
X77925716Y-74392187D01*
X77949749Y-74396967D01*
X77974253Y-74396967D01*
X77998286Y-74392186D01*
X78020923Y-74382810D01*
X78034691Y-74375451D01*
X78041705Y-74373323D01*
X78055140Y-74372000D01*
X78311001Y-74372000D01*
X78335387Y-74369598D01*
X78358836Y-74362485D01*
X78380447Y-74350934D01*
X78399389Y-74335389D01*
X78414934Y-74316447D01*
X78426485Y-74294836D01*
X78433598Y-74271387D01*
X78436000Y-74247001D01*
X78436000Y-73991140D01*
X78437323Y-73977705D01*
X78439451Y-73970691D01*
X78446810Y-73956923D01*
X78456187Y-73934284D01*
X78460967Y-73910251D01*
X78460967Y-73885747D01*
X78456186Y-73861714D01*
X78446810Y-73839077D01*
X78439451Y-73825309D01*
X78437323Y-73818295D01*
X78436000Y-73804860D01*
X78436000Y-73491140D01*
X78437323Y-73477705D01*
X78439451Y-73470691D01*
X78446810Y-73456923D01*
X78456187Y-73434284D01*
X78460967Y-73410251D01*
X78460967Y-73385747D01*
X78456186Y-73361714D01*
X78446810Y-73339077D01*
X78439451Y-73325309D01*
X78437323Y-73318295D01*
X78436000Y-73304860D01*
X78436000Y-72991140D01*
X78437323Y-72977705D01*
X78439451Y-72970691D01*
X78446810Y-72956923D01*
X78456187Y-72934284D01*
X78460967Y-72910251D01*
X78460967Y-72885747D01*
X78456186Y-72861714D01*
X78446810Y-72839077D01*
X78439451Y-72825309D01*
X78437323Y-72818295D01*
X78436000Y-72804860D01*
X78436000Y-72491140D01*
X78437323Y-72477705D01*
X78439451Y-72470691D01*
X78446810Y-72456923D01*
X78456187Y-72434284D01*
X78460967Y-72410251D01*
X78460967Y-72385747D01*
X78456186Y-72361714D01*
X78446810Y-72339077D01*
X78439451Y-72325309D01*
X78437323Y-72318295D01*
X78436000Y-72304860D01*
X78436000Y-71991140D01*
X78437323Y-71977705D01*
X78439451Y-71970691D01*
X78446810Y-71956923D01*
X78456187Y-71934284D01*
X78460967Y-71910251D01*
X78460967Y-71885747D01*
X78456186Y-71861714D01*
X78446810Y-71839077D01*
X78439451Y-71825309D01*
X78437323Y-71818295D01*
X78436000Y-71804860D01*
X78436000Y-71548999D01*
X78433598Y-71524613D01*
X78426485Y-71501164D01*
X78414934Y-71479553D01*
X78399389Y-71460611D01*
X78380447Y-71445066D01*
X78358836Y-71433515D01*
X78335387Y-71426402D01*
X78311001Y-71424000D01*
X78055140Y-71424000D01*
X78041705Y-71422677D01*
X78034691Y-71420549D01*
X78020923Y-71413190D01*
X77998284Y-71403813D01*
X77974251Y-71399033D01*
X77949747Y-71399033D01*
X77925714Y-71403814D01*
X77903077Y-71413190D01*
X77889309Y-71420549D01*
X77882295Y-71422677D01*
X77868860Y-71424000D01*
X77555140Y-71424000D01*
X77541705Y-71422677D01*
X77534691Y-71420549D01*
X77520923Y-71413190D01*
X77498284Y-71403813D01*
X77474251Y-71399033D01*
X77449747Y-71399033D01*
X77425714Y-71403814D01*
X77403077Y-71413190D01*
X77389309Y-71420549D01*
X77382295Y-71422677D01*
X77368860Y-71424000D01*
X77055140Y-71424000D01*
X77041705Y-71422677D01*
X77034691Y-71420549D01*
X77020923Y-71413190D01*
X76998284Y-71403813D01*
X76974251Y-71399033D01*
X76949747Y-71399033D01*
X76925714Y-71403814D01*
X76903077Y-71413190D01*
X76889309Y-71420549D01*
X76882295Y-71422677D01*
X76868860Y-71424000D01*
X76555140Y-71424000D01*
X76541705Y-71422677D01*
X76534691Y-71420549D01*
X76520923Y-71413190D01*
X76498284Y-71403813D01*
X76474251Y-71399033D01*
X76449747Y-71399033D01*
X76425714Y-71403814D01*
X76403077Y-71413190D01*
X76389309Y-71420549D01*
X76382295Y-71422677D01*
X76368860Y-71424000D01*
X76055140Y-71424000D01*
X76041705Y-71422677D01*
X76034691Y-71420549D01*
X76020923Y-71413190D01*
X75998284Y-71403813D01*
X75974251Y-71399033D01*
X75949747Y-71399033D01*
X75925714Y-71403814D01*
X75903077Y-71413190D01*
X75889309Y-71420549D01*
X75882295Y-71422677D01*
X75868860Y-71424000D01*
X75612999Y-71424000D01*
X75588613Y-71426402D01*
X75565164Y-71433515D01*
X75543553Y-71445066D01*
X75524611Y-71460611D01*
X75509066Y-71479553D01*
X75497515Y-71501164D01*
X75490402Y-71524613D01*
X75488000Y-71548999D01*
X75488000Y-71804860D01*
X75486677Y-71818295D01*
X75484549Y-71825309D01*
X75477190Y-71839077D01*
X75467813Y-71861716D01*
X75463033Y-71885749D01*
X74560967Y-71885749D01*
X74560967Y-71885747D01*
X74556186Y-71861714D01*
X74546810Y-71839077D01*
X74539451Y-71825309D01*
X74537323Y-71818295D01*
X74536000Y-71804860D01*
X74536000Y-71491140D01*
X74537323Y-71477705D01*
X74539451Y-71470690D01*
X74542908Y-71464224D01*
X74547558Y-71458558D01*
X74553224Y-71453908D01*
X74559690Y-71450451D01*
X74566705Y-71448323D01*
X74580140Y-71447000D01*
X75386001Y-71447000D01*
X75410387Y-71444598D01*
X75433836Y-71437485D01*
X75455447Y-71425934D01*
X75474389Y-71410389D01*
X75489934Y-71391447D01*
X75501485Y-71369836D01*
X75508598Y-71346387D01*
X75511000Y-71322001D01*
X75511000Y-70516140D01*
X75512323Y-70502705D01*
X75514451Y-70495690D01*
X75517908Y-70489224D01*
X75522558Y-70483558D01*
X75528224Y-70478908D01*
X75534690Y-70475451D01*
X75541705Y-70473323D01*
X75555140Y-70472000D01*
X75868860Y-70472000D01*
X75882295Y-70473323D01*
G37*
G36*
X85879938Y-74609716D02*
G01*
X85900557Y-74615971D01*
X85919553Y-74626124D01*
X85936208Y-74639792D01*
X85949876Y-74656447D01*
X85960029Y-74675443D01*
X85966284Y-74696062D01*
X85969000Y-74723640D01*
X85969000Y-75182360D01*
X85966284Y-75209938D01*
X85960029Y-75230557D01*
X85949876Y-75249553D01*
X85936208Y-75266208D01*
X85919553Y-75279876D01*
X85900557Y-75290029D01*
X85879938Y-75296284D01*
X85852360Y-75299000D01*
X85343640Y-75299000D01*
X85316062Y-75296284D01*
X85295443Y-75290029D01*
X85276447Y-75279876D01*
X85259792Y-75266208D01*
X85246124Y-75249553D01*
X85235971Y-75230557D01*
X85229716Y-75209938D01*
X85227000Y-75182360D01*
X85227000Y-74723640D01*
X85229716Y-74696062D01*
X85235971Y-74675443D01*
X85246124Y-74656447D01*
X85259792Y-74639792D01*
X85276447Y-74626124D01*
X85295443Y-74615971D01*
X85316062Y-74609716D01*
X85343640Y-74607000D01*
X85852360Y-74607000D01*
X85879938Y-74609716D01*
G37*
G36*
X80545938Y-74309716D02*
G01*
X80566557Y-74315971D01*
X80585553Y-74326124D01*
X80602208Y-74339792D01*
X80615876Y-74356447D01*
X80626029Y-74375443D01*
X80632284Y-74396062D01*
X80635000Y-74423640D01*
X80635000Y-74882360D01*
X80632284Y-74909938D01*
X80626029Y-74930557D01*
X80615876Y-74949553D01*
X80602208Y-74966208D01*
X80585553Y-74979876D01*
X80566557Y-74990029D01*
X80545938Y-74996284D01*
X80518360Y-74999000D01*
X80009640Y-74999000D01*
X79982062Y-74996284D01*
X79961443Y-74990029D01*
X79942447Y-74979876D01*
X79925792Y-74966208D01*
X79912124Y-74949553D01*
X79901971Y-74930557D01*
X79895716Y-74909938D01*
X79893000Y-74882360D01*
X79893000Y-74423640D01*
X79895716Y-74396062D01*
X79901971Y-74375443D01*
X79912124Y-74356447D01*
X79925792Y-74339792D01*
X79942447Y-74326124D01*
X79961443Y-74315971D01*
X79982062Y-74309716D01*
X80009640Y-74307000D01*
X80518360Y-74307000D01*
X80545938Y-74309716D01*
G37*
G36*
X80545938Y-73339716D02*
G01*
X80566557Y-73345971D01*
X80585553Y-73356124D01*
X80602208Y-73369792D01*
X80615876Y-73386447D01*
X80626029Y-73405443D01*
X80632284Y-73426062D01*
X80635000Y-73453640D01*
X80635000Y-73912360D01*
X80632284Y-73939938D01*
X80626029Y-73960557D01*
X80615876Y-73979553D01*
X80602208Y-73996208D01*
X80585553Y-74009876D01*
X80566557Y-74020029D01*
X80545938Y-74026284D01*
X80518360Y-74029000D01*
X80009640Y-74029000D01*
X79982062Y-74026284D01*
X79961443Y-74020029D01*
X79942447Y-74009876D01*
X79925792Y-73996208D01*
X79912124Y-73979553D01*
X79901971Y-73960557D01*
X79895716Y-73939938D01*
X79893000Y-73912360D01*
X79893000Y-73453640D01*
X79895716Y-73426062D01*
X79901971Y-73405443D01*
X79912124Y-73386447D01*
X79925792Y-73369792D01*
X79942447Y-73356124D01*
X79961443Y-73345971D01*
X79982062Y-73339716D01*
X80009640Y-73337000D01*
X80518360Y-73337000D01*
X80545938Y-73339716D01*
G37*
G36*
X88327000Y-71368001D02*
G01*
X88329402Y-71392387D01*
X88336515Y-71415836D01*
X88348066Y-71437447D01*
X88363611Y-71456389D01*
X88382553Y-71471934D01*
X88404164Y-71483485D01*
X88427613Y-71490598D01*
X88451999Y-71493000D01*
X89327000Y-71493000D01*
X89327000Y-73795000D01*
X88451999Y-73795000D01*
X88427613Y-73797402D01*
X88404164Y-73804515D01*
X88382553Y-73816066D01*
X88363611Y-73831611D01*
X88348066Y-73850553D01*
X88336515Y-73872164D01*
X88329402Y-73895613D01*
X88327000Y-73919999D01*
X88327000Y-73970000D01*
X86425000Y-73970000D01*
X86425000Y-73919999D01*
X86422598Y-73895613D01*
X86415485Y-73872164D01*
X86403934Y-73850553D01*
X86388389Y-73831611D01*
X86369447Y-73816066D01*
X86347836Y-73804515D01*
X86324387Y-73797402D01*
X86300001Y-73795000D01*
X85425000Y-73795000D01*
X85425000Y-71493000D01*
X86300001Y-71493000D01*
X86324387Y-71490598D01*
X86347836Y-71483485D01*
X86369447Y-71471934D01*
X86388389Y-71456389D01*
X86403934Y-71437447D01*
X86415485Y-71415836D01*
X86422598Y-71392387D01*
X86425000Y-71368001D01*
X86425000Y-71318000D01*
X88327000Y-71318000D01*
X88327000Y-71368001D01*
G37*
G36*
X84459000Y-73941000D02*
G01*
X81657000Y-73941000D01*
X81657000Y-73039000D01*
X84459000Y-73039000D01*
X84459000Y-73941000D01*
G37*
G36*
X92073393Y-71139304D02*
G01*
X92310101Y-71237352D01*
X92310103Y-71237353D01*
X92523135Y-71379696D01*
X92704304Y-71560865D01*
X92824666Y-71741000D01*
X92846648Y-71773899D01*
X92944696Y-72010607D01*
X92994680Y-72261893D01*
X92994680Y-72518107D01*
X92944696Y-72769393D01*
X92851246Y-72995000D01*
X92846647Y-73006103D01*
X92704304Y-73219135D01*
X92523135Y-73400304D01*
X92310103Y-73542647D01*
X92310102Y-73542648D01*
X92310101Y-73542648D01*
X92073393Y-73640696D01*
X91822107Y-73690680D01*
X91565893Y-73690680D01*
X91314607Y-73640696D01*
X91077899Y-73542648D01*
X91077898Y-73542648D01*
X91077897Y-73542647D01*
X90864865Y-73400304D01*
X90683696Y-73219135D01*
X90541353Y-73006103D01*
X90536754Y-72995000D01*
X90443304Y-72769393D01*
X90393320Y-72518107D01*
X90393320Y-72261893D01*
X90443304Y-72010607D01*
X90541352Y-71773899D01*
X90563334Y-71741000D01*
X90683696Y-71560865D01*
X90864865Y-71379696D01*
X91077897Y-71237353D01*
X91077899Y-71237352D01*
X91314607Y-71139304D01*
X91565893Y-71089320D01*
X91822107Y-71089320D01*
X92073393Y-71139304D01*
G37*
G36*
X73941938Y-72785716D02*
G01*
X73962557Y-72791971D01*
X73981553Y-72802124D01*
X73998208Y-72815792D01*
X74011876Y-72832447D01*
X74022029Y-72851443D01*
X74028284Y-72872062D01*
X74031000Y-72899640D01*
X74031000Y-73358360D01*
X74028284Y-73385938D01*
X74022029Y-73406557D01*
X74011876Y-73425553D01*
X73998208Y-73442208D01*
X73981553Y-73455876D01*
X73962557Y-73466029D01*
X73941938Y-73472284D01*
X73914360Y-73475000D01*
X73405640Y-73475000D01*
X73378062Y-73472284D01*
X73357443Y-73466029D01*
X73338447Y-73455876D01*
X73321792Y-73442208D01*
X73308124Y-73425553D01*
X73297971Y-73406557D01*
X73291716Y-73385938D01*
X73289000Y-73358360D01*
X73289000Y-72899640D01*
X73291716Y-72872062D01*
X73297971Y-72851443D01*
X73308124Y-72832447D01*
X73321792Y-72815792D01*
X73338447Y-72802124D01*
X73357443Y-72791971D01*
X73378062Y-72785716D01*
X73405640Y-72783000D01*
X73914360Y-72783000D01*
X73941938Y-72785716D01*
G37*
G36*
X80545938Y-72277716D02*
G01*
X80566557Y-72283971D01*
X80585553Y-72294124D01*
X80602208Y-72307792D01*
X80615876Y-72324447D01*
X80626029Y-72343443D01*
X80632284Y-72364062D01*
X80635000Y-72391640D01*
X80635000Y-72850360D01*
X80632284Y-72877938D01*
X80626029Y-72898557D01*
X80615876Y-72917553D01*
X80602208Y-72934208D01*
X80585553Y-72947876D01*
X80566557Y-72958029D01*
X80545938Y-72964284D01*
X80518360Y-72967000D01*
X80009640Y-72967000D01*
X79982062Y-72964284D01*
X79961443Y-72958029D01*
X79942447Y-72947876D01*
X79925792Y-72934208D01*
X79912124Y-72917553D01*
X79901971Y-72898557D01*
X79895716Y-72877938D01*
X79893000Y-72850360D01*
X79893000Y-72391640D01*
X79895716Y-72364062D01*
X79901971Y-72343443D01*
X79912124Y-72324447D01*
X79925792Y-72307792D01*
X79942447Y-72294124D01*
X79961443Y-72283971D01*
X79982062Y-72277716D01*
X80009640Y-72275000D01*
X80518360Y-72275000D01*
X80545938Y-72277716D01*
G37*
G36*
X73941938Y-71815716D02*
G01*
X73962557Y-71821971D01*
X73981553Y-71832124D01*
X73998208Y-71845792D01*
X74011876Y-71862447D01*
X74022029Y-71881443D01*
X74028284Y-71902062D01*
X74031000Y-71929640D01*
X74031000Y-72388360D01*
X74028284Y-72415938D01*
X74022029Y-72436557D01*
X74011876Y-72455553D01*
X73998208Y-72472208D01*
X73981553Y-72485876D01*
X73962557Y-72496029D01*
X73941938Y-72502284D01*
X73914360Y-72505000D01*
X73405640Y-72505000D01*
X73378062Y-72502284D01*
X73357443Y-72496029D01*
X73338447Y-72485876D01*
X73321792Y-72472208D01*
X73308124Y-72455553D01*
X73297971Y-72436557D01*
X73291716Y-72415938D01*
X73289000Y-72388360D01*
X73289000Y-71929640D01*
X73291716Y-71902062D01*
X73297971Y-71881443D01*
X73308124Y-71862447D01*
X73321792Y-71845792D01*
X73338447Y-71832124D01*
X73357443Y-71821971D01*
X73378062Y-71815716D01*
X73405640Y-71813000D01*
X73914360Y-71813000D01*
X73941938Y-71815716D01*
G37*
G36*
X80545938Y-71307716D02*
G01*
X80566557Y-71313971D01*
X80585553Y-71324124D01*
X80602208Y-71337792D01*
X80615876Y-71354447D01*
X80626029Y-71373443D01*
X80632284Y-71394062D01*
X80635000Y-71421640D01*
X80635000Y-71880360D01*
X80632284Y-71907938D01*
X80626029Y-71928557D01*
X80615876Y-71947553D01*
X80602208Y-71964208D01*
X80585553Y-71977876D01*
X80566557Y-71988029D01*
X80545938Y-71994284D01*
X80518360Y-71997000D01*
X80009640Y-71997000D01*
X79982062Y-71994284D01*
X79961443Y-71988029D01*
X79942447Y-71977876D01*
X79925792Y-71964208D01*
X79912124Y-71947553D01*
X79901971Y-71928557D01*
X79895716Y-71907938D01*
X79893000Y-71880360D01*
X79893000Y-71421640D01*
X79895716Y-71394062D01*
X79901971Y-71373443D01*
X79912124Y-71354447D01*
X79925792Y-71337792D01*
X79942447Y-71324124D01*
X79961443Y-71313971D01*
X79982062Y-71307716D01*
X80009640Y-71305000D01*
X80518360Y-71305000D01*
X80545938Y-71307716D01*
G37*
G36*
X84459000Y-71741000D02*
G01*
X81657000Y-71741000D01*
X81657000Y-70839000D01*
X84459000Y-70839000D01*
X84459000Y-71741000D01*
G37*
G36*
X73893938Y-70370716D02*
G01*
X73914557Y-70376971D01*
X73933553Y-70387124D01*
X73950208Y-70400792D01*
X73963876Y-70417447D01*
X73974029Y-70436443D01*
X73980284Y-70457062D01*
X73983000Y-70484640D01*
X73983000Y-70993360D01*
X73980284Y-71020938D01*
X73974029Y-71041557D01*
X73963876Y-71060553D01*
X73950208Y-71077208D01*
X73933553Y-71090876D01*
X73914557Y-71101029D01*
X73893938Y-71107284D01*
X73866360Y-71110000D01*
X73407640Y-71110000D01*
X73380062Y-71107284D01*
X73359443Y-71101029D01*
X73340447Y-71090876D01*
X73323792Y-71077208D01*
X73310124Y-71060553D01*
X73299971Y-71041557D01*
X73293716Y-71020938D01*
X73291000Y-70993360D01*
X73291000Y-70484640D01*
X73293716Y-70457062D01*
X73299971Y-70436443D01*
X73310124Y-70417447D01*
X73323792Y-70400792D01*
X73340447Y-70387124D01*
X73359443Y-70376971D01*
X73380062Y-70370716D01*
X73407640Y-70368000D01*
X73866360Y-70368000D01*
X73893938Y-70370716D01*
G37*
G36*
X72923938Y-70370716D02*
G01*
X72944557Y-70376971D01*
X72963553Y-70387124D01*
X72980208Y-70400792D01*
X72993876Y-70417447D01*
X73004029Y-70436443D01*
X73010284Y-70457062D01*
X73013000Y-70484640D01*
X73013000Y-70993360D01*
X73010284Y-71020938D01*
X73004029Y-71041557D01*
X72993876Y-71060553D01*
X72980208Y-71077208D01*
X72963553Y-71090876D01*
X72944557Y-71101029D01*
X72923938Y-71107284D01*
X72896360Y-71110000D01*
X72437640Y-71110000D01*
X72410062Y-71107284D01*
X72389443Y-71101029D01*
X72370447Y-71090876D01*
X72353792Y-71077208D01*
X72340124Y-71060553D01*
X72329971Y-71041557D01*
X72323716Y-71020938D01*
X72321000Y-70993360D01*
X72321000Y-70484640D01*
X72323716Y-70457062D01*
X72329971Y-70436443D01*
X72340124Y-70417447D01*
X72353792Y-70400792D01*
X72370447Y-70387124D01*
X72389443Y-70376971D01*
X72410062Y-70370716D01*
X72437640Y-70368000D01*
X72896360Y-70368000D01*
X72923938Y-70370716D01*
G37*
G36*
X88163938Y-69989716D02*
G01*
X88184557Y-69995971D01*
X88203553Y-70006124D01*
X88220208Y-70019792D01*
X88233876Y-70036447D01*
X88244029Y-70055443D01*
X88250284Y-70076062D01*
X88253000Y-70103640D01*
X88253000Y-70612360D01*
X88250284Y-70639938D01*
X88244029Y-70660557D01*
X88233876Y-70679553D01*
X88220208Y-70696208D01*
X88203553Y-70709876D01*
X88184557Y-70720029D01*
X88163938Y-70726284D01*
X88136360Y-70729000D01*
X87677640Y-70729000D01*
X87650062Y-70726284D01*
X87629443Y-70720029D01*
X87610447Y-70709876D01*
X87593792Y-70696208D01*
X87580124Y-70679553D01*
X87569971Y-70660557D01*
X87563716Y-70639938D01*
X87561000Y-70612360D01*
X87561000Y-70103640D01*
X87563716Y-70076062D01*
X87569971Y-70055443D01*
X87580124Y-70036447D01*
X87593792Y-70019792D01*
X87610447Y-70006124D01*
X87629443Y-69995971D01*
X87650062Y-69989716D01*
X87677640Y-69987000D01*
X88136360Y-69987000D01*
X88163938Y-69989716D01*
G37*
G36*
X86131938Y-69989716D02*
G01*
X86152557Y-69995971D01*
X86171553Y-70006124D01*
X86188208Y-70019792D01*
X86201876Y-70036447D01*
X86212029Y-70055443D01*
X86218284Y-70076062D01*
X86221000Y-70103640D01*
X86221000Y-70612360D01*
X86218284Y-70639938D01*
X86212029Y-70660557D01*
X86201876Y-70679553D01*
X86188208Y-70696208D01*
X86171553Y-70709876D01*
X86152557Y-70720029D01*
X86131938Y-70726284D01*
X86104360Y-70729000D01*
X85645640Y-70729000D01*
X85618062Y-70726284D01*
X85597443Y-70720029D01*
X85578447Y-70709876D01*
X85561792Y-70696208D01*
X85548124Y-70679553D01*
X85537971Y-70660557D01*
X85531716Y-70639938D01*
X85529000Y-70612360D01*
X85529000Y-70103640D01*
X85531716Y-70076062D01*
X85537971Y-70055443D01*
X85548124Y-70036447D01*
X85561792Y-70019792D01*
X85578447Y-70006124D01*
X85597443Y-69995971D01*
X85618062Y-69989716D01*
X85645640Y-69987000D01*
X86104360Y-69987000D01*
X86131938Y-69989716D01*
G37*
G36*
X89133938Y-69989716D02*
G01*
X89154557Y-69995971D01*
X89173553Y-70006124D01*
X89190208Y-70019792D01*
X89203876Y-70036447D01*
X89214029Y-70055443D01*
X89220284Y-70076062D01*
X89223000Y-70103640D01*
X89223000Y-70612360D01*
X89220284Y-70639938D01*
X89214029Y-70660557D01*
X89203876Y-70679553D01*
X89190208Y-70696208D01*
X89173553Y-70709876D01*
X89154557Y-70720029D01*
X89133938Y-70726284D01*
X89106360Y-70729000D01*
X88647640Y-70729000D01*
X88620062Y-70726284D01*
X88599443Y-70720029D01*
X88580447Y-70709876D01*
X88563792Y-70696208D01*
X88550124Y-70679553D01*
X88539971Y-70660557D01*
X88533716Y-70639938D01*
X88531000Y-70612360D01*
X88531000Y-70103640D01*
X88533716Y-70076062D01*
X88539971Y-70055443D01*
X88550124Y-70036447D01*
X88563792Y-70019792D01*
X88580447Y-70006124D01*
X88599443Y-69995971D01*
X88620062Y-69989716D01*
X88647640Y-69987000D01*
X89106360Y-69987000D01*
X89133938Y-69989716D01*
G37*
G36*
X87101938Y-69989716D02*
G01*
X87122557Y-69995971D01*
X87141553Y-70006124D01*
X87158208Y-70019792D01*
X87171876Y-70036447D01*
X87182029Y-70055443D01*
X87188284Y-70076062D01*
X87191000Y-70103640D01*
X87191000Y-70612360D01*
X87188284Y-70639938D01*
X87182029Y-70660557D01*
X87171876Y-70679553D01*
X87158208Y-70696208D01*
X87141553Y-70709876D01*
X87122557Y-70720029D01*
X87101938Y-70726284D01*
X87074360Y-70729000D01*
X86615640Y-70729000D01*
X86588062Y-70726284D01*
X86567443Y-70720029D01*
X86548447Y-70709876D01*
X86531792Y-70696208D01*
X86518124Y-70679553D01*
X86507971Y-70660557D01*
X86501716Y-70639938D01*
X86499000Y-70612360D01*
X86499000Y-70103640D01*
X86501716Y-70076062D01*
X86507971Y-70055443D01*
X86518124Y-70036447D01*
X86531792Y-70019792D01*
X86548447Y-70006124D01*
X86567443Y-69995971D01*
X86588062Y-69989716D01*
X86615640Y-69987000D01*
X87074360Y-69987000D01*
X87101938Y-69989716D01*
G37*
G36*
X92994680Y-69880680D02*
G01*
X90393320Y-69880680D01*
X90393320Y-67279320D01*
X92994680Y-67279320D01*
X92994680Y-69880680D01*
G37*
G36*
X89551000Y-68756000D02*
G01*
X87449000Y-68756000D01*
X87449000Y-67754000D01*
X89551000Y-67754000D01*
X89551000Y-68756000D01*
G37*
G36*
X72551000Y-68756000D02*
G01*
X70449000Y-68756000D01*
X70449000Y-67754000D01*
X72551000Y-67754000D01*
X72551000Y-68756000D01*
G37*
G36*
X89551000Y-67486000D02*
G01*
X87449000Y-67486000D01*
X87449000Y-66484000D01*
X89551000Y-66484000D01*
X89551000Y-67486000D01*
G37*
G36*
X72551000Y-67486000D02*
G01*
X70449000Y-67486000D01*
X70449000Y-66484000D01*
X72551000Y-66484000D01*
X72551000Y-67486000D01*
G37*
G36*
X69306000Y-67020000D02*
G01*
X67854000Y-67020000D01*
X67854000Y-65568000D01*
X69306000Y-65568000D01*
X69306000Y-67020000D01*
G37*
G36*
X90703938Y-65925716D02*
G01*
X90724557Y-65931971D01*
X90743553Y-65942124D01*
X90760208Y-65955792D01*
X90773876Y-65972447D01*
X90784029Y-65991443D01*
X90790284Y-66012062D01*
X90793000Y-66039640D01*
X90793000Y-66548360D01*
X90790284Y-66575938D01*
X90784029Y-66596557D01*
X90773876Y-66615553D01*
X90760208Y-66632208D01*
X90743553Y-66645876D01*
X90724557Y-66656029D01*
X90703938Y-66662284D01*
X90676360Y-66665000D01*
X90217640Y-66665000D01*
X90190062Y-66662284D01*
X90169443Y-66656029D01*
X90150447Y-66645876D01*
X90133792Y-66632208D01*
X90120124Y-66615553D01*
X90109971Y-66596557D01*
X90103716Y-66575938D01*
X90101000Y-66548360D01*
X90101000Y-66039640D01*
X90103716Y-66012062D01*
X90109971Y-65991443D01*
X90120124Y-65972447D01*
X90133792Y-65955792D01*
X90150447Y-65942124D01*
X90169443Y-65931971D01*
X90190062Y-65925716D01*
X90217640Y-65923000D01*
X90676360Y-65923000D01*
X90703938Y-65925716D01*
G37*
G36*
X91673938Y-65925716D02*
G01*
X91694557Y-65931971D01*
X91713553Y-65942124D01*
X91730208Y-65955792D01*
X91743876Y-65972447D01*
X91754029Y-65991443D01*
X91760284Y-66012062D01*
X91763000Y-66039640D01*
X91763000Y-66548360D01*
X91760284Y-66575938D01*
X91754029Y-66596557D01*
X91743876Y-66615553D01*
X91730208Y-66632208D01*
X91713553Y-66645876D01*
X91694557Y-66656029D01*
X91673938Y-66662284D01*
X91646360Y-66665000D01*
X91187640Y-66665000D01*
X91160062Y-66662284D01*
X91139443Y-66656029D01*
X91120447Y-66645876D01*
X91103792Y-66632208D01*
X91090124Y-66615553D01*
X91079971Y-66596557D01*
X91073716Y-66575938D01*
X91071000Y-66548360D01*
X91071000Y-66039640D01*
X91073716Y-66012062D01*
X91079971Y-65991443D01*
X91090124Y-65972447D01*
X91103792Y-65955792D01*
X91120447Y-65942124D01*
X91139443Y-65931971D01*
X91160062Y-65925716D01*
X91187640Y-65923000D01*
X91646360Y-65923000D01*
X91673938Y-65925716D01*
G37*
G36*
X92864938Y-65927716D02*
G01*
X92885557Y-65933971D01*
X92904553Y-65944124D01*
X92921208Y-65957792D01*
X92934876Y-65974447D01*
X92945029Y-65993443D01*
X92951284Y-66014062D01*
X92954000Y-66041640D01*
X92954000Y-66500360D01*
X92951284Y-66527938D01*
X92945029Y-66548557D01*
X92934876Y-66567553D01*
X92921208Y-66584208D01*
X92904553Y-66597876D01*
X92885557Y-66608029D01*
X92864938Y-66614284D01*
X92837360Y-66617000D01*
X92328640Y-66617000D01*
X92301062Y-66614284D01*
X92280443Y-66608029D01*
X92261447Y-66597876D01*
X92244792Y-66584208D01*
X92231124Y-66567553D01*
X92220971Y-66548557D01*
X92214716Y-66527938D01*
X92212000Y-66500360D01*
X92212000Y-66041640D01*
X92214716Y-66014062D01*
X92220971Y-65993443D01*
X92231124Y-65974447D01*
X92244792Y-65957792D01*
X92261447Y-65944124D01*
X92280443Y-65933971D01*
X92301062Y-65927716D01*
X92328640Y-65925000D01*
X92837360Y-65925000D01*
X92864938Y-65927716D01*
G37*
G36*
X89551000Y-66216000D02*
G01*
X87449000Y-66216000D01*
X87449000Y-65214000D01*
X89551000Y-65214000D01*
X89551000Y-66216000D01*
G37*
G36*
X72551000Y-66216000D02*
G01*
X70449000Y-66216000D01*
X70449000Y-65214000D01*
X72551000Y-65214000D01*
X72551000Y-66216000D01*
G37*
G36*
X92864938Y-64957716D02*
G01*
X92885557Y-64963971D01*
X92904553Y-64974124D01*
X92921208Y-64987792D01*
X92934876Y-65004447D01*
X92945029Y-65023443D01*
X92951284Y-65044062D01*
X92954000Y-65071640D01*
X92954000Y-65530360D01*
X92951284Y-65557938D01*
X92945029Y-65578557D01*
X92934876Y-65597553D01*
X92921208Y-65614208D01*
X92904553Y-65627876D01*
X92885557Y-65638029D01*
X92864938Y-65644284D01*
X92837360Y-65647000D01*
X92328640Y-65647000D01*
X92301062Y-65644284D01*
X92280443Y-65638029D01*
X92261447Y-65627876D01*
X92244792Y-65614208D01*
X92231124Y-65597553D01*
X92220971Y-65578557D01*
X92214716Y-65557938D01*
X92212000Y-65530360D01*
X92212000Y-65071640D01*
X92214716Y-65044062D01*
X92220971Y-65023443D01*
X92231124Y-65004447D01*
X92244792Y-64987792D01*
X92261447Y-64974124D01*
X92280443Y-64963971D01*
X92301062Y-64957716D01*
X92328640Y-64955000D01*
X92837360Y-64955000D01*
X92864938Y-64957716D01*
G37*
G36*
X91673938Y-64655716D02*
G01*
X91694557Y-64661971D01*
X91713553Y-64672124D01*
X91730208Y-64685792D01*
X91743876Y-64702447D01*
X91754029Y-64721443D01*
X91760284Y-64742062D01*
X91763000Y-64769640D01*
X91763000Y-65278360D01*
X91760284Y-65305938D01*
X91754029Y-65326557D01*
X91743876Y-65345553D01*
X91730208Y-65362208D01*
X91713553Y-65375876D01*
X91694557Y-65386029D01*
X91673938Y-65392284D01*
X91646360Y-65395000D01*
X91187640Y-65395000D01*
X91160062Y-65392284D01*
X91139443Y-65386029D01*
X91120447Y-65375876D01*
X91103792Y-65362208D01*
X91090124Y-65345553D01*
X91079971Y-65326557D01*
X91073716Y-65305938D01*
X91071000Y-65278360D01*
X91071000Y-64769640D01*
X91073716Y-64742062D01*
X91079971Y-64721443D01*
X91090124Y-64702447D01*
X91103792Y-64685792D01*
X91120447Y-64672124D01*
X91139443Y-64661971D01*
X91160062Y-64655716D01*
X91187640Y-64653000D01*
X91646360Y-64653000D01*
X91673938Y-64655716D01*
G37*
G36*
X90703938Y-64655716D02*
G01*
X90724557Y-64661971D01*
X90743553Y-64672124D01*
X90760208Y-64685792D01*
X90773876Y-64702447D01*
X90784029Y-64721443D01*
X90790284Y-64742062D01*
X90793000Y-64769640D01*
X90793000Y-65278360D01*
X90790284Y-65305938D01*
X90784029Y-65326557D01*
X90773876Y-65345553D01*
X90760208Y-65362208D01*
X90743553Y-65375876D01*
X90724557Y-65386029D01*
X90703938Y-65392284D01*
X90676360Y-65395000D01*
X90217640Y-65395000D01*
X90190062Y-65392284D01*
X90169443Y-65386029D01*
X90150447Y-65375876D01*
X90133792Y-65362208D01*
X90120124Y-65345553D01*
X90109971Y-65326557D01*
X90103716Y-65305938D01*
X90101000Y-65278360D01*
X90101000Y-64769640D01*
X90103716Y-64742062D01*
X90109971Y-64721443D01*
X90120124Y-64702447D01*
X90133792Y-64685792D01*
X90150447Y-64672124D01*
X90169443Y-64661971D01*
X90190062Y-64655716D01*
X90217640Y-64653000D01*
X90676360Y-64653000D01*
X90703938Y-64655716D01*
G37*
G36*
X68791766Y-63595899D02*
G01*
X68923888Y-63650626D01*
X68923890Y-63650627D01*
X69042798Y-63730079D01*
X69143921Y-63831202D01*
X69143922Y-63831204D01*
X69223374Y-63950112D01*
X69278101Y-64082234D01*
X69306000Y-64222494D01*
X69306000Y-64365506D01*
X69278101Y-64505766D01*
X69223374Y-64637888D01*
X69223373Y-64637890D01*
X69143921Y-64756798D01*
X69042798Y-64857921D01*
X68923890Y-64937373D01*
X68923889Y-64937374D01*
X68923888Y-64937374D01*
X68791766Y-64992101D01*
X68651506Y-65020000D01*
X68508494Y-65020000D01*
X68368234Y-64992101D01*
X68236112Y-64937374D01*
X68236111Y-64937374D01*
X68236110Y-64937373D01*
X68117202Y-64857921D01*
X68016079Y-64756798D01*
X67936627Y-64637890D01*
X67936626Y-64637888D01*
X67881899Y-64505766D01*
X67854000Y-64365506D01*
X67854000Y-64222494D01*
X67881899Y-64082234D01*
X67936626Y-63950112D01*
X68016078Y-63831204D01*
X68016079Y-63831202D01*
X68117202Y-63730079D01*
X68236110Y-63650627D01*
X68236112Y-63650626D01*
X68368234Y-63595899D01*
X68508494Y-63568000D01*
X68651506Y-63568000D01*
X68791766Y-63595899D01*
G37*
G36*
X89551000Y-64946000D02*
G01*
X87449000Y-64946000D01*
X87449000Y-63944000D01*
X89551000Y-63944000D01*
X89551000Y-64946000D01*
G37*
G36*
X72551000Y-64946000D02*
G01*
X70449000Y-64946000D01*
X70449000Y-63944000D01*
X72551000Y-63944000D01*
X72551000Y-64946000D01*
G37*
G36*
X90705938Y-63641716D02*
G01*
X90726557Y-63647971D01*
X90745553Y-63658124D01*
X90762208Y-63671792D01*
X90775876Y-63688447D01*
X90786029Y-63707443D01*
X90792284Y-63728062D01*
X90795000Y-63755640D01*
X90795000Y-64214360D01*
X90792284Y-64241938D01*
X90786029Y-64262557D01*
X90775876Y-64281553D01*
X90762208Y-64298208D01*
X90745553Y-64311876D01*
X90726557Y-64322029D01*
X90705938Y-64328284D01*
X90678360Y-64331000D01*
X90169640Y-64331000D01*
X90142062Y-64328284D01*
X90121443Y-64322029D01*
X90102447Y-64311876D01*
X90085792Y-64298208D01*
X90072124Y-64281553D01*
X90061971Y-64262557D01*
X90055716Y-64241938D01*
X90053000Y-64214360D01*
X90053000Y-63755640D01*
X90055716Y-63728062D01*
X90061971Y-63707443D01*
X90072124Y-63688447D01*
X90085792Y-63671792D01*
X90102447Y-63658124D01*
X90121443Y-63647971D01*
X90142062Y-63641716D01*
X90169640Y-63639000D01*
X90678360Y-63639000D01*
X90705938Y-63641716D01*
G37*
G36*
X91783438Y-63576216D02*
G01*
X91804057Y-63582471D01*
X91823053Y-63592624D01*
X91839708Y-63606292D01*
X91853376Y-63622947D01*
X91863529Y-63641943D01*
X91869784Y-63662562D01*
X91872500Y-63690140D01*
X91872500Y-64198860D01*
X91869784Y-64226438D01*
X91863529Y-64247057D01*
X91853376Y-64266053D01*
X91839708Y-64282708D01*
X91823053Y-64296376D01*
X91804057Y-64306529D01*
X91783438Y-64312784D01*
X91755860Y-64315500D01*
X91297140Y-64315500D01*
X91269562Y-64312784D01*
X91248943Y-64306529D01*
X91229947Y-64296376D01*
X91213292Y-64282708D01*
X91199624Y-64266053D01*
X91189471Y-64247057D01*
X91183216Y-64226438D01*
X91180500Y-64198860D01*
X91180500Y-63690140D01*
X91183216Y-63662562D01*
X91189471Y-63641943D01*
X91199624Y-63622947D01*
X91213292Y-63606292D01*
X91229947Y-63592624D01*
X91248943Y-63582471D01*
X91269562Y-63576216D01*
X91297140Y-63573500D01*
X91755860Y-63573500D01*
X91783438Y-63576216D01*
G37*
G36*
X92753438Y-63576216D02*
G01*
X92774057Y-63582471D01*
X92793053Y-63592624D01*
X92809708Y-63606292D01*
X92823376Y-63622947D01*
X92833529Y-63641943D01*
X92839784Y-63662562D01*
X92842500Y-63690140D01*
X92842500Y-64198860D01*
X92839784Y-64226438D01*
X92833529Y-64247057D01*
X92823376Y-64266053D01*
X92809708Y-64282708D01*
X92793053Y-64296376D01*
X92774057Y-64306529D01*
X92753438Y-64312784D01*
X92725860Y-64315500D01*
X92267140Y-64315500D01*
X92239562Y-64312784D01*
X92218943Y-64306529D01*
X92199947Y-64296376D01*
X92183292Y-64282708D01*
X92169624Y-64266053D01*
X92159471Y-64247057D01*
X92153216Y-64226438D01*
X92150500Y-64198860D01*
X92150500Y-63690140D01*
X92153216Y-63662562D01*
X92159471Y-63641943D01*
X92169624Y-63622947D01*
X92183292Y-63606292D01*
X92199947Y-63592624D01*
X92218943Y-63582471D01*
X92239562Y-63576216D01*
X92267140Y-63573500D01*
X92725860Y-63573500D01*
X92753438Y-63576216D01*
G37*
G36*
X89551000Y-63676000D02*
G01*
X87449000Y-63676000D01*
X87449000Y-62674000D01*
X89551000Y-62674000D01*
X89551000Y-63676000D01*
G37*
G36*
X72551000Y-63676000D02*
G01*
X70449000Y-63676000D01*
X70449000Y-62674000D01*
X72551000Y-62674000D01*
X72551000Y-63676000D01*
G37*
G36*
X90705938Y-62671716D02*
G01*
X90726557Y-62677971D01*
X90745553Y-62688124D01*
X90762208Y-62701792D01*
X90775876Y-62718447D01*
X90786029Y-62737443D01*
X90792284Y-62758062D01*
X90795000Y-62785640D01*
X90795000Y-63244360D01*
X90792284Y-63271938D01*
X90786029Y-63292557D01*
X90775876Y-63311553D01*
X90762208Y-63328208D01*
X90745553Y-63341876D01*
X90726557Y-63352029D01*
X90705938Y-63358284D01*
X90678360Y-63361000D01*
X90169640Y-63361000D01*
X90142062Y-63358284D01*
X90121443Y-63352029D01*
X90102447Y-63341876D01*
X90085792Y-63328208D01*
X90072124Y-63311553D01*
X90061971Y-63292557D01*
X90055716Y-63271938D01*
X90053000Y-63244360D01*
X90053000Y-62785640D01*
X90055716Y-62758062D01*
X90061971Y-62737443D01*
X90072124Y-62718447D01*
X90085792Y-62701792D01*
X90102447Y-62688124D01*
X90121443Y-62677971D01*
X90142062Y-62671716D01*
X90169640Y-62669000D01*
X90678360Y-62669000D01*
X90705938Y-62671716D01*
G37*
G36*
X83551000Y-63306000D02*
G01*
X78449000Y-63306000D01*
X78449000Y-58204000D01*
X83551000Y-58204000D01*
X83551000Y-63306000D01*
G37*
G36*
X68791766Y-61595899D02*
G01*
X68923888Y-61650626D01*
X68923890Y-61650627D01*
X69042798Y-61730079D01*
X69143921Y-61831202D01*
X69143922Y-61831204D01*
X69223374Y-61950112D01*
X69278101Y-62082234D01*
X69306000Y-62222494D01*
X69306000Y-62365506D01*
X69278101Y-62505766D01*
X69223374Y-62637888D01*
X69223373Y-62637890D01*
X69143921Y-62756798D01*
X69042798Y-62857921D01*
X68923890Y-62937373D01*
X68923889Y-62937374D01*
X68923888Y-62937374D01*
X68791766Y-62992101D01*
X68651506Y-63020000D01*
X68508494Y-63020000D01*
X68368234Y-62992101D01*
X68236112Y-62937374D01*
X68236111Y-62937374D01*
X68236110Y-62937373D01*
X68117202Y-62857921D01*
X68016079Y-62756798D01*
X67936627Y-62637890D01*
X67936626Y-62637888D01*
X67881899Y-62505766D01*
X67854000Y-62365506D01*
X67854000Y-62222494D01*
X67881899Y-62082234D01*
X67936626Y-61950112D01*
X68016078Y-61831204D01*
X68016079Y-61831202D01*
X68117202Y-61730079D01*
X68236110Y-61650627D01*
X68236112Y-61650626D01*
X68368234Y-61595899D01*
X68508494Y-61568000D01*
X68651506Y-61568000D01*
X68791766Y-61595899D01*
G37*
G36*
X72551000Y-62406000D02*
G01*
X70449000Y-62406000D01*
X70449000Y-61404000D01*
X72551000Y-61404000D01*
X72551000Y-62406000D01*
G37*
G36*
X89551000Y-62406000D02*
G01*
X87449000Y-62406000D01*
X87449000Y-61404000D01*
X89551000Y-61404000D01*
X89551000Y-62406000D01*
G37*
G36*
X92420000Y-61178000D02*
G01*
X90968000Y-61178000D01*
X90968000Y-59726000D01*
X92420000Y-59726000D01*
X92420000Y-61178000D01*
G37*
G36*
X89551000Y-61136000D02*
G01*
X87449000Y-61136000D01*
X87449000Y-60134000D01*
X89551000Y-60134000D01*
X89551000Y-61136000D01*
G37*
G36*
X72551000Y-61136000D02*
G01*
X70449000Y-61136000D01*
X70449000Y-60134000D01*
X72551000Y-60134000D01*
X72551000Y-61136000D01*
G37*
G36*
X68791766Y-59595899D02*
G01*
X68923888Y-59650626D01*
X68923890Y-59650627D01*
X69042798Y-59730079D01*
X69143921Y-59831202D01*
X69143922Y-59831204D01*
X69223374Y-59950112D01*
X69278101Y-60082234D01*
X69306000Y-60222494D01*
X69306000Y-60365506D01*
X69278101Y-60505766D01*
X69223374Y-60637888D01*
X69223373Y-60637890D01*
X69143921Y-60756798D01*
X69042798Y-60857921D01*
X68923890Y-60937373D01*
X68923889Y-60937374D01*
X68923888Y-60937374D01*
X68791766Y-60992101D01*
X68651506Y-61020000D01*
X68508494Y-61020000D01*
X68368234Y-60992101D01*
X68236112Y-60937374D01*
X68236111Y-60937374D01*
X68236110Y-60937373D01*
X68117202Y-60857921D01*
X68016079Y-60756798D01*
X67936627Y-60637890D01*
X67936626Y-60637888D01*
X67881899Y-60505766D01*
X67854000Y-60365506D01*
X67854000Y-60222494D01*
X67881899Y-60082234D01*
X67936626Y-59950112D01*
X68016078Y-59831204D01*
X68016079Y-59831202D01*
X68117202Y-59730079D01*
X68236110Y-59650627D01*
X68236112Y-59650626D01*
X68368234Y-59595899D01*
X68508494Y-59568000D01*
X68651506Y-59568000D01*
X68791766Y-59595899D01*
G37*
G36*
X72551000Y-59866000D02*
G01*
X70449000Y-59866000D01*
X70449000Y-58864000D01*
X72551000Y-58864000D01*
X72551000Y-59866000D01*
G37*
G36*
X89551000Y-59866000D02*
G01*
X87449000Y-59866000D01*
X87449000Y-58864000D01*
X89551000Y-58864000D01*
X89551000Y-59866000D01*
G37*
G36*
X91905766Y-57753899D02*
G01*
X92037888Y-57808626D01*
X92037890Y-57808627D01*
X92156798Y-57888079D01*
X92257921Y-57989202D01*
X92257922Y-57989204D01*
X92337374Y-58108112D01*
X92392101Y-58240234D01*
X92420000Y-58380494D01*
X92420000Y-58523506D01*
X92392101Y-58663766D01*
X92337374Y-58795888D01*
X92337373Y-58795890D01*
X92257921Y-58914798D01*
X92156798Y-59015921D01*
X92037890Y-59095373D01*
X92037889Y-59095374D01*
X92037888Y-59095374D01*
X91905766Y-59150101D01*
X91765506Y-59178000D01*
X91622494Y-59178000D01*
X91482234Y-59150101D01*
X91350112Y-59095374D01*
X91350111Y-59095374D01*
X91350110Y-59095373D01*
X91231202Y-59015921D01*
X91130079Y-58914798D01*
X91050627Y-58795890D01*
X91050626Y-58795888D01*
X90995899Y-58663766D01*
X90968000Y-58523506D01*
X90968000Y-58380494D01*
X90995899Y-58240234D01*
X91050626Y-58108112D01*
X91130078Y-57989204D01*
X91130079Y-57989202D01*
X91231202Y-57888079D01*
X91350110Y-57808627D01*
X91350112Y-57808626D01*
X91482234Y-57753899D01*
X91622494Y-57726000D01*
X91765506Y-57726000D01*
X91905766Y-57753899D01*
G37*
G36*
X72551000Y-58596000D02*
G01*
X70449000Y-58596000D01*
X70449000Y-57594000D01*
X72551000Y-57594000D01*
X72551000Y-58596000D01*
G37*
G36*
X89551000Y-58596000D02*
G01*
X87449000Y-58596000D01*
X87449000Y-57594000D01*
X89551000Y-57594000D01*
X89551000Y-58596000D01*
G37*
G36*
X72551000Y-57326000D02*
G01*
X70449000Y-57326000D01*
X70449000Y-56324000D01*
X72551000Y-56324000D01*
X72551000Y-57326000D01*
G37*
G36*
X89551000Y-57326000D02*
G01*
X87449000Y-57326000D01*
X87449000Y-56324000D01*
X89551000Y-56324000D01*
X89551000Y-57326000D01*
G37*
G36*
X89551000Y-56056000D02*
G01*
X87449000Y-56056000D01*
X87449000Y-55054000D01*
X89551000Y-55054000D01*
X89551000Y-56056000D01*
G37*
G36*
X72551000Y-56056000D02*
G01*
X70449000Y-56056000D01*
X70449000Y-55054000D01*
X72551000Y-55054000D01*
X72551000Y-56056000D01*
G37*
G36*
X89551000Y-54786000D02*
G01*
X87449000Y-54786000D01*
X87449000Y-53784000D01*
X89551000Y-53784000D01*
X89551000Y-54786000D01*
G37*
G36*
X72551000Y-54786000D02*
G01*
X70449000Y-54786000D01*
X70449000Y-53784000D01*
X72551000Y-53784000D01*
X72551000Y-54786000D01*
G37*
G36*
X72551000Y-53516000D02*
G01*
X70449000Y-53516000D01*
X70449000Y-52514000D01*
X72551000Y-52514000D01*
X72551000Y-53516000D01*
G37*
G36*
X89551000Y-53516000D02*
G01*
X87449000Y-53516000D01*
X87449000Y-52514000D01*
X89551000Y-52514000D01*
X89551000Y-53516000D01*
G37*
G36*
X72551000Y-52246000D02*
G01*
X70449000Y-52246000D01*
X70449000Y-51244000D01*
X72551000Y-51244000D01*
X72551000Y-52246000D01*
G37*
G36*
X89551000Y-52246000D02*
G01*
X87449000Y-52246000D01*
X87449000Y-51244000D01*
X89551000Y-51244000D01*
X89551000Y-52246000D01*
G37*
G36*
X86216000Y-51796000D02*
G01*
X85214000Y-51796000D01*
X85214000Y-49694000D01*
X86216000Y-49694000D01*
X86216000Y-51796000D01*
G37*
G36*
X83676000Y-51796000D02*
G01*
X82674000Y-51796000D01*
X82674000Y-49694000D01*
X83676000Y-49694000D01*
X83676000Y-51796000D01*
G37*
G36*
X74786000Y-51796000D02*
G01*
X73784000Y-51796000D01*
X73784000Y-49694000D01*
X74786000Y-49694000D01*
X74786000Y-51796000D01*
G37*
G36*
X76056000Y-51796000D02*
G01*
X75054000Y-51796000D01*
X75054000Y-49694000D01*
X76056000Y-49694000D01*
X76056000Y-51796000D01*
G37*
G36*
X84946000Y-51796000D02*
G01*
X83944000Y-51796000D01*
X83944000Y-49694000D01*
X84946000Y-49694000D01*
X84946000Y-51796000D01*
G37*
G36*
X78596000Y-51796000D02*
G01*
X77594000Y-51796000D01*
X77594000Y-49694000D01*
X78596000Y-49694000D01*
X78596000Y-51796000D01*
G37*
G36*
X77326000Y-51796000D02*
G01*
X76324000Y-51796000D01*
X76324000Y-49694000D01*
X77326000Y-49694000D01*
X77326000Y-51796000D01*
G37*
G36*
X82406000Y-51796000D02*
G01*
X81404000Y-51796000D01*
X81404000Y-49694000D01*
X82406000Y-49694000D01*
X82406000Y-51796000D01*
G37*
G36*
X79866000Y-51796000D02*
G01*
X78864000Y-51796000D01*
X78864000Y-49694000D01*
X79866000Y-49694000D01*
X79866000Y-51796000D01*
G37*
G36*
X81136000Y-51796000D02*
G01*
X80134000Y-51796000D01*
X80134000Y-49694000D01*
X81136000Y-49694000D01*
X81136000Y-51796000D01*
G37*
G36*
X71844438Y-48526716D02*
G01*
X71865057Y-48532971D01*
X71884053Y-48543124D01*
X71900708Y-48556792D01*
X71914376Y-48573447D01*
X71924529Y-48592443D01*
X71930784Y-48613062D01*
X71933500Y-48640640D01*
X71933500Y-49149360D01*
X71930784Y-49176938D01*
X71924529Y-49197557D01*
X71914376Y-49216553D01*
X71900708Y-49233208D01*
X71884053Y-49246876D01*
X71865057Y-49257029D01*
X71844438Y-49263284D01*
X71816860Y-49266000D01*
X71358140Y-49266000D01*
X71330562Y-49263284D01*
X71309943Y-49257029D01*
X71290947Y-49246876D01*
X71274292Y-49233208D01*
X71260624Y-49216553D01*
X71250471Y-49197557D01*
X71244216Y-49176938D01*
X71241500Y-49149360D01*
X71241500Y-48640640D01*
X71244216Y-48613062D01*
X71250471Y-48592443D01*
X71260624Y-48573447D01*
X71274292Y-48556792D01*
X71290947Y-48543124D01*
X71309943Y-48532971D01*
X71330562Y-48526716D01*
X71358140Y-48524000D01*
X71816860Y-48524000D01*
X71844438Y-48526716D01*
G37*
G36*
X72814438Y-48526716D02*
G01*
X72835057Y-48532971D01*
X72854053Y-48543124D01*
X72870708Y-48556792D01*
X72884376Y-48573447D01*
X72894529Y-48592443D01*
X72900784Y-48613062D01*
X72903500Y-48640640D01*
X72903500Y-49149360D01*
X72900784Y-49176938D01*
X72894529Y-49197557D01*
X72884376Y-49216553D01*
X72870708Y-49233208D01*
X72854053Y-49246876D01*
X72835057Y-49257029D01*
X72814438Y-49263284D01*
X72786860Y-49266000D01*
X72328140Y-49266000D01*
X72300562Y-49263284D01*
X72279943Y-49257029D01*
X72260947Y-49246876D01*
X72244292Y-49233208D01*
X72230624Y-49216553D01*
X72220471Y-49197557D01*
X72214216Y-49176938D01*
X72211500Y-49149360D01*
X72211500Y-48640640D01*
X72214216Y-48613062D01*
X72220471Y-48592443D01*
X72230624Y-48573447D01*
X72244292Y-48556792D01*
X72260947Y-48543124D01*
X72279943Y-48532971D01*
X72300562Y-48526716D01*
X72328140Y-48524000D01*
X72786860Y-48524000D01*
X72814438Y-48526716D01*
G37*
G36*
X75925938Y-48399716D02*
G01*
X75946557Y-48405971D01*
X75965553Y-48416124D01*
X75982208Y-48429792D01*
X75995876Y-48446447D01*
X76006029Y-48465443D01*
X76012284Y-48486062D01*
X76015000Y-48513640D01*
X76015000Y-49022360D01*
X76012284Y-49049938D01*
X76006029Y-49070557D01*
X75995876Y-49089553D01*
X75982208Y-49106208D01*
X75965553Y-49119876D01*
X75946557Y-49130029D01*
X75925938Y-49136284D01*
X75898360Y-49139000D01*
X75439640Y-49139000D01*
X75412062Y-49136284D01*
X75391443Y-49130029D01*
X75372447Y-49119876D01*
X75355792Y-49106208D01*
X75342124Y-49089553D01*
X75331971Y-49070557D01*
X75325716Y-49049938D01*
X75323000Y-49022360D01*
X75323000Y-48513640D01*
X75325716Y-48486062D01*
X75331971Y-48465443D01*
X75342124Y-48446447D01*
X75355792Y-48429792D01*
X75372447Y-48416124D01*
X75391443Y-48405971D01*
X75412062Y-48399716D01*
X75439640Y-48397000D01*
X75898360Y-48397000D01*
X75925938Y-48399716D01*
G37*
G36*
X74955938Y-48399716D02*
G01*
X74976557Y-48405971D01*
X74995553Y-48416124D01*
X75012208Y-48429792D01*
X75025876Y-48446447D01*
X75036029Y-48465443D01*
X75042284Y-48486062D01*
X75045000Y-48513640D01*
X75045000Y-49022360D01*
X75042284Y-49049938D01*
X75036029Y-49070557D01*
X75025876Y-49089553D01*
X75012208Y-49106208D01*
X74995553Y-49119876D01*
X74976557Y-49130029D01*
X74955938Y-49136284D01*
X74928360Y-49139000D01*
X74469640Y-49139000D01*
X74442062Y-49136284D01*
X74421443Y-49130029D01*
X74402447Y-49119876D01*
X74385792Y-49106208D01*
X74372124Y-49089553D01*
X74361971Y-49070557D01*
X74355716Y-49049938D01*
X74353000Y-49022360D01*
X74353000Y-48513640D01*
X74355716Y-48486062D01*
X74361971Y-48465443D01*
X74372124Y-48446447D01*
X74385792Y-48429792D01*
X74402447Y-48416124D01*
X74421443Y-48405971D01*
X74442062Y-48399716D01*
X74469640Y-48397000D01*
X74928360Y-48397000D01*
X74955938Y-48399716D01*
G37*
G36*
X83466938Y-48401716D02*
G01*
X83487557Y-48407971D01*
X83506553Y-48418124D01*
X83523208Y-48431792D01*
X83536876Y-48448447D01*
X83547029Y-48467443D01*
X83553284Y-48488062D01*
X83556000Y-48515640D01*
X83556000Y-48974360D01*
X83553284Y-49001938D01*
X83547029Y-49022557D01*
X83536876Y-49041553D01*
X83523208Y-49058208D01*
X83506553Y-49071876D01*
X83487557Y-49082029D01*
X83466938Y-49088284D01*
X83439360Y-49091000D01*
X82930640Y-49091000D01*
X82903062Y-49088284D01*
X82882443Y-49082029D01*
X82863447Y-49071876D01*
X82846792Y-49058208D01*
X82833124Y-49041553D01*
X82822971Y-49022557D01*
X82816716Y-49001938D01*
X82814000Y-48974360D01*
X82814000Y-48515640D01*
X82816716Y-48488062D01*
X82822971Y-48467443D01*
X82833124Y-48448447D01*
X82846792Y-48431792D01*
X82863447Y-48418124D01*
X82882443Y-48407971D01*
X82903062Y-48401716D01*
X82930640Y-48399000D01*
X83439360Y-48399000D01*
X83466938Y-48401716D01*
G37*
G36*
X81195000Y-46442001D02*
G01*
X81197402Y-46466387D01*
X81204515Y-46489836D01*
X81216066Y-46511447D01*
X81231611Y-46530389D01*
X81250553Y-46545934D01*
X81272164Y-46557485D01*
X81295613Y-46564598D01*
X81319999Y-46567000D01*
X81815000Y-46567000D01*
X81815000Y-48429000D01*
X81319999Y-48429000D01*
X81295613Y-48431402D01*
X81272164Y-48438515D01*
X81250553Y-48450066D01*
X81231611Y-48465611D01*
X81216066Y-48484553D01*
X81204515Y-48506164D01*
X81197402Y-48529613D01*
X81195000Y-48553999D01*
X81195000Y-49049000D01*
X79333000Y-49049000D01*
X79333000Y-48553999D01*
X79330598Y-48529613D01*
X79323485Y-48506164D01*
X79311934Y-48484553D01*
X79296389Y-48465611D01*
X79277447Y-48450066D01*
X79255836Y-48438515D01*
X79232387Y-48431402D01*
X79208001Y-48429000D01*
X78713000Y-48429000D01*
X78713000Y-46623999D01*
X79265000Y-46623999D01*
X79265000Y-48372001D01*
X79267402Y-48396387D01*
X79274515Y-48419836D01*
X79286066Y-48441447D01*
X79301611Y-48460389D01*
X79320553Y-48475934D01*
X79342164Y-48487485D01*
X79365613Y-48494598D01*
X79389999Y-48497000D01*
X81138001Y-48497000D01*
X81162387Y-48494598D01*
X81185836Y-48487485D01*
X81207447Y-48475934D01*
X81226389Y-48460389D01*
X81241934Y-48441447D01*
X81253485Y-48419836D01*
X81260598Y-48396387D01*
X81263000Y-48372001D01*
X81263000Y-46623999D01*
X81260598Y-46599613D01*
X81253485Y-46576164D01*
X81241934Y-46554553D01*
X81226389Y-46535611D01*
X81207447Y-46520066D01*
X81185836Y-46508515D01*
X81162387Y-46501402D01*
X81138001Y-46499000D01*
X79389999Y-46499000D01*
X79365613Y-46501402D01*
X79342164Y-46508515D01*
X79320553Y-46520066D01*
X79301611Y-46535611D01*
X79286066Y-46554553D01*
X79274515Y-46576164D01*
X79267402Y-46599613D01*
X79265000Y-46623999D01*
X78713000Y-46623999D01*
X78713000Y-46567000D01*
X79208001Y-46567000D01*
X79232387Y-46564598D01*
X79255836Y-46557485D01*
X79277447Y-46545934D01*
X79296389Y-46530389D01*
X79311934Y-46511447D01*
X79323485Y-46489836D01*
X79330598Y-46466387D01*
X79333000Y-46442001D01*
X79333000Y-45947000D01*
X81195000Y-45947000D01*
X81195000Y-46442001D01*
G37*
G36*
X83466938Y-47431716D02*
G01*
X83487557Y-47437971D01*
X83506553Y-47448124D01*
X83523208Y-47461792D01*
X83536876Y-47478447D01*
X83547029Y-47497443D01*
X83553284Y-47518062D01*
X83556000Y-47545640D01*
X83556000Y-48004360D01*
X83553284Y-48031938D01*
X83547029Y-48052557D01*
X83536876Y-48071553D01*
X83523208Y-48088208D01*
X83506553Y-48101876D01*
X83487557Y-48112029D01*
X83466938Y-48118284D01*
X83439360Y-48121000D01*
X82930640Y-48121000D01*
X82903062Y-48118284D01*
X82882443Y-48112029D01*
X82863447Y-48101876D01*
X82846792Y-48088208D01*
X82833124Y-48071553D01*
X82822971Y-48052557D01*
X82816716Y-48031938D01*
X82814000Y-48004360D01*
X82814000Y-47545640D01*
X82816716Y-47518062D01*
X82822971Y-47497443D01*
X82833124Y-47478447D01*
X82846792Y-47461792D01*
X82863447Y-47448124D01*
X82882443Y-47437971D01*
X82903062Y-47431716D01*
X82930640Y-47429000D01*
X83439360Y-47429000D01*
X83466938Y-47431716D01*
G37*
G36*
X77909000Y-47837000D02*
G01*
X75507000Y-47837000D01*
X75507000Y-47235000D01*
X77909000Y-47235000D01*
X77909000Y-47837000D01*
G37*
G36*
X83466938Y-46433216D02*
G01*
X83487557Y-46439471D01*
X83506553Y-46449624D01*
X83523208Y-46463292D01*
X83536876Y-46479947D01*
X83547029Y-46498943D01*
X83553284Y-46519562D01*
X83556000Y-46547140D01*
X83556000Y-47005860D01*
X83553284Y-47033438D01*
X83547029Y-47054057D01*
X83536876Y-47073053D01*
X83523208Y-47089708D01*
X83506553Y-47103376D01*
X83487557Y-47113529D01*
X83466938Y-47119784D01*
X83439360Y-47122500D01*
X82930640Y-47122500D01*
X82903062Y-47119784D01*
X82882443Y-47113529D01*
X82863447Y-47103376D01*
X82846792Y-47089708D01*
X82833124Y-47073053D01*
X82822971Y-47054057D01*
X82816716Y-47033438D01*
X82814000Y-47005860D01*
X82814000Y-46547140D01*
X82816716Y-46519562D01*
X82822971Y-46498943D01*
X82833124Y-46479947D01*
X82846792Y-46463292D01*
X82863447Y-46449624D01*
X82882443Y-46439471D01*
X82903062Y-46433216D01*
X82930640Y-46430500D01*
X83439360Y-46430500D01*
X83466938Y-46433216D01*
G37*
G36*
X84546438Y-46433216D02*
G01*
X84567057Y-46439471D01*
X84586053Y-46449624D01*
X84602708Y-46463292D01*
X84616376Y-46479947D01*
X84626529Y-46498943D01*
X84632784Y-46519562D01*
X84635500Y-46547140D01*
X84635500Y-47005860D01*
X84632784Y-47033438D01*
X84626529Y-47054057D01*
X84616376Y-47073053D01*
X84602708Y-47089708D01*
X84586053Y-47103376D01*
X84567057Y-47113529D01*
X84546438Y-47119784D01*
X84518860Y-47122500D01*
X84010140Y-47122500D01*
X83982562Y-47119784D01*
X83961943Y-47113529D01*
X83942947Y-47103376D01*
X83926292Y-47089708D01*
X83912624Y-47073053D01*
X83902471Y-47054057D01*
X83896216Y-47033438D01*
X83893500Y-47005860D01*
X83893500Y-46547140D01*
X83896216Y-46519562D01*
X83902471Y-46498943D01*
X83912624Y-46479947D01*
X83926292Y-46463292D01*
X83942947Y-46449624D01*
X83961943Y-46439471D01*
X83982562Y-46433216D01*
X84010140Y-46430500D01*
X84518860Y-46430500D01*
X84546438Y-46433216D01*
G37*
G36*
X73300680Y-46471880D02*
G01*
X70699320Y-46471880D01*
X70699320Y-43870520D01*
X73300680Y-43870520D01*
X73300680Y-46471880D01*
G37*
G36*
X88379393Y-43910504D02*
G01*
X88590626Y-43998000D01*
X88616103Y-44008553D01*
X88829135Y-44150896D01*
X89010304Y-44332065D01*
X89152647Y-44545097D01*
X89152648Y-44545099D01*
X89250696Y-44781807D01*
X89300680Y-45033093D01*
X89300680Y-45289307D01*
X89250696Y-45540593D01*
X89211591Y-45635000D01*
X89152647Y-45777303D01*
X89010304Y-45990335D01*
X88829135Y-46171504D01*
X88616103Y-46313847D01*
X88616102Y-46313848D01*
X88616101Y-46313848D01*
X88379393Y-46411896D01*
X88128107Y-46461880D01*
X87871893Y-46461880D01*
X87620607Y-46411896D01*
X87383899Y-46313848D01*
X87383898Y-46313848D01*
X87383897Y-46313847D01*
X87170865Y-46171504D01*
X86989696Y-45990335D01*
X86847353Y-45777303D01*
X86788409Y-45635000D01*
X86749304Y-45540593D01*
X86699320Y-45289307D01*
X86699320Y-45033093D01*
X86749304Y-44781807D01*
X86847352Y-44545099D01*
X86847353Y-44545097D01*
X86989696Y-44332065D01*
X87170865Y-44150896D01*
X87383897Y-44008553D01*
X87409374Y-43998000D01*
X87620607Y-43910504D01*
X87871893Y-43860520D01*
X88128107Y-43860520D01*
X88379393Y-43910504D01*
G37*
G36*
X77909000Y-46237000D02*
G01*
X75507000Y-46237000D01*
X75507000Y-45635000D01*
X77909000Y-45635000D01*
X77909000Y-46237000D01*
G37*
G36*
X83466938Y-45463216D02*
G01*
X83487557Y-45469471D01*
X83506553Y-45479624D01*
X83523208Y-45493292D01*
X83536876Y-45509947D01*
X83547029Y-45528943D01*
X83553284Y-45549562D01*
X83556000Y-45577140D01*
X83556000Y-46035860D01*
X83553284Y-46063438D01*
X83547029Y-46084057D01*
X83536876Y-46103053D01*
X83523208Y-46119708D01*
X83506553Y-46133376D01*
X83487557Y-46143529D01*
X83466938Y-46149784D01*
X83439360Y-46152500D01*
X82930640Y-46152500D01*
X82903062Y-46149784D01*
X82882443Y-46143529D01*
X82863447Y-46133376D01*
X82846792Y-46119708D01*
X82833124Y-46103053D01*
X82822971Y-46084057D01*
X82816716Y-46063438D01*
X82814000Y-46035860D01*
X82814000Y-45577140D01*
X82816716Y-45549562D01*
X82822971Y-45528943D01*
X82833124Y-45509947D01*
X82846792Y-45493292D01*
X82863447Y-45479624D01*
X82882443Y-45469471D01*
X82903062Y-45463216D01*
X82930640Y-45460500D01*
X83439360Y-45460500D01*
X83466938Y-45463216D01*
G37*
G36*
X84546438Y-45463216D02*
G01*
X84567057Y-45469471D01*
X84586053Y-45479624D01*
X84602708Y-45493292D01*
X84616376Y-45509947D01*
X84626529Y-45528943D01*
X84632784Y-45549562D01*
X84635500Y-45577140D01*
X84635500Y-46035860D01*
X84632784Y-46063438D01*
X84626529Y-46084057D01*
X84616376Y-46103053D01*
X84602708Y-46119708D01*
X84586053Y-46133376D01*
X84567057Y-46143529D01*
X84546438Y-46149784D01*
X84518860Y-46152500D01*
X84010140Y-46152500D01*
X83982562Y-46149784D01*
X83961943Y-46143529D01*
X83942947Y-46133376D01*
X83926292Y-46119708D01*
X83912624Y-46103053D01*
X83902471Y-46084057D01*
X83896216Y-46063438D01*
X83893500Y-46035860D01*
X83893500Y-45577140D01*
X83896216Y-45549562D01*
X83902471Y-45528943D01*
X83912624Y-45509947D01*
X83926292Y-45493292D01*
X83942947Y-45479624D01*
X83961943Y-45469471D01*
X83982562Y-45463216D01*
X84010140Y-45460500D01*
X84518860Y-45460500D01*
X84546438Y-45463216D01*
G37*
G36*
X81513938Y-44843716D02*
G01*
X81534557Y-44849971D01*
X81553553Y-44860124D01*
X81570208Y-44873792D01*
X81583876Y-44890447D01*
X81594029Y-44909443D01*
X81600284Y-44930062D01*
X81603000Y-44957640D01*
X81603000Y-45466360D01*
X81600284Y-45493938D01*
X81594029Y-45514557D01*
X81583876Y-45533553D01*
X81570208Y-45550208D01*
X81553553Y-45563876D01*
X81534557Y-45574029D01*
X81513938Y-45580284D01*
X81486360Y-45583000D01*
X81027640Y-45583000D01*
X81000062Y-45580284D01*
X80979443Y-45574029D01*
X80960447Y-45563876D01*
X80943792Y-45550208D01*
X80930124Y-45533553D01*
X80919971Y-45514557D01*
X80913716Y-45493938D01*
X80911000Y-45466360D01*
X80911000Y-44957640D01*
X80913716Y-44930062D01*
X80919971Y-44909443D01*
X80930124Y-44890447D01*
X80943792Y-44873792D01*
X80960447Y-44860124D01*
X80979443Y-44849971D01*
X81000062Y-44843716D01*
X81027640Y-44841000D01*
X81486360Y-44841000D01*
X81513938Y-44843716D01*
G37*
G36*
X80543938Y-44843716D02*
G01*
X80564557Y-44849971D01*
X80583553Y-44860124D01*
X80600208Y-44873792D01*
X80613876Y-44890447D01*
X80624029Y-44909443D01*
X80630284Y-44930062D01*
X80633000Y-44957640D01*
X80633000Y-45466360D01*
X80630284Y-45493938D01*
X80624029Y-45514557D01*
X80613876Y-45533553D01*
X80600208Y-45550208D01*
X80583553Y-45563876D01*
X80564557Y-45574029D01*
X80543938Y-45580284D01*
X80516360Y-45583000D01*
X80057640Y-45583000D01*
X80030062Y-45580284D01*
X80009443Y-45574029D01*
X79990447Y-45563876D01*
X79973792Y-45550208D01*
X79960124Y-45533553D01*
X79949971Y-45514557D01*
X79943716Y-45493938D01*
X79941000Y-45466360D01*
X79941000Y-44957640D01*
X79943716Y-44930062D01*
X79949971Y-44909443D01*
X79960124Y-44890447D01*
X79973792Y-44873792D01*
X79990447Y-44860124D01*
X80009443Y-44849971D01*
X80030062Y-44843716D01*
X80057640Y-44841000D01*
X80516360Y-44841000D01*
X80543938Y-44843716D01*
G37*
G36*
X75079611Y-43075389D02*
G01*
X75098553Y-43090934D01*
X75120164Y-43102485D01*
X75143613Y-43109598D01*
X75167999Y-43112000D01*
X76216001Y-43112000D01*
X76240387Y-43109598D01*
X76263836Y-43102485D01*
X76285447Y-43090934D01*
X76304389Y-43075389D01*
X76315377Y-43062000D01*
X77143000Y-43062000D01*
X77143000Y-44964000D01*
X76315377Y-44964000D01*
X76304389Y-44950611D01*
X76285447Y-44935066D01*
X76263836Y-44923515D01*
X76240387Y-44916402D01*
X76216001Y-44914000D01*
X75167999Y-44914000D01*
X75143613Y-44916402D01*
X75120164Y-44923515D01*
X75098553Y-44935066D01*
X75079611Y-44950611D01*
X75068623Y-44964000D01*
X74241000Y-44964000D01*
X74241000Y-43062000D01*
X75068623Y-43062000D01*
X75079611Y-43075389D01*
G37*
G36*
X83715611Y-43004389D02*
G01*
X83734553Y-43019934D01*
X83756164Y-43031485D01*
X83779613Y-43038598D01*
X83803999Y-43041000D01*
X84852001Y-43041000D01*
X84876387Y-43038598D01*
X84899836Y-43031485D01*
X84921447Y-43019934D01*
X84940389Y-43004389D01*
X84951377Y-42991000D01*
X85779000Y-42991000D01*
X85779000Y-44893000D01*
X84951377Y-44893000D01*
X84940389Y-44879611D01*
X84921447Y-44864066D01*
X84899836Y-44852515D01*
X84876387Y-44845402D01*
X84852001Y-44843000D01*
X83803999Y-44843000D01*
X83779613Y-44845402D01*
X83756164Y-44852515D01*
X83734553Y-44864066D01*
X83715611Y-44879611D01*
X83704623Y-44893000D01*
X82877000Y-44893000D01*
X82877000Y-42991000D01*
X83704623Y-42991000D01*
X83715611Y-43004389D01*
G37*
G36*
X81513938Y-43827716D02*
G01*
X81534557Y-43833971D01*
X81553553Y-43844124D01*
X81570208Y-43857792D01*
X81583876Y-43874447D01*
X81594029Y-43893443D01*
X81600284Y-43914062D01*
X81603000Y-43941640D01*
X81603000Y-44450360D01*
X81600284Y-44477938D01*
X81594029Y-44498557D01*
X81583876Y-44517553D01*
X81570208Y-44534208D01*
X81553553Y-44547876D01*
X81534557Y-44558029D01*
X81513938Y-44564284D01*
X81486360Y-44567000D01*
X81027640Y-44567000D01*
X81000062Y-44564284D01*
X80979443Y-44558029D01*
X80960447Y-44547876D01*
X80943792Y-44534208D01*
X80930124Y-44517553D01*
X80919971Y-44498557D01*
X80913716Y-44477938D01*
X80911000Y-44450360D01*
X80911000Y-43941640D01*
X80913716Y-43914062D01*
X80919971Y-43893443D01*
X80930124Y-43874447D01*
X80943792Y-43857792D01*
X80960447Y-43844124D01*
X80979443Y-43833971D01*
X81000062Y-43827716D01*
X81027640Y-43825000D01*
X81486360Y-43825000D01*
X81513938Y-43827716D01*
G37*
G36*
X80543938Y-43827716D02*
G01*
X80564557Y-43833971D01*
X80583553Y-43844124D01*
X80600208Y-43857792D01*
X80613876Y-43874447D01*
X80624029Y-43893443D01*
X80630284Y-43914062D01*
X80633000Y-43941640D01*
X80633000Y-44450360D01*
X80630284Y-44477938D01*
X80624029Y-44498557D01*
X80613876Y-44517553D01*
X80600208Y-44534208D01*
X80583553Y-44547876D01*
X80564557Y-44558029D01*
X80543938Y-44564284D01*
X80516360Y-44567000D01*
X80057640Y-44567000D01*
X80030062Y-44564284D01*
X80009443Y-44558029D01*
X79990447Y-44547876D01*
X79973792Y-44534208D01*
X79960124Y-44517553D01*
X79949971Y-44498557D01*
X79943716Y-44477938D01*
X79941000Y-44450360D01*
X79941000Y-43941640D01*
X79943716Y-43914062D01*
X79949971Y-43893443D01*
X79960124Y-43874447D01*
X79973792Y-43857792D01*
X79990447Y-43844124D01*
X80009443Y-43833971D01*
X80030062Y-43827716D01*
X80057640Y-43825000D01*
X80516360Y-43825000D01*
X80543938Y-43827716D01*
G37*
G36*
X80543938Y-42811716D02*
G01*
X80564557Y-42817971D01*
X80583553Y-42828124D01*
X80600208Y-42841792D01*
X80613876Y-42858447D01*
X80624029Y-42877443D01*
X80630284Y-42898062D01*
X80633000Y-42925640D01*
X80633000Y-43434360D01*
X80630284Y-43461938D01*
X80624029Y-43482557D01*
X80613876Y-43501553D01*
X80600208Y-43518208D01*
X80583553Y-43531876D01*
X80564557Y-43542029D01*
X80543938Y-43548284D01*
X80516360Y-43551000D01*
X80057640Y-43551000D01*
X80030062Y-43548284D01*
X80009443Y-43542029D01*
X79990447Y-43531876D01*
X79973792Y-43518208D01*
X79960124Y-43501553D01*
X79949971Y-43482557D01*
X79943716Y-43461938D01*
X79941000Y-43434360D01*
X79941000Y-42925640D01*
X79943716Y-42898062D01*
X79949971Y-42877443D01*
X79960124Y-42858447D01*
X79973792Y-42841792D01*
X79990447Y-42828124D01*
X80009443Y-42817971D01*
X80030062Y-42811716D01*
X80057640Y-42809000D01*
X80516360Y-42809000D01*
X80543938Y-42811716D01*
G37*
G36*
X78257938Y-42811716D02*
G01*
X78278557Y-42817971D01*
X78297553Y-42828124D01*
X78314208Y-42841792D01*
X78327876Y-42858447D01*
X78338029Y-42877443D01*
X78344284Y-42898062D01*
X78347000Y-42925640D01*
X78347000Y-43434360D01*
X78344284Y-43461938D01*
X78338029Y-43482557D01*
X78327876Y-43501553D01*
X78314208Y-43518208D01*
X78297553Y-43531876D01*
X78278557Y-43542029D01*
X78257938Y-43548284D01*
X78230360Y-43551000D01*
X77771640Y-43551000D01*
X77744062Y-43548284D01*
X77723443Y-43542029D01*
X77704447Y-43531876D01*
X77687792Y-43518208D01*
X77674124Y-43501553D01*
X77663971Y-43482557D01*
X77657716Y-43461938D01*
X77655000Y-43434360D01*
X77655000Y-42925640D01*
X77657716Y-42898062D01*
X77663971Y-42877443D01*
X77674124Y-42858447D01*
X77687792Y-42841792D01*
X77704447Y-42828124D01*
X77723443Y-42817971D01*
X77744062Y-42811716D01*
X77771640Y-42809000D01*
X78230360Y-42809000D01*
X78257938Y-42811716D01*
G37*
G36*
X79227938Y-42811716D02*
G01*
X79248557Y-42817971D01*
X79267553Y-42828124D01*
X79284208Y-42841792D01*
X79297876Y-42858447D01*
X79308029Y-42877443D01*
X79314284Y-42898062D01*
X79317000Y-42925640D01*
X79317000Y-43434360D01*
X79314284Y-43461938D01*
X79308029Y-43482557D01*
X79297876Y-43501553D01*
X79284208Y-43518208D01*
X79267553Y-43531876D01*
X79248557Y-43542029D01*
X79227938Y-43548284D01*
X79200360Y-43551000D01*
X78741640Y-43551000D01*
X78714062Y-43548284D01*
X78693443Y-43542029D01*
X78674447Y-43531876D01*
X78657792Y-43518208D01*
X78644124Y-43501553D01*
X78633971Y-43482557D01*
X78627716Y-43461938D01*
X78625000Y-43434360D01*
X78625000Y-42925640D01*
X78627716Y-42898062D01*
X78633971Y-42877443D01*
X78644124Y-42858447D01*
X78657792Y-42841792D01*
X78674447Y-42828124D01*
X78693443Y-42817971D01*
X78714062Y-42811716D01*
X78741640Y-42809000D01*
X79200360Y-42809000D01*
X79227938Y-42811716D01*
G37*
G36*
X81513938Y-42811716D02*
G01*
X81534557Y-42817971D01*
X81553553Y-42828124D01*
X81570208Y-42841792D01*
X81583876Y-42858447D01*
X81594029Y-42877443D01*
X81600284Y-42898062D01*
X81603000Y-42925640D01*
X81603000Y-43434360D01*
X81600284Y-43461938D01*
X81594029Y-43482557D01*
X81583876Y-43501553D01*
X81570208Y-43518208D01*
X81553553Y-43531876D01*
X81534557Y-43542029D01*
X81513938Y-43548284D01*
X81486360Y-43551000D01*
X81027640Y-43551000D01*
X81000062Y-43548284D01*
X80979443Y-43542029D01*
X80960447Y-43531876D01*
X80943792Y-43518208D01*
X80930124Y-43501553D01*
X80919971Y-43482557D01*
X80913716Y-43461938D01*
X80911000Y-43434360D01*
X80911000Y-42925640D01*
X80913716Y-42898062D01*
X80919971Y-42877443D01*
X80930124Y-42858447D01*
X80943792Y-42841792D01*
X80960447Y-42828124D01*
X80979443Y-42817971D01*
X81000062Y-42811716D01*
X81027640Y-42809000D01*
X81486360Y-42809000D01*
X81513938Y-42811716D01*
G37*
G36*
X72379393Y-40110504D02*
G01*
X72616101Y-40208552D01*
X72616103Y-40208553D01*
X72829135Y-40350896D01*
X73010304Y-40532065D01*
X73152647Y-40745097D01*
X73152648Y-40745099D01*
X73250696Y-40981807D01*
X73300680Y-41233093D01*
X73300680Y-41489307D01*
X73250696Y-41740593D01*
X73152648Y-41977301D01*
X73152647Y-41977303D01*
X73010304Y-42190335D01*
X72829135Y-42371504D01*
X72616103Y-42513847D01*
X72616102Y-42513848D01*
X72616101Y-42513848D01*
X72379393Y-42611896D01*
X72128107Y-42661880D01*
X71871893Y-42661880D01*
X71620607Y-42611896D01*
X71383899Y-42513848D01*
X71383898Y-42513848D01*
X71383897Y-42513847D01*
X71170865Y-42371504D01*
X70989696Y-42190335D01*
X70847353Y-41977303D01*
X70847352Y-41977301D01*
X70749304Y-41740593D01*
X70699320Y-41489307D01*
X70699320Y-41233093D01*
X70749304Y-40981807D01*
X70847352Y-40745099D01*
X70847353Y-40745097D01*
X70989696Y-40532065D01*
X71170865Y-40350896D01*
X71383897Y-40208553D01*
X71383899Y-40208552D01*
X71620607Y-40110504D01*
X71871893Y-40060520D01*
X72128107Y-40060520D01*
X72379393Y-40110504D01*
G37*
G36*
X89300680Y-42651880D02*
G01*
X86699320Y-42651880D01*
X86699320Y-40050520D01*
X89300680Y-40050520D01*
X89300680Y-42651880D01*
G37*
G36*
X74703938Y-41797716D02*
G01*
X74724557Y-41803971D01*
X74743553Y-41814124D01*
X74760208Y-41827792D01*
X74773876Y-41844447D01*
X74784029Y-41863443D01*
X74790284Y-41884062D01*
X74793000Y-41911640D01*
X74793000Y-42370360D01*
X74790284Y-42397938D01*
X74784029Y-42418557D01*
X74773876Y-42437553D01*
X74760208Y-42454208D01*
X74743553Y-42467876D01*
X74724557Y-42478029D01*
X74703938Y-42484284D01*
X74676360Y-42487000D01*
X74167640Y-42487000D01*
X74140062Y-42484284D01*
X74119443Y-42478029D01*
X74100447Y-42467876D01*
X74083792Y-42454208D01*
X74070124Y-42437553D01*
X74059971Y-42418557D01*
X74053716Y-42397938D01*
X74051000Y-42370360D01*
X74051000Y-41911640D01*
X74053716Y-41884062D01*
X74059971Y-41863443D01*
X74070124Y-41844447D01*
X74083792Y-41827792D01*
X74100447Y-41814124D01*
X74119443Y-41803971D01*
X74140062Y-41797716D01*
X74167640Y-41795000D01*
X74676360Y-41795000D01*
X74703938Y-41797716D01*
G37*
G36*
X77891200Y-41874000D02*
G01*
X76439200Y-41874000D01*
X76439200Y-40422000D01*
X77891200Y-40422000D01*
X77891200Y-41874000D01*
G37*
G36*
X79376966Y-40449899D02*
G01*
X79509088Y-40504626D01*
X79509090Y-40504627D01*
X79627998Y-40584079D01*
X79729121Y-40685202D01*
X79769143Y-40745099D01*
X79808574Y-40804112D01*
X79863301Y-40936234D01*
X79891200Y-41076494D01*
X79891200Y-41219506D01*
X79863301Y-41359766D01*
X79809643Y-41489307D01*
X79808573Y-41491890D01*
X79729121Y-41610798D01*
X79627998Y-41711921D01*
X79509090Y-41791373D01*
X79509089Y-41791374D01*
X79509088Y-41791374D01*
X79376966Y-41846101D01*
X79236706Y-41874000D01*
X79093694Y-41874000D01*
X78953434Y-41846101D01*
X78821312Y-41791374D01*
X78821311Y-41791374D01*
X78821310Y-41791373D01*
X78702402Y-41711921D01*
X78601279Y-41610798D01*
X78521827Y-41491890D01*
X78520757Y-41489307D01*
X78467099Y-41359766D01*
X78439200Y-41219506D01*
X78439200Y-41076494D01*
X78467099Y-40936234D01*
X78521826Y-40804112D01*
X78561257Y-40745099D01*
X78601279Y-40685202D01*
X78702402Y-40584079D01*
X78821310Y-40504627D01*
X78821312Y-40504626D01*
X78953434Y-40449899D01*
X79093694Y-40422000D01*
X79236706Y-40422000D01*
X79376966Y-40449899D01*
G37*
G36*
X83376966Y-40449899D02*
G01*
X83509088Y-40504626D01*
X83509090Y-40504627D01*
X83627998Y-40584079D01*
X83729121Y-40685202D01*
X83769143Y-40745099D01*
X83808574Y-40804112D01*
X83863301Y-40936234D01*
X83891200Y-41076494D01*
X83891200Y-41219506D01*
X83863301Y-41359766D01*
X83809643Y-41489307D01*
X83808573Y-41491890D01*
X83729121Y-41610798D01*
X83627998Y-41711921D01*
X83509090Y-41791373D01*
X83509089Y-41791374D01*
X83509088Y-41791374D01*
X83376966Y-41846101D01*
X83236706Y-41874000D01*
X83093694Y-41874000D01*
X82953434Y-41846101D01*
X82821312Y-41791374D01*
X82821311Y-41791374D01*
X82821310Y-41791373D01*
X82702402Y-41711921D01*
X82601279Y-41610798D01*
X82521827Y-41491890D01*
X82520757Y-41489307D01*
X82467099Y-41359766D01*
X82439200Y-41219506D01*
X82439200Y-41076494D01*
X82467099Y-40936234D01*
X82521826Y-40804112D01*
X82561257Y-40745099D01*
X82601279Y-40685202D01*
X82702402Y-40584079D01*
X82821310Y-40504627D01*
X82821312Y-40504626D01*
X82953434Y-40449899D01*
X83093694Y-40422000D01*
X83236706Y-40422000D01*
X83376966Y-40449899D01*
G37*
G36*
X81376966Y-40449899D02*
G01*
X81509088Y-40504626D01*
X81509090Y-40504627D01*
X81627998Y-40584079D01*
X81729121Y-40685202D01*
X81769143Y-40745099D01*
X81808574Y-40804112D01*
X81863301Y-40936234D01*
X81891200Y-41076494D01*
X81891200Y-41219506D01*
X81863301Y-41359766D01*
X81809643Y-41489307D01*
X81808573Y-41491890D01*
X81729121Y-41610798D01*
X81627998Y-41711921D01*
X81509090Y-41791373D01*
X81509089Y-41791374D01*
X81509088Y-41791374D01*
X81376966Y-41846101D01*
X81236706Y-41874000D01*
X81093694Y-41874000D01*
X80953434Y-41846101D01*
X80821312Y-41791374D01*
X80821311Y-41791374D01*
X80821310Y-41791373D01*
X80702402Y-41711921D01*
X80601279Y-41610798D01*
X80521827Y-41491890D01*
X80520757Y-41489307D01*
X80467099Y-41359766D01*
X80439200Y-41219506D01*
X80439200Y-41076494D01*
X80467099Y-40936234D01*
X80521826Y-40804112D01*
X80561257Y-40745099D01*
X80601279Y-40685202D01*
X80702402Y-40584079D01*
X80821310Y-40504627D01*
X80821312Y-40504626D01*
X80953434Y-40449899D01*
X81093694Y-40422000D01*
X81236706Y-40422000D01*
X81376966Y-40449899D01*
G37*
G36*
X74703938Y-40827716D02*
G01*
X74724557Y-40833971D01*
X74743553Y-40844124D01*
X74760208Y-40857792D01*
X74773876Y-40874447D01*
X74784029Y-40893443D01*
X74790284Y-40914062D01*
X74793000Y-40941640D01*
X74793000Y-41400360D01*
X74790284Y-41427938D01*
X74784029Y-41448557D01*
X74773876Y-41467553D01*
X74760208Y-41484208D01*
X74743553Y-41497876D01*
X74724557Y-41508029D01*
X74703938Y-41514284D01*
X74676360Y-41517000D01*
X74167640Y-41517000D01*
X74140062Y-41514284D01*
X74119443Y-41508029D01*
X74100447Y-41497876D01*
X74083792Y-41484208D01*
X74070124Y-41467553D01*
X74059971Y-41448557D01*
X74053716Y-41427938D01*
X74051000Y-41400360D01*
X74051000Y-40941640D01*
X74053716Y-40914062D01*
X74059971Y-40893443D01*
X74070124Y-40874447D01*
X74083792Y-40857792D01*
X74100447Y-40844124D01*
X74119443Y-40833971D01*
X74140062Y-40827716D01*
X74167640Y-40825000D01*
X74676360Y-40825000D01*
X74703938Y-40827716D01*
G37*
M02*
