%FSLAX45Y45*%
G04 Gerber Fmt 4.5, Leading zero omitted, Abs format (unit mm)*
G04 Created by KiCad (PCBNEW (5.1.5)-3) date 2021-11-09 21:42:03*
%MOMM*%
%LPD*%
G04 APERTURE LIST*
%TA.AperFunction,Profile*%
%ADD10C,0.050000*%
%TD*%
%ADD11C,0.200000*%
%ADD12C,0.300000*%
G04 APERTURE END LIST*
D10*
X8978900Y-8200000D02*
X8978900Y-7480300D01*
X9347200Y-7480300D02*
X9347200Y-5689600D01*
X8978900Y-7480300D02*
X9347200Y-7480300D01*
X6700000Y-6800000D02*
X7000000Y-7100000D01*
X6700000Y-5800000D02*
X7000000Y-5500000D01*
X9347200Y-5689600D02*
X8991600Y-5321300D01*
X7000000Y-3962400D02*
X8991600Y-3962400D01*
X7000000Y-5500000D02*
X7000000Y-3962400D01*
X6700000Y-6800000D02*
X6700000Y-5800000D01*
X7000000Y-8200000D02*
X7000000Y-7100000D01*
X7200000Y-8200000D02*
X7000000Y-8200000D01*
X7200000Y-9700000D02*
X7200000Y-8200000D01*
X8800000Y-9700000D02*
X7200000Y-9700000D01*
X8800000Y-8200000D02*
X8800000Y-9700000D01*
X8978900Y-8200000D02*
X8800000Y-8200000D01*
X8991600Y-3962400D02*
X8991600Y-5321300D01*
D11*
D12*
X6983928Y-10168214D02*
X6983928Y-9868214D01*
X7055357Y-9868214D01*
X7098214Y-9882500D01*
X7126786Y-9911072D01*
X7141071Y-9939643D01*
X7155357Y-9996786D01*
X7155357Y-10039643D01*
X7141071Y-10096786D01*
X7126786Y-10125357D01*
X7098214Y-10153929D01*
X7055357Y-10168214D01*
X6983928Y-10168214D01*
X7283928Y-10168214D02*
X7283928Y-9968214D01*
X7283928Y-10025357D02*
X7298214Y-9996786D01*
X7312500Y-9982500D01*
X7341071Y-9968214D01*
X7369643Y-9968214D01*
X7469643Y-10168214D02*
X7469643Y-9968214D01*
X7469643Y-9868214D02*
X7455357Y-9882500D01*
X7469643Y-9896786D01*
X7483928Y-9882500D01*
X7469643Y-9868214D01*
X7469643Y-9896786D01*
X7655357Y-10168214D02*
X7626786Y-10153929D01*
X7612500Y-10125357D01*
X7612500Y-9868214D01*
X7812500Y-10168214D02*
X7783928Y-10153929D01*
X7769643Y-10125357D01*
X7769643Y-9868214D01*
X8155357Y-10168214D02*
X8155357Y-9868214D01*
X8255357Y-10082500D01*
X8355357Y-9868214D01*
X8355357Y-10168214D01*
X8626786Y-10168214D02*
X8626786Y-10011072D01*
X8612500Y-9982500D01*
X8583928Y-9968214D01*
X8526786Y-9968214D01*
X8498214Y-9982500D01*
X8626786Y-10153929D02*
X8598214Y-10168214D01*
X8526786Y-10168214D01*
X8498214Y-10153929D01*
X8483928Y-10125357D01*
X8483928Y-10096786D01*
X8498214Y-10068214D01*
X8526786Y-10053929D01*
X8598214Y-10053929D01*
X8626786Y-10039643D01*
X8769643Y-9968214D02*
X8769643Y-10268214D01*
X8769643Y-9982500D02*
X8798214Y-9968214D01*
X8855357Y-9968214D01*
X8883928Y-9982500D01*
X8898214Y-9996786D01*
X8912500Y-10025357D01*
X8912500Y-10111072D01*
X8898214Y-10139643D01*
X8883928Y-10153929D01*
X8855357Y-10168214D01*
X8798214Y-10168214D01*
X8769643Y-10153929D01*
X9041071Y-10139643D02*
X9055357Y-10153929D01*
X9041071Y-10168214D01*
X9026786Y-10153929D01*
X9041071Y-10139643D01*
X9041071Y-10168214D01*
X9041071Y-9982500D02*
X9055357Y-9996786D01*
X9041071Y-10011072D01*
X9026786Y-9996786D01*
X9041071Y-9982500D01*
X9041071Y-10011072D01*
M02*
