G04 #@! TF.GenerationSoftware,KiCad,Pcbnew,(5.1.5)-3*
G04 #@! TF.CreationDate,2021-11-09T21:41:46-05:00*
G04 #@! TF.ProjectId,MotorDriver,4d6f746f-7244-4726-9976-65722e6b6963,rev?*
G04 #@! TF.SameCoordinates,Original*
G04 #@! TF.FileFunction,Copper,L4,Bot*
G04 #@! TF.FilePolarity,Positive*
%FSLAX46Y46*%
G04 Gerber Fmt 4.6, Leading zero omitted, Abs format (unit mm)*
G04 Created by KiCad (PCBNEW (5.1.5)-3) date 2021-11-09 21:41:46*
%MOMM*%
%LPD*%
G04 APERTURE LIST*
%ADD10O,1.350000X1.350000*%
%ADD11R,1.350000X1.350000*%
%ADD12R,1.000000X1.500000*%
%ADD13C,2.499360*%
%ADD14R,2.499360X2.499360*%
%ADD15C,0.900000*%
%ADD16C,0.600000*%
%ADD17C,0.800000*%
%ADD18C,0.200000*%
G04 APERTURE END LIST*
D10*
X91694000Y-58452000D03*
D11*
X91694000Y-60452000D03*
D10*
X68580000Y-60294000D03*
X68580000Y-62294000D03*
X68580000Y-64294000D03*
D11*
X68580000Y-66294000D03*
D12*
X84503500Y-93027500D03*
X86423500Y-93027500D03*
X73040000Y-49784000D03*
X71120000Y-49784000D03*
X85456000Y-65735200D03*
X87376000Y-65735200D03*
D13*
X91694000Y-72390000D03*
D14*
X91694000Y-68580000D03*
D10*
X83165200Y-41148000D03*
X81165200Y-41148000D03*
X79165200Y-41148000D03*
D11*
X77165200Y-41148000D03*
D13*
X72000000Y-76464000D03*
D14*
X72000000Y-80274000D03*
D13*
X88000000Y-80264000D03*
D14*
X88000000Y-76454000D03*
D13*
X88000000Y-45161200D03*
D14*
X88000000Y-41351200D03*
D13*
X72000000Y-41361200D03*
D14*
X72000000Y-45171200D03*
D15*
X87376000Y-73406000D03*
D16*
X71818500Y-70739000D03*
X76454000Y-71945500D03*
X82296000Y-48133000D03*
D15*
X77279500Y-48641000D03*
X73406000Y-64770000D03*
X86360000Y-49784000D03*
X74676000Y-70612000D03*
X79248000Y-76200000D03*
X82550000Y-54610000D03*
X80010000Y-54610000D03*
X80010000Y-66040000D03*
X76200000Y-53340000D03*
X76200000Y-59690000D03*
X82550000Y-58420000D03*
X80010000Y-58420000D03*
X80010000Y-62230000D03*
X82550000Y-62230000D03*
X90551000Y-55372000D03*
X87176000Y-72444000D03*
X76073000Y-94488000D03*
X82804000Y-94361000D03*
X79502000Y-90043000D03*
X80264000Y-81026000D03*
X68453000Y-57848500D03*
X85407500Y-40830500D03*
X70866000Y-47561500D03*
X88963500Y-48069500D03*
X86804500Y-82740500D03*
X72834500Y-83312000D03*
D16*
X87693500Y-53022500D03*
X87693500Y-54292500D03*
X87693500Y-55562500D03*
X87630000Y-65722500D03*
X72199500Y-59372500D03*
X72199500Y-58102500D03*
X72199500Y-56832500D03*
X72199500Y-53022500D03*
X77597000Y-87122000D03*
X81534000Y-69596000D03*
D17*
X77343000Y-42926000D03*
D16*
X78524000Y-45936000D03*
X73914000Y-74041000D03*
X77533500Y-69469000D03*
X78105000Y-64262000D03*
D15*
X82232500Y-44767500D03*
D16*
X82423000Y-42926000D03*
X82359500Y-43561000D03*
X70739000Y-49149000D03*
D15*
X86423500Y-93027500D03*
X84391500Y-87439500D03*
X84391500Y-90233500D03*
D16*
X79946500Y-46990000D03*
X78359000Y-45021500D03*
X77152500Y-63817500D03*
X73660000Y-74866500D03*
X76962000Y-67754500D03*
X73700000Y-88798800D03*
X73700000Y-90198800D03*
X75501500Y-87249000D03*
X76962000Y-87884000D03*
X75438000Y-85979000D03*
X73700000Y-92998800D03*
X76263500Y-81470500D03*
X84772500Y-49022000D03*
X82232500Y-77406500D03*
X88500000Y-51745000D03*
X77597000Y-44005500D03*
X78422500Y-44069000D03*
X81661000Y-78041500D03*
X88500000Y-56825000D03*
X78105000Y-78930500D03*
X84137500Y-59753500D03*
X78232000Y-80010000D03*
X84836000Y-60198000D03*
D15*
X78041500Y-77724000D03*
X81915000Y-79248000D03*
D16*
X83248500Y-63817500D03*
D15*
X86169500Y-68961000D03*
X86169500Y-67437000D03*
D16*
X79883000Y-47625000D03*
X92011500Y-63182500D03*
D18*
X81534000Y-69596000D02*
X81280000Y-69850000D01*
X81280000Y-69850000D02*
X81280000Y-76962000D01*
X81280000Y-76962000D02*
X79438500Y-78803500D01*
X79438500Y-78803500D02*
X79438500Y-79692500D01*
X77597000Y-81534000D02*
X77597000Y-87122000D01*
X79438500Y-79692500D02*
X77597000Y-81534000D01*
X78524000Y-63589000D02*
X78524000Y-45936000D01*
X78524000Y-63589000D02*
X78524000Y-63843000D01*
X78524000Y-63843000D02*
X78105000Y-64262000D01*
X74295000Y-69469000D02*
X77533500Y-69469000D01*
X73914000Y-69850000D02*
X74295000Y-69469000D01*
X73914000Y-74041000D02*
X73914000Y-69850000D01*
X79946500Y-46990000D02*
X79946500Y-46355000D01*
X78613000Y-45021500D02*
X78359000Y-45021500D01*
X79946500Y-46355000D02*
X78613000Y-45021500D01*
X77851000Y-45529500D02*
X78359000Y-45021500D01*
X78105000Y-46609000D02*
X77851000Y-46355000D01*
X77152500Y-63817500D02*
X77660500Y-63817500D01*
X77660500Y-63817500D02*
X78105000Y-63373000D01*
X78105000Y-63373000D02*
X78105000Y-46609000D01*
X77851000Y-46355000D02*
X77851000Y-45529500D01*
X78359000Y-45021500D02*
X77660500Y-45021500D01*
X77660500Y-45021500D02*
X76581000Y-43942000D01*
X76581000Y-43942000D02*
X76581000Y-42672000D01*
X76581000Y-42672000D02*
X77089000Y-42164000D01*
X77089000Y-42164000D02*
X80010000Y-42164000D01*
X80010000Y-42164000D02*
X81165200Y-41148000D01*
X73914000Y-69024500D02*
X76708000Y-69024500D01*
X73469500Y-69469000D02*
X73914000Y-69024500D01*
X73469500Y-72961500D02*
X73469500Y-69469000D01*
X76962000Y-68770500D02*
X76962000Y-67754500D01*
X76708000Y-69024500D02*
X76962000Y-68770500D01*
X73279000Y-73152000D02*
X73469500Y-72961500D01*
X73279000Y-74295000D02*
X73279000Y-73152000D01*
X73660000Y-74676000D02*
X73279000Y-74295000D01*
X73660000Y-74866500D02*
X73660000Y-74676000D01*
X73914000Y-88584800D02*
X73700000Y-88798800D01*
X73914000Y-75565000D02*
X73914000Y-88584800D01*
X72199500Y-59372500D02*
X72199500Y-62039500D01*
X72199500Y-62039500D02*
X78168500Y-68008500D01*
X78168500Y-71310500D02*
X73914000Y-75565000D01*
X78168500Y-68008500D02*
X78168500Y-71310500D01*
X74358500Y-89540300D02*
X73700000Y-90198800D01*
X74358500Y-75692000D02*
X74358500Y-89540300D01*
X78613000Y-71437500D02*
X74358500Y-75692000D01*
X78613000Y-67881500D02*
X78613000Y-71437500D01*
X72834500Y-62103000D02*
X78613000Y-67881500D01*
X72199500Y-58102500D02*
X72199500Y-58483500D01*
X72834500Y-59118500D02*
X72834500Y-62103000D01*
X72199500Y-58483500D02*
X72834500Y-59118500D01*
X72199500Y-56832500D02*
X72199500Y-57213500D01*
X72199500Y-57213500D02*
X73279000Y-58293000D01*
X73279000Y-58293000D02*
X73279000Y-61976000D01*
X73279000Y-61976000D02*
X78232000Y-66929000D01*
X78232000Y-66929000D02*
X78867000Y-67564000D01*
X78867000Y-67564000D02*
X79057500Y-67754500D01*
X79057500Y-67754500D02*
X79057500Y-71564500D01*
X79057500Y-71564500D02*
X74803000Y-75819000D01*
X74803000Y-75819000D02*
X74803000Y-83566000D01*
X74803000Y-83566000D02*
X74803000Y-86423500D01*
X74803000Y-86423500D02*
X74803000Y-86550500D01*
X74803000Y-86550500D02*
X75501500Y-87249000D01*
X76962000Y-87884000D02*
X79883000Y-87884000D01*
X79883000Y-87884000D02*
X83566000Y-91567000D01*
X84963000Y-91567000D02*
X86423500Y-93027500D01*
X83566000Y-91567000D02*
X84963000Y-91567000D01*
X72199500Y-53022500D02*
X72199500Y-55943500D01*
X72199500Y-55943500D02*
X72834500Y-56578500D01*
X72834500Y-56578500D02*
X72834500Y-57277000D01*
X72834500Y-57277000D02*
X73723500Y-58166000D01*
X73723500Y-58166000D02*
X73723500Y-61849000D01*
X73723500Y-61849000D02*
X78422500Y-66548000D01*
X78422500Y-66548000D02*
X79438500Y-67564000D01*
X79438500Y-67564000D02*
X79502000Y-67627500D01*
X79502000Y-67627500D02*
X79502000Y-71691500D01*
X79502000Y-71691500D02*
X75247500Y-75946000D01*
X75247500Y-75946000D02*
X75247500Y-83566000D01*
X75247500Y-83566000D02*
X75247500Y-85788500D01*
X75247500Y-85788500D02*
X75438000Y-85979000D01*
X76136500Y-90562300D02*
X73700000Y-92998800D01*
X75692000Y-85344000D02*
X76136500Y-85788500D01*
X79946500Y-71818500D02*
X75692000Y-76073000D01*
X79946500Y-67500500D02*
X79946500Y-71818500D01*
X76136500Y-85788500D02*
X76136500Y-90562300D01*
X76263500Y-81470500D02*
X75692000Y-81470500D01*
X75692000Y-76073000D02*
X75692000Y-81470500D01*
X75692000Y-81470500D02*
X75692000Y-85344000D01*
X84772500Y-49022000D02*
X85788500Y-48006000D01*
X85788500Y-48006000D02*
X85788500Y-46355000D01*
X82994500Y-43561000D02*
X82359500Y-43561000D01*
X85788500Y-46355000D02*
X82994500Y-43561000D01*
X88900000Y-58166000D02*
X87884000Y-57150000D01*
X87884000Y-57150000D02*
X87884000Y-56578500D01*
X87884000Y-56578500D02*
X89281000Y-55181500D01*
X89281000Y-55181500D02*
X89281000Y-52526000D01*
X89281000Y-52526000D02*
X88500000Y-51745000D01*
X88900000Y-69405500D02*
X88836500Y-69405500D01*
X88900000Y-69405500D02*
X88900000Y-58166000D01*
X88836500Y-69405500D02*
X87312500Y-70929500D01*
X87312500Y-70929500D02*
X85534500Y-70929500D01*
X82232500Y-74231500D02*
X82232500Y-77406500D01*
X85534500Y-70929500D02*
X82232500Y-74231500D01*
X87693500Y-53022500D02*
X87693500Y-47688500D01*
X82931000Y-42926000D02*
X82423000Y-42926000D01*
X87693500Y-47688500D02*
X82931000Y-42926000D01*
X86296500Y-52895500D02*
X87693500Y-54292500D01*
X78295500Y-43307000D02*
X78867000Y-43307000D01*
X78867000Y-43307000D02*
X79502000Y-43942000D01*
X79502000Y-43942000D02*
X79502000Y-44704000D01*
X86296500Y-51498500D02*
X86296500Y-52895500D01*
X77597000Y-44005500D02*
X78295500Y-43307000D01*
X83629500Y-48831500D02*
X83629500Y-47117000D01*
X83629500Y-48831500D02*
X86296500Y-51498500D01*
X83629500Y-47117000D02*
X82740500Y-46228000D01*
X82740500Y-46228000D02*
X81026000Y-46228000D01*
X79502000Y-44704000D02*
X81026000Y-46228000D01*
X78422500Y-44069000D02*
X78422500Y-44196000D01*
X85852000Y-53721000D02*
X87693500Y-55562500D01*
X85852000Y-51625500D02*
X85852000Y-53721000D01*
X83185000Y-48958500D02*
X83185000Y-47244000D01*
X83185000Y-48958500D02*
X85852000Y-51625500D01*
X83185000Y-47244000D02*
X82613500Y-46672500D01*
X82613500Y-46672500D02*
X80962500Y-46672500D01*
X78422500Y-44196000D02*
X80962500Y-46672500D01*
X89344500Y-57669500D02*
X88500000Y-56825000D01*
X85534500Y-71501000D02*
X82677000Y-74358500D01*
X82677000Y-74358500D02*
X82677000Y-76835000D01*
X82677000Y-76835000D02*
X83121500Y-77279500D01*
X83121500Y-77787500D02*
X82867500Y-78041500D01*
X83121500Y-77279500D02*
X83121500Y-77787500D01*
X81661000Y-78041500D02*
X82867500Y-78041500D01*
X87757000Y-71501000D02*
X89344500Y-69913500D01*
X87757000Y-71501000D02*
X85534500Y-71501000D01*
X89344500Y-69913500D02*
X89344500Y-57669500D01*
X84137500Y-59753500D02*
X84137500Y-63817500D01*
X84137500Y-63817500D02*
X80391000Y-67564000D01*
X80391000Y-76644500D02*
X78105000Y-78930500D01*
X80391000Y-67564000D02*
X80391000Y-76644500D01*
X78232000Y-80010000D02*
X78232000Y-79692500D01*
X78232000Y-79692500D02*
X78994000Y-78930500D01*
X78994000Y-78930500D02*
X78994000Y-78613000D01*
X78994000Y-78613000D02*
X80835500Y-76771500D01*
X80835500Y-76771500D02*
X80835500Y-67691000D01*
X80835500Y-67691000D02*
X84582000Y-63944500D01*
X84582000Y-60452000D02*
X84836000Y-60198000D01*
X84582000Y-63944500D02*
X84582000Y-60452000D01*
X79946500Y-67500500D02*
X79946500Y-67437000D01*
X79946500Y-67437000D02*
X83248500Y-64135000D01*
X83248500Y-64135000D02*
X83248500Y-63817500D01*
X91694000Y-72390000D02*
X89789000Y-70485000D01*
X89789000Y-70485000D02*
X89789000Y-66040000D01*
X89789000Y-66040000D02*
X89789000Y-65405000D01*
X89789000Y-65405000D02*
X92011500Y-63182500D01*
G36*
X71265951Y-39987892D02*
G01*
X71012137Y-40157485D01*
X70796285Y-40373337D01*
X70626692Y-40627151D01*
X70509874Y-40909175D01*
X70450320Y-41208570D01*
X70450320Y-41513830D01*
X70509874Y-41813225D01*
X70626692Y-42095249D01*
X70796285Y-42349063D01*
X71012137Y-42564915D01*
X71265951Y-42734508D01*
X71547975Y-42851326D01*
X71847370Y-42910880D01*
X72152630Y-42910880D01*
X72452025Y-42851326D01*
X72734049Y-42734508D01*
X72987863Y-42564915D01*
X73203715Y-42349063D01*
X73373308Y-42095249D01*
X73490126Y-41813225D01*
X73549680Y-41513830D01*
X73549680Y-41208570D01*
X73490126Y-40909175D01*
X73373308Y-40627151D01*
X73203715Y-40373337D01*
X72987863Y-40157485D01*
X72734049Y-39987892D01*
X72640155Y-39949000D01*
X86491678Y-39949000D01*
X86471816Y-39986160D01*
X86454661Y-40042710D01*
X86448869Y-40101520D01*
X86448869Y-42600880D01*
X86454661Y-42659690D01*
X86471816Y-42716240D01*
X86499673Y-42768357D01*
X86537162Y-42814038D01*
X86582843Y-42851527D01*
X86634960Y-42879384D01*
X86691510Y-42896539D01*
X86750320Y-42902331D01*
X89249680Y-42902331D01*
X89308490Y-42896539D01*
X89365040Y-42879384D01*
X89417157Y-42851527D01*
X89462838Y-42814038D01*
X89500327Y-42768357D01*
X89528184Y-42716240D01*
X89545339Y-42659690D01*
X89551131Y-42600880D01*
X89551131Y-40101520D01*
X89545339Y-40042710D01*
X89528184Y-39986160D01*
X89508322Y-39949000D01*
X89591000Y-39949000D01*
X89591001Y-52273214D01*
X89577735Y-52257049D01*
X89577733Y-52257047D01*
X89565211Y-52241789D01*
X89549953Y-52229267D01*
X89100000Y-51779315D01*
X89100000Y-51685905D01*
X89076942Y-51569986D01*
X89031713Y-51460793D01*
X88966050Y-51362522D01*
X88882478Y-51278950D01*
X88784207Y-51213287D01*
X88675014Y-51168058D01*
X88559095Y-51145000D01*
X88440905Y-51145000D01*
X88324986Y-51168058D01*
X88215793Y-51213287D01*
X88117522Y-51278950D01*
X88093500Y-51302972D01*
X88093500Y-47708135D01*
X88095434Y-47688499D01*
X88093500Y-47668863D01*
X88093500Y-47668853D01*
X88087712Y-47610086D01*
X88064840Y-47534686D01*
X88027697Y-47465197D01*
X87977711Y-47404289D01*
X87962453Y-47391767D01*
X85579256Y-45008570D01*
X86450320Y-45008570D01*
X86450320Y-45313830D01*
X86509874Y-45613225D01*
X86626692Y-45895249D01*
X86796285Y-46149063D01*
X87012137Y-46364915D01*
X87265951Y-46534508D01*
X87547975Y-46651326D01*
X87847370Y-46710880D01*
X88152630Y-46710880D01*
X88452025Y-46651326D01*
X88734049Y-46534508D01*
X88987863Y-46364915D01*
X89203715Y-46149063D01*
X89373308Y-45895249D01*
X89490126Y-45613225D01*
X89549680Y-45313830D01*
X89549680Y-45008570D01*
X89490126Y-44709175D01*
X89373308Y-44427151D01*
X89203715Y-44173337D01*
X88987863Y-43957485D01*
X88734049Y-43787892D01*
X88452025Y-43671074D01*
X88152630Y-43611520D01*
X87847370Y-43611520D01*
X87547975Y-43671074D01*
X87265951Y-43787892D01*
X87012137Y-43957485D01*
X86796285Y-44173337D01*
X86626692Y-44427151D01*
X86509874Y-44709175D01*
X86450320Y-45008570D01*
X85579256Y-45008570D01*
X83227737Y-42657052D01*
X83215211Y-42641789D01*
X83154303Y-42591803D01*
X83084814Y-42554660D01*
X83009414Y-42531788D01*
X82950647Y-42526000D01*
X82950646Y-42526000D01*
X82931000Y-42524065D01*
X82911354Y-42526000D01*
X82871528Y-42526000D01*
X82805478Y-42459950D01*
X82707207Y-42394287D01*
X82598014Y-42349058D01*
X82482095Y-42326000D01*
X82363905Y-42326000D01*
X82247986Y-42349058D01*
X82138793Y-42394287D01*
X82040522Y-42459950D01*
X81956950Y-42543522D01*
X81891287Y-42641793D01*
X81846058Y-42750986D01*
X81823000Y-42866905D01*
X81823000Y-42985095D01*
X81846058Y-43101014D01*
X81884013Y-43192646D01*
X81827787Y-43276793D01*
X81782558Y-43385986D01*
X81759500Y-43501905D01*
X81759500Y-43620095D01*
X81782558Y-43736014D01*
X81827787Y-43845207D01*
X81893450Y-43943478D01*
X81977022Y-44027050D01*
X82008876Y-44048334D01*
X81877242Y-44102859D01*
X81754403Y-44184937D01*
X81649937Y-44289403D01*
X81567859Y-44412242D01*
X81511322Y-44548733D01*
X81482500Y-44693631D01*
X81482500Y-44841369D01*
X81511322Y-44986267D01*
X81567859Y-45122758D01*
X81649937Y-45245597D01*
X81754403Y-45350063D01*
X81877242Y-45432141D01*
X82013733Y-45488678D01*
X82158631Y-45517500D01*
X82306369Y-45517500D01*
X82451267Y-45488678D01*
X82587758Y-45432141D01*
X82710597Y-45350063D01*
X82815063Y-45245597D01*
X82897141Y-45122758D01*
X82953678Y-44986267D01*
X82982500Y-44841369D01*
X82982500Y-44693631D01*
X82953678Y-44548733D01*
X82897141Y-44412242D01*
X82815063Y-44289403D01*
X82710597Y-44184937D01*
X82599795Y-44110902D01*
X82643707Y-44092713D01*
X82741978Y-44027050D01*
X82808028Y-43961000D01*
X82828815Y-43961000D01*
X85388501Y-46520686D01*
X85388500Y-47840314D01*
X84806815Y-48422000D01*
X84713405Y-48422000D01*
X84597486Y-48445058D01*
X84488293Y-48490287D01*
X84390022Y-48555950D01*
X84306450Y-48639522D01*
X84240787Y-48737793D01*
X84199984Y-48836299D01*
X84029500Y-48665815D01*
X84029500Y-47136647D01*
X84031435Y-47117000D01*
X84023712Y-47038586D01*
X84000840Y-46963185D01*
X83963697Y-46893697D01*
X83926235Y-46848049D01*
X83926233Y-46848047D01*
X83913711Y-46832789D01*
X83898453Y-46820267D01*
X83037237Y-45959052D01*
X83024711Y-45943789D01*
X82963803Y-45893803D01*
X82894314Y-45856660D01*
X82818914Y-45833788D01*
X82760147Y-45828000D01*
X82760146Y-45828000D01*
X82740500Y-45826065D01*
X82720854Y-45828000D01*
X81191685Y-45828000D01*
X79902000Y-44538315D01*
X79902000Y-43961646D01*
X79903935Y-43942000D01*
X79896212Y-43863586D01*
X79873340Y-43788186D01*
X79836197Y-43718697D01*
X79827715Y-43708362D01*
X79786211Y-43657789D01*
X79770949Y-43645264D01*
X79163737Y-43038052D01*
X79151211Y-43022789D01*
X79090303Y-42972803D01*
X79020814Y-42935660D01*
X78945414Y-42912788D01*
X78886647Y-42907000D01*
X78886646Y-42907000D01*
X78867000Y-42905065D01*
X78847354Y-42907000D01*
X78315135Y-42907000D01*
X78295499Y-42905066D01*
X78275863Y-42907000D01*
X78275853Y-42907000D01*
X78217086Y-42912788D01*
X78141686Y-42935660D01*
X78072197Y-42972803D01*
X78072195Y-42972804D01*
X78072196Y-42972804D01*
X78042567Y-42997119D01*
X78043000Y-42994944D01*
X78043000Y-42857056D01*
X78016099Y-42721818D01*
X77963332Y-42594426D01*
X77943002Y-42564000D01*
X79977494Y-42564000D01*
X79984284Y-42565111D01*
X80016807Y-42564000D01*
X80029647Y-42564000D01*
X80036465Y-42563328D01*
X80063031Y-42562421D01*
X80075581Y-42559476D01*
X80088414Y-42558212D01*
X80113860Y-42550493D01*
X80139740Y-42544420D01*
X80151473Y-42539083D01*
X80163814Y-42535340D01*
X80187269Y-42522803D01*
X80211463Y-42511799D01*
X80221928Y-42504277D01*
X80233303Y-42498197D01*
X80253869Y-42481319D01*
X80259413Y-42477334D01*
X80269018Y-42468886D01*
X80294211Y-42448211D01*
X80298582Y-42442885D01*
X80761217Y-42035998D01*
X80880803Y-42085532D01*
X81069171Y-42123000D01*
X81261229Y-42123000D01*
X81449597Y-42085532D01*
X81627036Y-42012034D01*
X81786727Y-41905332D01*
X81922532Y-41769527D01*
X82029234Y-41609836D01*
X82102732Y-41432397D01*
X82140200Y-41244029D01*
X82140200Y-41051971D01*
X82190200Y-41051971D01*
X82190200Y-41244029D01*
X82227668Y-41432397D01*
X82301166Y-41609836D01*
X82407868Y-41769527D01*
X82543673Y-41905332D01*
X82703364Y-42012034D01*
X82880803Y-42085532D01*
X83069171Y-42123000D01*
X83261229Y-42123000D01*
X83449597Y-42085532D01*
X83627036Y-42012034D01*
X83786727Y-41905332D01*
X83922532Y-41769527D01*
X84029234Y-41609836D01*
X84102732Y-41432397D01*
X84140200Y-41244029D01*
X84140200Y-41051971D01*
X84102732Y-40863603D01*
X84029234Y-40686164D01*
X83922532Y-40526473D01*
X83786727Y-40390668D01*
X83627036Y-40283966D01*
X83449597Y-40210468D01*
X83261229Y-40173000D01*
X83069171Y-40173000D01*
X82880803Y-40210468D01*
X82703364Y-40283966D01*
X82543673Y-40390668D01*
X82407868Y-40526473D01*
X82301166Y-40686164D01*
X82227668Y-40863603D01*
X82190200Y-41051971D01*
X82140200Y-41051971D01*
X82102732Y-40863603D01*
X82029234Y-40686164D01*
X81922532Y-40526473D01*
X81786727Y-40390668D01*
X81627036Y-40283966D01*
X81449597Y-40210468D01*
X81261229Y-40173000D01*
X81069171Y-40173000D01*
X80880803Y-40210468D01*
X80703364Y-40283966D01*
X80543673Y-40390668D01*
X80407868Y-40526473D01*
X80301166Y-40686164D01*
X80227668Y-40863603D01*
X80190200Y-41051971D01*
X80190200Y-41244029D01*
X80227668Y-41432397D01*
X80229936Y-41437872D01*
X80021855Y-41620880D01*
X80029234Y-41609836D01*
X80102732Y-41432397D01*
X80140200Y-41244029D01*
X80140200Y-41051971D01*
X80102732Y-40863603D01*
X80029234Y-40686164D01*
X79922532Y-40526473D01*
X79786727Y-40390668D01*
X79627036Y-40283966D01*
X79449597Y-40210468D01*
X79261229Y-40173000D01*
X79069171Y-40173000D01*
X78880803Y-40210468D01*
X78703364Y-40283966D01*
X78543673Y-40390668D01*
X78407868Y-40526473D01*
X78301166Y-40686164D01*
X78227668Y-40863603D01*
X78190200Y-41051971D01*
X78190200Y-41244029D01*
X78227668Y-41432397D01*
X78301166Y-41609836D01*
X78404175Y-41764000D01*
X77108635Y-41764000D01*
X77088999Y-41762066D01*
X77069363Y-41764000D01*
X77069353Y-41764000D01*
X77010586Y-41769788D01*
X76935186Y-41792660D01*
X76865697Y-41829803D01*
X76804789Y-41879789D01*
X76792263Y-41895052D01*
X76312048Y-42375267D01*
X76296790Y-42387789D01*
X76284268Y-42403047D01*
X76284265Y-42403050D01*
X76246803Y-42448698D01*
X76209661Y-42518186D01*
X76186788Y-42593587D01*
X76179065Y-42672000D01*
X76181001Y-42691656D01*
X76181000Y-43922353D01*
X76179065Y-43942000D01*
X76181000Y-43961646D01*
X76186788Y-44020413D01*
X76209660Y-44095813D01*
X76246803Y-44165302D01*
X76296789Y-44226211D01*
X76312050Y-44238735D01*
X77363763Y-45290448D01*
X77376289Y-45305711D01*
X77391550Y-45318235D01*
X77437197Y-45355697D01*
X77478954Y-45378017D01*
X77456788Y-45451087D01*
X77449065Y-45529500D01*
X77451001Y-45549156D01*
X77451000Y-46335353D01*
X77449065Y-46355000D01*
X77451000Y-46374646D01*
X77456788Y-46433413D01*
X77479660Y-46508813D01*
X77516803Y-46578302D01*
X77566789Y-46639211D01*
X77582050Y-46651735D01*
X77705001Y-46774686D01*
X77705000Y-63207314D01*
X77547921Y-63364393D01*
X77534978Y-63351450D01*
X77436707Y-63285787D01*
X77327514Y-63240558D01*
X77211595Y-63217500D01*
X77093405Y-63217500D01*
X76977486Y-63240558D01*
X76868293Y-63285787D01*
X76770022Y-63351450D01*
X76686450Y-63435022D01*
X76620787Y-63533293D01*
X76575558Y-63642486D01*
X76552500Y-63758405D01*
X76552500Y-63876595D01*
X76575558Y-63992514D01*
X76620787Y-64101707D01*
X76686450Y-64199978D01*
X76770022Y-64283550D01*
X76868293Y-64349213D01*
X76977486Y-64394442D01*
X77093405Y-64417500D01*
X77211595Y-64417500D01*
X77327514Y-64394442D01*
X77436707Y-64349213D01*
X77505000Y-64303581D01*
X77505000Y-64321095D01*
X77528058Y-64437014D01*
X77573287Y-64546207D01*
X77638950Y-64644478D01*
X77722522Y-64728050D01*
X77820793Y-64793713D01*
X77929986Y-64838942D01*
X78045905Y-64862000D01*
X78164095Y-64862000D01*
X78280014Y-64838942D01*
X78389207Y-64793713D01*
X78487478Y-64728050D01*
X78571050Y-64644478D01*
X78636713Y-64546207D01*
X78681942Y-64437014D01*
X78705000Y-64321095D01*
X78705000Y-64227685D01*
X78792948Y-64139737D01*
X78808211Y-64127211D01*
X78858197Y-64066303D01*
X78895340Y-63996814D01*
X78918212Y-63921414D01*
X78924000Y-63862647D01*
X78924000Y-63862637D01*
X78925934Y-63843001D01*
X78924000Y-63823365D01*
X78924000Y-46384528D01*
X78990050Y-46318478D01*
X79055713Y-46220207D01*
X79100942Y-46111014D01*
X79106896Y-46081082D01*
X79546501Y-46520687D01*
X79546501Y-46541471D01*
X79480450Y-46607522D01*
X79414787Y-46705793D01*
X79369558Y-46814986D01*
X79346500Y-46930905D01*
X79346500Y-47049095D01*
X79369558Y-47165014D01*
X79407513Y-47256646D01*
X79351287Y-47340793D01*
X79306058Y-47449986D01*
X79283000Y-47565905D01*
X79283000Y-47684095D01*
X79306058Y-47800014D01*
X79351287Y-47909207D01*
X79416950Y-48007478D01*
X79500522Y-48091050D01*
X79598793Y-48156713D01*
X79707986Y-48201942D01*
X79823905Y-48225000D01*
X79942095Y-48225000D01*
X80058014Y-48201942D01*
X80167207Y-48156713D01*
X80265478Y-48091050D01*
X80349050Y-48007478D01*
X80414713Y-47909207D01*
X80459942Y-47800014D01*
X80483000Y-47684095D01*
X80483000Y-47565905D01*
X80459942Y-47449986D01*
X80421987Y-47358354D01*
X80478213Y-47274207D01*
X80523442Y-47165014D01*
X80546500Y-47049095D01*
X80546500Y-46930905D01*
X80523442Y-46814986D01*
X80515168Y-46795011D01*
X80667377Y-46943415D01*
X80678289Y-46956711D01*
X80695507Y-46970841D01*
X80697326Y-46972615D01*
X80710712Y-46983320D01*
X80739197Y-47006697D01*
X80741450Y-47007901D01*
X80743444Y-47009496D01*
X80776142Y-47026445D01*
X80808686Y-47043840D01*
X80811134Y-47044583D01*
X80813398Y-47045756D01*
X80848750Y-47055993D01*
X80884086Y-47066712D01*
X80886632Y-47066963D01*
X80889081Y-47067672D01*
X80925748Y-47070815D01*
X80942853Y-47072500D01*
X80945400Y-47072500D01*
X80967587Y-47074402D01*
X80984678Y-47072500D01*
X82447815Y-47072500D01*
X82785001Y-47409687D01*
X82785000Y-48938853D01*
X82783065Y-48958500D01*
X82785000Y-48978146D01*
X82790788Y-49036913D01*
X82813660Y-49112313D01*
X82850803Y-49181802D01*
X82900789Y-49242711D01*
X82916052Y-49255237D01*
X85452000Y-51791185D01*
X85452001Y-53701344D01*
X85450065Y-53721000D01*
X85457788Y-53799413D01*
X85480661Y-53874814D01*
X85517803Y-53944302D01*
X85555265Y-53989950D01*
X85555268Y-53989953D01*
X85567790Y-54005211D01*
X85583048Y-54017733D01*
X87093500Y-55528186D01*
X87093500Y-55621595D01*
X87116558Y-55737514D01*
X87161787Y-55846707D01*
X87227450Y-55944978D01*
X87311022Y-56028550D01*
X87409293Y-56094213D01*
X87518486Y-56139442D01*
X87634405Y-56162500D01*
X87734315Y-56162500D01*
X87615048Y-56281767D01*
X87599790Y-56294289D01*
X87587268Y-56309547D01*
X87587265Y-56309550D01*
X87549803Y-56355198D01*
X87512661Y-56424686D01*
X87489788Y-56500087D01*
X87482065Y-56578500D01*
X87484001Y-56598156D01*
X87484000Y-57130353D01*
X87482065Y-57150000D01*
X87484000Y-57169646D01*
X87489788Y-57228413D01*
X87512660Y-57303813D01*
X87549803Y-57373302D01*
X87599789Y-57434211D01*
X87615052Y-57446737D01*
X88500001Y-58331687D01*
X88500000Y-69176315D01*
X87146815Y-70529500D01*
X85554135Y-70529500D01*
X85534499Y-70527566D01*
X85514863Y-70529500D01*
X85514853Y-70529500D01*
X85456086Y-70535288D01*
X85380686Y-70558160D01*
X85311197Y-70595303D01*
X85311195Y-70595304D01*
X85311196Y-70595304D01*
X85265549Y-70632765D01*
X85265547Y-70632767D01*
X85250289Y-70645289D01*
X85237767Y-70660547D01*
X81963552Y-73934763D01*
X81948289Y-73947289D01*
X81898303Y-74008198D01*
X81861160Y-74077687D01*
X81841898Y-74141186D01*
X81838288Y-74153087D01*
X81830565Y-74231500D01*
X81832500Y-74251147D01*
X81832501Y-76957971D01*
X81766450Y-77024022D01*
X81700787Y-77122293D01*
X81655558Y-77231486D01*
X81632500Y-77347405D01*
X81632500Y-77441500D01*
X81601905Y-77441500D01*
X81485986Y-77464558D01*
X81376793Y-77509787D01*
X81278522Y-77575450D01*
X81194950Y-77659022D01*
X81129287Y-77757293D01*
X81084058Y-77866486D01*
X81061000Y-77982405D01*
X81061000Y-78100595D01*
X81084058Y-78216514D01*
X81129287Y-78325707D01*
X81194950Y-78423978D01*
X81278522Y-78507550D01*
X81376793Y-78573213D01*
X81485986Y-78618442D01*
X81502361Y-78621699D01*
X81436903Y-78665437D01*
X81332437Y-78769903D01*
X81250359Y-78892742D01*
X81193822Y-79029233D01*
X81165000Y-79174131D01*
X81165000Y-79321869D01*
X81193822Y-79466767D01*
X81250359Y-79603258D01*
X81332437Y-79726097D01*
X81436903Y-79830563D01*
X81559742Y-79912641D01*
X81696233Y-79969178D01*
X81841131Y-79998000D01*
X81988869Y-79998000D01*
X82133767Y-79969178D01*
X82270258Y-79912641D01*
X82393097Y-79830563D01*
X82497563Y-79726097D01*
X82579641Y-79603258D01*
X82636178Y-79466767D01*
X82665000Y-79321869D01*
X82665000Y-79174131D01*
X82636178Y-79029233D01*
X82579641Y-78892742D01*
X82497563Y-78769903D01*
X82393097Y-78665437D01*
X82270258Y-78583359D01*
X82133767Y-78526822D01*
X82041964Y-78508561D01*
X82043478Y-78507550D01*
X82109528Y-78441500D01*
X82847854Y-78441500D01*
X82867500Y-78443435D01*
X82887146Y-78441500D01*
X82887147Y-78441500D01*
X82945914Y-78435712D01*
X83021314Y-78412840D01*
X83090803Y-78375697D01*
X83151711Y-78325711D01*
X83164237Y-78310448D01*
X83390448Y-78084237D01*
X83405711Y-78071711D01*
X83455697Y-78010803D01*
X83492840Y-77941314D01*
X83515712Y-77865914D01*
X83521500Y-77807147D01*
X83521500Y-77807137D01*
X83523434Y-77787501D01*
X83521500Y-77767865D01*
X83521500Y-77299146D01*
X83523435Y-77279500D01*
X83515712Y-77201086D01*
X83492840Y-77125685D01*
X83455697Y-77056197D01*
X83418235Y-77010549D01*
X83418233Y-77010547D01*
X83405711Y-76995289D01*
X83390454Y-76982768D01*
X83077000Y-76669315D01*
X83077000Y-74524185D01*
X85700186Y-71901000D01*
X87737354Y-71901000D01*
X87757000Y-71902935D01*
X87776646Y-71901000D01*
X87776647Y-71901000D01*
X87835414Y-71895212D01*
X87910814Y-71872340D01*
X87980303Y-71835197D01*
X88041211Y-71785211D01*
X88053737Y-71769948D01*
X89389000Y-70434686D01*
X89389000Y-70465354D01*
X89387065Y-70485000D01*
X89389000Y-70504646D01*
X89394788Y-70563413D01*
X89417660Y-70638813D01*
X89454803Y-70708302D01*
X89504789Y-70769211D01*
X89520052Y-70781737D01*
X90350161Y-71611847D01*
X90320692Y-71655951D01*
X90203874Y-71937975D01*
X90144320Y-72237370D01*
X90144320Y-72542630D01*
X90203874Y-72842025D01*
X90320692Y-73124049D01*
X90490285Y-73377863D01*
X90706137Y-73593715D01*
X90959951Y-73763308D01*
X91241975Y-73880126D01*
X91541370Y-73939680D01*
X91846630Y-73939680D01*
X92146025Y-73880126D01*
X92428049Y-73763308D01*
X92681863Y-73593715D01*
X92897715Y-73377863D01*
X93067308Y-73124049D01*
X93147000Y-72931655D01*
X93147000Y-74478000D01*
X89804961Y-74478000D01*
X89789000Y-74476428D01*
X89773040Y-74478000D01*
X89773039Y-74478000D01*
X89725289Y-74482703D01*
X89664026Y-74501287D01*
X89607566Y-74531465D01*
X89558079Y-74572079D01*
X89517465Y-74621566D01*
X89487287Y-74678026D01*
X89468703Y-74739289D01*
X89462428Y-74803000D01*
X89464001Y-74818971D01*
X89464001Y-74992579D01*
X89462838Y-74991162D01*
X89417157Y-74953673D01*
X89365040Y-74925816D01*
X89308490Y-74908661D01*
X89249680Y-74902869D01*
X86750320Y-74902869D01*
X86691510Y-74908661D01*
X86634960Y-74925816D01*
X86582843Y-74953673D01*
X86537162Y-74991162D01*
X86499673Y-75036843D01*
X86471816Y-75088960D01*
X86454661Y-75145510D01*
X86448869Y-75204320D01*
X86448869Y-77703680D01*
X86454661Y-77762490D01*
X86471816Y-77819040D01*
X86499673Y-77871157D01*
X86537162Y-77916838D01*
X86582843Y-77954327D01*
X86634960Y-77982184D01*
X86691510Y-77999339D01*
X86750320Y-78005131D01*
X89249680Y-78005131D01*
X89308490Y-77999339D01*
X89365040Y-77982184D01*
X89417157Y-77954327D01*
X89462838Y-77916838D01*
X89464001Y-77915421D01*
X89464000Y-79748902D01*
X89373308Y-79529951D01*
X89203715Y-79276137D01*
X88987863Y-79060285D01*
X88734049Y-78890692D01*
X88452025Y-78773874D01*
X88152630Y-78714320D01*
X87847370Y-78714320D01*
X87547975Y-78773874D01*
X87265951Y-78890692D01*
X87012137Y-79060285D01*
X86796285Y-79276137D01*
X86626692Y-79529951D01*
X86509874Y-79811975D01*
X86450320Y-80111370D01*
X86450320Y-80416630D01*
X86509874Y-80716025D01*
X86626692Y-80998049D01*
X86796285Y-81251863D01*
X87012137Y-81467715D01*
X87265951Y-81637308D01*
X87547975Y-81754126D01*
X87748599Y-81794033D01*
X87728465Y-81818566D01*
X87698287Y-81875026D01*
X87679703Y-81936289D01*
X87673428Y-82000000D01*
X87675000Y-82015960D01*
X87675001Y-96675000D01*
X72325000Y-96675000D01*
X72325000Y-82015960D01*
X72326572Y-82000000D01*
X72320297Y-81936289D01*
X72301713Y-81875026D01*
X72275044Y-81825131D01*
X73249680Y-81825131D01*
X73308490Y-81819339D01*
X73365040Y-81802184D01*
X73417157Y-81774327D01*
X73462838Y-81736838D01*
X73500327Y-81691157D01*
X73514000Y-81665576D01*
X73514001Y-88226408D01*
X73415793Y-88267087D01*
X73317522Y-88332750D01*
X73233950Y-88416322D01*
X73168287Y-88514593D01*
X73123058Y-88623786D01*
X73100000Y-88739705D01*
X73100000Y-88857895D01*
X73123058Y-88973814D01*
X73168287Y-89083007D01*
X73233950Y-89181278D01*
X73317522Y-89264850D01*
X73415793Y-89330513D01*
X73524986Y-89375742D01*
X73640905Y-89398800D01*
X73759095Y-89398800D01*
X73875014Y-89375742D01*
X73958501Y-89341161D01*
X73958501Y-89374614D01*
X73734315Y-89598800D01*
X73640905Y-89598800D01*
X73524986Y-89621858D01*
X73415793Y-89667087D01*
X73317522Y-89732750D01*
X73233950Y-89816322D01*
X73168287Y-89914593D01*
X73123058Y-90023786D01*
X73100000Y-90139705D01*
X73100000Y-90257895D01*
X73123058Y-90373814D01*
X73168287Y-90483007D01*
X73233950Y-90581278D01*
X73317522Y-90664850D01*
X73415793Y-90730513D01*
X73524986Y-90775742D01*
X73640905Y-90798800D01*
X73759095Y-90798800D01*
X73875014Y-90775742D01*
X73984207Y-90730513D01*
X74082478Y-90664850D01*
X74166050Y-90581278D01*
X74231713Y-90483007D01*
X74276942Y-90373814D01*
X74300000Y-90257895D01*
X74300000Y-90164485D01*
X74627448Y-89837037D01*
X74642711Y-89824511D01*
X74692697Y-89763603D01*
X74729840Y-89694114D01*
X74752712Y-89618714D01*
X74758500Y-89559947D01*
X74760435Y-89540300D01*
X74758500Y-89520653D01*
X74758500Y-87071685D01*
X74901500Y-87214686D01*
X74901500Y-87308095D01*
X74924558Y-87424014D01*
X74969787Y-87533207D01*
X75035450Y-87631478D01*
X75119022Y-87715050D01*
X75217293Y-87780713D01*
X75326486Y-87825942D01*
X75442405Y-87849000D01*
X75560595Y-87849000D01*
X75676514Y-87825942D01*
X75736500Y-87801095D01*
X75736501Y-90396614D01*
X73734315Y-92398800D01*
X73640905Y-92398800D01*
X73524986Y-92421858D01*
X73415793Y-92467087D01*
X73317522Y-92532750D01*
X73233950Y-92616322D01*
X73168287Y-92714593D01*
X73123058Y-92823786D01*
X73100000Y-92939705D01*
X73100000Y-93057895D01*
X73123058Y-93173814D01*
X73168287Y-93283007D01*
X73233950Y-93381278D01*
X73317522Y-93464850D01*
X73415793Y-93530513D01*
X73524986Y-93575742D01*
X73640905Y-93598800D01*
X73759095Y-93598800D01*
X73875014Y-93575742D01*
X73984207Y-93530513D01*
X74082478Y-93464850D01*
X74166050Y-93381278D01*
X74231713Y-93283007D01*
X74276942Y-93173814D01*
X74300000Y-93057895D01*
X74300000Y-92964485D01*
X76405448Y-90859037D01*
X76420711Y-90846511D01*
X76470697Y-90785603D01*
X76507840Y-90716114D01*
X76530712Y-90640714D01*
X76536500Y-90581947D01*
X76536500Y-90581937D01*
X76538434Y-90562301D01*
X76536500Y-90542665D01*
X76536500Y-88307028D01*
X76579522Y-88350050D01*
X76677793Y-88415713D01*
X76786986Y-88460942D01*
X76902905Y-88484000D01*
X77021095Y-88484000D01*
X77137014Y-88460942D01*
X77246207Y-88415713D01*
X77344478Y-88350050D01*
X77410528Y-88284000D01*
X79717315Y-88284000D01*
X83269263Y-91835948D01*
X83281789Y-91851211D01*
X83297050Y-91863735D01*
X83342697Y-91901197D01*
X83412186Y-91938340D01*
X83487586Y-91961212D01*
X83566000Y-91968935D01*
X83585647Y-91967000D01*
X84797315Y-91967000D01*
X85622049Y-92791735D01*
X85622049Y-93777500D01*
X85627841Y-93836310D01*
X85644996Y-93892860D01*
X85672853Y-93944977D01*
X85710342Y-93990658D01*
X85756023Y-94028147D01*
X85808140Y-94056004D01*
X85864690Y-94073159D01*
X85923500Y-94078951D01*
X86923500Y-94078951D01*
X86982310Y-94073159D01*
X87038860Y-94056004D01*
X87090977Y-94028147D01*
X87136658Y-93990658D01*
X87174147Y-93944977D01*
X87202004Y-93892860D01*
X87219159Y-93836310D01*
X87224951Y-93777500D01*
X87224951Y-92277500D01*
X87219159Y-92218690D01*
X87202004Y-92162140D01*
X87174147Y-92110023D01*
X87136658Y-92064342D01*
X87090977Y-92026853D01*
X87038860Y-91998996D01*
X86982310Y-91981841D01*
X86923500Y-91976049D01*
X85937734Y-91976049D01*
X85259735Y-91298050D01*
X85247211Y-91282789D01*
X85186303Y-91232803D01*
X85116814Y-91195660D01*
X85041414Y-91172788D01*
X84982647Y-91167000D01*
X84982646Y-91167000D01*
X84963000Y-91165065D01*
X84943354Y-91167000D01*
X83731685Y-91167000D01*
X82724316Y-90159631D01*
X83641500Y-90159631D01*
X83641500Y-90307369D01*
X83670322Y-90452267D01*
X83726859Y-90588758D01*
X83808937Y-90711597D01*
X83913403Y-90816063D01*
X84036242Y-90898141D01*
X84172733Y-90954678D01*
X84317631Y-90983500D01*
X84465369Y-90983500D01*
X84610267Y-90954678D01*
X84746758Y-90898141D01*
X84869597Y-90816063D01*
X84974063Y-90711597D01*
X85056141Y-90588758D01*
X85112678Y-90452267D01*
X85141500Y-90307369D01*
X85141500Y-90159631D01*
X85112678Y-90014733D01*
X85056141Y-89878242D01*
X84974063Y-89755403D01*
X84869597Y-89650937D01*
X84746758Y-89568859D01*
X84610267Y-89512322D01*
X84465369Y-89483500D01*
X84317631Y-89483500D01*
X84172733Y-89512322D01*
X84036242Y-89568859D01*
X83913403Y-89650937D01*
X83808937Y-89755403D01*
X83726859Y-89878242D01*
X83670322Y-90014733D01*
X83641500Y-90159631D01*
X82724316Y-90159631D01*
X80179737Y-87615052D01*
X80167211Y-87599789D01*
X80106303Y-87549803D01*
X80036814Y-87512660D01*
X79961414Y-87489788D01*
X79902647Y-87484000D01*
X79902646Y-87484000D01*
X79883000Y-87482065D01*
X79863354Y-87484000D01*
X78076733Y-87484000D01*
X78128713Y-87406207D01*
X78145520Y-87365631D01*
X83641500Y-87365631D01*
X83641500Y-87513369D01*
X83670322Y-87658267D01*
X83726859Y-87794758D01*
X83808937Y-87917597D01*
X83913403Y-88022063D01*
X84036242Y-88104141D01*
X84172733Y-88160678D01*
X84317631Y-88189500D01*
X84465369Y-88189500D01*
X84610267Y-88160678D01*
X84746758Y-88104141D01*
X84869597Y-88022063D01*
X84974063Y-87917597D01*
X85056141Y-87794758D01*
X85112678Y-87658267D01*
X85141500Y-87513369D01*
X85141500Y-87365631D01*
X85112678Y-87220733D01*
X85056141Y-87084242D01*
X84974063Y-86961403D01*
X84869597Y-86856937D01*
X84746758Y-86774859D01*
X84610267Y-86718322D01*
X84465369Y-86689500D01*
X84317631Y-86689500D01*
X84172733Y-86718322D01*
X84036242Y-86774859D01*
X83913403Y-86856937D01*
X83808937Y-86961403D01*
X83726859Y-87084242D01*
X83670322Y-87220733D01*
X83641500Y-87365631D01*
X78145520Y-87365631D01*
X78173942Y-87297014D01*
X78197000Y-87181095D01*
X78197000Y-87062905D01*
X78173942Y-86946986D01*
X78128713Y-86837793D01*
X78063050Y-86739522D01*
X77997000Y-86673472D01*
X77997000Y-81699685D01*
X79707453Y-79989233D01*
X79722711Y-79976711D01*
X79743890Y-79950905D01*
X79772696Y-79915804D01*
X79772697Y-79915803D01*
X79809840Y-79846314D01*
X79832712Y-79770914D01*
X79838500Y-79712147D01*
X79838500Y-79712137D01*
X79840434Y-79692501D01*
X79838500Y-79672865D01*
X79838500Y-78969185D01*
X81548953Y-77258733D01*
X81564211Y-77246211D01*
X81614197Y-77185303D01*
X81651340Y-77115814D01*
X81674212Y-77040414D01*
X81680000Y-76981647D01*
X81680000Y-76981637D01*
X81681934Y-76962001D01*
X81680000Y-76942365D01*
X81680000Y-70178713D01*
X81709014Y-70172942D01*
X81818207Y-70127713D01*
X81916478Y-70062050D01*
X82000050Y-69978478D01*
X82065713Y-69880207D01*
X82110942Y-69771014D01*
X82134000Y-69655095D01*
X82134000Y-69536905D01*
X82110942Y-69420986D01*
X82065713Y-69311793D01*
X82000050Y-69213522D01*
X81916478Y-69129950D01*
X81818207Y-69064287D01*
X81709014Y-69019058D01*
X81593095Y-68996000D01*
X81474905Y-68996000D01*
X81358986Y-69019058D01*
X81249793Y-69064287D01*
X81235500Y-69073837D01*
X81235500Y-68887131D01*
X85419500Y-68887131D01*
X85419500Y-69034869D01*
X85448322Y-69179767D01*
X85504859Y-69316258D01*
X85586937Y-69439097D01*
X85691403Y-69543563D01*
X85814242Y-69625641D01*
X85950733Y-69682178D01*
X86095631Y-69711000D01*
X86243369Y-69711000D01*
X86388267Y-69682178D01*
X86524758Y-69625641D01*
X86647597Y-69543563D01*
X86752063Y-69439097D01*
X86834141Y-69316258D01*
X86890678Y-69179767D01*
X86919500Y-69034869D01*
X86919500Y-68887131D01*
X86890678Y-68742233D01*
X86834141Y-68605742D01*
X86752063Y-68482903D01*
X86647597Y-68378437D01*
X86524758Y-68296359D01*
X86388267Y-68239822D01*
X86243369Y-68211000D01*
X86095631Y-68211000D01*
X85950733Y-68239822D01*
X85814242Y-68296359D01*
X85691403Y-68378437D01*
X85586937Y-68482903D01*
X85504859Y-68605742D01*
X85448322Y-68742233D01*
X85419500Y-68887131D01*
X81235500Y-68887131D01*
X81235500Y-67856685D01*
X81729054Y-67363131D01*
X85419500Y-67363131D01*
X85419500Y-67510869D01*
X85448322Y-67655767D01*
X85504859Y-67792258D01*
X85586937Y-67915097D01*
X85691403Y-68019563D01*
X85814242Y-68101641D01*
X85950733Y-68158178D01*
X86095631Y-68187000D01*
X86243369Y-68187000D01*
X86388267Y-68158178D01*
X86524758Y-68101641D01*
X86647597Y-68019563D01*
X86752063Y-67915097D01*
X86834141Y-67792258D01*
X86890678Y-67655767D01*
X86919500Y-67510869D01*
X86919500Y-67363131D01*
X86890678Y-67218233D01*
X86834141Y-67081742D01*
X86752063Y-66958903D01*
X86647597Y-66854437D01*
X86524758Y-66772359D01*
X86388267Y-66715822D01*
X86243369Y-66687000D01*
X86095631Y-66687000D01*
X85950733Y-66715822D01*
X85814242Y-66772359D01*
X85691403Y-66854437D01*
X85586937Y-66958903D01*
X85504859Y-67081742D01*
X85448322Y-67218233D01*
X85419500Y-67363131D01*
X81729054Y-67363131D01*
X84106985Y-64985200D01*
X86574549Y-64985200D01*
X86574549Y-66485200D01*
X86580341Y-66544010D01*
X86597496Y-66600560D01*
X86625353Y-66652677D01*
X86662842Y-66698358D01*
X86708523Y-66735847D01*
X86760640Y-66763704D01*
X86817190Y-66780859D01*
X86876000Y-66786651D01*
X87876000Y-66786651D01*
X87934810Y-66780859D01*
X87991360Y-66763704D01*
X88043477Y-66735847D01*
X88089158Y-66698358D01*
X88126647Y-66652677D01*
X88154504Y-66600560D01*
X88171659Y-66544010D01*
X88177451Y-66485200D01*
X88177451Y-65968712D01*
X88206942Y-65897514D01*
X88230000Y-65781595D01*
X88230000Y-65663405D01*
X88206942Y-65547486D01*
X88177451Y-65476288D01*
X88177451Y-64985200D01*
X88171659Y-64926390D01*
X88154504Y-64869840D01*
X88126647Y-64817723D01*
X88089158Y-64772042D01*
X88043477Y-64734553D01*
X87991360Y-64706696D01*
X87934810Y-64689541D01*
X87876000Y-64683749D01*
X86876000Y-64683749D01*
X86817190Y-64689541D01*
X86760640Y-64706696D01*
X86708523Y-64734553D01*
X86662842Y-64772042D01*
X86625353Y-64817723D01*
X86597496Y-64869840D01*
X86580341Y-64926390D01*
X86574549Y-64985200D01*
X84106985Y-64985200D01*
X84850954Y-64241232D01*
X84866211Y-64228711D01*
X84878765Y-64213415D01*
X84903243Y-64183587D01*
X84916197Y-64167803D01*
X84953340Y-64098314D01*
X84976212Y-64022914D01*
X84982000Y-63964147D01*
X84982000Y-63964137D01*
X84983934Y-63944501D01*
X84982000Y-63924865D01*
X84982000Y-60780713D01*
X85011014Y-60774942D01*
X85120207Y-60729713D01*
X85218478Y-60664050D01*
X85302050Y-60580478D01*
X85367713Y-60482207D01*
X85412942Y-60373014D01*
X85436000Y-60257095D01*
X85436000Y-60138905D01*
X85412942Y-60022986D01*
X85367713Y-59913793D01*
X85302050Y-59815522D01*
X85218478Y-59731950D01*
X85120207Y-59666287D01*
X85011014Y-59621058D01*
X84895095Y-59598000D01*
X84776905Y-59598000D01*
X84720553Y-59609209D01*
X84714442Y-59578486D01*
X84669213Y-59469293D01*
X84603550Y-59371022D01*
X84519978Y-59287450D01*
X84421707Y-59221787D01*
X84312514Y-59176558D01*
X84196595Y-59153500D01*
X84078405Y-59153500D01*
X83962486Y-59176558D01*
X83853293Y-59221787D01*
X83755022Y-59287450D01*
X83671450Y-59371022D01*
X83605787Y-59469293D01*
X83560558Y-59578486D01*
X83537500Y-59694405D01*
X83537500Y-59812595D01*
X83560558Y-59928514D01*
X83605787Y-60037707D01*
X83671450Y-60135978D01*
X83737500Y-60202028D01*
X83737501Y-63469370D01*
X83714550Y-63435022D01*
X83630978Y-63351450D01*
X83532707Y-63285787D01*
X83423514Y-63240558D01*
X83307595Y-63217500D01*
X83189405Y-63217500D01*
X83073486Y-63240558D01*
X82964293Y-63285787D01*
X82866022Y-63351450D01*
X82782450Y-63435022D01*
X82716787Y-63533293D01*
X82671558Y-63642486D01*
X82648500Y-63758405D01*
X82648500Y-63876595D01*
X82671558Y-63992514D01*
X82716588Y-64101226D01*
X79677551Y-67140264D01*
X79662289Y-67152789D01*
X79631045Y-67190859D01*
X78691450Y-66251265D01*
X74123500Y-61683315D01*
X74123500Y-58185647D01*
X74125435Y-58166000D01*
X74117712Y-58087586D01*
X74094840Y-58012185D01*
X74057697Y-57942697D01*
X74020235Y-57897049D01*
X74020233Y-57897047D01*
X74007711Y-57881789D01*
X73992454Y-57869268D01*
X73234500Y-57111315D01*
X73234500Y-56598147D01*
X73236435Y-56578500D01*
X73228712Y-56500086D01*
X73205840Y-56424686D01*
X73168697Y-56355197D01*
X73118711Y-56294289D01*
X73103449Y-56281764D01*
X72599500Y-55777815D01*
X72599500Y-53471028D01*
X72665550Y-53404978D01*
X72731213Y-53306707D01*
X72776442Y-53197514D01*
X72799500Y-53081595D01*
X72799500Y-52963405D01*
X72776442Y-52847486D01*
X72731213Y-52738293D01*
X72665550Y-52640022D01*
X72581978Y-52556450D01*
X72483707Y-52490787D01*
X72374514Y-52445558D01*
X72258595Y-52422500D01*
X72140405Y-52422500D01*
X72024486Y-52445558D01*
X71915293Y-52490787D01*
X71817022Y-52556450D01*
X71733450Y-52640022D01*
X71667787Y-52738293D01*
X71622558Y-52847486D01*
X71599500Y-52963405D01*
X71599500Y-53081595D01*
X71622558Y-53197514D01*
X71667787Y-53306707D01*
X71733450Y-53404978D01*
X71799500Y-53471028D01*
X71799501Y-55923844D01*
X71797565Y-55943500D01*
X71805288Y-56021913D01*
X71828161Y-56097314D01*
X71865303Y-56166802D01*
X71902765Y-56212450D01*
X71902768Y-56212453D01*
X71915290Y-56227711D01*
X71930548Y-56240233D01*
X71968898Y-56278583D01*
X71915293Y-56300787D01*
X71817022Y-56366450D01*
X71733450Y-56450022D01*
X71667787Y-56548293D01*
X71622558Y-56657486D01*
X71599500Y-56773405D01*
X71599500Y-56891595D01*
X71622558Y-57007514D01*
X71667787Y-57116707D01*
X71733450Y-57214978D01*
X71804731Y-57286259D01*
X71805288Y-57291913D01*
X71828161Y-57367314D01*
X71865303Y-57436802D01*
X71902765Y-57482450D01*
X71902768Y-57482453D01*
X71915290Y-57497711D01*
X71930548Y-57510233D01*
X71968898Y-57548583D01*
X71915293Y-57570787D01*
X71817022Y-57636450D01*
X71733450Y-57720022D01*
X71667787Y-57818293D01*
X71622558Y-57927486D01*
X71599500Y-58043405D01*
X71599500Y-58161595D01*
X71622558Y-58277514D01*
X71667787Y-58386707D01*
X71733450Y-58484978D01*
X71804731Y-58556259D01*
X71805288Y-58561914D01*
X71813728Y-58589735D01*
X71828161Y-58637314D01*
X71865303Y-58706802D01*
X71902765Y-58752450D01*
X71902768Y-58752453D01*
X71915290Y-58767711D01*
X71930548Y-58780233D01*
X71968898Y-58818583D01*
X71915293Y-58840787D01*
X71817022Y-58906450D01*
X71733450Y-58990022D01*
X71667787Y-59088293D01*
X71622558Y-59197486D01*
X71599500Y-59313405D01*
X71599500Y-59431595D01*
X71622558Y-59547514D01*
X71667787Y-59656707D01*
X71733450Y-59754978D01*
X71799500Y-59821028D01*
X71799501Y-62019844D01*
X71797565Y-62039500D01*
X71805288Y-62117913D01*
X71828161Y-62193314D01*
X71865303Y-62262802D01*
X71902765Y-62308450D01*
X71902768Y-62308453D01*
X71915290Y-62323711D01*
X71930548Y-62336233D01*
X76776299Y-67181985D01*
X76677793Y-67222787D01*
X76579522Y-67288450D01*
X76495950Y-67372022D01*
X76430287Y-67470293D01*
X76385058Y-67579486D01*
X76362000Y-67695405D01*
X76362000Y-67813595D01*
X76385058Y-67929514D01*
X76430287Y-68038707D01*
X76495950Y-68136978D01*
X76562001Y-68203029D01*
X76562000Y-68604815D01*
X76542315Y-68624500D01*
X73933646Y-68624500D01*
X73914000Y-68622565D01*
X73835586Y-68630288D01*
X73760185Y-68653160D01*
X73690697Y-68690303D01*
X73645049Y-68727765D01*
X73645047Y-68727767D01*
X73629789Y-68740289D01*
X73617267Y-68755547D01*
X73200549Y-69172266D01*
X73185290Y-69184789D01*
X73172768Y-69200047D01*
X73172765Y-69200050D01*
X73135303Y-69245698D01*
X73098161Y-69315186D01*
X73075288Y-69390587D01*
X73067565Y-69469000D01*
X73069501Y-69488656D01*
X73069500Y-72795815D01*
X73010048Y-72855267D01*
X72994790Y-72867789D01*
X72982268Y-72883047D01*
X72982265Y-72883050D01*
X72944803Y-72928698D01*
X72907661Y-72998186D01*
X72884788Y-73073587D01*
X72877065Y-73152000D01*
X72879001Y-73171656D01*
X72879000Y-74275353D01*
X72877065Y-74295000D01*
X72879000Y-74314646D01*
X72884788Y-74373413D01*
X72907660Y-74448813D01*
X72944803Y-74518302D01*
X72994789Y-74579211D01*
X73010052Y-74591737D01*
X73090891Y-74672576D01*
X73083058Y-74691486D01*
X73060000Y-74807405D01*
X73060000Y-74925595D01*
X73083058Y-75041514D01*
X73128287Y-75150707D01*
X73193950Y-75248978D01*
X73277522Y-75332550D01*
X73375793Y-75398213D01*
X73484986Y-75443442D01*
X73530151Y-75452426D01*
X73522958Y-75476137D01*
X73519788Y-75486587D01*
X73512065Y-75565000D01*
X73514000Y-75584646D01*
X73514000Y-76131997D01*
X73490126Y-76011975D01*
X73373308Y-75729951D01*
X73203715Y-75476137D01*
X72987863Y-75260285D01*
X72734049Y-75090692D01*
X72452025Y-74973874D01*
X72152630Y-74914320D01*
X71847370Y-74914320D01*
X71547975Y-74973874D01*
X71265951Y-75090692D01*
X71012137Y-75260285D01*
X70796285Y-75476137D01*
X70626692Y-75729951D01*
X70509874Y-76011975D01*
X70450320Y-76311370D01*
X70450320Y-76616630D01*
X70509874Y-76916025D01*
X70626692Y-77198049D01*
X70796285Y-77451863D01*
X71012137Y-77667715D01*
X71265951Y-77837308D01*
X71547975Y-77954126D01*
X71847370Y-78013680D01*
X72152630Y-78013680D01*
X72452025Y-77954126D01*
X72734049Y-77837308D01*
X72987863Y-77667715D01*
X73203715Y-77451863D01*
X73373308Y-77198049D01*
X73490126Y-76916025D01*
X73514000Y-76796003D01*
X73514000Y-78882424D01*
X73500327Y-78856843D01*
X73462838Y-78811162D01*
X73417157Y-78773673D01*
X73365040Y-78745816D01*
X73308490Y-78728661D01*
X73249680Y-78722869D01*
X70750320Y-78722869D01*
X70691510Y-78728661D01*
X70634960Y-78745816D01*
X70582843Y-78773673D01*
X70537162Y-78811162D01*
X70499673Y-78856843D01*
X70471816Y-78908960D01*
X70454661Y-78965510D01*
X70448869Y-79024320D01*
X70448869Y-81523680D01*
X70454661Y-81582490D01*
X70471816Y-81639040D01*
X70491037Y-81675000D01*
X70325000Y-81675000D01*
X70325000Y-71015953D01*
X70326571Y-71000000D01*
X70325000Y-70984047D01*
X70325000Y-70984039D01*
X70320297Y-70936289D01*
X70301713Y-70875026D01*
X70271535Y-70818566D01*
X70254408Y-70797697D01*
X70241096Y-70781476D01*
X70241092Y-70781472D01*
X70230921Y-70769079D01*
X70218528Y-70758908D01*
X70139525Y-70679905D01*
X71218500Y-70679905D01*
X71218500Y-70798095D01*
X71241558Y-70914014D01*
X71286787Y-71023207D01*
X71352450Y-71121478D01*
X71436022Y-71205050D01*
X71534293Y-71270713D01*
X71643486Y-71315942D01*
X71759405Y-71339000D01*
X71877595Y-71339000D01*
X71993514Y-71315942D01*
X72102707Y-71270713D01*
X72200978Y-71205050D01*
X72284550Y-71121478D01*
X72350213Y-71023207D01*
X72395442Y-70914014D01*
X72418500Y-70798095D01*
X72418500Y-70679905D01*
X72395442Y-70563986D01*
X72350213Y-70454793D01*
X72284550Y-70356522D01*
X72200978Y-70272950D01*
X72102707Y-70207287D01*
X71993514Y-70162058D01*
X71877595Y-70139000D01*
X71759405Y-70139000D01*
X71643486Y-70162058D01*
X71534293Y-70207287D01*
X71436022Y-70272950D01*
X71352450Y-70356522D01*
X71286787Y-70454793D01*
X71241558Y-70563986D01*
X71218500Y-70679905D01*
X70139525Y-70679905D01*
X67325000Y-67865382D01*
X67325000Y-64197971D01*
X67605000Y-64197971D01*
X67605000Y-64390029D01*
X67642468Y-64578397D01*
X67715966Y-64755836D01*
X67822668Y-64915527D01*
X67958473Y-65051332D01*
X68118164Y-65158034D01*
X68295603Y-65231532D01*
X68483971Y-65269000D01*
X68676029Y-65269000D01*
X68864397Y-65231532D01*
X69041836Y-65158034D01*
X69201527Y-65051332D01*
X69337332Y-64915527D01*
X69444034Y-64755836D01*
X69517532Y-64578397D01*
X69555000Y-64390029D01*
X69555000Y-64197971D01*
X69517532Y-64009603D01*
X69444034Y-63832164D01*
X69337332Y-63672473D01*
X69201527Y-63536668D01*
X69041836Y-63429966D01*
X68864397Y-63356468D01*
X68676029Y-63319000D01*
X68483971Y-63319000D01*
X68295603Y-63356468D01*
X68118164Y-63429966D01*
X67958473Y-63536668D01*
X67822668Y-63672473D01*
X67715966Y-63832164D01*
X67642468Y-64009603D01*
X67605000Y-64197971D01*
X67325000Y-64197971D01*
X67325000Y-62197971D01*
X67605000Y-62197971D01*
X67605000Y-62390029D01*
X67642468Y-62578397D01*
X67715966Y-62755836D01*
X67822668Y-62915527D01*
X67958473Y-63051332D01*
X68118164Y-63158034D01*
X68295603Y-63231532D01*
X68483971Y-63269000D01*
X68676029Y-63269000D01*
X68864397Y-63231532D01*
X69041836Y-63158034D01*
X69201527Y-63051332D01*
X69337332Y-62915527D01*
X69444034Y-62755836D01*
X69517532Y-62578397D01*
X69555000Y-62390029D01*
X69555000Y-62197971D01*
X69517532Y-62009603D01*
X69444034Y-61832164D01*
X69337332Y-61672473D01*
X69201527Y-61536668D01*
X69041836Y-61429966D01*
X68864397Y-61356468D01*
X68676029Y-61319000D01*
X68483971Y-61319000D01*
X68295603Y-61356468D01*
X68118164Y-61429966D01*
X67958473Y-61536668D01*
X67822668Y-61672473D01*
X67715966Y-61832164D01*
X67642468Y-62009603D01*
X67605000Y-62197971D01*
X67325000Y-62197971D01*
X67325000Y-60197971D01*
X67605000Y-60197971D01*
X67605000Y-60390029D01*
X67642468Y-60578397D01*
X67715966Y-60755836D01*
X67822668Y-60915527D01*
X67958473Y-61051332D01*
X68118164Y-61158034D01*
X68295603Y-61231532D01*
X68483971Y-61269000D01*
X68676029Y-61269000D01*
X68864397Y-61231532D01*
X69041836Y-61158034D01*
X69201527Y-61051332D01*
X69337332Y-60915527D01*
X69444034Y-60755836D01*
X69517532Y-60578397D01*
X69555000Y-60390029D01*
X69555000Y-60197971D01*
X69517532Y-60009603D01*
X69444034Y-59832164D01*
X69337332Y-59672473D01*
X69201527Y-59536668D01*
X69041836Y-59429966D01*
X68864397Y-59356468D01*
X68676029Y-59319000D01*
X68483971Y-59319000D01*
X68295603Y-59356468D01*
X68118164Y-59429966D01*
X67958473Y-59536668D01*
X67822668Y-59672473D01*
X67715966Y-59832164D01*
X67642468Y-60009603D01*
X67605000Y-60197971D01*
X67325000Y-60197971D01*
X67325000Y-58134618D01*
X70218529Y-55241091D01*
X70230921Y-55230921D01*
X70241092Y-55218528D01*
X70241096Y-55218524D01*
X70254408Y-55202303D01*
X70271535Y-55181434D01*
X70301713Y-55124974D01*
X70320297Y-55063711D01*
X70325000Y-55015961D01*
X70325000Y-55015953D01*
X70326571Y-55000000D01*
X70325000Y-54984047D01*
X70325000Y-50594982D01*
X70341496Y-50649360D01*
X70369353Y-50701477D01*
X70406842Y-50747158D01*
X70452523Y-50784647D01*
X70504640Y-50812504D01*
X70561190Y-50829659D01*
X70620000Y-50835451D01*
X71620000Y-50835451D01*
X71678810Y-50829659D01*
X71735360Y-50812504D01*
X71787477Y-50784647D01*
X71833158Y-50747158D01*
X71870647Y-50701477D01*
X71898504Y-50649360D01*
X71915659Y-50592810D01*
X71921451Y-50534000D01*
X71921451Y-49034000D01*
X71915659Y-48975190D01*
X71898504Y-48918640D01*
X71870647Y-48866523D01*
X71833158Y-48820842D01*
X71787477Y-48783353D01*
X71735360Y-48755496D01*
X71678810Y-48738341D01*
X71620000Y-48732549D01*
X71171077Y-48732549D01*
X71121478Y-48682950D01*
X71023207Y-48617287D01*
X70914014Y-48572058D01*
X70798095Y-48549000D01*
X70679905Y-48549000D01*
X70563986Y-48572058D01*
X70454793Y-48617287D01*
X70356522Y-48682950D01*
X70325000Y-48714472D01*
X70325000Y-43921520D01*
X70448869Y-43921520D01*
X70448869Y-46420880D01*
X70454661Y-46479690D01*
X70471816Y-46536240D01*
X70499673Y-46588357D01*
X70537162Y-46634038D01*
X70582843Y-46671527D01*
X70634960Y-46699384D01*
X70691510Y-46716539D01*
X70750320Y-46722331D01*
X73249680Y-46722331D01*
X73308490Y-46716539D01*
X73365040Y-46699384D01*
X73417157Y-46671527D01*
X73462838Y-46634038D01*
X73500327Y-46588357D01*
X73528184Y-46536240D01*
X73545339Y-46479690D01*
X73551131Y-46420880D01*
X73551131Y-43921520D01*
X73545339Y-43862710D01*
X73528184Y-43806160D01*
X73500327Y-43754043D01*
X73462838Y-43708362D01*
X73417157Y-43670873D01*
X73365040Y-43643016D01*
X73308490Y-43625861D01*
X73249680Y-43620069D01*
X70750320Y-43620069D01*
X70691510Y-43625861D01*
X70634960Y-43643016D01*
X70582843Y-43670873D01*
X70537162Y-43708362D01*
X70499673Y-43754043D01*
X70471816Y-43806160D01*
X70454661Y-43862710D01*
X70448869Y-43921520D01*
X70325000Y-43921520D01*
X70325000Y-39949000D01*
X71359845Y-39949000D01*
X71265951Y-39987892D01*
G37*
X71265951Y-39987892D02*
X71012137Y-40157485D01*
X70796285Y-40373337D01*
X70626692Y-40627151D01*
X70509874Y-40909175D01*
X70450320Y-41208570D01*
X70450320Y-41513830D01*
X70509874Y-41813225D01*
X70626692Y-42095249D01*
X70796285Y-42349063D01*
X71012137Y-42564915D01*
X71265951Y-42734508D01*
X71547975Y-42851326D01*
X71847370Y-42910880D01*
X72152630Y-42910880D01*
X72452025Y-42851326D01*
X72734049Y-42734508D01*
X72987863Y-42564915D01*
X73203715Y-42349063D01*
X73373308Y-42095249D01*
X73490126Y-41813225D01*
X73549680Y-41513830D01*
X73549680Y-41208570D01*
X73490126Y-40909175D01*
X73373308Y-40627151D01*
X73203715Y-40373337D01*
X72987863Y-40157485D01*
X72734049Y-39987892D01*
X72640155Y-39949000D01*
X86491678Y-39949000D01*
X86471816Y-39986160D01*
X86454661Y-40042710D01*
X86448869Y-40101520D01*
X86448869Y-42600880D01*
X86454661Y-42659690D01*
X86471816Y-42716240D01*
X86499673Y-42768357D01*
X86537162Y-42814038D01*
X86582843Y-42851527D01*
X86634960Y-42879384D01*
X86691510Y-42896539D01*
X86750320Y-42902331D01*
X89249680Y-42902331D01*
X89308490Y-42896539D01*
X89365040Y-42879384D01*
X89417157Y-42851527D01*
X89462838Y-42814038D01*
X89500327Y-42768357D01*
X89528184Y-42716240D01*
X89545339Y-42659690D01*
X89551131Y-42600880D01*
X89551131Y-40101520D01*
X89545339Y-40042710D01*
X89528184Y-39986160D01*
X89508322Y-39949000D01*
X89591000Y-39949000D01*
X89591001Y-52273214D01*
X89577735Y-52257049D01*
X89577733Y-52257047D01*
X89565211Y-52241789D01*
X89549953Y-52229267D01*
X89100000Y-51779315D01*
X89100000Y-51685905D01*
X89076942Y-51569986D01*
X89031713Y-51460793D01*
X88966050Y-51362522D01*
X88882478Y-51278950D01*
X88784207Y-51213287D01*
X88675014Y-51168058D01*
X88559095Y-51145000D01*
X88440905Y-51145000D01*
X88324986Y-51168058D01*
X88215793Y-51213287D01*
X88117522Y-51278950D01*
X88093500Y-51302972D01*
X88093500Y-47708135D01*
X88095434Y-47688499D01*
X88093500Y-47668863D01*
X88093500Y-47668853D01*
X88087712Y-47610086D01*
X88064840Y-47534686D01*
X88027697Y-47465197D01*
X87977711Y-47404289D01*
X87962453Y-47391767D01*
X85579256Y-45008570D01*
X86450320Y-45008570D01*
X86450320Y-45313830D01*
X86509874Y-45613225D01*
X86626692Y-45895249D01*
X86796285Y-46149063D01*
X87012137Y-46364915D01*
X87265951Y-46534508D01*
X87547975Y-46651326D01*
X87847370Y-46710880D01*
X88152630Y-46710880D01*
X88452025Y-46651326D01*
X88734049Y-46534508D01*
X88987863Y-46364915D01*
X89203715Y-46149063D01*
X89373308Y-45895249D01*
X89490126Y-45613225D01*
X89549680Y-45313830D01*
X89549680Y-45008570D01*
X89490126Y-44709175D01*
X89373308Y-44427151D01*
X89203715Y-44173337D01*
X88987863Y-43957485D01*
X88734049Y-43787892D01*
X88452025Y-43671074D01*
X88152630Y-43611520D01*
X87847370Y-43611520D01*
X87547975Y-43671074D01*
X87265951Y-43787892D01*
X87012137Y-43957485D01*
X86796285Y-44173337D01*
X86626692Y-44427151D01*
X86509874Y-44709175D01*
X86450320Y-45008570D01*
X85579256Y-45008570D01*
X83227737Y-42657052D01*
X83215211Y-42641789D01*
X83154303Y-42591803D01*
X83084814Y-42554660D01*
X83009414Y-42531788D01*
X82950647Y-42526000D01*
X82950646Y-42526000D01*
X82931000Y-42524065D01*
X82911354Y-42526000D01*
X82871528Y-42526000D01*
X82805478Y-42459950D01*
X82707207Y-42394287D01*
X82598014Y-42349058D01*
X82482095Y-42326000D01*
X82363905Y-42326000D01*
X82247986Y-42349058D01*
X82138793Y-42394287D01*
X82040522Y-42459950D01*
X81956950Y-42543522D01*
X81891287Y-42641793D01*
X81846058Y-42750986D01*
X81823000Y-42866905D01*
X81823000Y-42985095D01*
X81846058Y-43101014D01*
X81884013Y-43192646D01*
X81827787Y-43276793D01*
X81782558Y-43385986D01*
X81759500Y-43501905D01*
X81759500Y-43620095D01*
X81782558Y-43736014D01*
X81827787Y-43845207D01*
X81893450Y-43943478D01*
X81977022Y-44027050D01*
X82008876Y-44048334D01*
X81877242Y-44102859D01*
X81754403Y-44184937D01*
X81649937Y-44289403D01*
X81567859Y-44412242D01*
X81511322Y-44548733D01*
X81482500Y-44693631D01*
X81482500Y-44841369D01*
X81511322Y-44986267D01*
X81567859Y-45122758D01*
X81649937Y-45245597D01*
X81754403Y-45350063D01*
X81877242Y-45432141D01*
X82013733Y-45488678D01*
X82158631Y-45517500D01*
X82306369Y-45517500D01*
X82451267Y-45488678D01*
X82587758Y-45432141D01*
X82710597Y-45350063D01*
X82815063Y-45245597D01*
X82897141Y-45122758D01*
X82953678Y-44986267D01*
X82982500Y-44841369D01*
X82982500Y-44693631D01*
X82953678Y-44548733D01*
X82897141Y-44412242D01*
X82815063Y-44289403D01*
X82710597Y-44184937D01*
X82599795Y-44110902D01*
X82643707Y-44092713D01*
X82741978Y-44027050D01*
X82808028Y-43961000D01*
X82828815Y-43961000D01*
X85388501Y-46520686D01*
X85388500Y-47840314D01*
X84806815Y-48422000D01*
X84713405Y-48422000D01*
X84597486Y-48445058D01*
X84488293Y-48490287D01*
X84390022Y-48555950D01*
X84306450Y-48639522D01*
X84240787Y-48737793D01*
X84199984Y-48836299D01*
X84029500Y-48665815D01*
X84029500Y-47136647D01*
X84031435Y-47117000D01*
X84023712Y-47038586D01*
X84000840Y-46963185D01*
X83963697Y-46893697D01*
X83926235Y-46848049D01*
X83926233Y-46848047D01*
X83913711Y-46832789D01*
X83898453Y-46820267D01*
X83037237Y-45959052D01*
X83024711Y-45943789D01*
X82963803Y-45893803D01*
X82894314Y-45856660D01*
X82818914Y-45833788D01*
X82760147Y-45828000D01*
X82760146Y-45828000D01*
X82740500Y-45826065D01*
X82720854Y-45828000D01*
X81191685Y-45828000D01*
X79902000Y-44538315D01*
X79902000Y-43961646D01*
X79903935Y-43942000D01*
X79896212Y-43863586D01*
X79873340Y-43788186D01*
X79836197Y-43718697D01*
X79827715Y-43708362D01*
X79786211Y-43657789D01*
X79770949Y-43645264D01*
X79163737Y-43038052D01*
X79151211Y-43022789D01*
X79090303Y-42972803D01*
X79020814Y-42935660D01*
X78945414Y-42912788D01*
X78886647Y-42907000D01*
X78886646Y-42907000D01*
X78867000Y-42905065D01*
X78847354Y-42907000D01*
X78315135Y-42907000D01*
X78295499Y-42905066D01*
X78275863Y-42907000D01*
X78275853Y-42907000D01*
X78217086Y-42912788D01*
X78141686Y-42935660D01*
X78072197Y-42972803D01*
X78072195Y-42972804D01*
X78072196Y-42972804D01*
X78042567Y-42997119D01*
X78043000Y-42994944D01*
X78043000Y-42857056D01*
X78016099Y-42721818D01*
X77963332Y-42594426D01*
X77943002Y-42564000D01*
X79977494Y-42564000D01*
X79984284Y-42565111D01*
X80016807Y-42564000D01*
X80029647Y-42564000D01*
X80036465Y-42563328D01*
X80063031Y-42562421D01*
X80075581Y-42559476D01*
X80088414Y-42558212D01*
X80113860Y-42550493D01*
X80139740Y-42544420D01*
X80151473Y-42539083D01*
X80163814Y-42535340D01*
X80187269Y-42522803D01*
X80211463Y-42511799D01*
X80221928Y-42504277D01*
X80233303Y-42498197D01*
X80253869Y-42481319D01*
X80259413Y-42477334D01*
X80269018Y-42468886D01*
X80294211Y-42448211D01*
X80298582Y-42442885D01*
X80761217Y-42035998D01*
X80880803Y-42085532D01*
X81069171Y-42123000D01*
X81261229Y-42123000D01*
X81449597Y-42085532D01*
X81627036Y-42012034D01*
X81786727Y-41905332D01*
X81922532Y-41769527D01*
X82029234Y-41609836D01*
X82102732Y-41432397D01*
X82140200Y-41244029D01*
X82140200Y-41051971D01*
X82190200Y-41051971D01*
X82190200Y-41244029D01*
X82227668Y-41432397D01*
X82301166Y-41609836D01*
X82407868Y-41769527D01*
X82543673Y-41905332D01*
X82703364Y-42012034D01*
X82880803Y-42085532D01*
X83069171Y-42123000D01*
X83261229Y-42123000D01*
X83449597Y-42085532D01*
X83627036Y-42012034D01*
X83786727Y-41905332D01*
X83922532Y-41769527D01*
X84029234Y-41609836D01*
X84102732Y-41432397D01*
X84140200Y-41244029D01*
X84140200Y-41051971D01*
X84102732Y-40863603D01*
X84029234Y-40686164D01*
X83922532Y-40526473D01*
X83786727Y-40390668D01*
X83627036Y-40283966D01*
X83449597Y-40210468D01*
X83261229Y-40173000D01*
X83069171Y-40173000D01*
X82880803Y-40210468D01*
X82703364Y-40283966D01*
X82543673Y-40390668D01*
X82407868Y-40526473D01*
X82301166Y-40686164D01*
X82227668Y-40863603D01*
X82190200Y-41051971D01*
X82140200Y-41051971D01*
X82102732Y-40863603D01*
X82029234Y-40686164D01*
X81922532Y-40526473D01*
X81786727Y-40390668D01*
X81627036Y-40283966D01*
X81449597Y-40210468D01*
X81261229Y-40173000D01*
X81069171Y-40173000D01*
X80880803Y-40210468D01*
X80703364Y-40283966D01*
X80543673Y-40390668D01*
X80407868Y-40526473D01*
X80301166Y-40686164D01*
X80227668Y-40863603D01*
X80190200Y-41051971D01*
X80190200Y-41244029D01*
X80227668Y-41432397D01*
X80229936Y-41437872D01*
X80021855Y-41620880D01*
X80029234Y-41609836D01*
X80102732Y-41432397D01*
X80140200Y-41244029D01*
X80140200Y-41051971D01*
X80102732Y-40863603D01*
X80029234Y-40686164D01*
X79922532Y-40526473D01*
X79786727Y-40390668D01*
X79627036Y-40283966D01*
X79449597Y-40210468D01*
X79261229Y-40173000D01*
X79069171Y-40173000D01*
X78880803Y-40210468D01*
X78703364Y-40283966D01*
X78543673Y-40390668D01*
X78407868Y-40526473D01*
X78301166Y-40686164D01*
X78227668Y-40863603D01*
X78190200Y-41051971D01*
X78190200Y-41244029D01*
X78227668Y-41432397D01*
X78301166Y-41609836D01*
X78404175Y-41764000D01*
X77108635Y-41764000D01*
X77088999Y-41762066D01*
X77069363Y-41764000D01*
X77069353Y-41764000D01*
X77010586Y-41769788D01*
X76935186Y-41792660D01*
X76865697Y-41829803D01*
X76804789Y-41879789D01*
X76792263Y-41895052D01*
X76312048Y-42375267D01*
X76296790Y-42387789D01*
X76284268Y-42403047D01*
X76284265Y-42403050D01*
X76246803Y-42448698D01*
X76209661Y-42518186D01*
X76186788Y-42593587D01*
X76179065Y-42672000D01*
X76181001Y-42691656D01*
X76181000Y-43922353D01*
X76179065Y-43942000D01*
X76181000Y-43961646D01*
X76186788Y-44020413D01*
X76209660Y-44095813D01*
X76246803Y-44165302D01*
X76296789Y-44226211D01*
X76312050Y-44238735D01*
X77363763Y-45290448D01*
X77376289Y-45305711D01*
X77391550Y-45318235D01*
X77437197Y-45355697D01*
X77478954Y-45378017D01*
X77456788Y-45451087D01*
X77449065Y-45529500D01*
X77451001Y-45549156D01*
X77451000Y-46335353D01*
X77449065Y-46355000D01*
X77451000Y-46374646D01*
X77456788Y-46433413D01*
X77479660Y-46508813D01*
X77516803Y-46578302D01*
X77566789Y-46639211D01*
X77582050Y-46651735D01*
X77705001Y-46774686D01*
X77705000Y-63207314D01*
X77547921Y-63364393D01*
X77534978Y-63351450D01*
X77436707Y-63285787D01*
X77327514Y-63240558D01*
X77211595Y-63217500D01*
X77093405Y-63217500D01*
X76977486Y-63240558D01*
X76868293Y-63285787D01*
X76770022Y-63351450D01*
X76686450Y-63435022D01*
X76620787Y-63533293D01*
X76575558Y-63642486D01*
X76552500Y-63758405D01*
X76552500Y-63876595D01*
X76575558Y-63992514D01*
X76620787Y-64101707D01*
X76686450Y-64199978D01*
X76770022Y-64283550D01*
X76868293Y-64349213D01*
X76977486Y-64394442D01*
X77093405Y-64417500D01*
X77211595Y-64417500D01*
X77327514Y-64394442D01*
X77436707Y-64349213D01*
X77505000Y-64303581D01*
X77505000Y-64321095D01*
X77528058Y-64437014D01*
X77573287Y-64546207D01*
X77638950Y-64644478D01*
X77722522Y-64728050D01*
X77820793Y-64793713D01*
X77929986Y-64838942D01*
X78045905Y-64862000D01*
X78164095Y-64862000D01*
X78280014Y-64838942D01*
X78389207Y-64793713D01*
X78487478Y-64728050D01*
X78571050Y-64644478D01*
X78636713Y-64546207D01*
X78681942Y-64437014D01*
X78705000Y-64321095D01*
X78705000Y-64227685D01*
X78792948Y-64139737D01*
X78808211Y-64127211D01*
X78858197Y-64066303D01*
X78895340Y-63996814D01*
X78918212Y-63921414D01*
X78924000Y-63862647D01*
X78924000Y-63862637D01*
X78925934Y-63843001D01*
X78924000Y-63823365D01*
X78924000Y-46384528D01*
X78990050Y-46318478D01*
X79055713Y-46220207D01*
X79100942Y-46111014D01*
X79106896Y-46081082D01*
X79546501Y-46520687D01*
X79546501Y-46541471D01*
X79480450Y-46607522D01*
X79414787Y-46705793D01*
X79369558Y-46814986D01*
X79346500Y-46930905D01*
X79346500Y-47049095D01*
X79369558Y-47165014D01*
X79407513Y-47256646D01*
X79351287Y-47340793D01*
X79306058Y-47449986D01*
X79283000Y-47565905D01*
X79283000Y-47684095D01*
X79306058Y-47800014D01*
X79351287Y-47909207D01*
X79416950Y-48007478D01*
X79500522Y-48091050D01*
X79598793Y-48156713D01*
X79707986Y-48201942D01*
X79823905Y-48225000D01*
X79942095Y-48225000D01*
X80058014Y-48201942D01*
X80167207Y-48156713D01*
X80265478Y-48091050D01*
X80349050Y-48007478D01*
X80414713Y-47909207D01*
X80459942Y-47800014D01*
X80483000Y-47684095D01*
X80483000Y-47565905D01*
X80459942Y-47449986D01*
X80421987Y-47358354D01*
X80478213Y-47274207D01*
X80523442Y-47165014D01*
X80546500Y-47049095D01*
X80546500Y-46930905D01*
X80523442Y-46814986D01*
X80515168Y-46795011D01*
X80667377Y-46943415D01*
X80678289Y-46956711D01*
X80695507Y-46970841D01*
X80697326Y-46972615D01*
X80710712Y-46983320D01*
X80739197Y-47006697D01*
X80741450Y-47007901D01*
X80743444Y-47009496D01*
X80776142Y-47026445D01*
X80808686Y-47043840D01*
X80811134Y-47044583D01*
X80813398Y-47045756D01*
X80848750Y-47055993D01*
X80884086Y-47066712D01*
X80886632Y-47066963D01*
X80889081Y-47067672D01*
X80925748Y-47070815D01*
X80942853Y-47072500D01*
X80945400Y-47072500D01*
X80967587Y-47074402D01*
X80984678Y-47072500D01*
X82447815Y-47072500D01*
X82785001Y-47409687D01*
X82785000Y-48938853D01*
X82783065Y-48958500D01*
X82785000Y-48978146D01*
X82790788Y-49036913D01*
X82813660Y-49112313D01*
X82850803Y-49181802D01*
X82900789Y-49242711D01*
X82916052Y-49255237D01*
X85452000Y-51791185D01*
X85452001Y-53701344D01*
X85450065Y-53721000D01*
X85457788Y-53799413D01*
X85480661Y-53874814D01*
X85517803Y-53944302D01*
X85555265Y-53989950D01*
X85555268Y-53989953D01*
X85567790Y-54005211D01*
X85583048Y-54017733D01*
X87093500Y-55528186D01*
X87093500Y-55621595D01*
X87116558Y-55737514D01*
X87161787Y-55846707D01*
X87227450Y-55944978D01*
X87311022Y-56028550D01*
X87409293Y-56094213D01*
X87518486Y-56139442D01*
X87634405Y-56162500D01*
X87734315Y-56162500D01*
X87615048Y-56281767D01*
X87599790Y-56294289D01*
X87587268Y-56309547D01*
X87587265Y-56309550D01*
X87549803Y-56355198D01*
X87512661Y-56424686D01*
X87489788Y-56500087D01*
X87482065Y-56578500D01*
X87484001Y-56598156D01*
X87484000Y-57130353D01*
X87482065Y-57150000D01*
X87484000Y-57169646D01*
X87489788Y-57228413D01*
X87512660Y-57303813D01*
X87549803Y-57373302D01*
X87599789Y-57434211D01*
X87615052Y-57446737D01*
X88500001Y-58331687D01*
X88500000Y-69176315D01*
X87146815Y-70529500D01*
X85554135Y-70529500D01*
X85534499Y-70527566D01*
X85514863Y-70529500D01*
X85514853Y-70529500D01*
X85456086Y-70535288D01*
X85380686Y-70558160D01*
X85311197Y-70595303D01*
X85311195Y-70595304D01*
X85311196Y-70595304D01*
X85265549Y-70632765D01*
X85265547Y-70632767D01*
X85250289Y-70645289D01*
X85237767Y-70660547D01*
X81963552Y-73934763D01*
X81948289Y-73947289D01*
X81898303Y-74008198D01*
X81861160Y-74077687D01*
X81841898Y-74141186D01*
X81838288Y-74153087D01*
X81830565Y-74231500D01*
X81832500Y-74251147D01*
X81832501Y-76957971D01*
X81766450Y-77024022D01*
X81700787Y-77122293D01*
X81655558Y-77231486D01*
X81632500Y-77347405D01*
X81632500Y-77441500D01*
X81601905Y-77441500D01*
X81485986Y-77464558D01*
X81376793Y-77509787D01*
X81278522Y-77575450D01*
X81194950Y-77659022D01*
X81129287Y-77757293D01*
X81084058Y-77866486D01*
X81061000Y-77982405D01*
X81061000Y-78100595D01*
X81084058Y-78216514D01*
X81129287Y-78325707D01*
X81194950Y-78423978D01*
X81278522Y-78507550D01*
X81376793Y-78573213D01*
X81485986Y-78618442D01*
X81502361Y-78621699D01*
X81436903Y-78665437D01*
X81332437Y-78769903D01*
X81250359Y-78892742D01*
X81193822Y-79029233D01*
X81165000Y-79174131D01*
X81165000Y-79321869D01*
X81193822Y-79466767D01*
X81250359Y-79603258D01*
X81332437Y-79726097D01*
X81436903Y-79830563D01*
X81559742Y-79912641D01*
X81696233Y-79969178D01*
X81841131Y-79998000D01*
X81988869Y-79998000D01*
X82133767Y-79969178D01*
X82270258Y-79912641D01*
X82393097Y-79830563D01*
X82497563Y-79726097D01*
X82579641Y-79603258D01*
X82636178Y-79466767D01*
X82665000Y-79321869D01*
X82665000Y-79174131D01*
X82636178Y-79029233D01*
X82579641Y-78892742D01*
X82497563Y-78769903D01*
X82393097Y-78665437D01*
X82270258Y-78583359D01*
X82133767Y-78526822D01*
X82041964Y-78508561D01*
X82043478Y-78507550D01*
X82109528Y-78441500D01*
X82847854Y-78441500D01*
X82867500Y-78443435D01*
X82887146Y-78441500D01*
X82887147Y-78441500D01*
X82945914Y-78435712D01*
X83021314Y-78412840D01*
X83090803Y-78375697D01*
X83151711Y-78325711D01*
X83164237Y-78310448D01*
X83390448Y-78084237D01*
X83405711Y-78071711D01*
X83455697Y-78010803D01*
X83492840Y-77941314D01*
X83515712Y-77865914D01*
X83521500Y-77807147D01*
X83521500Y-77807137D01*
X83523434Y-77787501D01*
X83521500Y-77767865D01*
X83521500Y-77299146D01*
X83523435Y-77279500D01*
X83515712Y-77201086D01*
X83492840Y-77125685D01*
X83455697Y-77056197D01*
X83418235Y-77010549D01*
X83418233Y-77010547D01*
X83405711Y-76995289D01*
X83390454Y-76982768D01*
X83077000Y-76669315D01*
X83077000Y-74524185D01*
X85700186Y-71901000D01*
X87737354Y-71901000D01*
X87757000Y-71902935D01*
X87776646Y-71901000D01*
X87776647Y-71901000D01*
X87835414Y-71895212D01*
X87910814Y-71872340D01*
X87980303Y-71835197D01*
X88041211Y-71785211D01*
X88053737Y-71769948D01*
X89389000Y-70434686D01*
X89389000Y-70465354D01*
X89387065Y-70485000D01*
X89389000Y-70504646D01*
X89394788Y-70563413D01*
X89417660Y-70638813D01*
X89454803Y-70708302D01*
X89504789Y-70769211D01*
X89520052Y-70781737D01*
X90350161Y-71611847D01*
X90320692Y-71655951D01*
X90203874Y-71937975D01*
X90144320Y-72237370D01*
X90144320Y-72542630D01*
X90203874Y-72842025D01*
X90320692Y-73124049D01*
X90490285Y-73377863D01*
X90706137Y-73593715D01*
X90959951Y-73763308D01*
X91241975Y-73880126D01*
X91541370Y-73939680D01*
X91846630Y-73939680D01*
X92146025Y-73880126D01*
X92428049Y-73763308D01*
X92681863Y-73593715D01*
X92897715Y-73377863D01*
X93067308Y-73124049D01*
X93147000Y-72931655D01*
X93147000Y-74478000D01*
X89804961Y-74478000D01*
X89789000Y-74476428D01*
X89773040Y-74478000D01*
X89773039Y-74478000D01*
X89725289Y-74482703D01*
X89664026Y-74501287D01*
X89607566Y-74531465D01*
X89558079Y-74572079D01*
X89517465Y-74621566D01*
X89487287Y-74678026D01*
X89468703Y-74739289D01*
X89462428Y-74803000D01*
X89464001Y-74818971D01*
X89464001Y-74992579D01*
X89462838Y-74991162D01*
X89417157Y-74953673D01*
X89365040Y-74925816D01*
X89308490Y-74908661D01*
X89249680Y-74902869D01*
X86750320Y-74902869D01*
X86691510Y-74908661D01*
X86634960Y-74925816D01*
X86582843Y-74953673D01*
X86537162Y-74991162D01*
X86499673Y-75036843D01*
X86471816Y-75088960D01*
X86454661Y-75145510D01*
X86448869Y-75204320D01*
X86448869Y-77703680D01*
X86454661Y-77762490D01*
X86471816Y-77819040D01*
X86499673Y-77871157D01*
X86537162Y-77916838D01*
X86582843Y-77954327D01*
X86634960Y-77982184D01*
X86691510Y-77999339D01*
X86750320Y-78005131D01*
X89249680Y-78005131D01*
X89308490Y-77999339D01*
X89365040Y-77982184D01*
X89417157Y-77954327D01*
X89462838Y-77916838D01*
X89464001Y-77915421D01*
X89464000Y-79748902D01*
X89373308Y-79529951D01*
X89203715Y-79276137D01*
X88987863Y-79060285D01*
X88734049Y-78890692D01*
X88452025Y-78773874D01*
X88152630Y-78714320D01*
X87847370Y-78714320D01*
X87547975Y-78773874D01*
X87265951Y-78890692D01*
X87012137Y-79060285D01*
X86796285Y-79276137D01*
X86626692Y-79529951D01*
X86509874Y-79811975D01*
X86450320Y-80111370D01*
X86450320Y-80416630D01*
X86509874Y-80716025D01*
X86626692Y-80998049D01*
X86796285Y-81251863D01*
X87012137Y-81467715D01*
X87265951Y-81637308D01*
X87547975Y-81754126D01*
X87748599Y-81794033D01*
X87728465Y-81818566D01*
X87698287Y-81875026D01*
X87679703Y-81936289D01*
X87673428Y-82000000D01*
X87675000Y-82015960D01*
X87675001Y-96675000D01*
X72325000Y-96675000D01*
X72325000Y-82015960D01*
X72326572Y-82000000D01*
X72320297Y-81936289D01*
X72301713Y-81875026D01*
X72275044Y-81825131D01*
X73249680Y-81825131D01*
X73308490Y-81819339D01*
X73365040Y-81802184D01*
X73417157Y-81774327D01*
X73462838Y-81736838D01*
X73500327Y-81691157D01*
X73514000Y-81665576D01*
X73514001Y-88226408D01*
X73415793Y-88267087D01*
X73317522Y-88332750D01*
X73233950Y-88416322D01*
X73168287Y-88514593D01*
X73123058Y-88623786D01*
X73100000Y-88739705D01*
X73100000Y-88857895D01*
X73123058Y-88973814D01*
X73168287Y-89083007D01*
X73233950Y-89181278D01*
X73317522Y-89264850D01*
X73415793Y-89330513D01*
X73524986Y-89375742D01*
X73640905Y-89398800D01*
X73759095Y-89398800D01*
X73875014Y-89375742D01*
X73958501Y-89341161D01*
X73958501Y-89374614D01*
X73734315Y-89598800D01*
X73640905Y-89598800D01*
X73524986Y-89621858D01*
X73415793Y-89667087D01*
X73317522Y-89732750D01*
X73233950Y-89816322D01*
X73168287Y-89914593D01*
X73123058Y-90023786D01*
X73100000Y-90139705D01*
X73100000Y-90257895D01*
X73123058Y-90373814D01*
X73168287Y-90483007D01*
X73233950Y-90581278D01*
X73317522Y-90664850D01*
X73415793Y-90730513D01*
X73524986Y-90775742D01*
X73640905Y-90798800D01*
X73759095Y-90798800D01*
X73875014Y-90775742D01*
X73984207Y-90730513D01*
X74082478Y-90664850D01*
X74166050Y-90581278D01*
X74231713Y-90483007D01*
X74276942Y-90373814D01*
X74300000Y-90257895D01*
X74300000Y-90164485D01*
X74627448Y-89837037D01*
X74642711Y-89824511D01*
X74692697Y-89763603D01*
X74729840Y-89694114D01*
X74752712Y-89618714D01*
X74758500Y-89559947D01*
X74760435Y-89540300D01*
X74758500Y-89520653D01*
X74758500Y-87071685D01*
X74901500Y-87214686D01*
X74901500Y-87308095D01*
X74924558Y-87424014D01*
X74969787Y-87533207D01*
X75035450Y-87631478D01*
X75119022Y-87715050D01*
X75217293Y-87780713D01*
X75326486Y-87825942D01*
X75442405Y-87849000D01*
X75560595Y-87849000D01*
X75676514Y-87825942D01*
X75736500Y-87801095D01*
X75736501Y-90396614D01*
X73734315Y-92398800D01*
X73640905Y-92398800D01*
X73524986Y-92421858D01*
X73415793Y-92467087D01*
X73317522Y-92532750D01*
X73233950Y-92616322D01*
X73168287Y-92714593D01*
X73123058Y-92823786D01*
X73100000Y-92939705D01*
X73100000Y-93057895D01*
X73123058Y-93173814D01*
X73168287Y-93283007D01*
X73233950Y-93381278D01*
X73317522Y-93464850D01*
X73415793Y-93530513D01*
X73524986Y-93575742D01*
X73640905Y-93598800D01*
X73759095Y-93598800D01*
X73875014Y-93575742D01*
X73984207Y-93530513D01*
X74082478Y-93464850D01*
X74166050Y-93381278D01*
X74231713Y-93283007D01*
X74276942Y-93173814D01*
X74300000Y-93057895D01*
X74300000Y-92964485D01*
X76405448Y-90859037D01*
X76420711Y-90846511D01*
X76470697Y-90785603D01*
X76507840Y-90716114D01*
X76530712Y-90640714D01*
X76536500Y-90581947D01*
X76536500Y-90581937D01*
X76538434Y-90562301D01*
X76536500Y-90542665D01*
X76536500Y-88307028D01*
X76579522Y-88350050D01*
X76677793Y-88415713D01*
X76786986Y-88460942D01*
X76902905Y-88484000D01*
X77021095Y-88484000D01*
X77137014Y-88460942D01*
X77246207Y-88415713D01*
X77344478Y-88350050D01*
X77410528Y-88284000D01*
X79717315Y-88284000D01*
X83269263Y-91835948D01*
X83281789Y-91851211D01*
X83297050Y-91863735D01*
X83342697Y-91901197D01*
X83412186Y-91938340D01*
X83487586Y-91961212D01*
X83566000Y-91968935D01*
X83585647Y-91967000D01*
X84797315Y-91967000D01*
X85622049Y-92791735D01*
X85622049Y-93777500D01*
X85627841Y-93836310D01*
X85644996Y-93892860D01*
X85672853Y-93944977D01*
X85710342Y-93990658D01*
X85756023Y-94028147D01*
X85808140Y-94056004D01*
X85864690Y-94073159D01*
X85923500Y-94078951D01*
X86923500Y-94078951D01*
X86982310Y-94073159D01*
X87038860Y-94056004D01*
X87090977Y-94028147D01*
X87136658Y-93990658D01*
X87174147Y-93944977D01*
X87202004Y-93892860D01*
X87219159Y-93836310D01*
X87224951Y-93777500D01*
X87224951Y-92277500D01*
X87219159Y-92218690D01*
X87202004Y-92162140D01*
X87174147Y-92110023D01*
X87136658Y-92064342D01*
X87090977Y-92026853D01*
X87038860Y-91998996D01*
X86982310Y-91981841D01*
X86923500Y-91976049D01*
X85937734Y-91976049D01*
X85259735Y-91298050D01*
X85247211Y-91282789D01*
X85186303Y-91232803D01*
X85116814Y-91195660D01*
X85041414Y-91172788D01*
X84982647Y-91167000D01*
X84982646Y-91167000D01*
X84963000Y-91165065D01*
X84943354Y-91167000D01*
X83731685Y-91167000D01*
X82724316Y-90159631D01*
X83641500Y-90159631D01*
X83641500Y-90307369D01*
X83670322Y-90452267D01*
X83726859Y-90588758D01*
X83808937Y-90711597D01*
X83913403Y-90816063D01*
X84036242Y-90898141D01*
X84172733Y-90954678D01*
X84317631Y-90983500D01*
X84465369Y-90983500D01*
X84610267Y-90954678D01*
X84746758Y-90898141D01*
X84869597Y-90816063D01*
X84974063Y-90711597D01*
X85056141Y-90588758D01*
X85112678Y-90452267D01*
X85141500Y-90307369D01*
X85141500Y-90159631D01*
X85112678Y-90014733D01*
X85056141Y-89878242D01*
X84974063Y-89755403D01*
X84869597Y-89650937D01*
X84746758Y-89568859D01*
X84610267Y-89512322D01*
X84465369Y-89483500D01*
X84317631Y-89483500D01*
X84172733Y-89512322D01*
X84036242Y-89568859D01*
X83913403Y-89650937D01*
X83808937Y-89755403D01*
X83726859Y-89878242D01*
X83670322Y-90014733D01*
X83641500Y-90159631D01*
X82724316Y-90159631D01*
X80179737Y-87615052D01*
X80167211Y-87599789D01*
X80106303Y-87549803D01*
X80036814Y-87512660D01*
X79961414Y-87489788D01*
X79902647Y-87484000D01*
X79902646Y-87484000D01*
X79883000Y-87482065D01*
X79863354Y-87484000D01*
X78076733Y-87484000D01*
X78128713Y-87406207D01*
X78145520Y-87365631D01*
X83641500Y-87365631D01*
X83641500Y-87513369D01*
X83670322Y-87658267D01*
X83726859Y-87794758D01*
X83808937Y-87917597D01*
X83913403Y-88022063D01*
X84036242Y-88104141D01*
X84172733Y-88160678D01*
X84317631Y-88189500D01*
X84465369Y-88189500D01*
X84610267Y-88160678D01*
X84746758Y-88104141D01*
X84869597Y-88022063D01*
X84974063Y-87917597D01*
X85056141Y-87794758D01*
X85112678Y-87658267D01*
X85141500Y-87513369D01*
X85141500Y-87365631D01*
X85112678Y-87220733D01*
X85056141Y-87084242D01*
X84974063Y-86961403D01*
X84869597Y-86856937D01*
X84746758Y-86774859D01*
X84610267Y-86718322D01*
X84465369Y-86689500D01*
X84317631Y-86689500D01*
X84172733Y-86718322D01*
X84036242Y-86774859D01*
X83913403Y-86856937D01*
X83808937Y-86961403D01*
X83726859Y-87084242D01*
X83670322Y-87220733D01*
X83641500Y-87365631D01*
X78145520Y-87365631D01*
X78173942Y-87297014D01*
X78197000Y-87181095D01*
X78197000Y-87062905D01*
X78173942Y-86946986D01*
X78128713Y-86837793D01*
X78063050Y-86739522D01*
X77997000Y-86673472D01*
X77997000Y-81699685D01*
X79707453Y-79989233D01*
X79722711Y-79976711D01*
X79743890Y-79950905D01*
X79772696Y-79915804D01*
X79772697Y-79915803D01*
X79809840Y-79846314D01*
X79832712Y-79770914D01*
X79838500Y-79712147D01*
X79838500Y-79712137D01*
X79840434Y-79692501D01*
X79838500Y-79672865D01*
X79838500Y-78969185D01*
X81548953Y-77258733D01*
X81564211Y-77246211D01*
X81614197Y-77185303D01*
X81651340Y-77115814D01*
X81674212Y-77040414D01*
X81680000Y-76981647D01*
X81680000Y-76981637D01*
X81681934Y-76962001D01*
X81680000Y-76942365D01*
X81680000Y-70178713D01*
X81709014Y-70172942D01*
X81818207Y-70127713D01*
X81916478Y-70062050D01*
X82000050Y-69978478D01*
X82065713Y-69880207D01*
X82110942Y-69771014D01*
X82134000Y-69655095D01*
X82134000Y-69536905D01*
X82110942Y-69420986D01*
X82065713Y-69311793D01*
X82000050Y-69213522D01*
X81916478Y-69129950D01*
X81818207Y-69064287D01*
X81709014Y-69019058D01*
X81593095Y-68996000D01*
X81474905Y-68996000D01*
X81358986Y-69019058D01*
X81249793Y-69064287D01*
X81235500Y-69073837D01*
X81235500Y-68887131D01*
X85419500Y-68887131D01*
X85419500Y-69034869D01*
X85448322Y-69179767D01*
X85504859Y-69316258D01*
X85586937Y-69439097D01*
X85691403Y-69543563D01*
X85814242Y-69625641D01*
X85950733Y-69682178D01*
X86095631Y-69711000D01*
X86243369Y-69711000D01*
X86388267Y-69682178D01*
X86524758Y-69625641D01*
X86647597Y-69543563D01*
X86752063Y-69439097D01*
X86834141Y-69316258D01*
X86890678Y-69179767D01*
X86919500Y-69034869D01*
X86919500Y-68887131D01*
X86890678Y-68742233D01*
X86834141Y-68605742D01*
X86752063Y-68482903D01*
X86647597Y-68378437D01*
X86524758Y-68296359D01*
X86388267Y-68239822D01*
X86243369Y-68211000D01*
X86095631Y-68211000D01*
X85950733Y-68239822D01*
X85814242Y-68296359D01*
X85691403Y-68378437D01*
X85586937Y-68482903D01*
X85504859Y-68605742D01*
X85448322Y-68742233D01*
X85419500Y-68887131D01*
X81235500Y-68887131D01*
X81235500Y-67856685D01*
X81729054Y-67363131D01*
X85419500Y-67363131D01*
X85419500Y-67510869D01*
X85448322Y-67655767D01*
X85504859Y-67792258D01*
X85586937Y-67915097D01*
X85691403Y-68019563D01*
X85814242Y-68101641D01*
X85950733Y-68158178D01*
X86095631Y-68187000D01*
X86243369Y-68187000D01*
X86388267Y-68158178D01*
X86524758Y-68101641D01*
X86647597Y-68019563D01*
X86752063Y-67915097D01*
X86834141Y-67792258D01*
X86890678Y-67655767D01*
X86919500Y-67510869D01*
X86919500Y-67363131D01*
X86890678Y-67218233D01*
X86834141Y-67081742D01*
X86752063Y-66958903D01*
X86647597Y-66854437D01*
X86524758Y-66772359D01*
X86388267Y-66715822D01*
X86243369Y-66687000D01*
X86095631Y-66687000D01*
X85950733Y-66715822D01*
X85814242Y-66772359D01*
X85691403Y-66854437D01*
X85586937Y-66958903D01*
X85504859Y-67081742D01*
X85448322Y-67218233D01*
X85419500Y-67363131D01*
X81729054Y-67363131D01*
X84106985Y-64985200D01*
X86574549Y-64985200D01*
X86574549Y-66485200D01*
X86580341Y-66544010D01*
X86597496Y-66600560D01*
X86625353Y-66652677D01*
X86662842Y-66698358D01*
X86708523Y-66735847D01*
X86760640Y-66763704D01*
X86817190Y-66780859D01*
X86876000Y-66786651D01*
X87876000Y-66786651D01*
X87934810Y-66780859D01*
X87991360Y-66763704D01*
X88043477Y-66735847D01*
X88089158Y-66698358D01*
X88126647Y-66652677D01*
X88154504Y-66600560D01*
X88171659Y-66544010D01*
X88177451Y-66485200D01*
X88177451Y-65968712D01*
X88206942Y-65897514D01*
X88230000Y-65781595D01*
X88230000Y-65663405D01*
X88206942Y-65547486D01*
X88177451Y-65476288D01*
X88177451Y-64985200D01*
X88171659Y-64926390D01*
X88154504Y-64869840D01*
X88126647Y-64817723D01*
X88089158Y-64772042D01*
X88043477Y-64734553D01*
X87991360Y-64706696D01*
X87934810Y-64689541D01*
X87876000Y-64683749D01*
X86876000Y-64683749D01*
X86817190Y-64689541D01*
X86760640Y-64706696D01*
X86708523Y-64734553D01*
X86662842Y-64772042D01*
X86625353Y-64817723D01*
X86597496Y-64869840D01*
X86580341Y-64926390D01*
X86574549Y-64985200D01*
X84106985Y-64985200D01*
X84850954Y-64241232D01*
X84866211Y-64228711D01*
X84878765Y-64213415D01*
X84903243Y-64183587D01*
X84916197Y-64167803D01*
X84953340Y-64098314D01*
X84976212Y-64022914D01*
X84982000Y-63964147D01*
X84982000Y-63964137D01*
X84983934Y-63944501D01*
X84982000Y-63924865D01*
X84982000Y-60780713D01*
X85011014Y-60774942D01*
X85120207Y-60729713D01*
X85218478Y-60664050D01*
X85302050Y-60580478D01*
X85367713Y-60482207D01*
X85412942Y-60373014D01*
X85436000Y-60257095D01*
X85436000Y-60138905D01*
X85412942Y-60022986D01*
X85367713Y-59913793D01*
X85302050Y-59815522D01*
X85218478Y-59731950D01*
X85120207Y-59666287D01*
X85011014Y-59621058D01*
X84895095Y-59598000D01*
X84776905Y-59598000D01*
X84720553Y-59609209D01*
X84714442Y-59578486D01*
X84669213Y-59469293D01*
X84603550Y-59371022D01*
X84519978Y-59287450D01*
X84421707Y-59221787D01*
X84312514Y-59176558D01*
X84196595Y-59153500D01*
X84078405Y-59153500D01*
X83962486Y-59176558D01*
X83853293Y-59221787D01*
X83755022Y-59287450D01*
X83671450Y-59371022D01*
X83605787Y-59469293D01*
X83560558Y-59578486D01*
X83537500Y-59694405D01*
X83537500Y-59812595D01*
X83560558Y-59928514D01*
X83605787Y-60037707D01*
X83671450Y-60135978D01*
X83737500Y-60202028D01*
X83737501Y-63469370D01*
X83714550Y-63435022D01*
X83630978Y-63351450D01*
X83532707Y-63285787D01*
X83423514Y-63240558D01*
X83307595Y-63217500D01*
X83189405Y-63217500D01*
X83073486Y-63240558D01*
X82964293Y-63285787D01*
X82866022Y-63351450D01*
X82782450Y-63435022D01*
X82716787Y-63533293D01*
X82671558Y-63642486D01*
X82648500Y-63758405D01*
X82648500Y-63876595D01*
X82671558Y-63992514D01*
X82716588Y-64101226D01*
X79677551Y-67140264D01*
X79662289Y-67152789D01*
X79631045Y-67190859D01*
X78691450Y-66251265D01*
X74123500Y-61683315D01*
X74123500Y-58185647D01*
X74125435Y-58166000D01*
X74117712Y-58087586D01*
X74094840Y-58012185D01*
X74057697Y-57942697D01*
X74020235Y-57897049D01*
X74020233Y-57897047D01*
X74007711Y-57881789D01*
X73992454Y-57869268D01*
X73234500Y-57111315D01*
X73234500Y-56598147D01*
X73236435Y-56578500D01*
X73228712Y-56500086D01*
X73205840Y-56424686D01*
X73168697Y-56355197D01*
X73118711Y-56294289D01*
X73103449Y-56281764D01*
X72599500Y-55777815D01*
X72599500Y-53471028D01*
X72665550Y-53404978D01*
X72731213Y-53306707D01*
X72776442Y-53197514D01*
X72799500Y-53081595D01*
X72799500Y-52963405D01*
X72776442Y-52847486D01*
X72731213Y-52738293D01*
X72665550Y-52640022D01*
X72581978Y-52556450D01*
X72483707Y-52490787D01*
X72374514Y-52445558D01*
X72258595Y-52422500D01*
X72140405Y-52422500D01*
X72024486Y-52445558D01*
X71915293Y-52490787D01*
X71817022Y-52556450D01*
X71733450Y-52640022D01*
X71667787Y-52738293D01*
X71622558Y-52847486D01*
X71599500Y-52963405D01*
X71599500Y-53081595D01*
X71622558Y-53197514D01*
X71667787Y-53306707D01*
X71733450Y-53404978D01*
X71799500Y-53471028D01*
X71799501Y-55923844D01*
X71797565Y-55943500D01*
X71805288Y-56021913D01*
X71828161Y-56097314D01*
X71865303Y-56166802D01*
X71902765Y-56212450D01*
X71902768Y-56212453D01*
X71915290Y-56227711D01*
X71930548Y-56240233D01*
X71968898Y-56278583D01*
X71915293Y-56300787D01*
X71817022Y-56366450D01*
X71733450Y-56450022D01*
X71667787Y-56548293D01*
X71622558Y-56657486D01*
X71599500Y-56773405D01*
X71599500Y-56891595D01*
X71622558Y-57007514D01*
X71667787Y-57116707D01*
X71733450Y-57214978D01*
X71804731Y-57286259D01*
X71805288Y-57291913D01*
X71828161Y-57367314D01*
X71865303Y-57436802D01*
X71902765Y-57482450D01*
X71902768Y-57482453D01*
X71915290Y-57497711D01*
X71930548Y-57510233D01*
X71968898Y-57548583D01*
X71915293Y-57570787D01*
X71817022Y-57636450D01*
X71733450Y-57720022D01*
X71667787Y-57818293D01*
X71622558Y-57927486D01*
X71599500Y-58043405D01*
X71599500Y-58161595D01*
X71622558Y-58277514D01*
X71667787Y-58386707D01*
X71733450Y-58484978D01*
X71804731Y-58556259D01*
X71805288Y-58561914D01*
X71813728Y-58589735D01*
X71828161Y-58637314D01*
X71865303Y-58706802D01*
X71902765Y-58752450D01*
X71902768Y-58752453D01*
X71915290Y-58767711D01*
X71930548Y-58780233D01*
X71968898Y-58818583D01*
X71915293Y-58840787D01*
X71817022Y-58906450D01*
X71733450Y-58990022D01*
X71667787Y-59088293D01*
X71622558Y-59197486D01*
X71599500Y-59313405D01*
X71599500Y-59431595D01*
X71622558Y-59547514D01*
X71667787Y-59656707D01*
X71733450Y-59754978D01*
X71799500Y-59821028D01*
X71799501Y-62019844D01*
X71797565Y-62039500D01*
X71805288Y-62117913D01*
X71828161Y-62193314D01*
X71865303Y-62262802D01*
X71902765Y-62308450D01*
X71902768Y-62308453D01*
X71915290Y-62323711D01*
X71930548Y-62336233D01*
X76776299Y-67181985D01*
X76677793Y-67222787D01*
X76579522Y-67288450D01*
X76495950Y-67372022D01*
X76430287Y-67470293D01*
X76385058Y-67579486D01*
X76362000Y-67695405D01*
X76362000Y-67813595D01*
X76385058Y-67929514D01*
X76430287Y-68038707D01*
X76495950Y-68136978D01*
X76562001Y-68203029D01*
X76562000Y-68604815D01*
X76542315Y-68624500D01*
X73933646Y-68624500D01*
X73914000Y-68622565D01*
X73835586Y-68630288D01*
X73760185Y-68653160D01*
X73690697Y-68690303D01*
X73645049Y-68727765D01*
X73645047Y-68727767D01*
X73629789Y-68740289D01*
X73617267Y-68755547D01*
X73200549Y-69172266D01*
X73185290Y-69184789D01*
X73172768Y-69200047D01*
X73172765Y-69200050D01*
X73135303Y-69245698D01*
X73098161Y-69315186D01*
X73075288Y-69390587D01*
X73067565Y-69469000D01*
X73069501Y-69488656D01*
X73069500Y-72795815D01*
X73010048Y-72855267D01*
X72994790Y-72867789D01*
X72982268Y-72883047D01*
X72982265Y-72883050D01*
X72944803Y-72928698D01*
X72907661Y-72998186D01*
X72884788Y-73073587D01*
X72877065Y-73152000D01*
X72879001Y-73171656D01*
X72879000Y-74275353D01*
X72877065Y-74295000D01*
X72879000Y-74314646D01*
X72884788Y-74373413D01*
X72907660Y-74448813D01*
X72944803Y-74518302D01*
X72994789Y-74579211D01*
X73010052Y-74591737D01*
X73090891Y-74672576D01*
X73083058Y-74691486D01*
X73060000Y-74807405D01*
X73060000Y-74925595D01*
X73083058Y-75041514D01*
X73128287Y-75150707D01*
X73193950Y-75248978D01*
X73277522Y-75332550D01*
X73375793Y-75398213D01*
X73484986Y-75443442D01*
X73530151Y-75452426D01*
X73522958Y-75476137D01*
X73519788Y-75486587D01*
X73512065Y-75565000D01*
X73514000Y-75584646D01*
X73514000Y-76131997D01*
X73490126Y-76011975D01*
X73373308Y-75729951D01*
X73203715Y-75476137D01*
X72987863Y-75260285D01*
X72734049Y-75090692D01*
X72452025Y-74973874D01*
X72152630Y-74914320D01*
X71847370Y-74914320D01*
X71547975Y-74973874D01*
X71265951Y-75090692D01*
X71012137Y-75260285D01*
X70796285Y-75476137D01*
X70626692Y-75729951D01*
X70509874Y-76011975D01*
X70450320Y-76311370D01*
X70450320Y-76616630D01*
X70509874Y-76916025D01*
X70626692Y-77198049D01*
X70796285Y-77451863D01*
X71012137Y-77667715D01*
X71265951Y-77837308D01*
X71547975Y-77954126D01*
X71847370Y-78013680D01*
X72152630Y-78013680D01*
X72452025Y-77954126D01*
X72734049Y-77837308D01*
X72987863Y-77667715D01*
X73203715Y-77451863D01*
X73373308Y-77198049D01*
X73490126Y-76916025D01*
X73514000Y-76796003D01*
X73514000Y-78882424D01*
X73500327Y-78856843D01*
X73462838Y-78811162D01*
X73417157Y-78773673D01*
X73365040Y-78745816D01*
X73308490Y-78728661D01*
X73249680Y-78722869D01*
X70750320Y-78722869D01*
X70691510Y-78728661D01*
X70634960Y-78745816D01*
X70582843Y-78773673D01*
X70537162Y-78811162D01*
X70499673Y-78856843D01*
X70471816Y-78908960D01*
X70454661Y-78965510D01*
X70448869Y-79024320D01*
X70448869Y-81523680D01*
X70454661Y-81582490D01*
X70471816Y-81639040D01*
X70491037Y-81675000D01*
X70325000Y-81675000D01*
X70325000Y-71015953D01*
X70326571Y-71000000D01*
X70325000Y-70984047D01*
X70325000Y-70984039D01*
X70320297Y-70936289D01*
X70301713Y-70875026D01*
X70271535Y-70818566D01*
X70254408Y-70797697D01*
X70241096Y-70781476D01*
X70241092Y-70781472D01*
X70230921Y-70769079D01*
X70218528Y-70758908D01*
X70139525Y-70679905D01*
X71218500Y-70679905D01*
X71218500Y-70798095D01*
X71241558Y-70914014D01*
X71286787Y-71023207D01*
X71352450Y-71121478D01*
X71436022Y-71205050D01*
X71534293Y-71270713D01*
X71643486Y-71315942D01*
X71759405Y-71339000D01*
X71877595Y-71339000D01*
X71993514Y-71315942D01*
X72102707Y-71270713D01*
X72200978Y-71205050D01*
X72284550Y-71121478D01*
X72350213Y-71023207D01*
X72395442Y-70914014D01*
X72418500Y-70798095D01*
X72418500Y-70679905D01*
X72395442Y-70563986D01*
X72350213Y-70454793D01*
X72284550Y-70356522D01*
X72200978Y-70272950D01*
X72102707Y-70207287D01*
X71993514Y-70162058D01*
X71877595Y-70139000D01*
X71759405Y-70139000D01*
X71643486Y-70162058D01*
X71534293Y-70207287D01*
X71436022Y-70272950D01*
X71352450Y-70356522D01*
X71286787Y-70454793D01*
X71241558Y-70563986D01*
X71218500Y-70679905D01*
X70139525Y-70679905D01*
X67325000Y-67865382D01*
X67325000Y-64197971D01*
X67605000Y-64197971D01*
X67605000Y-64390029D01*
X67642468Y-64578397D01*
X67715966Y-64755836D01*
X67822668Y-64915527D01*
X67958473Y-65051332D01*
X68118164Y-65158034D01*
X68295603Y-65231532D01*
X68483971Y-65269000D01*
X68676029Y-65269000D01*
X68864397Y-65231532D01*
X69041836Y-65158034D01*
X69201527Y-65051332D01*
X69337332Y-64915527D01*
X69444034Y-64755836D01*
X69517532Y-64578397D01*
X69555000Y-64390029D01*
X69555000Y-64197971D01*
X69517532Y-64009603D01*
X69444034Y-63832164D01*
X69337332Y-63672473D01*
X69201527Y-63536668D01*
X69041836Y-63429966D01*
X68864397Y-63356468D01*
X68676029Y-63319000D01*
X68483971Y-63319000D01*
X68295603Y-63356468D01*
X68118164Y-63429966D01*
X67958473Y-63536668D01*
X67822668Y-63672473D01*
X67715966Y-63832164D01*
X67642468Y-64009603D01*
X67605000Y-64197971D01*
X67325000Y-64197971D01*
X67325000Y-62197971D01*
X67605000Y-62197971D01*
X67605000Y-62390029D01*
X67642468Y-62578397D01*
X67715966Y-62755836D01*
X67822668Y-62915527D01*
X67958473Y-63051332D01*
X68118164Y-63158034D01*
X68295603Y-63231532D01*
X68483971Y-63269000D01*
X68676029Y-63269000D01*
X68864397Y-63231532D01*
X69041836Y-63158034D01*
X69201527Y-63051332D01*
X69337332Y-62915527D01*
X69444034Y-62755836D01*
X69517532Y-62578397D01*
X69555000Y-62390029D01*
X69555000Y-62197971D01*
X69517532Y-62009603D01*
X69444034Y-61832164D01*
X69337332Y-61672473D01*
X69201527Y-61536668D01*
X69041836Y-61429966D01*
X68864397Y-61356468D01*
X68676029Y-61319000D01*
X68483971Y-61319000D01*
X68295603Y-61356468D01*
X68118164Y-61429966D01*
X67958473Y-61536668D01*
X67822668Y-61672473D01*
X67715966Y-61832164D01*
X67642468Y-62009603D01*
X67605000Y-62197971D01*
X67325000Y-62197971D01*
X67325000Y-60197971D01*
X67605000Y-60197971D01*
X67605000Y-60390029D01*
X67642468Y-60578397D01*
X67715966Y-60755836D01*
X67822668Y-60915527D01*
X67958473Y-61051332D01*
X68118164Y-61158034D01*
X68295603Y-61231532D01*
X68483971Y-61269000D01*
X68676029Y-61269000D01*
X68864397Y-61231532D01*
X69041836Y-61158034D01*
X69201527Y-61051332D01*
X69337332Y-60915527D01*
X69444034Y-60755836D01*
X69517532Y-60578397D01*
X69555000Y-60390029D01*
X69555000Y-60197971D01*
X69517532Y-60009603D01*
X69444034Y-59832164D01*
X69337332Y-59672473D01*
X69201527Y-59536668D01*
X69041836Y-59429966D01*
X68864397Y-59356468D01*
X68676029Y-59319000D01*
X68483971Y-59319000D01*
X68295603Y-59356468D01*
X68118164Y-59429966D01*
X67958473Y-59536668D01*
X67822668Y-59672473D01*
X67715966Y-59832164D01*
X67642468Y-60009603D01*
X67605000Y-60197971D01*
X67325000Y-60197971D01*
X67325000Y-58134618D01*
X70218529Y-55241091D01*
X70230921Y-55230921D01*
X70241092Y-55218528D01*
X70241096Y-55218524D01*
X70254408Y-55202303D01*
X70271535Y-55181434D01*
X70301713Y-55124974D01*
X70320297Y-55063711D01*
X70325000Y-55015961D01*
X70325000Y-55015953D01*
X70326571Y-55000000D01*
X70325000Y-54984047D01*
X70325000Y-50594982D01*
X70341496Y-50649360D01*
X70369353Y-50701477D01*
X70406842Y-50747158D01*
X70452523Y-50784647D01*
X70504640Y-50812504D01*
X70561190Y-50829659D01*
X70620000Y-50835451D01*
X71620000Y-50835451D01*
X71678810Y-50829659D01*
X71735360Y-50812504D01*
X71787477Y-50784647D01*
X71833158Y-50747158D01*
X71870647Y-50701477D01*
X71898504Y-50649360D01*
X71915659Y-50592810D01*
X71921451Y-50534000D01*
X71921451Y-49034000D01*
X71915659Y-48975190D01*
X71898504Y-48918640D01*
X71870647Y-48866523D01*
X71833158Y-48820842D01*
X71787477Y-48783353D01*
X71735360Y-48755496D01*
X71678810Y-48738341D01*
X71620000Y-48732549D01*
X71171077Y-48732549D01*
X71121478Y-48682950D01*
X71023207Y-48617287D01*
X70914014Y-48572058D01*
X70798095Y-48549000D01*
X70679905Y-48549000D01*
X70563986Y-48572058D01*
X70454793Y-48617287D01*
X70356522Y-48682950D01*
X70325000Y-48714472D01*
X70325000Y-43921520D01*
X70448869Y-43921520D01*
X70448869Y-46420880D01*
X70454661Y-46479690D01*
X70471816Y-46536240D01*
X70499673Y-46588357D01*
X70537162Y-46634038D01*
X70582843Y-46671527D01*
X70634960Y-46699384D01*
X70691510Y-46716539D01*
X70750320Y-46722331D01*
X73249680Y-46722331D01*
X73308490Y-46716539D01*
X73365040Y-46699384D01*
X73417157Y-46671527D01*
X73462838Y-46634038D01*
X73500327Y-46588357D01*
X73528184Y-46536240D01*
X73545339Y-46479690D01*
X73551131Y-46420880D01*
X73551131Y-43921520D01*
X73545339Y-43862710D01*
X73528184Y-43806160D01*
X73500327Y-43754043D01*
X73462838Y-43708362D01*
X73417157Y-43670873D01*
X73365040Y-43643016D01*
X73308490Y-43625861D01*
X73249680Y-43620069D01*
X70750320Y-43620069D01*
X70691510Y-43625861D01*
X70634960Y-43643016D01*
X70582843Y-43670873D01*
X70537162Y-43708362D01*
X70499673Y-43754043D01*
X70471816Y-43806160D01*
X70454661Y-43862710D01*
X70448869Y-43921520D01*
X70325000Y-43921520D01*
X70325000Y-39949000D01*
X71359845Y-39949000D01*
X71265951Y-39987892D01*
G36*
X79991001Y-76478813D02*
G01*
X78791500Y-77678315D01*
X78791500Y-77650131D01*
X78762678Y-77505233D01*
X78706141Y-77368742D01*
X78624063Y-77245903D01*
X78519597Y-77141437D01*
X78396758Y-77059359D01*
X78260267Y-77002822D01*
X78115369Y-76974000D01*
X77967631Y-76974000D01*
X77822733Y-77002822D01*
X77686242Y-77059359D01*
X77563403Y-77141437D01*
X77458937Y-77245903D01*
X77376859Y-77368742D01*
X77320322Y-77505233D01*
X77291500Y-77650131D01*
X77291500Y-77797869D01*
X77320322Y-77942767D01*
X77376859Y-78079258D01*
X77458937Y-78202097D01*
X77563403Y-78306563D01*
X77686242Y-78388641D01*
X77778676Y-78426929D01*
X77722522Y-78464450D01*
X77638950Y-78548022D01*
X77573287Y-78646293D01*
X77528058Y-78755486D01*
X77505000Y-78871405D01*
X77505000Y-78989595D01*
X77528058Y-79105514D01*
X77573287Y-79214707D01*
X77638950Y-79312978D01*
X77722522Y-79396550D01*
X77820793Y-79462213D01*
X77886900Y-79489595D01*
X77862471Y-79535298D01*
X77849522Y-79543950D01*
X77765950Y-79627522D01*
X77700287Y-79725793D01*
X77655058Y-79834986D01*
X77632000Y-79950905D01*
X77632000Y-80069095D01*
X77655058Y-80185014D01*
X77700287Y-80294207D01*
X77765950Y-80392478D01*
X77849522Y-80476050D01*
X77947793Y-80541713D01*
X78001398Y-80563917D01*
X77328052Y-81237263D01*
X77312789Y-81249789D01*
X77262803Y-81310698D01*
X77225660Y-81380187D01*
X77204224Y-81450853D01*
X77202788Y-81455587D01*
X77195065Y-81534000D01*
X77197000Y-81553646D01*
X77197001Y-86673471D01*
X77130950Y-86739522D01*
X77065287Y-86837793D01*
X77020058Y-86946986D01*
X76997000Y-87062905D01*
X76997000Y-87181095D01*
X77017469Y-87284000D01*
X76902905Y-87284000D01*
X76786986Y-87307058D01*
X76677793Y-87352287D01*
X76579522Y-87417950D01*
X76536500Y-87460972D01*
X76536500Y-85808146D01*
X76538435Y-85788500D01*
X76530712Y-85710086D01*
X76507840Y-85634685D01*
X76470697Y-85565197D01*
X76433235Y-85519549D01*
X76433233Y-85519547D01*
X76420711Y-85504289D01*
X76405454Y-85491768D01*
X76092000Y-85178315D01*
X76092000Y-82048141D01*
X76204405Y-82070500D01*
X76322595Y-82070500D01*
X76438514Y-82047442D01*
X76547707Y-82002213D01*
X76645978Y-81936550D01*
X76729550Y-81852978D01*
X76795213Y-81754707D01*
X76840442Y-81645514D01*
X76863500Y-81529595D01*
X76863500Y-81411405D01*
X76840442Y-81295486D01*
X76795213Y-81186293D01*
X76729550Y-81088022D01*
X76645978Y-81004450D01*
X76547707Y-80938787D01*
X76438514Y-80893558D01*
X76322595Y-80870500D01*
X76204405Y-80870500D01*
X76092000Y-80892859D01*
X76092000Y-76238685D01*
X79991001Y-72339684D01*
X79991001Y-76478813D01*
G37*
X79991001Y-76478813D02*
X78791500Y-77678315D01*
X78791500Y-77650131D01*
X78762678Y-77505233D01*
X78706141Y-77368742D01*
X78624063Y-77245903D01*
X78519597Y-77141437D01*
X78396758Y-77059359D01*
X78260267Y-77002822D01*
X78115369Y-76974000D01*
X77967631Y-76974000D01*
X77822733Y-77002822D01*
X77686242Y-77059359D01*
X77563403Y-77141437D01*
X77458937Y-77245903D01*
X77376859Y-77368742D01*
X77320322Y-77505233D01*
X77291500Y-77650131D01*
X77291500Y-77797869D01*
X77320322Y-77942767D01*
X77376859Y-78079258D01*
X77458937Y-78202097D01*
X77563403Y-78306563D01*
X77686242Y-78388641D01*
X77778676Y-78426929D01*
X77722522Y-78464450D01*
X77638950Y-78548022D01*
X77573287Y-78646293D01*
X77528058Y-78755486D01*
X77505000Y-78871405D01*
X77505000Y-78989595D01*
X77528058Y-79105514D01*
X77573287Y-79214707D01*
X77638950Y-79312978D01*
X77722522Y-79396550D01*
X77820793Y-79462213D01*
X77886900Y-79489595D01*
X77862471Y-79535298D01*
X77849522Y-79543950D01*
X77765950Y-79627522D01*
X77700287Y-79725793D01*
X77655058Y-79834986D01*
X77632000Y-79950905D01*
X77632000Y-80069095D01*
X77655058Y-80185014D01*
X77700287Y-80294207D01*
X77765950Y-80392478D01*
X77849522Y-80476050D01*
X77947793Y-80541713D01*
X78001398Y-80563917D01*
X77328052Y-81237263D01*
X77312789Y-81249789D01*
X77262803Y-81310698D01*
X77225660Y-81380187D01*
X77204224Y-81450853D01*
X77202788Y-81455587D01*
X77195065Y-81534000D01*
X77197000Y-81553646D01*
X77197001Y-86673471D01*
X77130950Y-86739522D01*
X77065287Y-86837793D01*
X77020058Y-86946986D01*
X76997000Y-87062905D01*
X76997000Y-87181095D01*
X77017469Y-87284000D01*
X76902905Y-87284000D01*
X76786986Y-87307058D01*
X76677793Y-87352287D01*
X76579522Y-87417950D01*
X76536500Y-87460972D01*
X76536500Y-85808146D01*
X76538435Y-85788500D01*
X76530712Y-85710086D01*
X76507840Y-85634685D01*
X76470697Y-85565197D01*
X76433235Y-85519549D01*
X76433233Y-85519547D01*
X76420711Y-85504289D01*
X76405454Y-85491768D01*
X76092000Y-85178315D01*
X76092000Y-82048141D01*
X76204405Y-82070500D01*
X76322595Y-82070500D01*
X76438514Y-82047442D01*
X76547707Y-82002213D01*
X76645978Y-81936550D01*
X76729550Y-81852978D01*
X76795213Y-81754707D01*
X76840442Y-81645514D01*
X76863500Y-81529595D01*
X76863500Y-81411405D01*
X76840442Y-81295486D01*
X76795213Y-81186293D01*
X76729550Y-81088022D01*
X76645978Y-81004450D01*
X76547707Y-80938787D01*
X76438514Y-80893558D01*
X76322595Y-80870500D01*
X76204405Y-80870500D01*
X76092000Y-80892859D01*
X76092000Y-76238685D01*
X79991001Y-72339684D01*
X79991001Y-76478813D01*
G36*
X77151022Y-69935050D02*
G01*
X77249293Y-70000713D01*
X77358486Y-70045942D01*
X77474405Y-70069000D01*
X77592595Y-70069000D01*
X77708514Y-70045942D01*
X77768501Y-70021095D01*
X77768501Y-71144814D01*
X77049505Y-71863810D01*
X77030942Y-71770486D01*
X76985713Y-71661293D01*
X76920050Y-71563022D01*
X76836478Y-71479450D01*
X76738207Y-71413787D01*
X76629014Y-71368558D01*
X76513095Y-71345500D01*
X76394905Y-71345500D01*
X76278986Y-71368558D01*
X76169793Y-71413787D01*
X76071522Y-71479450D01*
X75987950Y-71563022D01*
X75922287Y-71661293D01*
X75877058Y-71770486D01*
X75854000Y-71886405D01*
X75854000Y-72004595D01*
X75877058Y-72120514D01*
X75922287Y-72229707D01*
X75987950Y-72327978D01*
X76071522Y-72411550D01*
X76169793Y-72477213D01*
X76278986Y-72522442D01*
X76372310Y-72541005D01*
X74232516Y-74680799D01*
X74191713Y-74582293D01*
X74188107Y-74576896D01*
X74198207Y-74572713D01*
X74296478Y-74507050D01*
X74380050Y-74423478D01*
X74445713Y-74325207D01*
X74490942Y-74216014D01*
X74514000Y-74100095D01*
X74514000Y-73981905D01*
X74490942Y-73865986D01*
X74445713Y-73756793D01*
X74380050Y-73658522D01*
X74314000Y-73592472D01*
X74314000Y-70015685D01*
X74460685Y-69869000D01*
X77084972Y-69869000D01*
X77151022Y-69935050D01*
G37*
X77151022Y-69935050D02*
X77249293Y-70000713D01*
X77358486Y-70045942D01*
X77474405Y-70069000D01*
X77592595Y-70069000D01*
X77708514Y-70045942D01*
X77768501Y-70021095D01*
X77768501Y-71144814D01*
X77049505Y-71863810D01*
X77030942Y-71770486D01*
X76985713Y-71661293D01*
X76920050Y-71563022D01*
X76836478Y-71479450D01*
X76738207Y-71413787D01*
X76629014Y-71368558D01*
X76513095Y-71345500D01*
X76394905Y-71345500D01*
X76278986Y-71368558D01*
X76169793Y-71413787D01*
X76071522Y-71479450D01*
X75987950Y-71563022D01*
X75922287Y-71661293D01*
X75877058Y-71770486D01*
X75854000Y-71886405D01*
X75854000Y-72004595D01*
X75877058Y-72120514D01*
X75922287Y-72229707D01*
X75987950Y-72327978D01*
X76071522Y-72411550D01*
X76169793Y-72477213D01*
X76278986Y-72522442D01*
X76372310Y-72541005D01*
X74232516Y-74680799D01*
X74191713Y-74582293D01*
X74188107Y-74576896D01*
X74198207Y-74572713D01*
X74296478Y-74507050D01*
X74380050Y-74423478D01*
X74445713Y-74325207D01*
X74490942Y-74216014D01*
X74514000Y-74100095D01*
X74514000Y-73981905D01*
X74490942Y-73865986D01*
X74445713Y-73756793D01*
X74380050Y-73658522D01*
X74314000Y-73592472D01*
X74314000Y-70015685D01*
X74460685Y-69869000D01*
X77084972Y-69869000D01*
X77151022Y-69935050D01*
G36*
X89685080Y-53443921D02*
G01*
X89695270Y-53452284D01*
X93147001Y-57027292D01*
X93147000Y-71848345D01*
X93067308Y-71655951D01*
X92897715Y-71402137D01*
X92681863Y-71186285D01*
X92428049Y-71016692D01*
X92146025Y-70899874D01*
X91846630Y-70840320D01*
X91541370Y-70840320D01*
X91241975Y-70899874D01*
X90959951Y-71016692D01*
X90915847Y-71046161D01*
X90189000Y-70319315D01*
X90189000Y-65570685D01*
X91977185Y-63782500D01*
X92070595Y-63782500D01*
X92186514Y-63759442D01*
X92295707Y-63714213D01*
X92393978Y-63648550D01*
X92477550Y-63564978D01*
X92543213Y-63466707D01*
X92588442Y-63357514D01*
X92611500Y-63241595D01*
X92611500Y-63123405D01*
X92588442Y-63007486D01*
X92543213Y-62898293D01*
X92477550Y-62800022D01*
X92393978Y-62716450D01*
X92295707Y-62650787D01*
X92186514Y-62605558D01*
X92070595Y-62582500D01*
X91952405Y-62582500D01*
X91836486Y-62605558D01*
X91727293Y-62650787D01*
X91629022Y-62716450D01*
X91545450Y-62800022D01*
X91479787Y-62898293D01*
X91434558Y-63007486D01*
X91411500Y-63123405D01*
X91411500Y-63216815D01*
X89744500Y-64883815D01*
X89744500Y-59777000D01*
X90717549Y-59777000D01*
X90717549Y-61127000D01*
X90723341Y-61185810D01*
X90740496Y-61242360D01*
X90768353Y-61294477D01*
X90805842Y-61340158D01*
X90851523Y-61377647D01*
X90903640Y-61405504D01*
X90960190Y-61422659D01*
X91019000Y-61428451D01*
X92369000Y-61428451D01*
X92427810Y-61422659D01*
X92484360Y-61405504D01*
X92536477Y-61377647D01*
X92582158Y-61340158D01*
X92619647Y-61294477D01*
X92647504Y-61242360D01*
X92664659Y-61185810D01*
X92670451Y-61127000D01*
X92670451Y-59777000D01*
X92664659Y-59718190D01*
X92647504Y-59661640D01*
X92619647Y-59609523D01*
X92582158Y-59563842D01*
X92536477Y-59526353D01*
X92484360Y-59498496D01*
X92427810Y-59481341D01*
X92369000Y-59475549D01*
X91019000Y-59475549D01*
X90960190Y-59481341D01*
X90903640Y-59498496D01*
X90851523Y-59526353D01*
X90805842Y-59563842D01*
X90768353Y-59609523D01*
X90740496Y-59661640D01*
X90723341Y-59718190D01*
X90717549Y-59777000D01*
X89744500Y-59777000D01*
X89744500Y-58355971D01*
X90719000Y-58355971D01*
X90719000Y-58548029D01*
X90756468Y-58736397D01*
X90829966Y-58913836D01*
X90936668Y-59073527D01*
X91072473Y-59209332D01*
X91232164Y-59316034D01*
X91409603Y-59389532D01*
X91597971Y-59427000D01*
X91790029Y-59427000D01*
X91978397Y-59389532D01*
X92155836Y-59316034D01*
X92315527Y-59209332D01*
X92451332Y-59073527D01*
X92558034Y-58913836D01*
X92631532Y-58736397D01*
X92669000Y-58548029D01*
X92669000Y-58355971D01*
X92631532Y-58167603D01*
X92558034Y-57990164D01*
X92451332Y-57830473D01*
X92315527Y-57694668D01*
X92155836Y-57587966D01*
X91978397Y-57514468D01*
X91790029Y-57477000D01*
X91597971Y-57477000D01*
X91409603Y-57514468D01*
X91232164Y-57587966D01*
X91072473Y-57694668D01*
X90936668Y-57830473D01*
X90829966Y-57990164D01*
X90756468Y-58167603D01*
X90719000Y-58355971D01*
X89744500Y-58355971D01*
X89744500Y-57689135D01*
X89746434Y-57669499D01*
X89744500Y-57649863D01*
X89744500Y-57649853D01*
X89738712Y-57591086D01*
X89715840Y-57515686D01*
X89678697Y-57446197D01*
X89628711Y-57385289D01*
X89613448Y-57372763D01*
X89100000Y-56859315D01*
X89100000Y-56765905D01*
X89076942Y-56649986D01*
X89031713Y-56540793D01*
X88966050Y-56442522D01*
X88882478Y-56358950D01*
X88784207Y-56293287D01*
X88749340Y-56278845D01*
X89549949Y-55478236D01*
X89565211Y-55465711D01*
X89615197Y-55404803D01*
X89652340Y-55335314D01*
X89675212Y-55259914D01*
X89681000Y-55201147D01*
X89681000Y-55201137D01*
X89682934Y-55181501D01*
X89681000Y-55161865D01*
X89681000Y-53438950D01*
X89685080Y-53443921D01*
G37*
X89685080Y-53443921D02*
X89695270Y-53452284D01*
X93147001Y-57027292D01*
X93147000Y-71848345D01*
X93067308Y-71655951D01*
X92897715Y-71402137D01*
X92681863Y-71186285D01*
X92428049Y-71016692D01*
X92146025Y-70899874D01*
X91846630Y-70840320D01*
X91541370Y-70840320D01*
X91241975Y-70899874D01*
X90959951Y-71016692D01*
X90915847Y-71046161D01*
X90189000Y-70319315D01*
X90189000Y-65570685D01*
X91977185Y-63782500D01*
X92070595Y-63782500D01*
X92186514Y-63759442D01*
X92295707Y-63714213D01*
X92393978Y-63648550D01*
X92477550Y-63564978D01*
X92543213Y-63466707D01*
X92588442Y-63357514D01*
X92611500Y-63241595D01*
X92611500Y-63123405D01*
X92588442Y-63007486D01*
X92543213Y-62898293D01*
X92477550Y-62800022D01*
X92393978Y-62716450D01*
X92295707Y-62650787D01*
X92186514Y-62605558D01*
X92070595Y-62582500D01*
X91952405Y-62582500D01*
X91836486Y-62605558D01*
X91727293Y-62650787D01*
X91629022Y-62716450D01*
X91545450Y-62800022D01*
X91479787Y-62898293D01*
X91434558Y-63007486D01*
X91411500Y-63123405D01*
X91411500Y-63216815D01*
X89744500Y-64883815D01*
X89744500Y-59777000D01*
X90717549Y-59777000D01*
X90717549Y-61127000D01*
X90723341Y-61185810D01*
X90740496Y-61242360D01*
X90768353Y-61294477D01*
X90805842Y-61340158D01*
X90851523Y-61377647D01*
X90903640Y-61405504D01*
X90960190Y-61422659D01*
X91019000Y-61428451D01*
X92369000Y-61428451D01*
X92427810Y-61422659D01*
X92484360Y-61405504D01*
X92536477Y-61377647D01*
X92582158Y-61340158D01*
X92619647Y-61294477D01*
X92647504Y-61242360D01*
X92664659Y-61185810D01*
X92670451Y-61127000D01*
X92670451Y-59777000D01*
X92664659Y-59718190D01*
X92647504Y-59661640D01*
X92619647Y-59609523D01*
X92582158Y-59563842D01*
X92536477Y-59526353D01*
X92484360Y-59498496D01*
X92427810Y-59481341D01*
X92369000Y-59475549D01*
X91019000Y-59475549D01*
X90960190Y-59481341D01*
X90903640Y-59498496D01*
X90851523Y-59526353D01*
X90805842Y-59563842D01*
X90768353Y-59609523D01*
X90740496Y-59661640D01*
X90723341Y-59718190D01*
X90717549Y-59777000D01*
X89744500Y-59777000D01*
X89744500Y-58355971D01*
X90719000Y-58355971D01*
X90719000Y-58548029D01*
X90756468Y-58736397D01*
X90829966Y-58913836D01*
X90936668Y-59073527D01*
X91072473Y-59209332D01*
X91232164Y-59316034D01*
X91409603Y-59389532D01*
X91597971Y-59427000D01*
X91790029Y-59427000D01*
X91978397Y-59389532D01*
X92155836Y-59316034D01*
X92315527Y-59209332D01*
X92451332Y-59073527D01*
X92558034Y-58913836D01*
X92631532Y-58736397D01*
X92669000Y-58548029D01*
X92669000Y-58355971D01*
X92631532Y-58167603D01*
X92558034Y-57990164D01*
X92451332Y-57830473D01*
X92315527Y-57694668D01*
X92155836Y-57587966D01*
X91978397Y-57514468D01*
X91790029Y-57477000D01*
X91597971Y-57477000D01*
X91409603Y-57514468D01*
X91232164Y-57587966D01*
X91072473Y-57694668D01*
X90936668Y-57830473D01*
X90829966Y-57990164D01*
X90756468Y-58167603D01*
X90719000Y-58355971D01*
X89744500Y-58355971D01*
X89744500Y-57689135D01*
X89746434Y-57669499D01*
X89744500Y-57649863D01*
X89744500Y-57649853D01*
X89738712Y-57591086D01*
X89715840Y-57515686D01*
X89678697Y-57446197D01*
X89628711Y-57385289D01*
X89613448Y-57372763D01*
X89100000Y-56859315D01*
X89100000Y-56765905D01*
X89076942Y-56649986D01*
X89031713Y-56540793D01*
X88966050Y-56442522D01*
X88882478Y-56358950D01*
X88784207Y-56293287D01*
X88749340Y-56278845D01*
X89549949Y-55478236D01*
X89565211Y-55465711D01*
X89615197Y-55404803D01*
X89652340Y-55335314D01*
X89675212Y-55259914D01*
X89681000Y-55201147D01*
X89681000Y-55201137D01*
X89682934Y-55181501D01*
X89681000Y-55161865D01*
X89681000Y-53438950D01*
X89685080Y-53443921D01*
G36*
X87293501Y-47854187D02*
G01*
X87293500Y-52573972D01*
X87227450Y-52640022D01*
X87161787Y-52738293D01*
X87116558Y-52847486D01*
X87093500Y-52963405D01*
X87093500Y-53081595D01*
X87104728Y-53138043D01*
X86696500Y-52729815D01*
X86696500Y-51518147D01*
X86698435Y-51498500D01*
X86690712Y-51420086D01*
X86667840Y-51344686D01*
X86630697Y-51275197D01*
X86613432Y-51254160D01*
X86580711Y-51214289D01*
X86565449Y-51201764D01*
X84958201Y-49594516D01*
X85056707Y-49553713D01*
X85154978Y-49488050D01*
X85238550Y-49404478D01*
X85304213Y-49306207D01*
X85349442Y-49197014D01*
X85372500Y-49081095D01*
X85372500Y-48987685D01*
X86057454Y-48302732D01*
X86072711Y-48290211D01*
X86122697Y-48229303D01*
X86159840Y-48159814D01*
X86182712Y-48084414D01*
X86188500Y-48025647D01*
X86188500Y-48025646D01*
X86190435Y-48006000D01*
X86188500Y-47986354D01*
X86188500Y-46749186D01*
X87293501Y-47854187D01*
G37*
X87293501Y-47854187D02*
X87293500Y-52573972D01*
X87227450Y-52640022D01*
X87161787Y-52738293D01*
X87116558Y-52847486D01*
X87093500Y-52963405D01*
X87093500Y-53081595D01*
X87104728Y-53138043D01*
X86696500Y-52729815D01*
X86696500Y-51518147D01*
X86698435Y-51498500D01*
X86690712Y-51420086D01*
X86667840Y-51344686D01*
X86630697Y-51275197D01*
X86613432Y-51254160D01*
X86580711Y-51214289D01*
X86565449Y-51201764D01*
X84958201Y-49594516D01*
X85056707Y-49553713D01*
X85154978Y-49488050D01*
X85238550Y-49404478D01*
X85304213Y-49306207D01*
X85349442Y-49197014D01*
X85372500Y-49081095D01*
X85372500Y-48987685D01*
X86057454Y-48302732D01*
X86072711Y-48290211D01*
X86122697Y-48229303D01*
X86159840Y-48159814D01*
X86182712Y-48084414D01*
X86188500Y-48025647D01*
X86188500Y-48025646D01*
X86190435Y-48006000D01*
X86188500Y-47986354D01*
X86188500Y-46749186D01*
X87293501Y-47854187D01*
M02*
