G04 #@! TF.GenerationSoftware,KiCad,Pcbnew,(5.1.5)-3*
G04 #@! TF.CreationDate,2021-11-09T21:41:46-05:00*
G04 #@! TF.ProjectId,MotorDriver,4d6f746f-7244-4726-9976-65722e6b6963,rev?*
G04 #@! TF.SameCoordinates,Original*
G04 #@! TF.FileFunction,Legend,Bot*
G04 #@! TF.FilePolarity,Positive*
%FSLAX46Y46*%
G04 Gerber Fmt 4.6, Leading zero omitted, Abs format (unit mm)*
G04 Created by KiCad (PCBNEW (5.1.5)-3) date 2021-11-09 21:41:46*
%MOMM*%
%LPD*%
G04 APERTURE LIST*
%ADD10C,0.150000*%
%ADD11C,0.120000*%
%ADD12O,1.452000X1.452000*%
%ADD13R,1.452000X1.452000*%
%ADD14R,1.102000X1.602000*%
%ADD15C,2.601360*%
%ADD16R,2.601360X2.601360*%
G04 APERTURE END LIST*
D10*
X83787785Y-44584880D02*
X83787785Y-43584880D01*
X83549690Y-43584880D01*
X83406833Y-43632500D01*
X83311595Y-43727738D01*
X83263976Y-43822976D01*
X83216357Y-44013452D01*
X83216357Y-44156309D01*
X83263976Y-44346785D01*
X83311595Y-44442023D01*
X83406833Y-44537261D01*
X83549690Y-44584880D01*
X83787785Y-44584880D01*
X82787785Y-44584880D02*
X82787785Y-43918214D01*
X82787785Y-44108690D02*
X82740166Y-44013452D01*
X82692547Y-43965833D01*
X82597309Y-43918214D01*
X82502071Y-43918214D01*
X82168738Y-44584880D02*
X82168738Y-43918214D01*
X82168738Y-43584880D02*
X82216357Y-43632500D01*
X82168738Y-43680119D01*
X82121119Y-43632500D01*
X82168738Y-43584880D01*
X82168738Y-43680119D01*
X81787785Y-43918214D02*
X81549690Y-44584880D01*
X81311595Y-43918214D01*
X80549690Y-44537261D02*
X80644928Y-44584880D01*
X80835404Y-44584880D01*
X80930642Y-44537261D01*
X80978261Y-44442023D01*
X80978261Y-44061071D01*
X80930642Y-43965833D01*
X80835404Y-43918214D01*
X80644928Y-43918214D01*
X80549690Y-43965833D01*
X80502071Y-44061071D01*
X80502071Y-44156309D01*
X80978261Y-44251547D01*
X80073500Y-44584880D02*
X80073500Y-43918214D01*
X80073500Y-44108690D02*
X80025880Y-44013452D01*
X79978261Y-43965833D01*
X79883023Y-43918214D01*
X79787785Y-43918214D01*
X78883023Y-44584880D02*
X79216357Y-44108690D01*
X79454452Y-44584880D02*
X79454452Y-43584880D01*
X79073500Y-43584880D01*
X78978261Y-43632500D01*
X78930642Y-43680119D01*
X78883023Y-43775357D01*
X78883023Y-43918214D01*
X78930642Y-44013452D01*
X78978261Y-44061071D01*
X79073500Y-44108690D01*
X79454452Y-44108690D01*
X78073500Y-44537261D02*
X78168738Y-44584880D01*
X78359214Y-44584880D01*
X78454452Y-44537261D01*
X78502071Y-44442023D01*
X78502071Y-44061071D01*
X78454452Y-43965833D01*
X78359214Y-43918214D01*
X78168738Y-43918214D01*
X78073500Y-43965833D01*
X78025880Y-44061071D01*
X78025880Y-44156309D01*
X78502071Y-44251547D01*
X77692547Y-43918214D02*
X77454452Y-44584880D01*
X77216357Y-43918214D01*
X76311595Y-44584880D02*
X76883023Y-44584880D01*
X76597309Y-44584880D02*
X76597309Y-43584880D01*
X76692547Y-43727738D01*
X76787785Y-43822976D01*
X76883023Y-43870595D01*
D11*
X83753500Y-94027500D02*
X87185500Y-94027500D01*
X87185500Y-94027500D02*
X87185500Y-92027500D01*
X87185500Y-92027500D02*
X83753500Y-92027500D01*
X83753500Y-92027500D02*
X83753500Y-94027500D01*
X73790000Y-48784000D02*
X70358000Y-48784000D01*
X70358000Y-48784000D02*
X70358000Y-50784000D01*
X70358000Y-50784000D02*
X73790000Y-50784000D01*
X73790000Y-50784000D02*
X73790000Y-48784000D01*
X84706000Y-66735200D02*
X88138000Y-66735200D01*
X88138000Y-66735200D02*
X88138000Y-64735200D01*
X88138000Y-64735200D02*
X84706000Y-64735200D01*
X84706000Y-64735200D02*
X84706000Y-66735200D01*
D10*
X90431880Y-59293190D02*
X89431880Y-59293190D01*
X89431880Y-59959857D02*
X89431880Y-60150333D01*
X89479500Y-60245571D01*
X89574738Y-60340809D01*
X89765214Y-60388428D01*
X90098547Y-60388428D01*
X90289023Y-60340809D01*
X90384261Y-60245571D01*
X90431880Y-60150333D01*
X90431880Y-59959857D01*
X90384261Y-59864619D01*
X90289023Y-59769380D01*
X90098547Y-59721761D01*
X89765214Y-59721761D01*
X89574738Y-59769380D01*
X89479500Y-59864619D01*
X89431880Y-59959857D01*
X85986833Y-94279880D02*
X85986833Y-94994166D01*
X86034452Y-95137023D01*
X86129690Y-95232261D01*
X86272547Y-95279880D01*
X86367785Y-95279880D01*
X85510642Y-95279880D02*
X85510642Y-94279880D01*
X85129690Y-94279880D01*
X85034452Y-94327500D01*
X84986833Y-94375119D01*
X84939214Y-94470357D01*
X84939214Y-94613214D01*
X84986833Y-94708452D01*
X85034452Y-94756071D01*
X85129690Y-94803690D01*
X85510642Y-94803690D01*
X84605880Y-94279880D02*
X83986833Y-94279880D01*
X84320166Y-94660833D01*
X84177309Y-94660833D01*
X84082071Y-94708452D01*
X84034452Y-94756071D01*
X83986833Y-94851309D01*
X83986833Y-95089404D01*
X84034452Y-95184642D01*
X84082071Y-95232261D01*
X84177309Y-95279880D01*
X84463023Y-95279880D01*
X84558261Y-95232261D01*
X84605880Y-95184642D01*
X73747142Y-51612571D02*
X73604285Y-51660190D01*
X73556666Y-51707809D01*
X73509047Y-51803047D01*
X73509047Y-51945904D01*
X73556666Y-52041142D01*
X73604285Y-52088761D01*
X73699523Y-52136380D01*
X74080476Y-52136380D01*
X74080476Y-51136380D01*
X73747142Y-51136380D01*
X73651904Y-51184000D01*
X73604285Y-51231619D01*
X73556666Y-51326857D01*
X73556666Y-51422095D01*
X73604285Y-51517333D01*
X73651904Y-51564952D01*
X73747142Y-51612571D01*
X74080476Y-51612571D01*
X72890000Y-51136380D02*
X72699523Y-51136380D01*
X72604285Y-51184000D01*
X72509047Y-51279238D01*
X72461428Y-51469714D01*
X72461428Y-51803047D01*
X72509047Y-51993523D01*
X72604285Y-52088761D01*
X72699523Y-52136380D01*
X72890000Y-52136380D01*
X72985238Y-52088761D01*
X73080476Y-51993523D01*
X73128095Y-51803047D01*
X73128095Y-51469714D01*
X73080476Y-51279238D01*
X72985238Y-51184000D01*
X72890000Y-51136380D01*
X71842380Y-51136380D02*
X71651904Y-51136380D01*
X71556666Y-51184000D01*
X71461428Y-51279238D01*
X71413809Y-51469714D01*
X71413809Y-51803047D01*
X71461428Y-51993523D01*
X71556666Y-52088761D01*
X71651904Y-52136380D01*
X71842380Y-52136380D01*
X71937619Y-52088761D01*
X72032857Y-51993523D01*
X72080476Y-51803047D01*
X72080476Y-51469714D01*
X72032857Y-51279238D01*
X71937619Y-51184000D01*
X71842380Y-51136380D01*
X71128095Y-51136380D02*
X70556666Y-51136380D01*
X70842380Y-52136380D02*
X70842380Y-51136380D01*
X86653619Y-64287580D02*
X86986952Y-63811390D01*
X87225047Y-64287580D02*
X87225047Y-63287580D01*
X86844095Y-63287580D01*
X86748857Y-63335200D01*
X86701238Y-63382819D01*
X86653619Y-63478057D01*
X86653619Y-63620914D01*
X86701238Y-63716152D01*
X86748857Y-63763771D01*
X86844095Y-63811390D01*
X87225047Y-63811390D01*
X86272666Y-64239961D02*
X86129809Y-64287580D01*
X85891714Y-64287580D01*
X85796476Y-64239961D01*
X85748857Y-64192342D01*
X85701238Y-64097104D01*
X85701238Y-64001866D01*
X85748857Y-63906628D01*
X85796476Y-63859009D01*
X85891714Y-63811390D01*
X86082190Y-63763771D01*
X86177428Y-63716152D01*
X86225047Y-63668533D01*
X86272666Y-63573295D01*
X86272666Y-63478057D01*
X86225047Y-63382819D01*
X86177428Y-63335200D01*
X86082190Y-63287580D01*
X85844095Y-63287580D01*
X85701238Y-63335200D01*
X85415523Y-63287580D02*
X84844095Y-63287580D01*
X85129809Y-64287580D02*
X85129809Y-63287580D01*
X88574571Y-73636095D02*
X88622190Y-73493238D01*
X88669809Y-73445619D01*
X88765047Y-73398000D01*
X88907904Y-73398000D01*
X89003142Y-73445619D01*
X89050761Y-73493238D01*
X89098380Y-73588476D01*
X89098380Y-73969428D01*
X88098380Y-73969428D01*
X88098380Y-73636095D01*
X88146000Y-73540857D01*
X88193619Y-73493238D01*
X88288857Y-73445619D01*
X88384095Y-73445619D01*
X88479333Y-73493238D01*
X88526952Y-73540857D01*
X88574571Y-73636095D01*
X88574571Y-73969428D01*
X88812666Y-73017047D02*
X88812666Y-72540857D01*
X89098380Y-73112285D02*
X88098380Y-72778952D01*
X89098380Y-72445619D01*
X88098380Y-72255142D02*
X88098380Y-71683714D01*
X89098380Y-71969428D02*
X88098380Y-71969428D01*
X85677580Y-40171809D02*
X84677580Y-40171809D01*
X84772819Y-40600380D02*
X84725200Y-40648000D01*
X84677580Y-40743238D01*
X84677580Y-40981333D01*
X84725200Y-41076571D01*
X84772819Y-41124190D01*
X84868057Y-41171809D01*
X84963295Y-41171809D01*
X85106152Y-41124190D01*
X85677580Y-40552761D01*
X85677580Y-41171809D01*
X85582342Y-42171809D02*
X85629961Y-42124190D01*
X85677580Y-41981333D01*
X85677580Y-41886095D01*
X85629961Y-41743238D01*
X85534723Y-41648000D01*
X85439485Y-41600380D01*
X85249009Y-41552761D01*
X85106152Y-41552761D01*
X84915676Y-41600380D01*
X84820438Y-41648000D01*
X84725200Y-41743238D01*
X84677580Y-41886095D01*
X84677580Y-41981333D01*
X84725200Y-42124190D01*
X84772819Y-42171809D01*
%LPC*%
D12*
X91694000Y-58452000D03*
D13*
X91694000Y-60452000D03*
D12*
X68580000Y-60294000D03*
X68580000Y-62294000D03*
X68580000Y-64294000D03*
D13*
X68580000Y-66294000D03*
D14*
X84503500Y-93027500D03*
X86423500Y-93027500D03*
X73040000Y-49784000D03*
X71120000Y-49784000D03*
X85456000Y-65735200D03*
X87376000Y-65735200D03*
D15*
X91694000Y-72390000D03*
D16*
X91694000Y-68580000D03*
D12*
X83165200Y-41148000D03*
X81165200Y-41148000D03*
X79165200Y-41148000D03*
D13*
X77165200Y-41148000D03*
D15*
X72000000Y-76464000D03*
D16*
X72000000Y-80274000D03*
D15*
X88000000Y-80264000D03*
D16*
X88000000Y-76454000D03*
D15*
X88000000Y-45161200D03*
D16*
X88000000Y-41351200D03*
D15*
X72000000Y-41361200D03*
D16*
X72000000Y-45171200D03*
M02*
